<svg width="165" height="277" viewBox="0 0 165 277" fill="none" xmlns="http://www.w3.org/2000/svg">
<g clip-path="url(#clip0_204_34222)">
<g style="mix-blend-mode:multiply">
<path d="M142.431 238.47L141.581 249.42H105.147L103.303 271.573H84.5774L63.2535 259.938L30.9144 254.295L-0.933838 248.159L62.8703 234.387L68.6054 233.811L83.3322 225.286L142.431 238.47Z" fill="#897998"/>
</g>
<path d="M65.1931 241.459L103.315 263.528V269.58L65.1931 247.511V241.459Z" fill="#573A44"/>
<path d="M141.425 241.459L103.315 263.528V269.58L141.425 247.511V241.459Z" fill="#8A5B6B"/>
<path d="M103.315 219.391L141.425 241.459L103.315 263.528L65.1931 241.459L103.315 219.391Z" fill="#7876EE"/>
<path d="M103.315 264.069L105.015 263.084V270.576L103.315 271.573V264.069Z" fill="#E5DED0"/>
<path d="M103.315 264.069L101.603 263.084V270.576L103.303 271.573L103.315 264.069Z" fill="#A27E7E"/>
<path d="M141.581 241.916L143.281 240.931L143.293 248.423L141.581 249.408V241.916Z" fill="#E5DED0"/>
<path d="M141.581 241.916L139.881 240.931L139.869 248.423L141.569 249.408L141.581 241.916Z" fill="#A27E7E"/>
<path d="M65.0374 241.916L66.7495 240.931V248.423L65.0493 249.408L65.0374 241.916Z" fill="#E5DED0"/>
<path d="M65.0373 241.916L63.3372 240.931V248.423L65.0373 249.408V241.916Z" fill="#A27E7E"/>
<path d="M94.3953 58.1735V95.9113L98.3703 93.618V55.8682L94.3953 58.1735Z" fill="#A27E7E"/>
<path d="M103.315 211.442L143.281 234.58L103.315 257.729L63.3372 234.58L103.315 211.442Z" fill="#F8F6E1"/>
<path d="M103.315 211.442L137.019 230.954L97.0531 254.103L63.3372 234.58L103.315 211.442Z" fill="#D1BBB2"/>
<path d="M66.7974 223.905L68.4976 222.921L66.7495 234.58L65.0374 235.564L66.7974 223.905Z" fill="#704C4C"/>
<path d="M102.944 256.492L97.0891 245.962L116.102 247.523L109.086 238.782L128.219 240.199L119.491 232.298L140.874 234.484L140.695 236.165L124.447 234.496L132.996 242.24L112.834 240.751L119.874 249.528L100.094 247.895L104.417 255.664L102.944 256.492Z" fill="#979A9E"/>
<path d="M104.464 256.372L102.896 255.784L109.266 238.422L117.048 246.478L121.55 231.23L129.548 239.106L132.481 224.59L140.886 234.351L139.605 235.456L133.451 228.312L130.578 242.492L122.376 234.412L117.85 249.732L109.924 241.532L104.464 256.372Z" fill="#A27E7E"/>
<path d="M101.807 256.564L96.347 241.736L88.4208 249.924L83.907 234.604L75.6935 242.696L72.82 228.504L66.6659 235.66L65.3967 234.556L73.7898 224.794L76.7232 239.298L84.7212 231.422L89.223 246.671L97.0055 238.626L103.387 255.988L101.807 256.564Z" fill="#704C4C"/>
<path d="M63.3372 234.58L103.315 257.729V264.069L63.3372 240.931V234.58Z" fill="#A27E7E"/>
<path d="M143.281 234.58L103.315 257.729V264.069L143.281 240.931V234.58Z" fill="#E5DED0"/>
<path d="M100.813 257.032L95.365 242.192L87.4389 250.393L82.9131 235.072L74.6996 243.152L71.8381 228.96L65.6839 236.116L64.4028 235.012L72.8079 225.25L75.7413 239.766L83.7392 231.89L88.2291 247.139L96.0235 239.082L102.393 256.444L100.813 257.032Z" fill="#A27E7E"/>
<path d="M139.581 224.05L137.881 223.065L139.881 234.58L141.581 235.564L139.581 224.05Z" fill="#A27E7E"/>
<path d="M105.806 257.032L104.225 256.444L110.595 239.082L118.389 247.139L122.891 231.89L130.889 239.766L133.822 225.25L142.215 235.012L140.946 236.116L134.792 228.96L131.919 243.152L123.705 235.072L119.191 250.393L111.253 242.192L105.806 257.032Z" fill="#E5DED0"/>
<path d="M139.581 224.05L141.281 223.065L143.281 234.58L141.581 235.564L139.581 224.05Z" fill="#E5DED0"/>
<path d="M111.361 61.5113L141.282 223.065L103.064 200.936L103.16 56.7686L111.361 61.5113Z" fill="#908F95"/>
<path d="M103.207 66.2304L111.361 61.5117L141.281 223.065L103.303 245.05L103.207 66.2304Z" fill="#E5DED0"/>
<path d="M139.593 222.285L104.824 242.408V237.269V236.681L104.812 229.525V228.936V221.78V221.192L104.8 214.036V213.447V206.291V205.703V198.559V197.971V190.814V190.226L104.788 183.07V182.482V175.325V174.737V167.581V166.993L104.776 159.836V159.248V152.104V151.516L104.764 144.36V143.771V136.615V136.027V128.871V128.282V121.126L104.752 120.538V113.394V112.805V105.649V105.061L104.74 97.9047V97.3164V90.1602V89.5719V82.4158V81.8274L104.728 74.6833V74.095V67.1069L110.26 63.9131L136.145 203.638L137.438 210.638L138.731 217.626L139.593 222.285Z" fill="#8A5B6B"/>
<path d="M111.098 68.4034L138.731 217.626L138.228 217.337L110.583 68.1152L111.098 68.4034Z" fill="#A27E7E"/>
<path d="M138.731 217.626L104.824 237.269V236.681L138.228 217.337L138.731 217.626Z" fill="#E7E7EE"/>
<path d="M137.438 210.638L104.812 229.524V228.936L136.923 210.337L137.438 210.638Z" fill="#E7E7EE"/>
<path d="M136.145 203.638L104.812 221.78V221.192L135.63 203.35L136.145 203.638Z" fill="#E7E7EE"/>
<path d="M134.84 196.65L104.8 214.036V213.447L134.337 196.35L134.84 196.65Z" fill="#E7E7EE"/>
<path d="M133.547 189.649L104.8 206.291V205.715L133.044 189.361L133.547 189.649Z" fill="#E7E7EE"/>
<path d="M132.254 182.662L104.8 198.559V197.97L131.751 182.361L132.254 182.662Z" fill="#E7E7EE"/>
<path d="M130.961 175.662L104.8 190.814V190.226L130.446 175.374L130.961 175.662Z" fill="#E7E7EE"/>
<path d="M129.668 168.673L104.788 183.07V182.481L129.153 168.373L129.668 168.673Z" fill="#E7E7EE"/>
<path d="M128.363 161.673L104.788 175.325V174.737L127.86 161.385L128.363 161.673Z" fill="#E7E7EE"/>
<path d="M127.07 154.685L104.788 167.593V167.005L126.567 154.385L127.07 154.685Z" fill="#E7E7EE"/>
<path d="M125.777 147.685L104.776 159.848V159.26L125.262 147.397L125.777 147.685Z" fill="#E7E7EE"/>
<path d="M124.483 140.697L104.776 152.104V151.515L123.969 140.397L124.483 140.697Z" fill="#E7E7EE"/>
<path d="M123.178 133.697L104.764 144.36V143.771L122.676 133.409L123.178 133.697Z" fill="#E7E7EE"/>
<path d="M121.885 126.709L104.764 136.615V136.039L121.382 126.409L121.885 126.709Z" fill="#E7E7EE"/>
<path d="M120.592 119.709L104.764 128.882V128.294L120.089 119.421L120.592 119.709Z" fill="#E7E7EE"/>
<path d="M119.299 112.721L104.752 121.138V120.55L118.784 112.421L119.299 112.721Z" fill="#E7E7EE"/>
<path d="M118.006 105.721L104.752 113.394V112.805L117.491 105.433L118.006 105.721Z" fill="#E7E7EE"/>
<path d="M116.701 98.7328L104.752 105.649V105.06L116.198 98.4326L116.701 98.7328Z" fill="#E7E7EE"/>
<path d="M115.408 91.733L104.74 97.9166V97.3282L114.905 91.4448L115.408 91.733Z" fill="#E7E7EE"/>
<path d="M114.115 84.745L104.74 90.1721V89.5838L113.612 84.4448L114.115 84.745Z" fill="#E7E7EE"/>
<path d="M112.81 77.7447L104.74 82.4274V81.8391L112.307 77.4565L112.81 77.7447Z" fill="#E7E7EE"/>
<path d="M111.517 70.7567L104.728 74.683V74.0946L111.014 70.4565L111.517 70.7567Z" fill="#E7E7EE"/>
<path d="M104.8 190.814V195.965L131.823 180.32L130.961 175.662L104.8 190.814Z" fill="#E5DED0"/>
<path d="M104.788 183.07V188.221L130.53 173.32L129.668 168.673L104.788 183.07Z" fill="#E5DED0"/>
<path d="M104.788 175.325V180.476L129.237 166.32L128.375 161.673L104.788 175.325Z" fill="#E5DED0"/>
<path d="M104.8 198.559V203.698L133.116 187.308L132.254 182.662L104.8 198.559Z" fill="#E5DED0"/>
<path d="M104.788 167.593V172.732L127.932 159.332L127.07 154.686L104.788 167.593Z" fill="#E5DED0"/>
<path d="M104.812 229.525V234.664L138.3 215.284L137.438 210.638L104.812 229.525Z" fill="#E5DED0"/>
<path d="M139.593 222.284L138.731 217.625L104.824 237.269V242.408L139.593 222.284Z" fill="#E5DED0"/>
<path d="M104.776 152.104V157.255L125.346 145.344L124.483 140.697L104.776 152.104Z" fill="#E5DED0"/>
<path d="M104.8 214.035L104.812 219.186L135.702 201.296L134.852 196.649L104.8 214.035Z" fill="#E5DED0"/>
<path d="M104.8 206.291V211.442L134.409 194.296L133.547 189.649L104.8 206.291Z" fill="#E5DED0"/>
<path d="M104.812 221.78V226.931L137.007 208.284L136.145 203.638L104.812 221.78Z" fill="#E5DED0"/>
<path d="M104.776 159.849V164.988L126.639 152.332L125.777 147.686L104.776 159.849Z" fill="#E5DED0"/>
<path d="M104.74 82.4278V87.5788L113.684 82.3918L112.822 77.7451L104.74 82.4278Z" fill="#E5DED0"/>
<path d="M104.74 90.1722V95.3112L114.977 89.3918L114.115 84.7451L104.74 90.1722Z" fill="#E5DED0"/>
<path d="M104.74 97.9165L104.752 103.055L116.27 96.3796L115.42 91.7329L104.74 97.9165Z" fill="#E5DED0"/>
<path d="M104.728 67.1069V72.0898L111.098 68.4037L110.26 63.9131L104.728 67.1069Z" fill="#E5DED0"/>
<path d="M104.728 74.6829L104.74 79.8339L112.391 75.4033L111.529 70.7446L104.728 74.6829Z" fill="#E5DED0"/>
<path d="M104.764 136.615V141.766L122.759 131.356L121.897 126.709L104.764 136.615Z" fill="#E5DED0"/>
<path d="M104.764 128.882V134.021L121.454 124.356L120.592 119.709L104.764 128.882Z" fill="#E5DED0"/>
<path d="M104.764 144.359L104.776 149.51L124.052 138.344L123.19 133.697L104.764 144.359Z" fill="#E5DED0"/>
<path d="M104.752 121.138L104.764 126.289L120.161 117.368L119.299 112.721L104.752 121.138Z" fill="#E5DED0"/>
<path d="M104.752 105.649V110.8L117.575 103.38L116.713 98.7329L104.752 105.649Z" fill="#E5DED0"/>
<path d="M104.752 113.394V118.545L118.868 110.368L118.006 105.721L104.752 113.394Z" fill="#E5DED0"/>
<path d="M103.159 56.7686L95.0057 61.4873L65.0972 222.921L103.064 200.936L103.159 56.7686Z" fill="#74797F"/>
<path d="M108.931 66.5904L94.3953 58.1735L98.3703 55.8682L112.906 64.285L108.931 66.5904Z" fill="#E7E7EE"/>
<path d="M94.3953 58.1738L96.8857 59.6266L101.531 54.1875L98.3703 55.8685L94.3953 58.1738Z" fill="#A27E7E"/>
<path d="M108.93 66.5905V104.328L112.905 102.023V64.2852L108.93 66.5905Z" fill="#E5DED0"/>
<path d="M103.207 66.23L103.303 245.049L65.0972 222.921L95.0057 61.4873L103.207 66.23Z" fill="#A27E7E"/>
<path d="M101.783 242.408L66.7734 222.14L67.6355 217.494L68.9406 210.494L70.2336 203.506L71.5267 196.506L72.8198 189.518L74.1249 182.53L75.4179 175.529L76.711 168.541L78.0041 161.541L79.3092 154.553L80.6023 147.553L81.8953 140.565L83.1884 133.565L84.4935 126.577L87.0797 112.589L88.3727 105.589L89.6778 98.601L90.9709 91.601L93.557 77.6129L94.8621 70.6248L96.1073 63.877L101.699 67.1068V73.9988V74.5871V81.7433V82.3316L101.711 89.4877V90.0761V97.2322V97.8206V104.989V105.565L101.723 112.733V113.322V120.478V121.066V128.222V128.81L101.735 135.967V136.555V143.711V144.299V151.456V152.056L101.747 159.212V159.8V166.957V167.545V174.701V175.289L101.759 182.445V183.034V190.19V190.778V197.934L101.771 198.523V205.691V206.279V213.435V214.024V221.18V221.768L101.783 228.924V229.513V236.669V236.993V242.408Z" fill="#573A44"/>
<path d="M95.2931 68.2836L67.6355 217.494L68.1503 217.194L95.796 67.9834L95.2931 68.2836Z" fill="#AF8D7F"/>
<path d="M101.699 74.5869L94.8623 70.6246L95.3652 70.3364L101.699 73.9985V74.5869Z" fill="#D1BBB2"/>
<path d="M101.699 81.7433V82.3316L93.5571 77.6129L94.072 77.3247L101.699 81.7433Z" fill="#D1BBB2"/>
<path d="M101.711 89.4875V90.0758L92.2642 84.6127L92.779 84.3125L101.711 89.4875Z" fill="#D1BBB2"/>
<path d="M101.711 97.2324V97.8207L90.9709 91.6012L91.4738 91.313L101.711 97.2324Z" fill="#D1BBB2"/>
<path d="M101.711 104.989V105.565L89.678 98.601L90.1808 98.3008L101.711 104.989Z" fill="#D1BBB2"/>
<path d="M101.723 113.321L88.3728 105.589L88.8876 105.301L101.723 112.733V113.321Z" fill="#D1BBB2"/>
<path d="M101.723 121.066L87.0798 112.589L87.5947 112.289L101.723 120.478V121.066Z" fill="#D1BBB2"/>
<path d="M101.723 128.222V128.811L85.7866 119.577L86.2895 119.289L101.723 128.222Z" fill="#D1BBB2"/>
<path d="M101.735 135.966V136.555L84.4937 126.577L84.9965 126.277L101.735 135.966Z" fill="#D1BBB2"/>
<path d="M101.735 143.711V144.299L83.1885 133.565L83.7033 133.277L101.735 143.711Z" fill="#D1BBB2"/>
<path d="M101.735 152.056L81.8955 140.565L82.4103 140.265L101.735 151.456V152.056Z" fill="#D1BBB2"/>
<path d="M101.747 159.8L80.6023 147.553L81.1052 147.265L101.747 159.212V159.8Z" fill="#D1BBB2"/>
<path d="M101.747 166.956V167.545L79.3093 154.553L79.8122 154.253L101.747 166.956Z" fill="#D1BBB2"/>
<path d="M101.747 174.701V175.289L78.0042 161.541L78.519 161.253L101.747 174.701Z" fill="#D1BBB2"/>
<path d="M101.759 182.445V183.034L76.7112 168.541L77.226 168.241L101.759 182.445Z" fill="#D1BBB2"/>
<path d="M101.759 190.19V190.778L75.418 175.529L75.9208 175.241L101.759 190.19Z" fill="#D1BBB2"/>
<path d="M101.771 198.523L74.125 182.53L74.6279 182.229L101.759 197.935L101.771 198.523Z" fill="#D1BBB2"/>
<path d="M101.771 206.279L72.8198 189.517L73.3347 189.217L101.771 205.691V206.279Z" fill="#D1BBB2"/>
<path d="M101.771 213.435V214.024L71.5269 196.505L72.0297 196.217L101.771 213.435Z" fill="#D1BBB2"/>
<path d="M101.771 221.18V221.768L70.2336 203.506L70.7365 203.206L101.771 221.18Z" fill="#D1BBB2"/>
<path d="M101.783 228.924V229.513L68.9407 210.494L69.4435 210.206L101.783 228.924Z" fill="#D1BBB2"/>
<path d="M67.6355 217.494L101.783 237.257V236.669L68.1503 217.193L67.6355 217.494Z" fill="#D1BBB2"/>
<path d="M103.159 56.7686L111.361 61.5113L103.207 66.23L95.0059 61.4873L103.159 56.7686Z" fill="#A7A7B1"/>
<path d="M103.303 33.7634L103.998 33.3672L110.116 61.4394L103.327 65.3657L103.303 33.7634Z" fill="#E5DED0"/>
<path d="M103.303 32.9712L103.998 33.3674L103.303 33.7637L102.621 33.3674L103.303 32.9712Z" fill="#FBF9FF"/>
<path d="M103.303 33.7634L103.327 65.3657L96.5024 61.4154L102.621 33.3672L103.303 33.7634Z" fill="#A27E7E"/>
<path d="M66.7974 223.905L65.0972 222.921L63.3372 234.58L65.0373 235.564L66.7974 223.905Z" fill="#A27E7E"/>
<path d="M103.303 245.05L101.603 244.065V256.732L103.315 257.729L103.303 245.05Z" fill="#A27E7E"/>
<path d="M103.303 245.05L105.003 244.065L105.015 256.732L103.315 257.729L103.303 245.05Z" fill="#E5DED0"/>
<path d="M75.418 175.529L74.5559 180.176L101.759 195.929V190.778L75.418 175.529Z" fill="#A27E7E"/>
<path d="M76.7112 168.542L75.8491 173.188L101.759 188.185V183.034L76.7112 168.542Z" fill="#A27E7E"/>
<path d="M79.3093 154.553L78.4473 159.2L101.747 172.696V167.545L79.3093 154.553Z" fill="#A27E7E"/>
<path d="M80.6023 147.553L79.7402 152.2L101.747 164.951V159.8L80.6023 147.553Z" fill="#A27E7E"/>
<path d="M78.0041 161.542L77.1421 166.188L101.759 180.44L101.747 175.289L78.0041 161.542Z" fill="#A27E7E"/>
<path d="M74.125 182.518L73.2629 187.176L101.771 203.674L101.759 198.523L74.125 182.518Z" fill="#A27E7E"/>
<path d="M72.8198 189.518L71.9578 194.164L101.771 211.43V206.279L72.8198 189.518Z" fill="#A27E7E"/>
<path d="M66.7734 222.14L101.783 242.408V237.257L67.6355 217.494L66.7734 222.14Z" fill="#A27E7E"/>
<path d="M68.9407 210.494L68.0786 215.152L101.783 234.664V229.513L68.9407 210.494Z" fill="#A27E7E"/>
<path d="M71.5269 196.505L70.6648 201.164L101.771 219.174V214.023L71.5269 196.505Z" fill="#A27E7E"/>
<path d="M81.8955 140.565L81.0334 145.212L101.747 157.195L101.735 152.056L81.8955 140.565Z" fill="#A27E7E"/>
<path d="M70.2336 203.505L69.3716 208.152L101.783 226.919L101.771 221.768L70.2336 203.505Z" fill="#A27E7E"/>
<path d="M92.2639 84.6128L91.4019 89.2595L101.711 95.2269V90.0759L92.2639 84.6128Z" fill="#A27E7E"/>
<path d="M90.9709 91.6011L90.1089 96.2598L101.711 102.972V97.8207L90.9709 91.6011Z" fill="#A27E7E"/>
<path d="M93.5571 77.6128L92.6951 82.2715L101.711 87.4825L101.699 82.3315L93.5571 77.6128Z" fill="#A27E7E"/>
<path d="M94.8623 70.625L94.0002 75.2717L101.699 79.7383V74.5873L94.8623 70.625Z" fill="#A27E7E"/>
<path d="M96.1074 63.877L95.2932 68.2835L101.699 71.9816V67.1068L96.1074 63.877Z" fill="#A27E7E"/>
<path d="M88.3728 105.589L87.5107 110.248L101.723 118.472V113.321L88.3728 105.589Z" fill="#A27E7E"/>
<path d="M84.4936 126.577L83.6316 131.224L101.735 141.706V136.555L84.4936 126.577Z" fill="#A27E7E"/>
<path d="M85.7866 119.577L84.9246 124.236L101.735 133.961L101.723 128.81L85.7866 119.577Z" fill="#A27E7E"/>
<path d="M89.678 98.6011L88.8159 103.248L101.723 110.716L101.711 105.565L89.678 98.6011Z" fill="#A27E7E"/>
<path d="M87.0798 112.589L86.2178 117.236L101.723 126.217V121.066L87.0798 112.589Z" fill="#A27E7E"/>
<path d="M83.1885 133.565L82.3384 138.212L101.735 149.45V144.299L83.1885 133.565Z" fill="#A27E7E"/>
<path d="M104.321 58.7502L108.93 66.5907L112.905 64.2854L108.296 56.4448L104.321 58.7502Z" fill="#FBF9FF"/>
<path d="M108.93 66.5905V104.328L105.758 64.7535L105.063 64.3572L104.321 58.75L108.93 66.5905Z" fill="#A27E7E"/>
<g style="mix-blend-mode:multiply">
<path d="M108.93 104.328L104.321 65.594L101.531 65.2578L95.0059 61.4876L96.6941 60.503L96.5025 61.4155L103.327 65.3658L103.303 63.1205L104.321 58.75L105.063 64.3572L105.758 64.7535L108.93 104.328Z" fill="#979A9E"/>
</g>
<g style="mix-blend-mode:multiply">
<path d="M138.157 249.408V245.806L105.015 264.849V263.084L139.881 242.9L139.869 248.424L138.157 249.408Z" fill="#979A9E"/>
</g>
<path d="M103.375 0.0361328L103.303 0.0841605V33.7636L103.998 33.3674L103.375 0.0361328Z" fill="#9999A3"/>
<path d="M103.303 0L103.231 0.0362809L103.303 0.0846554L103.375 0.0362809L103.303 0Z" fill="#BDBCC1"/>
<path d="M103.303 0.0841605L103.231 0.0361328L102.621 33.3674L103.303 33.7636V0.0841605Z" fill="#484A4D"/>
<g style="mix-blend-mode:multiply">
<path d="M161.408 248.676H155.829L151.746 251.041L155.829 253.407H161.408L165.503 251.041L161.408 248.676Z" fill="#897998"/>
</g>
<path d="M161.408 252.47L163.084 251.509V245.506L161.408 246.478V252.47Z" fill="#7C412F"/>
<path d="M161.408 252.47L159.744 251.509V245.506L161.408 246.478V252.47Z" fill="#5C3023"/>
<path d="M161.408 250.585L165.503 248.219L165 234.387L161.408 236.464V250.585Z" fill="#94983A"/>
<path d="M161.408 250.585L157.325 248.219L157.828 234.387L161.408 236.464V250.585Z" fill="#868533"/>
<path d="M161.408 236.464L157.828 234.387L161.408 232.31L165 234.387L161.408 236.464Z" fill="#A7AA5C"/>
<g style="mix-blend-mode:multiply">
<path d="M147.292 256.853H141.7L137.618 259.218L141.7 261.583H147.292L151.375 259.218L147.292 256.853Z" fill="#897998"/>
</g>
<path d="M147.292 260.647L148.956 259.686V253.683L147.292 254.655V260.647Z" fill="#7C412F"/>
<path d="M147.292 260.647L145.616 259.686V253.683L147.292 254.655V260.647Z" fill="#5C3023"/>
<path d="M147.292 258.761L151.375 256.396L150.884 242.564L147.292 244.641V258.761Z" fill="#94983A"/>
<path d="M147.292 258.761L143.209 256.396L143.7 242.564L147.292 244.641V258.761Z" fill="#868533"/>
<path d="M147.292 244.641L143.7 242.564L147.292 240.487L150.884 242.564L147.292 244.641Z" fill="#A7AA5C"/>
<g style="mix-blend-mode:multiply">
<path d="M133.164 265.029H127.585L123.49 267.395L127.585 269.76H133.164L137.259 267.395L133.164 265.029Z" fill="#897998"/>
</g>
<path d="M133.164 268.823L134.84 267.863V261.859L133.164 262.832V268.823Z" fill="#7C412F"/>
<path d="M133.164 268.823L131.5 267.863V261.859L133.164 262.832V268.823Z" fill="#5C3023"/>
<path d="M133.164 266.938L137.259 264.573L136.756 250.753L133.164 252.83V266.938Z" fill="#94983A"/>
<path d="M133.164 266.938L129.081 264.573L129.572 250.753L133.164 252.83V266.938Z" fill="#868533"/>
<path d="M133.164 252.83L129.572 250.753L133.164 248.664L136.756 250.753L133.164 252.83Z" fill="#A7AA5C"/>
<g style="mix-blend-mode:multiply">
<path d="M119.048 273.206H113.456L109.374 275.571L113.456 277.937H119.048L123.131 275.571L119.048 273.206Z" fill="#897998"/>
</g>
<path d="M119.048 277L120.712 276.04V270.036L119.048 271.009V277Z" fill="#7C412F"/>
<path d="M119.048 277L117.371 276.04V270.036L119.048 271.009V277Z" fill="#5C3023"/>
<path d="M119.048 275.115L123.13 272.75L122.628 258.93L119.048 261.007V275.115Z" fill="#94983A"/>
<path d="M119.048 275.115L114.953 272.75L115.456 258.93L119.048 261.007V275.115Z" fill="#868533"/>
<path d="M119.048 261.007L115.456 258.93L119.048 256.84L122.628 258.93L119.048 261.007Z" fill="#A7AA5C"/>
</g>
<defs>
<clipPath id="clip0_204_34222">
<rect width="165" height="277" fill="white"/>
</clipPath>
</defs>
</svg>
