<svg width="161" height="198" viewBox="0 0 161 198" fill="none" xmlns="http://www.w3.org/2000/svg">
<g clip-path="url(#clip0_212_3506)">
<path d="M112.142 79.6748L110.498 80.6332L158.689 110.011L161.083 107.969L112.142 79.6748Z" fill="#F0886E"/>
<path d="M158.689 108.49L110.498 80.6333L156.462 147.307L158.689 148.599V108.49Z" fill="#61241B"/>
<path d="M160.334 132.451L158.689 133.41V148.599L160.334 147.661V132.451Z" fill="#D65645"/>
<path d="M160.334 130.93L158.689 131.868V133.41L161.083 131.347L160.334 130.93Z" fill="#F0886E"/>
<path d="M160.334 120.763L158.689 121.7V131.868L160.334 130.93V120.763Z" fill="#F27657"/>
<path d="M160.334 119.221L158.689 120.179V121.7L161.083 119.658L160.334 119.221Z" fill="#F0886E"/>
<path d="M160.334 109.053L158.689 110.011V120.179L160.334 119.22V109.053Z" fill="#F27657"/>
<path d="M161.083 131.347L159.439 132.306V133.827L161.083 132.889V131.347Z" fill="#FF8D70"/>
<path d="M158.689 131.868L159.439 132.305V133.826L158.689 133.41V131.868Z" fill="#61241B"/>
<path d="M158.689 120.179L159.439 120.596V122.138L158.689 121.7V120.179Z" fill="#61241B"/>
<path d="M158.689 108.49L159.439 108.907V110.449L158.689 110.011V108.49Z" fill="#61241B"/>
<path d="M161.083 119.658L159.439 120.596V122.138L161.083 121.179V119.658Z" fill="#FF8D70"/>
<path d="M161.083 107.97L159.439 108.907V110.449L161.083 109.491V107.97Z" fill="#FF8D70"/>
<path d="M157.211 132.535V147.745L124.466 166.663V151.453L157.211 132.535Z" fill="#9E483C"/>
<path d="M157.211 146.495L124.466 165.413V166.663L157.94 146.911L157.211 146.495Z" fill="#F0886E"/>
<path d="M125.507 149.328L157.211 131.014L157.94 131.451L125.507 150.87V149.328Z" fill="#F0886E"/>
<path d="M157.211 120.846V131.013L124.466 149.932V139.764L157.211 120.846Z" fill="#BF5C43"/>
<path d="M125.507 137.639L157.211 119.325L157.94 119.741L125.507 139.16V137.639Z" fill="#F0886E"/>
<path d="M157.211 109.157V119.325L124.466 138.244V128.076L157.211 109.157Z" fill="#BF5C43"/>
<path d="M157.94 146.911L125.215 165.83V167.101L157.94 148.182V146.911Z" fill="#823B31"/>
<path d="M125.819 150.016L157.94 131.451V132.972L125.819 151.537V150.016Z" fill="#DE6C50"/>
<path d="M125.819 138.306L157.94 119.742V121.284L125.819 139.848V138.306Z" fill="#DE6C50"/>
<path d="M154.443 137.389V146.64L151.362 148.411V139.16L153.839 137.723L154.151 137.556L154.443 137.389Z" fill="#4D303A"/>
<path d="M154.151 137.556V146.515L151.362 148.12V139.16L153.839 137.723L154.151 137.556Z" fill="#8A5B6B"/>
<path d="M154.151 146.515L151.362 148.119V147.765L153.839 146.328L154.151 146.515Z" fill="#593B45"/>
<path d="M155.192 136.952V147.078L154.443 146.64V137.389L155.192 136.952Z" fill="#61241B"/>
<path d="M155.192 147.078L151.362 149.265V148.411L154.443 146.64L155.192 147.078Z" fill="#F0886E"/>
<path d="M154.151 137.556V146.515L153.839 146.328V137.723L154.151 137.556Z" fill="#2B0512"/>
<path d="M155.192 135.827L151.362 138.035L151.674 138.223L155.504 136.014L155.192 135.827Z" fill="#F0886E"/>
<path d="M155.504 136.014L151.674 138.223V139.348L155.504 137.139V136.014Z" fill="#DE6C50"/>
<path d="M151.362 138.035V139.16L151.674 139.348V138.223L151.362 138.035Z" fill="#61241B"/>
<g style="mix-blend-mode:multiply">
<path d="M155.192 147.078H153.693V146.765H153.089V139.411L151.362 140.39V139.494L151.049 139.681V138.535L151.362 138.035V139.16L151.674 139.348L153.839 138.077V146.328L154.151 146.515V137.91L154.443 137.744V146.64L155.192 147.078Z" fill="#897998"/>
</g>
<path d="M146.699 141.848V151.12L143.618 152.891V143.64L146.095 142.202L146.407 142.015L146.699 141.848Z" fill="#4D303A"/>
<path d="M146.407 142.015V150.974L143.618 152.578V143.64L146.095 142.202L146.407 142.015Z" fill="#8A5B6B"/>
<path d="M146.407 150.974L143.618 152.578V152.245L146.095 150.807L146.407 150.974Z" fill="#593B45"/>
<path d="M147.448 141.431V151.536L146.699 151.12V141.848L147.448 141.431Z" fill="#61241B"/>
<path d="M147.448 151.537L143.618 153.745V152.891L146.699 151.12L147.448 151.537Z" fill="#F0886E"/>
<path d="M146.407 142.015V150.974L146.095 150.807V142.202L146.407 142.015Z" fill="#2B0512"/>
<path d="M147.448 140.306L143.618 142.515L143.93 142.702L147.76 140.494L147.448 140.306Z" fill="#F0886E"/>
<path d="M147.76 140.494L143.93 142.702V143.806L147.76 141.598V140.494Z" fill="#DE6C50"/>
<path d="M143.618 142.515V143.64L143.93 143.806V142.702L143.618 142.515Z" fill="#61241B"/>
<g style="mix-blend-mode:multiply">
<path d="M147.448 151.537H145.949V151.245H145.346V143.89L143.618 144.869V143.952L143.305 144.161V143.015L143.618 142.515V143.64L143.93 143.807L146.095 142.557V150.807L146.407 150.974V142.39L146.699 142.223V151.12L147.448 151.537Z" fill="#897998"/>
</g>
<path d="M138.955 146.328V155.599L135.874 157.37V148.099L138.351 146.682L138.663 146.494L138.955 146.328Z" fill="#4D303A"/>
<path d="M138.663 146.495V155.454L135.874 157.058V148.099L138.351 146.682L138.663 146.495Z" fill="#8A5B6B"/>
<path d="M138.663 155.454L135.874 157.058V156.725L138.351 155.287L138.663 155.454Z" fill="#593B45"/>
<path d="M139.704 145.911V156.016L138.955 155.6V146.328L139.704 145.911Z" fill="#61241B"/>
<path d="M139.704 156.016L135.874 158.225V157.371L138.955 155.6L139.704 156.016Z" fill="#F0886E"/>
<path d="M138.663 146.495V155.454L138.351 155.287V146.682L138.663 146.495Z" fill="#2B0512"/>
<path d="M139.704 144.786L135.874 146.995L136.186 147.182L140.016 144.974L139.704 144.786Z" fill="#F0886E"/>
<path d="M140.016 144.974L136.186 147.182V148.286L140.016 146.078V144.974Z" fill="#DE6C50"/>
<path d="M135.874 146.995V148.099L136.186 148.286V147.182L135.874 146.995Z" fill="#61241B"/>
<g style="mix-blend-mode:multiply">
<path d="M139.704 156.016H138.205V155.724H137.602V148.369L135.874 149.349V148.432L135.562 148.62V147.494L135.874 146.994V148.099L136.186 148.286L138.351 147.036V155.287L138.663 155.454V146.869L138.955 146.703V155.599L139.704 156.016Z" fill="#897998"/>
</g>
<path d="M131.211 150.807V160.058L128.13 161.85V152.578L130.607 151.141L130.919 150.974L131.211 150.807Z" fill="#4D303A"/>
<path d="M130.919 150.974V159.933L128.13 161.538V152.578L130.607 151.141L130.919 150.974Z" fill="#8A5B6B"/>
<path d="M130.919 159.933L128.13 161.538V161.183L130.607 159.767L130.919 159.933Z" fill="#593B45"/>
<path d="M131.939 150.37V160.496L131.211 160.058V150.807L131.939 150.37Z" fill="#61241B"/>
<path d="M131.939 160.496L128.13 162.704V161.85L131.211 160.058L131.939 160.496Z" fill="#F0886E"/>
<path d="M130.919 150.974V159.933L130.607 159.767V151.141L130.919 150.974Z" fill="#2B0512"/>
<path d="M131.939 149.266L128.13 151.474L128.442 151.641L132.272 149.453L131.939 149.266Z" fill="#F0886E"/>
<path d="M132.272 149.453L128.442 151.641V152.766L132.272 150.557V149.453Z" fill="#DE6C50"/>
<path d="M128.13 151.474V152.578L128.442 152.766V151.641L128.13 151.474Z" fill="#61241B"/>
<g style="mix-blend-mode:multiply">
<path d="M131.939 160.496H130.461V160.183H129.857V152.849L128.13 153.829V152.912L127.817 153.099V151.974L128.13 151.474V152.578L128.442 152.766L130.607 151.516V159.767L130.919 159.933V151.349L131.211 151.162V160.058L131.939 160.496Z" fill="#897998"/>
</g>
<path d="M147.448 135.389L143.618 137.577V136.723L146.699 134.952L147.448 135.389Z" fill="#F0886E"/>
<path d="M146.699 129.722V134.951L143.638 136.722V132.347C143.618 132.153 143.618 131.958 143.638 131.764C143.629 131.639 143.629 131.513 143.638 131.389L146.261 129.888L146.553 129.722H146.699Z" fill="#4D303A"/>
<path d="M146.407 130.18V134.826L145.949 135.077L143.638 136.431V132.264C143.638 132.16 143.638 132.055 143.638 131.951V131.68L145.887 130.368L146.407 130.18Z" fill="#8A5B6B"/>
<path d="M146.699 129.764V130.014L146.407 130.18L143.701 131.764C143.691 131.639 143.691 131.514 143.701 131.389C143.754 131.239 143.817 131.093 143.888 130.951C144.213 130.192 144.757 129.546 145.45 129.097L145.803 128.93C145.955 128.901 146.11 128.901 146.261 128.93C146.255 128.979 146.255 129.028 146.261 129.076C146.271 129.131 146.271 129.187 146.261 129.243C146.281 129.339 146.281 129.438 146.261 129.534C146.249 129.568 146.249 129.605 146.261 129.639V129.764H146.699Z" fill="#4D303A"/>
<path d="M146.407 129.889L143.784 131.389C143.838 131.239 143.9 131.093 143.972 130.951C144.297 130.192 144.84 129.546 145.533 129.097L145.887 128.93C145.965 128.983 146.029 129.055 146.074 129.139C146.083 129.194 146.083 129.25 146.074 129.305V129.555C146.119 129.552 146.163 129.559 146.205 129.574C146.247 129.59 146.285 129.614 146.316 129.646C146.348 129.678 146.372 129.716 146.388 129.757C146.404 129.799 146.41 129.844 146.407 129.889Z" fill="#8A5B6B"/>
<path d="M146.407 134.827L143.618 136.431V136.077L146.095 134.639L146.407 134.827Z" fill="#593B45"/>
<path d="M146.407 129.888L143.784 131.389C143.838 131.239 143.9 131.093 143.972 130.951L146.053 129.722L146.407 129.888Z" fill="#593B45"/>
<path d="M147.448 130.139V135.431L146.699 134.993V129.722V129.597C146.686 129.563 146.686 129.526 146.699 129.493C146.718 129.397 146.718 129.297 146.699 129.201C146.708 129.146 146.708 129.09 146.699 129.034C146.692 128.986 146.692 128.937 146.699 128.889C146.822 128.861 146.95 128.861 147.073 128.889C147.08 128.937 147.08 128.986 147.073 129.034C147.085 129.117 147.085 129.201 147.073 129.284V129.43L147.448 130.139Z" fill="#61241B"/>
<g style="mix-blend-mode:multiply">
<path d="M145.949 135.431V135.118H145.345V131.035L143.638 132.035V131.764L145.887 130.451C145.887 129.618 145.45 129.43 144.846 129.576C145.034 129.392 145.244 129.231 145.47 129.097L145.824 128.93C145.975 128.901 146.131 128.901 146.282 128.93C146.275 128.979 146.275 129.028 146.282 129.076C146.292 129.131 146.292 129.187 146.282 129.243C146.302 129.339 146.302 129.438 146.282 129.534C146.269 129.568 146.269 129.605 146.282 129.639V129.764V134.993L147.032 135.431H145.949Z" fill="#897998"/>
</g>
<path d="M146.407 129.889L146.095 129.722C146.115 129.442 146.041 129.164 145.887 128.93C145.966 128.983 146.03 129.054 146.074 129.139C146.083 129.194 146.083 129.25 146.074 129.305V129.555C146.119 129.552 146.163 129.559 146.205 129.574C146.247 129.59 146.285 129.614 146.316 129.646C146.348 129.678 146.372 129.716 146.388 129.757C146.404 129.799 146.41 129.844 146.407 129.889Z" fill="#2B0512"/>
<path d="M146.095 130.368V134.639L146.407 134.826V130.18L146.095 130.368Z" fill="#2B0512"/>
<path d="M143.618 136.723L145.949 135.389L143.618 136.723Z" fill="#4D303A"/>
<path d="M155.192 130.909L151.362 133.118V132.264L154.443 130.472L155.192 130.909Z" fill="#F0886E"/>
<path d="M154.443 125.242V130.472L151.362 132.264V127.888C151.341 127.694 151.341 127.499 151.362 127.305C151.362 127.18 151.362 127.055 151.362 126.951L153.985 125.43L154.276 125.263L154.443 125.242Z" fill="#4D303A"/>
<path d="M154.151 125.721V130.347L153.693 130.597L151.362 131.951V127.888C151.362 127.888 151.362 127.701 151.362 127.596V127.305L153.61 125.992L154.151 125.721Z" fill="#8A5B6B"/>
<path d="M154.443 125.284V125.555L154.151 125.721L151.445 127.284C151.445 127.159 151.445 127.034 151.445 126.93C151.495 126.772 151.557 126.619 151.632 126.472C151.957 125.712 152.501 125.067 153.193 124.617L153.547 124.451C153.699 124.423 153.854 124.423 154.005 124.451C153.999 124.499 153.999 124.548 154.005 124.596C154.015 124.658 154.015 124.722 154.005 124.784C154.027 124.88 154.027 124.98 154.005 125.076C154.007 125.11 154.007 125.145 154.005 125.18L154.443 125.284Z" fill="#4D303A"/>
<path d="M154.151 125.409L151.528 126.93C151.578 126.772 151.641 126.619 151.716 126.471C152.041 125.712 152.584 125.066 153.277 124.617L153.631 124.45C153.714 124.495 153.786 124.559 153.839 124.638L154.047 125.013V125.263C154.094 125.302 154.13 125.352 154.151 125.409Z" fill="#8A5B6B"/>
<path d="M154.151 130.347L151.362 131.951V131.597L153.839 130.18L154.151 130.347Z" fill="#593B45"/>
<path d="M154.151 125.409L151.528 126.93C151.578 126.772 151.641 126.619 151.716 126.471L153.797 125.242L154.151 125.409Z" fill="#593B45"/>
<path d="M155.192 125.679V130.909L154.443 130.472V125.242C154.445 125.207 154.445 125.172 154.443 125.138C154.464 125.042 154.464 124.942 154.443 124.846C154.452 124.784 154.452 124.721 154.443 124.659C154.436 124.61 154.436 124.561 154.443 124.513C154.574 124.518 154.702 124.554 154.817 124.617C154.823 124.658 154.823 124.7 154.817 124.742C154.827 124.825 154.827 124.909 154.817 124.992V125.159L155.192 125.679Z" fill="#61241B"/>
<g style="mix-blend-mode:multiply">
<path d="M153.693 130.91V130.597H153.09V126.555L151.383 127.576V127.284L153.631 125.972C153.631 125.159 153.194 124.951 152.59 125.096C152.778 124.913 152.988 124.752 153.214 124.617L153.568 124.451C153.72 124.423 153.875 124.423 154.026 124.451C154.02 124.499 154.02 124.548 154.026 124.596C154.036 124.658 154.036 124.722 154.026 124.784C154.048 124.88 154.048 124.98 154.026 125.076C154.028 125.11 154.028 125.145 154.026 125.18V130.409L154.776 130.847L153.693 130.91Z" fill="#897998"/>
</g>
<path d="M154.151 125.409L153.839 125.242C153.859 124.962 153.786 124.684 153.631 124.45C153.714 124.496 153.785 124.56 153.839 124.638L154.047 125.013V125.263C154.094 125.302 154.13 125.352 154.151 125.409Z" fill="#2B0512"/>
<path d="M153.839 125.888V130.18L154.151 130.347V125.721L153.839 125.888Z" fill="#2B0512"/>
<path d="M151.362 132.264L153.693 130.91L151.362 132.264Z" fill="#4D303A"/>
<path d="M131.939 144.327L128.13 146.536V145.682L131.211 143.911L131.939 144.327Z" fill="#F0886E"/>
<path d="M131.148 138.66V143.911L128.067 145.682V141.306C128.048 141.105 128.048 140.903 128.067 140.702C128.057 140.584 128.057 140.466 128.067 140.348L130.69 138.827L130.982 138.66H131.148Z" fill="#4D303A"/>
<path d="M130.919 139.14V143.765L130.461 144.036L128.13 145.369V141.202C128.13 141.202 128.13 140.994 128.13 140.89V140.598L130.378 139.306L130.919 139.14Z" fill="#8A5B6B"/>
<path d="M131.148 138.702V138.973L130.857 139.139L128.151 140.702C128.141 140.584 128.141 140.466 128.151 140.348C128.151 140.202 128.151 140.035 128.317 139.889C128.658 139.139 129.207 138.502 129.899 138.056C130.011 137.987 130.129 137.931 130.253 137.889H130.711V138.035V138.202C130.733 138.298 130.733 138.397 130.711 138.493L131.148 138.702Z" fill="#4D303A"/>
<path d="M130.919 138.827L128.296 140.348C128.296 140.202 128.296 140.035 128.463 139.889C128.803 139.139 129.352 138.502 130.045 138.056C130.156 137.987 130.275 137.931 130.399 137.889C130.476 137.935 130.54 138 130.586 138.077C130.598 138.132 130.598 138.188 130.586 138.243V138.389C130.685 138.409 130.774 138.465 130.835 138.545C130.896 138.626 130.926 138.726 130.919 138.827Z" fill="#8A5B6B"/>
<path d="M130.919 143.765L128.13 145.369V145.036L130.607 143.598L130.919 143.765Z" fill="#593B45"/>
<path d="M130.919 138.827L128.296 140.348C128.296 140.202 128.296 140.035 128.463 139.889L130.544 138.66L130.919 138.827Z" fill="#593B45"/>
<path d="M131.939 139.098V144.328L131.211 143.911V138.66C131.222 138.564 131.222 138.466 131.211 138.369V138.202V138.056C131.347 138.069 131.481 138.104 131.606 138.16C131.617 138.208 131.617 138.258 131.606 138.306C131.618 138.396 131.618 138.487 131.606 138.577V138.723L131.939 139.098Z" fill="#61241B"/>
<g style="mix-blend-mode:multiply">
<path d="M130.461 144.327V144.036H129.857V139.973L128.15 140.994V140.702L130.399 139.41C130.399 138.598 129.961 138.389 129.358 138.556C129.546 138.372 129.756 138.211 129.982 138.077C130.094 138.008 130.212 137.952 130.336 137.91H130.794V138.056V138.223C130.816 138.319 130.816 138.418 130.794 138.514V143.765L131.523 144.182L130.461 144.327Z" fill="#897998"/>
</g>
<path d="M130.919 138.827L130.607 138.66C130.627 138.387 130.553 138.115 130.399 137.889C130.476 137.934 130.541 137.999 130.586 138.077C130.598 138.132 130.598 138.188 130.586 138.243V138.389C130.685 138.409 130.774 138.465 130.835 138.545C130.896 138.626 130.926 138.726 130.919 138.827Z" fill="#2B0512"/>
<path d="M130.607 139.306V143.598L130.919 143.765V139.14L130.607 139.306Z" fill="#2B0512"/>
<path d="M128.13 145.682L130.44 144.348L128.13 145.682Z" fill="#4D303A"/>
<path d="M139.704 139.848L135.874 142.056V141.202L138.955 139.431L139.704 139.848Z" fill="#F0886E"/>
<path d="M138.955 134.202V139.431L135.874 141.202V136.827C135.855 136.626 135.855 136.424 135.874 136.223C135.866 136.105 135.866 135.986 135.874 135.868L138.497 134.368L138.788 134.202H138.955Z" fill="#4D303A"/>
<path d="M138.663 134.66V139.285L138.205 139.556L135.874 140.91V136.743C135.874 136.743 135.874 136.535 135.874 136.431V136.139L138.122 134.847L138.663 134.66Z" fill="#8A5B6B"/>
<path d="M138.955 134.243V134.493L138.663 134.66L135.957 136.222C135.95 136.104 135.95 135.986 135.957 135.868C136.011 135.719 136.073 135.573 136.144 135.431C136.47 134.671 137.013 134.026 137.706 133.576L138.059 133.41C138.211 133.38 138.366 133.38 138.517 133.41V133.555C138.526 133.611 138.526 133.667 138.517 133.722C138.537 133.818 138.537 133.918 138.517 134.014V134.139L138.955 134.243Z" fill="#4D303A"/>
<path d="M138.663 134.368L136.04 135.868C136.094 135.719 136.156 135.573 136.228 135.431C136.553 134.671 137.096 134.026 137.789 133.576L138.143 133.41C138.221 133.463 138.286 133.534 138.33 133.618C138.342 133.673 138.342 133.73 138.33 133.785V134.035C138.411 134.055 138.484 134.097 138.543 134.155C138.601 134.214 138.643 134.288 138.663 134.368Z" fill="#8A5B6B"/>
<path d="M138.663 139.285L135.874 140.911V140.556L138.351 139.119L138.663 139.285Z" fill="#593B45"/>
<path d="M138.663 134.368L136.04 135.868C136.094 135.719 136.156 135.573 136.228 135.431L138.309 134.181L138.663 134.368Z" fill="#593B45"/>
<path d="M139.704 134.618V139.848L138.955 139.431V134.201V134.076C138.974 133.98 138.974 133.881 138.955 133.785C138.963 133.729 138.963 133.673 138.955 133.618V133.472C139.093 133.474 139.229 133.51 139.35 133.576C139.357 133.625 139.357 133.674 139.35 133.722C139.362 133.812 139.362 133.903 139.35 133.993V134.139L139.704 134.618Z" fill="#61241B"/>
<g style="mix-blend-mode:multiply">
<path d="M138.205 139.848V139.598H137.602V135.431L135.895 136.431V136.139L138.143 134.848C138.143 134.014 137.706 133.806 137.102 133.972C137.29 133.789 137.5 133.628 137.726 133.493L138.08 133.327C138.232 133.297 138.387 133.297 138.538 133.327V133.472C138.547 133.528 138.547 133.584 138.538 133.639C138.558 133.735 138.558 133.835 138.538 133.931V134.056V139.285L139.288 139.702L138.205 139.848Z" fill="#897998"/>
</g>
<path d="M138.663 134.368L138.351 134.181C138.368 133.908 138.295 133.637 138.143 133.41C138.226 133.457 138.292 133.53 138.33 133.618C138.342 133.673 138.342 133.73 138.33 133.785V134.035C138.411 134.055 138.484 134.097 138.543 134.155C138.601 134.214 138.643 134.288 138.663 134.368Z" fill="#2B0512"/>
<path d="M138.351 134.847V139.118L138.663 139.285V134.66L138.351 134.847Z" fill="#2B0512"/>
<path d="M135.874 141.202L138.205 139.869L135.874 141.202Z" fill="#4D303A"/>
<path d="M146.699 116.429V123.325L143.618 125.096V118.2L146.095 116.762L146.407 116.595L146.699 116.429Z" fill="#4D303A"/>
<path d="M146.407 116.595V123.179L143.618 124.784V118.2L146.095 116.762L146.407 116.595Z" fill="#8A5B6B"/>
<path d="M146.407 123.179L143.618 124.784V124.45L146.095 123.013L146.407 123.179Z" fill="#593B45"/>
<path d="M147.448 115.991V123.742L146.699 123.325V116.429L147.448 115.991Z" fill="#61241B"/>
<path d="M147.448 123.742L143.618 125.95V125.096L146.699 123.325L147.448 123.742Z" fill="#F0886E"/>
<path d="M146.407 116.595V123.179L146.095 123.013V116.762L146.407 116.595Z" fill="#2B0512"/>
<path d="M147.448 114.887L143.618 117.095L143.93 117.262L147.76 115.053L147.448 114.887Z" fill="#F0886E"/>
<path d="M147.76 115.054L143.93 117.262V118.387L147.76 116.179V115.054Z" fill="#DE6C50"/>
<path d="M143.618 117.096V118.2L143.93 118.388V117.262L143.618 117.096Z" fill="#61241B"/>
<g style="mix-blend-mode:multiply">
<path d="M147.448 123.742L146.699 123.325V116.783L146.407 116.949V119.47L146.095 119.658V117.137L144.013 118.387L143.638 118.2V117.074L143.326 117.574V118.762L143.638 118.575V119.47L145.366 118.491V119.825L143.638 120.846V121.137L145.366 120.137V123.513H145.97V123.804L147.448 123.742ZM146.407 119.575V123.283L146.095 122.929V119.658L146.407 119.575Z" fill="#897998"/>
</g>
<path d="M146.407 118.908V119.221L143.618 120.825V120.513L146.407 118.908Z" fill="#4D303A"/>
<path d="M146.407 118.908L143.618 120.513V120.179L146.095 118.742L146.407 118.908Z" fill="#593B45"/>
<g style="mix-blend-mode:multiply">
<path d="M145.949 119.471V119.179L146.407 118.908V119.221L145.949 119.471Z" fill="#897998"/>
</g>
<g style="mix-blend-mode:multiply">
<path d="M145.949 119.179H145.345L146.095 118.742L146.407 118.908L145.949 119.179Z" fill="#897998"/>
</g>
<path d="M154.443 111.949V118.846L151.362 120.617V113.72L153.839 112.283L154.151 112.116L154.443 111.949Z" fill="#4D303A"/>
<path d="M154.151 112.116V118.721L151.362 120.325V113.72L153.839 112.282L154.151 112.116Z" fill="#8A5B6B"/>
<path d="M154.151 118.721L151.362 120.325V119.971L153.839 118.533L154.151 118.721Z" fill="#593B45"/>
<path d="M155.192 111.512V119.263L154.443 118.846V111.949L155.192 111.512Z" fill="#61241B"/>
<path d="M155.192 119.262L151.362 121.471V120.617L154.443 118.846L155.192 119.262Z" fill="#F0886E"/>
<path d="M154.151 112.116V118.721L153.839 118.533V112.282L154.151 112.116Z" fill="#2B0512"/>
<path d="M155.192 110.407L151.362 112.616L151.674 112.782L155.504 110.595L155.192 110.407Z" fill="#F0886E"/>
<path d="M155.504 110.595L151.674 112.782V113.908L155.504 111.699V110.595Z" fill="#DE6C50"/>
<path d="M151.362 112.616V113.72L151.674 113.908V112.782L151.362 112.616Z" fill="#61241B"/>
<g style="mix-blend-mode:multiply">
<path d="M155.192 119.283L154.443 118.762V112.303L154.151 112.47V115.012L153.839 115.179V112.657L151.757 113.908L151.445 113.72V112.616L151.133 113.095V114.241L151.445 114.053V114.97L153.173 113.97V115.304L151.445 116.304V116.679L153.173 115.679V118.971H153.776V119.283H155.192ZM154.151 115.116V118.762L153.839 118.596V115.179L154.151 115.116Z" fill="#897998"/>
</g>
<path d="M154.151 114.429V114.741L151.362 116.346V116.054L154.151 114.429Z" fill="#4D303A"/>
<path d="M154.151 114.428L151.362 116.054V115.699L153.839 114.262L154.151 114.428Z" fill="#593B45"/>
<g style="mix-blend-mode:multiply">
<path d="M153.693 115.012V114.7L154.151 114.429V114.741L153.693 115.012Z" fill="#897998"/>
</g>
<g style="mix-blend-mode:multiply">
<path d="M153.693 114.699H153.09L153.839 114.262L154.151 114.428L153.693 114.699Z" fill="#897998"/>
</g>
<path d="M138.955 120.888V127.805L135.874 129.576V122.68L138.351 121.242L138.663 121.075L138.955 120.888Z" fill="#4D303A"/>
<path d="M138.663 121.075V127.659L135.874 129.264V122.68L138.351 121.242L138.663 121.075Z" fill="#8A5B6B"/>
<path d="M138.663 127.659L135.874 129.263V128.93L138.351 127.492L138.663 127.659Z" fill="#593B45"/>
<path d="M139.704 120.471V128.222L138.955 127.805V120.887L139.704 120.471Z" fill="#61241B"/>
<path d="M139.704 128.222L135.874 130.43V129.576L138.955 127.805L139.704 128.222Z" fill="#F0886E"/>
<path d="M138.663 121.075V127.659L138.351 127.493V121.242L138.663 121.075Z" fill="#2B0512"/>
<path d="M139.704 119.346L135.874 121.554L136.186 121.742L140.016 119.533L139.704 119.346Z" fill="#F0886E"/>
<path d="M140.016 119.533L136.186 121.742V122.867L140.016 120.658V119.533Z" fill="#DE6C50"/>
<path d="M135.874 121.554V122.679L136.186 122.867V121.742L135.874 121.554Z" fill="#61241B"/>
<g style="mix-blend-mode:multiply">
<path d="M139.683 128.222L138.955 127.805V121.263L138.663 121.429V123.95L138.351 124.117V121.596L136.269 122.846L135.957 122.68V121.554L135.645 122.054V123.2L135.957 122.992V123.909L137.602 122.93V124.263L135.874 125.263V125.555L137.602 124.555V127.93H138.205V128.222H139.683ZM138.663 124.055V127.763L138.351 127.597V124.117L138.663 124.055Z" fill="#897998"/>
</g>
<path d="M138.663 123.388V123.7L135.874 125.305V124.992L138.663 123.388Z" fill="#4D303A"/>
<path d="M138.663 123.388L135.874 124.992V124.659L138.351 123.221L138.663 123.388Z" fill="#593B45"/>
<g style="mix-blend-mode:multiply">
<path d="M138.205 123.95V123.638L138.663 123.388V123.7L138.205 123.95Z" fill="#897998"/>
</g>
<g style="mix-blend-mode:multiply">
<path d="M138.205 123.638H137.602L138.351 123.221L138.663 123.388L138.205 123.638Z" fill="#897998"/>
</g>
<path d="M131.211 125.367V132.264L128.13 134.056V127.138L130.607 125.721L130.919 125.534L131.211 125.367Z" fill="#4D303A"/>
<path d="M130.919 125.534V132.139L128.13 133.743V127.138L130.607 125.721L130.919 125.534Z" fill="#8A5B6B"/>
<path d="M130.919 132.139L128.13 133.743V133.389L130.607 131.972L130.919 132.139Z" fill="#593B45"/>
<path d="M131.939 124.951V132.701L131.211 132.264V125.367L131.939 124.951Z" fill="#61241B"/>
<path d="M131.939 132.701L128.13 134.91V134.056L131.211 132.264L131.939 132.701Z" fill="#F0886E"/>
<path d="M130.919 125.534V132.139L130.607 131.972V125.721L130.919 125.534Z" fill="#2B0512"/>
<path d="M131.939 123.825L128.13 126.034L128.442 126.221L132.251 124.013L131.939 123.825Z" fill="#F0886E"/>
<path d="M132.251 124.013L128.442 126.221V127.326L132.251 125.117V124.013Z" fill="#DE6C50"/>
<path d="M128.13 126.034V127.138L128.442 127.325V126.221L128.13 126.034Z" fill="#61241B"/>
<g style="mix-blend-mode:multiply">
<path d="M131.939 132.701L131.148 132.264V125.742L130.857 125.909V128.43L130.544 128.597V126.076L128.463 127.326L128.13 127.096V125.971L127.817 126.471V127.597L128.13 127.409V128.326L129.857 127.347V128.659L128.13 129.659V129.972L129.857 128.972V132.326H130.461V132.639L131.939 132.701ZM130.919 128.534V132.243L130.607 132.076V128.597L130.919 128.534Z" fill="#897998"/>
</g>
<path d="M130.919 127.868V128.18L128.13 129.785V129.472L130.919 127.868Z" fill="#4D303A"/>
<path d="M130.919 127.867L128.13 129.472V129.117L130.607 127.68L130.919 127.867Z" fill="#593B45"/>
<g style="mix-blend-mode:multiply">
<path d="M130.461 128.43V128.118L130.919 127.868V128.18L130.461 128.43Z" fill="#897998"/>
</g>
<g style="mix-blend-mode:multiply">
<path d="M130.461 128.117H129.857L130.607 127.68L130.919 127.867L130.461 128.117Z" fill="#897998"/>
</g>
<path d="M123.925 126.846L157.211 107.615L157.94 108.053L123.925 128.388V126.846Z" fill="#F0886E"/>
<path d="M124.674 127.284L157.94 108.053V109.574L124.674 128.805V127.284Z" fill="#DE6C50"/>
<path d="M124.466 126.534L121.177 128.451L123.404 129.743L126.693 127.826L124.466 126.534Z" fill="#F0886E"/>
<path d="M122.655 129.305L120.427 128.013V168.142L122.655 169.434V129.305Z" fill="#61241B"/>
<path d="M125.944 152.328L122.655 154.224V169.434L125.944 167.517V152.328Z" fill="#D65645"/>
<path d="M125.944 150.787L122.655 152.683V154.224L126.693 151.224L125.944 150.787Z" fill="#F0886E"/>
<path d="M125.944 140.619L122.655 142.536V152.682L125.944 150.786V140.619Z" fill="#F27657"/>
<path d="M125.944 139.098L122.655 140.994V142.536L126.693 139.535L125.944 139.098Z" fill="#F0886E"/>
<path d="M125.944 128.93L122.655 130.826V140.994L125.944 139.098V128.93Z" fill="#F27657"/>
<path d="M126.693 151.224L123.404 153.12V154.641L126.693 152.745V151.224Z" fill="#FF8D70"/>
<path d="M126.693 139.535L123.404 141.431V142.952L126.693 141.056V139.535Z" fill="#FF8D70"/>
<path d="M126.693 127.826L123.404 129.743V131.264L126.693 129.368V127.826Z" fill="#FF8D70"/>
<path d="M122.655 152.683L123.404 153.12V154.641L122.655 154.224V152.683Z" fill="#61241B"/>
<path d="M122.655 140.994L123.404 141.431V142.952L122.655 142.535V140.994Z" fill="#61241B"/>
<path d="M122.655 129.305L123.404 129.743V131.264L122.655 130.826V129.305Z" fill="#61241B"/>
<g style="mix-blend-mode:multiply">
<path d="M122.655 169.434H114.328L100.984 177.227L74.13 195.354L73.214 198H44.7986L0 172.101L59.2457 137.869L120.427 155.996L121.177 168.58L122.655 169.434Z" fill="#897998"/>
</g>
<path d="M121.177 153.37V168.58L119.99 169.268L110.706 163.892C110.676 164.232 110.676 164.573 110.706 164.913V174.685L109.519 175.372V160.163L121.177 153.37Z" fill="#9E483C"/>
<path d="M109.415 158.62L121.177 151.828L121.926 152.266L109.415 160.162V158.62Z" fill="#F0886E"/>
<path d="M109.415 148.453L121.177 141.661V151.828L109.415 158.621V148.453Z" fill="#BF5C43"/>
<path d="M109.415 146.932L121.177 140.14L121.926 140.577L109.415 148.453V146.932Z" fill="#F0886E"/>
<path d="M109.415 136.764L121.177 129.972V140.139L109.415 146.932V136.764Z" fill="#BF5C43"/>
<path d="M119.99 159.496V169.267L110.706 163.892C110.99 162.436 111.717 161.105 112.788 160.079C114.241 158.918 115.863 157.983 117.596 157.308C119.033 156.891 119.99 157.787 119.99 159.496Z" fill="#5A504F"/>
<path d="M119.99 159.496V169.267L110.706 163.892C110.99 162.436 111.717 161.105 112.788 160.079C114.241 158.918 115.863 157.983 117.596 157.308C119.033 156.891 119.99 157.787 119.99 159.496Z" fill="#61241B"/>
<path d="M114.328 154.516L110.518 156.725V155.87L113.578 154.079L114.328 154.516Z" fill="#F0886E"/>
<path d="M113.579 148.849V154.183L110.518 155.974V151.599C110.499 151.405 110.499 151.21 110.518 151.016C110.518 150.891 110.518 150.765 110.622 150.661L113.225 149.14L113.516 148.974L113.579 148.849Z" fill="#4D303A"/>
<path d="M113.287 149.328V153.954L112.85 154.204L110.518 155.558V151.391C110.509 151.294 110.509 151.196 110.518 151.099C110.518 151.099 110.518 150.891 110.518 150.807L112.788 149.495L113.287 149.328Z" fill="#8A5B6B"/>
<path d="M113.578 148.891V149.161L113.287 149.328L110.581 150.891C110.581 150.766 110.581 150.641 110.685 150.537C110.728 150.379 110.784 150.226 110.851 150.078C111.177 149.319 111.72 148.673 112.413 148.224L112.787 148.057C112.939 148.028 113.094 148.028 113.245 148.057C113.252 148.105 113.252 148.155 113.245 148.203V148.39V148.682L113.578 148.891Z" fill="#4D303A"/>
<path d="M113.287 149.016L110.685 150.537C110.728 150.379 110.783 150.226 110.851 150.078C111.177 149.319 111.72 148.673 112.413 148.224L112.787 148.057C112.864 148.103 112.929 148.168 112.975 148.245C112.975 148.245 112.975 148.349 112.975 148.411V148.641L113.287 149.016Z" fill="#8A5B6B"/>
<path d="M113.287 153.953L110.518 155.558V155.203L112.996 153.787L113.287 153.953Z" fill="#593B45"/>
<path d="M113.287 149.015L110.685 150.536C110.728 150.379 110.783 150.226 110.851 150.078L112.933 148.849L113.287 149.015Z" fill="#593B45"/>
<path d="M114.328 149.287V154.516L113.579 154.183V148.849V148.557V148.37C113.585 148.321 113.585 148.272 113.579 148.224C113.709 148.193 113.844 148.193 113.974 148.224V148.349C113.976 148.384 113.976 148.418 113.974 148.453C113.974 148.453 113.974 148.62 113.974 148.703V148.87L114.328 149.287Z" fill="#61241B"/>
<g style="mix-blend-mode:multiply">
<path d="M112.85 154.516V154.183H112.246V150.161L110.539 151.182C110.539 151.182 110.539 150.974 110.539 150.891L112.808 149.578C112.808 148.766 112.371 148.557 111.767 148.703C111.949 148.52 112.151 148.359 112.371 148.224L112.746 148.057C112.897 148.028 113.052 148.028 113.204 148.057C113.211 148.105 113.211 148.155 113.204 148.203V148.39V148.682V154.183L113.953 154.62L112.85 154.516Z" fill="#897998"/>
</g>
<path d="M113.287 149.016L112.996 148.849C113.004 148.57 112.932 148.295 112.787 148.057C112.86 148.109 112.923 148.172 112.975 148.245C112.975 148.245 112.975 148.349 112.975 148.411V148.641L113.287 149.016Z" fill="#2B0512"/>
<path d="M112.996 149.495V153.787L113.287 153.954V149.328L112.996 149.495Z" fill="#2B0512"/>
<path d="M110.518 155.87L112.829 154.516L110.518 155.87Z" fill="#4D303A"/>
<path d="M120.073 151.182L116.264 153.391V152.537L119.345 150.766L120.073 151.182Z" fill="#F0886E"/>
<path d="M119.324 145.536V150.766L116.264 152.537V148.161C116.244 147.96 116.244 147.758 116.264 147.557C116.264 147.557 116.264 147.328 116.264 147.203L118.866 145.703L119.157 145.536H119.324Z" fill="#4D303A"/>
<path d="M119.033 145.994V150.62L118.595 150.89L116.264 152.245V148.078C116.254 147.974 116.254 147.869 116.264 147.765C116.264 147.765 116.264 147.578 116.264 147.473L118.658 146.265L119.033 145.994Z" fill="#8A5B6B"/>
<path d="M119.324 145.578V145.848L119.033 146.015L116.326 147.578C116.326 147.578 116.326 147.349 116.326 147.224C116.373 147.074 116.428 146.928 116.493 146.786C116.818 146.027 117.362 145.381 118.054 144.932L118.429 144.765H118.533C118.684 144.735 118.84 144.735 118.991 144.765C118.998 144.813 118.998 144.862 118.991 144.911V145.078V145.369V145.473V145.598L119.324 145.578Z" fill="#4D303A"/>
<path d="M119.033 145.703L116.43 147.203C116.477 147.054 116.532 146.907 116.597 146.765C116.922 146.006 117.466 145.36 118.158 144.911L118.533 144.744H118.637C118.71 144.803 118.773 144.874 118.824 144.952C118.836 145.007 118.836 145.064 118.824 145.119V145.369L119.033 145.703Z" fill="#8A5B6B"/>
<path d="M119.033 150.641L116.264 152.245V151.891L118.741 150.453L119.033 150.641Z" fill="#593B45"/>
<path d="M119.033 145.703L116.43 147.203C116.477 147.054 116.532 146.908 116.597 146.765L118.679 145.515L119.033 145.703Z" fill="#593B45"/>
<path d="M120.073 145.953V151.182L119.324 150.766V145.536V145.411V145.307V145.015V144.848C119.331 144.8 119.331 144.751 119.324 144.702C119.454 144.671 119.589 144.671 119.719 144.702V144.848C119.719 144.848 119.719 145.036 119.719 145.119V145.265L120.073 145.953Z" fill="#61241B"/>
<g style="mix-blend-mode:multiply">
<path d="M118.658 151.182V150.89H118.054V146.848L116.347 147.848C116.347 147.848 116.347 147.661 116.347 147.557L118.658 146.265C118.658 145.432 118.221 145.223 117.617 145.39C117.798 145.206 118.001 145.046 118.221 144.911L118.595 144.744H118.7C118.851 144.714 119.006 144.714 119.157 144.744C119.164 144.792 119.164 144.841 119.157 144.89V145.057V145.348V145.452V145.577V150.807L119.907 151.224L118.658 151.182Z" fill="#897998"/>
</g>
<path d="M119.033 145.703L118.658 145.515C118.665 145.243 118.593 144.975 118.45 144.744H118.554C118.627 144.803 118.69 144.874 118.741 144.952C118.741 144.952 118.741 144.952 118.741 145.119V145.369L119.033 145.703Z" fill="#2B0512"/>
<path d="M118.741 146.182V150.453L119.033 150.62V145.994L118.741 146.182Z" fill="#2B0512"/>
<path d="M116.264 152.537L118.575 151.203L116.264 152.537Z" fill="#4D303A"/>
<path d="M113.578 135.556V142.452L110.518 144.223V137.327L112.996 135.889L113.287 135.722L113.578 135.556Z" fill="#4D303A"/>
<path d="M113.287 135.723V142.328L110.518 143.932V137.327L112.996 135.889L113.287 135.723Z" fill="#8A5B6B"/>
<path d="M113.287 142.327L110.518 143.932V143.577L112.996 142.14L113.287 142.327Z" fill="#593B45"/>
<path d="M114.328 135.118V142.89L113.579 142.452V135.556L114.328 135.118Z" fill="#61241B"/>
<path d="M114.328 142.89L110.518 145.098V144.223L113.578 142.452L114.328 142.89Z" fill="#F0886E"/>
<path d="M113.287 135.723V142.328L112.996 142.14V135.889L113.287 135.723Z" fill="#2B0512"/>
<path d="M114.328 134.014L110.518 136.223L110.831 136.41L114.64 134.202L114.328 134.014Z" fill="#F0886E"/>
<path d="M114.64 134.202L110.831 136.41V137.515L114.64 135.306V134.202Z" fill="#DE6C50"/>
<path d="M110.518 136.223V137.327L110.831 137.514V136.41L110.518 136.223Z" fill="#61241B"/>
<g style="mix-blend-mode:multiply">
<path d="M114.328 142.89L113.578 142.453V135.91L113.287 136.098V138.619L112.996 138.785V136.264L110.914 137.514L110.602 137.327V136.223L110.289 136.723V137.848L110.602 137.66V138.577L112.329 137.577V138.91L110.602 139.911V140.223L112.329 139.223V142.578H112.933V142.89H114.328ZM113.287 138.723V142.432L112.996 142.244V138.785L113.287 138.723Z" fill="#897998"/>
</g>
<path d="M113.287 138.035V138.348L110.518 139.952V139.66L113.287 138.035Z" fill="#4D303A"/>
<path d="M113.287 138.035L110.518 139.661V139.306L112.996 137.869L113.287 138.035Z" fill="#593B45"/>
<g style="mix-blend-mode:multiply">
<path d="M112.85 138.619V138.306L113.287 138.035V138.348L112.85 138.619Z" fill="#897998"/>
</g>
<g style="mix-blend-mode:multiply">
<path d="M112.85 138.306H112.246L112.996 137.869L113.287 138.035L112.85 138.306Z" fill="#897998"/>
</g>
<path d="M119.345 132.243V139.139L116.264 140.91V134.014L118.741 132.576L119.033 132.409L119.345 132.243Z" fill="#4D303A"/>
<path d="M119.033 132.41V138.994L116.264 140.598V134.014L118.741 132.576L119.033 132.41Z" fill="#8A5B6B"/>
<path d="M119.033 138.994L116.264 140.598V140.265L118.741 138.827L119.033 138.994Z" fill="#593B45"/>
<path d="M120.074 131.805V139.556L119.345 139.139V132.243L120.074 131.805Z" fill="#61241B"/>
<path d="M120.073 139.556L116.264 141.765V140.911L119.345 139.14L120.073 139.556Z" fill="#F0886E"/>
<path d="M119.033 132.41V138.994L118.741 138.827V132.576L119.033 132.41Z" fill="#2B0512"/>
<path d="M120.073 130.701L116.264 132.889L116.576 133.076L120.386 130.868L120.073 130.701Z" fill="#F0886E"/>
<path d="M120.386 130.868L116.576 133.076V134.201L120.386 131.993V130.868Z" fill="#DE6C50"/>
<path d="M116.264 132.889V134.014L116.576 134.201V133.076L116.264 132.889Z" fill="#61241B"/>
<g style="mix-blend-mode:multiply">
<path d="M120.073 139.598L119.345 139.181V132.597L119.033 132.764V135.285L118.658 135.431V132.931L116.576 134.202L116.264 134.014V132.889L115.952 133.347V134.493L116.264 134.306V135.202L117.992 134.222V135.556L116.264 136.556V136.848L117.992 135.848V139.223H118.658V139.598H120.073ZM119.033 135.431V139.14L118.658 138.827V135.431H119.033Z" fill="#897998"/>
</g>
<path d="M119.033 134.722V135.035L116.264 136.639V136.326L119.033 134.722Z" fill="#4D303A"/>
<path d="M119.033 134.722L116.264 136.327V135.993L118.741 134.556L119.033 134.722Z" fill="#593B45"/>
<g style="mix-blend-mode:multiply">
<path d="M118.595 135.285V134.993L119.033 134.722V135.035L118.595 135.285Z" fill="#897998"/>
</g>
<g style="mix-blend-mode:multiply">
<path d="M118.595 134.993H117.992L118.741 134.556L119.033 134.722L118.595 134.993Z" fill="#897998"/>
</g>
<path d="M110.165 159.058L121.926 152.266V153.787L110.165 160.579V159.058Z" fill="#DE6C50"/>
<path d="M110.165 147.37L121.926 140.577V142.098L110.165 148.891V147.37Z" fill="#DE6C50"/>
<path d="M109.415 135.243L121.177 128.451L121.926 128.867L109.415 136.764V135.243Z" fill="#F0886E"/>
<path d="M110.165 135.66L121.926 128.868V130.41L110.165 137.202V135.66Z" fill="#DE6C50"/>
<path d="M106.126 137.139L109.415 135.243L111.643 136.535L107.604 139.535L106.126 137.139Z" fill="#F0886E"/>
<path d="M107.604 137.993L105.376 136.702V176.831L107.604 178.123V137.993Z" fill="#61241B"/>
<path d="M107.604 162.913L110.893 161.017V176.227L107.604 178.123V162.913Z" fill="#D65645"/>
<path d="M107.604 151.224L110.893 149.328V159.496L107.604 161.392V151.224Z" fill="#F27657"/>
<path d="M107.604 139.536L110.893 137.619V147.786L107.604 149.703V139.536Z" fill="#F27657"/>
<path d="M107.604 149.703L110.893 147.786L111.643 148.224L107.604 151.224V149.703Z" fill="#F0886E"/>
<path d="M108.353 150.12L111.642 148.224V149.745L108.353 151.661V150.12Z" fill="#FF8D70"/>
<path d="M108.353 138.431L111.642 136.535V138.056L108.353 139.952V138.431Z" fill="#FF8D70"/>
<path d="M107.604 161.392L110.893 159.496L111.643 159.912L107.604 162.913V161.392Z" fill="#F0886E"/>
<path d="M108.353 161.829L111.642 159.913V161.454L108.353 163.35V161.829Z" fill="#FF8D70"/>
<path d="M107.604 161.392L108.353 161.829V163.35L107.604 162.913V161.392Z" fill="#61241B"/>
<path d="M107.604 149.703L108.353 150.12V151.662L107.604 151.224V149.703Z" fill="#61241B"/>
<path d="M107.604 137.994L108.353 138.431V139.952L107.604 139.535V137.994Z" fill="#61241B"/>
<path d="M106.126 162.059L71.7361 181.936V197.125L106.126 177.269V162.059Z" fill="#9E483C"/>
<path d="M110.497 80.6333L26.6875 129.076L73.3804 156.058L157.211 107.615L110.497 80.6333Z" fill="#F0886E"/>
<path d="M106.126 175.998L73.3806 194.916V196.187L106.875 176.435L106.126 175.998Z" fill="#F0886E"/>
<path d="M106.126 160.538L73.3806 179.456V180.977L106.875 160.954L106.126 160.538Z" fill="#F0886E"/>
<path d="M106.126 150.37L71.7361 170.226V180.394L106.126 160.537V150.37Z" fill="#BF5C43"/>
<path d="M106.126 148.828L73.3806 167.747V169.289L106.875 149.266L106.126 148.828Z" fill="#F0886E"/>
<path d="M106.126 138.66L71.7361 158.537V168.705L106.126 148.828V138.66Z" fill="#BF5C43"/>
<path d="M106.875 176.435L74.1299 195.354V196.604L106.875 177.685V176.435Z" fill="#823B31"/>
<path d="M106.875 160.954L74.1299 179.873V181.415L106.875 162.496V160.954Z" fill="#DE6C50"/>
<path d="M106.875 149.266L74.1299 168.184V169.705L106.875 150.787V149.266Z" fill="#DE6C50"/>
<path d="M101.713 167.851V177.102L98.6318 178.893V169.622L101.13 168.184L101.421 168.017L101.713 167.851Z" fill="#4D303A"/>
<path d="M101.421 168.018V176.977L98.6318 178.581V169.622L101.13 168.184L101.421 168.018Z" fill="#8A5B6B"/>
<path d="M101.421 176.977L98.6318 178.581V178.227L101.13 176.81L101.421 176.977Z" fill="#593B45"/>
<path d="M102.462 167.413V177.539L101.713 177.102V167.851L102.462 167.413Z" fill="#61241B"/>
<path d="M102.462 177.539L98.6318 179.748V178.893L101.713 177.102L102.462 177.539Z" fill="#F0886E"/>
<path d="M101.421 168.018V176.977L101.13 176.81V168.184L101.421 168.018Z" fill="#2B0512"/>
<path d="M102.462 166.309L98.6318 168.518L98.9649 168.684L102.774 166.497L102.462 166.309Z" fill="#F0886E"/>
<path d="M102.774 166.497L98.9648 168.684V169.809L102.774 167.601V166.497Z" fill="#DE6C50"/>
<path d="M98.6318 168.518V169.622L98.9649 169.809V168.684L98.6318 168.518Z" fill="#61241B"/>
<g style="mix-blend-mode:multiply">
<path d="M102.462 177.539H100.984V177.227H100.38V169.872L98.6318 170.872V169.955L98.3196 170.143V168.997L98.6318 168.518V169.622L98.9649 169.809L101.13 168.559V176.81L101.421 176.977V168.372L101.713 168.205V177.102L102.462 177.539Z" fill="#897998"/>
</g>
<path d="M93.9686 172.331V181.582L90.8877 183.353V174.102L93.3858 172.664L93.6772 172.497L93.9686 172.331Z" fill="#4D303A"/>
<path d="M93.6772 172.497V181.456L90.8877 183.061V174.101L93.3858 172.664L93.6772 172.497Z" fill="#8A5B6B"/>
<path d="M93.6772 181.457L90.8877 183.061V182.707L93.3858 181.269L93.6772 181.457Z" fill="#593B45"/>
<path d="M94.7182 171.893V182.019L93.9688 181.582V172.331L94.7182 171.893Z" fill="#61241B"/>
<path d="M94.7181 182.019L90.8877 184.228V183.353L93.9686 181.582L94.7181 182.019Z" fill="#F0886E"/>
<path d="M93.6772 172.497V181.456L93.3857 181.269V172.664L93.6772 172.497Z" fill="#2B0512"/>
<path d="M94.7181 170.789L90.8877 172.997L91.2 173.164L95.0303 170.955L94.7181 170.789Z" fill="#F0886E"/>
<path d="M95.0303 170.955L91.2 173.164V174.289L95.0303 172.08V170.955Z" fill="#DE6C50"/>
<path d="M90.8877 172.997V174.101L91.2 174.289V173.164L90.8877 172.997Z" fill="#61241B"/>
<g style="mix-blend-mode:multiply">
<path d="M94.7181 182.019H93.2192V181.706H92.6363V174.351L90.8877 175.331V174.435L90.5754 174.622V173.476L90.8877 172.997V174.101L91.2 174.289L93.3858 173.039V181.269L93.6772 181.456V172.851L93.9686 172.685V181.581L94.7181 182.019Z" fill="#897998"/>
</g>
<path d="M86.2247 176.789V186.061L83.1438 187.832V178.581L85.6419 177.143L85.9333 176.977L86.2247 176.789Z" fill="#4D303A"/>
<path d="M85.9333 176.977V185.915L83.1438 187.54V178.581L85.6419 177.143L85.9333 176.977Z" fill="#8A5B6B"/>
<path d="M85.9333 185.915L83.1438 187.54V187.186L85.6419 185.749L85.9333 185.915Z" fill="#593B45"/>
<path d="M86.974 176.373V186.478L86.2246 186.061V176.789L86.974 176.373Z" fill="#61241B"/>
<path d="M86.9742 186.478L83.1438 188.686V187.832L86.2247 186.061L86.9742 186.478Z" fill="#F0886E"/>
<path d="M85.9333 176.977V185.915L85.6418 185.748V177.143L85.9333 176.977Z" fill="#2B0512"/>
<path d="M86.9742 175.248L83.1438 177.456L83.4561 177.644L87.2864 175.435L86.9742 175.248Z" fill="#F0886E"/>
<path d="M87.2864 175.435L83.4561 177.644V178.748L87.2864 176.539V175.435Z" fill="#DE6C50"/>
<path d="M83.1438 177.456V178.581L83.4561 178.748V177.644L83.1438 177.456Z" fill="#61241B"/>
<g style="mix-blend-mode:multiply">
<path d="M86.9742 186.478H85.4753V186.186H84.8924V178.831L83.1438 179.81V178.893L82.8315 179.102V177.956L83.1438 177.456V178.581L83.4561 178.748L85.6419 177.497V185.748L85.9333 185.915V177.331L86.2247 177.164V186.061L86.9742 186.478Z" fill="#897998"/>
</g>
<path d="M78.4808 181.269V190.541L75.3999 192.312V183.061L77.8771 181.623L78.1894 181.436L78.4808 181.269Z" fill="#4D303A"/>
<path d="M78.1894 181.436V190.395L75.3999 191.999V183.061L77.8771 181.623L78.1894 181.436Z" fill="#8A5B6B"/>
<path d="M78.1894 190.395L75.3999 191.999V191.666L77.8771 190.228L78.1894 190.395Z" fill="#593B45"/>
<path d="M79.2301 180.852V190.957L78.4807 190.541V181.269L79.2301 180.852Z" fill="#61241B"/>
<path d="M79.2303 190.957L75.3999 193.166V192.312L78.4808 190.541L79.2303 190.957Z" fill="#F0886E"/>
<path d="M78.1892 181.436V190.395L77.877 190.228V181.623L78.1892 181.436Z" fill="#2B0512"/>
<path d="M79.2303 179.727L75.3999 181.936L75.7122 182.123L79.5425 179.915L79.2303 179.727Z" fill="#F0886E"/>
<path d="M79.5425 179.915L75.7122 182.123V183.227L79.5425 181.019V179.915Z" fill="#DE6C50"/>
<path d="M75.3999 181.936V183.061L75.7122 183.227V182.123L75.3999 181.936Z" fill="#61241B"/>
<g style="mix-blend-mode:multiply">
<path d="M79.2303 190.958H77.7314V190.666H77.1277V183.311L75.3999 184.29V183.373L75.0876 183.561V182.436L75.3999 181.936V183.061L75.7122 183.228L77.8771 181.977V190.228L78.1894 190.395V181.811L78.4808 181.644V190.541L79.2303 190.958Z" fill="#897998"/>
</g>
<path d="M94.7181 165.851L90.8877 168.059V167.205L93.9686 165.413L94.7181 165.851Z" fill="#F0886E"/>
<path d="M93.9688 160.183V165.413L90.8879 167.205V162.829C90.8778 162.628 90.8778 162.426 90.8879 162.225C90.8759 162.107 90.8759 161.989 90.8879 161.871L93.6774 160.433L93.9688 160.266V160.183Z" fill="#4D303A"/>
<path d="M93.6773 160.663V165.288L93.2193 165.538L90.8878 166.892V162.829C90.8878 162.725 90.8878 162.621 90.8878 162.517C90.8763 162.42 90.8763 162.322 90.8878 162.225L93.1361 160.913L93.6773 160.663Z" fill="#8A5B6B"/>
<path d="M93.9688 160.225V160.433L93.6774 160.6L90.9711 162.163C90.9592 162.045 90.9592 161.926 90.9711 161.808C91.014 161.651 91.0697 161.498 91.1377 161.35C91.4515 160.589 91.9981 159.947 92.699 159.516C92.815 159.438 92.941 159.374 93.0737 159.329H93.1777C93.3289 159.299 93.4846 159.299 93.6357 159.329C93.6395 159.384 93.6395 159.44 93.6357 159.496V159.662C93.6473 159.759 93.6473 159.857 93.6357 159.954L93.9688 160.225Z" fill="#4D303A"/>
<path d="M93.6773 160.434L91.0752 161.955C91.1181 161.797 91.1738 161.644 91.2417 161.496C91.5556 160.735 92.1021 160.093 92.803 159.663C92.9191 159.584 93.0451 159.521 93.1777 159.475H93.2818L93.4692 159.663V159.829L93.6773 160.434Z" fill="#8A5B6B"/>
<path d="M93.6772 165.288L90.8877 166.893V166.538L93.3649 165.122L93.6772 165.288Z" fill="#593B45"/>
<path d="M93.6773 160.433L91.0752 161.954C91.1181 161.797 91.1738 161.644 91.2417 161.496L93.3235 160.267L93.6773 160.433Z" fill="#593B45"/>
<path d="M94.7182 160.621V165.85L93.9688 165.413V160.183C93.9803 160.086 93.9803 159.988 93.9688 159.891V159.725C93.9725 159.669 93.9725 159.614 93.9688 159.558C94.0988 159.57 94.2257 159.606 94.3435 159.662C94.3375 159.704 94.3375 159.746 94.3435 159.787C94.3535 159.87 94.3535 159.954 94.3435 160.037V160.204L94.7182 160.621Z" fill="#61241B"/>
<g style="mix-blend-mode:multiply">
<path d="M93.2192 165.85V165.538H92.6155V161.496L90.9293 162.517C90.9178 162.42 90.9178 162.322 90.9293 162.225L93.1776 160.912C93.1776 160.1 92.7612 159.891 92.1575 160.037C92.3392 159.86 92.5419 159.706 92.7612 159.579C92.8773 159.5 93.0033 159.437 93.136 159.391H93.24C93.3912 159.361 93.5469 159.361 93.698 159.391C93.7018 159.447 93.7018 159.503 93.698 159.558V159.725C93.7096 159.822 93.7096 159.92 93.698 160.016V165.246L94.4474 165.684L93.2192 165.85Z" fill="#897998"/>
</g>
<path d="M93.6774 160.434L93.3859 160.267C93.3947 159.988 93.3223 159.713 93.1777 159.475H93.2818C93.3544 159.527 93.4177 159.59 93.4692 159.663V159.829L93.6774 160.434Z" fill="#2B0512"/>
<path d="M93.365 160.829V165.121L93.6773 165.288V160.663L93.365 160.829Z" fill="#2B0512"/>
<path d="M90.8877 167.205L93.2192 165.851L90.8877 167.205Z" fill="#4D303A"/>
<path d="M102.462 161.371L98.6318 163.579V162.725L101.713 160.954L102.462 161.371Z" fill="#F0886E"/>
<path d="M101.713 155.704V160.933L98.6318 162.725V158.35C98.6113 158.149 98.6113 157.946 98.6318 157.745C98.6226 157.628 98.6226 157.509 98.6318 157.391L101.234 155.87L101.525 155.704H101.713Z" fill="#4D303A"/>
<path d="M101.421 156.266V160.892L100.963 161.162L98.6317 162.517V158.35C98.6214 158.246 98.6214 158.141 98.6317 158.037C98.6217 157.94 98.6217 157.842 98.6317 157.745L100.88 156.433L101.421 156.266Z" fill="#8A5B6B"/>
<path d="M101.713 155.745V156.016L101.421 156.183L98.7149 157.746C98.7057 157.628 98.7057 157.509 98.7149 157.391C98.7614 157.235 98.8171 157.082 98.8815 156.933C99.2013 156.176 99.7464 155.536 100.443 155.099C100.559 155.027 100.685 154.971 100.817 154.933C100.969 154.912 101.123 154.912 101.275 154.933C101.275 154.933 101.275 154.933 101.275 155.099V155.266C101.287 155.363 101.287 155.461 101.275 155.558C101.285 155.592 101.285 155.628 101.275 155.662L101.713 155.745Z" fill="#4D303A"/>
<path d="M101.421 155.87L98.8191 157.391C98.8656 157.235 98.9212 157.082 98.9856 156.933C99.3055 156.176 99.8506 155.535 100.547 155.099C100.663 155.027 100.79 154.97 100.922 154.933C100.994 154.984 101.058 155.048 101.109 155.12V155.287L101.421 155.87Z" fill="#8A5B6B"/>
<path d="M101.421 160.808L98.6318 162.413V162.079L101.13 160.642L101.421 160.808Z" fill="#593B45"/>
<path d="M101.421 155.87L98.8191 157.391C98.8656 157.235 98.9212 157.082 98.9856 156.933L101.067 155.704L101.421 155.87Z" fill="#593B45"/>
<path d="M102.462 156.141V161.371L101.713 160.933V155.704C101.722 155.67 101.722 155.633 101.713 155.599C101.724 155.502 101.724 155.405 101.713 155.308V155.141C101.713 155.141 101.713 155.141 101.713 154.974C101.836 154.951 101.964 154.951 102.087 154.974V155.12C102.099 155.21 102.099 155.301 102.087 155.391V155.537L102.462 156.141Z" fill="#61241B"/>
<g style="mix-blend-mode:multiply">
<path d="M100.963 161.371V161.079H100.38V156.912L98.6733 157.933C98.6633 157.836 98.6633 157.739 98.6733 157.642L100.922 156.329C100.922 155.516 100.505 155.308 99.9015 155.475C100.083 155.291 100.285 155.13 100.505 154.995C100.622 154.923 100.748 154.867 100.88 154.829C101.032 154.808 101.186 154.808 101.338 154.829C101.338 154.829 101.338 154.829 101.338 154.995V155.162C101.349 155.259 101.349 155.357 101.338 155.454C101.348 155.488 101.348 155.524 101.338 155.558V160.788L102.087 161.225L100.963 161.371Z" fill="#897998"/>
</g>
<path d="M101.421 155.87L101.13 155.704C101.139 155.431 101.067 155.163 100.922 154.933H101.026C101.098 154.984 101.162 155.048 101.213 155.12V155.287L101.421 155.87Z" fill="#2B0512"/>
<path d="M101.13 156.35V160.642L101.421 160.809V156.183L101.13 156.35Z" fill="#2B0512"/>
<path d="M98.6318 162.725L100.963 161.371L98.6318 162.725Z" fill="#4D303A"/>
<path d="M79.2303 174.789L75.3999 176.998V176.144L78.4808 174.373L79.2303 174.789Z" fill="#F0886E"/>
<path d="M78.4808 169.143V174.372L75.3999 176.143V171.768C75.3999 171.58 75.3999 171.372 75.3999 171.164C75.3999 170.955 75.3999 170.934 75.3999 170.809L78.0229 169.309L78.3143 169.143H78.4808Z" fill="#4D303A"/>
<path d="M78.1894 169.601V174.227L77.7314 174.497L75.3999 175.852V171.685C75.4102 171.581 75.4102 171.476 75.3999 171.372V171.08L77.6482 169.789L78.1894 169.601Z" fill="#8A5B6B"/>
<path d="M78.4808 169.184V169.434L78.1894 169.601L75.4832 171.164C75.4832 171.06 75.4832 170.935 75.4832 170.81L75.6705 170.372C75.9958 169.613 76.5392 168.967 77.2318 168.518L77.5857 168.351C77.7439 168.321 77.9063 168.321 78.0645 168.351V168.497V168.664C78.0745 168.761 78.0745 168.858 78.0645 168.955C78.0625 168.99 78.0625 169.025 78.0645 169.059V169.184H78.4808Z" fill="#4D303A"/>
<path d="M78.1894 169.309L75.5664 170.851L75.7538 170.414C76.079 169.654 76.6225 169.009 77.315 168.559L77.6689 168.393L77.8771 168.601V168.768L78.1894 169.309Z" fill="#8A5B6B"/>
<path d="M78.1894 174.247L75.3999 175.851V175.497L77.8771 174.06L78.1894 174.247Z" fill="#593B45"/>
<path d="M78.1894 169.309L75.5664 170.851L75.7538 170.414L77.8355 169.164L78.1894 169.309Z" fill="#593B45"/>
<path d="M79.2302 169.559V174.789L78.4808 174.372V169.143V169.018C78.4787 168.983 78.4787 168.948 78.4808 168.914C78.4908 168.817 78.4908 168.719 78.4808 168.622V168.455V168.309C78.6038 168.278 78.7325 168.278 78.8555 168.309C78.8531 168.401 78.875 168.492 78.9188 168.572C78.9627 168.653 79.027 168.72 79.1053 168.768C79.1152 168.858 79.1152 168.949 79.1053 169.039V169.184L79.2302 169.559Z" fill="#61241B"/>
<g style="mix-blend-mode:multiply">
<path d="M77.7314 174.789V174.498H77.1277V170.455L75.4207 171.456V171.164L77.6689 169.872C77.6689 169.039 77.2318 168.83 76.6281 168.997C76.8206 168.818 77.0297 168.657 77.2526 168.518L77.6065 168.351C77.7647 168.321 77.927 168.321 78.0852 168.351V168.497V168.664C78.0953 168.761 78.0953 168.858 78.0852 168.955C78.0832 168.99 78.0832 169.025 78.0852 169.059V169.184V174.414L78.8347 174.831L77.7314 174.789Z" fill="#897998"/>
</g>
<path d="M78.1894 169.31L77.8771 169.122C77.8938 168.849 77.8207 168.578 77.6689 168.351C77.753 168.404 77.8241 168.475 77.8771 168.559V168.726L78.1894 169.31Z" fill="#2B0512"/>
<path d="M77.877 169.789V174.06L78.1892 174.247V169.601L77.877 169.789Z" fill="#2B0512"/>
<path d="M75.3999 176.144L77.7314 174.81L75.3999 176.144Z" fill="#4D303A"/>
<path d="M86.9742 170.33L83.1438 172.539V171.664L86.2247 169.893L86.9742 170.33Z" fill="#F0886E"/>
<path d="M86.2247 164.601V169.83L83.1438 171.601V167.226C83.1765 167.043 83.2182 166.863 83.2687 166.684C83.2937 166.557 83.3285 166.431 83.3728 166.309L85.9749 164.809L86.2664 164.642L86.2247 164.601Z" fill="#4D303A"/>
<path d="M85.9333 165.142V169.768L85.4753 170.018L83.1438 171.372V167.205C83.1438 167.205 83.1438 167.017 83.1438 166.913C83.1772 166.832 83.2191 166.756 83.2687 166.684L85.517 165.371L85.9333 165.142Z" fill="#8A5B6B"/>
<path d="M86.2248 164.705V164.955L85.9334 165.142L83.2688 166.684C83.2938 166.557 83.3286 166.431 83.3729 166.309C83.4192 166.16 83.4749 166.014 83.5394 165.872C83.8647 165.112 84.4081 164.467 85.1007 164.017L85.4754 163.851C85.6326 163.811 85.7971 163.811 85.9542 163.851V163.996V164.163C85.9642 164.26 85.9642 164.358 85.9542 164.455C85.964 164.496 85.964 164.539 85.9542 164.58L86.2248 164.705Z" fill="#4D303A"/>
<path d="M85.9334 164.83L83.2688 166.33C83.3152 166.181 83.3708 166.034 83.4353 165.892C83.7606 165.133 84.304 164.487 84.9966 164.038L85.3713 163.871C85.4549 163.916 85.5264 163.98 85.5795 164.059V164.225L85.9334 164.83Z" fill="#8A5B6B"/>
<path d="M85.9333 169.768L83.1438 171.372V171.018L85.621 169.58L85.9333 169.768Z" fill="#593B45"/>
<path d="M85.9334 164.83L83.2688 166.33C83.3152 166.181 83.3708 166.035 83.4353 165.892L85.5171 164.663L85.9334 164.83Z" fill="#593B45"/>
<path d="M86.974 165.101V170.33L86.2246 169.893V164.601C86.2343 164.559 86.2343 164.517 86.2246 164.476C86.2346 164.379 86.2346 164.281 86.2246 164.184V164.017V163.871C86.3476 163.84 86.4763 163.84 86.5993 163.871C86.5886 163.919 86.5886 163.969 86.5993 164.017C86.6105 164.072 86.6105 164.129 86.5993 164.184C86.6093 164.267 86.6093 164.351 86.5993 164.434V164.601L86.974 165.101Z" fill="#61241B"/>
<g style="mix-blend-mode:multiply">
<path d="M85.4752 170.33V170.018H84.8715V165.976L83.1853 166.997C83.1992 166.889 83.2272 166.784 83.2686 166.684L85.5168 165.372C85.5168 164.559 85.1005 164.351 84.476 164.496C84.6686 164.317 84.8777 164.157 85.1005 164.017L85.4752 163.851C85.6323 163.811 85.7969 163.811 85.954 163.851V163.996V164.163C85.964 164.26 85.964 164.358 85.954 164.455C85.9637 164.496 85.9637 164.539 85.954 164.58V169.81L86.7034 170.247L85.4752 170.33Z" fill="#897998"/>
</g>
<path d="M85.9332 164.83L85.6418 164.6C85.6505 164.322 85.5782 164.047 85.4336 163.809C85.5167 163.854 85.588 163.918 85.6418 163.996V164.163L85.9332 164.83Z" fill="#2B0512"/>
<path d="M85.6211 165.309V169.58L85.9333 169.768V165.142L85.6211 165.309Z" fill="#2B0512"/>
<path d="M83.1438 171.664L85.4753 170.33L83.1438 171.664Z" fill="#4D303A"/>
<path d="M93.9686 146.89V153.787L90.8877 155.558V148.661L93.3858 147.224L93.6772 147.057L93.9686 146.89Z" fill="#4D303A"/>
<path d="M93.6772 147.057V153.662L90.8877 155.266V148.661L93.3858 147.224L93.6772 147.057Z" fill="#8A5B6B"/>
<path d="M93.6772 153.662L90.8877 155.266V154.912L93.3858 153.474L93.6772 153.662Z" fill="#593B45"/>
<path d="M94.7182 146.453V154.224L93.9688 153.787V146.89L94.7182 146.453Z" fill="#61241B"/>
<path d="M94.7181 154.224L90.8877 156.433V155.558L93.9686 153.787L94.7181 154.224Z" fill="#F0886E"/>
<path d="M93.6772 147.057V153.662L93.3857 153.474V147.224L93.6772 147.057Z" fill="#2B0512"/>
<path d="M94.7181 145.349L90.8877 147.557L91.2 147.745L95.0303 145.536L94.7181 145.349Z" fill="#F0886E"/>
<path d="M95.0303 145.536L91.2 147.745V148.849L95.0303 146.64V145.536Z" fill="#DE6C50"/>
<path d="M90.8877 147.557V148.661L91.2 148.849V147.745L90.8877 147.557Z" fill="#61241B"/>
<g style="mix-blend-mode:multiply">
<path d="M94.718 154.183L93.9686 153.745V147.245L93.6772 147.432V150.016L93.3857 150.182V147.599L91.304 148.849L90.971 148.661V147.557L90.6587 148.057V149.182L90.971 148.995V150.016L92.7196 149.036V150.349L90.971 151.349V151.662L92.7196 150.662V154.016H93.3025V154.183H94.718ZM93.6772 150.016V153.724L93.3857 153.537V150.12L93.6772 150.016Z" fill="#897998"/>
</g>
<path d="M93.6772 149.391V149.682L90.8877 151.287V150.995L93.6772 149.391Z" fill="#4D303A"/>
<path d="M93.6772 149.391L90.8877 150.995V150.641L93.3858 149.203L93.6772 149.391Z" fill="#593B45"/>
<g style="mix-blend-mode:multiply">
<path d="M93.2192 149.953V149.641L93.6772 149.391V149.682L93.2192 149.953Z" fill="#897998"/>
</g>
<g style="mix-blend-mode:multiply">
<path d="M93.2194 149.641H92.6365L93.3859 149.203L93.6773 149.391L93.2194 149.641Z" fill="#897998"/>
</g>
<path d="M101.713 142.411V149.307L98.6318 151.099V144.182L101.13 142.765L101.421 142.577L101.713 142.411Z" fill="#4D303A"/>
<path d="M101.421 142.577V149.182L98.6318 150.786V144.181L101.13 142.765L101.421 142.577Z" fill="#8A5B6B"/>
<path d="M101.421 149.182L98.6318 150.786V150.432L101.13 148.995L101.421 149.182Z" fill="#593B45"/>
<path d="M102.462 141.973V149.745L101.713 149.307V142.411L102.462 141.973Z" fill="#61241B"/>
<path d="M102.462 149.745L98.6318 151.953V151.099L101.713 149.307L102.462 149.745Z" fill="#F0886E"/>
<path d="M101.421 142.577V149.182L101.13 148.994V142.765L101.421 142.577Z" fill="#2B0512"/>
<path d="M102.462 140.869L98.6318 143.077L98.9441 143.265L102.774 141.056L102.462 140.869Z" fill="#F0886E"/>
<path d="M102.774 141.056L98.9441 143.265V144.369L102.774 142.16V141.056Z" fill="#DE6C50"/>
<path d="M98.6318 143.077V144.181L98.9441 144.369V143.265L98.6318 143.077Z" fill="#61241B"/>
<g style="mix-blend-mode:multiply">
<path d="M102.462 149.745L101.713 149.307V142.786L101.421 142.952V145.473L101.13 145.64V143.119L99.0482 144.369L98.7151 144.182V143.077L98.4028 143.577V144.703L98.7151 144.515V145.432L100.464 144.452V145.848L98.7151 146.849V147.161L100.464 146.161V149.516H101.067V149.828L102.462 149.745ZM101.421 145.473V149.182L101.13 148.995V145.64L101.421 145.473Z" fill="#897998"/>
</g>
<path d="M101.421 144.911V145.203L98.6318 146.828V146.515L101.421 144.911Z" fill="#4D303A"/>
<path d="M101.421 144.911L98.6318 146.515V146.161L101.13 144.724L101.421 144.911Z" fill="#593B45"/>
<g style="mix-blend-mode:multiply">
<path d="M100.984 145.474V145.161L101.421 144.911V145.203L100.984 145.474Z" fill="#897998"/>
</g>
<g style="mix-blend-mode:multiply">
<path d="M100.984 145.161H100.38L101.13 144.724L101.421 144.911L100.984 145.161Z" fill="#897998"/>
</g>
<path d="M86.2247 151.37V158.267L83.1438 160.038V153.141L85.621 151.703L85.9333 151.537L86.2247 151.37Z" fill="#4D303A"/>
<path d="M85.9333 151.537V158.121L83.1438 159.746V153.141L85.6419 151.703L85.9333 151.537Z" fill="#8A5B6B"/>
<path d="M85.9333 158.121L83.1438 159.746V159.392L85.621 157.954L85.9333 158.121Z" fill="#593B45"/>
<path d="M86.974 150.933V158.683L86.2246 158.267V151.37L86.974 150.933Z" fill="#61241B"/>
<path d="M86.9742 158.683L83.1438 160.892V160.038L86.2247 158.267L86.9742 158.683Z" fill="#F0886E"/>
<path d="M85.9333 151.537V158.121L85.6211 157.954V151.703L85.9333 151.537Z" fill="#2B0512"/>
<path d="M86.9742 149.828L83.1438 152.037L83.4561 152.203L87.2864 149.995L86.9742 149.828Z" fill="#F0886E"/>
<path d="M87.2864 149.995L83.4561 152.203V153.328L87.2864 151.12V149.995Z" fill="#DE6C50"/>
<path d="M83.1438 152.037V153.141L83.4561 153.328V152.203L83.1438 152.037Z" fill="#61241B"/>
<g style="mix-blend-mode:multiply">
<path d="M86.9741 158.683L86.2247 158.266V151.724L85.9332 151.891V154.412L85.6418 154.599V152.099L83.5601 153.349L83.2478 153.162V152.099L82.9355 152.578V153.724L83.2478 153.537V154.454L84.9965 153.453V154.787L83.2478 155.787V156.1L84.9965 155.099V158.35H85.5793V158.642L86.9741 158.683ZM85.9332 154.516V158.225L85.6418 158.058V154.599L85.9332 154.516Z" fill="#897998"/>
</g>
<path d="M85.9333 153.849V154.162L83.1438 155.766V155.474L85.9333 153.849Z" fill="#4D303A"/>
<path d="M85.9333 153.849L83.1438 155.474V155.12L85.621 153.683L85.9333 153.849Z" fill="#593B45"/>
<g style="mix-blend-mode:multiply">
<path d="M85.4753 154.412V154.12L85.9333 153.849V154.162L85.4753 154.412Z" fill="#897998"/>
</g>
<g style="mix-blend-mode:multiply">
<path d="M85.4753 154.12H84.8716L85.621 153.683L85.9333 153.849L85.4753 154.12Z" fill="#897998"/>
</g>
<path d="M78.4808 155.85V162.746L75.3999 164.517V157.621L77.8771 156.183L78.1894 156.016L78.4808 155.85Z" fill="#4D303A"/>
<path d="M78.1894 156.016V162.6L75.3999 164.204V157.62L77.8771 156.183L78.1894 156.016Z" fill="#8A5B6B"/>
<path d="M78.1894 162.6L75.3999 164.205V163.871L77.8771 162.434L78.1894 162.6Z" fill="#593B45"/>
<path d="M79.2301 155.412V163.163L78.4807 162.746V155.85L79.2301 155.412Z" fill="#61241B"/>
<path d="M79.2303 163.163L75.3999 165.371V164.517L78.4808 162.746L79.2303 163.163Z" fill="#F0886E"/>
<path d="M78.1892 156.016V162.6L77.877 162.433V156.183L78.1892 156.016Z" fill="#2B0512"/>
<path d="M79.2303 154.308L75.3999 156.495L75.7122 156.683L79.5425 154.474L79.2303 154.308Z" fill="#F0886E"/>
<path d="M79.5425 154.475L75.7122 156.683V157.808L79.5425 155.6V154.475Z" fill="#DE6C50"/>
<path d="M75.3999 156.496V157.621L75.7122 157.808V156.683L75.3999 156.496Z" fill="#61241B"/>
<g style="mix-blend-mode:multiply">
<path d="M79.2302 163.163L78.4808 162.746V156.266L78.1894 156.433V158.954L77.8771 159.141V156.537L75.7954 157.808L75.4832 157.62V156.495L75.1709 156.995V158.141L75.4832 157.954V158.85L77.211 157.87V159.204L75.4832 160.204V160.433L77.211 159.433V162.808H77.8147V163.1L79.2302 163.163ZM78.1894 158.996V162.517H77.8771V159.079L78.1894 158.996Z" fill="#897998"/>
</g>
<path d="M78.1894 158.329V158.642L75.3999 160.246V159.933L78.1894 158.329Z" fill="#4D303A"/>
<path d="M78.1894 158.329L75.3999 159.933V159.6L77.8771 158.162L78.1894 158.329Z" fill="#593B45"/>
<g style="mix-blend-mode:multiply">
<path d="M77.7314 158.892V158.6L78.1894 158.329V158.642L77.7314 158.892Z" fill="#897998"/>
</g>
<g style="mix-blend-mode:multiply">
<path d="M77.7314 158.6H77.1277L77.8771 158.162L78.1894 158.329L77.7314 158.6Z" fill="#897998"/>
</g>
<path d="M106.126 137.139L73.3806 156.058V157.6L106.875 137.577L106.126 137.139Z" fill="#F0886E"/>
<path d="M106.875 137.577L74.1299 156.495V158.016L106.875 139.098V137.577Z" fill="#DE6C50"/>
<path d="M73.2139 182.79L74.8792 181.832V197.041L73.2139 198V182.79Z" fill="#D65645"/>
<path d="M73.2139 171.101L74.8792 170.143V180.31L73.2139 181.269V171.101Z" fill="#F27657"/>
<path d="M73.2139 159.392L74.8792 158.454V168.622L73.2139 169.559V159.392Z" fill="#F27657"/>
<path d="M25.043 130.013L26.6875 129.076L75.6079 157.349L73.9633 158.287L72.4853 157.433L25.043 130.013Z" fill="#F0886E"/>
<path d="M73.9634 158.287L75.6079 157.35V158.871L73.9634 159.829V158.287Z" fill="#FF8D70"/>
<path d="M73.2139 169.559L74.8792 168.622L75.6078 169.038L73.2139 171.101V169.559Z" fill="#F0886E"/>
<path d="M73.9634 169.997L75.6079 169.039V170.58L73.9634 171.518V169.997Z" fill="#FF8D70"/>
<path d="M73.2139 181.269L74.8792 180.311L75.6078 180.748L73.2139 182.79V181.269Z" fill="#F0886E"/>
<path d="M73.9634 181.686L75.6079 180.748V182.269L73.9634 183.227V181.686Z" fill="#FF8D70"/>
<path d="M73.2139 181.269L73.9633 181.686V183.228L73.2139 182.79V181.269Z" fill="#61241B"/>
<path d="M73.2139 169.56L73.9633 169.997V171.518L73.2139 171.101V169.56Z" fill="#61241B"/>
<path d="M73.2139 157.871L73.9633 158.287V159.829L73.2139 159.392V157.871Z" fill="#61241B"/>
<path d="M73.2139 157.871L25.043 130.014V170.143L73.2139 198V157.871Z" fill="#61241B"/>
<path d="M72.4853 89.9674L25.043 62.5479V151.599L72.4853 179.018V89.9674Z" fill="#003A40"/>
<path d="M159.605 39.629L112.142 12.2095L25.043 62.5481L72.4853 89.9677L159.605 39.629Z" fill="#6CAC95"/>
<path d="M72.4853 172.831L25.043 145.411V151.599L72.4853 179.019V172.831Z" fill="#004147"/>
<path d="M72.4853 157.641L25.043 130.222V136.41L72.4853 163.829V157.641Z" fill="#004147"/>
<path d="M72.4853 142.431L25.043 115.012V121.2L72.4853 148.619V142.431Z" fill="#004147"/>
<path d="M72.4853 127.242L25.043 99.8228V106.011L72.4853 133.41V127.242Z" fill="#004147"/>
<path d="M72.4853 112.032L25.043 84.6128V90.8009L72.4853 118.22V112.032Z" fill="#004147"/>
<path d="M72.4853 96.8434L25.043 69.4238V75.5911L72.4853 103.011V96.8434Z" fill="#004147"/>
<path d="M25.5426 62.8395L25.043 62.5479V151.599L25.5426 151.891V62.8395Z" fill="#43474A"/>
<path d="M29.8102 65.3194L29.3105 65.0068V154.079L29.8102 154.37V65.3194Z" fill="#43474A"/>
<path d="M34.0777 67.778L33.5781 67.4863V156.537L34.0777 156.829V67.778Z" fill="#43474A"/>
<path d="M38.3453 70.2365L37.8457 69.9448V158.996L38.3453 159.288V70.2365Z" fill="#43474A"/>
<path d="M42.6126 72.716L42.113 72.4243V161.475L42.6126 161.767V72.716Z" fill="#43474A"/>
<path d="M46.8803 75.1745L46.3599 74.8828V163.934L46.8803 164.226V75.1745Z" fill="#43474A"/>
<path d="M51.1479 77.633L50.6274 77.3413V166.392L51.1479 166.684V77.633Z" fill="#43474A"/>
<path d="M55.4152 80.1123L54.8948 79.7998V168.872L55.4152 169.163V80.1123Z" fill="#43474A"/>
<path d="M59.6828 82.571L59.1624 82.2793V171.33L59.6828 171.622V82.571Z" fill="#43474A"/>
<path d="M63.9504 85.0295L63.4299 84.7378V173.789L63.9504 174.081V85.0295Z" fill="#43474A"/>
<path d="M68.2179 87.5088L67.6975 87.1963V176.268L68.2179 176.56V87.5088Z" fill="#43474A"/>
<path d="M72.4853 89.9675L71.9648 89.6758V178.727L72.4853 179.019V89.9675Z" fill="#43474A"/>
<path d="M72.4853 172.893L25.043 145.494V145.994L72.4853 173.414V172.893Z" fill="#43474A"/>
<path d="M72.4853 157.704L25.043 130.284V130.805L72.4853 158.225V157.704Z" fill="#43474A"/>
<path d="M72.4853 142.494L25.043 115.095V115.595L72.4853 143.015V142.494Z" fill="#43474A"/>
<path d="M72.4853 127.305L25.043 99.8853V100.406L72.4853 127.805V127.305Z" fill="#43474A"/>
<path d="M72.4853 112.095L25.043 84.6963V85.1963L72.4853 112.616V112.095Z" fill="#43474A"/>
<path d="M72.4853 96.9059L25.043 69.4863V69.9864L72.4853 97.4059V96.9059Z" fill="#43474A"/>
<path d="M72.4853 178.519L25.043 151.099V151.599L72.4853 179.019V178.519Z" fill="#43474A"/>
<path d="M72.4853 163.309L25.043 135.889V136.41L72.4853 163.83V163.309Z" fill="#43474A"/>
<path d="M72.4853 148.12L25.043 120.7V121.2L72.4853 148.62V148.12Z" fill="#43474A"/>
<path d="M72.4853 132.91L25.043 105.49V106.011L72.4853 133.41V132.91Z" fill="#43474A"/>
<path d="M72.4853 117.7L25.043 90.3008V90.8008L72.4853 118.22V117.7Z" fill="#43474A"/>
<path d="M72.4853 102.51L25.043 75.0908V75.5909L72.4853 103.01V102.51Z" fill="#43474A"/>
<path d="M72.4853 179.019L25.043 151.599V153.891L72.4853 181.311V179.019Z" fill="#3C3432"/>
<path d="M72.4854 155.141L159.605 104.803V107.095L72.4854 157.433V155.141Z" fill="#707070"/>
<path d="M72.4854 89.9675L159.605 39.6289V104.802L72.4854 155.141V89.9675Z" fill="#618D7C"/>
<path d="M72.4854 89.9675L159.605 39.6289V104.802L72.4854 155.141V89.9675Z" fill="#4C7583"/>
<path d="M72.4853 76.3414L25.043 48.9219V62.5483L72.4853 89.9679V76.3414Z" fill="#826565"/>
<path d="M159.605 26.0026L112.142 -1.41699L25.043 48.9216L72.4853 76.3412L159.605 26.0026Z" fill="#F9F7E2"/>
<path d="M27.4788 48.9218L112.142 0L157.149 26.0027L72.4855 74.9246L27.4788 48.9218Z" fill="#BDA195"/>
<path d="M112.142 12.2096L146.595 32.1075L157.149 26.0027L112.142 0L27.4788 48.9218L38.0331 55.0266L112.142 12.2096Z" fill="#826565"/>
<path d="M72.4854 76.3411L159.605 26.0024V39.6289L72.4854 89.9675V76.3411Z" fill="#E5DED0"/>
<path d="M72.4854 148.953L159.605 98.6143V104.802L72.4854 155.141V148.953Z" fill="#5E828F"/>
<path d="M72.4854 138.535L159.605 88.1968V94.3849L72.4854 144.724V138.535Z" fill="#5E828F"/>
<path d="M72.4854 128.117L159.605 77.7788V83.967L72.4854 134.306V128.117Z" fill="#5E828F"/>
<path d="M72.4854 117.679L159.605 67.3403V73.5285L72.4854 123.867V117.679Z" fill="#5E828F"/>
<path d="M72.4854 107.261L159.605 56.9224V63.1105L72.4854 113.449V107.261Z" fill="#5E828F"/>
<path d="M72.4854 96.8435L159.605 46.5049V52.6722L72.4854 103.011V96.8435Z" fill="#5E828F"/>
<g style="mix-blend-mode:multiply">
<path d="M159.584 73.8409C159.045 72.9247 158.387 72.084 157.628 71.3407C155.449 72.2033 153.584 73.7072 152.278 75.6536V63.3398L138.767 70.3822V85.8422L132.272 90.0093V101.511L127.255 104.177V91.5303L121.822 89.2592L109.894 96.2808V124.034L105.855 126.326V115.429L97.0705 109.282L90.2216 112.616V91.5303L76.7113 98.5727V114.033L72.5479 116.762V155.141L159.584 104.803V73.8409Z" fill="#B6D5D9"/>
</g>
<path d="M159.085 39.9206L159.605 39.6289V104.802L159.085 105.115V39.9206Z" fill="#85979E"/>
<path d="M154.755 42.4211L155.255 42.1294V107.303L154.755 107.615V42.4211Z" fill="#85979E"/>
<path d="M150.425 44.9211L150.924 44.6294V109.803L150.425 110.115V44.9211Z" fill="#85979E"/>
<path d="M146.095 47.4424L146.595 47.1299V112.324L146.095 112.616V47.4424Z" fill="#85979E"/>
<path d="M141.765 49.9424L142.265 49.6299V114.824L141.765 115.116V49.9424Z" fill="#85979E"/>
<path d="M137.435 52.4429L137.935 52.1304V117.325L137.435 117.616V52.4429Z" fill="#85979E"/>
<path d="M133.105 54.9431L133.605 54.6514V119.825L133.105 120.117V54.9431Z" fill="#85979E"/>
<path d="M128.775 57.4436L129.275 57.1519V122.325L128.775 122.617V57.4436Z" fill="#85979E"/>
<path d="M124.445 59.9436L124.945 59.6519V124.825L124.445 125.117V59.9436Z" fill="#85979E"/>
<path d="M120.115 62.444L120.615 62.1523V127.326L120.115 127.618V62.444Z" fill="#85979E"/>
<path d="M115.785 64.944L116.285 64.6523V129.826L115.785 130.118V64.944Z" fill="#85979E"/>
<path d="M111.455 67.4445L111.955 67.1528V132.326L111.455 132.639V67.4445Z" fill="#85979E"/>
<path d="M107.125 69.9445L107.625 69.6528V134.826L107.125 135.139V69.9445Z" fill="#85979E"/>
<path d="M102.795 72.445L103.295 72.1533V137.348L102.795 137.639V72.445Z" fill="#85979E"/>
<path d="M98.4653 74.9658L98.9649 74.6533V139.848L98.4653 140.139V74.9658Z" fill="#85979E"/>
<path d="M94.1353 77.4663L94.6349 77.1538V142.348L94.1353 142.64V77.4663Z" fill="#85979E"/>
<path d="M89.8052 79.9663L90.3048 79.6538V144.848L89.8052 145.14V79.9663Z" fill="#85979E"/>
<path d="M85.4753 82.467L85.9749 82.1753V147.349L85.4753 147.641V82.467Z" fill="#85979E"/>
<path d="M81.1453 84.967L81.6449 84.6753V149.849L81.1453 150.141V84.967Z" fill="#85979E"/>
<path d="M76.8154 87.4675L77.315 87.1758V152.349L76.8154 152.641V87.4675Z" fill="#85979E"/>
<path d="M72.4854 89.9675L72.985 89.6758V154.849L72.4854 155.141V89.9675Z" fill="#85979E"/>
<path d="M72.4854 149.036L159.605 98.6978V99.1978L72.4854 149.536V149.036Z" fill="#85979E"/>
<path d="M72.4854 138.598L159.605 88.2593V88.7802L72.4854 139.119V138.598Z" fill="#85979E"/>
<path d="M72.4854 128.18L159.605 77.8413V78.3414L72.4854 128.701V128.18Z" fill="#85979E"/>
<path d="M72.4854 117.762L159.605 67.4238V67.9239L72.4854 118.263V117.762Z" fill="#85979E"/>
<path d="M72.4854 107.323L159.605 56.9849V57.5058L72.4854 107.844V107.323Z" fill="#85979E"/>
<path d="M72.4854 96.906L159.605 46.5674V47.0674L72.4854 97.4061V96.906Z" fill="#85979E"/>
<path d="M72.4854 154.641L159.605 104.302V104.802L72.4854 155.141V154.641Z" fill="#85979E"/>
<path d="M72.4854 144.223L159.605 93.8638V94.3847L72.4854 144.723V144.223Z" fill="#85979E"/>
<path d="M72.4854 133.785L159.605 83.4463V83.9672L72.4854 134.306V133.785Z" fill="#85979E"/>
<path d="M72.4854 123.367L159.605 73.0283V73.5284L72.4854 123.867V123.367Z" fill="#85979E"/>
<path d="M72.4854 112.928L159.605 62.5898V63.1107L72.4854 113.449V112.928Z" fill="#85979E"/>
<path d="M72.4854 102.511L159.605 52.1719V52.6719L72.4854 103.011V102.511Z" fill="#85979E"/>
<path d="M72.4854 155.141L68.197 152.62V179.352L72.756 181.644L72.4854 157.433V155.141Z" fill="#61241B"/>
<path d="M112.142 0V12.2096L38.0331 55.0266L27.4788 48.9218L112.142 0Z" fill="#E5DED0"/>
<g style="mix-blend-mode:multiply">
<path d="M77.5647 35.9201L83.8307 32.2739L86.7867 40.3789H85.2879L77.5647 35.9201Z" fill="#897998"/>
</g>
<g style="mix-blend-mode:multiply">
<path d="M69.8208 41.5669L78.3558 36.6289L76.0035 44.0255H74.0675L69.8208 41.5669Z" fill="#897998"/>
</g>
<g style="mix-blend-mode:multiply">
<path d="M75.1084 44.0251L76.3782 43.2959L80.2711 46.4837H79.3759L75.1084 44.0251Z" fill="#897998"/>
</g>
<g style="mix-blend-mode:multiply">
<path d="M80.167 41.1082L81.4368 40.3789L85.3297 43.5667H84.4345L80.167 41.1082Z" fill="#897998"/>
</g>
<path d="M79.0637 35.9201V32.2739L86.7869 36.7536V40.3789L79.0637 35.9201Z" fill="#826565"/>
<path d="M93.0737 36.7536V33.1074L86.7869 36.7536V40.379L93.0737 36.7536Z" fill="#E5DED0"/>
<path d="M79.0637 32.2738L85.3505 28.6484L93.0737 33.1072L86.7869 36.7535L79.0637 32.2738Z" fill="#F8F6E1"/>
<path d="M71.7568 41.5665V39.5454L76.0035 42.0248V44.025L71.7568 41.5665Z" fill="#826565"/>
<path d="M84.5593 39.0871V37.0869L76.0034 42.0249V44.0251L84.5593 39.0871Z" fill="#E5DED0"/>
<path d="M71.7568 39.5456L80.2919 34.6284L84.5594 37.087L76.0035 42.025L71.7568 39.5456Z" fill="#F8F6E1"/>
<path d="M76.0034 44.0254V42.3794L80.2709 44.8588V46.484L76.0034 44.0254Z" fill="#826565"/>
<path d="M81.5408 45.7546V44.1294L80.271 44.8586V46.4838L81.5408 45.7546Z" fill="#E5DED0"/>
<path d="M76.0034 42.3791L77.2733 41.6499L81.5408 44.1293L80.2709 44.8586L76.0034 42.3791Z" fill="#F8F6E1"/>
<path d="M81.062 41.1084V39.4624L85.3295 41.9418V43.567L81.062 41.1084Z" fill="#826565"/>
<path d="M86.5994 42.8379V41.1919L85.3296 41.942V43.5671L86.5994 42.8379Z" fill="#E5DED0"/>
<path d="M81.062 39.4622L82.3319 38.7329L86.5994 41.1915L85.3295 41.9416L81.062 39.4622Z" fill="#F8F6E1"/>
<g style="mix-blend-mode:multiply">
<path d="M45.2981 55.7764L59.0166 47.8589L65.4491 65.5274H62.16L45.2981 55.7764Z" fill="#897998"/>
</g>
<path d="M48.5872 55.7764V47.8589L65.4491 57.6099V65.5274L48.5872 55.7764Z" fill="#826565"/>
<path d="M79.1469 57.6099V49.6924L65.4492 57.6099V65.5274L79.1469 57.6099Z" fill="#E5DED0"/>
<path d="M48.5872 47.8589L62.2849 39.9414L79.1468 49.6924L65.4491 57.6099L48.5872 47.8589Z" fill="#F8F6E1"/>
<path d="M105.376 23.794L114.89 18.2935L126.589 25.065L117.076 30.5447L105.376 23.794Z" fill="#AD8F82"/>
<path d="M94.2603 44.9213L100.963 41.0459L109.207 45.8172L102.504 49.6926L94.2603 44.9213Z" fill="#AD8F82"/>
<g style="mix-blend-mode:multiply">
<path d="M111.559 35.4408L117.846 31.8154L120.802 39.9204H119.282L111.559 35.4408Z" fill="#897998"/>
</g>
<g style="mix-blend-mode:multiply">
<path d="M103.815 41.0876L112.35 36.1704L110.019 43.567H108.083L103.815 41.0876Z" fill="#897998"/>
</g>
<g style="mix-blend-mode:multiply">
<path d="M109.124 43.5671L110.373 42.8379L114.286 46.0257H113.37L109.124 43.5671Z" fill="#897998"/>
</g>
<g style="mix-blend-mode:multiply">
<path d="M114.161 40.6293L115.431 39.9209L119.324 43.1087H118.429L114.161 40.6293Z" fill="#897998"/>
</g>
<path d="M113.058 35.4408V31.8154L120.802 36.2951V39.9204L113.058 35.4408Z" fill="#826565"/>
<path d="M127.089 36.2951V32.6489L120.802 36.2951V39.9205L127.089 36.2951Z" fill="#E5DED0"/>
<path d="M113.058 31.8158L119.345 28.1904L127.089 32.6492L120.802 36.2955L113.058 31.8158Z" fill="#F8F6E1"/>
<path d="M105.751 41.0876V39.0874L110.019 41.5668V43.567L105.751 41.0876Z" fill="#826565"/>
<path d="M118.554 38.6291V36.6289L110.019 41.5669V43.5671L118.554 38.6291Z" fill="#E5DED0"/>
<path d="M105.751 39.0874L114.286 34.1494L118.554 36.6288L110.019 41.5669L105.751 39.0874Z" fill="#F8F6E1"/>
<path d="M110.019 43.5669V41.9209L114.286 44.3795V46.0255L110.019 43.5669Z" fill="#826565"/>
<path d="M115.535 45.2964V43.6504L114.286 44.3796V46.0256L115.535 45.2964Z" fill="#E5DED0"/>
<path d="M110.019 41.9211L111.268 41.1919L115.535 43.6505L114.286 44.3797L110.019 41.9211Z" fill="#F8F6E1"/>
<path d="M115.077 40.6291V39.0039L119.324 41.4625V43.1085L115.077 40.6291Z" fill="#826565"/>
<path d="M120.594 42.3794V40.7334L119.324 41.4626V43.1087L120.594 42.3794Z" fill="#E5DED0"/>
<path d="M115.077 39.0041L116.326 38.2749L120.594 40.7335L119.324 41.4627L115.077 39.0041Z" fill="#F8F6E1"/>
</g>
<defs>
<clipPath id="clip0_212_3506">
<rect width="161" height="198" fill="white"/>
</clipPath>
</defs>
</svg>
