<svg width="142" height="238" viewBox="0 0 142 238" fill="none" xmlns="http://www.w3.org/2000/svg">
<g clip-path="url(#clip0_212_11989)">
<path d="M59.4373 233.831L111.42 203.804L68.9066 179.239L16.9038 209.265L59.4373 233.831Z" fill="#F8F6E1"/>
<path d="M17.9799 209.265L68.9066 179.846L110.364 203.804L59.4373 233.224L17.9799 209.265Z" fill="#BEBF4A"/>
<g style="mix-blend-mode:multiply">
<path d="M87.2778 238H61.3155L49.2637 233.674L35.1185 233.733L0 213.454L95.5927 158.236L123.59 196.405L141.1 206.916L139.789 207.66H134.859L87.9821 234.868L87.2778 238Z" fill="#C5BDCD"/>
</g>
<path d="M68.9066 180.864L109.503 204.313L110.364 203.804L68.9066 179.846L17.9799 209.265L18.8407 209.774L68.9066 180.864Z" fill="#C9BCA1"/>
<path d="M59.5352 233.674L114.257 202.062V190.807L59.5352 222.419V233.674Z" fill="#B2A1A1"/>
<path d="M89.4103 231.776L133.118 206.525V192.706L89.4103 217.956V231.776Z" fill="#4C7583"/>
<g style="mix-blend-mode:multiply">
<path d="M89.4103 226.706L133.118 201.456V192.706L89.4103 217.956V226.706Z" fill="#C5BDCD"/>
</g>
<path d="M89.4103 231.776L67.2632 229.211V215.392L89.4103 217.956V231.776Z" fill="#0D4457"/>
<path d="M87.2777 238L89.4689 236.728V224.337L87.2777 225.61V238Z" fill="#B2A1A1"/>
<path d="M87.2777 238L85.0669 237.765V225.375L87.2777 225.61V238Z" fill="#826565"/>
<path d="M139.789 207.66L142 206.388V193.998L139.789 195.27V207.66Z" fill="#B2A1A1"/>
<path d="M139.789 207.66L137.598 206.388V193.998L139.789 195.27V207.66Z" fill="#826565"/>
<path d="M142 189.554L109.014 170.509L103.556 173.66L97.647 170.235L42.9248 201.847L50.5354 212.75L59.5352 217.956L87.2778 221.166L142 189.554Z" fill="#F4ECD9"/>
<path d="M67.3414 61.6189L58.3417 56.4318L58.5569 47.9759L78.4932 12.7231L105.395 28.2649L75.5977 57.8216L67.3414 61.6189Z" fill="#FCFFFF"/>
<path d="M59.8873 55.5508L60.0634 48.3868L79.0607 14.8174L102.91 28.5975L74.7173 56.5491L67.4197 59.9158L59.8873 55.5508Z" fill="#82C4D7"/>
<path d="M59.5351 217.956L50.5354 212.749L48.2463 206.681L82.0931 186.618L105.395 206.916L67.7718 217.956H59.5351Z" fill="#174C5E"/>
<path d="M105.395 28.2648L78.4933 12.7231L100.543 0L127.444 15.5417L105.395 28.2648Z" fill="#FCFFFF"/>
<path d="M80.4692 12.723L100.543 1.13525L125.468 15.5417L105.395 27.1295L80.4692 12.723Z" fill="#BDA195"/>
<path d="M100.543 4.44326L122.611 17.1859L125.468 15.5417L100.543 1.13525L80.4692 12.723L83.3257 14.3868L100.543 4.44326Z" fill="#877D7E"/>
<path d="M127.444 15.5415V194.193L105.395 206.916V28.2646L127.444 15.5415Z" fill="#4C7583"/>
<path d="M105.395 28.2646V206.916L67.7719 217.956L68.0458 212.417L68.261 207.797L68.5349 202.14L68.7697 197.521L69.0436 191.884L69.2783 187.245L69.5522 181.607L69.7674 176.988L70.0413 171.35L70.2761 166.711L70.55 161.074L70.7848 156.455L71.0587 150.817L71.2739 146.178L71.5478 140.541L71.7826 135.922L72.0565 130.284L72.2913 125.645L72.5652 120.008L72.7804 115.388L73.0543 109.751L73.2891 105.112L73.563 99.4748L73.7978 94.8553V94.8358L74.0717 89.218L74.2869 84.579L74.5608 78.9417L74.7955 74.3222L75.0695 68.6849L75.2847 64.0459L75.5781 58.4086L75.5977 57.8214L81.291 52.1645L89.2538 44.2762L95.7884 37.7972L105.395 28.2646Z" fill="#0D4457"/>
<path d="M67.3414 61.6191L59.5352 217.956H67.7719L75.5977 57.8218L67.3414 61.6191Z" fill="#003A40"/>
<g style="mix-blend-mode:color-dodge">
<path d="M62.6068 156.376L62.3916 161.016H70.5501L70.7848 156.376H62.6068Z" fill="#141414"/>
</g>
<g style="mix-blend-mode:color-dodge">
<path d="M62.0981 166.653L61.8633 171.292H70.0609L70.2761 166.653H62.0981Z" fill="#141414"/>
</g>
<g style="mix-blend-mode:color-dodge">
<path d="M61.5894 176.929L61.3546 181.568L69.5522 181.588L69.787 176.929H61.5894Z" fill="#141414"/>
</g>
<g style="mix-blend-mode:color-dodge">
<path d="M61.0807 187.206L60.8459 191.845L69.0435 191.864L69.2783 187.206H61.0807Z" fill="#141414"/>
</g>
<g style="mix-blend-mode:color-dodge">
<path d="M75.5781 58.2328L75.5977 57.8218L74.7173 58.2133L75.5781 58.2328Z" fill="#141414"/>
</g>
<g style="mix-blend-mode:color-dodge">
<path d="M68.0458 212.417L68.2806 207.778L60.0439 207.758L59.8091 212.417H68.0458Z" fill="#141414"/>
</g>
<g style="mix-blend-mode:color-dodge">
<path d="M63.135 146.081L62.9003 150.739H71.0587L71.2935 146.1L63.135 146.081Z" fill="#141414"/>
</g>
<g style="mix-blend-mode:color-dodge">
<path d="M60.5525 197.482L60.3373 202.141H68.5544L68.7696 197.482H60.5525Z" fill="#141414"/>
</g>
<g style="mix-blend-mode:color-dodge">
<path d="M66.7154 74.1265L66.4806 78.7851H74.5608L74.7956 74.146L66.7154 74.1265Z" fill="#141414"/>
</g>
<g style="mix-blend-mode:color-dodge">
<path d="M66.2067 84.4028L65.9719 89.0614H74.0717L74.2869 84.4224L66.2067 84.4028Z" fill="#141414"/>
</g>
<g style="mix-blend-mode:color-dodge">
<path d="M65.698 94.6987L65.4633 99.3378H73.563L73.7978 94.6987H65.698Z" fill="#141414"/>
</g>
<g style="mix-blend-mode:color-dodge">
<path d="M63.6437 135.804L63.4089 140.463H71.5674L71.7826 135.824L63.6437 135.804Z" fill="#141414"/>
</g>
<g style="mix-blend-mode:color-dodge">
<path d="M67.2436 63.8501L67.0088 68.4891L75.0694 68.5087L75.2846 63.8501H67.2436Z" fill="#141414"/>
</g>
<g style="mix-blend-mode:color-dodge">
<path d="M65.1894 104.975L64.9546 109.614H73.0543L73.2891 104.975H65.1894Z" fill="#141414"/>
</g>
<g style="mix-blend-mode:color-dodge">
<path d="M64.1524 125.528L63.9176 130.167L72.0565 130.186L72.2913 125.528H64.1524Z" fill="#141414"/>
</g>
<g style="mix-blend-mode:color-dodge">
<path d="M64.661 115.251L64.4458 119.89L72.5651 119.91L72.7803 115.251H64.661Z" fill="#141414"/>
</g>
<path d="M59.5351 217.956L50.5354 212.749L58.3417 56.4316L67.3414 61.6187L59.5351 217.956Z" fill="#877D7E"/>
<path d="M50.5354 212.749L48.2463 206.681L58.5569 47.9756L58.3417 56.4315L50.5354 212.749Z" fill="#002533"/>
<path d="M59.5351 233.674L50.5354 228.467V212.75L59.5351 217.956V233.674Z" fill="#756A6B"/>
<path d="M87.2777 225.609L142 193.998V189.554L87.2777 221.166V225.609Z" fill="#B2A1A1"/>
<path d="M87.2778 225.609L59.5352 222.419V217.956L87.2778 221.166V225.609Z" fill="#8A8182"/>
<path d="M50.5354 228.467L42.9248 217.565V201.847L50.5354 212.749V228.467Z" fill="#8A8182"/>
<g style="mix-blend-mode:multiply">
<path d="M92.4624 11.079L100.112 6.65527L103.712 16.5206H101.893L92.4624 11.079Z" fill="#897998"/>
</g>
<path d="M94.2819 11.079V6.65527L103.712 12.0968V16.5206L94.2819 11.079Z" fill="#826565"/>
<path d="M111.381 12.0966V7.67285L103.712 12.0966V16.5203L111.381 12.0966Z" fill="#E5DED0"/>
<path d="M94.2819 6.65516L101.951 2.23145L111.381 7.67301L103.712 12.0967L94.2819 6.65516Z" fill="#F8F6E1"/>
<g style="mix-blend-mode:multiply">
<path d="M105.414 132.633V206.917L67.7719 217.956H59.5352L64.3285 122.044L65.0132 122.67V130.637L70.8826 130.206L72.0761 131.244L74.0325 132.946V141.716L77.9455 141.089C77.9455 141.089 79.4128 123.708 79.7258 120.987C80.0389 118.266 83.4431 118.52 83.4431 118.52C84.5071 119.999 85.1801 121.723 85.3996 123.531V138.975L89.6255 142.538V146.648L93.108 146.218V125.274L98.9774 124.06L100.797 127.231V133.612L105.414 132.633Z" fill="#C7D6ED"/>
</g>
<g style="mix-blend-mode:multiply">
<path d="M127.444 127.563V194.193L105.414 206.916V129.658L109.503 126.996V117.228L118.033 112.805V126.115L122.357 124.001L127.444 127.563Z" fill="#C7D6ED"/>
</g>
<g style="mix-blend-mode:multiply">
<path d="M35.5685 209.813H31.2251L28.0557 211.653L31.2251 213.493H35.5685L38.7379 211.653L35.5685 209.813Z" fill="#897998"/>
</g>
<path d="M35.5685 212.769L36.8597 212.006V207.367L35.5685 208.111V212.769Z" fill="#7C412F"/>
<path d="M35.5685 212.769L34.2772 212.006V207.367L35.5685 208.111V212.769Z" fill="#5C3023"/>
<path d="M35.5685 211.301L38.7379 209.461L38.3662 198.734L35.5685 200.359V211.301Z" fill="#94983A"/>
<path d="M35.5684 211.301L32.3794 209.461L32.7707 198.734L35.5684 200.359V211.301Z" fill="#868533"/>
<path d="M35.5685 200.359L32.7708 198.734L35.5685 197.129L38.3662 198.734L35.5685 200.359Z" fill="#A7AA5C"/>
<g style="mix-blend-mode:color-dodge">
<path d="M127.444 184.132V188.713L105.395 201.455V196.875L127.444 184.132Z" fill="#141414"/>
</g>
<g style="mix-blend-mode:color-dodge">
<path d="M127.444 174.013V178.593L105.395 191.336V186.755L127.444 174.013Z" fill="#141414"/>
</g>
<g style="mix-blend-mode:color-dodge">
<path d="M127.444 163.893V168.473L105.395 181.216V176.636L127.444 163.893Z" fill="#141414"/>
</g>
<g style="mix-blend-mode:color-dodge">
<path d="M127.444 153.773V158.353L105.395 171.096V166.516L127.444 153.773Z" fill="#141414"/>
</g>
<g style="mix-blend-mode:color-dodge">
<path d="M127.444 143.653V148.234L105.395 160.976V156.396L127.444 143.653Z" fill="#141414"/>
</g>
<g style="mix-blend-mode:color-dodge">
<path d="M127.444 133.534V138.114L105.395 150.857V146.276L127.444 133.534Z" fill="#141414"/>
</g>
<g style="mix-blend-mode:color-dodge">
<path d="M127.444 123.414V127.994L105.395 140.737V136.157L127.444 123.414Z" fill="#141414"/>
</g>
<g style="mix-blend-mode:color-dodge">
<path d="M127.444 113.294V117.874L105.395 130.617V126.037L127.444 113.294Z" fill="#141414"/>
</g>
<g style="mix-blend-mode:color-dodge">
<path d="M127.444 103.174V107.755L105.395 120.497V115.917L127.444 103.174Z" fill="#141414"/>
</g>
<g style="mix-blend-mode:color-dodge">
<path d="M127.444 93.0547V97.635L105.395 110.378V105.797L127.444 93.0547Z" fill="#141414"/>
</g>
<g style="mix-blend-mode:color-dodge">
<path d="M127.444 82.9351V87.5154L105.395 100.258V95.6777L127.444 82.9351Z" fill="#141414"/>
</g>
<g style="mix-blend-mode:color-dodge">
<path d="M127.444 72.8154V77.3957L105.395 90.1384V85.5581L127.444 72.8154Z" fill="#141414"/>
</g>
<g style="mix-blend-mode:color-dodge">
<path d="M127.444 62.6953V67.2756L105.395 80.0183V75.438L127.444 62.6953Z" fill="#141414"/>
</g>
<g style="mix-blend-mode:color-dodge">
<path d="M127.444 52.5952V57.156L105.395 69.8986V65.3183L127.444 52.5952Z" fill="#141414"/>
</g>
<g style="mix-blend-mode:color-dodge">
<path d="M127.444 42.4756V47.0363L105.395 59.779V55.1987L127.444 42.4756Z" fill="#141414"/>
</g>
<g style="mix-blend-mode:color-dodge">
<path d="M127.444 32.356V36.9167L105.395 49.6594V45.079L127.444 32.356Z" fill="#141414"/>
</g>
<g style="mix-blend-mode:color-dodge">
<path d="M127.444 22.2358V26.7966L105.395 39.5392V34.9589L127.444 22.2358Z" fill="#141414"/>
</g>
<g style="mix-blend-mode:color-dodge">
<path d="M105.395 196.875V201.455L68.0458 212.417L68.261 207.797L105.395 196.875Z" fill="#141414"/>
</g>
<g style="mix-blend-mode:color-dodge">
<path d="M105.395 186.755V191.336L68.5349 202.141L68.7697 197.521L105.395 186.755Z" fill="#141414"/>
</g>
<g style="mix-blend-mode:color-dodge">
<path d="M105.395 176.636V181.216L69.0436 191.884L69.2784 187.245L105.395 176.636Z" fill="#141414"/>
</g>
<g style="mix-blend-mode:color-dodge">
<path d="M105.395 166.516V171.096L69.5522 181.607L69.7675 176.988L105.395 166.516Z" fill="#141414"/>
</g>
<g style="mix-blend-mode:color-dodge">
<path d="M105.395 156.396V160.976L70.0414 171.351L70.2762 166.711L105.395 156.396Z" fill="#141414"/>
</g>
<g style="mix-blend-mode:color-dodge">
<path d="M105.395 146.276V150.857L70.55 161.074L70.7848 156.455L105.395 146.276Z" fill="#141414"/>
</g>
<g style="mix-blend-mode:color-dodge">
<path d="M105.395 136.157V140.737L71.0587 150.818L71.2739 146.179L105.395 136.157Z" fill="#141414"/>
</g>
<g style="mix-blend-mode:color-dodge">
<path d="M105.395 126.037V130.617L71.5479 140.541L71.7826 135.921L105.395 126.037Z" fill="#141414"/>
</g>
<g style="mix-blend-mode:color-dodge">
<path d="M105.395 115.917V120.497L72.0565 130.284L72.2913 125.645L105.395 115.917Z" fill="#141414"/>
</g>
<g style="mix-blend-mode:color-dodge">
<path d="M105.395 105.797V110.378L72.5652 120.008L72.7804 115.389L105.395 105.797Z" fill="#141414"/>
</g>
<g style="mix-blend-mode:color-dodge">
<path d="M105.395 95.6777V100.258L73.0543 109.751L73.2891 105.112L105.395 95.6777Z" fill="#141414"/>
</g>
<g style="mix-blend-mode:color-dodge">
<path d="M105.395 85.5576V90.1379L73.563 99.4747L73.7978 94.8553V94.8357L105.395 85.5576Z" fill="#141414"/>
</g>
<g style="mix-blend-mode:color-dodge">
<path d="M105.395 75.4575V80.0183L74.0717 89.218L74.2869 84.579L105.395 75.4575Z" fill="#141414"/>
</g>
<g style="mix-blend-mode:color-dodge">
<path d="M105.395 65.3379V69.8986L74.5608 78.9418L74.7956 74.3223L105.395 65.3379Z" fill="#141414"/>
</g>
<g style="mix-blend-mode:color-dodge">
<path d="M105.395 55.2183V59.779L75.0695 68.6852L75.2847 64.0461L105.395 55.2183Z" fill="#141414"/>
</g>
<g style="mix-blend-mode:color-dodge">
<path d="M105.395 45.0986V49.6594L75.5781 58.4089L75.5977 57.8217L81.291 52.1648L105.395 45.0986Z" fill="#141414"/>
</g>
<g style="mix-blend-mode:color-dodge">
<path d="M105.395 34.9785V39.5393L89.2538 44.2762L95.7884 37.7972L105.395 34.9785Z" fill="#141414"/>
</g>
</g>
<defs>
<clipPath id="clip0_212_11989">
<rect width="142" height="238" fill="white"/>
</clipPath>
</defs>
</svg>
