<svg width="156" height="221" viewBox="0 0 156 221" fill="none" xmlns="http://www.w3.org/2000/svg">
<g clip-path="url(#clip0_209_456)">
<g style="mix-blend-mode:multiply">
<path d="M139.372 221H125.241L117.897 218.253L37.473 218.398H18.8819L0 208.011L67.8682 169.031C67.8682 169.031 146.874 204.721 139.372 221Z" fill="#897998"/>
</g>
<path d="M37.473 218.397L146.886 218.205C149.225 218.205 151.128 217.108 151.14 215.795L151.225 199.624C151.225 198.287 149.334 190.828 147.007 190.828L37.5699 193.6C35.243 193.6 33.3282 194.696 33.3282 196.009L33.2312 215.951C33.2433 217.313 35.1461 218.409 37.473 218.397Z" fill="#C9BCA1"/>
<path d="M151.14 215.771L151.479 152.957C151.479 151.619 149.589 150.547 147.262 150.547H119.097C116.77 150.547 114.855 151.643 114.855 152.957L114.516 215.771C114.516 217.108 116.406 218.181 118.733 218.181H146.886C149.225 218.205 151.128 217.108 151.14 215.771Z" fill="#C9BCA1"/>
<path d="M155.964 186.792V212.059L150.886 217.253L147.383 219.265L130.38 218.241V199.853L155.964 186.792Z" fill="#E1D4CE"/>
<path d="M151.492 134.569L151.237 181.201L151.14 197.371C151.14 198.708 149.237 199.781 146.91 199.781L37.4729 200.022C35.1339 200.022 33.2554 198.949 33.2554 197.612V194.359L33.3281 181.417C33.3281 180.08 35.2551 179.008 37.5699 179.008L88.2529 159.246L113.994 135.437L114.843 134.653C114.843 133.304 116.77 132.243 119.084 132.243H147.25C149.601 132.135 151.492 133.207 151.492 134.569Z" fill="#F8F6E1"/>
<path d="M146.886 199.07C148.898 199.07 150.401 198.166 150.401 197.371L150.74 134.557C150.733 134.426 150.699 134.297 150.641 134.179C150.583 134.061 150.501 133.956 150.401 133.87C149.518 133.165 148.405 132.809 147.274 132.87H119.097C117.097 132.87 115.594 133.774 115.594 134.581L89.0043 159.885L37.5699 179.719C35.5702 179.719 34.0674 180.622 34.0553 181.418L33.9341 197.612C33.9549 197.876 34.0763 198.121 34.2734 198.299C35.1598 198.997 36.2706 199.352 37.4002 199.299L146.886 199.07Z" fill="#BDA195"/>
<g style="mix-blend-mode:multiply">
<path d="M117.897 199.853C117.897 199.853 109.244 196.564 111.946 194.359C114.649 192.153 131.337 184.394 131.337 184.394L130.428 199.853H117.897Z" fill="#C5BDCD"/>
</g>
<g style="mix-blend-mode:multiply">
<path d="M129.798 132.629L76.6911 194.359H33.2676L33.3403 181.417C33.3403 180.08 35.2673 179.007 37.5821 179.007L88.2651 159.246L114.007 135.436L129.798 132.629Z" fill="#C5BDCD"/>
</g>
<path d="M147.007 201.095L153.322 197.48C157.297 195.202 156.788 191.178 152.207 188.551L147.359 185.756C142.778 183.117 135.773 182.828 131.81 185.117L125.483 188.732C121.52 191.021 122.017 195.034 126.611 197.66L131.458 200.456C136.039 203.083 143.008 203.372 147.007 201.095Z" fill="#E1D4CE"/>
<path d="M122.781 192.214V184.96L136.839 186.791L122.781 192.214Z" fill="#E1D4CE"/>
<path d="M147.007 193.913L153.322 190.298C157.297 188.009 156.788 183.996 152.207 181.369L147.359 178.574C142.778 175.935 135.773 175.646 131.81 177.923L125.483 181.538C121.52 183.815 122.017 187.84 126.611 190.467L131.458 193.262C136.039 195.901 143.008 196.19 147.007 193.913Z" fill="#F8F6E1"/>
<path d="M71.8918 173.814L76.7396 45.1617L142.923 7.14551V156.355C142.923 156.355 140.16 170.26 120.539 181.526C100.918 192.792 76.6911 194.371 76.6911 194.371L64.2324 187.225C64.2324 187.225 65.4444 181.177 71.8918 173.814Z" fill="#4C7583"/>
<path d="M64.2445 38.0161V187.225L76.6911 194.37V45.1615L64.2445 38.0161Z" fill="#2B3951"/>
<path d="M64.2445 43.4268V48.8249L76.6911 55.9703V50.5721L64.2445 43.4268Z" fill="#003A40"/>
<path d="M142.923 12.5435V17.9416C142.923 17.9416 140.16 31.8588 120.539 43.1251C100.918 54.3914 76.6912 55.9699 76.6912 55.9699V50.6078C76.6912 50.6078 100.93 49.0294 120.539 37.7631C140.148 26.4968 142.923 12.5435 142.923 12.5435Z" fill="#385C7D"/>
<path d="M64.2445 52.1021V57.5123L76.6911 64.6456V59.2474L64.2445 52.1021Z" fill="#003A40"/>
<path d="M142.923 21.2314V26.6296C142.923 26.6296 140.16 40.5468 120.539 51.8131C100.918 63.0794 76.6912 64.6458 76.6912 64.6458V59.2476C76.6912 59.2476 100.93 57.6692 120.539 46.4029C140.148 35.1366 142.923 21.2314 142.923 21.2314Z" fill="#385C7D"/>
<path d="M64.2445 60.79V66.1882L76.6911 73.3336V67.9354L64.2445 60.79Z" fill="#003A40"/>
<path d="M142.923 29.9072V35.3175C142.923 35.3175 140.16 49.2226 120.539 60.4889C100.918 71.7552 76.6912 73.3337 76.6912 73.3337V67.9355C76.6912 67.9355 100.93 66.3449 120.539 55.0907C140.148 43.8365 142.923 29.9072 142.923 29.9072Z" fill="#385C7D"/>
<path d="M64.2445 69.4775V74.8757L76.6911 82.0211V76.6229L64.2445 69.4775Z" fill="#003A40"/>
<path d="M142.923 38.5586V43.9568C142.923 43.9568 140.16 57.874 120.539 69.1402C100.918 80.4065 76.6912 82.0212 76.6912 82.0212V76.623C76.6912 76.623 100.93 75.0324 120.539 63.7782C140.148 52.524 142.923 38.5586 142.923 38.5586Z" fill="#385C7D"/>
<path d="M64.2445 78.1533V83.5635L76.6911 90.7089V85.2987L64.2445 78.1533Z" fill="#003A40"/>
<path d="M142.923 47.2822V52.6804C142.923 52.6804 140.16 66.5976 120.539 77.8518C100.918 89.1061 76.6912 90.7086 76.6912 90.7086V85.2984C76.6912 85.2984 100.93 83.7199 120.539 72.4536C140.148 61.1874 142.923 47.2822 142.923 47.2822Z" fill="#385C7D"/>
<path d="M64.2445 86.8408V92.251L76.6911 99.3844V93.9862L64.2445 86.8408Z" fill="#003A40"/>
<path d="M142.923 55.9702V61.3684C142.923 61.3684 140.16 75.2856 120.539 86.5398C100.918 97.7941 76.6912 99.3846 76.6912 99.3846V93.9864C76.6912 93.9864 100.93 92.4079 120.539 81.1416C140.148 69.8753 142.923 55.9702 142.923 55.9702Z" fill="#385C7D"/>
<path d="M64.2445 95.5288V100.927L76.6911 108.072V102.674L64.2445 95.5288Z" fill="#003A40"/>
<path d="M142.923 64.6455V70.0557C142.923 70.0557 140.16 83.9609 120.539 95.191C100.918 106.421 76.6912 108.072 76.6912 108.072V102.674C76.6912 102.674 100.93 101.083 120.539 89.829C140.148 78.5747 142.923 64.6455 142.923 64.6455Z" fill="#385C7D"/>
<path d="M64.2445 104.216V109.614L76.6911 116.76V111.362L64.2445 104.216Z" fill="#003A40"/>
<path d="M142.923 73.3335V78.7317C142.923 78.7317 140.16 92.6489 120.539 103.915C100.918 115.181 76.6912 116.76 76.6912 116.76V111.362C76.6912 111.362 100.93 109.771 120.539 98.5049C140.148 87.2386 142.923 73.3335 142.923 73.3335Z" fill="#385C7D"/>
<path d="M64.2445 112.892V118.302L76.6911 125.436V120.037L64.2445 112.892Z" fill="#003A40"/>
<path d="M142.923 82.021V87.4192C142.923 87.4192 140.16 101.336 120.539 112.591C100.918 123.845 76.6912 125.435 76.6912 125.435V120.037C76.6912 120.037 100.93 118.459 120.539 107.192C140.148 95.9261 142.923 82.021 142.923 82.021Z" fill="#385C7D"/>
<path d="M64.2445 121.58V126.978L76.6911 134.123V128.725L64.2445 121.58Z" fill="#003A40"/>
<path d="M142.923 90.709V96.1072C142.923 96.1072 140.16 110.012 120.539 121.279C100.918 132.545 76.6912 134.123 76.6912 134.123V128.725C76.6912 128.725 100.93 127.135 120.539 115.88C140.148 104.626 142.923 90.709 142.923 90.709Z" fill="#385C7D"/>
<path d="M64.2445 130.268V135.666L76.6911 142.811V137.413L64.2445 130.268Z" fill="#003A40"/>
<path d="M142.923 99.3843V104.831C142.923 104.831 140.16 118.748 120.539 130.014C100.918 141.28 76.6912 142.859 76.6912 142.859V137.364C76.6912 137.364 100.93 135.774 120.539 124.52C140.148 113.265 142.923 99.3843 142.923 99.3843Z" fill="#385C7D"/>
<path d="M64.2445 138.955V144.353L76.6911 151.499V146.088L64.2445 138.955Z" fill="#003A40"/>
<path d="M142.923 108.072V113.47C142.923 113.47 140.16 127.388 120.539 138.642C100.918 149.896 76.6912 151.499 76.6912 151.499V146.088C76.6912 146.088 100.93 144.51 120.539 133.244C140.148 121.977 142.923 108.072 142.923 108.072Z" fill="#385C7D"/>
<path d="M64.2445 147.631V153.029L76.6911 160.174V154.776L64.2445 147.631Z" fill="#003A40"/>
<path d="M142.923 116.76V122.158C142.923 122.158 140.16 136.075 120.539 147.329C100.918 158.584 76.6912 160.174 76.6912 160.174V154.776C76.6912 154.776 100.93 153.197 120.539 141.931C140.148 130.665 142.923 116.76 142.923 116.76Z" fill="#385C7D"/>
<path d="M64.2445 156.318V161.717L76.6911 168.862V163.464L64.2445 156.318Z" fill="#003A40"/>
<path d="M142.923 125.436V130.846C142.923 130.846 140.16 144.751 120.539 156.017C100.918 167.283 76.6912 168.862 76.6912 168.862V163.464C76.6912 163.464 100.93 161.873 120.539 150.619C140.148 139.365 142.923 125.436 142.923 125.436Z" fill="#385C7D"/>
<path d="M64.2445 165.006V170.404L76.6911 177.549V172.151L64.2445 165.006Z" fill="#003A40"/>
<path d="M142.923 134.123V139.521C142.923 139.521 140.16 153.438 120.539 164.705C100.918 175.971 76.6912 177.549 76.6912 177.549V172.151C76.6912 172.151 100.93 170.561 120.539 159.294C140.148 148.028 142.923 134.123 142.923 134.123Z" fill="#385C7D"/>
<path d="M64.2445 173.694V179.092L76.6911 186.237V180.827L64.2445 173.694Z" fill="#003A40"/>
<path d="M142.923 142.811V148.209C142.923 148.209 140.16 162.126 120.539 173.381C100.918 184.635 76.6912 186.225 76.6912 186.225V180.827C76.6912 180.827 100.93 179.249 120.539 167.982C140.148 156.716 142.923 142.811 142.923 142.811Z" fill="#385C7D"/>
<g style="mix-blend-mode:color-dodge">
<path d="M122.405 180.405C128.071 177.033 133.067 172.655 137.142 167.488V15.7852L122.357 25.4248L122.405 180.405Z" fill="#141414"/>
</g>
<path d="M146.886 218.205C149.225 218.205 151.128 217.108 151.14 215.795V206.372L152.158 206.962C156.739 209.589 157.248 213.602 153.273 215.891L146.959 219.506C142.984 221.795 136.052 221.506 131.398 218.867L130.331 218.265L146.886 218.205Z" fill="#E1D4CE"/>
<g style="mix-blend-mode:multiply">
<path d="M117.897 199.853V218.253L130.38 218.241V199.853H117.897Z" fill="#C5BDCD"/>
</g>
<path d="M86.6168 12.8448C106.238 1.59053 130.477 0 130.477 0L142.923 7.14536C142.923 7.14536 140.16 21.0625 120.539 32.3168C100.918 43.571 76.6911 45.1615 76.6911 45.1615L64.2324 38.0162C64.2324 38.0162 67.0077 24.099 86.6168 12.8448Z" fill="#BBBBC0"/>
<path d="M119.254 31.5701C135.967 21.9304 140.221 10.2665 141.069 7.30235L130.162 1.07275C124.987 1.55473 104.541 4.02488 87.8652 13.5922C71.189 23.1595 66.9593 34.9439 66.111 37.8719L77.0184 44.0895C82.1327 43.6075 102.578 41.1494 119.254 31.5701Z" fill="#826565"/>
<path d="M130.21 3.18142C125.035 3.67545 104.59 6.13355 87.9137 15.6647C73.6128 23.9186 68.4258 33.739 66.6563 38.2093L66.0625 37.8719C66.9109 34.8957 71.2011 23.1595 87.8773 13.5922C104.553 4.02488 124.999 1.54268 130.174 1.07275L141.081 7.30235C140.96 7.72408 140.766 8.32656 140.487 9.07363L130.21 3.18142Z" fill="#80818A"/>
<g style="mix-blend-mode:multiply">
<path d="M75.6852 36.2451C80.1087 38.7875 93.4157 35.257 105.402 28.3768C117.388 21.4965 123.581 13.9173 119.121 11.3147C114.661 8.71196 101.402 12.3027 89.4042 19.195C77.4061 26.0874 71.2737 33.7388 75.6852 36.2451Z" fill="#C5BDCD"/>
</g>
<path d="M79.6725 26.9309L81.1268 27.0875L86.835 24.533C89.3582 22.5563 92.028 20.7719 94.8216 19.1951C102.881 14.5681 111.498 11.4593 117.679 10.6881L125.968 6.96484V13.9777C125.641 17.5082 119.909 23.1473 110.843 28.3648C98.8453 35.245 85.5382 38.7755 81.1268 36.2331C80.7193 36.0278 80.3735 35.7191 80.1245 35.3382C79.8755 34.9573 79.7321 34.5178 79.7088 34.0642L79.6725 26.9309Z" fill="#80818A"/>
<path d="M106.313 23.9307C118.95 17.6911 127.63 9.50187 125.701 5.63964C123.772 1.77742 111.964 3.70469 99.3266 9.94433C86.6896 16.184 78.0092 24.3731 79.9384 28.2354C81.8676 32.0976 93.6758 30.1703 106.313 23.9307Z" fill="#BEBFC3"/>
<g style="mix-blend-mode:multiply">
<path d="M137.36 89.7451V122.773L131.519 126.11V119.616L124.453 117.206V92.7815C124.453 89.0944 121.278 86.2748 121.278 86.2748C121.278 86.2748 115.618 88.3353 115.134 92.902C114.649 97.4688 112.128 126.11 112.128 126.11L105.777 129.978V115.917L100.469 113.989L90.7737 119.086V106.434L85.2958 104.144L76.4729 109.277V194.25L76.691 194.371C76.691 194.371 100.93 192.78 120.539 181.526C140.148 170.272 142.923 156.355 142.923 156.355V86.1182L137.36 89.7451Z" fill="#C7D6ED"/>
</g>
<path d="M49.9075 204.071H43.6296V216.072H49.9075V204.071Z" fill="#E1D4CE"/>
<path d="M63.7356 204.071H57.4578V216.072H63.7356V204.071Z" fill="#E1D4CE"/>
<path d="M77.5516 204.071H71.2738V216.072H77.5516V204.071Z" fill="#E1D4CE"/>
<path d="M100.3 204.071H85.0898V216.072H100.3V204.071Z" fill="#E1D4CE"/>
<path d="M122.114 204.071H106.905V216.072H122.114V204.071Z" fill="#E1D4CE"/>
<path d="M49.9075 204.071H43.6296V214.59H49.9075V204.071Z" fill="#385C7D"/>
<path d="M63.7356 204.071H57.4578V214.59H63.7356V204.071Z" fill="#385C7D"/>
<path d="M77.5516 204.071H71.2738V214.59H77.5516V204.071Z" fill="#385C7D"/>
<path d="M100.3 204.071H85.0898V214.59H100.3V204.071Z" fill="#385C7D"/>
<path d="M122.114 204.071H106.905V214.59H122.114V204.071Z" fill="#385C7D"/>
<g style="mix-blend-mode:multiply">
<path d="M49.9073 204.071V216.072H48.4166V206.505H43.6416V204.071H49.9073Z" fill="#C5BDCD"/>
</g>
<g style="mix-blend-mode:multiply">
<path d="M63.7356 204.071V216.072H62.2328V206.505H57.4578V204.071H63.7356Z" fill="#C5BDCD"/>
</g>
<g style="mix-blend-mode:multiply">
<path d="M77.5515 204.071V216.072H76.0366V206.505H71.2616V204.071H77.5515Z" fill="#C5BDCD"/>
</g>
<g style="mix-blend-mode:multiply">
<path d="M100.287 204.071V216.072H98.8089V206.505H85.1019V204.071H100.287Z" fill="#C5BDCD"/>
</g>
<g style="mix-blend-mode:multiply">
<path d="M122.114 204.071V216.072H116.782V206.505H106.917V204.071H122.114Z" fill="#C5BDCD"/>
</g>
<path d="M147.383 219.265V197.154L153.346 193.744L153.322 215.867L147.383 219.265Z" fill="#385C7D"/>
<path d="M151.48 194.805L151.467 214.71L153.322 215.867L153.346 193.744L151.48 194.805Z" fill="#C9BCA1"/>
<path d="M151.467 214.71L147.383 217.229V219.265L153.322 215.867L151.467 214.71Z" fill="#E8DCD5"/>
<g style="mix-blend-mode:multiply">
<path d="M153.322 215.867L149.892 215.686V196.998L147.383 198.576V197.154L151.48 194.805L151.467 214.71L153.322 215.867Z" fill="#C5BDCD"/>
</g>
</g>
<defs>
<clipPath id="clip0_209_456">
<rect width="156" height="221" fill="white"/>
</clipPath>
</defs>
</svg>
