<svg width="156" height="261" viewBox="0 0 156 261" fill="none" xmlns="http://www.w3.org/2000/svg">
<g style="mix-blend-mode:multiply">
<path d="M94.3794 260.641H79.3826L42.7505 239.655L7.88617 240.172L0.213379 235.746L31.8306 217.479L94.3794 260.641Z" fill="#897998"/>
</g>
<path d="M94.3791 260.64L151.949 227.4L27.5369 208.663V222.048L94.3791 260.64Z" fill="#214159"/>
<path d="M151.949 214.015V227.4L94.3794 260.641V247.255L151.949 214.015Z" fill="#6186A3"/>
<path d="M94.3669 252.366L109.797 239.222L24.47 208.41V212.006L94.3669 252.366Z" fill="#826565"/>
<path d="M94.3669 248.771L155.016 213.75L85.1187 173.402L24.47 208.41L94.3669 248.771Z" fill="#F8F6E1"/>
<g style="mix-blend-mode:multiply">
<path d="M99.6104 241.447H81.6792L24.47 208.41L45.3837 196.336H106.489L99.6104 241.447Z" fill="#897998"/>
</g>
<path d="M99.6105 241.446L137.289 219.679L62.1365 214.543V219.823L99.6105 241.446Z" fill="#745454"/>
<path d="M99.6106 236.167V241.446L137.289 219.679V214.411L99.6106 236.167Z" fill="#E5DED0"/>
<path d="M99.5984 236.167L137.289 214.411L99.8269 192.788L62.1365 214.544L99.5984 236.167Z" fill="#E5DED0"/>
<path d="M137.313 214.399L99.6106 236.155C99.6417 233.719 99.7983 231.286 100.08 228.867C100.272 227.123 100.525 225.259 100.825 223.166C101.198 220.761 101.631 218.103 102.148 215.277C102.461 213.389 102.834 211.429 103.218 209.384C103.663 206.979 104.169 204.441 104.674 201.844C105.083 199.887 105.483 197.883 105.876 195.831C106.442 193.185 106.995 190.455 107.596 187.665C108.005 185.68 108.438 183.684 108.871 181.651C109.448 178.97 110.073 176.228 110.639 173.462C111.056 171.465 111.493 169.461 111.95 167.448C112.527 164.755 113.152 162 113.681 159.246C114.114 157.25 114.547 155.23 114.98 153.233C115.557 150.527 116.111 147.797 116.712 145.067L117.915 139.054C118.48 136.372 119.033 133.654 119.574 130.924C119.983 128.928 120.368 126.932 120.777 124.911C121.318 122.229 121.835 119.536 122.352 116.854C122.737 114.869 123.11 112.873 123.471 110.841C128.281 84.7554 131.985 59.1274 132.31 38.3579C132.262 66.1988 131.192 88.4235 130.097 107.088C129.989 108.964 129.881 110.792 129.761 112.572C129.604 115.134 129.436 117.623 129.28 120.029C129.159 121.905 129.051 123.733 128.943 125.537C128.762 128.098 128.594 130.564 128.45 132.993C128.341 134.869 128.233 136.697 128.149 138.477C127.993 141.003 127.884 143.468 127.776 145.861C127.692 147.689 127.632 149.469 127.584 151.249C127.52 153.726 127.476 156.132 127.452 158.465C127.452 160.245 127.452 162.073 127.452 163.756C127.452 166.162 127.584 168.459 127.704 170.756C127.812 172.475 127.921 174.183 128.101 175.855C128.293 178.116 128.546 180.353 128.871 182.59C129.087 184.225 129.34 185.837 129.616 187.4C129.965 189.396 130.374 191.381 130.819 193.413C131.156 194.941 131.528 196.456 131.949 198.007C132.471 200.028 133.06 202.072 133.717 204.141C134.15 205.596 134.643 207.063 135.184 208.566C135.834 210.515 136.543 212.439 137.313 214.399Z" fill="#6186A3"/>
<g style="mix-blend-mode:color-dodge">
<path d="M135.196 208.615L100.031 228.867C100.224 227.123 100.476 225.259 100.777 223.166L133.705 204.189C134.162 205.704 134.655 207.111 135.196 208.615Z" fill="#1C1C1C"/>
<path d="M131.961 198.055L102.148 215.325C102.461 213.437 102.834 211.477 103.219 209.432L130.879 193.509C131.168 194.989 131.541 196.504 131.961 198.055Z" fill="#1C1C1C"/>
<path d="M129.616 187.46L104.674 201.892C105.082 199.936 105.483 197.931 105.876 195.879L128.846 182.65C129.087 184.237 129.34 185.849 129.616 187.46Z" fill="#1C1C1C"/>
<path d="M128.101 175.867L107.656 187.677C108.065 185.693 108.498 183.696 108.931 181.664L127.692 170.828C127.813 172.488 127.921 174.195 128.101 175.867Z" fill="#1C1C1C"/>
<path d="M127.452 163.768L110.615 173.462C111.032 171.465 111.469 169.461 111.926 167.448L127.355 158.525C127.403 160.257 127.403 162.025 127.452 163.768Z" fill="#1C1C1C"/>
<path d="M127.692 145.813C127.608 147.641 127.548 149.421 127.5 151.201L113.669 159.199C114.102 157.202 114.535 155.182 114.968 153.186L127.692 145.813Z" fill="#1C1C1C"/>
<path d="M128.402 132.945C128.293 134.821 128.185 136.649 128.101 138.429L116.736 144.995L117.939 138.982L128.402 132.945Z" fill="#1C1C1C"/>
<path d="M129.232 119.98C129.111 121.857 129.003 123.685 128.895 125.489L119.623 130.84C120.031 128.844 120.416 126.847 120.825 124.827L129.232 119.98Z" fill="#1C1C1C"/>
<path d="M130.097 107.088C129.989 108.964 129.881 110.792 129.761 112.572L122.425 116.83C122.809 114.845 123.182 112.849 123.543 110.817L130.097 107.088Z" fill="#1C1C1C"/>
</g>
<path d="M99.6109 54.2932C99.5384 57.7041 99.2128 61.1049 98.6367 64.4675C98.3842 65.9948 98.0956 67.6064 97.7829 69.278C97.4101 71.2984 96.9651 73.4511 96.472 75.688C96.1593 77.1913 95.7985 78.7668 95.4378 80.3783C94.9567 82.4228 94.4396 84.5274 93.9345 86.7042C93.5376 88.2074 93.1528 89.7468 92.7318 91.3223C92.2147 93.3667 91.6735 95.4232 91.1203 97.5519C90.7114 99.0672 90.3025 100.607 89.9177 102.158C89.3885 104.202 88.8233 106.259 88.2701 108.376C87.8371 109.879 87.4282 111.406 86.9953 112.934C86.418 114.978 85.7926 117.035 85.2515 119.127C84.8426 120.63 84.4216 122.158 84.0488 123.685C83.4555 125.73 82.8743 127.786 82.305 129.855C81.8721 131.382 81.4391 132.885 81.0182 134.413C80.477 136.325 79.9118 138.237 79.4067 140.149C78.9497 141.652 78.5167 143.18 78.1078 144.683C77.5306 146.728 76.9052 148.796 76.3881 150.816C75.9671 152.344 75.5342 153.871 75.1253 155.374C68.3304 179.74 62.6901 201.76 62.2451 213.173C62.4616 198.417 66.0935 175.434 69.1001 151.839L69.7495 146.944C70.0021 144.707 70.2907 142.47 70.5433 140.257C70.7357 138.598 70.9041 136.938 71.0845 135.302C71.313 133.174 71.5294 131.069 71.7219 128.989C71.9022 127.293 72.0466 125.609 72.2029 123.95C72.3953 121.633 72.5677 119.34 72.72 117.071C72.8162 115.339 72.9125 113.619 72.9726 111.935C73.1009 109.53 73.181 107.185 73.2131 104.9C73.2131 103.998 73.2131 103.12 73.2131 102.266C73.2131 101.412 73.2131 100.474 73.2131 99.5964C73.2131 97.0829 73.141 94.6656 73.0808 92.3806C73.0207 90.5165 72.9485 88.6885 72.8403 86.9447C72.7321 84.3229 72.5637 81.8215 72.3713 79.4884C72.2149 77.5281 72.0466 75.676 71.8541 73.8961C71.5294 71.2022 71.1686 68.6045 70.88 66.1993C70.6154 64.1789 70.3388 62.2547 70.0622 60.4267C69.6293 57.5884 69.1963 54.9908 68.8596 52.5254C68.5349 50.4929 68.2342 48.5807 68.0057 46.7166C67.4448 43.0021 67.1474 39.2526 67.1158 35.4961L99.6109 54.2932Z" fill="#214159"/>
<g style="mix-blend-mode:color-dodge">
<path d="M76.3155 150.84C75.8946 152.367 75.4616 153.895 75.0527 155.398L69.0396 151.91L69.689 147.016L76.3155 150.84Z" fill="#1C1C1C"/>
<path d="M79.3341 140.173C78.8771 141.676 78.4442 143.204 78.0353 144.707L70.4707 140.329C70.6631 138.67 70.8315 137.01 71.0119 135.375L79.3341 140.173Z" fill="#1C1C1C"/>
<path d="M82.2328 129.938C81.7999 131.465 81.3669 132.969 80.946 134.496L71.6497 129.12C71.8301 127.424 71.9744 125.741 72.1307 124.081L82.2328 129.938Z" fill="#1C1C1C"/>
<path d="M85.2392 119.115C84.8303 120.618 84.4094 122.145 84.0366 123.673L72.7078 117.106C72.804 115.375 72.9002 113.655 72.9603 111.971L85.2392 119.115Z" fill="#1C1C1C"/>
<path d="M88.2582 108.4C87.8252 109.903 87.4164 111.43 86.9834 112.958L73.1411 104.972C73.1411 104.07 73.1411 103.192 73.1411 102.338C73.1411 101.484 73.1411 100.546 73.1411 99.6685L88.2582 108.4Z" fill="#1C1C1C"/>
<path d="M91.156 97.5761C90.7471 99.0915 90.3382 100.631 89.9534 102.182L73.1165 92.4169C73.0564 90.5528 72.9842 88.7248 72.876 86.981L91.156 97.5761Z" fill="#1C1C1C"/>
<path d="M93.9343 86.7276C93.5374 88.2309 93.1526 89.7703 92.7316 91.3458L72.2869 79.5239C72.1306 77.5636 71.9622 75.7115 71.7698 73.9316L93.9343 86.7276Z" fill="#1C1C1C"/>
<path d="M96.4239 75.7117C96.1113 77.215 95.7505 78.7905 95.3897 80.402L70.88 66.1989C70.6155 64.1785 70.3389 62.2543 70.0623 60.4263L96.4239 75.7117Z" fill="#1C1C1C"/>
<path d="M98.6367 64.4672C98.3841 65.9945 98.0955 67.6061 97.7828 69.2777L68.7633 52.5611C68.4386 50.5287 68.1379 48.6165 67.9094 46.7524L98.6367 64.4672Z" fill="#1C1C1C"/>
</g>
<path d="M99.6108 54.3049L132.346 35.3995L67.0796 30.2402V35.5198L99.6108 54.3049Z" fill="#745454"/>
<path d="M99.6108 49.0256L132.346 30.1202L74.596 14.6904L67.0796 30.2405L99.6108 49.0256Z" fill="#826565"/>
<path d="M99.635 29.1458L124.83 14.606L99.7913 0.150391L74.5962 14.6902L99.635 29.1458Z" fill="#F8F6E1"/>
<path d="M99.6346 28.4846L123.687 14.6062L99.7909 0.812012L75.7383 14.6904L99.6346 28.4846Z" fill="#BDA195"/>
<path d="M99.7909 5.9232L119.262 17.1678L123.687 14.6062L99.7909 0.812012L75.7383 14.6904L80.176 17.252L99.7909 5.9232Z" fill="#826565"/>
<mask id="mask0_204_25842" style="mask-type:luminance" maskUnits="userSpaceOnUse" x="62" y="35" width="71" height="202">
<path d="M132.346 35.3994C132.346 97.5153 99.5984 208.001 99.5984 236.167L62.1365 214.519C62.1365 186.727 99.6105 82.7109 99.6105 54.2807L132.346 35.3994Z" fill="white"/>
</mask>
<g mask="url(#mask0_204_25842)">
<path d="M62.1365 154.124L105.094 236.167H62.1365V154.124Z" fill="#214159"/>
<path d="M62.1365 151.418L106.502 236.167H105.094L62.1365 154.124V151.418Z" fill="#214159"/>
<path d="M62.1365 148.712L107.921 236.167H106.502L62.1365 151.418V148.712Z" fill="#214159"/>
<path d="M62.1365 146.018L109.232 235.975L108.871 236.167H107.921L62.1365 148.712V146.018Z" fill="#22425A"/>
<path d="M62.1365 143.312L110.35 235.397L109.232 235.974L62.1365 146.017V143.312Z" fill="#22425A"/>
<path d="M62.1365 140.606L111.456 234.82L110.35 235.397L62.1365 143.312V140.606Z" fill="#22425B"/>
<path d="M62.1365 137.9L112.563 234.231L111.456 234.82L62.1365 140.606V137.9Z" fill="#23435B"/>
<path d="M62.1365 135.194L113.681 233.653L112.563 234.231L62.1365 137.9V135.194Z" fill="#23435C"/>
<path d="M62.1365 132.5L114.788 233.065L113.681 233.654L62.1365 135.194V132.5Z" fill="#24445C"/>
<path d="M62.1365 129.795L115.906 232.488L114.788 233.065L62.1365 132.501V129.795Z" fill="#24455D"/>
<path d="M62.1365 127.088L117.013 231.91L115.906 232.487L62.1365 129.794V127.088Z" fill="#25455E"/>
<path d="M62.1365 124.383L118.119 231.321L117.013 231.91L62.1365 127.089V124.383Z" fill="#26465E"/>
<path d="M62.1365 121.677L119.237 230.743L118.119 231.321L62.1365 124.383V121.677Z" fill="#26475F"/>
<path d="M62.1365 118.971L120.344 230.166L119.237 230.743L62.1365 121.677V118.971Z" fill="#274760"/>
<path d="M62.1365 116.276L121.462 229.576L120.344 230.166L62.1365 118.97V116.276Z" fill="#274860"/>
<path d="M62.1365 113.571L122.569 229L121.462 229.577L62.1365 116.277V113.571Z" fill="#284961"/>
<path d="M62.1365 110.865L123.675 228.41L122.569 228.999L62.1365 113.571V110.865Z" fill="#294962"/>
<path d="M62.1365 108.159L124.794 227.833L123.675 228.41L62.1365 110.865V108.159Z" fill="#294A63"/>
<path d="M62.1365 105.453L125.9 227.256L124.794 227.833L62.1365 108.159V105.453Z" fill="#2A4B64"/>
<path d="M62.1365 102.747L127.006 226.666L125.9 227.256L62.1365 105.453V102.747Z" fill="#2B4C64"/>
<path d="M62.1365 100.053L128.125 226.089L127.006 226.666L62.1365 102.747V100.053Z" fill="#2C4D65"/>
<path d="M62.1365 97.3467L129.231 225.511L128.125 226.088L62.1365 100.053V97.3467Z" fill="#2C4D66"/>
<path d="M62.1365 94.6406L130.35 224.922L129.231 225.511L62.1365 97.3465V94.6406Z" fill="#2D4E67"/>
<path d="M62.1365 91.9351L131.456 224.345L130.35 224.922L62.1365 94.641V91.9351Z" fill="#2E4F68"/>
<path d="M62.1365 89.2295L132.346 223.347V223.876L131.456 224.345L62.1365 91.9354V89.2295Z" fill="#2F5069"/>
<path d="M62.1365 86.5356L132.346 220.641V223.347L62.1365 89.2295V86.5356Z" fill="#30516A"/>
<path d="M62.1365 83.8296L132.346 217.935V220.641L62.1365 86.5355V83.8296Z" fill="#30526B"/>
<path d="M62.1365 81.1235L132.346 215.229V217.935L62.1365 83.8295V81.1235Z" fill="#31526C"/>
<path d="M62.1365 78.4175L132.346 212.535V215.229L62.1365 81.1234V78.4175Z" fill="#32536D"/>
<path d="M62.1365 75.7119L132.346 209.829V212.535L62.1365 78.4178V75.7119Z" fill="#33546E"/>
<path d="M62.1365 73.0059L132.346 207.123V209.829L62.1365 75.7118V73.0059Z" fill="#34556F"/>
<path d="M62.1365 70.312L132.346 204.417V207.123L62.1365 73.0059V70.312Z" fill="#355670"/>
<path d="M62.1365 67.606L132.346 201.711V204.417L62.1365 70.3119V67.606Z" fill="#355771"/>
<path d="M62.1365 67.2932L63.1226 66.7881L132.346 199.005V201.711L62.1365 67.6059V67.2932Z" fill="#365872"/>
<path d="M63.1228 66.7885L64.2413 66.1992L132.346 196.312V199.006L63.1228 66.7885Z" fill="#375973"/>
<path d="M64.2412 66.1988L65.3476 65.6216L132.346 193.606V196.312L64.2412 66.1988Z" fill="#385A74"/>
<path d="M65.3477 65.622L66.4541 65.0327L132.346 190.9V193.606L65.3477 65.622Z" fill="#395B75"/>
<path d="M66.4541 65.0328L67.5725 64.4556L132.346 188.194V190.9L66.4541 65.0328Z" fill="#3A5C76"/>
<path d="M67.5728 64.4552L68.6792 63.8779L132.347 185.488V188.194L67.5728 64.4552Z" fill="#3B5D77"/>
<path d="M68.6787 63.8779L69.7972 63.2886L132.346 182.782V185.488L68.6787 63.8779Z" fill="#3C5E78"/>
<path d="M69.7976 63.2887L70.904 62.7114L132.346 180.088V182.782L69.7976 63.2887Z" fill="#3D5F79"/>
<path d="M70.9038 62.7115L72.0102 62.1343L132.346 177.382V180.088L70.9038 62.7115Z" fill="#3E607A"/>
<path d="M72.0103 62.1347L73.1287 61.5454L132.346 174.677V177.383L72.0103 62.1347Z" fill="#3F617B"/>
<path d="M73.1287 61.5445L74.2351 60.9673L132.346 171.97V174.676L73.1287 61.5445Z" fill="#40627C"/>
<path d="M74.2354 60.9669L75.3538 60.3896L132.347 169.264V171.97L74.2354 60.9669Z" fill="#41637E"/>
<path d="M75.3538 60.3906L76.4602 59.8013L132.346 166.571V169.265L75.3538 60.3906Z" fill="#42647F"/>
<path d="M76.46 59.8014L77.5664 59.2241L132.346 163.865V166.571L76.46 59.8014Z" fill="#436580"/>
<path d="M77.5664 59.2242L78.6849 58.647L132.346 161.159V163.865L77.5664 59.2242Z" fill="#446681"/>
<path d="M78.6848 58.6464L79.7912 58.0571L132.346 158.453V161.159L78.6848 58.6464Z" fill="#456782"/>
<path d="M79.7913 58.0572L80.8977 57.48L132.346 155.747V158.453L79.7913 58.0572Z" fill="#466983"/>
<path d="M80.8977 57.4801L82.0162 56.9028L132.346 153.041V155.747L80.8977 57.4801Z" fill="#476A85"/>
<path d="M82.0164 56.9028L83.1228 56.3135L132.347 150.347V153.041L82.0164 56.9028Z" fill="#486B86"/>
<path d="M83.1226 56.3136L84.229 55.7363L132.346 147.641V150.347L83.1226 56.3136Z" fill="#496C87"/>
<path d="M84.2292 55.7363L85.3477 55.147L132.347 144.935V147.641L84.2292 55.7363Z" fill="#4A6D88"/>
<path d="M85.3477 55.1471L86.4541 54.5698L132.347 142.23V144.936L85.3477 55.1471Z" fill="#4B6E89"/>
<path d="M86.4536 54.5699L87.5721 53.9927L132.346 139.524V142.23L86.4536 54.5699Z" fill="#4C6F8B"/>
<path d="M87.5723 53.9921L88.6787 53.4028L132.346 136.817V139.523L87.5723 53.9921Z" fill="#4D708C"/>
<path d="M88.6787 53.4029L89.7851 52.8257L132.346 134.124V136.817L88.6787 53.4029Z" fill="#4E718D"/>
<path d="M89.7852 52.8253L90.9036 52.248L132.346 131.417V134.123L89.7852 52.8253Z" fill="#4F738E"/>
<path d="M90.9036 52.2485L92.01 51.6592L132.346 128.712V131.418L90.9036 52.2485Z" fill="#50748F"/>
<path d="M92.0103 51.6593L93.1167 51.082L132.347 126.006V128.712L92.0103 51.6593Z" fill="#517591"/>
<path d="M93.1165 51.0821L94.2349 50.5049L132.346 123.3V126.006L93.1165 51.0821Z" fill="#527692"/>
<path d="M94.2351 50.5043L95.3415 49.915L132.347 120.594V123.3L94.2351 50.5043Z" fill="#537793"/>
<path d="M95.3413 49.9152L96.4598 49.3379L132.346 117.9V120.594L95.3413 49.9152Z" fill="#557995"/>
<path d="M96.4597 49.3378L97.5661 48.7485L132.346 115.194V117.9L96.4597 49.3378Z" fill="#567A96"/>
<path d="M97.5662 48.7487L98.6726 48.1714L132.346 112.488V115.194L97.5662 48.7487Z" fill="#577B97"/>
<path d="M98.6724 48.172L99.7908 47.5947L132.346 109.783V112.489L98.6724 48.172Z" fill="#587C98"/>
<path d="M99.7913 47.5942L100.898 47.0049L132.346 107.076V109.782L99.7913 47.5942Z" fill="#597D9A"/>
<path d="M100.897 47.005L102.004 46.4277L132.346 104.383V107.076L100.897 47.005Z" fill="#5A7F9B"/>
<path d="M102.004 46.4278L103.122 45.8506L132.346 101.677V104.383L102.004 46.4278Z" fill="#5B809C"/>
<path d="M103.123 45.8505L104.229 45.2612L132.347 98.9708V101.677L103.123 45.8505Z" fill="#5C819E"/>
<path d="M104.229 45.2613L105.347 44.6841L132.346 96.265V98.9709L104.229 45.2613Z" fill="#5E829F"/>
<path d="M105.347 44.6842L106.454 44.1069L132.346 93.5591V96.2651L105.347 44.6842Z" fill="#5F83A0"/>
<path d="M106.454 44.1069L107.56 43.5176L132.347 90.8532V93.5591L106.454 44.1069Z" fill="#6085A2"/>
<path d="M107.56 43.5177L108.679 42.9404L132.346 88.1594V90.8533L107.56 43.5177Z" fill="#6186A3"/>
<path d="M108.678 42.9399L123.074 35.3994H132.346V88.1589L108.678 42.9399Z" fill="#6186A3"/>
</g>
<path d="M124.83 14.606L132.346 30.1199L99.6106 49.0253L99.6346 29.1458L124.83 14.606Z" fill="#E5DED0"/>
<path d="M99.6106 49.025V54.3046L132.346 35.3992V30.1196L99.6106 49.025Z" fill="#E5DED0"/>
<path d="M99.7909 0.812012V5.9232L80.176 17.252L75.7383 14.6904L99.7909 0.812012Z" fill="#E5DED0"/>
<mask id="mask1_204_25842" style="mask-type:luminance" maskUnits="userSpaceOnUse" x="62" y="35" width="71" height="202">
<path d="M99.6105 54.3056C99.6105 82.7358 62.1365 186.751 62.1365 214.544L99.5984 236.192C99.5984 208.026 132.346 97.5402 132.346 35.4243L99.6105 54.3056ZM98.5281 234.267L63.2549 213.907C63.5315 199.872 72.8158 167.173 81.7875 135.531C90.9636 103.181 100.44 69.7474 100.717 54.9551L131.228 37.3365C130.831 74.2813 119.382 127.534 110.158 170.456C104.217 198.056 99.0452 222.085 98.5281 234.267Z" fill="white"/>
</mask>
<g mask="url(#mask1_204_25842)">
<path d="M63.2549 178.212L117.482 211.91L103.591 234.267H63.2549V178.212Z" fill="#745454"/>
<path d="M63.2549 177.189L117.939 211.176L117.482 211.909L63.2549 178.212V177.189Z" fill="#745454"/>
<path d="M63.2549 176.18L118.396 210.443L117.939 211.176L63.2549 177.19V176.18Z" fill="#755555"/>
<path d="M63.2549 175.157L118.853 209.697L118.396 210.442L63.2549 176.179V175.157Z" fill="#765656"/>
<path d="M63.2549 174.135L119.31 208.963L118.853 209.697L63.2549 175.157V174.135Z" fill="#765757"/>
<path d="M63.2549 173.113L119.779 208.23L119.31 208.964L63.2549 174.136V173.113Z" fill="#775858"/>
<path d="M63.2549 172.091L120.236 207.496L119.779 208.23L63.2549 173.113V172.091Z" fill="#785959"/>
<path d="M63.2549 171.081L120.681 206.763L120.236 207.496L63.2549 172.091V171.081Z" fill="#795A59"/>
<path d="M63.2549 170.059L121.15 206.017L120.681 206.763L63.2549 171.081V170.059Z" fill="#7A5B5A"/>
<path d="M63.2549 169.036L121.607 205.283L121.15 206.017L63.2549 170.058V169.036Z" fill="#7B5C5B"/>
<path d="M63.2549 168.014L122.064 204.55L121.607 205.283L63.2549 169.036V168.014Z" fill="#7B5D5C"/>
<path d="M63.2549 166.991L122.521 203.816L122.064 204.549L63.2549 168.013V166.991Z" fill="#7C5E5D"/>
<path d="M63.2549 165.97L122.978 203.083L122.521 203.817L63.2549 166.992V165.97Z" fill="#7D5F5E"/>
<path d="M63.2549 164.959L123.435 202.337L122.978 203.082L63.2549 165.969V164.959Z" fill="#7E605F"/>
<path d="M63.2549 163.937L123.892 201.603L123.435 202.337L63.2549 164.959V163.937Z" fill="#7F6160"/>
<path d="M63.2549 162.915L124.349 200.87L123.892 201.603L63.2549 163.937V162.915Z" fill="#806261"/>
<path d="M63.2549 161.893L124.806 200.136L124.349 200.87L63.2549 162.915V161.893Z" fill="#806362"/>
<path d="M63.2549 160.87L125.263 199.402L124.806 200.136L63.2549 161.892V160.87Z" fill="#816462"/>
<path d="M63.2549 159.848L125.72 198.657L125.263 199.402L63.2549 160.87V159.848Z" fill="#826563"/>
<path d="M63.2549 158.838L126.177 197.923L125.72 198.657L63.2549 159.848V158.838Z" fill="#836664"/>
<path d="M63.2549 157.815L126.634 197.19L126.177 197.923L63.2549 158.838V157.815Z" fill="#846765"/>
<path d="M63.2549 156.793L127.091 196.456L126.634 197.19L63.2549 157.816V156.793Z" fill="#846866"/>
<path d="M63.2549 155.771L127.548 195.71L127.091 196.456L63.2549 156.793V155.771Z" fill="#856967"/>
<path d="M63.2549 154.749L128.005 194.977L127.548 195.711L63.2549 155.771V154.749Z" fill="#866A68"/>
<path d="M63.2549 153.727L128.462 194.243L128.005 194.977L63.2549 154.749V153.727Z" fill="#876B69"/>
<path d="M63.2549 152.716L128.919 193.509L128.462 194.243L63.2549 153.726V152.716Z" fill="#886C6A"/>
<path d="M63.2549 151.694L129.376 192.776L128.919 193.51L63.2549 152.717V151.694Z" fill="#896D6B"/>
<path d="M63.2549 150.672L129.833 192.03L129.376 192.776L63.2549 151.694V150.672Z" fill="#896E6C"/>
<path d="M63.2549 149.65L130.29 191.297L129.833 192.031L63.2549 150.672V149.65Z" fill="#8A6F6C"/>
<path d="M63.2549 148.627L130.747 190.563L130.29 191.297L63.2549 149.65V148.627Z" fill="#8B706D"/>
<path d="M63.2549 147.605L131.204 189.829L130.747 190.563L63.2549 148.627V147.605Z" fill="#8C716E"/>
<path d="M63.2549 146.595L131.228 188.82V189.794L131.204 189.83L63.2549 147.605V146.595Z" fill="#8D726F"/>
<path d="M63.2549 145.572L131.228 187.797V188.819L63.2549 146.595V145.572Z" fill="#8E7370"/>
<path d="M63.2549 144.55L131.228 186.775V187.797L63.2549 145.573V144.55Z" fill="#8E7471"/>
<path d="M63.2549 143.528L131.228 185.765V186.775L63.2549 144.551V143.528Z" fill="#8F7572"/>
<path d="M63.2549 142.506L131.228 184.743V185.765L63.2549 143.529V142.506Z" fill="#907673"/>
<path d="M63.2549 141.484L131.228 183.72V184.743L63.2549 142.506V141.484Z" fill="#917774"/>
<path d="M63.2549 140.474L131.228 182.699V183.721L63.2549 141.484V140.474Z" fill="#927875"/>
<path d="M63.2549 139.452L131.228 181.676V182.698L63.2549 140.474V139.452Z" fill="#937975"/>
<path d="M63.2549 138.429L131.228 180.665V181.675L63.2549 139.451V138.429Z" fill="#937A76"/>
<path d="M63.2549 137.407L131.228 179.643V180.665L63.2549 138.429V137.407Z" fill="#947B77"/>
<path d="M63.2549 136.385L131.228 178.621V179.643L63.2549 137.407V136.385Z" fill="#957C78"/>
<path d="M63.2549 135.363L131.228 177.599V178.621L63.2549 136.385V135.363Z" fill="#967D79"/>
<path d="M63.2549 134.352L131.228 176.576V177.598L63.2549 135.362V134.352Z" fill="#977E7A"/>
<path d="M63.2549 133.331L131.228 175.555V176.577L63.2549 134.353V133.331Z" fill="#977F7B"/>
<path d="M63.2549 132.308L131.228 174.545V175.555L63.2549 133.33V132.308Z" fill="#98807C"/>
<path d="M63.2549 131.285L131.228 173.522V174.544L63.2549 132.307V131.285Z" fill="#99817D"/>
<path d="M63.2549 130.263L131.228 172.5V173.522L63.2549 131.285V130.263Z" fill="#9A827E"/>
<path d="M63.2549 129.241L131.228 171.477V172.499L63.2549 130.263V129.241Z" fill="#9B837F"/>
<path d="M63.2549 128.231L131.228 170.455V171.478L63.2549 129.241V128.231Z" fill="#9C847F"/>
<path d="M63.2549 127.208L131.228 169.432V170.455L63.2549 128.23V127.208Z" fill="#9C8580"/>
<path d="M63.2549 126.187L131.228 168.423V169.434L63.2549 127.209V126.187Z" fill="#9D8681"/>
<path d="M63.2549 125.165L131.228 167.401V168.423L63.2549 126.187V125.165Z" fill="#9E8782"/>
<path d="M63.2549 124.142L131.228 166.378V167.4L63.2549 125.164V124.142Z" fill="#9F8883"/>
<path d="M63.2549 123.12L131.228 165.356V166.378L63.2549 124.142V123.12Z" fill="#A08984"/>
<path d="M63.2549 122.109L131.228 164.334V165.356L63.2549 123.12V122.109Z" fill="#A18A85"/>
<path d="M63.2549 121.087L131.228 163.312V164.334L63.2549 122.11V121.087Z" fill="#A18B86"/>
<path d="M63.2549 120.064L131.228 162.301V163.311L63.2549 121.087V120.064Z" fill="#A28C87"/>
<path d="M63.2549 119.042L131.228 161.278V162.301L63.2549 120.064V119.042Z" fill="#A38D88"/>
<path d="M63.2549 118.021L131.228 160.257V161.28L63.2549 119.043V118.021Z" fill="#A48E88"/>
<path d="M63.2549 117.01L131.228 159.234V160.256L63.2549 118.02V117.01Z" fill="#A58F89"/>
<path d="M63.2549 115.988L131.228 158.212V159.234L63.2549 117.01V115.988Z" fill="#A5908A"/>
<path d="M63.2549 114.966L131.228 157.19V158.212L63.2549 115.988V114.966Z" fill="#A6918B"/>
<path d="M63.2549 113.944L131.228 156.18V157.19L63.2549 114.966V113.944Z" fill="#A7928C"/>
<path d="M63.2549 112.921L131.228 155.157V156.18L63.2549 113.943V112.921Z" fill="#A8938D"/>
<path d="M63.2549 111.898L131.228 154.135V155.157L63.2549 112.921V111.898Z" fill="#A9948E"/>
<path d="M63.2549 110.889L131.228 153.113V154.135L63.2549 111.899V110.889Z" fill="#AA958F"/>
<path d="M63.2549 109.866L131.228 152.091V153.113L63.2549 110.888V109.866Z" fill="#AA9690"/>
<path d="M63.2549 108.844L131.228 151.081V152.091L63.2549 109.866V108.844Z" fill="#AB9791"/>
<path d="M63.2549 107.822L131.228 150.059V151.081L63.2549 108.845V107.822Z" fill="#AC9892"/>
<path d="M63.2549 107.077L63.3872 106.884L131.228 149.037V150.059L63.2549 107.822V107.077Z" fill="#AD9A92"/>
<path d="M63.3872 106.884L63.8442 106.138L131.228 148.014V149.036L63.3872 106.884Z" fill="#AE9B93"/>
<path d="M63.8442 106.138L64.3012 105.405L131.228 146.992V148.014L63.8442 106.138Z" fill="#AF9C94"/>
<path d="M64.3018 105.405L64.7588 104.671L131.228 145.97V146.992L64.3018 105.405Z" fill="#AF9D95"/>
<path d="M64.7583 104.672L65.2153 103.938L131.228 144.948V145.97L64.7583 104.672Z" fill="#B09E96"/>
<path d="M65.2156 103.938L65.6726 103.204L131.228 143.937V144.947L65.2156 103.938Z" fill="#B19F97"/>
<path d="M65.6721 103.204L66.1291 102.458L131.228 142.915V143.937L65.6721 103.204Z" fill="#B2A098"/>
<path d="M66.1296 102.458L66.5866 101.725L131.228 141.893V142.915L66.1296 102.458Z" fill="#B3A199"/>
<path d="M66.5864 101.725L67.0434 100.991L131.228 140.87V141.893L66.5864 101.725Z" fill="#B4A29A"/>
<path d="M67.0435 100.991L67.5005 100.257L131.228 139.848V140.87L67.0435 100.991Z" fill="#B4A39B"/>
<path d="M67.5002 100.257L67.9572 99.5234L131.228 138.825V139.848L67.5002 100.257Z" fill="#B5A49C"/>
<path d="M67.9575 99.524L68.4145 98.7783L131.228 137.816V138.826L67.9575 99.524Z" fill="#B6A59C"/>
<path d="M68.4143 98.7785L68.8713 98.0449L131.228 136.794V137.816L68.4143 98.7785Z" fill="#B7A69D"/>
<path d="M68.8716 98.0451L69.3286 97.3115L131.228 135.772V136.794L68.8716 98.0451Z" fill="#B8A79E"/>
<path d="M69.3284 97.3112L69.7854 96.5776L131.228 134.749V135.771L69.3284 97.3112Z" fill="#B8A89F"/>
<path d="M69.7856 96.5769L70.2426 95.8433L131.228 133.726V134.748L69.7856 96.5769Z" fill="#B9A9A0"/>
<path d="M70.2422 95.8438L70.6992 95.0981L131.228 132.716V133.727L70.2422 95.8438Z" fill="#BAAAA1"/>
<path d="M70.6995 95.0984L71.1565 94.3647L131.228 131.694V132.717L70.6995 95.0984Z" fill="#BBABA2"/>
<path d="M71.1565 94.3645L71.6135 93.6309L131.228 130.672V131.694L71.1565 94.3645Z" fill="#BCACA3"/>
<path d="M71.6133 93.6311L72.0703 92.8975L131.228 129.65V130.672L71.6133 93.6311Z" fill="#BDADA4"/>
<path d="M72.0706 92.8977L72.5276 92.1641L131.228 128.628V129.65L72.0706 92.8977Z" fill="#BDAEA5"/>
<path d="M72.5271 92.1641L72.9841 91.4185L131.228 127.606V128.628L72.5271 92.1641Z" fill="#BEAFA5"/>
<path d="M72.9846 91.4187L73.4416 90.6851L131.228 126.596V127.606L72.9846 91.4187Z" fill="#BFB0A6"/>
<path d="M73.4414 90.6843L73.8984 89.9507L131.228 125.573V126.595L73.4414 90.6843Z" fill="#C0B1A7"/>
<path d="M73.8984 89.9509L74.3554 89.2173L131.228 124.551V125.573L73.8984 89.9509Z" fill="#C1B2A8"/>
<path d="M74.3552 89.217L74.8122 88.4834L131.228 123.528V124.55L74.3552 89.217Z" fill="#C2B3A9"/>
<path d="M74.8125 88.4839L75.2695 87.7383L131.228 122.506V123.529L74.8125 88.4839Z" fill="#C2B4AA"/>
<path d="M75.2693 87.7385L75.7263 87.0049L131.228 121.484V122.507L75.2693 87.7385Z" fill="#C3B5AB"/>
<path d="M75.7266 87.0046L76.1836 86.271L131.228 120.474V121.484L75.7266 87.0046Z" fill="#C4B6AC"/>
<path d="M76.1831 86.2707L76.6401 85.5371L131.228 119.451V120.474L76.1831 86.2707Z" fill="#C5B7AD"/>
<path d="M76.6406 85.5373L77.0976 84.8037L131.228 118.429V119.452L76.6406 85.5373Z" fill="#C6B8AE"/>
<path d="M77.0972 84.8033L77.5542 84.0576L131.228 117.407V118.429L77.0972 84.8033Z" fill="#C6B9AF"/>
<path d="M77.5544 84.0578L78.0114 83.3242L131.228 116.385V117.407L77.5544 84.0578Z" fill="#C7BAAF"/>
<path d="M78.0112 83.3249L78.4803 82.5913L131.228 115.363V116.385L78.0112 83.3249Z" fill="#C8BBB0"/>
<path d="M78.4807 82.5905L78.9257 81.8569L131.228 114.352V115.362L78.4807 82.5905Z" fill="#C9BCB1"/>
<path d="M78.9255 81.8571L79.3825 81.1235L131.228 113.33V114.352L78.9255 81.8571Z" fill="#CABDB2"/>
<path d="M79.3823 81.1236L79.8513 80.3779L131.228 112.308V113.33L79.3823 81.1236Z" fill="#CBBEB3"/>
<path d="M79.8513 80.3781L80.3083 79.6445L131.228 111.286V112.308L79.8513 80.3781Z" fill="#CBBFB4"/>
<path d="M80.3088 79.6447L80.7658 78.9111L131.228 110.264V111.286L80.3088 79.6447Z" fill="#CCC0B5"/>
<path d="M80.7654 78.9109L81.2224 78.1772L131.228 109.253V110.263L80.7654 78.9109Z" fill="#CDC1B6"/>
<path d="M81.2227 78.1775L81.6797 77.4438L131.228 108.231V109.253L81.2227 78.1775Z" fill="#CEC2B7"/>
<path d="M81.6792 77.4434L82.1362 76.6978L131.228 107.209V108.231L81.6792 77.4434Z" fill="#CFC3B8"/>
<path d="M82.1365 76.6975L82.5935 75.9639L131.228 106.186V107.208L82.1365 76.6975Z" fill="#D0C4B8"/>
<path d="M82.5935 75.9646L83.0505 75.231L131.228 105.164V106.187L82.5935 75.9646Z" fill="#D0C5B9"/>
<path d="M83.0503 75.2307L83.5073 74.4971L131.228 104.142V105.164L83.0503 75.2307Z" fill="#D1C6BA"/>
<path d="M83.5076 74.4976L83.9646 73.752L131.228 103.12V104.142L83.5076 74.4976Z" fill="#D2C7BB"/>
<path d="M83.9644 73.7517L84.4214 73.0181L131.228 102.11V103.12L83.9644 73.7517Z" fill="#D3C8BC"/>
<path d="M84.4214 73.0178L84.8784 72.2842L131.228 101.087V102.109L84.4214 73.0178Z" fill="#D4C9BD"/>
<path d="M84.8784 72.2849L85.3354 71.5513L131.228 100.066V101.088L84.8784 72.2849Z" fill="#D5CABE"/>
<path d="M85.3354 71.5505L85.7925 70.8169L131.228 99.0427V100.065L85.3354 71.5505Z" fill="#D5CBBF"/>
<path d="M85.7925 70.8166L86.2495 70.083L131.228 98.0201V99.0424L85.7925 70.8166Z" fill="#D6CCC0"/>
<path d="M86.2495 70.0835L86.7065 69.3379L131.228 96.9984V98.0207L86.2495 70.0835Z" fill="#D7CDC1"/>
<path d="M86.7063 69.3376L87.1633 68.604L131.228 95.9879V96.9981L86.7063 69.3376Z" fill="#D8CEC2"/>
<path d="M87.1638 68.6047L87.6208 67.8711L131.228 94.9664V95.9886L87.1638 68.6047Z" fill="#D9CFC2"/>
<path d="M87.6204 67.8708L88.0774 67.1372L131.228 93.9439V94.9661L87.6204 67.8708Z" fill="#D9D0C3"/>
<path d="M88.0776 67.1372L88.5346 66.3916L131.228 92.9217V93.9439L88.0776 67.1372Z" fill="#DAD1C4"/>
<path d="M88.5342 66.3918L88.9912 65.6582L131.228 91.8996V92.9219L88.5342 66.3918Z" fill="#DBD2C5"/>
<path d="M88.9917 65.6574L89.4487 64.9238L131.228 90.8886V91.8989L88.9917 65.6574Z" fill="#DCD3C6"/>
<path d="M89.4485 64.924L89.9055 64.1904L131.228 89.8666V90.8889L89.4485 64.924Z" fill="#DDD4C7"/>
<path d="M89.9055 64.1906L90.3625 63.457L131.228 88.8446V89.8668L89.9055 64.1906Z" fill="#DED5C8"/>
<path d="M90.3623 63.4571L90.8193 62.7114L131.228 87.8224V88.8446L90.3623 63.4571Z" fill="#DED6C9"/>
<path d="M90.8196 62.7116L91.2766 61.978L131.228 86.8003V87.8226L90.8196 62.7116Z" fill="#DFD7CA"/>
<path d="M91.2764 61.9782L91.7334 61.2446L131.228 85.7783V86.8005L91.2764 61.9782Z" fill="#E0D8CB"/>
<path d="M91.7336 61.2443L92.1906 60.5107L131.228 84.7678V85.778L91.7336 61.2443Z" fill="#E1D9CB"/>
<path d="M92.1902 60.5109L92.6472 59.7773L131.228 83.7458V84.768L92.1902 60.5109Z" fill="#E2DACC"/>
<path d="M92.6477 59.7771L93.1047 59.0435L131.228 82.7233V83.7455L92.6477 59.7771Z" fill="#E3DBCD"/>
<path d="M93.1042 59.0435L93.5613 58.2979L131.228 81.7011V82.7233L93.1042 59.0435Z" fill="#E3DCCE"/>
<path d="M93.5613 58.2976L94.0183 57.564L131.228 80.6785V81.7008L93.5613 58.2976Z" fill="#E4DDCF"/>
<path d="M94.0186 57.5637L94.4756 56.8301L131.228 79.656V80.6783L94.0186 57.5637Z" fill="#E5DED0"/>
<path d="M94.4753 56.8304L106.598 37.3237H131.228V79.6564L94.4753 56.8304Z" fill="#E5DED0"/>
<path d="M62.1365 177.515L119.105 212.92L104.662 236.167H62.1365V177.515Z" fill="#745454"/>
<path d="M62.1365 176.505L119.562 212.175L119.105 212.921L62.1365 177.515V176.505Z" fill="#745454"/>
<path d="M62.1365 175.482L120.019 211.441L119.562 212.174L62.1365 176.504V175.482Z" fill="#755555"/>
<path d="M62.1365 174.459L120.476 210.707L120.019 211.44L62.1365 175.482V174.459Z" fill="#765656"/>
<path d="M62.1365 173.438L120.933 209.973L120.476 210.707L62.1365 174.46V173.438Z" fill="#765757"/>
<path d="M62.1365 172.416L121.39 209.24L120.933 209.974L62.1365 173.438V172.416Z" fill="#775858"/>
<path d="M62.1365 171.405L121.847 208.494L121.39 209.24L62.1365 172.415V171.405Z" fill="#785959"/>
<path d="M62.1365 170.383L122.304 207.761L121.847 208.494L62.1365 171.405V170.383Z" fill="#795A59"/>
<path d="M62.1365 169.361L122.761 207.028L122.304 207.761L62.1365 170.384V169.361Z" fill="#7A5B5A"/>
<path d="M62.1365 168.338L123.218 206.293L122.761 207.027L62.1365 169.361V168.338Z" fill="#7B5C5B"/>
<path d="M62.1365 167.316L123.675 205.56L123.218 206.293L62.1365 168.338V167.316Z" fill="#7B5D5C"/>
<path d="M62.1365 166.294L124.132 204.814L123.675 205.56L62.1365 167.316V166.294Z" fill="#7C5E5D"/>
<path d="M62.1365 165.284L124.589 204.081L124.132 204.814L62.1365 166.294V165.284Z" fill="#7D5F5E"/>
<path d="M62.1365 164.262L125.058 203.347L124.589 204.081L62.1365 165.284V164.262Z" fill="#7E605F"/>
<path d="M62.1365 163.239L125.515 202.613L125.058 203.347L62.1365 164.261V163.239Z" fill="#7F6160"/>
<path d="M62.1365 162.218L125.972 201.881L125.515 202.614L62.1365 163.24V162.218Z" fill="#806261"/>
<path d="M62.1365 161.195L126.429 201.146L125.972 201.88L62.1365 162.217V161.195Z" fill="#806362"/>
<path d="M62.1365 160.172L126.886 200.4L126.429 201.146L62.1365 161.195V160.172Z" fill="#816462"/>
<path d="M62.1365 159.163L127.343 199.667L126.886 200.401L62.1365 160.173V159.163Z" fill="#826563"/>
<path d="M62.1365 158.14L127.8 198.933L127.343 199.667L62.1365 159.162V158.14Z" fill="#836664"/>
<path d="M62.1365 157.118L128.257 198.2L127.8 198.933L62.1365 158.14V157.118Z" fill="#846765"/>
<path d="M62.1365 156.095L128.714 197.466L128.257 198.199L62.1365 157.117V156.095Z" fill="#846866"/>
<path d="M62.1365 155.074L129.171 196.721L128.714 197.466L62.1365 156.096V155.074Z" fill="#856967"/>
<path d="M62.1365 154.063L129.628 195.987L129.171 196.72L62.1365 155.073V154.063Z" fill="#866A68"/>
<path d="M62.1365 153.042L130.085 195.254L129.628 195.987L62.1365 154.064V153.042Z" fill="#876B69"/>
<path d="M62.1365 152.019L130.542 194.52L130.085 195.254L62.1365 153.041V152.019Z" fill="#886C6A"/>
<path d="M62.1365 150.997L130.999 193.786L130.542 194.52L62.1365 152.019V150.997Z" fill="#896D6B"/>
<path d="M62.1365 149.974L131.456 193.04L130.999 193.786L62.1365 150.996V149.974Z" fill="#896E6C"/>
<path d="M62.1365 148.952L131.913 192.307L131.456 193.04L62.1365 149.974V148.952Z" fill="#8A6F6C"/>
<path d="M62.1365 147.942L132.346 191.561V191.609L131.913 192.307L62.1365 148.952V147.942Z" fill="#8B706D"/>
<path d="M62.1365 146.919L132.346 190.539V191.561L62.1365 147.942V146.919Z" fill="#8C716E"/>
<path d="M62.1365 145.898L132.346 189.517V190.54L62.1365 146.92V145.898Z" fill="#8D726F"/>
<path d="M62.1365 144.875L132.346 188.494V189.517L62.1365 145.897V144.875Z" fill="#8E7370"/>
<path d="M62.1365 143.853L132.346 187.472V188.495L62.1365 144.875V143.853Z" fill="#8E7471"/>
<path d="M62.1365 142.831L132.346 186.462V187.472L62.1365 143.853V142.831Z" fill="#8F7572"/>
<path d="M62.1365 141.821L132.346 185.44V186.462L62.1365 142.831V141.821Z" fill="#907673"/>
<path d="M62.1365 140.798L132.346 184.418V185.44L62.1365 141.821V140.798Z" fill="#917774"/>
<path d="M62.1365 139.776L132.346 183.395V184.418L62.1365 140.798V139.776Z" fill="#927875"/>
<path d="M62.1365 138.754L132.346 182.374V183.396L62.1365 139.777V138.754Z" fill="#937975"/>
<path d="M62.1365 137.731L132.346 181.351V182.373L62.1365 138.754V137.731Z" fill="#937A76"/>
<path d="M62.1365 136.709L132.346 180.341V181.351L62.1365 137.732V136.709Z" fill="#947B77"/>
<path d="M62.1365 135.687L132.346 179.318V180.341L62.1365 136.709V135.687Z" fill="#957C78"/>
<path d="M62.1365 134.677L132.346 178.296V179.318L62.1365 135.687V134.677Z" fill="#967D79"/>
<path d="M62.1365 133.655L132.346 177.274V178.296L62.1365 134.677V133.655Z" fill="#977E7A"/>
<path d="M62.1365 132.632L132.346 176.252V177.274L62.1365 133.655V132.632Z" fill="#977F7B"/>
<path d="M62.1365 131.611L132.346 175.23V176.253L62.1365 132.633V131.611Z" fill="#98807C"/>
<path d="M62.1365 130.588L132.346 174.219V175.23L62.1365 131.61V130.588Z" fill="#99817D"/>
<path d="M62.1365 129.578L132.346 173.198V174.22L62.1365 130.588V129.578Z" fill="#9A827E"/>
<path d="M62.1365 128.556L132.346 172.175V173.197L62.1365 129.578V128.556Z" fill="#9B837F"/>
<path d="M62.1365 127.533L132.346 171.153V172.175L62.1365 128.555V127.533Z" fill="#9C847F"/>
<path d="M62.1365 126.511L132.346 170.13V171.152L62.1365 127.533V126.511Z" fill="#9C8580"/>
<path d="M62.1365 125.489L132.346 169.108V170.13L62.1365 126.511V125.489Z" fill="#9D8681"/>
<path d="M62.1365 124.467L132.346 168.099V169.109L62.1365 125.49V124.467Z" fill="#9E8782"/>
<path d="M62.1365 123.457L132.346 167.076V168.098L62.1365 124.467V123.457Z" fill="#9F8883"/>
<path d="M62.1365 122.435L132.346 166.054V167.076L62.1365 123.457V122.435Z" fill="#A08984"/>
<path d="M62.1365 121.412L132.346 165.032V166.054L62.1365 122.434V121.412Z" fill="#A18A85"/>
<path d="M62.1365 120.39L132.346 164.009V165.031L62.1365 121.412V120.39Z" fill="#A18B86"/>
<path d="M62.1365 119.367L132.346 162.999V164.009L62.1365 120.389V119.367Z" fill="#A28C87"/>
<path d="M62.1365 118.345L132.346 161.977V162.999L62.1365 119.367V118.345Z" fill="#A38D88"/>
<path d="M62.1365 117.335L132.346 160.954V161.977L62.1365 118.345V117.335Z" fill="#A48E88"/>
<path d="M62.1365 116.312L132.346 159.932V160.954L62.1365 117.335V116.312Z" fill="#A58F89"/>
<path d="M62.1365 115.291L132.346 158.91V159.933L62.1365 116.313V115.291Z" fill="#A5908A"/>
<path d="M62.1365 114.269L132.346 157.888V158.91L62.1365 115.291V114.269Z" fill="#A6918B"/>
<path d="M62.1365 113.246L132.346 156.878V157.888L62.1365 114.268V113.246Z" fill="#A7928C"/>
<path d="M62.1365 112.236L132.346 155.856V156.878L62.1365 113.247V112.236Z" fill="#A8938D"/>
<path d="M62.1365 111.213L132.346 154.833V155.855L62.1365 112.236V111.213Z" fill="#A9948E"/>
<path d="M62.1365 110.191L132.346 153.811V154.833L62.1365 111.214V110.191Z" fill="#AA958F"/>
<path d="M62.1365 109.169L132.346 152.788V153.811L62.1365 110.191V109.169Z" fill="#AA9690"/>
<path d="M62.1365 108.147L132.346 151.767V152.789L62.1365 109.17V108.147Z" fill="#AB9791"/>
<path d="M62.1365 107.125L132.346 150.756V151.767L62.1365 108.147V107.125Z" fill="#AC9892"/>
<path d="M62.1365 106.463L62.2928 106.21L132.346 149.733V150.755L62.1365 107.124V106.463Z" fill="#AD9A92"/>
<path d="M62.293 106.21L62.75 105.464L132.346 148.711V149.733L62.293 106.21Z" fill="#AE9B93"/>
<path d="M62.75 105.465L63.207 104.731L132.346 147.689V148.711L62.75 105.465Z" fill="#AF9C94"/>
<path d="M63.2068 104.732L63.6758 103.998L132.346 146.667V147.69L63.2068 104.732Z" fill="#AF9D95"/>
<path d="M63.676 103.998L64.133 103.264L132.346 145.645V146.667L63.676 103.998Z" fill="#B09E96"/>
<path d="M64.1331 103.264L64.578 102.53L132.346 144.634V145.645L64.1331 103.264Z" fill="#B19F97"/>
<path d="M64.5781 102.53L65.0472 101.785L132.346 143.612V144.634L64.5781 102.53Z" fill="#B2A098"/>
<path d="M65.0469 101.784L65.5039 101.051L132.346 142.59V143.612L65.0469 101.784Z" fill="#B3A199"/>
<path d="M65.5042 101.051L65.9611 100.318L132.346 141.568V142.59L65.5042 101.051Z" fill="#B4A29A"/>
<path d="M65.9609 100.318L66.4179 99.584L132.346 140.546V141.568L65.9609 100.318Z" fill="#B4A39B"/>
<path d="M66.4182 99.5837L66.8752 98.8501L132.346 139.523V140.545L66.4182 99.5837Z" fill="#B5A49C"/>
<path d="M66.875 98.8506L67.332 98.105L132.346 138.513V139.524L66.875 98.8506Z" fill="#B6A59C"/>
<path d="M67.332 98.1047L67.789 97.3711L132.346 137.491V138.513L67.332 98.1047Z" fill="#B7A69D"/>
<path d="M67.7891 97.3713L68.2461 96.6377L132.346 136.469V137.491L67.7891 97.3713Z" fill="#B8A79E"/>
<path d="M68.2461 96.6379L68.7031 95.9043L132.346 135.447V136.469L68.2461 96.6379Z" fill="#B8A89F"/>
<path d="M68.7029 95.9045L69.1599 95.1709L132.346 134.425V135.447L68.7029 95.9045Z" fill="#B9A9A0"/>
<path d="M69.1602 95.1704L69.6172 94.4248L132.346 133.402V134.424L69.1602 95.1704Z" fill="#BAAAA1"/>
<path d="M69.6169 94.4245L70.0739 93.6909L132.346 132.392V133.402L69.6169 94.4245Z" fill="#BBABA2"/>
<path d="M70.0742 93.6911L70.5312 92.9575L132.346 131.37V132.392L70.0742 93.6911Z" fill="#BCACA3"/>
<path d="M70.5308 92.9577L70.9878 92.2241L132.346 130.348V131.37L70.5308 92.9577Z" fill="#BDADA4"/>
<path d="M70.9883 92.2238L71.4453 91.4902L132.347 129.325V130.347L70.9883 92.2238Z" fill="#BDAEA5"/>
<path d="M71.4453 91.4907L71.9023 90.7451L132.347 128.303V129.326L71.4453 91.4907Z" fill="#BEAFA5"/>
<path d="M71.9021 90.7448L72.3591 90.0112L132.346 127.293V128.303L71.9021 90.7448Z" fill="#BFB0A6"/>
<path d="M72.3591 90.0109L72.8161 89.2773L132.346 126.27V127.293L72.3591 90.0109Z" fill="#C0B1A7"/>
<path d="M72.8157 89.2771L73.2727 88.5435L132.346 125.248V126.27L72.8157 89.2771Z" fill="#C1B2A8"/>
<path d="M73.2732 88.5437L73.7302 87.8101L132.346 124.226V125.248L73.2732 88.5437Z" fill="#C2B3A9"/>
<path d="M73.73 87.8101L74.187 87.0645L132.346 123.204V124.226L73.73 87.8101Z" fill="#C2B4AA"/>
<path d="M74.187 87.0647L74.644 86.3311L132.346 122.182V123.204L74.187 87.0647Z" fill="#C3B5AB"/>
<path d="M74.6438 86.3318L75.1008 85.5981L132.346 121.16V122.182L74.6438 86.3318Z" fill="#C4B6AC"/>
<path d="M75.1011 85.5974L75.5581 84.8638L132.346 120.149V121.159L75.1011 85.5974Z" fill="#C5B7AD"/>
<path d="M75.5579 84.864L76.0149 84.1304L132.346 119.127V120.149L75.5579 84.864Z" fill="#C6B8AE"/>
<path d="M76.0151 84.1299L76.4721 83.3843L132.346 118.104V119.126L76.0151 84.1299Z" fill="#C6B9AF"/>
<path d="M76.4719 83.3845L76.9289 82.6509L132.346 117.082V118.104L76.4719 83.3845Z" fill="#C7BAAF"/>
<path d="M76.9292 82.6511L77.3862 81.9175L132.346 116.06V117.082L76.9292 82.6511Z" fill="#C8BBB0"/>
<path d="M77.3857 81.9172L77.8427 81.1836L132.346 115.038V116.06L77.3857 81.9172Z" fill="#C9BCB1"/>
<path d="M77.843 81.1841L78.3 80.4385L132.346 114.028V115.038L77.843 81.1841Z" fill="#CABDB2"/>
<path d="M78.3003 80.4382L78.7573 79.7046L132.347 113.005V114.028L78.3003 80.4382Z" fill="#CBBEB3"/>
<path d="M78.7571 79.7043L79.2141 78.9707L132.346 111.983V113.005L78.7571 79.7043Z" fill="#CBBFB4"/>
<path d="M79.2141 78.9714L79.6711 78.2378L132.346 110.961V111.984L79.2141 78.9714Z" fill="#CCC0B5"/>
<path d="M79.6709 78.2375L80.1279 77.5039L132.346 109.939V110.961L79.6709 78.2375Z" fill="#CDC1B6"/>
<path d="M80.1282 77.5039L80.5852 76.7583L132.346 108.929V109.939L80.1282 77.5039Z" fill="#CEC2B7"/>
<path d="M80.5852 76.758L81.0542 76.0244L132.346 107.906V108.928L80.5852 76.758Z" fill="#CFC3B8"/>
<path d="M81.054 76.0241L81.4989 75.2905L132.346 106.884V107.906L81.054 76.0241Z" fill="#D0C4B8"/>
<path d="M81.499 75.2907L81.9681 74.5571L132.346 105.862V106.884L81.499 75.2907Z" fill="#D0C5B9"/>
<path d="M81.968 74.5573L82.425 73.8237L132.346 104.84V105.862L81.968 74.5573Z" fill="#D1C6BA"/>
<path d="M82.4253 73.8234L82.8823 73.0898L132.347 103.817V104.839L82.4253 73.8234Z" fill="#D2C7BB"/>
<path d="M82.8818 73.0904L83.3388 72.3447L132.346 102.807V103.818L82.8818 73.0904Z" fill="#D3C8BC"/>
<path d="M83.3389 72.3444L83.7959 71.6108L132.346 101.785V102.807L83.3389 72.3444Z" fill="#D4C9BD"/>
<path d="M83.7961 71.611L84.2531 70.8774L132.346 100.763V101.785L83.7961 71.611Z" fill="#D5CABE"/>
<path d="M84.2529 70.8776L84.7099 70.144L132.346 99.7408V100.763L84.2529 70.8776Z" fill="#D5CBBF"/>
<path d="M84.71 70.1436L85.167 69.3979L132.346 98.7181V99.7403L84.71 70.1436Z" fill="#D6CCC0"/>
<path d="M85.1667 69.3982L85.6237 68.6646L132.346 97.6961V98.7183L85.1667 69.3982Z" fill="#D7CDC1"/>
<path d="M85.6243 68.6643L86.0813 67.9307L132.347 96.6856V97.6958L85.6243 68.6643Z" fill="#D8CEC2"/>
<path d="M86.0811 67.9304L86.5381 67.1968L132.346 95.6631V96.6853L86.0811 67.9304Z" fill="#D9CFC2"/>
<path d="M86.5381 67.1975L86.9951 66.4639L132.346 94.6415V95.6638L86.5381 67.1975Z" fill="#D9D0C3"/>
<path d="M86.9949 66.4639L87.4519 65.7183L132.346 93.6193V94.6416L86.9949 66.4639Z" fill="#DAD1C4"/>
<path d="M87.4524 65.7185L87.9094 64.9849L132.347 92.5973V93.6195L87.4524 65.7185Z" fill="#DBD2C5"/>
<path d="M87.9089 64.9846L88.3659 64.251L132.346 91.5748V92.597L87.9089 64.9846Z" fill="#DCD3C6"/>
<path d="M88.3662 64.2502L88.8232 63.5166L132.346 90.5638V91.574L88.3662 64.2502Z" fill="#DDD4C7"/>
<path d="M88.8228 63.5173L89.2798 62.7837L132.346 89.5423V90.5645L88.8228 63.5173Z" fill="#DED5C8"/>
<path d="M89.2803 62.7834L89.7373 62.0498L132.347 88.5197V89.542L89.2803 62.7834Z" fill="#DED6C9"/>
<path d="M89.7371 62.0503L90.1941 61.3047L132.346 87.498V88.5202L89.7371 62.0503Z" fill="#DFD7CA"/>
<path d="M90.1941 61.3044L90.6511 60.5708L132.346 86.4755V87.4977L90.1941 61.3044Z" fill="#E0D8CB"/>
<path d="M90.6511 60.5705L91.1081 59.8369L132.346 85.465V86.4752L90.6511 60.5705Z" fill="#E1D9CB"/>
<path d="M91.1082 59.8371L91.5652 59.1035L132.346 84.443V85.4652L91.1082 59.8371Z" fill="#E2DACC"/>
<path d="M91.5649 59.1031L92.0219 58.3574L132.346 83.4203V84.4425L91.5649 59.1031Z" fill="#E3DBCD"/>
<path d="M92.0222 58.3576L92.4792 57.624L132.346 82.3982V83.4205L92.0222 58.3576Z" fill="#E3DCCE"/>
<path d="M92.479 57.6242L92.936 56.8906L132.346 81.3762V82.3984L92.479 57.6242Z" fill="#E4DDCF"/>
<path d="M92.9363 56.8903L93.3933 56.1567L132.347 80.3537V81.3759L92.9363 56.8903Z" fill="#E5DED0"/>
<path d="M93.3931 56.1568L106.297 35.3994H132.346V80.3538L93.3931 56.1568Z" fill="#E5DED0"/>
</g>
<path d="M132.346 35.3994C132.346 97.5153 99.5986 208.001 99.5986 236.167L137.313 214.411C118.468 165.861 132.37 138.381 132.37 35.3994H132.346ZM135.954 213.918L100.753 234.218C101.294 222.192 106.43 198.332 112.322 170.912C118.865 140.497 126.514 104.912 130.578 73.4988C129.941 91.9351 128.943 107.377 128.065 120.798C125.479 160.726 124.084 182.854 135.906 213.918H135.954Z" fill="#E5DED0"/>
<path d="M99.6106 54.3051L67.0794 35.52C67.0794 51.2264 73.0925 64.8763 73.0925 102.338C73.0925 138.068 62.0764 189.457 62.0764 214.544C62.1365 186.751 99.6106 82.7353 99.6106 54.3051ZM74.2591 102.338C74.3413 86.3003 73.0011 70.2867 70.2543 54.4855C69.2113 48.8587 68.5324 43.1705 68.2219 37.4563L98.4921 54.9425C98.2155 69.3741 88.7748 102.723 79.6469 134.93C74.235 154.015 68.9916 172.512 65.4558 187.509C66.2135 181.291 67.1034 174.701 68.0174 167.954C70.9518 146.355 74.2591 121.857 74.2591 102.338Z" fill="#745454"/>
<g style="mix-blend-mode:multiply">
<path d="M99.7912 0.812012L98.2278 6.82517L116.748 17.5166L98.6968 27.9434L99.6349 28.4846L119.262 17.1678L99.7912 5.9232V0.812012Z" fill="#897998"/>
</g>
<g style="mix-blend-mode:multiply">
<path d="M94.2832 16.6984L99.7191 13.5596L102.269 20.5589H100.97L94.2832 16.6984Z" fill="#897998"/>
</g>
<g style="mix-blend-mode:multiply">
<path d="M87.5845 19.6214L94.9686 15.3521L92.9482 21.7501H91.2766L87.5845 19.6214Z" fill="#897998"/>
</g>
<g style="mix-blend-mode:multiply">
<path d="M92.1665 21.7494L93.2609 21.124L96.6283 23.878H95.8586L92.1665 21.7494Z" fill="#897998"/>
</g>
<g style="mix-blend-mode:multiply">
<path d="M96.532 19.224L97.6264 18.5986L101.006 21.3527H100.224L96.532 19.224Z" fill="#897998"/>
</g>
<path d="M95.582 16.6984V13.5596L102.269 17.42V20.5589L95.582 16.6984Z" fill="#826565"/>
<path d="M107.704 17.4206V14.2817L102.269 17.4206V20.5595L107.704 17.4206Z" fill="#E5DED0"/>
<path d="M95.582 13.5598L101.018 10.4209L107.705 14.2813L102.269 17.4202L95.582 13.5598Z" fill="#F8F6E1"/>
<path d="M89.2561 19.621V17.8892L92.9482 20.0178V21.7496L89.2561 19.621Z" fill="#826565"/>
<path d="M100.333 17.4803V15.7485L92.9485 20.0179V21.7497L100.333 17.4803Z" fill="#E5DED0"/>
<path d="M89.2561 17.8895L96.6403 13.6201L100.332 15.7488L92.9482 20.0181L89.2561 17.8895Z" fill="#F8F6E1"/>
<path d="M92.9485 21.7494V20.3423L96.6285 22.4709V23.878L92.9485 21.7494Z" fill="#826565"/>
<path d="M97.7226 23.2531V21.834L96.6282 22.4714V23.8785L97.7226 23.2531Z" fill="#E5DED0"/>
<path d="M92.9485 20.3425L94.0309 19.7051L97.7229 21.8337L96.6285 22.4711L92.9485 20.3425Z" fill="#F8F6E1"/>
<path d="M97.3135 19.2245V17.8174L101.006 19.946V21.3531L97.3135 19.2245Z" fill="#826565"/>
<path d="M102.1 20.7274V19.3203L101.006 19.9457V21.3528L102.1 20.7274Z" fill="#E5DED0"/>
<path d="M97.3135 17.8176L98.4079 17.1802L102.1 19.3209L101.006 19.9462L97.3135 17.8176Z" fill="#F8F6E1"/>
<path d="M155.016 213.75V217.346L94.3674 252.367V248.771L155.016 213.75Z" fill="#E5DED0"/>
</svg>
