<svg width="161" height="205" viewBox="0 0 161 205" fill="none" xmlns="http://www.w3.org/2000/svg">
<g style="mix-blend-mode:multiply">
<path d="M57.7384 204.201L0 170.816L49.1275 142.205L59.386 142.313L107.118 175.686L111.424 204.201H57.7384Z" fill="#897998"/>
</g>
<g style="mix-blend-mode:multiply">
<path d="M124.075 196.888H114.31V193.581L124.075 187.941V196.888Z" fill="#897998"/>
</g>
<g style="mix-blend-mode:multiply">
<path d="M140.997 187.123H131.243V183.816L140.997 178.176V187.123Z" fill="#897998"/>
</g>
<g style="mix-blend-mode:multiply">
<path d="M157.917 177.358H148.152V172.86L157.917 172.812V177.358Z" fill="#897998"/>
</g>
<path d="M44.3411 154.664V29.8306L90.3056 56.3726V181.206L44.3411 154.664Z" fill="#30061A"/>
<path d="M44.3411 29.8311L81.7068 8.25586L127.671 34.7979L90.3056 56.3732L44.3411 29.8311Z" fill="#593B45"/>
<path d="M64.0884 169.505V147.93L110.053 174.472V196.047L64.0884 169.505Z" fill="#182440"/>
<path d="M149.643 173.185V151.609L110.053 174.471V196.047L149.643 173.185Z" fill="#3C606C"/>
<g style="mix-blend-mode:multiply">
<path d="M149.643 169.589V148.014L110.053 170.876V192.439L149.643 169.589Z" fill="#897998"/>
</g>
<path d="M62.0437 175.687L53.4329 170.72V41.3647L62.0437 46.3316V175.687Z" fill="#BDA195"/>
<path d="M62.032 46.3315V175.687L64.9303 177.358V161.965L74.6957 167.605V182.987L81.8514 187.124V171.73L91.6167 177.37V192.764L98.7724 196.889V181.507L107.624 186.619V202L108.526 202.529L111.424 204.201V188.807V74.8459L62.032 46.3315Z" fill="#BDA195"/>
<path d="M111.424 74.8453L53.4329 41.364L102.825 12.8496L160.804 46.3309L111.424 74.8453Z" fill="#F8F6E1"/>
<path d="M56.4517 41.3643L102.813 14.5938L157.785 46.3312L111.424 73.1018L56.4517 41.3643Z" fill="#D7CFCF"/>
<path d="M102.813 14.5938L56.4517 41.3643L59.0133 42.8436L102.813 17.5522L155.224 47.8104L157.785 46.3312L102.813 14.5938Z" fill="#BDA195"/>
<path d="M65.4592 43.6496V22.0864L111.424 48.6165V70.1917L65.4592 43.6496Z" fill="#30061A"/>
<path d="M148.79 48.6159V27.0527L111.424 48.6159V70.1911L148.79 48.6159Z" fill="#4C3039"/>
<path d="M65.4592 22.0864L102.825 0.51123L148.79 27.0533L111.424 48.6165L65.4592 22.0864Z" fill="#593B45"/>
<path d="M68.4778 22.0868L102.813 2.25537L145.771 27.0536L111.424 46.873L68.4778 22.0868Z" fill="#6D5B59"/>
<path d="M102.813 7.7995L140.972 29.8197L145.771 27.0536L102.813 2.25537L68.4778 22.0868L73.2763 24.8528L102.813 7.7995Z" fill="#30061A"/>
<path d="M160.804 46.3315V175.687L157.918 177.358V161.965L148.152 167.605V182.987L140.997 187.124V171.73L131.231 177.37V192.764L124.076 196.889V181.507L114.31 187.136V202.529L111.424 204.201V74.8459L160.804 46.3315Z" fill="#FBF9FF"/>
<path d="M154.117 175.157L157.917 177.358V161.964L154.117 164.153V175.157Z" fill="#BDA195"/>
<path d="M137.196 184.934L140.997 187.123V171.729L137.196 173.93V184.934Z" fill="#BDA195"/>
<path d="M120.275 194.7L124.075 196.889V181.495L120.275 183.696V194.7Z" fill="#BDA195"/>
<path d="M102.572 194.7L98.772 196.889V181.495L102.572 183.696V194.7Z" fill="#837665"/>
<path d="M85.6514 184.934L81.8511 187.123V171.729L85.6514 173.93V184.934Z" fill="#837665"/>
<path d="M71.3041 173.678L64.9302 177.358V161.964L71.3041 165.644V173.678Z" fill="#837665"/>
<path d="M102.813 2.25537V7.7995L73.2763 24.8528L68.4778 22.0868L102.813 2.25537Z" fill="#4C3039"/>
<path d="M118.435 100.233L114.31 102.614V94.6771L118.435 92.2959V100.233Z" fill="#3C606C"/>
<path d="M124.063 96.9621L119.962 99.3554V91.418L124.075 89.0488L124.063 96.9621Z" fill="#3C606C"/>
<path d="M129.716 93.7149L125.591 96.0961V88.1708L129.716 85.7896V93.7149Z" fill="#3C606C"/>
<path d="M135.344 90.4561L131.231 92.8493V84.912L135.356 82.5308L135.344 90.4561Z" fill="#3C606C"/>
<path d="M140.985 87.1968L136.872 89.5901V81.6527L140.997 79.2715L140.985 87.1968Z" fill="#3C606C"/>
<path d="M146.625 83.9377L142.512 86.331V78.3936L146.637 76.0244L146.625 83.9377Z" fill="#3C606C"/>
<path d="M152.265 80.6905L148.152 83.0717V75.1463L152.277 72.7651L152.265 80.6905Z" fill="#3C606C"/>
<path d="M157.905 69.5063V77.4317L153.792 79.8249V71.8876L156.498 70.3121L157.905 69.5063Z" fill="#3C606C"/>
<path d="M157.905 69.5063V77.4317L156.498 76.6259V70.3121L157.905 69.5063Z" fill="#BDA195"/>
<path d="M157.905 77.4313L153.792 79.8245V78.2009L156.498 76.6255L157.905 77.4313Z" fill="#F8F6E1"/>
<g style="mix-blend-mode:multiply">
<path d="M157.905 77.4311H155.103V72.2117L153.792 72.9333V71.887L156.498 70.3115V76.6253L157.905 77.4311Z" fill="#897998"/>
</g>
<path d="M152.265 72.7534V80.6908L150.87 79.873V73.5712L152.265 72.7534Z" fill="#BDA195"/>
<path d="M152.265 80.6908L148.152 83.072V81.4485L150.87 79.873L152.265 80.6908Z" fill="#F8F6E1"/>
<g style="mix-blend-mode:multiply">
<path d="M152.265 80.6909H149.463V75.4594L148.152 76.193V75.1467L150.87 73.5713V79.8731L152.265 80.6909Z" fill="#897998"/>
</g>
<path d="M146.625 76.0117V83.9371L145.23 83.1313V76.8295L146.625 76.0117Z" fill="#BDA195"/>
<path d="M146.625 83.9376L142.512 86.3308V84.7073L145.23 83.1318L146.625 83.9376Z" fill="#F8F6E1"/>
<g style="mix-blend-mode:multiply">
<path d="M146.625 83.9371H143.823V78.7177L142.512 79.4393V78.405L145.23 76.8296V83.1314L146.625 83.9371Z" fill="#897998"/>
</g>
<path d="M140.985 79.2715V87.1968L139.59 86.3911V80.0772L140.985 79.2715Z" fill="#BDA195"/>
<path d="M140.985 87.1964L136.872 89.5896V87.9661L139.59 86.3906L140.985 87.1964Z" fill="#F8F6E1"/>
<g style="mix-blend-mode:multiply">
<path d="M140.985 87.1967H138.194V81.9773L136.872 82.6989V81.6526L139.59 80.0771V86.391L140.985 87.1967Z" fill="#897998"/>
</g>
<path d="M135.344 82.5181V90.4554L133.949 89.6377V83.3359L135.344 82.5181Z" fill="#BDA195"/>
<path d="M135.344 90.4555L131.231 92.8487V91.2131L133.949 89.6377L135.344 90.4555Z" fill="#F8F6E1"/>
<g style="mix-blend-mode:multiply">
<path d="M135.344 90.456H132.554V85.2366L131.231 85.9582V84.9119L133.949 83.3364V89.6382L135.344 90.456Z" fill="#897998"/>
</g>
<path d="M129.716 85.7778V93.7152L128.309 92.8974V86.5956L129.716 85.7778Z" fill="#BDA195"/>
<path d="M129.716 93.7148L125.591 96.096V94.4724L128.309 92.897L129.716 93.7148Z" fill="#F8F6E1"/>
<g style="mix-blend-mode:multiply">
<path d="M129.716 93.7148H126.914V88.4833L125.591 89.217V88.1707L128.309 86.5952V92.897L129.716 93.7148Z" fill="#897998"/>
</g>
<path d="M124.064 89.0366V96.962L122.668 96.1562V89.8544L124.064 89.0366Z" fill="#BDA195"/>
<path d="M124.063 96.962L119.962 99.3552V97.7317L122.668 96.1562L124.063 96.962Z" fill="#F8F6E1"/>
<g style="mix-blend-mode:multiply">
<path d="M124.063 96.962H121.273V91.7426L119.962 92.4642V91.4299L122.668 89.8545V96.1563L124.063 96.962Z" fill="#897998"/>
</g>
<path d="M118.423 92.2959V100.221L117.028 99.4155V93.1017L118.423 92.2959Z" fill="#BDA195"/>
<path d="M118.423 100.221L114.31 102.615V100.991L117.028 99.4155L118.423 100.221Z" fill="#F8F6E1"/>
<g style="mix-blend-mode:multiply">
<path d="M118.423 100.221H115.633V95.0017L114.31 95.7233V94.677L117.028 93.1016V99.4154L118.423 100.221Z" fill="#897998"/>
</g>
<path d="M118.435 120.798L114.31 123.179V115.242L118.435 112.86V120.798Z" fill="#3C606C"/>
<path d="M124.063 117.527L119.962 119.921V111.983L124.075 109.602L124.063 117.527Z" fill="#3C606C"/>
<path d="M129.716 114.268L125.591 116.661V108.723L129.716 106.342V114.268Z" fill="#3C606C"/>
<path d="M135.344 111.021L131.231 113.402V105.477L135.356 103.096L135.344 111.021Z" fill="#3C606C"/>
<path d="M140.985 107.761L136.872 110.155V102.217L140.997 99.8359L140.985 107.761Z" fill="#3C606C"/>
<path d="M146.625 104.502L142.512 106.896V98.9584L146.637 96.5771L146.625 104.502Z" fill="#3C606C"/>
<path d="M152.265 101.243L148.152 103.636V95.6991L152.277 93.3179L152.265 101.243Z" fill="#3C606C"/>
<path d="M157.905 90.0591V97.9964L153.792 100.378V92.4523L156.498 90.8769L157.905 90.0591Z" fill="#3C606C"/>
<path d="M157.905 90.0591V97.9964L156.498 97.1787V90.8769L157.905 90.0591Z" fill="#BDA195"/>
<path d="M157.905 97.996L153.792 100.377V98.7537L156.498 97.1782L157.905 97.996Z" fill="#F8F6E1"/>
<g style="mix-blend-mode:multiply">
<path d="M157.905 97.996H155.103V92.7646L153.792 93.4982V92.4519L156.498 90.8765V97.1783L157.905 97.996Z" fill="#897998"/>
</g>
<path d="M152.265 93.3179V101.243L150.87 100.437V94.1236L152.265 93.3179Z" fill="#BDA195"/>
<path d="M152.265 101.243L148.152 103.637V102.013L150.87 100.438L152.265 101.243Z" fill="#F8F6E1"/>
<g style="mix-blend-mode:multiply">
<path d="M152.265 101.243H149.463V96.0237L148.152 96.7453V95.699L150.87 94.1235V100.437L152.265 101.243Z" fill="#897998"/>
</g>
<path d="M146.625 96.5654V104.503L145.23 103.685V97.3832L146.625 96.5654Z" fill="#BDA195"/>
<path d="M146.625 104.502L142.512 106.896V105.272L145.23 103.685L146.625 104.502Z" fill="#F8F6E1"/>
<g style="mix-blend-mode:multiply">
<path d="M146.625 104.502H143.823V99.2825L142.512 100.004V98.9578L145.23 97.3823V103.684L146.625 104.502Z" fill="#897998"/>
</g>
<path d="M140.985 99.8247V107.762L139.59 106.944V100.642L140.985 99.8247Z" fill="#BDA195"/>
<path d="M140.985 107.762L136.872 110.155V108.52L139.59 106.944L140.985 107.762Z" fill="#F8F6E1"/>
<g style="mix-blend-mode:multiply">
<path d="M140.985 107.762H138.194V102.542L136.872 103.264V102.218L139.59 100.642V106.944L140.985 107.762Z" fill="#897998"/>
</g>
<path d="M135.344 103.083V111.021L133.949 110.203V103.901L135.344 103.083Z" fill="#BDA195"/>
<path d="M135.344 111.02L131.231 113.402V111.778L133.949 110.203L135.344 111.02Z" fill="#F8F6E1"/>
<g style="mix-blend-mode:multiply">
<path d="M135.344 111.021H132.554V105.789L131.231 106.511V105.477L133.949 103.901V110.203L135.344 111.021Z" fill="#897998"/>
</g>
<path d="M129.716 106.342V114.268L128.309 113.462V107.148L129.716 106.342Z" fill="#BDA195"/>
<path d="M129.716 114.268L125.591 116.661V115.037L128.309 113.462L129.716 114.268Z" fill="#F8F6E1"/>
<g style="mix-blend-mode:multiply">
<path d="M129.716 114.268H126.914V109.049L125.591 109.77V108.724L128.309 107.148V113.462L129.716 114.268Z" fill="#897998"/>
</g>
<path d="M124.064 109.589V117.527L122.668 116.709V110.407L124.064 109.589Z" fill="#BDA195"/>
<path d="M124.063 117.527L119.962 119.92V118.296L122.668 116.709L124.063 117.527Z" fill="#F8F6E1"/>
<g style="mix-blend-mode:multiply">
<path d="M124.063 117.527H121.273V112.307L119.962 113.029V111.983L122.668 110.407V116.709L124.063 117.527Z" fill="#897998"/>
</g>
<path d="M118.423 112.849V120.786L117.028 119.969V113.667L118.423 112.849Z" fill="#BDA195"/>
<path d="M118.423 120.787L114.31 123.18V121.544L117.028 119.969L118.423 120.787Z" fill="#F8F6E1"/>
<g style="mix-blend-mode:multiply">
<path d="M118.423 120.786H115.633V115.567L114.31 116.288V115.242L117.028 113.667V119.968L118.423 120.786Z" fill="#897998"/>
</g>
<path d="M118.435 131.069L114.31 133.45V125.525L118.435 123.144V131.069Z" fill="#3C606C"/>
<path d="M124.063 127.809L119.962 130.202V122.265L124.075 119.884L124.063 127.809Z" fill="#3C606C"/>
<path d="M129.716 124.55L125.591 126.943V119.006L129.716 116.625V124.55Z" fill="#3C606C"/>
<path d="M135.344 121.291L131.231 123.684V115.747L135.356 113.366L135.344 121.291Z" fill="#3C606C"/>
<path d="M140.985 118.045L136.872 120.426V112.501L140.997 110.12L140.985 118.045Z" fill="#3C606C"/>
<path d="M146.625 114.785L142.512 117.178V109.241L146.637 106.86L146.625 114.785Z" fill="#3C606C"/>
<path d="M152.265 111.526L148.152 113.92V105.982L152.277 103.601L152.265 111.526Z" fill="#3C606C"/>
<path d="M157.905 100.341V108.278L153.792 110.659V102.734L156.498 101.159L157.905 100.341Z" fill="#3C606C"/>
<path d="M157.905 100.341V108.278L156.498 107.46V101.159L157.905 100.341Z" fill="#BDA195"/>
<path d="M157.905 108.279L153.792 110.66V109.037L156.498 107.461L157.905 108.279Z" fill="#F8F6E1"/>
<g style="mix-blend-mode:multiply">
<path d="M157.905 108.279H155.103V103.048L153.792 103.781V102.735L156.498 101.16V107.461L157.905 108.279Z" fill="#897998"/>
</g>
<path d="M152.265 103.601V111.526L150.87 110.721V104.407L152.265 103.601Z" fill="#BDA195"/>
<path d="M152.265 111.526L148.152 113.919V112.296L150.87 110.72L152.265 111.526Z" fill="#F8F6E1"/>
<g style="mix-blend-mode:multiply">
<path d="M152.265 111.526H149.463V106.306L148.152 107.028V105.982L150.87 104.406V110.72L152.265 111.526Z" fill="#897998"/>
</g>
<path d="M146.625 106.848V114.785L145.23 113.967V107.665L146.625 106.848Z" fill="#BDA195"/>
<path d="M146.625 114.785L142.512 117.178V115.543L145.23 113.967L146.625 114.785Z" fill="#F8F6E1"/>
<g style="mix-blend-mode:multiply">
<path d="M146.625 114.786H143.823V109.554L142.512 110.288V109.241L145.23 107.666V113.968L146.625 114.786Z" fill="#897998"/>
</g>
<path d="M140.985 110.106V118.044L139.59 117.226V110.924L140.985 110.106Z" fill="#BDA195"/>
<path d="M140.985 118.044L136.872 120.425V118.802L139.59 117.226L140.985 118.044Z" fill="#F8F6E1"/>
<g style="mix-blend-mode:multiply">
<path d="M140.985 118.044H138.194V112.812L136.872 113.534V112.5L139.59 110.924V117.226L140.985 118.044Z" fill="#897998"/>
</g>
<path d="M135.344 113.366V121.291L133.949 120.485V114.171L135.344 113.366Z" fill="#BDA195"/>
<path d="M135.344 121.291L131.231 123.684V122.06L133.949 120.485L135.344 121.291Z" fill="#F8F6E1"/>
<g style="mix-blend-mode:multiply">
<path d="M135.344 121.291H132.554V116.072L131.231 116.793V115.759L133.949 114.171V120.485L135.344 121.291Z" fill="#897998"/>
</g>
<path d="M129.716 116.625V124.55L128.309 123.744V117.43L129.716 116.625Z" fill="#BDA195"/>
<path d="M129.716 124.551L125.591 126.944V125.321L128.309 123.745L129.716 124.551Z" fill="#F8F6E1"/>
<g style="mix-blend-mode:multiply">
<path d="M129.716 124.551H126.914V119.331L125.591 120.053V119.007L128.309 117.431V123.745L129.716 124.551Z" fill="#897998"/>
</g>
<path d="M124.064 119.873V127.81L122.668 126.992V120.69L124.064 119.873Z" fill="#BDA195"/>
<path d="M124.063 127.809L119.962 130.203V128.567L122.668 126.992L124.063 127.809Z" fill="#F8F6E1"/>
<g style="mix-blend-mode:multiply">
<path d="M124.063 127.81H121.273V122.59L119.962 123.312V122.265L122.668 120.69V126.992L124.063 127.81Z" fill="#897998"/>
</g>
<path d="M118.423 123.131V131.068L117.028 130.25V123.949L118.423 123.131Z" fill="#BDA195"/>
<path d="M118.423 131.069L114.31 133.45V131.826L117.028 130.251L118.423 131.069Z" fill="#F8F6E1"/>
<g style="mix-blend-mode:multiply">
<path d="M118.423 131.069H115.633V125.837L114.31 126.559V125.525L117.028 123.949V130.251L118.423 131.069Z" fill="#897998"/>
</g>
<path d="M118.435 141.351L114.31 143.732V135.795L118.435 133.414V141.351Z" fill="#3C606C"/>
<path d="M124.063 138.092L119.962 140.474V132.548L124.075 130.167L124.063 138.092Z" fill="#3C606C"/>
<path d="M129.716 134.833L125.591 137.226V129.289L129.716 126.908V134.833Z" fill="#3C606C"/>
<path d="M135.344 131.574L131.231 133.967V126.03L135.356 123.648L135.344 131.574Z" fill="#3C606C"/>
<path d="M140.985 128.315L136.872 130.708V122.771L140.997 120.39L140.985 128.315Z" fill="#3C606C"/>
<path d="M146.625 125.067L142.512 127.448V119.523L146.637 117.142L146.625 125.067Z" fill="#3C606C"/>
<path d="M152.265 121.809L148.152 124.202V116.265L152.277 113.883L152.265 121.809Z" fill="#3C606C"/>
<path d="M157.905 110.624V118.549L153.792 120.943V113.005L156.498 111.43L157.905 110.624Z" fill="#3C606C"/>
<path d="M157.905 110.624V118.549L156.498 117.744V111.43L157.905 110.624Z" fill="#BDA195"/>
<path d="M157.905 118.549L153.792 120.943V119.319L156.498 117.744L157.905 118.549Z" fill="#F8F6E1"/>
<g style="mix-blend-mode:multiply">
<path d="M157.905 118.549H155.103V113.33L153.792 114.051V113.005L156.498 111.43V117.744L157.905 118.549Z" fill="#897998"/>
</g>
<path d="M152.265 113.871V121.808L150.87 120.99V114.688L152.265 113.871Z" fill="#BDA195"/>
<path d="M152.265 121.809L148.152 124.202V122.566L150.87 120.991L152.265 121.809Z" fill="#F8F6E1"/>
<g style="mix-blend-mode:multiply">
<path d="M152.265 121.809H149.463V116.589L148.152 117.311V116.264L150.87 114.689V120.991L152.265 121.809Z" fill="#897998"/>
</g>
<path d="M146.625 117.13V125.068L145.23 124.25V117.948L146.625 117.13Z" fill="#BDA195"/>
<path d="M146.625 125.068L142.512 127.449V125.825L145.23 124.25L146.625 125.068Z" fill="#F8F6E1"/>
<g style="mix-blend-mode:multiply">
<path d="M146.625 125.067H143.823V119.836L142.512 120.569V119.523L145.23 117.948V124.25L146.625 125.067Z" fill="#897998"/>
</g>
<path d="M140.985 120.39V128.315L139.59 127.509V121.207L140.985 120.39Z" fill="#BDA195"/>
<path d="M140.985 128.315L136.872 130.708V129.084L139.59 127.509L140.985 128.315Z" fill="#F8F6E1"/>
<g style="mix-blend-mode:multiply">
<path d="M140.985 128.315H138.194V123.095L136.872 123.817V122.782L139.59 121.207V127.509L140.985 128.315Z" fill="#897998"/>
</g>
<path d="M135.344 123.648V131.574L133.949 130.768V124.454L135.344 123.648Z" fill="#BDA195"/>
<path d="M135.344 131.574L131.231 133.968V132.344L133.949 130.769L135.344 131.574Z" fill="#F8F6E1"/>
<g style="mix-blend-mode:multiply">
<path d="M135.344 131.574H132.554V126.355L131.231 127.076V126.03L133.949 124.455V130.768L135.344 131.574Z" fill="#897998"/>
</g>
<path d="M129.716 126.896V134.833L128.309 134.015V127.713L129.716 126.896Z" fill="#BDA195"/>
<path d="M129.716 134.833L125.591 137.226V135.591L128.309 134.015L129.716 134.833Z" fill="#F8F6E1"/>
<g style="mix-blend-mode:multiply">
<path d="M129.716 134.833H126.914V129.614L125.591 130.335V129.289L128.309 127.713V134.015L129.716 134.833Z" fill="#897998"/>
</g>
<path d="M124.064 130.154V138.092L122.668 137.274V130.972L124.064 130.154Z" fill="#BDA195"/>
<path d="M124.063 138.092L119.962 140.473V138.849L122.668 137.274L124.063 138.092Z" fill="#F8F6E1"/>
<g style="mix-blend-mode:multiply">
<path d="M124.063 138.092H121.273V132.861L119.962 133.594V132.548L122.668 130.973V137.274L124.063 138.092Z" fill="#897998"/>
</g>
<path d="M118.423 133.414V141.351L117.028 140.533V134.219L118.423 133.414Z" fill="#BDA195"/>
<path d="M118.423 141.351L114.31 143.733V142.109L117.028 140.534L118.423 141.351Z" fill="#F8F6E1"/>
<g style="mix-blend-mode:multiply">
<path d="M118.423 141.351H115.633V136.12L114.31 136.841V135.807L117.028 134.22V140.534L118.423 141.351Z" fill="#897998"/>
</g>
<path d="M118.435 151.634L114.31 154.015V146.077L118.435 143.696V151.634Z" fill="#3C606C"/>
<path d="M124.063 148.374L119.962 150.755V142.818L124.075 140.449L124.063 148.374Z" fill="#3C606C"/>
<path d="M129.716 145.116L125.591 147.497V139.572L129.716 137.19V145.116Z" fill="#3C606C"/>
<path d="M135.344 141.856L131.231 144.249V136.312L135.356 133.931L135.344 141.856Z" fill="#3C606C"/>
<path d="M140.985 138.597L136.872 140.99V133.053L140.997 130.672L140.985 138.597Z" fill="#3C606C"/>
<path d="M146.625 135.35L142.512 137.731V129.794L146.637 127.424L146.625 135.35Z" fill="#3C606C"/>
<path d="M152.265 132.09L148.152 134.472V126.546L152.277 124.165L152.265 132.09Z" fill="#3C606C"/>
<path d="M157.905 120.906V128.832L153.792 131.225V123.287L156.498 121.712L157.905 120.906Z" fill="#3C606C"/>
<path d="M157.905 120.906V128.832L156.498 128.026V121.712L157.905 120.906Z" fill="#BDA195"/>
<path d="M157.905 128.832L153.792 131.225V129.601L156.498 128.026L157.905 128.832Z" fill="#F8F6E1"/>
<g style="mix-blend-mode:multiply">
<path d="M157.905 128.831H155.103V123.612L153.792 124.334V123.287L156.498 121.712V128.026L157.905 128.831Z" fill="#897998"/>
</g>
<path d="M152.265 124.154V132.091L150.87 131.273V124.972L152.265 124.154Z" fill="#BDA195"/>
<path d="M152.265 132.091L148.152 134.472V132.848L150.87 131.273L152.265 132.091Z" fill="#F8F6E1"/>
<g style="mix-blend-mode:multiply">
<path d="M152.265 132.091H149.463V126.859L148.152 127.593V126.547L150.87 124.971V131.273L152.265 132.091Z" fill="#897998"/>
</g>
<path d="M146.625 127.412V135.349L145.23 134.532V128.23L146.625 127.412Z" fill="#BDA195"/>
<path d="M146.625 135.35L142.512 137.731V136.108L145.23 134.532L146.625 135.35Z" fill="#F8F6E1"/>
<g style="mix-blend-mode:multiply">
<path d="M146.625 135.351H143.823V130.119L142.512 130.841V129.806L145.23 128.231V134.533L146.625 135.351Z" fill="#897998"/>
</g>
<path d="M140.985 130.672V138.597L139.59 137.791V131.478L140.985 130.672Z" fill="#BDA195"/>
<path d="M140.985 138.597L136.872 140.99V139.366L139.59 137.791L140.985 138.597Z" fill="#F8F6E1"/>
<g style="mix-blend-mode:multiply">
<path d="M140.985 138.597H138.194V133.378L136.872 134.099V133.053L139.59 131.478V137.791L140.985 138.597Z" fill="#897998"/>
</g>
<path d="M135.344 133.919V141.856L133.949 141.039V134.737L135.344 133.919Z" fill="#BDA195"/>
<path d="M135.344 141.857L131.231 144.25V142.627L133.949 141.039L135.344 141.857Z" fill="#F8F6E1"/>
<g style="mix-blend-mode:multiply">
<path d="M135.344 141.856H132.554V136.637L131.231 137.359V136.312L133.949 134.737V141.039L135.344 141.856Z" fill="#897998"/>
</g>
<path d="M129.716 137.178V145.116L128.309 144.298V137.996L129.716 137.178Z" fill="#BDA195"/>
<path d="M129.716 145.115L125.591 147.496V145.873L128.309 144.297L129.716 145.115Z" fill="#F8F6E1"/>
<g style="mix-blend-mode:multiply">
<path d="M129.716 145.115H126.914V139.883L125.591 140.617V139.571L128.309 137.995V144.297L129.716 145.115Z" fill="#897998"/>
</g>
<path d="M124.064 140.438V148.375L122.668 147.557V141.255L124.064 140.438Z" fill="#BDA195"/>
<path d="M124.063 148.375L119.962 150.756V149.133L122.668 147.557L124.063 148.375Z" fill="#F8F6E1"/>
<g style="mix-blend-mode:multiply">
<path d="M124.063 148.374H121.273V143.143L119.962 143.865V142.83L122.668 141.255V147.557L124.063 148.374Z" fill="#897998"/>
</g>
<path d="M118.423 143.696V151.622L117.028 150.816V144.502L118.423 143.696Z" fill="#BDA195"/>
<path d="M118.423 151.622L114.31 154.015V152.391L117.028 150.816L118.423 151.622Z" fill="#F8F6E1"/>
<g style="mix-blend-mode:multiply">
<path d="M118.423 151.622H115.633V146.402L114.31 147.124V146.077L117.028 144.502V150.816L118.423 151.622Z" fill="#897998"/>
</g>
<path d="M118.435 161.916L114.31 164.297V156.36L118.435 153.979V161.916Z" fill="#3C606C"/>
<path d="M124.063 158.645L119.962 161.038V153.1L124.075 150.719L124.063 158.645Z" fill="#3C606C"/>
<path d="M129.716 155.398L125.591 157.779V149.842L129.716 147.473V155.398Z" fill="#3C606C"/>
<path d="M135.344 152.139L131.231 154.532V146.595L135.356 144.214L135.344 152.139Z" fill="#3C606C"/>
<path d="M140.985 148.879L136.872 151.273V143.335L140.997 140.954L140.985 148.879Z" fill="#3C606C"/>
<path d="M146.625 145.62L142.512 148.013V140.076L146.637 137.695L146.625 145.62Z" fill="#3C606C"/>
<path d="M152.265 142.362L148.152 144.755V136.817L152.277 134.448L152.265 142.362Z" fill="#3C606C"/>
<path d="M157.905 131.177V139.114L153.792 141.507V133.57L156.498 131.995L157.905 131.177Z" fill="#3C606C"/>
<path d="M157.905 131.177V139.114L156.498 138.296V131.995L157.905 131.177Z" fill="#BDA195"/>
<path d="M157.905 139.114L153.792 141.507V139.884L156.498 138.296L157.905 139.114Z" fill="#F8F6E1"/>
<g style="mix-blend-mode:multiply">
<path d="M157.905 139.114H155.103V133.895L153.792 134.616V133.57L156.498 131.995V138.296L157.905 139.114Z" fill="#897998"/>
</g>
<path d="M152.265 134.436V142.361L150.87 141.555V135.241L152.265 134.436Z" fill="#BDA195"/>
<path d="M152.265 142.36L148.152 144.754V143.13L150.87 141.555L152.265 142.36Z" fill="#F8F6E1"/>
<g style="mix-blend-mode:multiply">
<path d="M152.265 142.361H149.463V137.141L148.152 137.863V136.829L150.87 135.241V141.555L152.265 142.361Z" fill="#897998"/>
</g>
<path d="M146.625 137.695V145.62L145.23 144.814V138.501L146.625 137.695Z" fill="#BDA195"/>
<path d="M146.625 145.621L142.512 148.014V146.39L145.23 144.815L146.625 145.621Z" fill="#F8F6E1"/>
<g style="mix-blend-mode:multiply">
<path d="M146.625 145.621H143.823V140.402L142.512 141.123V140.077L145.23 138.501V144.815L146.625 145.621Z" fill="#897998"/>
</g>
<path d="M140.985 140.942V148.88L139.59 148.062V141.76L140.985 140.942Z" fill="#BDA195"/>
<path d="M140.985 148.879L136.872 151.273V149.649L139.59 148.062L140.985 148.879Z" fill="#F8F6E1"/>
<g style="mix-blend-mode:multiply">
<path d="M140.985 148.88H138.194V143.661L136.872 144.382V143.336L139.59 141.761V148.063L140.985 148.88Z" fill="#897998"/>
</g>
<path d="M135.344 144.201V152.139L133.949 151.321V145.019L135.344 144.201Z" fill="#BDA195"/>
<path d="M135.344 152.139L131.231 154.532V152.896L133.949 151.321L135.344 152.139Z" fill="#F8F6E1"/>
<g style="mix-blend-mode:multiply">
<path d="M135.344 152.139H132.554V146.907L131.231 147.641V146.594L133.949 145.019V151.321L135.344 152.139Z" fill="#897998"/>
</g>
<path d="M129.716 147.461V155.398L128.309 154.581V148.279L129.716 147.461Z" fill="#BDA195"/>
<path d="M129.716 155.398L125.591 157.779V156.156L128.309 154.58L129.716 155.398Z" fill="#F8F6E1"/>
<g style="mix-blend-mode:multiply">
<path d="M129.716 155.398H126.914V150.167L125.591 150.889V149.854L128.309 148.279V154.581L129.716 155.398Z" fill="#897998"/>
</g>
<path d="M124.064 150.719V158.645L122.668 157.839V151.525L124.064 150.719Z" fill="#BDA195"/>
<path d="M124.063 158.645L119.962 161.038V159.414L122.668 157.839L124.063 158.645Z" fill="#F8F6E1"/>
<g style="mix-blend-mode:multiply">
<path d="M124.063 158.645H121.273V153.426L119.962 154.147V153.101L122.668 151.525V157.839L124.063 158.645Z" fill="#897998"/>
</g>
<path d="M118.423 153.979V161.904L117.028 161.086V154.784L118.423 153.979Z" fill="#BDA195"/>
<path d="M118.423 161.904L114.31 164.297V162.674L117.028 161.086L118.423 161.904Z" fill="#F8F6E1"/>
<g style="mix-blend-mode:multiply">
<path d="M118.423 161.904H115.633V156.684L114.31 157.406V156.36L117.028 154.784V161.086L118.423 161.904Z" fill="#897998"/>
</g>
<path d="M118.435 172.199L114.31 174.568V166.643L118.435 164.262V172.199Z" fill="#3C606C"/>
<path d="M124.063 168.928L119.962 171.321V163.384L124.075 161.002L124.063 168.928Z" fill="#3C606C"/>
<path d="M129.716 165.669L125.591 168.062V160.124L129.716 157.743V165.669Z" fill="#3C606C"/>
<path d="M135.344 162.421L131.231 164.803V156.865L135.356 154.496L135.344 162.421Z" fill="#3C606C"/>
<path d="M140.985 159.162L136.872 161.555V153.618L140.997 151.237L140.985 159.162Z" fill="#3C606C"/>
<path d="M146.625 155.903L142.512 158.297V150.359L146.637 147.978L146.625 155.903Z" fill="#3C606C"/>
<path d="M152.265 152.644L148.152 155.037V147.1L152.277 144.719L152.265 152.644Z" fill="#3C606C"/>
<path d="M157.905 141.459V149.397L153.792 151.778V143.853L156.498 142.277L157.905 141.459Z" fill="#3C606C"/>
<path d="M157.905 141.459V149.397L156.498 148.579V142.277L157.905 141.459Z" fill="#BDA195"/>
<path d="M157.905 149.396L153.792 151.778V150.154L156.498 148.579L157.905 149.396Z" fill="#F8F6E1"/>
<g style="mix-blend-mode:multiply">
<path d="M157.905 149.396H155.103V144.165L153.792 144.899V143.852L156.498 142.277V148.579L157.905 149.396Z" fill="#897998"/>
</g>
<path d="M152.265 144.719V152.644L150.87 151.838V145.525L152.265 144.719Z" fill="#BDA195"/>
<path d="M152.265 152.644L148.152 155.037V153.414L150.87 151.838L152.265 152.644Z" fill="#F8F6E1"/>
<g style="mix-blend-mode:multiply">
<path d="M152.265 152.644H149.463V147.425L148.152 148.147V147.1L150.87 145.525V151.839L152.265 152.644Z" fill="#897998"/>
</g>
<path d="M146.625 147.978V155.903L145.23 155.098V148.784L146.625 147.978Z" fill="#BDA195"/>
<path d="M146.625 155.903L142.512 158.296V156.673L145.23 155.097L146.625 155.903Z" fill="#F8F6E1"/>
<g style="mix-blend-mode:multiply">
<path d="M146.625 155.903H143.823V150.683L142.512 151.405V150.359L145.23 148.783V155.097L146.625 155.903Z" fill="#897998"/>
</g>
<path d="M140.985 151.225V159.162L139.59 158.344V152.042L140.985 151.225Z" fill="#BDA195"/>
<path d="M140.985 159.163L136.872 161.556V159.92L139.59 158.345L140.985 159.163Z" fill="#F8F6E1"/>
<g style="mix-blend-mode:multiply">
<path d="M140.985 159.162H138.194V153.943L136.872 154.664V153.618L139.59 152.042V158.344L140.985 159.162Z" fill="#897998"/>
</g>
<path d="M135.344 154.483V162.42L133.949 161.602V155.301L135.344 154.483Z" fill="#BDA195"/>
<path d="M135.344 162.422L131.231 164.803V163.179L133.949 161.604L135.344 162.422Z" fill="#F8F6E1"/>
<g style="mix-blend-mode:multiply">
<path d="M135.344 162.421H132.554V157.19L131.231 157.924V156.877L133.949 155.302V161.604L135.344 162.421Z" fill="#897998"/>
</g>
<path d="M129.716 157.743V165.669L128.309 164.863V158.549L129.716 157.743Z" fill="#BDA195"/>
<path d="M129.716 165.669L125.591 168.062V166.438L128.309 164.863L129.716 165.669Z" fill="#F8F6E1"/>
<g style="mix-blend-mode:multiply">
<path d="M129.716 165.669H126.914V160.449L125.591 161.171V160.137L128.309 158.549V164.863L129.716 165.669Z" fill="#897998"/>
</g>
<path d="M124.064 161.002V168.928L122.668 168.11V161.808L124.064 161.002Z" fill="#BDA195"/>
<path d="M124.063 168.928L119.962 171.321V169.697L122.668 168.11L124.063 168.928Z" fill="#F8F6E1"/>
<g style="mix-blend-mode:multiply">
<path d="M124.063 168.928H121.273V163.708L119.962 164.43V163.384L122.668 161.808V168.11L124.063 168.928Z" fill="#897998"/>
</g>
<path d="M118.423 164.249V172.186L117.028 171.369V165.067L118.423 164.249Z" fill="#BDA195"/>
<path d="M118.423 172.186L114.31 174.567V172.944L117.028 171.368L118.423 172.186Z" fill="#F8F6E1"/>
<g style="mix-blend-mode:multiply">
<path d="M118.423 172.187H115.633V166.968L114.31 167.689V166.643L117.028 165.067V171.369L118.423 172.187Z" fill="#897998"/>
</g>
<path d="M118.435 182.469L114.31 184.85V176.925L118.435 174.543V182.469Z" fill="#3C606C"/>
<path d="M124.063 179.21L119.962 181.603V173.666L124.075 171.285L124.063 179.21Z" fill="#3C606C"/>
<path d="M129.716 175.951L125.591 178.344V170.407L129.716 168.025V175.951Z" fill="#3C606C"/>
<path d="M135.344 172.692L131.231 175.085V167.148L135.356 164.767L135.344 172.692Z" fill="#3C606C"/>
<path d="M140.985 169.444L136.872 171.826V163.9L140.997 161.519L140.985 169.444Z" fill="#3C606C"/>
<path d="M146.625 166.186L142.512 168.567V160.641L146.637 158.26L146.625 166.186Z" fill="#3C606C"/>
<path d="M152.265 162.926L148.152 165.319V157.382L152.277 155L152.265 162.926Z" fill="#3C606C"/>
<path d="M157.905 151.742V159.68L153.792 162.061V154.135L156.498 152.56L157.905 151.742Z" fill="#3C606C"/>
<path d="M157.905 151.742V159.68L156.498 158.862V152.56L157.905 151.742Z" fill="#BDA195"/>
<path d="M157.905 159.68L153.792 162.061V160.437L156.498 158.862L157.905 159.68Z" fill="#F8F6E1"/>
<g style="mix-blend-mode:multiply">
<path d="M157.905 159.68H155.103V154.448L153.792 155.17V154.136L156.498 152.56V158.862L157.905 159.68Z" fill="#897998"/>
</g>
<path d="M152.265 154.989V162.927L150.87 162.121V155.807L152.265 154.989Z" fill="#BDA195"/>
<path d="M152.265 162.926L148.152 165.32V163.696L150.87 162.121L152.265 162.926Z" fill="#F8F6E1"/>
<g style="mix-blend-mode:multiply">
<path d="M152.265 162.926H149.463V157.707L148.152 158.428V157.382L150.87 155.807V162.12L152.265 162.926Z" fill="#897998"/>
</g>
<path d="M146.625 158.249V166.186L145.23 165.368V159.066L146.625 158.249Z" fill="#BDA195"/>
<path d="M146.625 166.185L142.512 168.567V166.943L145.23 165.368L146.625 166.185Z" fill="#F8F6E1"/>
<g style="mix-blend-mode:multiply">
<path d="M146.625 166.185H143.823V160.966L142.512 161.687V160.641L145.23 159.065V165.367L146.625 166.185Z" fill="#897998"/>
</g>
<path d="M140.985 161.507V169.445L139.59 168.627V162.325L140.985 161.507Z" fill="#BDA195"/>
<path d="M140.985 169.445L136.872 171.826V170.202L139.59 168.627L140.985 169.445Z" fill="#F8F6E1"/>
<g style="mix-blend-mode:multiply">
<path d="M140.985 169.445H138.194V164.213L136.872 164.947V163.901L139.59 162.325V168.627L140.985 169.445Z" fill="#897998"/>
</g>
<path d="M135.344 164.767V172.692L133.949 171.886V165.572L135.344 164.767Z" fill="#BDA195"/>
<path d="M135.344 172.692L131.231 175.085V173.461L133.949 171.886L135.344 172.692Z" fill="#F8F6E1"/>
<g style="mix-blend-mode:multiply">
<path d="M135.344 172.692H132.554V167.472L131.231 168.194V167.16L133.949 165.572V171.886L135.344 172.692Z" fill="#897998"/>
</g>
<path d="M129.716 168.025V175.951L128.309 175.133V168.831L129.716 168.025Z" fill="#BDA195"/>
<path d="M129.716 175.952L125.591 178.345V176.721L128.309 175.134L129.716 175.952Z" fill="#F8F6E1"/>
<g style="mix-blend-mode:multiply">
<path d="M129.716 175.951H126.914V170.732L125.591 171.453V170.407L128.309 168.832V175.133L129.716 175.951Z" fill="#897998"/>
</g>
<path d="M124.064 171.273V179.21L122.668 178.393V172.091L124.064 171.273Z" fill="#BDA195"/>
<path d="M124.063 179.21L119.962 181.603V179.968L122.668 178.392L124.063 179.21Z" fill="#F8F6E1"/>
<g style="mix-blend-mode:multiply">
<path d="M124.063 179.209H121.273V173.978L119.962 174.712V173.665L122.668 172.09V178.392L124.063 179.209Z" fill="#897998"/>
</g>
<path d="M118.423 174.532V182.47L117.028 181.652V175.35L118.423 174.532Z" fill="#BDA195"/>
<path d="M118.423 182.47L114.31 184.851V183.227L117.028 181.652L118.423 182.47Z" fill="#F8F6E1"/>
<g style="mix-blend-mode:multiply">
<path d="M118.423 182.469H115.633V177.238L114.31 177.959V176.925L117.028 175.35V181.651L118.423 182.469Z" fill="#897998"/>
</g>
<path d="M118.435 110.516L114.31 112.897V104.96L118.435 102.579V110.516Z" fill="#3C606C"/>
<path d="M124.063 107.244L119.962 109.637V101.7L124.075 99.3188L124.063 107.244Z" fill="#3C606C"/>
<path d="M129.716 103.998L125.591 106.379V98.4415L129.716 96.0723V103.998Z" fill="#3C606C"/>
<path d="M135.344 100.738L131.231 103.132V95.1942L135.356 92.813L135.344 100.738Z" fill="#3C606C"/>
<path d="M140.985 97.4791L136.872 99.8723V91.9349L140.997 89.5537L140.985 97.4791Z" fill="#3C606C"/>
<path d="M146.625 94.2203L142.512 96.6135V88.6761L146.637 86.2949L146.625 94.2203Z" fill="#3C606C"/>
<path d="M152.265 90.9722L148.152 93.3534V85.4281L152.277 83.0469L152.265 90.9722Z" fill="#3C606C"/>
<path d="M157.905 79.7769V87.7142L153.792 90.1075V82.1701L156.498 80.5946L157.905 79.7769Z" fill="#3C606C"/>
<path d="M157.905 79.7769V87.7142L156.498 86.8964V80.5946L157.905 79.7769Z" fill="#BDA195"/>
<path d="M157.905 87.7143L153.792 90.1075V88.4719L156.498 86.8965L157.905 87.7143Z" fill="#F8F6E1"/>
<g style="mix-blend-mode:multiply">
<path d="M157.905 87.7138H155.103V82.4944L153.792 83.216V82.1697L156.498 80.5942V86.896L157.905 87.7138Z" fill="#897998"/>
</g>
<path d="M152.265 83.0356V90.973L150.87 90.1552V83.8534L152.265 83.0356Z" fill="#BDA195"/>
<path d="M152.265 90.9731L148.152 93.3543V91.7307L150.87 90.1553L152.265 90.9731Z" fill="#F8F6E1"/>
<g style="mix-blend-mode:multiply">
<path d="M152.265 90.9726H149.463V85.7412L148.152 86.4627V85.4285L150.87 83.853V90.1548L152.265 90.9726Z" fill="#897998"/>
</g>
<path d="M146.625 86.2949V94.2203L145.23 93.4145V87.1007L146.625 86.2949Z" fill="#BDA195"/>
<path d="M146.625 94.2198L142.512 96.6131V94.9895L145.23 93.4141L146.625 94.2198Z" fill="#F8F6E1"/>
<g style="mix-blend-mode:multiply">
<path d="M146.625 94.2202H143.823V89.0007L142.512 89.7223V88.676L145.23 87.1006V93.4144L146.625 94.2202Z" fill="#897998"/>
</g>
<path d="M140.985 89.5415V97.4789L139.59 96.6611V90.3593L140.985 89.5415Z" fill="#BDA195"/>
<path d="M140.985 97.4789L136.872 99.8722V98.2366L139.59 96.6611L140.985 97.4789Z" fill="#F8F6E1"/>
<g style="mix-blend-mode:multiply">
<path d="M140.985 97.479H138.194V92.2595L136.872 92.9811V91.9348L139.59 90.3594V96.6612L140.985 97.479Z" fill="#897998"/>
</g>
<path d="M135.344 92.8013V100.739L133.949 99.9208V93.6191L135.344 92.8013Z" fill="#BDA195"/>
<path d="M135.344 100.739L131.231 103.132V101.496L133.949 99.9209L135.344 100.739Z" fill="#F8F6E1"/>
<g style="mix-blend-mode:multiply">
<path d="M135.344 100.738H132.554V95.5068L131.231 96.2404V95.1941L133.949 93.6187V99.9204L135.344 100.738Z" fill="#897998"/>
</g>
<path d="M129.716 96.0601V103.997L128.309 103.18V96.8778L129.716 96.0601Z" fill="#BDA195"/>
<path d="M129.716 103.997L125.591 106.379V104.755L128.309 103.18L129.716 103.997Z" fill="#F8F6E1"/>
<g style="mix-blend-mode:multiply">
<path d="M129.716 103.998H126.914V98.7661L125.591 99.4876V98.4534L128.309 96.8779V103.18L129.716 103.998Z" fill="#897998"/>
</g>
<path d="M124.064 99.3188V107.244L122.668 106.438V100.125L124.064 99.3188Z" fill="#BDA195"/>
<path d="M124.063 107.245L119.962 109.638V108.014L122.668 106.439L124.063 107.245Z" fill="#F8F6E1"/>
<g style="mix-blend-mode:multiply">
<path d="M124.063 107.245H121.273V102.025L119.962 102.747V101.7L122.668 100.125V106.439L124.063 107.245Z" fill="#897998"/>
</g>
<path d="M118.423 102.579V110.504L117.028 109.686V103.384L118.423 102.579Z" fill="#BDA195"/>
<path d="M118.423 110.503L114.31 112.897V111.273L117.028 109.686L118.423 110.503Z" fill="#F8F6E1"/>
<g style="mix-blend-mode:multiply">
<path d="M118.423 110.504H115.633V105.284L114.31 106.006V104.96L117.028 103.384V109.686L118.423 110.504Z" fill="#897998"/>
</g>
<path d="M118.255 89.8544L114.31 92.3438V76.4691L118.435 74.0879L118.255 89.8544Z" fill="#3C606C"/>
<path d="M123.823 86.4986L119.962 89.0843V73.2215L124.075 70.8403L123.823 86.4986Z" fill="#3C606C"/>
<path d="M129.271 83.1802L125.591 85.826V69.9632L129.716 67.582L129.271 83.1802Z" fill="#3C606C"/>
<path d="M135.032 80.1374L131.231 82.5667V66.704L135.356 64.3228L135.032 80.1374Z" fill="#3C606C"/>
<path d="M140.684 76.83L136.872 79.3194V63.4447L140.997 61.0635L140.684 76.83Z" fill="#3C606C"/>
<path d="M146.108 73.5704L142.512 76.0598V60.1851L146.637 57.8159L146.108 73.5704Z" fill="#3C606C"/>
<path d="M151.736 70.3116L148.152 72.801V56.9383L152.277 54.5571L151.736 70.3116Z" fill="#3C606C"/>
<path d="M157.905 51.2979V67.1606L153.792 69.5538V53.6911L156.498 52.1036L157.905 51.2979Z" fill="#3C606C"/>
<path d="M157.905 51.2979V67.1606L156.498 66.3428V52.1036L157.905 51.2979Z" fill="#BDA195"/>
<path d="M157.905 67.1611L153.792 69.5543V67.9307L156.498 66.3433L157.905 67.1611Z" fill="#F8F6E1"/>
<g style="mix-blend-mode:multiply">
<path d="M157.905 67.161H155.103V54.0042L153.792 54.7257V53.6915L156.498 52.104V66.3432L157.905 67.161Z" fill="#897998"/>
</g>
<path d="M152.265 54.5454V70.4081L150.87 69.6024V55.3632L152.265 54.5454Z" fill="#BDA195"/>
<path d="M152.265 70.4083L148.152 72.8015V71.178L150.87 69.6025L152.265 70.4083Z" fill="#F8F6E1"/>
<g style="mix-blend-mode:multiply">
<path d="M152.265 70.4077H149.463V57.263L148.152 57.9845V56.9382L150.87 55.3628V69.602L152.265 70.4077Z" fill="#897998"/>
</g>
<path d="M146.625 57.8047V73.6674L145.23 72.8616V58.6225L146.625 57.8047Z" fill="#BDA195"/>
<path d="M146.625 73.6671L142.512 76.0603V74.4368L145.23 72.8613L146.625 73.6671Z" fill="#F8F6E1"/>
<g style="mix-blend-mode:multiply">
<path d="M146.625 73.667H143.823V60.5102L142.512 61.2438V60.1975L145.23 58.6221V72.8612L146.625 73.667Z" fill="#897998"/>
</g>
<path d="M140.985 61.0635V76.9262L139.59 76.1084V61.8813L140.985 61.0635Z" fill="#BDA195"/>
<path d="M140.985 76.9262L136.872 79.3194V77.6838L139.59 76.1084L140.985 76.9262Z" fill="#F8F6E1"/>
<g style="mix-blend-mode:multiply">
<path d="M140.985 76.9258H138.194V63.769L136.872 64.4906V63.4563L139.59 61.8809V76.108L140.985 76.9258Z" fill="#897998"/>
</g>
<path d="M135.344 64.3228V80.1855L133.949 79.3677V65.1285L135.344 64.3228Z" fill="#BDA195"/>
<path d="M135.344 80.185L131.231 82.5662V80.9426L133.949 79.3672L135.344 80.185Z" fill="#F8F6E1"/>
<g style="mix-blend-mode:multiply">
<path d="M135.344 80.1854H132.554V67.0286L131.231 67.7502V66.7039L133.949 65.1284V79.3676L135.344 80.1854Z" fill="#897998"/>
</g>
<path d="M129.716 67.5688V83.4436L128.309 82.6258V68.3866L129.716 67.5688Z" fill="#BDA195"/>
<path d="M129.716 83.4443L125.591 85.8255V84.2019L128.309 82.6265L129.716 83.4443Z" fill="#F8F6E1"/>
<g style="mix-blend-mode:multiply">
<path d="M129.716 83.4446H126.914V70.2879L125.591 71.0094V69.9631L128.309 68.3877V82.6269L129.716 83.4446Z" fill="#897998"/>
</g>
<path d="M124.064 70.8291V86.6918L122.668 85.8861V71.6469L124.064 70.8291Z" fill="#BDA195"/>
<path d="M124.063 86.692L119.962 89.0852V87.4617L122.668 85.8862L124.063 86.692Z" fill="#F8F6E1"/>
<g style="mix-blend-mode:multiply">
<path d="M124.063 86.6914H121.273V73.5346L119.962 74.2682V73.2219L122.668 71.6465V85.8856L124.063 86.6914Z" fill="#897998"/>
</g>
<path d="M118.423 74.0879V89.9506L117.028 89.1448V74.9057L118.423 74.0879Z" fill="#BDA195"/>
<path d="M118.423 89.9508L114.31 92.344V90.7205L117.028 89.145L118.423 89.9508Z" fill="#F8F6E1"/>
<g style="mix-blend-mode:multiply">
<path d="M118.423 89.9507H115.633V76.7939L114.31 77.5155V76.4812L117.028 74.9058V89.1449L118.423 89.9507Z" fill="#897998"/>
</g>
<path d="M104.413 100.233L108.538 102.614V94.6771L104.413 92.2959V100.233Z" fill="#182440"/>
<path d="M98.784 96.9621L102.885 99.3554V91.418L98.772 89.0488L98.784 96.9621Z" fill="#182440"/>
<path d="M93.1316 93.7149L97.2446 96.0961V88.1708L93.1316 85.7896V93.7149Z" fill="#182440"/>
<path d="M87.4912 90.4561L91.6162 92.8493V84.912L87.4912 82.5308V90.4561Z" fill="#182440"/>
<path d="M81.8511 87.1968L85.9761 89.5901V81.6527L81.8511 79.2715V87.1968Z" fill="#182440"/>
<path d="M76.223 83.9377L80.336 86.331V78.3936L76.2109 76.0244L76.223 83.9377Z" fill="#182440"/>
<path d="M70.5823 80.6905L74.6953 83.0717V75.1463L70.5703 72.7651L70.5823 80.6905Z" fill="#182440"/>
<path d="M64.9421 69.5063V77.4317L69.0551 79.8249V71.8876L66.3492 70.3121L64.9421 69.5063Z" fill="#182440"/>
<path d="M64.9421 69.5063V77.4317L66.3492 76.6259V70.3121L64.9421 69.5063Z" fill="#AF8D7F"/>
<path d="M64.9421 77.4313L69.0551 79.8245V78.2009L66.3492 76.6255L64.9421 77.4313Z" fill="#D1BBB2"/>
<path d="M70.5825 72.7534V80.6908L71.9776 79.873V73.5712L70.5825 72.7534Z" fill="#AF8D7F"/>
<path d="M70.5825 80.6908L74.6955 83.072V81.4485L71.9776 79.873L70.5825 80.6908Z" fill="#D1BBB2"/>
<path d="M76.2227 76.0117V83.9371L77.6177 83.1313V76.8295L76.2227 76.0117Z" fill="#AF8D7F"/>
<path d="M76.2227 83.9376L80.3357 86.3308V84.7073L77.6177 83.1318L76.2227 83.9376Z" fill="#D1BBB2"/>
<path d="M81.8511 79.2715V87.1968L83.2582 86.3911V80.0772L81.8511 79.2715Z" fill="#AF8D7F"/>
<path d="M81.8511 87.1964L85.9761 89.5896V87.9661L83.2582 86.3906L81.8511 87.1964Z" fill="#D1BBB2"/>
<path d="M87.4912 82.5181V90.4554L88.8983 89.6377V83.3359L87.4912 82.5181Z" fill="#AF8D7F"/>
<path d="M87.4912 90.4555L91.6162 92.8487V91.2131L88.8983 89.6377L87.4912 90.4555Z" fill="#D1BBB2"/>
<path d="M93.1316 85.7778V93.7152L94.5387 92.8974V86.5956L93.1316 85.7778Z" fill="#AF8D7F"/>
<path d="M93.1316 93.7148L97.2446 96.096V94.4724L94.5387 92.897L93.1316 93.7148Z" fill="#D1BBB2"/>
<path d="M98.7842 89.0366V96.962L100.179 96.1562V89.8544L98.7842 89.0366Z" fill="#AF8D7F"/>
<path d="M98.7842 96.962L102.885 99.3552V97.7317L100.179 96.1562L98.7842 96.962Z" fill="#D1BBB2"/>
<path d="M104.413 92.2959V100.221L105.82 99.4155V93.1017L104.413 92.2959Z" fill="#AF8D7F"/>
<path d="M104.413 100.221L108.538 102.615V100.991L105.82 99.4155L104.413 100.221Z" fill="#D1BBB2"/>
<path d="M104.413 120.798L108.538 123.179V115.242L104.413 112.86V120.798Z" fill="#182440"/>
<path d="M98.784 117.527L102.885 119.921V111.983L98.772 109.602L98.784 117.527Z" fill="#182440"/>
<path d="M93.1316 114.268L97.2446 116.661V108.723L93.1316 106.342V114.268Z" fill="#182440"/>
<path d="M87.4912 111.021L91.6162 113.402V105.477L87.4912 103.096V111.021Z" fill="#182440"/>
<path d="M81.8511 107.761L85.9761 110.155V102.217L81.8511 99.8359V107.761Z" fill="#182440"/>
<path d="M76.223 104.502L80.336 106.896V98.9584L76.2109 96.5771L76.223 104.502Z" fill="#182440"/>
<path d="M70.5823 101.243L74.6953 103.636V95.6991L70.5703 93.3179L70.5823 101.243Z" fill="#182440"/>
<path d="M64.9421 90.0591V97.9964L69.0551 100.378V92.4523L66.3492 90.8769L64.9421 90.0591Z" fill="#182440"/>
<path d="M64.9421 90.0591V97.9964L66.3492 97.1787V90.8769L64.9421 90.0591Z" fill="#AF8D7F"/>
<path d="M64.9421 97.996L69.0551 100.377V98.7537L66.3492 97.1782L64.9421 97.996Z" fill="#D1BBB2"/>
<path d="M70.5825 93.3179V101.243L71.9776 100.437V94.1236L70.5825 93.3179Z" fill="#AF8D7F"/>
<path d="M70.5825 101.243L74.6955 103.637V102.013L71.9776 100.438L70.5825 101.243Z" fill="#D1BBB2"/>
<path d="M76.2227 96.5654V104.503L77.6177 103.685V97.3832L76.2227 96.5654Z" fill="#AF8D7F"/>
<path d="M76.2227 104.502L80.3357 106.896V105.272L77.6177 103.685L76.2227 104.502Z" fill="#D1BBB2"/>
<path d="M81.8511 99.8247V107.762L83.2582 106.944V100.642L81.8511 99.8247Z" fill="#AF8D7F"/>
<path d="M81.8511 107.762L85.9761 110.155V108.52L83.2582 106.944L81.8511 107.762Z" fill="#D1BBB2"/>
<path d="M87.4912 103.083V111.021L88.8983 110.203V103.901L87.4912 103.083Z" fill="#AF8D7F"/>
<path d="M87.4912 111.02L91.6162 113.402V111.778L88.8983 110.203L87.4912 111.02Z" fill="#D1BBB2"/>
<path d="M93.1316 106.342V114.268L94.5387 113.462V107.148L93.1316 106.342Z" fill="#AF8D7F"/>
<path d="M93.1316 114.268L97.2446 116.661V115.037L94.5387 113.462L93.1316 114.268Z" fill="#D1BBB2"/>
<path d="M98.7842 109.589V117.527L100.179 116.709V110.407L98.7842 109.589Z" fill="#AF8D7F"/>
<path d="M98.7842 117.527L102.885 119.92V118.296L100.179 116.709L98.7842 117.527Z" fill="#D1BBB2"/>
<path d="M104.413 112.849V120.786L105.82 119.969V113.667L104.413 112.849Z" fill="#AF8D7F"/>
<path d="M104.413 120.787L108.538 123.18V121.544L105.82 119.969L104.413 120.787Z" fill="#D1BBB2"/>
<path d="M104.413 131.069L108.538 133.45V125.525L104.413 123.144V131.069Z" fill="#182440"/>
<path d="M98.784 127.809L102.885 130.202V122.265L98.772 119.884L98.784 127.809Z" fill="#182440"/>
<path d="M93.1316 124.55L97.2446 126.943V119.006L93.1316 116.625V124.55Z" fill="#182440"/>
<path d="M87.4912 121.291L91.6162 123.684V115.747L87.4912 113.366V121.291Z" fill="#182440"/>
<path d="M81.8511 118.045L85.9761 120.426V112.501L81.8511 110.12V118.045Z" fill="#182440"/>
<path d="M76.223 114.785L80.336 117.178V109.241L76.2109 106.86L76.223 114.785Z" fill="#182440"/>
<path d="M70.5823 111.526L74.6953 113.92V105.982L70.5703 103.601L70.5823 111.526Z" fill="#182440"/>
<path d="M64.9421 100.341V108.278L69.0551 110.659V102.734L66.3492 101.159L64.9421 100.341Z" fill="#182440"/>
<path d="M64.9421 100.341V108.278L66.3492 107.46V101.159L64.9421 100.341Z" fill="#AF8D7F"/>
<path d="M64.9421 108.279L69.0551 110.66V109.037L66.3492 107.461L64.9421 108.279Z" fill="#D1BBB2"/>
<path d="M70.5825 103.601V111.526L71.9776 110.721V104.407L70.5825 103.601Z" fill="#AF8D7F"/>
<path d="M70.5825 111.526L74.6955 113.919V112.296L71.9776 110.72L70.5825 111.526Z" fill="#D1BBB2"/>
<path d="M76.2227 106.848V114.785L77.6177 113.967V107.665L76.2227 106.848Z" fill="#AF8D7F"/>
<path d="M76.2227 114.785L80.3357 117.178V115.543L77.6177 113.967L76.2227 114.785Z" fill="#D1BBB2"/>
<path d="M81.8511 110.106V118.044L83.2582 117.226V110.924L81.8511 110.106Z" fill="#AF8D7F"/>
<path d="M81.8511 118.044L85.9761 120.425V118.802L83.2582 117.226L81.8511 118.044Z" fill="#D1BBB2"/>
<path d="M87.4912 113.366V121.291L88.8983 120.485V114.171L87.4912 113.366Z" fill="#AF8D7F"/>
<path d="M87.4912 121.291L91.6162 123.684V122.06L88.8983 120.485L87.4912 121.291Z" fill="#D1BBB2"/>
<path d="M93.1316 116.625V124.55L94.5387 123.744V117.43L93.1316 116.625Z" fill="#AF8D7F"/>
<path d="M93.1316 124.551L97.2446 126.944V125.321L94.5387 123.745L93.1316 124.551Z" fill="#D1BBB2"/>
<path d="M98.7842 119.873V127.81L100.179 126.992V120.69L98.7842 119.873Z" fill="#AF8D7F"/>
<path d="M98.7842 127.809L102.885 130.203V128.567L100.179 126.992L98.7842 127.809Z" fill="#D1BBB2"/>
<path d="M104.413 123.131V131.068L105.82 130.25V123.949L104.413 123.131Z" fill="#AF8D7F"/>
<path d="M104.413 131.069L108.538 133.45V131.826L105.82 130.251L104.413 131.069Z" fill="#D1BBB2"/>
<path d="M104.413 141.351L108.538 143.732V135.795L104.413 133.414V141.351Z" fill="#182440"/>
<path d="M98.784 138.092L102.885 140.474V132.548L98.772 130.167L98.784 138.092Z" fill="#182440"/>
<path d="M93.1316 134.833L97.2446 137.226V129.289L93.1316 126.908V134.833Z" fill="#182440"/>
<path d="M87.4912 131.574L91.6162 133.967V126.03L87.4912 123.648V131.574Z" fill="#182440"/>
<path d="M81.8511 128.315L85.9761 130.708V122.771L81.8511 120.39V128.315Z" fill="#182440"/>
<path d="M76.223 125.067L80.336 127.448V119.523L76.2109 117.142L76.223 125.067Z" fill="#182440"/>
<path d="M70.5823 121.809L74.6953 124.202V116.265L70.5703 113.883L70.5823 121.809Z" fill="#182440"/>
<path d="M64.9421 110.624V118.549L69.0551 120.943V113.005L66.3492 111.43L64.9421 110.624Z" fill="#182440"/>
<path d="M64.9421 110.624V118.549L66.3492 117.744V111.43L64.9421 110.624Z" fill="#AF8D7F"/>
<path d="M64.9421 118.549L69.0551 120.943V119.319L66.3492 117.744L64.9421 118.549Z" fill="#D1BBB2"/>
<path d="M70.5825 113.871V121.808L71.9776 120.99V114.688L70.5825 113.871Z" fill="#AF8D7F"/>
<path d="M70.5825 121.809L74.6955 124.202V122.566L71.9776 120.991L70.5825 121.809Z" fill="#D1BBB2"/>
<path d="M76.2227 117.13V125.068L77.6177 124.25V117.948L76.2227 117.13Z" fill="#AF8D7F"/>
<path d="M76.2227 125.068L80.3357 127.449V125.825L77.6177 124.25L76.2227 125.068Z" fill="#D1BBB2"/>
<path d="M81.8511 120.39V128.315L83.2582 127.509V121.207L81.8511 120.39Z" fill="#AF8D7F"/>
<path d="M81.8511 128.315L85.9761 130.708V129.084L83.2582 127.509L81.8511 128.315Z" fill="#D1BBB2"/>
<path d="M87.4912 123.648V131.574L88.8983 130.768V124.454L87.4912 123.648Z" fill="#AF8D7F"/>
<path d="M87.4912 131.574L91.6162 133.968V132.344L88.8983 130.769L87.4912 131.574Z" fill="#D1BBB2"/>
<path d="M93.1316 126.896V134.833L94.5387 134.015V127.713L93.1316 126.896Z" fill="#AF8D7F"/>
<path d="M93.1316 134.833L97.2446 137.226V135.591L94.5387 134.015L93.1316 134.833Z" fill="#D1BBB2"/>
<path d="M98.7842 130.154V138.092L100.179 137.274V130.972L98.7842 130.154Z" fill="#AF8D7F"/>
<path d="M98.7842 138.092L102.885 140.473V138.849L100.179 137.274L98.7842 138.092Z" fill="#D1BBB2"/>
<path d="M104.413 133.414V141.351L105.82 140.533V134.219L104.413 133.414Z" fill="#AF8D7F"/>
<path d="M104.413 141.351L108.538 143.733V142.109L105.82 140.534L104.413 141.351Z" fill="#D1BBB2"/>
<path d="M104.413 151.634L108.538 154.015V146.077L104.413 143.696V151.634Z" fill="#182440"/>
<path d="M98.784 148.374L102.885 150.755V142.818L98.772 140.449L98.784 148.374Z" fill="#182440"/>
<path d="M93.1316 145.116L97.2446 147.497V139.572L93.1316 137.19V145.116Z" fill="#182440"/>
<path d="M87.4912 141.856L91.6162 144.249V136.312L87.4912 133.931V141.856Z" fill="#182440"/>
<path d="M81.8511 138.597L85.9761 140.99V133.053L81.8511 130.672V138.597Z" fill="#182440"/>
<path d="M76.223 135.35L80.336 137.731V129.794L76.2109 127.424L76.223 135.35Z" fill="#182440"/>
<path d="M70.5823 132.09L74.6953 134.472V126.546L70.5703 124.165L70.5823 132.09Z" fill="#182440"/>
<path d="M64.9421 120.906V128.832L69.0551 131.225V123.287L66.3492 121.712L64.9421 120.906Z" fill="#182440"/>
<path d="M64.9421 120.906V128.832L66.3492 128.026V121.712L64.9421 120.906Z" fill="#AF8D7F"/>
<path d="M64.9421 128.832L69.0551 131.225V129.601L66.3492 128.026L64.9421 128.832Z" fill="#D1BBB2"/>
<path d="M70.5825 124.154V132.091L71.9776 131.273V124.972L70.5825 124.154Z" fill="#AF8D7F"/>
<path d="M70.5825 132.091L74.6955 134.472V132.848L71.9776 131.273L70.5825 132.091Z" fill="#D1BBB2"/>
<path d="M76.2227 127.412V135.349L77.6177 134.532V128.23L76.2227 127.412Z" fill="#AF8D7F"/>
<path d="M76.2227 135.35L80.3357 137.731V136.108L77.6177 134.532L76.2227 135.35Z" fill="#D1BBB2"/>
<path d="M81.8511 130.672V138.597L83.2582 137.791V131.478L81.8511 130.672Z" fill="#AF8D7F"/>
<path d="M81.8511 138.597L85.9761 140.99V139.366L83.2582 137.791L81.8511 138.597Z" fill="#D1BBB2"/>
<path d="M87.4912 133.919V141.856L88.8983 141.039V134.737L87.4912 133.919Z" fill="#AF8D7F"/>
<path d="M87.4912 141.857L91.6162 144.25V142.627L88.8983 141.039L87.4912 141.857Z" fill="#D1BBB2"/>
<path d="M93.1316 137.178V145.116L94.5387 144.298V137.996L93.1316 137.178Z" fill="#AF8D7F"/>
<path d="M93.1316 145.115L97.2446 147.496V145.873L94.5387 144.297L93.1316 145.115Z" fill="#D1BBB2"/>
<path d="M98.7842 140.438V148.375L100.179 147.557V141.255L98.7842 140.438Z" fill="#AF8D7F"/>
<path d="M98.7842 148.375L102.885 150.756V149.133L100.179 147.557L98.7842 148.375Z" fill="#D1BBB2"/>
<path d="M104.413 143.696V151.622L105.82 150.816V144.502L104.413 143.696Z" fill="#AF8D7F"/>
<path d="M104.413 151.622L108.538 154.015V152.391L105.82 150.816L104.413 151.622Z" fill="#D1BBB2"/>
<path d="M104.413 161.916L108.538 164.297V156.36L104.413 153.979V161.916Z" fill="#182440"/>
<path d="M98.784 158.645L102.885 161.038V153.1L98.772 150.719L98.784 158.645Z" fill="#182440"/>
<path d="M93.1316 155.398L97.2446 157.779V149.842L93.1316 147.473V155.398Z" fill="#182440"/>
<path d="M87.4912 152.139L91.6162 154.532V146.595L87.4912 144.214V152.139Z" fill="#182440"/>
<path d="M81.8511 148.879L85.9761 151.273V143.335L81.8511 140.954V148.879Z" fill="#182440"/>
<path d="M76.223 145.62L80.336 148.013V140.076L76.2109 137.695L76.223 145.62Z" fill="#182440"/>
<path d="M70.5823 142.362L74.6953 144.755V136.817L70.5703 134.448L70.5823 142.362Z" fill="#182440"/>
<path d="M64.9421 131.177V139.114L69.0551 141.507V133.57L66.3492 131.995L64.9421 131.177Z" fill="#182440"/>
<path d="M64.9421 131.177V139.114L66.3492 138.296V131.995L64.9421 131.177Z" fill="#AF8D7F"/>
<path d="M64.9421 139.114L69.0551 141.507V139.884L66.3492 138.296L64.9421 139.114Z" fill="#D1BBB2"/>
<path d="M70.5825 134.436V142.361L71.9776 141.555V135.241L70.5825 134.436Z" fill="#AF8D7F"/>
<path d="M70.5825 142.36L74.6955 144.754V143.13L71.9776 141.555L70.5825 142.36Z" fill="#D1BBB2"/>
<path d="M76.2227 137.695V145.62L77.6177 144.814V138.501L76.2227 137.695Z" fill="#AF8D7F"/>
<path d="M76.2227 145.621L80.3357 148.014V146.39L77.6177 144.815L76.2227 145.621Z" fill="#D1BBB2"/>
<path d="M81.8511 140.942V148.88L83.2582 148.062V141.76L81.8511 140.942Z" fill="#AF8D7F"/>
<path d="M81.8511 148.879L85.9761 151.273V149.649L83.2582 148.062L81.8511 148.879Z" fill="#D1BBB2"/>
<path d="M87.4912 144.201V152.139L88.8983 151.321V145.019L87.4912 144.201Z" fill="#AF8D7F"/>
<path d="M87.4912 152.139L91.6162 154.532V152.896L88.8983 151.321L87.4912 152.139Z" fill="#D1BBB2"/>
<path d="M93.1316 147.461V155.398L94.5387 154.581V148.279L93.1316 147.461Z" fill="#AF8D7F"/>
<path d="M93.1316 155.398L97.2446 157.779V156.156L94.5387 154.58L93.1316 155.398Z" fill="#D1BBB2"/>
<path d="M98.7842 150.719V158.645L100.179 157.839V151.525L98.7842 150.719Z" fill="#AF8D7F"/>
<path d="M98.7842 158.645L102.885 161.038V159.414L100.179 157.839L98.7842 158.645Z" fill="#D1BBB2"/>
<path d="M104.413 153.979V161.904L105.82 161.086V154.784L104.413 153.979Z" fill="#AF8D7F"/>
<path d="M104.413 161.904L108.538 164.297V162.674L105.82 161.086L104.413 161.904Z" fill="#D1BBB2"/>
<path d="M104.413 172.199L108.538 174.568V166.643L104.413 164.262V172.199Z" fill="#182440"/>
<path d="M98.784 168.928L102.885 171.321V163.384L98.772 161.002L98.784 168.928Z" fill="#182440"/>
<path d="M93.1316 165.669L97.2446 168.062V160.124L93.1316 157.743V165.669Z" fill="#182440"/>
<path d="M87.4912 162.421L91.6162 164.803V156.865L87.4912 154.496V162.421Z" fill="#182440"/>
<path d="M81.8511 159.162L85.9761 161.555V153.618L81.8511 151.237V159.162Z" fill="#182440"/>
<path d="M76.223 155.903L80.336 158.297V150.359L76.2109 147.978L76.223 155.903Z" fill="#182440"/>
<path d="M70.5823 152.644L74.6953 155.037V147.1L70.5703 144.719L70.5823 152.644Z" fill="#182440"/>
<path d="M64.9421 141.459V149.397L69.0551 151.778V143.853L66.3492 142.277L64.9421 141.459Z" fill="#182440"/>
<path d="M64.9421 141.459V149.397L66.3492 148.579V142.277L64.9421 141.459Z" fill="#AF8D7F"/>
<path d="M64.9421 149.396L69.0551 151.778V150.154L66.3492 148.579L64.9421 149.396Z" fill="#D1BBB2"/>
<path d="M70.5825 144.719V152.644L71.9776 151.838V145.525L70.5825 144.719Z" fill="#AF8D7F"/>
<path d="M70.5825 152.644L74.6955 155.037V153.414L71.9776 151.838L70.5825 152.644Z" fill="#D1BBB2"/>
<path d="M76.2227 147.978V155.903L77.6177 155.098V148.784L76.2227 147.978Z" fill="#AF8D7F"/>
<path d="M76.2227 155.903L80.3357 158.296V156.673L77.6177 155.097L76.2227 155.903Z" fill="#D1BBB2"/>
<path d="M81.8511 151.225V159.162L83.2582 158.344V152.042L81.8511 151.225Z" fill="#AF8D7F"/>
<path d="M81.8511 159.163L85.9761 161.556V159.92L83.2582 158.345L81.8511 159.163Z" fill="#D1BBB2"/>
<path d="M87.4912 154.483V162.42L88.8983 161.602V155.301L87.4912 154.483Z" fill="#AF8D7F"/>
<path d="M87.4912 162.422L91.6162 164.803V163.179L88.8983 161.604L87.4912 162.422Z" fill="#D1BBB2"/>
<path d="M93.1316 157.743V165.669L94.5387 164.863V158.549L93.1316 157.743Z" fill="#AF8D7F"/>
<path d="M93.1316 165.669L97.2446 168.062V166.438L94.5387 164.863L93.1316 165.669Z" fill="#D1BBB2"/>
<path d="M98.7842 161.002V168.928L100.179 168.11V161.808L98.7842 161.002Z" fill="#AF8D7F"/>
<path d="M98.7842 168.928L102.885 171.321V169.697L100.179 168.11L98.7842 168.928Z" fill="#D1BBB2"/>
<path d="M104.413 164.249V172.186L105.82 171.369V165.067L104.413 164.249Z" fill="#AF8D7F"/>
<path d="M104.413 172.186L108.538 174.567V172.944L105.82 171.368L104.413 172.186Z" fill="#D1BBB2"/>
<path d="M104.413 182.469L108.538 184.85V176.925L104.413 174.543V182.469Z" fill="#182440"/>
<path d="M98.784 179.21L102.885 181.603V173.666L98.772 171.285L98.784 179.21Z" fill="#182440"/>
<path d="M93.1316 175.951L97.2446 178.344V170.407L93.1316 168.025V175.951Z" fill="#182440"/>
<path d="M87.4912 172.692L91.6162 175.085V167.148L87.4912 164.767V172.692Z" fill="#182440"/>
<path d="M81.8511 169.444L85.9761 171.826V163.9L81.8511 161.519V169.444Z" fill="#182440"/>
<path d="M76.223 166.186L80.336 168.567V160.641L76.2109 158.26L76.223 166.186Z" fill="#182440"/>
<path d="M70.5823 162.926L74.6953 165.319V157.382L70.5703 155L70.5823 162.926Z" fill="#182440"/>
<path d="M64.9421 151.742V159.68L69.0551 162.061V154.135L66.3492 152.56L64.9421 151.742Z" fill="#182440"/>
<path d="M64.9421 151.742V159.68L66.3492 158.862V152.56L64.9421 151.742Z" fill="#AF8D7F"/>
<path d="M64.9421 159.68L69.0551 162.061V160.437L66.3492 158.862L64.9421 159.68Z" fill="#D1BBB2"/>
<path d="M70.5825 154.989V162.927L71.9776 162.121V155.807L70.5825 154.989Z" fill="#AF8D7F"/>
<path d="M70.5825 162.926L74.6955 165.32V163.696L71.9776 162.121L70.5825 162.926Z" fill="#D1BBB2"/>
<path d="M76.2227 158.249V166.186L77.6177 165.368V159.066L76.2227 158.249Z" fill="#AF8D7F"/>
<path d="M76.2227 166.185L80.3357 168.567V166.943L77.6177 165.368L76.2227 166.185Z" fill="#D1BBB2"/>
<path d="M81.8511 161.507V169.445L83.2582 168.627V162.325L81.8511 161.507Z" fill="#AF8D7F"/>
<path d="M81.8511 169.445L85.9761 171.826V170.202L83.2582 168.627L81.8511 169.445Z" fill="#D1BBB2"/>
<path d="M87.4912 164.767V172.692L88.8983 171.886V165.572L87.4912 164.767Z" fill="#AF8D7F"/>
<path d="M87.4912 172.692L91.6162 175.085V173.461L88.8983 171.886L87.4912 172.692Z" fill="#D1BBB2"/>
<path d="M93.1316 168.025V175.951L94.5387 175.133V168.831L93.1316 168.025Z" fill="#AF8D7F"/>
<path d="M93.1316 175.952L97.2446 178.345V176.721L94.5387 175.134L93.1316 175.952Z" fill="#D1BBB2"/>
<path d="M98.7842 171.273V179.21L100.179 178.393V172.091L98.7842 171.273Z" fill="#AF8D7F"/>
<path d="M98.7842 179.21L102.885 181.603V179.968L100.179 178.392L98.7842 179.21Z" fill="#D1BBB2"/>
<path d="M104.413 174.532V182.47L105.82 181.652V175.35L104.413 174.532Z" fill="#AF8D7F"/>
<path d="M104.413 182.47L108.538 184.851V183.227L105.82 181.652L104.413 182.47Z" fill="#D1BBB2"/>
<path d="M104.413 110.516L108.538 112.897V104.96L104.413 102.579V110.516Z" fill="#182440"/>
<path d="M98.784 107.244L102.885 109.637V101.7L98.772 99.3188L98.784 107.244Z" fill="#182440"/>
<path d="M93.1316 103.998L97.2446 106.379V98.4415L93.1316 96.0723V103.998Z" fill="#182440"/>
<path d="M87.4912 100.738L91.6162 103.132V95.1942L87.4912 92.813V100.738Z" fill="#182440"/>
<path d="M81.8511 97.4791L85.9761 99.8723V91.9349L81.8511 89.5537V97.4791Z" fill="#182440"/>
<path d="M76.223 94.2203L80.336 96.6135V88.6761L76.2109 86.2949L76.223 94.2203Z" fill="#182440"/>
<path d="M70.5823 90.9722L74.6953 93.3534V85.4281L70.5703 83.0469L70.5823 90.9722Z" fill="#182440"/>
<path d="M64.9421 79.7769V87.7142L69.0551 90.1075V82.1701L66.3492 80.5946L64.9421 79.7769Z" fill="#182440"/>
<path d="M64.9421 79.7769V87.7142L66.3492 86.8964V80.5946L64.9421 79.7769Z" fill="#AF8D7F"/>
<path d="M64.9421 87.7143L69.0551 90.1075V88.4719L66.3492 86.8965L64.9421 87.7143Z" fill="#D1BBB2"/>
<path d="M70.5825 83.0356V90.973L71.9776 90.1552V83.8534L70.5825 83.0356Z" fill="#AF8D7F"/>
<path d="M70.5825 90.9731L74.6955 93.3543V91.7307L71.9776 90.1553L70.5825 90.9731Z" fill="#D1BBB2"/>
<path d="M76.2227 86.2949V94.2203L77.6177 93.4145V87.1007L76.2227 86.2949Z" fill="#AF8D7F"/>
<path d="M76.2227 94.2198L80.3357 96.6131V94.9895L77.6177 93.4141L76.2227 94.2198Z" fill="#D1BBB2"/>
<path d="M81.8511 89.5415V97.4789L83.2582 96.6611V90.3593L81.8511 89.5415Z" fill="#AF8D7F"/>
<path d="M81.8511 97.4789L85.9761 99.8722V98.2366L83.2582 96.6611L81.8511 97.4789Z" fill="#D1BBB2"/>
<path d="M87.4912 92.8013V100.739L88.8983 99.9208V93.6191L87.4912 92.8013Z" fill="#AF8D7F"/>
<path d="M87.4912 100.739L91.6162 103.132V101.496L88.8983 99.9209L87.4912 100.739Z" fill="#D1BBB2"/>
<path d="M93.1316 96.0601V103.997L94.5387 103.18V96.8778L93.1316 96.0601Z" fill="#AF8D7F"/>
<path d="M93.1316 103.997L97.2446 106.379V104.755L94.5387 103.18L93.1316 103.997Z" fill="#D1BBB2"/>
<path d="M98.7842 99.3188V107.244L100.179 106.438V100.125L98.7842 99.3188Z" fill="#AF8D7F"/>
<path d="M98.7842 107.245L102.885 109.638V108.014L100.179 106.439L98.7842 107.245Z" fill="#D1BBB2"/>
<path d="M104.413 102.579V110.504L105.82 109.686V103.384L104.413 102.579Z" fill="#AF8D7F"/>
<path d="M104.413 110.503L108.538 112.897V111.273L105.82 109.686L104.413 110.503Z" fill="#D1BBB2"/>
<path d="M104.593 89.8544L108.538 92.3438V76.4691L104.413 74.0879L104.593 89.8544Z" fill="#182440"/>
<path d="M99.0245 86.4986L102.885 89.0843V73.2215L98.772 70.8403L99.0245 86.4986Z" fill="#182440"/>
<path d="M93.5766 83.1802L97.2446 85.826V69.9632L93.1316 67.582L93.5766 83.1802Z" fill="#182440"/>
<path d="M87.8159 80.1374L91.6162 82.5667V66.704L87.4912 64.3228L87.8159 80.1374Z" fill="#182440"/>
<path d="M82.1638 76.83L85.9761 79.3194V63.4447L81.8511 61.0635L82.1638 76.83Z" fill="#182440"/>
<path d="M76.7401 73.5704L80.336 76.0598V60.1851L76.2109 57.8159L76.7401 73.5704Z" fill="#182440"/>
<path d="M71.1115 70.3116L74.6953 72.801V56.9383L70.5703 54.5571L71.1115 70.3116Z" fill="#182440"/>
<path d="M64.9421 51.2979V67.1606L69.0551 69.5538V53.6911L66.3492 52.1036L64.9421 51.2979Z" fill="#182440"/>
<path d="M64.9421 51.2979V67.1606L66.3492 66.3428V52.1036L64.9421 51.2979Z" fill="#AF8D7F"/>
<path d="M64.9421 67.1611L69.0551 69.5543V67.9307L66.3492 66.3433L64.9421 67.1611Z" fill="#D1BBB2"/>
<path d="M70.5825 54.5454V70.4081L71.9776 69.6024V55.3632L70.5825 54.5454Z" fill="#AF8D7F"/>
<path d="M70.5825 70.4083L74.6955 72.8015V71.178L71.9776 69.6025L70.5825 70.4083Z" fill="#D1BBB2"/>
<path d="M76.2227 57.8047V73.6674L77.6177 72.8616V58.6225L76.2227 57.8047Z" fill="#AF8D7F"/>
<path d="M76.2227 73.6671L80.3357 76.0603V74.4368L77.6177 72.8613L76.2227 73.6671Z" fill="#D1BBB2"/>
<path d="M81.8511 61.0635V76.9262L83.2582 76.1084V61.8813L81.8511 61.0635Z" fill="#AF8D7F"/>
<path d="M81.8511 76.9262L85.9761 79.3194V77.6838L83.2582 76.1084L81.8511 76.9262Z" fill="#D1BBB2"/>
<path d="M87.4912 64.3228V80.1855L88.8983 79.3677V65.1285L87.4912 64.3228Z" fill="#AF8D7F"/>
<path d="M87.4912 80.185L91.6162 82.5662V80.9426L88.8983 79.3672L87.4912 80.185Z" fill="#D1BBB2"/>
<path d="M93.1316 67.5688V83.4436L94.5387 82.6258V68.3866L93.1316 67.5688Z" fill="#AF8D7F"/>
<path d="M93.1316 83.4443L97.2446 85.8255V84.2019L94.5387 82.6265L93.1316 83.4443Z" fill="#D1BBB2"/>
<path d="M98.7842 70.8291V86.6918L100.179 85.8861V71.6469L98.7842 70.8291Z" fill="#AF8D7F"/>
<path d="M98.7842 86.692L102.885 89.0852V87.4617L100.179 85.8862L98.7842 86.692Z" fill="#D1BBB2"/>
<path d="M104.413 74.0879V89.9506L105.82 89.1448V74.9057L104.413 74.0879Z" fill="#AF8D7F"/>
<path d="M104.413 89.9508L108.538 92.344V90.7205L105.82 89.145L104.413 89.9508Z" fill="#D1BBB2"/>
<g style="mix-blend-mode:multiply">
<path d="M77.5698 25.9468L88.153 19.8374L93.1199 33.4632H90.5943L77.5698 25.9468Z" fill="#897998"/>
</g>
<path d="M80.1074 25.9464V23.2886L93.1199 30.805V33.4628L80.1074 25.9464Z" fill="#826565"/>
<path d="M103.703 27.3536V24.6958L93.1196 30.8052V33.463L103.703 27.3536Z" fill="#E5DED0"/>
<path d="M80.1074 23.2886L90.6906 17.1792L103.703 24.6956L93.1199 30.805L80.1074 23.2886Z" fill="#F8F6E1"/>
<g style="mix-blend-mode:multiply">
<path d="M108.261 27.6782L118.844 21.5688L123.811 35.1947H121.285L108.261 27.6782Z" fill="#897998"/>
</g>
<path d="M110.798 27.6783V25.0205L123.811 32.537V35.1948L110.798 27.6783Z" fill="#826565"/>
<path d="M134.394 29.0851V26.4272L123.811 32.5366V35.1944L134.394 29.0851Z" fill="#E5DED0"/>
<path d="M110.798 25.0205L121.369 18.9111L134.394 26.4276L123.811 32.537L110.798 25.0205Z" fill="#F8F6E1"/>
<g style="mix-blend-mode:multiply">
<path d="M105.783 41.2439L108.297 39.8008L109.464 43.0359H108.874L105.783 41.2439Z" fill="#897998"/>
</g>
<path d="M106.385 41.2439V39.8008L109.464 41.5807V43.0359L106.385 41.2439Z" fill="#826565"/>
<path d="M111.977 41.5809V40.1377L109.464 41.5809V43.036L111.977 41.5809Z" fill="#E5DED0"/>
<path d="M106.385 39.8011L108.898 38.3579L111.977 40.1378L109.464 41.581L106.385 39.8011Z" fill="#F8F6E1"/>
<g style="mix-blend-mode:multiply">
<path d="M100.829 13.4036L103.342 11.9604L104.521 15.1955H103.92L100.829 13.4036Z" fill="#897998"/>
</g>
<path d="M101.43 13.4036V11.9604L104.521 13.7403V15.1955L101.43 13.4036Z" fill="#826565"/>
<path d="M107.022 13.7395V12.2964L104.521 13.7395V15.1947L107.022 13.7395Z" fill="#E5DED0"/>
<path d="M101.43 11.9598L103.943 10.5166L107.022 12.2965L104.521 13.7397L101.43 11.9598Z" fill="#F8F6E1"/>
<g style="mix-blend-mode:multiply">
<path d="M96.0781 16.0968L98.5796 14.6416L99.7582 17.8767H99.1689L96.0781 16.0968Z" fill="#897998"/>
</g>
<path d="M96.6794 16.0968V14.6416L99.7582 16.4215V17.8767L96.6794 16.0968Z" fill="#826565"/>
<path d="M102.272 16.4217V14.9785L99.7583 16.4217V17.8769L102.272 16.4217Z" fill="#E5DED0"/>
<path d="M96.6794 14.6414L99.1809 13.1982L102.272 14.9781L99.7582 16.4213L96.6794 14.6414Z" fill="#F8F6E1"/>
</svg>
