<svg width="146" height="233" viewBox="0 0 146 233" fill="none" xmlns="http://www.w3.org/2000/svg">
<g clip-path="url(#clip0_204_34104)">
<g style="mix-blend-mode:multiply">
<path d="M146.012 219.559L124.983 231.723L94.6232 233H55.4361L0 200.891L37.2776 179.309L54.8836 189.498L74.4592 178.152L146.012 219.559Z" fill="#897998"/>
</g>
<path d="M121.248 210.478V223.208L139.911 212.417V199.482L121.248 210.478Z" fill="#23394A"/>
<path d="M94.2869 211.598V224.328L121.248 223.208V210.478L94.2869 211.598Z" fill="#23394A"/>
<path d="M43.2944 182.066V194.809L94.287 224.328V211.598L43.2944 182.066Z" fill="#122A3C"/>
<path d="M137.821 223.004L132.813 220.101V205.576L137.821 208.467V223.004Z" fill="#826565"/>
<path d="M78.2062 222.185L83.2262 219.282V204.757L78.2062 207.66V222.185Z" fill="#B2A1A1"/>
<path d="M100.412 231.446L101.024 228.544V214.019L100.412 216.922V231.446Z" fill="#E5DED0"/>
<path d="M119.207 230.675L116.613 227.773V213.248L119.207 216.151V230.675Z" fill="#826565"/>
<path d="M61.7891 212.682L66.797 209.78V195.255L61.7891 198.145V212.682Z" fill="#B2A1A1"/>
<path d="M45.3721 203.168L50.3801 200.265V185.74L45.3721 188.643V203.168Z" fill="#B2A1A1"/>
<path d="M100.412 231.446L94.6353 231.687V217.162L100.412 216.921V231.446Z" fill="#B2A1A1"/>
<path d="M124.995 230.423L119.207 230.676V216.151L124.995 215.898V230.423Z" fill="#B2A1A1"/>
<path d="M124.995 230.423L130.003 227.52V212.995L124.995 215.898V230.423Z" fill="#E5DED0"/>
<path d="M94.6352 231.687L89.6152 228.785V214.26L94.6352 217.162V231.687Z" fill="#826565"/>
<path d="M78.2061 222.185L73.1981 219.282V204.757L78.2061 207.66V222.185Z" fill="#826565"/>
<path d="M61.7891 212.682L56.7811 209.78V195.255L61.7891 198.145V212.682Z" fill="#826565"/>
<path d="M45.372 203.168L40.3521 200.265V185.74L45.372 188.643V203.168Z" fill="#826565"/>
<path d="M137.822 223.004L142.842 220.101V205.576L137.822 208.467V223.004Z" fill="#E5DED0"/>
<path d="M94.6352 70.5045L37.1936 37.2515L74.4712 15.6689L146 57.0756L124.995 69.2399L94.6352 70.5045Z" fill="#577680"/>
<path d="M95.3077 69.3363L39.8837 37.2515V20.5347L143.31 40.3709V57.0757L124.323 68.0717L95.3077 69.3363Z" fill="#B2A1A1"/>
<path d="M95.3077 52.6195L39.8837 20.5348L74.4712 0.505859L143.31 40.371L124.323 51.3549L95.3077 52.6195Z" fill="#F9F7E2"/>
<path d="M95.8241 51.7763L41.6971 20.4262L74.3151 1.5415L141.28 40.3106L123.734 50.4756L95.8241 51.7763Z" fill="#BDA195"/>
<path d="M74.3151 12.1762L132.093 45.634L141.28 40.3106L74.3151 1.5415L41.6971 20.4262L50.8844 25.7496L74.3151 12.1762Z" fill="#E5DED0"/>
<path d="M74.3151 1.5415V12.1762L132.093 45.634L141.28 40.3106L74.3151 1.5415Z" fill="#826565"/>
<g style="mix-blend-mode:multiply">
<path d="M74.3151 1.5415L70.5081 14.3923L126.689 46.9106L120.264 50.6322L123.734 50.4756L132.093 45.634L74.3151 12.1762V1.5415Z" fill="#C5BDCD"/>
</g>
<path d="M124.323 51.3551V68.0719L143.31 57.0759V40.3711L124.323 51.3551Z" fill="#E5DED0"/>
<path d="M124.995 69.24V215.898L146 203.733V57.0757L124.995 69.24Z" fill="#3C606C"/>
<path d="M124.995 210.719V215.898L146 203.734V198.555L124.995 210.719Z" fill="#E5DED0"/>
<path d="M94.6353 70.5048V217.163L124.995 215.898V69.2402L94.6353 70.5048Z" fill="#284359"/>
<path d="M94.6353 211.983V217.162L124.995 215.898V210.719L94.6353 211.983Z" fill="#B2A1A1"/>
<path d="M39.8837 20.5347V37.2515L95.3077 69.3363V52.6194L39.8837 20.5347Z" fill="#826565"/>
<path d="M37.1936 37.2515V183.909L94.6352 217.162V70.5045L37.1936 37.2515Z" fill="#23394A"/>
<path d="M37.1936 178.73V183.909L94.6352 217.162V211.983L37.1936 178.73Z" fill="#826565"/>
<path d="M124.995 202.084V207.263L146 195.11V189.919L124.995 202.084Z" fill="#46758C"/>
<path d="M94.6353 203.348V208.527L124.995 207.262V202.083L94.6353 203.348Z" fill="#406984"/>
<path d="M37.1936 170.095V175.274L94.6352 208.527V203.348L37.1936 170.095Z" fill="#1E3F54"/>
<path d="M124.995 190.389V195.568L146 183.403V178.225L124.995 190.389Z" fill="#46758C"/>
<path d="M94.6353 191.654V196.833L124.995 195.568V190.389L94.6353 191.654Z" fill="#406984"/>
<path d="M37.1936 158.4V163.579L94.6352 196.832V191.653L37.1936 158.4Z" fill="#1E3F54"/>
<path d="M124.995 178.695V183.873L146 171.709V166.53L124.995 178.695Z" fill="#46758C"/>
<path d="M94.6353 179.959V185.138L124.995 183.873V178.694L94.6353 179.959Z" fill="#406984"/>
<path d="M37.1936 146.706V151.885L94.6352 185.138V179.959L37.1936 146.706Z" fill="#1E3F54"/>
<path d="M124.995 167V172.179L146 160.014V154.835L124.995 167Z" fill="#46758C"/>
<path d="M94.6353 168.265V173.443L124.995 172.179V167L94.6353 168.265Z" fill="#406984"/>
<path d="M37.1936 135.011V140.19L94.6352 173.443V168.264L37.1936 135.011Z" fill="#1E3F54"/>
<path d="M124.995 155.305V160.484L146 148.32V143.141L124.995 155.305Z" fill="#46758C"/>
<path d="M94.6353 156.57V161.749L124.995 160.484V155.305L94.6353 156.57Z" fill="#406984"/>
<path d="M37.1936 123.317V128.496L94.6352 161.749V156.57L37.1936 123.317Z" fill="#1E3F54"/>
<path d="M124.995 143.611V148.789L146 136.625V131.446L124.995 143.611Z" fill="#46758C"/>
<path d="M94.6353 144.875V150.054L124.995 148.79V143.611L94.6353 144.875Z" fill="#406984"/>
<path d="M37.1936 111.61V116.801L94.6352 150.054V144.875L37.1936 111.61Z" fill="#1E3F54"/>
<path d="M124.995 131.916V137.095L146 124.931V119.752L124.995 131.916Z" fill="#46758C"/>
<path d="M94.6353 133.181V138.359L124.995 137.095V131.916L94.6353 133.181Z" fill="#406984"/>
<path d="M37.1936 99.9277V105.107L94.6352 138.36V133.181L37.1936 99.9277Z" fill="#1E3F54"/>
<path d="M124.995 120.221V125.4L146 113.236V108.057L124.995 120.221Z" fill="#46758C"/>
<path d="M94.6353 121.474V126.665L124.995 125.401V120.222L94.6353 121.474Z" fill="#406984"/>
<path d="M37.1936 88.2212V93.4121L94.6352 126.665V121.474L37.1936 88.2212Z" fill="#1E3F54"/>
<path d="M124.995 108.527V113.706L146 101.542V96.3628L124.995 108.527Z" fill="#46758C"/>
<path d="M94.6353 109.779V114.958L124.995 113.706V108.527L94.6353 109.779Z" fill="#406984"/>
<path d="M37.1936 76.5264V81.7052L94.6352 114.958V109.779L37.1936 76.5264Z" fill="#1E3F54"/>
<path d="M124.995 96.8202V102.011L146 89.8468V84.668L124.995 96.8202Z" fill="#46758C"/>
<path d="M94.6353 98.0849V103.276L124.995 102.011V96.8203L94.6353 98.0849Z" fill="#406984"/>
<path d="M37.1936 64.832V70.0109L94.6352 103.276V98.0851L37.1936 64.832Z" fill="#1E3F54"/>
<path d="M124.995 85.1379V90.3167L146 78.1525V72.9736L124.995 85.1379Z" fill="#46758C"/>
<path d="M94.6353 86.3903V91.5691L124.995 90.3165V85.1377L94.6353 86.3903Z" fill="#406984"/>
<path d="M37.1936 53.1372V58.3161L94.6352 91.5691V86.3902L37.1936 53.1372Z" fill="#1E3F54"/>
<path d="M124.995 73.431V78.6219L146 66.4577V61.2788L124.995 73.431Z" fill="#46758C"/>
<path d="M94.6353 74.6958V79.8746L124.995 78.622V73.4312L94.6353 74.6958Z" fill="#406984"/>
<path d="M37.1936 41.4429V46.6217L94.6352 79.8747V74.6959L37.1936 41.4429Z" fill="#1E3F54"/>
<g style="mix-blend-mode:multiply">
<path d="M145.988 119.354L146 198.555L124.995 210.719L124.983 149.199L132.501 144.321V127.207L145.988 119.354Z" fill="#AFBFD1"/>
</g>
<g style="mix-blend-mode:multiply">
<path d="M124.983 144.08L124.995 210.719L94.6353 211.983V149.946H96.3526V121.137L115.688 120.378V142.563L124.983 144.08Z" fill="#B6D5D9"/>
</g>
<g style="mix-blend-mode:multiply">
<path d="M67.6017 21.9196L73.9187 18.2583L76.8971 26.412H75.3839L67.6017 21.9196Z" fill="#897998"/>
</g>
<g style="mix-blend-mode:multiply">
<path d="M59.8196 27.6045L68.4064 22.6304L66.0525 30.0855H64.107L59.8196 27.6045Z" fill="#897998"/>
</g>
<g style="mix-blend-mode:multiply">
<path d="M65.1398 30.0857L66.4128 29.3511L70.3399 32.5788H69.4392L65.1398 30.0857Z" fill="#897998"/>
</g>
<g style="mix-blend-mode:multiply">
<path d="M70.2318 27.1468L71.4928 26.4121L75.4199 29.6278H74.5192L70.2318 27.1468Z" fill="#897998"/>
</g>
<path d="M69.1149 21.9196V18.2583L76.8971 22.7627V26.412L69.1149 21.9196Z" fill="#826565"/>
<path d="M83.2141 22.7629V19.1016L76.8971 22.7629V26.4122L83.2141 22.7629Z" fill="#E5DED0"/>
<path d="M69.1149 18.2585L75.4319 14.5972L83.2141 19.1016L76.8971 22.7629L69.1149 18.2585Z" fill="#F8F6E1"/>
<path d="M61.7651 27.6046V25.5933L66.0525 28.0743V30.0856L61.7651 27.6046Z" fill="#826565"/>
<path d="M74.6393 25.1114V23.1001L66.0525 28.0742V30.0855L74.6393 25.1114Z" fill="#E5DED0"/>
<path d="M61.7651 25.5931L70.352 20.6069L74.6394 23.1L66.0525 28.0741L61.7651 25.5931Z" fill="#F8F6E1"/>
<path d="M66.0525 30.0856V28.4355L70.3399 30.9286V32.5786L66.0525 30.0856Z" fill="#826565"/>
<path d="M71.6129 31.8318V30.1938L70.3398 30.9285V32.5785L71.6129 31.8318Z" fill="#E5DED0"/>
<path d="M66.0525 28.4354L67.3255 27.7007L71.6129 30.1938L70.3399 30.9284L66.0525 28.4354Z" fill="#F8F6E1"/>
<path d="M71.1326 27.1466V25.4966L75.42 27.9776V29.6276L71.1326 27.1466Z" fill="#826565"/>
<path d="M76.6929 28.8932V27.2432L75.4199 27.9778V29.6278L76.6929 28.8932Z" fill="#E5DED0"/>
<path d="M71.1326 25.4969L72.4056 24.7622L76.693 27.2432L75.42 27.9779L71.1326 25.4969Z" fill="#F8F6E1"/>
<g style="mix-blend-mode:multiply">
<path d="M84.6793 32.0847L91.0083 28.4233L93.9747 36.5891H92.4615L84.6793 32.0847Z" fill="#897998"/>
</g>
<g style="mix-blend-mode:multiply">
<path d="M76.8971 37.7695L85.4839 32.7954L83.13 40.2505H81.1845L76.8971 37.7695Z" fill="#897998"/>
</g>
<g style="mix-blend-mode:multiply">
<path d="M82.2173 40.2503L83.4903 39.5156L87.4174 42.7434H86.5167L82.2173 40.2503Z" fill="#897998"/>
</g>
<g style="mix-blend-mode:multiply">
<path d="M87.3093 37.3118L88.5703 36.5771L92.4974 39.7929H91.5967L87.3093 37.3118Z" fill="#897998"/>
</g>
<path d="M86.1925 32.0847V28.4233L93.9747 32.9277V36.5891L86.1925 32.0847Z" fill="#826565"/>
<path d="M100.292 32.9279V29.2666L93.9746 32.9279V36.5893L100.292 32.9279Z" fill="#E5DED0"/>
<path d="M86.1925 28.4235L92.5095 24.7622L100.292 29.2666L93.9747 32.9279L86.1925 28.4235Z" fill="#F8F6E1"/>
<path d="M78.8427 37.7696V35.7583L83.1301 38.2393V40.2506L78.8427 37.7696Z" fill="#826565"/>
<path d="M91.7168 35.2885V33.2651L83.13 38.2392V40.2506L91.7168 35.2885Z" fill="#E5DED0"/>
<path d="M78.8427 35.7583L87.4295 30.7842L91.7169 33.2652L83.1301 38.2393L78.8427 35.7583Z" fill="#F8F6E1"/>
<path d="M83.13 40.2503V38.6123L87.4174 41.0933V42.7433L83.13 40.2503Z" fill="#826565"/>
<path d="M88.6905 42.0089V40.3589L87.4175 41.0936V42.7436L88.6905 42.0089Z" fill="#E5DED0"/>
<path d="M83.13 38.6126L84.403 37.8779L88.6904 40.359L87.4174 41.0936L83.13 38.6126Z" fill="#F8F6E1"/>
<path d="M88.2101 37.3116V35.6616L92.4975 38.1547V39.7927L88.2101 37.3116Z" fill="#826565"/>
<path d="M93.7705 39.0584V37.4204L92.4974 38.1551V39.793L93.7705 39.0584Z" fill="#E5DED0"/>
<path d="M88.2101 35.6619L89.4831 34.9272L93.7705 37.4203L92.4975 38.155L88.2101 35.6619Z" fill="#F8F6E1"/>
</g>
<defs>
<clipPath id="clip0_204_34104">
<rect width="146" height="233" fill="white"/>
</clipPath>
</defs>
</svg>
