<svg width="155" height="279" viewBox="0 0 155 279" fill="none" xmlns="http://www.w3.org/2000/svg">
<g clip-path="url(#clip0_204_26467)">
<g style="mix-blend-mode:multiply">
<path d="M104.962 279H67.4719L0 240.062L30.6559 222.373L90.7525 252.737L104.962 279Z" fill="#897998"/>
</g>
<path d="M97.3698 239.569L15.7852 221.026V239.052L74.2576 272.795L84.2316 267.035L104.962 279L152.798 251.39V233.364L97.3698 239.569Z" fill="#23394A"/>
<path d="M16.1823 240.194L14.6543 239.305V226.305L16.1823 227.183V240.194Z" fill="#BDA195"/>
<path d="M16.1821 240.194L16.916 239.773V226.99L16.1821 227.423V240.194Z" fill="#976B58"/>
<path d="M104.962 279V262.02L84.2195 251.293L84.2316 267.035L74.2576 272.795V251.293L152.798 238.102V251.39L104.962 279Z" fill="#6C8A9D"/>
<path d="M74.2576 273.408L75.7856 272.518V259.519L74.2576 260.397V273.408Z" fill="#E5DED0"/>
<path d="M74.2575 273.408L72.7175 272.518V258.629L74.2575 259.519V273.408Z" fill="#BDA195"/>
<path d="M151.27 253.194L152.798 252.304V239.292L151.27 240.182V253.194Z" fill="#E5DED0"/>
<path d="M104.962 279.914L106.49 279.024V266.013L104.962 266.903V279.914Z" fill="#E5DED0"/>
<path d="M104.962 279.914L103.434 279.024V265.135L104.962 266.013V279.914Z" fill="#BDA195"/>
<path d="M151.27 253.194L150.536 252.761V239.99L151.27 240.411V253.194Z" fill="#BDA195"/>
<path d="M97.791 239.232L13.5835 220.088V225.896L73.9328 260.722L84.2196 254.781L105.623 267.131L155 238.643V232.835L97.791 239.232Z" fill="#BDA195"/>
<path d="M73.9328 254.913L13.5835 220.088L62.9602 191.6L123.309 226.425L73.9328 254.913Z" fill="#F8F6E1"/>
<path d="M105.623 261.323L45.2739 226.497L94.6506 198.009L155 232.835L105.623 261.323Z" fill="#F8F6E1"/>
<path d="M73.9326 254.913V260.721L84.2194 254.781V248.973L73.9326 254.913Z" fill="#E5DED0"/>
<path d="M105.623 261.323V267.131L155 238.643V232.834L105.623 261.323Z" fill="#E5DED0"/>
<g style="mix-blend-mode:multiply">
<path d="M107.873 253.795L95.1561 255.418L84.2196 249.105L73.9328 254.913L13.5835 220.1L42.7836 203.24L107.873 253.795Z" fill="#897998"/>
</g>
<path d="M86.9626 14.6709L61.5645 29.3298V172.191L86.9626 157.532V14.6709Z" fill="#E5DED0"/>
<path d="M61.5403 0L36.1421 14.6589L61.5643 29.3298L86.9626 14.6709L61.5403 0Z" fill="#F8F6E1"/>
<path d="M39.1982 14.6587L61.5405 1.76758L83.8947 14.6708L61.5645 27.5619L39.1982 14.6587Z" fill="#BDA195"/>
<path d="M107.873 46.6343L82.4751 61.2811V204.154L107.873 189.495V46.6343Z" fill="#E5DED0"/>
<path d="M86.9627 34.561L61.5645 49.2199L82.475 61.2813L107.873 46.6345L86.9627 34.561Z" fill="#F8F6E1"/>
<path d="M64.4761 49.3157L87.1311 36.2441L104.962 46.5378L82.3066 59.6094L64.4761 49.3157Z" fill="#BDA195"/>
<path d="M83.8947 14.683L81.7291 15.9216L61.5284 4.26903L41.3759 15.8975L39.1982 14.6589L61.5284 1.77979L83.8947 14.683Z" fill="#E5DED0"/>
<path d="M61.5283 1.77979V4.26903L81.729 15.9216L83.8946 14.683L61.5283 1.77979Z" fill="#BDA195"/>
<g style="mix-blend-mode:multiply">
<path d="M61.5403 1.76758L60.1206 5.08657L79.6355 16.3543L60.8786 27.1651L61.5644 27.5619L81.7289 15.9214L61.5283 4.26885L61.5403 1.76758Z" fill="#897998"/>
</g>
<path d="M104.962 46.5378L102.784 47.7885L87.1311 38.7574L66.6538 50.5784L64.4761 49.3157L87.1311 36.2441L104.962 46.5378Z" fill="#E5DED0"/>
<path d="M87.1311 36.2441V38.7574L102.784 47.7885L104.962 46.5378L87.1311 36.2441Z" fill="#BDA195"/>
<g style="mix-blend-mode:multiply">
<path d="M87.1312 36.2441L85.7235 39.5752L100.691 48.2094L81.6208 59.2126L82.3066 59.6094L102.784 47.7885L87.1312 38.7574V36.2441Z" fill="#897998"/>
</g>
<path d="M133.271 236.743L107.873 222.084V224.501L133.271 239.148V236.743Z" fill="#BDA195"/>
<path d="M133.271 226.942L107.873 212.283V215.951L133.271 230.61V226.942Z" fill="#BDA195"/>
<path d="M133.271 219.403L107.873 204.744V208.423L133.271 223.07V219.403Z" fill="#BDA195"/>
<path d="M133.271 211.875L107.873 197.216V200.884L133.271 215.542V211.875Z" fill="#BDA195"/>
<path d="M109.606 199.477L107.873 198.479V224.501L109.606 225.499V199.477Z" fill="#BDA195"/>
<path d="M131.84 68.1836L106.441 82.8425V225.704L131.84 211.045V68.1836Z" fill="#6C8A9D"/>
<path d="M131.84 68.1836L126.353 67.3779V238.294L131.84 239.1V68.1836Z" fill="#809AAA"/>
<path d="M131.84 210.323L106.441 224.982V225.704L131.84 211.045V210.323Z" fill="#4D6D7A"/>
<path d="M131.84 201.437L106.441 216.095V216.817L131.84 202.17V201.437Z" fill="#4D6D7A"/>
<path d="M131.84 192.55L106.441 207.209V207.942L131.84 193.283V192.55Z" fill="#4D6D7A"/>
<path d="M131.84 183.675L106.441 198.334V199.056L131.84 184.397V183.675Z" fill="#4D6D7A"/>
<path d="M131.84 174.789L106.441 189.447V190.169L131.84 175.51V174.789Z" fill="#4D6D7A"/>
<path d="M131.84 165.902L106.441 180.561V181.282L131.84 166.635V165.902Z" fill="#4D6D7A"/>
<path d="M131.84 157.015L106.441 171.674V172.408L131.84 157.749V157.015Z" fill="#4D6D7A"/>
<path d="M131.84 148.14L106.441 162.799V163.521L131.84 148.862V148.14Z" fill="#4D6D7A"/>
<path d="M131.84 139.253L106.441 153.912V154.634L131.84 139.975V139.253Z" fill="#4D6D7A"/>
<path d="M131.84 130.367L106.441 145.026V145.747L131.84 131.1V130.367Z" fill="#4D6D7A"/>
<path d="M131.84 121.492L106.441 136.139V136.873L131.84 122.214V121.492Z" fill="#4D6D7A"/>
<path d="M131.84 112.605L106.441 127.264V127.986L131.84 113.327V112.605Z" fill="#4D6D7A"/>
<path d="M131.84 103.719L106.441 118.378V119.099L131.84 104.44V103.719Z" fill="#4D6D7A"/>
<path d="M131.84 94.832L106.441 109.491V110.224L131.84 95.5656V94.832Z" fill="#4D6D7A"/>
<path d="M131.84 85.957L106.441 100.604V101.337L131.84 86.6786V85.957Z" fill="#4D6D7A"/>
<path d="M131.84 77.0703L106.441 91.7292V92.4507L131.84 77.7918V77.0703Z" fill="#4D6D7A"/>
<path d="M131.84 68.1836L106.441 82.8425V83.564L131.84 68.9051V68.1836Z" fill="#4D6D7A"/>
<path d="M107.873 54.3545L82.4751 69.0134L106.442 82.8425L131.84 68.1836L107.873 54.3545Z" fill="#9FB4B6"/>
<path d="M107.873 54.3545V60.9203L125.776 71.683L131.84 68.1836L107.873 54.3545Z" fill="#B7CFD1"/>
<path d="M131.84 214.712L106.441 229.371V233.231L131.84 218.585V214.712Z" fill="#6C8A9D"/>
<path d="M131.84 222.252L106.441 236.899V240.771L131.84 226.113V222.252Z" fill="#6C8A9D"/>
<path d="M131.84 229.78L106.441 244.439V250.572L131.84 235.913V229.78Z" fill="#6C8A9D"/>
<path d="M107.873 251.39L133.271 236.743V239.148L107.873 253.807V251.39Z" fill="#E5DED0"/>
<path d="M106.441 250.572L131.84 235.913L133.271 236.743L107.873 251.39L106.441 250.572Z" fill="#F8F6E1"/>
<path d="M106.441 240.771L131.84 226.112L133.271 226.942L107.873 241.589L106.441 240.771Z" fill="#F8F6E1"/>
<path d="M106.441 233.231L131.84 218.584L133.271 219.402L107.873 234.061L106.441 233.231Z" fill="#F8F6E1"/>
<path d="M106.441 225.704L131.84 211.045L133.271 211.875L107.873 226.534L106.441 225.704Z" fill="#F8F6E1"/>
<path d="M107.873 241.589L133.271 226.942V230.61L107.873 245.269V241.589Z" fill="#E5DED0"/>
<path d="M107.873 234.061L133.271 219.402V223.07L107.873 237.729V234.061Z" fill="#E5DED0"/>
<path d="M107.873 226.533L133.271 211.875V215.542L107.873 230.201V226.533Z" fill="#E5DED0"/>
<path d="M76.4714 62.3632L73.3914 60.5835V231.5L76.4714 233.279V62.3632Z" fill="#23394A"/>
<path d="M77.1331 232.895L74.0531 231.115L73.3914 231.5L76.4714 233.28L77.1331 232.895Z" fill="#F8F6E1"/>
<path d="M74.0531 60.9683V231.115L73.3914 231.5V60.5835L74.0531 60.9683Z" fill="#D9C0B6"/>
<path d="M77.1331 206.054L74.0531 204.287L73.3914 204.659L76.4714 206.439L77.1331 206.054Z" fill="#F8F6E1"/>
<path d="M77.1331 193.68L74.0531 191.9L73.3914 192.285L76.4714 194.065L77.1331 193.68Z" fill="#F8F6E1"/>
<path d="M77.1331 156.943L74.0531 155.175L73.3914 155.548L76.4714 157.327L77.1331 156.943Z" fill="#F8F6E1"/>
<path d="M77.1331 144.569L74.0531 142.801L73.3914 143.174L76.4714 144.953L77.1331 144.569Z" fill="#F8F6E1"/>
<path d="M77.1331 107.831L74.0531 106.063L73.3914 106.448L76.4714 108.216L77.1331 107.831Z" fill="#F8F6E1"/>
<path d="M77.1331 95.4572L74.0531 93.6895L73.3914 94.0622L76.4714 95.842L77.1331 95.4572Z" fill="#F8F6E1"/>
<path d="M69.0118 58.0582L65.9438 56.2905V227.195L69.0118 228.974V58.0582Z" fill="#23394A"/>
<path d="M69.6736 228.59L66.6056 226.822L65.9438 227.195L69.0118 228.975L69.6736 228.59Z" fill="#F8F6E1"/>
<path d="M66.6056 56.6633V226.822L65.9438 227.195V56.2905L66.6056 56.6633Z" fill="#D9C0B6"/>
<path d="M69.6736 184.661L66.6056 182.894L65.9438 183.278L69.0118 185.046L69.6736 184.661Z" fill="#F8F6E1"/>
<path d="M69.6736 172.287L66.6056 170.52L65.9438 170.892L69.0118 172.672L69.6736 172.287Z" fill="#F8F6E1"/>
<path d="M69.6736 135.549L66.6056 133.782L65.9438 134.167L69.0118 135.934L69.6736 135.549Z" fill="#F8F6E1"/>
<path d="M69.6736 123.175L66.6056 121.408L65.9438 121.793L69.0118 123.56L69.6736 123.175Z" fill="#F8F6E1"/>
<path d="M69.6736 86.4502L66.6056 84.6704L65.9438 85.0552L69.0118 86.8229L69.6736 86.4502Z" fill="#F8F6E1"/>
<path d="M69.6736 74.0641L66.6056 72.2964L65.9438 72.6812L69.0118 74.4489L69.6736 74.0641Z" fill="#F8F6E1"/>
<path d="M65.9439 229.612L61.5645 227.087V49.2197L65.9439 51.745V229.612Z" fill="#BDA195"/>
<path d="M73.3914 233.917L69.012 231.392V53.5249L73.3914 56.0502V233.917Z" fill="#BDA195"/>
<path d="M82.4748 239.148L76.4712 235.685V57.8179L82.4748 61.2812V239.148Z" fill="#BDA195"/>
<path d="M82.475 236.743L61.5645 224.669V227.087L82.475 239.148V236.743Z" fill="#BDA195"/>
<path d="M82.475 61.2811L61.5645 49.2197V53.7533L82.475 65.8267V61.2811Z" fill="#BDA195"/>
<path d="M73.3914 204.659L76.4714 206.439V208.159L73.3914 206.391V204.659Z" fill="#BDA195"/>
<path d="M73.3914 192.285L76.4714 194.065V195.785L73.3914 194.005V192.285Z" fill="#BDA195"/>
<path d="M65.9438 183.278L69.0118 185.046V186.766L65.9438 184.998V183.278Z" fill="#BDA195"/>
<path d="M65.9438 170.892L69.0118 172.672V174.391L65.9438 172.624V170.892Z" fill="#BDA195"/>
<path d="M73.3914 155.548L76.4714 157.328V159.047L73.3914 157.279V155.548Z" fill="#BDA195"/>
<path d="M73.3914 143.174L76.4714 144.954V146.673L73.3914 144.905V143.174Z" fill="#BDA195"/>
<path d="M65.9438 134.167L69.0118 135.935V137.654L65.9438 135.887V134.167Z" fill="#BDA195"/>
<path d="M65.9438 121.792L69.0118 123.56V125.28L65.9438 123.512V121.792Z" fill="#BDA195"/>
<path d="M73.3914 106.448L76.4714 108.216V109.936L73.3914 108.168V106.448Z" fill="#BDA195"/>
<path d="M73.3914 94.062L76.4714 95.8418V97.5614L73.3914 95.7937V94.062Z" fill="#BDA195"/>
<path d="M65.9438 85.0552L69.0118 86.8229V88.5545L65.9438 86.7748V85.0552Z" fill="#BDA195"/>
<path d="M65.9438 72.6812L69.0118 74.4489V76.1685L65.9438 74.4008V72.6812Z" fill="#BDA195"/>
<path d="M107.873 251.39L82.4751 236.743V239.148L107.873 253.807V251.39Z" fill="#BDA195"/>
<path d="M107.873 241.589L82.4751 226.942V230.61L107.873 245.269V241.589Z" fill="#BDA195"/>
<path d="M107.873 234.061L82.4751 219.402V223.07L107.873 237.729V234.061Z" fill="#BDA195"/>
<path d="M107.873 226.533L82.4751 211.875V215.542L107.873 230.201V226.533Z" fill="#BDA195"/>
<path d="M84.2076 214.135L82.4751 213.125V239.148L84.2076 240.158V214.135Z" fill="#BDA195"/>
<path d="M106.442 82.8428L82.4751 69.0137V211.875L106.442 225.704V82.8428Z" fill="#23394A"/>
<path d="M106.441 229.371L84.2075 216.552V220.412L106.441 233.231V229.371Z" fill="#23394A"/>
<path d="M106.441 236.899L84.2075 224.08V227.94L106.441 240.771V236.899Z" fill="#23394A"/>
<path d="M106.441 244.439L84.2075 231.608V237.741L106.441 250.572V244.439Z" fill="#23394A"/>
<path d="M54.1892 219.895L37.2371 210.107V15.729L54.1892 25.5056V219.895Z" fill="#23394A"/>
<path d="M54.526 214.977L37.5738 205.188L36.1421 206.018L53.0943 215.807L54.526 214.977Z" fill="#F8F6E1"/>
<path d="M54.526 203.721L37.5738 193.933L36.1421 194.762L53.0943 204.539L54.526 203.721Z" fill="#F8F6E1"/>
<path d="M54.526 192.466L37.5738 182.677L36.1421 183.507L53.0943 193.284L54.526 192.466Z" fill="#F8F6E1"/>
<path d="M54.526 181.21L37.5738 171.421L36.1421 172.251L53.0943 182.028L54.526 181.21Z" fill="#F8F6E1"/>
<path d="M54.526 169.954L37.5738 160.166L36.1421 160.995L53.0943 170.772L54.526 169.954Z" fill="#F8F6E1"/>
<path d="M54.526 158.698L37.5738 148.91L36.1421 149.739L53.0943 159.516L54.526 158.698Z" fill="#F8F6E1"/>
<path d="M54.526 147.431L37.5738 137.654L36.1421 138.484L53.0943 148.261L54.526 147.431Z" fill="#F8F6E1"/>
<path d="M54.526 136.175L37.5738 126.398L36.1421 127.228L53.0943 137.005L54.526 136.175Z" fill="#F8F6E1"/>
<path d="M54.526 124.919L37.5738 115.143L36.1421 115.972L53.0943 125.749L54.526 124.919Z" fill="#F8F6E1"/>
<path d="M54.526 113.663L37.5738 103.887L36.1421 104.716L53.0943 114.493L54.526 113.663Z" fill="#F8F6E1"/>
<path d="M54.526 102.408L37.5738 92.6313L36.1421 93.4491L53.0943 103.238L54.526 102.408Z" fill="#F8F6E1"/>
<path d="M54.526 91.1521L37.5738 81.3755L36.1421 82.1932L53.0943 91.9818L54.526 91.1521Z" fill="#F8F6E1"/>
<path d="M54.526 79.8962L37.5738 70.1196L36.1421 70.9374L53.0943 80.726L54.526 79.8962Z" fill="#F8F6E1"/>
<path d="M54.526 68.6409L37.5738 58.8643L36.1421 59.682L53.0943 69.4706L54.526 68.6409Z" fill="#F8F6E1"/>
<path d="M54.526 57.3848L37.5738 47.5962L36.1421 48.4259L53.0943 58.2146L54.526 57.3848Z" fill="#F8F6E1"/>
<path d="M54.526 46.1295L37.5738 36.3408L36.1421 37.1706L53.0943 46.9472L54.526 46.1295Z" fill="#F8F6E1"/>
<path d="M54.526 34.8736L37.5738 25.085L36.1421 25.9147L53.0943 35.6913L54.526 34.8736Z" fill="#F8F6E1"/>
<path d="M61.5646 29.3299L53.0945 24.4355V222.192L61.5646 227.087V29.3299Z" fill="#BDA195"/>
<path d="M53.0943 24.4353L36.1421 14.6587V21.0562L53.0943 30.8328V24.4353Z" fill="#BDA195"/>
<path d="M53.0943 35.6912L36.1421 25.9146V32.312L53.0943 42.0886V35.6912Z" fill="#BDA195"/>
<path d="M53.0943 46.947L36.1421 37.1704V43.5679L53.0943 53.3445V46.947Z" fill="#BDA195"/>
<path d="M53.0943 58.2029L36.1421 48.4263V54.8238L53.0943 64.6004V58.2029Z" fill="#BDA195"/>
<path d="M53.0943 69.4703L36.1421 59.6816V66.0791L53.0943 75.8557V69.4703Z" fill="#BDA195"/>
<path d="M53.0943 80.7261L36.1421 70.9375V77.335L53.0943 87.1116V80.7261Z" fill="#BDA195"/>
<path d="M53.0943 91.982L36.1421 82.1934V88.5908L53.0943 98.3795V91.982Z" fill="#BDA195"/>
<path d="M53.0943 103.237L36.1421 93.4487V99.8462L53.0943 109.635V103.237Z" fill="#BDA195"/>
<path d="M53.0943 114.493L36.1421 104.705V111.102L53.0943 120.891V114.493Z" fill="#BDA195"/>
<path d="M53.0943 125.749L36.1421 115.973V122.358L53.0943 132.147V125.749Z" fill="#BDA195"/>
<path d="M53.0943 137.005L36.1421 127.228V133.613L53.0943 143.402V137.005Z" fill="#BDA195"/>
<path d="M53.0943 148.26L36.1421 138.484V144.869L53.0943 154.658V148.26Z" fill="#BDA195"/>
<path d="M53.0943 159.516L36.1421 149.74V156.137L53.0943 165.914V159.516Z" fill="#BDA195"/>
<path d="M53.0943 170.772L36.1421 160.995V167.393L53.0943 177.169V170.772Z" fill="#BDA195"/>
<path d="M53.0943 182.028L36.1421 172.251V178.648L53.0943 188.425V182.028Z" fill="#BDA195"/>
<path d="M53.0943 193.283L36.1421 183.507V189.904L53.0943 199.681V193.283Z" fill="#BDA195"/>
<path d="M53.0943 204.539L36.1421 194.763V201.16L53.0943 210.937V204.539Z" fill="#BDA195"/>
<path d="M53.0943 215.807L36.1421 206.018V212.416L53.0943 222.192V215.807Z" fill="#BDA195"/>
<g style="mix-blend-mode:multiply">
<path d="M131.84 145.819L128.423 144.557L120.35 148.814V138.255L115.814 136.355L106.441 141.863V225.704L131.84 211.045V145.819Z" fill="#C7D6ED"/>
</g>
<path d="M82.4751 211.153L106.442 224.982V225.704L82.4751 211.874V211.153Z" fill="#232C36"/>
<path d="M82.4751 202.266L106.442 216.095V216.817L82.4751 202.988V202.266Z" fill="#232C36"/>
<path d="M82.4751 193.379L106.442 207.209V207.942L82.4751 194.101V193.379Z" fill="#232C36"/>
<path d="M82.4751 184.493L106.442 198.334V199.055L82.4751 185.226V184.493Z" fill="#232C36"/>
<path d="M82.4751 175.618L106.442 189.447V190.169L82.4751 176.34V175.618Z" fill="#232C36"/>
<path d="M82.4751 166.731L106.442 180.561V181.282L82.4751 167.453V166.731Z" fill="#232C36"/>
<path d="M82.4751 157.845L106.442 171.674V172.407L82.4751 158.578V157.845Z" fill="#232C36"/>
<path d="M82.4751 148.958L106.442 162.799V163.521L82.4751 149.692V148.958Z" fill="#232C36"/>
<path d="M82.4751 140.083L106.442 153.912V154.634L82.4751 140.805V140.083Z" fill="#232C36"/>
<path d="M82.4751 131.196L106.442 145.025V145.747L82.4751 131.918V131.196Z" fill="#232C36"/>
<path d="M82.4751 122.31L106.442 136.139V136.872L82.4751 123.043V122.31Z" fill="#232C36"/>
<path d="M82.4751 113.435L106.442 127.264V127.986L82.4751 114.157V113.435Z" fill="#232C36"/>
<path d="M82.4751 104.548L106.442 118.377V119.099L82.4751 105.27V104.548Z" fill="#232C36"/>
<path d="M82.4751 95.6616L106.442 109.491V110.224L82.4751 96.3831V95.6616Z" fill="#232C36"/>
<path d="M82.4751 86.7749L106.442 100.604V101.338L82.4751 87.5084V86.7749Z" fill="#232C36"/>
<path d="M82.4751 77.9004L106.442 91.7295V92.4511L82.4751 78.6219V77.9004Z" fill="#232C36"/>
<path d="M82.4751 69.0137L106.442 82.8428V83.5643L82.4751 69.7352V69.0137Z" fill="#232C36"/>
</g>
<defs>
<clipPath id="clip0_204_26467">
<rect width="155" height="279" fill="white"/>
</clipPath>
</defs>
</svg>
