<svg width="131" height="263" viewBox="0 0 131 263" fill="none" xmlns="http://www.w3.org/2000/svg">
<g style="mix-blend-mode:multiply">
<path d="M98.2012 262.329H10.1325L0.102539 256.545L84.4672 207.826C84.4672 207.826 98.7785 254.5 98.2012 262.329Z" fill="#897998"/>
</g>
<path d="M66.5598 212.42V245.204L89.6383 258.529V225.746L66.5598 212.42Z" fill="#080F15"/>
<path d="M98.0927 225.745H89.6382V258.528H98.0927V225.745Z" fill="#1A2C3B"/>
<path d="M121.135 197.724V245.288L98.0808 258.529V225.745L121.135 197.724Z" fill="#36556E"/>
<path d="M60.1979 226.659V244.663L58.9231 245.396V227.393L60.1979 226.659Z" fill="#284359"/>
<path d="M124.948 228.246V246.249L126.222 246.983V228.98L124.948 228.246Z" fill="#132533"/>
<path d="M127.485 228.246V246.249L126.223 246.983V228.98L127.485 228.246Z" fill="#456D8C"/>
<path d="M121.135 230.448V248.451L122.398 249.185V231.181L121.135 230.448Z" fill="#132533"/>
<path d="M123.673 230.448V248.451L122.398 249.185V231.181L123.673 230.448Z" fill="#456D8C"/>
<path d="M117.311 232.648V250.652L118.586 251.385V233.382L117.311 232.648Z" fill="#132533"/>
<path d="M119.86 232.648V250.652L118.586 251.385V233.382L119.86 232.648Z" fill="#456D8C"/>
<path d="M113.499 234.849V252.853L114.773 253.586V235.595L113.499 234.849Z" fill="#132533"/>
<path d="M116.048 234.849V252.853L114.773 253.586V235.595L116.048 234.849Z" fill="#456D8C"/>
<path d="M109.686 237.062V255.053L110.949 255.787V237.795L109.686 237.062Z" fill="#132533"/>
<path d="M112.224 237.062V255.053L110.949 255.787V237.795L112.224 237.062Z" fill="#456D8C"/>
<path d="M105.862 239.263V257.267L107.137 258V239.997L105.862 239.263Z" fill="#132533"/>
<path d="M108.412 239.263V257.267L107.137 258V239.997L108.412 239.263Z" fill="#456D8C"/>
<path d="M102.013 241.392V259.395L103.288 260.129V242.137L102.013 241.392Z" fill="#132533"/>
<path d="M104.563 241.392V259.395L103.288 260.129V242.137L104.563 241.392Z" fill="#456D8C"/>
<path d="M127.485 226.779V244.771L128.76 245.516V227.513L127.485 226.779Z" fill="#132533"/>
<path d="M57.6484 226.659V244.663L58.9232 245.396V227.393L57.6484 226.659Z" fill="#132533"/>
<path d="M62.7352 228.126V246.129L61.4604 246.863V228.86L62.7352 228.126Z" fill="#284359"/>
<path d="M60.1978 228.126V246.129L61.4605 246.863V228.86L60.1978 228.126Z" fill="#132533"/>
<path d="M64.0104 228.86V246.863L62.7356 247.597V229.593L64.0104 228.86Z" fill="#284359"/>
<path d="M61.4604 228.86V246.863L62.7352 247.597V229.593L61.4604 228.86Z" fill="#132533"/>
<path d="M67.8226 231.061V249.064L66.5598 249.798V231.794L67.8226 231.061Z" fill="#284359"/>
<path d="M65.2849 231.061V249.064L66.5597 249.798V231.794L65.2849 231.061Z" fill="#132533"/>
<path d="M71.6348 233.274V251.265L70.3721 251.999V233.996L71.6348 233.274Z" fill="#284359"/>
<path d="M69.0972 233.274V251.265L70.372 251.999V233.996L69.0972 233.274Z" fill="#132533"/>
<path d="M75.4594 235.475V253.466L74.1846 254.2V236.208L75.4594 235.475Z" fill="#284359"/>
<path d="M72.9099 235.475V253.466L74.1847 254.2V236.208L72.9099 235.475Z" fill="#132533"/>
<path d="M79.2716 237.675V255.679L77.9968 256.412V238.409L79.2716 237.675Z" fill="#284359"/>
<path d="M76.7341 237.675V255.679L77.9969 256.412V238.409L76.7341 237.675Z" fill="#132533"/>
<path d="M83.0841 239.875V257.879L81.8213 258.612V240.609L83.0841 239.875Z" fill="#284359"/>
<path d="M80.5464 239.875V257.879L81.8212 258.612V240.609L80.5464 239.875Z" fill="#132533"/>
<path d="M85.7178 241.392V259.395L84.4551 260.129V242.137L85.7178 241.392Z" fill="#284359"/>
<path d="M83.1802 241.392V259.395L84.455 260.129V242.137L83.1802 241.392Z" fill="#132533"/>
<path d="M86.9926 242.137V260.129L85.7178 260.862V242.871L86.9926 242.137Z" fill="#284359"/>
<path d="M84.4551 242.137V260.129L85.7178 260.862V242.871L84.4551 242.137Z" fill="#132533"/>
<path d="M130.035 226.779V244.771L128.76 245.516V227.513L130.035 226.779Z" fill="#456D8C"/>
<path d="M89.5301 244.326V262.33H88.2673V244.338L89.5301 244.326Z" fill="#284359"/>
<path d="M86.9927 243.604V261.595L88.2675 262.329V244.338L86.9927 243.604Z" fill="#132533"/>
<path d="M90.1677 243.604V261.595L89.5303 262.329V244.338L90.1677 243.604Z" fill="#456D8C"/>
<path d="M97.5635 243.604V261.595L98.2009 262.329V244.338L97.5635 243.604Z" fill="#132533"/>
<path d="M98.2012 244.326V262.33H99.476V244.338L98.2012 244.326Z" fill="#284359"/>
<path d="M100.739 243.604V261.595L99.4758 262.329V244.338L100.739 243.604Z" fill="#456D8C"/>
<path d="M88.5679 135.776L59.9453 93.0101L93.7393 73.5034L127.738 119.36L99.1631 135.776H88.5679Z" fill="#95ABB8"/>
<path d="M98.8627 46.4326H88.8809V134.634H98.8627V46.4326Z" fill="#3E5A70"/>
<path d="M88.8685 46.4446V134.622L62.2422 92.9985V31.063L88.8685 46.4446Z" fill="#23394A"/>
<path d="M98.8625 134.622L125.501 119.241V31.0518L98.8625 46.4214V134.622Z" fill="#6186A3"/>
<path d="M98.8623 46.4206H88.8805L62.2422 31.051L74.2685 24.0998L93.7391 12.8672L125.428 31.1592L98.8623 46.4206Z" fill="#95ABB8"/>
<path d="M89.1694 45.3627L64.3711 31.0513L75.3391 24.7135L93.7394 14.0942L123.3 31.1596L98.5739 45.3627H89.1694Z" fill="#335970"/>
<path d="M93.7394 16.271L75.3392 26.8902L66.2593 32.1337L89.1694 45.3627H98.574L121.412 32.2419L93.7394 16.271Z" fill="#BDA195"/>
<g style="mix-blend-mode:multiply">
<path d="M93.7396 16.271L92.8015 16.8122L119.536 32.2419L96.698 45.3627H98.5741L121.412 32.2419L93.7396 16.271Z" fill="#C5BDCD"/>
</g>
<path d="M88.2674 201.669L57.6484 184.002L93.7394 143.558L130.035 164.507L99.476 201.669H88.2674Z" fill="#95ABB8"/>
<path d="M59.9453 93.0107V184.002L88.5679 200.526V135.776L59.9453 93.0107Z" fill="#132533"/>
<path d="M99.1631 135.776H88.5679V200.526H99.1631V135.776Z" fill="#284359"/>
<path d="M127.738 119.349V164.519L121.388 172.505L113.258 182.775L99.1633 200.514V135.777L127.738 119.349Z" fill="#456D8C"/>
<path d="M57.6484 184.002V227.477L88.2674 245.156V201.669L57.6484 184.002Z" fill="#132533"/>
<path d="M99.4759 201.668H88.2673V245.144H99.4759V201.668Z" fill="#284359"/>
<path d="M130.047 164.52V227.598L99.4758 245.156V201.669L106.595 193.022L114.172 183.81L122.326 173.924L130.047 164.52Z" fill="#456D8C"/>
<path d="M92.6569 26.9143L84.01 31.8932V5.75996L92.6569 0.769043V26.9143Z" fill="#6C8A9D"/>
<path d="M92.6571 0.769043L84.0102 5.75996L69.9514 9.37989L78.5983 4.38896L92.6571 0.769043Z" fill="#4E7288"/>
<path d="M69.9514 26.6014L74.2689 24.0999L75.3392 24.7132V26.89L84.0102 31.893V5.75977L69.9514 9.37969V26.6014Z" fill="#23394A"/>
<g style="mix-blend-mode:color-dodge">
<path d="M98.8627 52.9751H88.8809V59.6016H98.8627V52.9751Z" fill="#141414"/>
</g>
<g style="mix-blend-mode:color-dodge">
<path d="M98.8625 59.6014L125.501 44.2198V37.5933L98.8625 52.9749V59.6014Z" fill="#141414"/>
</g>
<g style="mix-blend-mode:color-dodge">
<path d="M98.8627 66.8774H88.8809V73.5039H98.8627V66.8774Z" fill="#141414"/>
</g>
<g style="mix-blend-mode:color-dodge">
<path d="M98.8625 73.5043L125.501 58.1226V51.4961L98.8625 66.8778V73.5043Z" fill="#141414"/>
</g>
<g style="mix-blend-mode:color-dodge">
<path d="M98.8627 80.7798H88.8809V87.4063H98.8627V80.7798Z" fill="#141414"/>
</g>
<g style="mix-blend-mode:color-dodge">
<path d="M98.8625 87.4066L125.501 72.0249V65.3984L98.8625 80.7801V87.4066Z" fill="#141414"/>
</g>
<g style="mix-blend-mode:color-dodge">
<path d="M98.8627 94.6821H88.8809V101.309H98.8627V94.6821Z" fill="#141414"/>
</g>
<g style="mix-blend-mode:color-dodge">
<path d="M98.8625 101.308L125.501 85.9268V79.3003L98.8625 94.682V101.308Z" fill="#141414"/>
</g>
<g style="mix-blend-mode:color-dodge">
<path d="M98.8627 108.584H88.8809V115.211H98.8627V108.584Z" fill="#141414"/>
</g>
<g style="mix-blend-mode:color-dodge">
<path d="M98.8625 115.211L125.501 99.8296V93.2031L98.8625 108.585V115.211Z" fill="#141414"/>
</g>
<g style="mix-blend-mode:color-dodge">
<path d="M98.8627 122.487H88.8809V129.114H98.8627V122.487Z" fill="#141414"/>
</g>
<g style="mix-blend-mode:color-dodge">
<path d="M98.8625 129.114L125.501 113.732V107.105L98.8625 122.487V129.114Z" fill="#141414"/>
</g>
<g style="mix-blend-mode:color-dodge">
<path d="M99.1633 141.236V146.792L127.738 130.304V124.748L99.1633 141.236Z" fill="#141414"/>
</g>
<g style="mix-blend-mode:color-dodge">
<path d="M99.1633 152.264V157.821L127.738 141.321V135.776L99.1633 152.264Z" fill="#141414"/>
</g>
<g style="mix-blend-mode:color-dodge">
<path d="M130.047 169.45V174.645L114.172 183.809L122.326 173.923L130.047 169.45Z" fill="#141414"/>
</g>
<g style="mix-blend-mode:color-dodge">
<path d="M130.047 179.48V184.675L99.4758 202.318V201.669L106.595 193.022L130.047 179.48Z" fill="#141414"/>
</g>
<g style="mix-blend-mode:color-dodge">
<path d="M99.4758 207.153V212.348L130.047 194.693V189.498L99.4758 207.153Z" fill="#141414"/>
</g>
<g style="mix-blend-mode:color-dodge">
<path d="M99.4758 217.182V222.366L130.047 204.723V199.528L99.4758 217.182Z" fill="#141414"/>
</g>
<g style="mix-blend-mode:color-dodge">
<path d="M99.4758 227.2V232.396L130.047 214.741V209.558L99.4758 227.2Z" fill="#141414"/>
</g>
<g style="mix-blend-mode:color-dodge">
<path d="M99.4758 237.23V242.414L130.047 224.771V219.576L99.4758 237.23Z" fill="#141414"/>
</g>
<g style="mix-blend-mode:color-dodge">
<path d="M99.1633 163.293V168.837L127.738 152.349V146.792L99.1633 163.293Z" fill="#141414"/>
</g>
<g style="mix-blend-mode:color-dodge">
<path d="M88.5681 141.236V146.792L60.0056 130.304V124.748L88.5681 141.236Z" fill="#141414"/>
</g>
<g style="mix-blend-mode:color-dodge">
<path d="M88.8685 66.8778V73.4922L62.2422 58.1346V51.4961L88.8685 66.8778Z" fill="#141414"/>
</g>
<g style="mix-blend-mode:color-dodge">
<path d="M88.8685 80.7803V87.3948L62.2422 72.0371V65.4106L88.8685 80.7803Z" fill="#141414"/>
</g>
<g style="mix-blend-mode:color-dodge">
<path d="M88.8685 94.6946V101.297L62.2422 85.9154V79.313L88.8685 94.6946Z" fill="#141414"/>
</g>
<g style="mix-blend-mode:color-dodge">
<path d="M88.8809 108.585V115.211L60.3184 98.7112V92.0967L88.8809 108.585Z" fill="#141414"/>
</g>
<g style="mix-blend-mode:color-dodge">
<path d="M88.8809 122.487V129.114L60.3184 112.613V105.999L88.8809 122.487Z" fill="#141414"/>
</g>
<g style="mix-blend-mode:color-dodge">
<path d="M88.8685 52.9749V59.6014L62.2422 44.2318V37.5933L88.8685 52.9749Z" fill="#141414"/>
</g>
<g style="mix-blend-mode:color-dodge">
<path d="M99.1633 174.308V179.865L127.738 163.376V157.82L99.1633 174.308Z" fill="#141414"/>
</g>
<g style="mix-blend-mode:color-dodge">
<path d="M121.388 172.504L113.258 182.775L99.1633 190.905V185.348L121.388 172.504Z" fill="#141414"/>
</g>
<g style="mix-blend-mode:multiply">
<path d="M84.0099 31.8932H66.656V29.7284H64.6716L74.2686 24.1001L75.339 24.7134V26.8902L84.0099 31.8932Z" fill="#897998"/>
</g>
<g style="mix-blend-mode:multiply">
<path d="M99.1633 200.514V179.876L103.469 177.086V153.755L113.042 148.776V163.713L117.876 161.356L124.106 165.709V169.089L99.1633 200.514Z" fill="#C7D6ED"/>
</g>
<g style="mix-blend-mode:multiply">
<path d="M130.047 174.994V227.597L99.4758 245.156V201.668L124.106 171.735V191.506L126.968 187.622V178.746L130.047 174.994Z" fill="#C7D6ED"/>
</g>
<g style="mix-blend-mode:multiply">
<path d="M99.1632 166.347V200.526L88.5801 200.514V155.92L91.3942 155.439L93.7033 159.047V166.191L99.1632 166.347Z" fill="#B7C2C9"/>
</g>
<g style="mix-blend-mode:multiply">
<path d="M99.4638 201.668H88.2673V245.144H99.4638V201.668Z" fill="#B7C2C9"/>
</g>
<g style="mix-blend-mode:color-dodge">
<path d="M99.1631 141.249H88.5679V146.805H99.1631V141.249Z" fill="#141414"/>
</g>
<g style="mix-blend-mode:color-dodge">
<path d="M88.5681 152.264V157.821L60.0056 141.321V135.776L88.5681 152.264Z" fill="#141414"/>
</g>
<g style="mix-blend-mode:color-dodge">
<path d="M99.1631 152.265H88.5679V157.821H99.1631V152.265Z" fill="#141414"/>
</g>
<g style="mix-blend-mode:color-dodge">
<path d="M88.5681 163.293V168.837L60.0056 152.349V146.792L88.5681 163.293Z" fill="#141414"/>
</g>
<g style="mix-blend-mode:color-dodge">
<path d="M99.1631 163.292H88.5679V168.849H99.1631V163.292Z" fill="#141414"/>
</g>
<g style="mix-blend-mode:color-dodge">
<path d="M88.5681 174.308V179.865L60.0056 163.376V157.82L88.5681 174.308Z" fill="#141414"/>
</g>
<g style="mix-blend-mode:color-dodge">
<path d="M99.1631 174.309H88.5679V179.865H99.1631V174.309Z" fill="#141414"/>
</g>
<g style="mix-blend-mode:color-dodge">
<path d="M88.5681 185.337V190.893L60.0056 174.393V168.837L88.5681 185.337Z" fill="#141414"/>
</g>
<g style="mix-blend-mode:color-dodge">
<path d="M99.1631 185.336H88.5679V190.893H99.1631V185.336Z" fill="#141414"/>
</g>
<g style="mix-blend-mode:color-dodge">
<path d="M88.2674 207.153V212.348L57.6484 194.669V189.474L88.2674 207.153Z" fill="#141414"/>
</g>
<g style="mix-blend-mode:color-dodge">
<path d="M99.4759 207.153H88.2673V212.348H99.4759V207.153Z" fill="#141414"/>
</g>
<g style="mix-blend-mode:color-dodge">
<path d="M88.2674 217.182V222.365L57.6484 204.699V199.503L88.2674 217.182Z" fill="#141414"/>
</g>
<g style="mix-blend-mode:color-dodge">
<path d="M99.4759 217.182H88.2673V222.378H99.4759V217.182Z" fill="#141414"/>
</g>
<g style="mix-blend-mode:color-dodge">
<path d="M88.2674 227.2V232.395L57.6484 214.717V209.533L88.2674 227.2Z" fill="#141414"/>
</g>
<g style="mix-blend-mode:color-dodge">
<path d="M99.4759 227.2H88.2673V232.396H99.4759V227.2Z" fill="#141414"/>
</g>
<g style="mix-blend-mode:color-dodge">
<path d="M88.2674 237.23V242.414L57.6484 224.747V219.552L88.2674 237.23Z" fill="#141414"/>
</g>
<g style="mix-blend-mode:color-dodge">
<path d="M99.4759 237.231H88.2673V242.426H99.4759V237.231Z" fill="#141414"/>
</g>
<g style="mix-blend-mode:multiply">
<path d="M91.7549 29.4637L98.9226 25.3267L102.302 34.5629H100.582L91.7549 29.4637Z" fill="#897998"/>
</g>
<g style="mix-blend-mode:multiply">
<path d="M82.9158 35.9096L92.6691 30.2812L89.9872 38.7237H87.7864L82.9158 35.9096Z" fill="#897998"/>
</g>
<g style="mix-blend-mode:multiply">
<path d="M88.9648 38.7239L90.408 37.894L94.8577 41.538H93.8355L88.9648 38.7239Z" fill="#897998"/>
</g>
<g style="mix-blend-mode:multiply">
<path d="M94.7375 35.3928L96.1807 34.563L100.63 38.207H99.5962L94.7375 35.3928Z" fill="#897998"/>
</g>
<path d="M93.4746 29.4637V25.3267L102.302 30.4258V34.5629L93.4746 29.4637Z" fill="#826565"/>
<path d="M109.47 30.4259V26.2769L102.302 30.4259V34.563L109.47 30.4259Z" fill="#E5DED0"/>
<path d="M93.4746 25.3268L100.642 21.1777L109.47 26.2769L102.302 30.426L93.4746 25.3268Z" fill="#F8F6E1"/>
<path d="M85.1162 35.9095V33.6245L89.9869 36.4387V38.7237L85.1162 35.9095Z" fill="#826565"/>
<path d="M99.7404 33.0951V30.8101L89.9871 36.4384V38.7234L99.7404 33.0951Z" fill="#E5DED0"/>
<path d="M85.1162 33.6249L94.8696 27.9966L99.7402 30.8107L89.9869 36.4391L85.1162 33.6249Z" fill="#F8F6E1"/>
<path d="M89.9871 38.7235V36.8594L94.8577 39.6615V41.5376L89.9871 38.7235Z" fill="#826565"/>
<path d="M96.3011 40.6961V38.832L94.8579 39.6618V41.538L96.3011 40.6961Z" fill="#E5DED0"/>
<path d="M89.9871 36.8594L91.4302 36.0176L96.3009 38.8317L94.8577 39.6616L89.9871 36.8594Z" fill="#F8F6E1"/>
<path d="M95.7595 35.3924V33.5283L100.63 36.3305V38.2066L95.7595 35.3924Z" fill="#826565"/>
<path d="M102.074 37.3646V35.5005L100.63 36.3303V38.2064L102.074 37.3646Z" fill="#E5DED0"/>
<path d="M95.7595 33.5284L97.2027 32.6865L102.073 35.5007L100.63 36.3305L95.7595 33.5284Z" fill="#F8F6E1"/>
</svg>
