<svg width="101" height="101" viewBox="0 0 101 101" fill="none" xmlns="http://www.w3.org/2000/svg">
<g clip-path="url(#clip0_286_3453)">
<path d="M73.893 69.8H56.8776V65.3075H60.4014C64.1217 65.3075 67.1402 62.2891 67.1402 58.5687C67.1402 54.8483 64.1217 51.8299 60.4014 51.8299H56.8776V45.0911C56.8776 44.5577 56.4423 44.1224 55.9089 44.1224C55.3754 44.1224 54.9402 44.5577 54.9402 45.0911V63.3701H44.0318V42.2131H62.6617C66.0311 42.2131 68.7687 39.4755 68.7687 36.1201V29.3814H72.11C72.5452 29.3814 72.9524 29.1848 73.2191 28.8338C73.6964 28.2301 73.6964 27.3316 73.2191 26.728L69.2741 21.7441C68.9091 21.2667 68.3616 21 67.8 21C67.2384 21 66.7049 21.2667 66.3259 21.7441L62.3809 26.742C61.9036 27.3457 61.9036 28.2442 62.3809 28.8479C62.6617 29.1988 63.0688 29.3954 63.49 29.3954H66.8313V36.1342C66.8313 38.4366 64.9641 40.3038 62.6617 40.3038H56.8776V37.1871H58.9413C59.531 37.1871 60.0925 36.9063 60.4856 36.4009C61.1876 35.5024 61.1876 34.1125 60.4856 33.214L51.8235 22.2354C51.2198 21.4773 50.3774 21.0421 49.493 21.0421C48.6085 21.0421 47.7662 21.4773 47.1625 22.2354L38.5003 33.214C37.7984 34.1125 37.7984 35.5024 38.5003 36.4009C38.8934 36.8923 39.455 37.1871 40.0446 37.1871H42.1084V40.3038H39.8621C36.1418 40.3038 33.1234 43.3222 33.1234 47.0426C33.1234 50.7629 36.1418 53.7814 39.8621 53.7814H42.1084V63.3982H39.8621C36.2541 63.3982 33.2918 66.2481 33.1234 69.814H25.093C21.7376 69.8 19 72.5376 19 75.893C19 79.2483 21.7376 81.986 25.093 81.986H73.893C77.2624 81.986 79.986 79.2483 79.986 75.893C80 72.5376 77.2624 69.8 73.893 69.8ZM56.8776 53.7673H60.4014C63.0548 53.7673 65.2168 55.9293 65.2168 58.5827C65.2168 61.2361 63.0548 63.3982 60.4014 63.3982H56.8776V53.7673ZM64.2762 27.458L67.814 22.9795L71.3519 27.458H64.2762ZM40.0587 35.2497C40.0446 35.2497 40.0306 35.2357 40.0166 35.2076C39.8621 35.011 39.8621 34.6039 40.0166 34.4074L48.6787 23.4288C48.9174 23.1339 49.2122 22.9655 49.493 22.9655C49.7878 22.9655 50.0826 23.1339 50.3072 23.4288L58.9694 34.4074C59.1238 34.6039 59.1238 35.011 58.9694 35.2076C58.9413 35.2357 58.9273 35.2497 58.9132 35.2497H55.8948C55.3613 35.2497 54.9261 35.6849 54.9261 36.2184V40.2898H44.0177V36.2184C44.0177 35.6849 43.5825 35.2497 43.049 35.2497H40.0587ZM39.8621 51.844C37.2087 51.844 35.0467 49.6819 35.0467 47.0285C35.0467 44.3751 37.2087 42.2131 39.8621 42.2131H42.1084V51.8299H39.8621V51.844ZM39.8621 65.3075H54.9542V74.9243H44.0458V68.1855C44.0458 67.652 43.6106 67.2168 43.0771 67.2168C42.5436 67.2168 42.1224 67.652 42.1224 68.1855V69.786H35.0748C35.2292 67.301 37.3211 65.3075 39.8621 65.3075ZM42.1084 71.7234V74.9243H39.8621C37.7703 74.9243 35.9873 73.5906 35.3275 71.7234H42.1084ZM73.893 80.0626H25.093C22.7906 80.0626 20.9234 78.1954 20.9234 75.893C20.9234 73.5906 22.7906 71.7234 25.093 71.7234H33.3059C33.6147 72.9588 34.2605 74.0679 35.145 74.9243H26.3846C25.8511 74.9243 25.4159 75.3595 25.4159 75.893C25.4159 76.4265 25.8511 76.8476 26.3846 76.8476H72.6154C73.1489 76.8476 73.5841 76.4124 73.5841 75.893C73.5841 75.3595 73.1489 74.9243 72.6154 74.9243H56.8916V71.7234H73.893C76.1954 71.7234 78.0626 73.5906 78.0626 75.893C78.0626 78.1954 76.1954 80.0626 73.893 80.0626Z" fill="#9AC0FF"/>
</g>
<defs>
<clipPath id="clip0_286_3453">
<rect width="61" height="61" fill="white" transform="translate(19 21)"/>
</clipPath>
</defs>
</svg>
