<svg width="101" height="101" viewBox="0 0 101 101" fill="none" xmlns="http://www.w3.org/2000/svg">
<g clip-path="url(#clip0_286_3452)">
<path d="M62.9955 35.6264C59.2915 35.6264 56.2717 32.6059 56.2717 28.9011C56.2717 25.1962 59.2915 22.1758 62.9955 22.1758C66.6996 22.1758 69.7193 25.1962 69.7193 28.9011C69.7193 32.6059 66.6996 35.6264 62.9955 35.6264ZM63.7393 30.5229C63.6352 31.5793 63.1145 32.5911 62.3112 33.3201L61.5823 33.9748L62.5493 34.0641C62.7724 34.0938 62.8765 34.1087 62.9807 34.1087C65.8368 34.1087 68.1574 31.7876 68.1574 28.9308C68.1574 26.0741 65.8368 23.753 62.9807 23.753C60.1245 23.753 57.8039 26.0741 57.8039 28.9308C57.8039 30.389 58.4287 31.7876 59.5295 32.7696L59.6783 32.9035L59.8865 32.8738C61.0914 32.6655 61.9989 31.7132 62.1774 30.5378H63.7393V30.5229Z" fill="#9AC0FF"/>
<path d="M26.1039 49.9103C22.3999 49.9103 19.395 46.8899 19.395 43.185C19.395 39.4802 22.4148 36.4746 26.1039 36.4746C29.808 36.4746 32.8277 39.4802 32.8277 43.185C32.8129 46.9048 29.808 49.9103 26.1039 49.9103ZM26.1039 38.0071C23.2478 38.0071 20.9272 40.3283 20.9272 43.185C20.9272 46.0418 23.2478 48.3778 26.1039 48.3778C26.2081 48.3778 26.2973 48.3629 26.3866 48.348L27.413 48.3034L26.7882 47.6041C25.9552 46.8601 25.4643 45.8781 25.3602 44.8068H26.9072C27.0857 45.9823 27.9932 46.9345 29.1981 47.1428L29.4063 47.1726L29.5551 47.0387C30.6559 46.0418 31.2956 44.6432 31.2956 43.185C31.2807 40.3283 28.9601 38.0071 26.1039 38.0071Z" fill="#9AC0FF"/>
<path d="M17 88V86.4675H21.7602V71.3356H17.7735C17.3421 71.3356 17 70.9933 17 70.5767V57.4832C17 54.433 19.4842 51.9483 22.5337 51.9483H32.0542C32.1286 51.9483 32.2178 51.9631 32.3219 51.9929L39.1647 54.2694L46.9745 50.9216L50.4256 44.0326C50.4702 43.9434 50.5446 43.8541 50.619 43.7946L57.7593 37.843C57.8932 37.724 58.0717 37.6644 58.2502 37.6644H75.3126V21.7737C75.3126 21.5208 75.4316 21.2976 75.625 21.1488C75.7589 21.0446 75.9225 21 76.0713 21C76.1605 21 76.2349 21.0149 76.3242 21.0446L83.4645 23.4253C83.7769 23.5294 83.9851 23.827 83.9851 24.1543C83.9851 24.4817 83.762 24.7793 83.4645 24.8834L76.8448 27.0855V30.5225H80.8315C81.2629 30.5225 81.605 30.8648 81.605 31.2814V38.4233C81.605 41.4735 79.1208 43.9583 76.0713 43.9583H69.7045V49.5676H74.8812C77.9307 49.5676 80.415 52.0524 80.415 55.1026V65.0566H82.7951V66.5892H66.1343V72.9574C66.1343 73.3889 65.7922 73.7311 65.3608 73.7311H51.8537V80.0993C51.8537 80.5308 51.5115 80.873 51.0802 80.873H34.0029V87.2412C34.0029 87.6727 33.6607 88.0149 33.2294 88.0149H17V88ZM29.2427 86.4675H32.4558V80.0993C32.4558 79.6678 32.798 79.3256 33.2294 79.3256H36.026V71.3504H29.2427V86.4675ZM23.2924 86.4675H27.7105V70.5767C27.7105 70.1452 28.0526 69.803 28.484 69.803H36.8144C37.2309 69.803 37.573 70.1452 37.573 70.5767V79.3256H41.9911V69.3864C41.9911 67.1843 40.206 65.3988 37.9896 65.3988H32.0393C31.6228 65.3988 31.2806 65.0566 31.2806 64.6251V58.6736C31.2806 58.4504 31.3699 58.2421 31.5484 58.0933C31.6823 57.9742 31.8608 57.8998 32.0393 57.8998L40.2358 59.0604L48.7595 54.7901L47.2125 52.469L39.4623 55.787C39.3581 55.8317 39.254 55.8465 39.1499 55.8465C39.0755 55.8465 38.9862 55.8317 38.9119 55.8019L31.95 53.4808L28.0229 53.4659V61.7981H26.5204V53.4659H22.5337C20.3321 53.4659 18.5471 55.2514 18.5471 57.4535V69.7733H21.7602V59.0604H23.3073V86.4675H23.2924ZM32.8128 63.8514H37.9896C41.0391 63.8514 43.5233 66.3362 43.5233 69.3864V79.3256H50.3215V72.9574C50.3215 72.5408 50.6636 72.1985 51.095 72.1985H58.6519V45.9223L55.29 48.4517L50.5595 55.5043L50.5149 55.549C50.4405 55.668 50.3512 55.7275 50.262 55.787L40.7416 60.5632C40.6374 60.6078 40.5184 60.6376 40.3994 60.6376L32.8426 59.5663V63.8514H32.8128ZM59.4254 43.616C59.5444 43.616 59.6634 43.6458 59.7675 43.6904C60.0353 43.8243 60.1989 44.0922 60.1989 44.3749V72.1837H64.6021V56.278C64.6021 55.8465 64.9443 55.5043 65.3757 55.5043H73.706C74.1374 55.5043 74.4796 55.8465 74.4796 56.278V65.0418H78.8976V55.0877C78.8976 52.8856 77.1126 51.1002 74.8961 51.1002H68.9458C68.5144 51.1002 68.1723 50.7579 68.1723 50.3264V43.1845C68.1723 42.7679 68.5144 42.4257 68.9458 42.4257H76.0861C78.2877 42.4257 80.0728 40.6254 80.0728 38.4233V32.0551H76.8597V38.4233C76.8597 38.8548 76.5175 39.197 76.0861 39.197H67.0864L64.8996 44.6576C64.7806 44.9551 64.498 45.1486 64.1856 45.1486C63.8732 45.1486 63.5906 44.9551 63.4716 44.6724L61.2849 39.197H58.5031L51.7049 44.8659L48.4025 51.4573L49.8901 53.704L54.0107 47.5143C54.0553 47.4399 54.1148 47.3804 54.1743 47.3358L58.9494 43.7499C59.0981 43.6756 59.2618 43.616 59.4254 43.616ZM66.1492 65.0418H72.9474V57.0517H66.1492V65.0418ZM64.1856 42.3216L65.4352 39.197H62.9509L64.1856 42.3216ZM76.8448 25.4637L80.7869 24.1543L76.8448 22.8301V25.4637Z" fill="#9AC0FF"/>
<path d="M47.1083 26.9512H45.5613V28.4837H47.1083V26.9512Z" fill="#9AC0FF"/>
<path d="M42.3481 26.9512H40.801V28.4837H42.3481V26.9512Z" fill="#9AC0FF"/>
<path d="M37.573 26.9512H36.0408V28.4837H37.573V26.9512Z" fill="#9AC0FF"/>
</g>
<defs>
<clipPath id="clip0_286_3452">
<rect width="67" height="67" fill="white" transform="translate(17 21)"/>
</clipPath>
</defs>
</svg>
