<svg width="15" height="16" viewBox="0 0 15 16" fill="none" xmlns="http://www.w3.org/2000/svg">
<path d="M6.46295 0.366953L0.169891 5.49889C0.0637093 5.5913 0 5.72635 0 5.86851V15.5282C0 15.7912 0.212364 15.9973 0.467202 15.9973H4.68617C4.94809 15.9973 5.15337 15.7841 5.15337 15.5282V9.40827C5.15337 9.14527 5.36574 8.93914 5.62058 8.93914H9.37235C9.63426 8.93914 9.83955 9.15238 9.83955 9.40827V15.5282C9.83955 15.7912 10.0519 15.9973 10.3067 15.9973H14.5257C14.7876 15.9973 14.9929 15.7841 14.9929 15.5282V5.86851C14.9929 5.72635 14.9292 5.5913 14.816 5.506L8.52289 0.374061C7.92827 -0.123496 7.06465 -0.123496 6.46295 0.366953Z" fill="#89E7A9"/>
</svg>
