<svg width="101" height="101" viewBox="0 0 101 101" fill="none" xmlns="http://www.w3.org/2000/svg">
<g clip-path="url(#clip0_286_3450)">
<path d="M31.1352 78.5164C29.8281 78.473 27.6592 77.924 27.6592 76.1613V23.4828C27.6735 21.5467 29.2248 19.9863 31.1352 19.9863C33.0455 19.9863 34.6111 21.5467 34.6111 23.4828V26.5603C34.6111 26.9793 34.2664 27.3261 33.8499 27.3261C33.4333 27.3261 33.0886 26.9793 33.0886 26.5603V23.4828C33.0886 22.3992 32.2124 21.5178 31.1352 21.5178C30.0579 21.5178 29.1817 22.3992 29.1817 23.4828V76.1613C29.1817 76.7103 30.575 76.9704 31.1639 76.9993C33.0168 76.9993 33.0886 76.7392 33.0886 76.1613V33.6833C33.0886 33.2643 33.4333 32.9176 33.8499 32.9176C34.2664 32.9176 34.6111 33.2643 34.6111 33.6833V76.1613C34.6111 78.5164 32.3561 78.5164 31.1352 78.5164Z" fill="#9AC0FF"/>
<path d="M31.1352 83.7325C26.0074 83.7325 22 81.6519 22 78.979C22 76.9273 24.3556 75.1791 27.9896 74.5C28.4061 74.4278 28.7939 74.7023 28.8801 75.1069C28.9519 75.5259 28.679 75.916 28.2769 76.0027C25.5334 76.5083 23.5369 77.7509 23.5369 78.979C23.5369 80.5105 26.6681 82.201 31.1496 82.201C35.6454 82.201 38.7622 80.4961 38.7622 78.979C38.7622 77.7076 36.6508 76.4361 33.735 75.9593C33.3185 75.9015 33.0456 75.497 33.103 75.078C33.1748 74.659 33.5626 74.3844 33.9792 74.4422C37.8142 75.0635 40.2848 76.8407 40.2848 78.9646C40.2704 81.6519 36.263 83.7325 31.1352 83.7325Z" fill="#9AC0FF"/>
<path d="M33.8498 63.2875C33.5338 63.2875 33.2465 63.0997 33.1316 62.7819C32.988 62.3918 33.2034 61.9439 33.5913 61.8138L47.4521 56.8581V42.193C47.4521 41.9474 47.567 41.7162 47.7681 41.5718C47.9692 41.4273 48.2277 41.3984 48.4575 41.4706L54.9355 43.7968V34.9111L33.5913 27.2679C33.2034 27.1235 32.988 26.69 33.1316 26.2999C33.2753 25.8954 33.7062 25.6931 34.1083 25.8376L55.9696 33.6541C56.2713 33.7697 56.4724 34.0586 56.4724 34.3765V44.8804C56.4724 45.126 56.3575 45.3572 56.1564 45.5017C55.9553 45.6462 55.6967 45.6751 55.4669 45.6028L48.989 43.2767V57.3926C48.989 57.7105 48.7879 57.9995 48.4862 58.1151L34.1227 63.2586C34.0222 63.2731 33.936 63.2875 33.8498 63.2875Z" fill="#9AC0FF"/>
<path d="M48.2132 63.2876C48.0552 63.2876 47.9116 63.2443 47.7823 63.1431C47.5812 62.9986 47.4663 62.7675 47.4663 62.5219V42.1931C47.4663 41.9475 47.5812 41.7163 47.7823 41.5718C47.9834 41.4273 48.2419 41.3984 48.4718 41.4707L76.8828 51.6423C77.1844 51.7579 77.3855 52.0468 77.3855 52.3647C77.3855 52.6826 77.1844 52.9715 76.8828 53.0871L48.4718 63.2443C48.3856 63.2732 48.2994 63.2876 48.2132 63.2876ZM48.9745 43.2767V61.4382L74.3692 52.3502L48.9745 43.2767Z" fill="#9AC0FF"/>
<path d="M48.2136 42.9592C48.0269 42.9592 47.8402 42.887 47.6822 42.7425C47.3805 42.4535 47.3805 41.9623 47.6678 41.6589L55.1656 33.8423C55.4528 33.5389 55.9412 33.5245 56.2428 33.8279C56.5445 34.1169 56.5588 34.6081 56.2572 34.9115L48.7594 42.728C48.6158 42.887 48.4147 42.9592 48.2136 42.9592Z" fill="#9AC0FF"/>
</g>
<g clip-path="url(#clip1_286_3450)">
<path d="M65.7207 18.9795L62.7376 22.5469" stroke="#9AC0FF" stroke-width="1.44" stroke-miterlimit="22.9256" stroke-linecap="round" stroke-linejoin="round"/>
<path d="M71.6998 27.2898L67.3245 28.8894" stroke="#9AC0FF" stroke-width="1.44" stroke-miterlimit="22.9256" stroke-linecap="round" stroke-linejoin="round"/>
<path d="M72.7131 37.4811L68.1305 36.6733" stroke="#9AC0FF" stroke-width="1.44" stroke-miterlimit="22.9256" stroke-linecap="round" stroke-linejoin="round"/>
<path d="M56.3833 14.7676L55.5902 19.3489" stroke="#9AC0FF" stroke-width="1.44" stroke-miterlimit="22.9256" stroke-linecap="round" stroke-linejoin="round"/>
<path d="M46.1992 15.7881L47.8055 20.1554" stroke="#9AC0FF" stroke-width="1.44" stroke-miterlimit="22.9256" stroke-linecap="round" stroke-linejoin="round"/>
</g>
<defs>
<clipPath id="clip0_286_3450">
<rect width="55.3858" height="63.7459" fill="white" transform="translate(22 19.9863)"/>
</clipPath>
<clipPath id="clip1_286_3450">
<rect width="35.7604" height="13.8987" fill="white" transform="translate(52.5669 7) rotate(39.902)"/>
</clipPath>
</defs>
</svg>
