<svg width="24" height="24" viewBox="0 0 24 24" fill="none" xmlns="http://www.w3.org/2000/svg">
<path d="M14.6854 18.5986C14.6936 18.6394 14.6936 18.6883 14.6936 18.7372C14.6936 20.2286 13.4873 21.4349 11.9959 21.4349C10.5044 21.4349 9.29822 20.2286 9.29822 18.7372C9.29822 18.6964 9.29822 18.6475 9.30637 18.5986" stroke="#222222" stroke-width="1.5" stroke-miterlimit="10" stroke-linejoin="round"/>
<path d="M13.6179 5.24082V4.70291C13.6179 3.80641 12.8925 3.08105 11.996 3.08105C11.0995 3.08105 10.3741 3.80641 10.3741 4.70291V5.24082" stroke="#222222" stroke-width="1.5" stroke-miterlimit="10"/>
<path d="M7.13846 10.0982C7.13846 7.41679 9.31453 5.24072 11.9959 5.24072C14.6773 5.24072 16.8533 7.41679 16.8533 10.0982V11.0843C16.8533 12.5432 17.3097 13.9694 18.1573 15.1593L19.551 17.1072C19.551 17.1072 17.7906 18.7291 11.9959 18.7291C6.20121 18.7291 4.4408 17.1072 4.4408 17.1072L5.83445 15.1593C6.68206 13.9694 7.13846 12.5432 7.13846 11.0843V10.0982Z" stroke="#222222" stroke-width="1.5" stroke-miterlimit="10" stroke-linejoin="round"/>
</svg>
