<svg xmlns="http://www.w3.org/2000/svg" xmlns:xlink="http://www.w3.org/1999/xlink" viewBox="0 0 130.45 153.42"><defs><style>.cls-1{isolation:isolate;}.cls-2{fill:#e8dcd5;}.cls-3{fill:#f8f6e1;}.cls-4{fill:#bebf4a;}.cls-5{fill:#c9bca1;}.cls-6{fill:#5a504f;}.cls-7{fill:#897998;mix-blend-mode:multiply;}.cls-8{fill:#7c412f;}.cls-9{fill:#5c3023;}.cls-10{fill:#94983a;}.cls-11{fill:#868533;}.cls-12{fill:#a7aa5c;}.cls-13{fill:#214159;}.cls-14{fill:#6186a3;}.cls-15{fill:#826565;}.cls-16{fill:#745454;}.cls-17{fill:#e5ded0;}.cls-18{mix-blend-mode:color-dodge;}.cls-19{fill:#1c1c1c;}.cls-20{fill:#bda195;}.cls-21{fill:url(#쥔晤牆渾_藎雪猥粧_2);}.cls-22{fill:url(#쥔晤牆渾_藎雪猥粧_10);}</style><linearGradient id="쥔晤牆渾_藎雪猥粧_2" x1="49.64" y1="86.44" x2="90.45" y2="65.07" gradientUnits="userSpaceOnUse"><stop offset="0.02" stop-color="#214159"/><stop offset="0.23" stop-color="#294a63"/><stop offset="0.58" stop-color="#40627c"/><stop offset="1" stop-color="#6186a3"/></linearGradient><linearGradient id="쥔晤牆渾_藎雪猥粧_10" x1="48.7" y1="106.95" x2="88.74" y2="42.5" gradientUnits="userSpaceOnUse"><stop offset="0.15" stop-color="#745454"/><stop offset="0.91" stop-color="#e5ded0"/></linearGradient></defs><title>inside-b</title><g class="cls-1"><g id="layer"><polygon class="cls-2" points="112 116.15 104.9 120.24 79.01 135.19 68.53 141.24 60.24 146.03 18.45 121.88 26.74 117.1 70.2 92 73.38 93.84 108.59 114.18 112 116.15"/><polygon class="cls-3" points="108.59 114.18 73.38 93.84 66.29 97.93 101.49 118.27 83.89 128.43 75.6 133.22 79.01 135.19 104.9 120.24 112 116.15 108.59 114.18"/><polygon class="cls-4" points="76.46 133.22 102.35 118.27 67.15 97.93 73.38 94.34 111.14 116.15 79.01 134.7 76.46 133.22"/><polygon class="cls-5" points="67.15 97.93 67.66 98.23 73.38 94.92 110.63 116.44 111.14 116.15 73.38 94.34 67.15 97.93"/><polygon class="cls-6" points="68.53 141.24 60.24 146.03 18.45 121.88 27.3 116.77 68.53 141.24"/><polygon class="cls-5" points="76.46 133.22 76.96 133.51 102.35 118.86 102.35 118.27 76.46 133.22"/><polygon class="cls-7" points="104.38 114.99 102.06 114.99 100.36 115.97 102.06 116.95 104.38 116.95 106.08 115.97 104.38 114.99"/><polygon class="cls-8" points="104.38 116.56 105.07 116.16 105.07 113.68 104.38 114.08 104.38 116.56"/><polygon class="cls-9" points="104.38 116.56 103.69 116.16 103.69 113.68 104.38 114.08 104.38 116.56"/><polygon class="cls-10" points="104.38 115.78 106.08 114.8 105.87 109.08 104.38 109.94 104.38 115.78"/><polygon class="cls-11" points="104.38 115.78 102.68 114.8 102.89 109.08 104.38 109.94 104.38 115.78"/><polygon class="cls-12" points="104.38 109.94 102.89 109.08 104.38 108.22 105.87 109.08 104.38 109.94"/><polygon class="cls-7" points="97.38 111.14 95.06 111.14 93.37 112.12 95.06 113.09 97.38 113.09 99.08 112.12 97.38 111.14"/><polygon class="cls-8" points="97.38 112.71 98.07 112.31 98.07 109.82 97.38 110.22 97.38 112.71"/><polygon class="cls-9" points="97.38 112.71 96.69 112.31 96.69 109.82 97.38 110.22 97.38 112.71"/><polygon class="cls-10" points="97.38 111.93 99.08 110.95 98.87 105.22 97.38 106.08 97.38 111.93"/><polygon class="cls-11" points="97.38 111.93 95.68 110.95 95.89 105.22 97.38 106.08 97.38 111.93"/><polygon class="cls-12" points="97.38 106.08 95.89 105.22 97.38 104.36 98.87 105.22 97.38 106.08"/><polygon class="cls-7" points="90.38 107.28 88.06 107.28 86.37 108.26 88.06 109.24 90.38 109.24 92.08 108.26 90.38 107.28"/><polygon class="cls-8" points="90.38 108.85 91.08 108.45 91.08 105.97 90.38 106.37 90.38 108.85"/><polygon class="cls-9" points="90.38 108.85 89.69 108.45 89.69 105.97 90.38 106.37 90.38 108.85"/><polygon class="cls-10" points="90.38 108.07 92.08 107.09 91.87 101.37 90.38 102.23 90.38 108.07"/><polygon class="cls-11" points="90.38 108.07 88.69 107.09 88.89 101.37 90.38 102.23 90.38 108.07"/><polygon class="cls-12" points="90.38 102.23 88.89 101.37 90.38 100.51 91.87 101.37 90.38 102.23"/><polygon class="cls-7" points="83.38 103.43 81.06 103.43 79.37 104.41 81.06 105.39 83.38 105.39 85.08 104.41 83.38 103.43"/><polygon class="cls-8" points="83.38 105 84.08 104.6 84.08 102.11 83.38 102.51 83.38 105"/><polygon class="cls-9" points="83.38 105 82.69 104.6 82.69 102.11 83.38 102.51 83.38 105"/><polygon class="cls-10" points="83.38 104.22 85.08 103.24 84.87 97.51 83.38 98.37 83.38 104.22"/><polygon class="cls-11" points="83.38 104.22 81.69 103.24 81.89 97.51 83.38 98.37 83.38 104.22"/><polygon class="cls-12" points="83.38 98.37 81.89 97.51 83.38 96.65 84.87 97.51 83.38 98.37"/><polygon class="cls-7" points="64.2 133.98 56.64 134.18 39.12 123.78 22.18 124.04 18.45 121.88 33.81 113.01 64.2 133.98"/><polygon class="cls-13" points="64.2 133.98 92.17 117.83 31.73 108.73 31.73 115.23 64.2 133.98"/><polygon class="cls-14" points="92.17 111.33 92.17 117.83 64.2 133.98 64.2 127.48 92.17 111.33"/><polygon class="cls-15" points="64.2 129.96 71.69 123.57 30.24 108.61 30.24 110.35 64.2 129.96"/><polygon class="cls-3" points="64.2 128.21 93.67 111.2 59.71 91.59 30.24 108.61 64.2 128.21"/><polygon class="cls-7" points="66.75 124.65 58.03 124.65 30.24 108.61 40.4 102.74 70.09 102.74 66.75 124.65"/><polygon class="cls-16" points="66.75 124.65 85.05 114.08 48.54 111.58 48.54 114.15 66.75 124.65"/><polygon class="cls-17" points="66.75 122.09 66.75 124.65 85.05 114.08 85.05 111.52 66.75 122.09"/><polygon class="cls-17" points="66.74 122.09 85.05 111.52 66.85 101.01 48.54 111.58 66.74 122.09"/><path class="cls-14" d="M85.06,111.51,66.74,122.09c0-1,.09-2.18.23-3.55.1-.84.22-1.77.37-2.76.18-1.19.38-2.47.64-3.84.15-.92.33-1.87.52-2.86.22-1.17.46-2.4.71-3.67.2-1,.39-1.92.59-2.91.27-1.29.55-2.61.84-4,.2-1,.41-1.93.62-2.93.28-1.3.56-2.63.85-4,.21-1,.42-2,.64-2.94.28-1.31.56-2.65.85-4,.2-1,.41-2,.62-2.94.28-1.31.56-2.64.85-4,.2-1,.4-1.94.59-2.92.28-1.31.55-2.63.81-4,.2-1,.38-2,.57-2.92.26-1.3.51-2.61.77-3.91l.54-2.9C80.68,48.52,82.49,36.05,82.64,26c0,13.52-.55,24.33-1.1,33.37-.06.91-.11,1.8-.17,2.67-.08,1.24-.16,2.45-.23,3.62-.06.91-.12,1.8-.17,2.68-.08,1.24-.17,2.44-.24,3.62q-.08,1.36-.15,2.67c-.07,1.22-.12,2.42-.17,3.58,0,.89-.08,1.76-.1,2.62,0,1.2,0,2.38-.06,3.53,0,.87,0,1.73,0,2.57,0,1.16.06,2.29.13,3.41,0,.83.1,1.66.18,2.47.1,1.1.22,2.19.38,3.27.11.8.23,1.58.37,2.36.16,1,.36,1.94.58,2.92.17.74.35,1.48.55,2.23.26,1,.54,2,.86,3,.21.71.45,1.42.71,2.15C84.35,109.62,84.69,110.56,85.06,111.51Z"/><g class="cls-18"><path class="cls-19" d="M84,108.7,67,118.54c.1-.84.22-1.77.37-2.76l16-9.23C83.53,107.26,83.77,108,84,108.7Z"/><path class="cls-19" d="M82.46,103.57,68,111.94c.15-.92.33-1.87.52-2.86l13.41-7.74C82.08,102.08,82.26,102.82,82.46,103.57Z"/><path class="cls-19" d="M81.33,98.42l-12.12,7c.2-1,.39-1.92.59-2.91L81,96.06C81.07,96.86,81.19,97.64,81.33,98.42Z"/><path class="cls-19" d="M80.58,92.79l-9.94,5.74c.2-1,.41-1.93.62-2.93l9.14-5.28C80.45,91.15,80.5,92,80.58,92.79Z"/><path class="cls-19" d="M80.27,86.91l-8.16,4.71c.21-1,.42-2,.64-2.94l7.5-4.34C80.25,85.21,80.25,86.07,80.27,86.91Z"/><path class="cls-19" d="M80.41,78.19c0,.89-.08,1.76-.1,2.62L73.6,84.7c.2-1,.41-2,.62-2.94Z"/><path class="cls-19" d="M80.73,71.94q-.08,1.36-.15,2.67l-5.51,3.18c.2-1,.4-1.94.59-2.92Z"/><path class="cls-19" d="M81.14,65.64c-.06.91-.12,1.8-.17,2.68l-4.5,2.6c.2-1,.38-2,.57-2.92Z"/><path class="cls-19" d="M81.54,59.35c-.06.91-.11,1.8-.17,2.67l-3.56,2.07.54-2.9Z"/></g><path class="cls-13" d="M66.74,33.73a32.58,32.58,0,0,1-.47,4.94c-.12.74-.26,1.52-.42,2.35s-.39,2-.63,3.11c-.15.73-.33,1.5-.5,2.28-.23,1-.48,2-.74,3.07l-.56,2.25c-.25,1-.51,2-.78,3-.2.73-.4,1.48-.61,2.23l-.8,3c-.21.73-.41,1.47-.62,2.22-.28,1-.55,2-.85,3-.19.74-.4,1.48-.61,2.22-.28,1-.57,2-.85,3l-.63,2.21c-.26.93-.53,1.86-.78,2.79-.22.73-.43,1.47-.63,2.21-.28,1-.56,2-.83,3-.21.75-.42,1.49-.62,2.22-3.3,11.83-6,22.53-6.26,28.08.11-7.17,1.87-18.33,3.34-29.77l.31-2.39c.13-1.08.26-2.17.39-3.24.09-.81.17-1.61.26-2.41.11-1,.22-2.06.31-3.07.09-.82.16-1.64.23-2.44.1-1.13.18-2.25.25-3.35,0-.84.1-1.68.13-2.49.06-1.17.1-2.31.11-3.42,0-.44,0-.87,0-1.28s0-.87,0-1.3c0-1.22,0-2.39-.06-3.52,0-.91-.06-1.8-.12-2.64-.05-1.28-.13-2.49-.22-3.63-.08-.95-.16-1.85-.26-2.71-.12-1.33-.28-2.57-.43-3.74-.13-1-.27-1.92-.4-2.8-.21-1.38-.42-2.65-.61-3.85-.15-1-.3-1.91-.42-2.82a39,39,0,0,1-.42-5.45Z"/><g class="cls-18"><path class="cls-19" d="M55.43,80.63c-.21.75-.42,1.49-.62,2.22l-2.92-1.69.31-2.39Z"/><path class="cls-19" d="M56.89,75.45c-.22.73-.43,1.47-.63,2.21l-3.67-2.13c.09-.81.17-1.61.26-2.41Z"/><path class="cls-19" d="M58.3,70.45l-.63,2.21-4.51-2.61c.09-.82.16-1.64.23-2.44Z"/><path class="cls-19" d="M59.76,65.23c-.19.74-.4,1.48-.61,2.22l-5.51-3.19c0-.84.1-1.68.13-2.49Z"/><path class="cls-19" d="M61.23,60c-.21.73-.41,1.47-.62,2.22l-6.73-3.88c0-.44,0-.87,0-1.28s0-.87,0-1.3Z"/><path class="cls-19" d="M62.64,54.76c-.2.73-.4,1.48-.61,2.23l-8.21-4.74c0-.91-.06-1.8-.12-2.64Z"/><path class="cls-19" d="M64,49.48l-.56,2.25L53.48,46c-.08-.95-.16-1.85-.26-2.71Z"/><path class="cls-19" d="M65.22,44.13c-.15.73-.33,1.5-.5,2.28L52.79,39.53c-.13-1-.27-1.92-.4-2.8Z"/><path class="cls-19" d="M66.27,38.67c-.12.74-.26,1.52-.42,2.35L51.78,32.88c-.15-1-.3-1.91-.42-2.82Z"/></g><polygon class="cls-16" points="66.75 33.73 82.65 24.55 50.94 22.04 50.94 24.6 66.75 33.73"/><polygon class="cls-15" points="66.75 31.17 82.65 21.98 54.59 14.49 50.94 22.04 66.75 31.17"/><polygon class="cls-3" points="66.76 21.51 79 14.44 66.83 7.42 54.59 14.49 66.76 21.51"/><polygon class="cls-20" points="66.76 21.19 78.44 14.44 66.83 7.74 55.15 14.48 66.76 21.19"/><polygon class="cls-15" points="66.83 10.22 76.29 15.69 78.44 14.44 66.83 7.74 55.15 14.48 57.3 15.73 66.83 10.22"/><path class="cls-21" d="M82.65,24.55c0,30.17-15.91,83.85-15.91,97.54l-18.2-10.51c0-13.5,18.21-64,18.21-77.85Z"/><polygon class="cls-17" points="79 14.44 82.65 21.98 66.75 31.17 66.76 21.51 79 14.44"/><polygon class="cls-17" points="66.75 31.17 66.75 33.73 82.65 24.55 82.65 21.98 66.75 31.17"/><polygon class="cls-17" points="66.83 7.74 66.83 10.22 57.3 15.73 55.15 14.48 66.83 7.74"/><path class="cls-22" d="M66.75,33.73c0,13.81-18.21,64.35-18.21,77.85l18.2,10.51c0-13.69,15.91-67.37,15.91-97.54Zm-.53,87.44-17.14-9.89c.14-6.82,4.64-22.71,9-38.09,4.46-15.71,9.07-32,9.2-39.15l14.83-8.56c-.19,18-5.76,43.82-10.24,64.68C69,103.57,66.47,115.25,66.22,121.17Z"/><path class="cls-17" d="M82.65,24.55c0,30.17-15.91,83.85-15.91,97.54l18.31-10.57c-9.16-23.59-2.4-36.94-2.4-87Zm1.73,86.73L67.3,121.14c.26-5.83,2.76-17.43,5.62-30.76,3.18-14.77,6.9-32.06,8.87-47.3-.31,9-.8,16.45-1.22,23C79.31,85.43,78.61,96.19,84.38,111.28Z"/><path class="cls-16" d="M66.75,33.73,50.94,24.6c0,7.64,3,14.27,3,32.47,0,17.36-5.35,42.33-5.35,54.51C48.54,98.08,66.75,47.54,66.75,33.73ZM54.43,57.07a131.25,131.25,0,0,0-2-23.25,66.64,66.64,0,0,1-1-8.27L66.2,34c-.13,7-4.72,23.21-9.15,38.86-2.64,9.28-5.18,18.26-6.9,25.55.37-3,.8-6.23,1.25-9.5C52.82,78.45,54.43,66.55,54.43,57.07Z"/><polygon class="cls-7" points="66.83 7.74 66.07 10.66 75.07 15.86 66.3 20.92 66.76 21.19 76.29 15.69 66.83 10.22 66.83 7.74"/><polygon class="cls-7" points="64.16 15.46 66.8 13.94 68.04 17.34 67.4 17.34 64.16 15.46"/><polygon class="cls-7" points="60.9 16.88 64.49 14.81 63.51 17.91 62.69 17.91 60.9 16.88"/><polygon class="cls-7" points="63.13 17.91 63.66 17.61 65.3 18.95 64.92 18.95 63.13 17.91"/><polygon class="cls-7" points="65.25 16.69 65.78 16.38 67.42 17.72 67.04 17.72 65.25 16.69"/><polygon class="cls-15" points="64.79 15.46 64.79 13.94 68.04 15.81 68.04 17.34 64.79 15.46"/><polygon class="cls-17" points="70.68 15.81 70.68 14.29 68.04 15.81 68.04 17.34 70.68 15.81"/><polygon class="cls-3" points="64.79 13.94 67.43 12.41 70.68 14.29 68.04 15.81 64.79 13.94"/><polygon class="cls-15" points="61.71 16.88 61.71 16.04 63.51 17.07 63.51 17.91 61.71 16.88"/><polygon class="cls-17" points="67.09 15.84 67.09 15 63.51 17.07 63.51 17.91 67.09 15.84"/><polygon class="cls-3" points="61.71 16.04 65.3 13.97 67.09 15 63.51 17.07 61.71 16.04"/><polygon class="cls-15" points="63.51 17.91 63.51 17.23 65.3 18.26 65.3 18.95 63.51 17.91"/><polygon class="cls-17" points="65.83 18.64 65.83 17.96 65.3 18.26 65.3 18.95 65.83 18.64"/><polygon class="cls-3" points="63.51 17.23 64.04 16.92 65.83 17.96 65.3 18.26 63.51 17.23"/><polygon class="cls-15" points="65.63 16.69 65.63 16 67.42 17.04 67.42 17.72 65.63 16.69"/><polygon class="cls-17" points="67.95 17.42 67.95 16.73 67.42 17.04 67.42 17.72 67.95 17.42"/><polygon class="cls-3" points="65.63 16 66.16 15.7 67.95 16.73 67.42 17.04 65.63 16"/><polygon class="cls-17" points="93.67 111.2 93.67 112.95 64.2 129.96 64.2 128.21 93.67 111.2"/></g></g></svg>