<svg xmlns="http://www.w3.org/2000/svg" viewBox="0 0 130.45 153.42"><defs><style>.cls-1{isolation:isolate;}.cls-2{fill:#5a504f;}.cls-3{fill:#e8dcd5;}.cls-4{fill:#f8f6e1;}.cls-5{fill:#bebf4a;}.cls-6{fill:#c9bca1;}.cls-7{fill:#897998;}.cls-15,.cls-25,.cls-7{mix-blend-mode:multiply;}.cls-8{fill:#7c412f;}.cls-9{fill:#5c3023;}.cls-10{fill:#94983a;}.cls-11{fill:#868533;}.cls-12{fill:#a7aa5c;}.cls-13{fill:#e1d4ce;}.cls-14{fill:#bda195;}.cls-15{fill:#c5bdcd;}.cls-16{fill:#4c7583;}.cls-17{fill:#2b3951;}.cls-18{fill:#003a40;}.cls-19{fill:#385c7d;}.cls-20{fill:#141414;mix-blend-mode:color-dodge;}.cls-21{fill:#bbbbc0;}.cls-22{fill:#826565;}.cls-23{fill:#80818a;}.cls-24{fill:#bebfc3;}.cls-25{fill:#c7d6ed;}</style></defs><title>inside-b</title><g class="cls-1"><g id="layer"><polygon class="cls-2" points="57.32 150.46 127.44 110.03 77.57 81.23 7.45 121.67 57.32 150.46"/><polygon class="cls-3" points="118.71 104.83 48.36 145.4 6.98 121.52 9.25 120.2 77.33 80.95 83.77 84.67 118.71 104.83"/><polygon class="cls-4" points="89.45 93.53 89.45 118.02 109.91 106.02 89.45 93.53"/><polygon class="cls-5" points="109.22 106.02 89.8 94.16 89.8 117.4 109.22 106.02"/><polygon class="cls-4" points="76.9 125.55 52.48 138.97 28.28 125 76.9 125.55"/><polygon class="cls-5" points="75.56 125.89 29.62 125.37 52.48 138.57 75.56 125.89"/><polygon class="cls-6" points="109.22 106.02 89.8 94.16 89.8 94.61 108.84 106.24 109.22 106.02"/><polygon class="cls-6" points="30.42 125.83 74.75 126.33 75.56 125.89 29.62 125.37 30.42 125.83"/><polygon class="cls-7" points="100.19 103.97 97.97 103.97 96.34 104.91 97.97 105.85 100.19 105.85 101.81 104.91 100.19 103.97"/><polygon class="cls-8" points="100.19 105.48 100.85 105.09 100.85 102.72 100.19 103.1 100.19 105.48"/><polygon class="cls-9" points="100.19 105.48 99.52 105.09 99.52 102.72 100.19 103.1 100.19 105.48"/><polygon class="cls-10" points="100.19 104.73 101.81 103.79 101.61 98.31 100.19 99.14 100.19 104.73"/><polygon class="cls-11" points="100.19 104.73 98.56 103.79 98.76 98.31 100.19 99.14 100.19 104.73"/><polygon class="cls-12" points="100.19 99.14 98.76 98.31 100.19 97.49 101.61 98.31 100.19 99.14"/><polygon class="cls-7" points="93.86 111.21 91.64 111.21 90.02 112.15 91.64 113.09 93.86 113.09 95.49 112.15 93.86 111.21"/><polygon class="cls-8" points="93.86 112.72 94.53 112.33 94.53 109.96 93.86 110.34 93.86 112.72"/><polygon class="cls-9" points="93.86 112.72 93.2 112.33 93.2 109.96 93.86 110.34 93.86 112.72"/><polygon class="cls-10" points="93.86 111.97 95.49 111.03 95.29 105.55 93.86 106.38 93.86 111.97"/><polygon class="cls-11" points="93.86 111.97 92.24 111.03 92.44 105.55 93.86 106.38 93.86 111.97"/><polygon class="cls-12" points="93.86 106.38 92.44 105.55 93.86 104.73 95.29 105.55 93.86 106.38"/><polygon class="cls-7" points="47.32 131.7 45.1 131.7 43.48 132.64 45.1 133.57 47.32 133.57 48.95 132.64 47.32 131.7"/><polygon class="cls-8" points="47.32 133.2 47.99 132.82 47.99 130.44 47.32 130.83 47.32 133.2"/><polygon class="cls-9" points="47.32 133.2 46.66 132.82 46.66 130.44 47.32 130.83 47.32 133.2"/><polygon class="cls-10" points="47.32 132.45 48.95 131.52 48.75 126.04 47.32 126.86 47.32 132.45"/><polygon class="cls-11" points="47.32 132.45 45.7 131.52 45.9 126.04 47.32 126.86 47.32 132.45"/><polygon class="cls-12" points="47.32 126.86 45.9 126.04 47.32 125.22 48.75 126.04 47.32 126.86"/><polygon class="cls-7" points="58.41 131.7 56.19 131.7 54.56 132.64 56.19 133.57 58.41 133.57 60.03 132.64 58.41 131.7"/><polygon class="cls-8" points="58.41 133.2 59.07 132.82 59.07 130.44 58.41 130.83 58.41 133.2"/><polygon class="cls-9" points="58.41 133.2 57.74 132.82 57.74 130.44 58.41 130.83 58.41 133.2"/><polygon class="cls-10" points="58.41 132.45 60.03 131.52 59.83 126.04 58.41 126.86 58.41 132.45"/><polygon class="cls-11" points="58.41 132.45 56.78 131.52 56.98 126.04 58.41 126.86 58.41 132.45"/><polygon class="cls-12" points="58.41 126.86 56.98 126.04 58.41 125.22 59.83 126.04 58.41 126.86"/><path class="cls-7" d="M79.35,123.85H72.6l-3.51-1.32-38.37.07H21.85l-9-4L45.23,98.91S82.92,116,79.35,123.85Z"/><path class="cls-6" d="M30.72,122.6l52.21-.09c1.11,0,2-.53,2-1.17l0-7.76c0-.64-.91-4.22-2-4.22L30.77,110.7c-1.11,0-2,.53-2,1.17l-.05,9.57C28.7,122.08,29.61,122.61,30.72,122.6Z"/><path class="cls-6" d="M85,121.34l.17-30.14c0-.64-.91-1.17-2-1.17l-13.43,0c-1.11,0-2,.53-2,1.17l-.16,30.14c0,.64.9,1.17,2,1.16l13.44,0C84,122.51,85,122,85,121.34Z"/><polygon class="cls-13" points="87.26 107.43 87.26 119.56 84.84 122.05 83.16 123.02 75.05 122.52 75.05 113.7 87.26 107.43"/><path class="cls-4" d="M85.12,82.37,85,104.75l0,7.76c0,.64-.91,1.17-2,1.17l-52.21.09c-1.12,0-2-.51-2-1.15v-1.55l0-6.22c0-.64.91-1.16,2-1.16L55,94.2,67.24,82.77l.4-.37c0-.65.92-1.17,2-1.17l13.44,0C84.22,81.21,85.12,81.72,85.12,82.37Z"/><path class="cls-14" d="M82.93,113.33c.95,0,1.67-.44,1.67-.82l.16-30.14A.43.43,0,0,0,84.6,82a2.21,2.21,0,0,0-1.49-.48l-13.44,0c-1,0-1.68.44-1.68.82L55.31,94.55,30.77,104c-.95,0-1.67.43-1.67.82l0,7.75a.43.43,0,0,0,.16.33,2.21,2.21,0,0,0,1.49.48Z"/><path class="cls-15" d="M69.09,113.7s-4.13-1.58-2.84-2.63,9.23-4.79,9.23-4.79l-.43,7.43Z"/><path class="cls-15" d="M74.77,81.44,49.43,111.07H28.71l0-6.22c0-.64.91-1.16,2-1.16L55,94.2,67.24,82.77Z"/><path class="cls-13" d="M83,114.3l3-1.74c1.89-1.1,1.65-3-.54-4.29l-2.32-1.34c-2.19-1.26-5.53-1.4-7.42-.31l-3,1.74c-1.89,1.1-1.65,3,.54,4.29L75.56,114C77.75,115.25,81.09,115.39,83,114.3Z"/><polygon class="cls-13" points="71.42 110.04 71.42 106.55 78.13 107.43 71.42 110.04"/><path class="cls-4" d="M83,110.85l3-1.74c1.89-1.09,1.65-3-.54-4.29l-2.32-1.34c-2.19-1.26-5.53-1.4-7.42-.31l-3,1.74c-1.89,1.1-1.65,3,.54,4.29l2.32,1.34C77.75,111.8,81.09,111.94,83,110.85Z"/><path class="cls-16" d="M47.14,101.21l2.29-61.74L81,21.22v71.6s-1.31,6.68-10.67,12.09-20.93,6.16-20.93,6.16l-5.94-3.43A15.67,15.67,0,0,1,47.14,101.21Z"/><polygon class="cls-17" points="43.49 36.04 43.49 107.64 49.43 111.07 49.43 39.47 43.49 36.04"/><polygon class="cls-18" points="43.49 38.63 43.49 41.22 49.43 44.65 49.43 42.06 43.49 38.63"/><path class="cls-19" d="M81,23.81V26.4s-1.31,6.68-10.67,12.09-20.93,6.16-20.93,6.16V42.06S61,41.3,70.36,35.89,81,23.81,81,23.81Z"/><polygon class="cls-18" points="43.49 42.8 43.49 45.39 49.43 48.82 49.43 46.23 43.49 42.8"/><path class="cls-19" d="M81,28v2.59s-1.31,6.68-10.67,12.08-20.93,6.17-20.93,6.17V46.23S61,45.47,70.36,40.06,81,28,81,28Z"/><polygon class="cls-18" points="43.49 46.97 43.49 49.56 49.43 52.99 49.43 50.4 43.49 46.97"/><path class="cls-19" d="M81,32.15v2.59s-1.31,6.68-10.67,12.08S49.43,53,49.43,53v-2.6S61,49.63,70.36,44.23,81,32.15,81,32.15Z"/><polygon class="cls-18" points="43.49 51.13 43.49 53.73 49.43 57.15 49.43 54.56 43.49 51.13"/><path class="cls-19" d="M81,36.32v2.59S79.72,45.58,70.36,51s-20.93,6.16-20.93,6.16V54.56S61,53.8,70.36,48.4,81,36.32,81,36.32Z"/><polygon class="cls-18" points="43.49 55.3 43.49 57.89 49.43 61.32 49.43 58.73 43.49 55.3"/><path class="cls-19" d="M81,40.48v2.6s-1.31,6.67-10.67,12.08-20.93,6.16-20.93,6.16V58.73S61,58,70.36,52.57,81,40.48,81,40.48Z"/><polygon class="cls-18" points="43.49 59.47 43.49 62.06 49.43 65.49 49.43 62.9 43.49 59.47"/><path class="cls-19" d="M81,44.65v2.59s-1.31,6.68-10.67,12.08-20.93,6.17-20.93,6.17V62.9S61,62.14,70.36,56.73,81,44.65,81,44.65Z"/><polygon class="cls-18" points="43.49 63.64 43.49 66.23 49.43 69.66 49.43 67.06 43.49 63.64"/><path class="cls-19" d="M81,48.82v2.59s-1.31,6.68-10.67,12.08-20.93,6.17-20.93,6.17V67.07S61,66.3,70.36,60.9,81,48.82,81,48.82Z"/><polygon class="cls-18" points="43.49 67.81 43.49 70.4 49.43 73.82 49.43 71.23 43.49 67.81"/><path class="cls-19" d="M81,53v2.59s-1.31,6.68-10.67,12.08-20.93,6.16-20.93,6.16V71.23S61,70.47,70.36,65.07,81,53,81,53Z"/><polygon class="cls-18" points="43.49 71.97 43.49 74.56 49.43 77.99 49.43 75.4 43.49 71.97"/><path class="cls-19" d="M81,57.15v2.6s-1.31,6.67-10.67,12.08S49.43,78,49.43,78V75.4S61,74.64,70.36,69.24,81,57.15,81,57.15Z"/><polygon class="cls-18" points="43.49 76.14 43.49 78.73 49.43 82.16 49.43 79.57 43.49 76.14"/><path class="cls-19" d="M81,61.32v2.59S79.72,70.59,70.36,76s-20.93,6.17-20.93,6.17V79.57S61,78.81,70.36,73.4,81,61.32,81,61.32Z"/><polygon class="cls-18" points="43.49 80.31 43.49 82.9 49.43 86.33 49.43 83.74 43.49 80.31"/><path class="cls-19" d="M81,65.49v2.59s-1.31,6.68-10.67,12.08-20.93,6.17-20.93,6.17V83.74S61,83,70.36,77.57,81,65.49,81,65.49Z"/><polygon class="cls-18" points="43.49 84.47 43.49 87.07 49.43 90.5 49.43 87.9 43.49 84.47"/><path class="cls-19" d="M81,69.66v2.59s-1.31,6.68-10.67,12.08-20.93,6.16-20.93,6.16V87.9S61,87.14,70.36,81.74,81,69.66,81,69.66Z"/><polygon class="cls-18" points="43.49 88.64 43.49 91.23 49.43 94.66 49.43 92.07 43.49 88.64"/><path class="cls-19" d="M81,73.82v2.6S79.72,83.09,70.36,88.5s-20.93,6.16-20.93,6.16V92.07S61,91.31,70.36,85.91,81,73.82,81,73.82Z"/><polygon class="cls-18" points="43.49 92.81 43.49 95.4 49.43 98.83 49.43 96.24 43.49 92.81"/><path class="cls-19" d="M81,78v2.59s-1.31,6.68-10.67,12.09-20.93,6.16-20.93,6.16V96.24S61,95.48,70.36,90.07,81,78,81,78Z"/><polygon class="cls-18" points="43.49 96.98 43.49 99.57 49.43 103 49.43 100.41 43.49 96.98"/><path class="cls-19" d="M81,82.16v2.59s-1.31,6.68-10.67,12.08S49.43,103,49.43,103v-2.59S61,99.65,70.36,94.24,81,82.16,81,82.16Z"/><polygon class="cls-18" points="43.49 101.15 43.49 103.74 49.43 107.17 49.43 104.57 43.49 101.15"/><path class="cls-19" d="M81,86.33v2.59S79.72,95.6,70.36,101s-20.93,6.17-20.93,6.17v-2.6s11.57-.76,20.93-6.16S81,86.33,81,86.33Z"/><path class="cls-20" d="M71.22,104.37a25.62,25.62,0,0,0,7.06-6.22V25.37L71.22,30Z"/><path class="cls-13" d="M82.93,122.51c1.11,0,2-.53,2-1.17l0-4.52.48.28c2.19,1.26,2.43,3.19.54,4.28l-3,1.75c-1.89,1.09-5.23,1-7.42-.31l-.51-.3Z"/><polygon class="cls-15" points="69.09 113.7 69.09 122.53 75.05 122.52 75.05 113.7 69.09 113.7"/><path class="cls-21" d="M54.17,24c9.36-5.41,20.93-6.17,20.93-6.17L81,21.22S79.72,27.9,70.36,33.3s-20.93,6.17-20.93,6.17L43.49,36S44.81,29.36,54.17,24Z"/><path class="cls-22" d="M69.74,33c8-4.61,10-10.23,10.4-11.65l-5.17-3c-2.47.23-12.23,1.41-20.18,6S44.79,34.54,44.38,36l5.18,3C52,38.72,61.78,37.54,69.74,33Z"/><path class="cls-23" d="M75,19.32c-2.47.24-12.23,1.42-20.18,6C48,29.27,45.49,34,44.67,36.13L44.38,36c.41-1.43,2.45-7.06,10.41-11.65s17.71-5.78,20.18-6l5.17,3c0,.2-.15.49-.28.85Z"/><path class="cls-15" d="M49,35.19c2.11,1.22,8.46-.48,14.18-3.78s8.66-7,6.55-8.19S61.22,23.7,55.5,27,46.85,34,49,35.19Z"/><path class="cls-23" d="M50.85,30.72l.7.07,2.72-1.22A30.66,30.66,0,0,1,58.08,27,32,32,0,0,1,69,22.92l4-1.78V24.5h0c-.15,1.7-2.88,4.41-7.22,6.91-5.72,3.3-12.07,5-14.17,3.78a1.23,1.23,0,0,1-.68-1h0Z"/><ellipse class="cls-24" cx="61.9" cy="25.92" rx="12.19" ry="3.75" transform="translate(-5.07 30.23) rotate(-26.41)"/><path class="cls-25" d="M78.38,60.86V76.71l-2.79,1.6V75.19L72.22,74V62.29a4.75,4.75,0,0,0-1.52-3.12s-2.69,1-3,3.21-1.43,15.93-1.43,15.93l-3,1.86V73.42l-2.53-.92-4.63,2.44V68.87l-2.62-1.1-4.17,2.46V111l.1.06s11.57-.76,20.93-6.16S81,92.82,81,92.82V59.12Z"/><rect class="cls-13" x="33.66" y="115.73" width="3" height="5.76"/><rect class="cls-13" x="40.25" y="115.73" width="3" height="5.76"/><rect class="cls-13" x="46.85" y="115.73" width="3" height="5.76"/><rect class="cls-13" x="53.44" y="115.73" width="7.26" height="5.76"/><rect class="cls-13" x="63.85" y="115.73" width="7.26" height="5.76"/><rect class="cls-19" x="33.66" y="115.73" width="3" height="5.05"/><rect class="cls-19" x="40.25" y="115.73" width="3" height="5.05"/><rect class="cls-19" x="46.85" y="115.73" width="3" height="5.05"/><rect class="cls-19" x="53.44" y="115.73" width="7.26" height="5.05"/><rect class="cls-19" x="63.85" y="115.73" width="7.26" height="5.05"/><polygon class="cls-15" points="36.65 115.72 36.65 121.48 35.94 121.48 35.94 116.89 33.66 116.89 33.66 115.72 36.65 115.72"/><polygon class="cls-15" points="43.25 115.72 43.25 121.48 42.53 121.48 42.53 116.89 40.25 116.89 40.25 115.72 43.25 115.72"/><polygon class="cls-15" points="49.84 115.72 49.84 121.48 49.12 121.48 49.12 116.89 46.84 116.89 46.84 115.72 49.84 115.72"/><polygon class="cls-15" points="60.69 115.72 60.69 121.48 59.98 121.48 59.98 116.89 53.44 116.89 53.44 115.72 60.69 115.72"/><polygon class="cls-15" points="71.1 115.72 71.1 121.48 68.56 121.48 68.56 116.89 63.85 116.89 63.85 115.72 71.1 115.72"/><polygon class="cls-19" points="83.16 123.02 83.16 112.41 86 110.77 86 121.39 83.16 123.02"/><polygon class="cls-6" points="85.12 111.28 85.11 120.83 86 121.39 86 110.77 85.12 111.28"/><polygon class="cls-3" points="85.11 120.83 83.16 122.04 83.16 123.02 86 121.39 85.11 120.83"/><polygon class="cls-15" points="86 121.39 84.36 121.3 84.36 112.33 83.16 113.09 83.16 112.41 85.12 111.28 85.11 120.83 86 121.39"/></g></g></svg>