<svg xmlns="http://www.w3.org/2000/svg" viewBox="0 0 130.45 153.42"><defs><style>.cls-1{isolation:isolate;}.cls-2{fill:#e8dcd5;}.cls-3{fill:#5a504f;}.cls-4{fill:#f8f6e1;}.cls-5{fill:#bebf4a;}.cls-6{fill:#c9bca1;}.cls-7{fill:#897998;}.cls-22,.cls-7{mix-blend-mode:multiply;}.cls-8{fill:#573a44;}.cls-9{fill:#8a5b6b;}.cls-10{fill:#7876ee;}.cls-11{fill:#e5ded0;}.cls-12{fill:#a27e7e;}.cls-13{fill:#d1bbb2;}.cls-14{fill:#704c4c;}.cls-15,.cls-22{fill:#979a9e;}.cls-16{fill:#908f95;}.cls-17{fill:#e7e7ee;}.cls-18{fill:#74797f;}.cls-19{fill:#af8d7f;}.cls-20{fill:#a7a7b1;}.cls-21{fill:#fbf9ff;}.cls-23{fill:#7c412f;}.cls-24{fill:#5c3023;}.cls-25{fill:#94983a;}.cls-26{fill:#868533;}.cls-27{fill:#a7aa5c;}</style></defs><title>inside-b</title><g class="cls-1"><g id="layer"><polygon class="cls-2" points="109.89 119.44 73.8 140.27 62.82 146.58 21.51 122.71 23.14 121.81 32.49 116.42 43.9 109.84 68.58 95.6 109.89 119.44"/><polygon class="cls-3" points="73.8 140.27 62.83 146.58 21.52 122.72 32.49 116.42 73.8 140.27"/><polygon class="cls-4" points="103.07 119.35 73.7 136.3 69.22 133.72 98.59 116.76 103.07 119.35"/><polygon class="cls-5" points="69.93 133.72 98.59 117.18 102.36 119.35 73.7 135.89 69.93 133.72"/><polygon class="cls-6" points="98.59 117.18 69.93 133.72 70.52 134.06 98.59 117.85 101.77 119.69 102.36 119.35 98.59 117.18"/><polygon class="cls-7" points="88.54 115.04 88.1 120.71 69.19 120.71 68.23 132.18 57.87 132.18 47.45 126.15 29.68 123.06 37.59 118.5 47.25 112.93 50.22 112.63 57.87 108.22 88.54 115.04"/><polygon class="cls-8" points="48.45 116.59 68.24 128.01 68.24 131.15 48.45 119.72 48.45 116.59"/><polygon class="cls-9" points="88.02 116.59 68.24 128.01 68.24 131.15 88.02 119.72 88.02 116.59"/><polygon class="cls-10" points="68.24 105.17 88.02 116.59 68.24 128.01 48.45 116.59 68.24 105.17"/><polygon class="cls-11" points="68.24 128.29 69.12 127.78 69.12 131.66 68.24 132.17 68.24 128.29"/><polygon class="cls-12" points="68.24 128.29 67.35 127.78 67.35 131.66 68.23 132.17 68.24 128.29"/><polygon class="cls-11" points="88.1 116.83 88.98 116.32 88.98 120.2 88.1 120.71 88.1 116.83"/><polygon class="cls-12" points="88.1 116.83 87.21 116.32 87.21 120.2 88.09 120.71 88.1 116.83"/><polygon class="cls-11" points="48.38 116.83 49.26 116.32 49.26 120.2 48.38 120.71 48.38 116.83"/><polygon class="cls-12" points="48.38 116.83 47.49 116.32 47.49 120.2 48.37 120.71 48.38 116.83"/><polygon class="cls-12" points="63.61 21.74 63.61 41.27 65.67 40.08 65.67 20.55 63.61 21.74"/><polygon class="cls-4" points="68.24 101.05 88.98 113.03 68.24 125.01 47.49 113.03 68.24 101.05"/><polygon class="cls-13" points="68.24 101.05 85.73 111.16 64.99 123.13 47.49 113.03 68.24 101.05"/><polygon class="cls-14" points="49.28 107.51 50.17 107 49.26 113.03 48.38 113.54 49.28 107.51"/><polygon class="cls-15" points="68.05 124.37 65 118.92 74.88 119.73 71.23 115.21 81.16 115.94 76.63 111.85 87.73 112.98 87.64 113.85 79.2 112.99 83.64 117 73.18 116.23 76.83 120.76 66.57 119.92 68.81 123.94 68.05 124.37"/><polygon class="cls-12" points="68.84 124.31 68.02 124.01 71.33 115.02 75.37 119.19 77.7 111.3 81.85 115.37 83.38 107.86 87.74 112.91 87.08 113.48 83.88 109.78 82.39 117.13 78.13 112.94 75.78 120.87 71.67 116.63 68.84 124.31"/><polygon class="cls-14" points="67.45 124.41 64.62 116.73 60.51 120.97 58.16 113.04 53.9 117.23 52.41 109.89 49.22 113.59 48.56 113.02 52.92 107.96 54.44 115.47 58.59 111.4 60.92 119.29 64.97 115.12 68.28 124.11 67.45 124.41"/><polygon class="cls-12" points="47.49 113.03 68.24 125.01 68.24 128.29 47.49 116.32 47.49 113.03"/><polygon class="cls-11" points="88.98 113.03 68.24 125.01 68.24 128.29 88.98 116.32 88.98 113.03"/><polygon class="cls-12" points="66.94 124.65 64.11 116.97 60 121.21 57.65 113.28 53.39 117.47 51.9 110.12 48.71 113.83 48.05 113.25 52.4 108.2 53.93 115.72 58.08 111.64 60.41 119.53 64.45 115.36 67.76 124.35 66.94 124.65"/><polygon class="cls-12" points="87.06 107.58 86.17 107.07 87.21 113.03 88.1 113.54 87.06 107.58"/><polygon class="cls-11" points="69.53 124.65 68.71 124.35 72.02 115.36 76.06 119.53 78.39 111.64 82.55 115.72 84.07 108.2 88.43 113.25 87.77 113.83 84.57 110.12 83.08 117.47 78.82 113.28 76.47 121.21 72.36 116.97 69.53 124.65"/><polygon class="cls-11" points="87.06 107.58 87.94 107.07 88.98 113.03 88.1 113.54 87.06 107.58"/><polygon class="cls-16" points="72.41 23.47 87.94 107.07 68.11 95.62 68.16 21.01 72.41 23.47"/><polygon class="cls-11" points="68.19 25.91 72.41 23.47 87.94 107.07 68.23 118.45 68.19 25.91"/><polygon class="cls-9" points="87.07 106.67 69.02 117.08 69.02 114.42 69.02 114.12 69.02 110.41 69.02 110.11 69.01 106.41 69.01 106.1 69.01 102.4 69.01 102.09 69.01 98.39 69.01 98.09 69.01 94.39 69.01 94.08 69.01 90.38 69.01 90.08 69 86.37 69 86.07 69 82.37 69 82.06 69 78.36 69 78.06 69 74.35 69 74.05 69 70.34 69 70.04 68.99 66.34 68.99 66.03 68.99 62.33 68.99 62.03 68.99 58.33 68.99 58.02 68.99 54.32 68.99 54.01 68.98 50.31 68.98 50.01 68.98 46.3 68.98 46 68.98 42.3 68.98 41.99 68.98 38.29 68.98 37.99 68.98 34.28 68.98 33.98 68.97 30.28 68.97 29.97 68.97 26.36 71.84 24.7 85.28 97.02 85.95 100.64 86.62 104.26 87.07 106.67"/><polygon class="cls-12" points="72.28 27.03 86.62 104.26 86.36 104.11 72.01 26.88 72.28 27.03"/><polygon class="cls-17" points="86.62 104.26 69.02 114.42 69.02 114.12 86.36 104.11 86.62 104.26"/><polygon class="cls-17" points="85.95 100.64 69.02 110.41 69.02 110.11 85.68 100.49 85.95 100.64"/><polygon class="cls-17" points="85.28 97.02 69.01 106.41 69.01 106.1 85.01 96.87 85.28 97.02"/><polygon class="cls-17" points="84.6 93.4 69.01 102.4 69.01 102.1 84.34 93.25 84.6 93.4"/><polygon class="cls-17" points="83.93 89.78 69.01 98.39 69.01 98.09 83.67 89.63 83.93 89.78"/><polygon class="cls-17" points="83.26 86.16 69.01 94.39 69.01 94.08 82.99 86.01 83.26 86.16"/><polygon class="cls-17" points="82.58 82.54 69.01 90.38 69.01 90.08 82.32 82.39 82.58 82.54"/><polygon class="cls-17" points="81.91 78.92 69 86.37 69 86.07 81.65 78.77 81.91 78.92"/><polygon class="cls-17" points="81.24 75.3 69 82.37 69 82.06 80.98 75.15 81.24 75.3"/><polygon class="cls-17" points="80.57 71.68 69 78.36 69 78.06 80.3 71.53 80.57 71.68"/><polygon class="cls-17" points="79.89 68.06 69 74.35 69 74.05 79.63 67.91 79.89 68.06"/><polygon class="cls-17" points="79.22 64.44 69 70.35 69 70.04 78.96 64.29 79.22 64.44"/><polygon class="cls-17" points="78.55 60.82 68.99 66.34 68.99 66.04 78.29 60.67 78.55 60.82"/><polygon class="cls-17" points="77.88 57.2 68.99 62.34 68.99 62.03 77.61 57.05 77.88 57.2"/><polygon class="cls-17" points="77.2 53.59 68.99 58.33 68.99 58.02 76.94 53.43 77.2 53.59"/><polygon class="cls-17" points="76.53 49.97 68.99 54.32 68.99 54.02 76.27 49.81 76.53 49.97"/><polygon class="cls-17" points="75.86 46.35 68.98 50.31 68.98 50.01 75.6 46.19 75.86 46.35"/><polygon class="cls-17" points="75.19 42.73 68.98 46.31 68.98 46 74.92 42.57 75.19 42.73"/><polygon class="cls-17" points="74.51 39.11 68.98 42.3 68.98 42 74.25 38.95 74.51 39.11"/><polygon class="cls-17" points="73.84 35.49 68.98 38.3 68.98 37.99 73.58 35.34 73.84 35.49"/><polygon class="cls-17" points="73.17 31.87 68.98 34.29 68.98 33.98 72.91 31.72 73.17 31.87"/><polygon class="cls-17" points="72.5 28.25 68.97 30.28 68.97 29.98 72.23 28.1 72.5 28.25"/><polygon class="cls-11" points="69.01 90.38 69.01 93.04 83.03 84.95 82.59 82.54 69.01 90.38"/><polygon class="cls-11" points="69 86.37 69 89.04 82.36 81.33 81.91 78.92 69 86.37"/><polygon class="cls-11" points="69 82.37 69 85.03 81.69 77.71 81.24 75.3 69 82.37"/><polygon class="cls-11" points="69.01 94.39 69.01 97.05 83.7 88.57 83.26 86.16 69.01 94.39"/><polygon class="cls-11" points="69 78.36 69 81.03 81.02 74.09 80.57 71.68 69 78.36"/><polygon class="cls-11" points="69.02 110.41 69.02 113.08 86.39 103.05 85.95 100.64 69.02 110.41"/><polygon class="cls-11" points="87.07 106.66 86.62 104.26 69.02 114.42 69.02 117.08 87.07 106.66"/><polygon class="cls-11" points="69 70.35 69 73.01 79.67 66.85 79.22 64.44 69 70.35"/><polygon class="cls-11" points="69.01 102.4 69.01 105.06 85.05 95.81 84.6 93.4 69.01 102.4"/><polygon class="cls-11" points="69.01 98.39 69.01 101.06 84.38 92.19 83.93 89.78 69.01 98.39"/><polygon class="cls-11" points="69.01 106.41 69.02 109.07 85.72 99.42 85.28 97.02 69.01 106.41"/><polygon class="cls-11" points="69 74.35 69 77.02 80.34 70.47 79.9 68.06 69 74.35"/><polygon class="cls-11" points="68.98 34.29 68.98 36.95 73.62 34.27 73.17 31.86 68.98 34.29"/><polygon class="cls-11" points="68.98 38.3 68.98 40.96 74.29 37.89 73.85 35.48 68.98 38.3"/><polygon class="cls-11" points="68.98 42.3 68.98 44.97 74.97 41.51 74.52 39.1 68.98 42.3"/><polygon class="cls-11" points="68.97 26.36 68.97 28.94 72.28 27.03 71.84 24.7 68.97 26.36"/><polygon class="cls-11" points="68.97 30.28 68.98 32.95 72.95 30.65 72.5 28.25 68.97 30.28"/><polygon class="cls-11" points="68.99 62.34 68.99 65 78.33 59.61 77.88 57.2 68.99 62.34"/><polygon class="cls-11" points="68.99 58.33 68.99 60.99 77.65 55.99 77.21 53.58 68.99 58.33"/><polygon class="cls-11" points="68.99 66.34 69 69 79 63.23 78.55 60.82 68.99 66.34"/><polygon class="cls-11" points="68.99 54.32 68.99 56.98 76.98 52.37 76.53 49.96 68.99 54.32"/><polygon class="cls-11" points="68.98 46.31 68.98 48.97 75.64 45.13 75.19 42.72 68.98 46.31"/><polygon class="cls-11" points="68.98 50.31 68.99 52.98 76.31 48.75 75.86 46.34 68.98 50.31"/><polygon class="cls-18" points="68.16 21.01 63.93 23.45 48.4 107 68.11 95.62 68.16 21.01"/><polygon class="cls-17" points="71.15 26.09 63.61 21.74 65.67 20.55 73.21 24.9 71.15 26.09"/><polygon class="cls-12" points="63.61 21.74 64.9 22.49 67.31 19.67 65.67 20.55 63.61 21.74"/><polygon class="cls-11" points="71.15 26.09 71.15 45.62 73.21 44.43 73.21 24.9 71.15 26.09"/><polygon class="cls-12" points="68.19 25.91 68.23 118.45 48.4 107 63.93 23.45 68.19 25.91"/><polygon class="cls-8" points="67.45 117.08 49.28 106.59 49.72 104.19 50.4 100.57 51.07 96.95 51.74 93.33 52.41 89.71 53.09 86.09 53.76 82.47 54.43 78.85 55.1 75.23 55.78 71.61 56.45 67.99 57.12 64.37 57.8 60.76 58.47 57.14 59.81 49.9 60.49 46.28 61.16 42.66 61.83 39.04 63.18 31.8 63.85 28.18 64.5 24.69 67.4 26.36 67.4 29.93 67.4 30.23 67.4 33.93 67.4 34.24 67.4 37.94 67.4 38.25 67.41 41.95 67.41 42.26 67.41 45.96 67.41 46.27 67.41 49.97 67.41 50.27 67.41 53.98 67.41 54.28 67.41 57.99 67.41 58.29 67.42 62 67.42 62.3 67.42 66.01 67.42 66.31 67.42 70.02 67.42 70.32 67.42 74.02 67.42 74.33 67.42 78.03 67.42 78.34 67.43 82.04 67.43 82.35 67.43 86.05 67.43 86.36 67.43 90.06 67.43 90.36 67.43 94.07 67.43 94.37 67.44 98.08 67.44 98.38 67.44 102.09 67.44 102.39 67.44 106.1 67.44 106.4 67.44 110.11 67.44 110.41 67.44 114.11 67.44 114.11 67.44 114.28 67.45 117.08"/><polygon class="cls-19" points="64.08 26.97 49.72 104.19 49.99 104.03 64.34 26.82 64.08 26.97"/><polygon class="cls-13" points="67.4 30.23 63.85 28.18 64.11 28.03 67.4 29.93 67.4 30.23"/><polygon class="cls-13" points="67.4 33.93 67.4 34.24 63.18 31.8 63.44 31.65 67.4 33.93"/><polygon class="cls-13" points="67.4 37.94 67.4 38.25 62.51 35.42 62.77 35.27 67.4 37.94"/><polygon class="cls-13" points="67.41 41.95 67.41 42.26 61.83 39.04 62.09 38.89 67.41 41.95"/><polygon class="cls-13" points="67.41 45.96 67.41 46.27 61.16 42.66 61.42 42.51 67.41 45.96"/><polygon class="cls-13" points="67.41 50.27 60.49 46.28 60.75 46.13 67.41 49.97 67.41 50.27"/><polygon class="cls-13" points="67.41 54.28 59.81 49.9 60.08 49.74 67.41 53.98 67.41 54.28"/><polygon class="cls-13" points="67.41 57.99 67.41 58.29 59.14 53.52 59.41 53.36 67.41 57.99"/><polygon class="cls-13" points="67.42 62 67.42 62.3 58.47 57.14 58.73 56.98 67.42 62"/><polygon class="cls-13" points="67.42 66.01 67.42 66.31 57.8 60.76 58.06 60.6 67.42 66.01"/><polygon class="cls-13" points="67.42 70.32 57.12 64.37 57.39 64.22 67.42 70.02 67.42 70.32"/><polygon class="cls-13" points="67.42 74.33 56.45 67.99 56.71 67.84 67.42 74.02 67.42 74.33"/><polygon class="cls-13" points="67.42 78.03 67.42 78.34 55.78 71.61 56.04 71.46 67.42 78.03"/><polygon class="cls-13" points="67.43 82.04 67.43 82.35 55.1 75.23 55.37 75.08 67.43 82.04"/><polygon class="cls-13" points="67.43 86.05 67.43 86.36 54.43 78.85 54.7 78.7 67.43 86.05"/><polygon class="cls-13" points="67.43 90.06 67.43 90.36 53.76 82.47 54.02 82.32 67.43 90.06"/><polygon class="cls-13" points="67.43 94.37 53.09 86.09 53.35 85.94 67.43 94.07 67.43 94.37"/><polygon class="cls-13" points="67.44 98.38 52.41 89.71 52.68 89.56 67.44 98.08 67.44 98.38"/><polygon class="cls-13" points="67.44 102.09 67.44 102.39 51.74 93.33 52.01 93.18 67.44 102.09"/><polygon class="cls-13" points="67.44 106.1 67.44 106.4 51.07 96.95 51.33 96.8 67.44 106.1"/><polygon class="cls-13" points="67.44 110.11 67.44 110.41 50.4 100.57 50.66 100.42 67.44 110.11"/><polygon class="cls-13" points="49.72 104.19 67.44 114.42 67.44 114.11 49.99 104.03 49.72 104.19"/><polygon class="cls-20" points="68.16 21.01 72.41 23.47 68.19 25.91 63.93 23.45 68.16 21.01"/><polygon class="cls-11" points="68.23 9.11 68.59 8.9 71.77 23.43 68.24 25.46 68.23 9.11"/><polygon class="cls-21" points="68.23 8.69 68.59 8.9 68.23 9.11 67.88 8.9 68.23 8.69"/><polygon class="cls-12" points="68.23 9.11 68.24 25.46 64.7 23.41 67.88 8.9 68.23 9.11"/><polygon class="cls-12" points="49.28 107.51 48.4 107 47.49 113.03 48.38 113.54 49.28 107.51"/><polygon class="cls-12" points="68.23 118.45 67.35 117.94 67.35 124.5 68.24 125.01 68.23 118.45"/><polygon class="cls-11" points="68.23 118.45 69.12 117.94 69.12 124.5 68.24 125.01 68.23 118.45"/><polygon class="cls-12" points="53.76 82.47 53.31 84.88 67.43 93.03 67.43 90.36 53.76 82.47"/><polygon class="cls-12" points="54.43 78.85 53.98 81.26 67.43 89.02 67.43 86.36 54.43 78.85"/><polygon class="cls-12" points="55.78 71.61 55.33 74.02 67.43 81 67.42 78.34 55.78 71.61"/><polygon class="cls-12" points="56.45 67.99 56 70.4 67.42 76.99 67.42 74.33 56.45 67.99"/><polygon class="cls-12" points="55.1 75.23 54.66 77.64 67.43 85.01 67.43 82.35 55.1 75.23"/><polygon class="cls-12" points="53.09 86.09 52.64 88.5 67.44 97.04 67.43 94.37 53.09 86.09"/><polygon class="cls-12" points="52.41 89.71 51.97 92.12 67.44 101.05 67.44 98.38 52.41 89.71"/><polygon class="cls-12" points="49.28 106.59 67.44 117.08 67.44 114.42 49.72 104.19 49.28 106.59"/><polygon class="cls-12" points="50.4 100.57 49.95 102.97 67.44 113.08 67.44 110.41 50.4 100.57"/><polygon class="cls-12" points="51.74 93.33 51.29 95.74 67.44 105.06 67.44 102.39 51.74 93.33"/><polygon class="cls-12" points="57.12 64.37 56.68 66.78 67.42 72.98 67.42 70.32 57.12 64.37"/><polygon class="cls-12" points="51.07 96.95 50.62 99.36 67.44 109.07 67.44 106.4 51.07 96.95"/><polygon class="cls-12" points="62.51 35.42 62.06 37.83 67.41 40.91 67.4 38.25 62.51 35.42"/><polygon class="cls-12" points="61.83 39.04 61.38 41.45 67.41 44.92 67.41 42.26 61.83 39.04"/><polygon class="cls-12" points="63.18 31.8 62.73 34.21 67.4 36.9 67.4 34.24 63.18 31.8"/><polygon class="cls-12" points="63.85 28.18 63.4 30.59 67.4 32.9 67.4 30.23 63.85 28.18"/><polygon class="cls-12" points="64.5 24.69 64.08 26.97 67.4 28.89 67.4 26.36 64.5 24.69"/><polygon class="cls-12" points="60.49 46.28 60.04 48.68 67.41 52.94 67.41 50.27 60.49 46.28"/><polygon class="cls-12" points="58.47 57.13 58.02 59.54 67.42 64.97 67.42 62.3 58.47 57.13"/><polygon class="cls-12" points="59.14 53.52 58.69 55.92 67.42 60.96 67.41 58.29 59.14 53.52"/><polygon class="cls-12" points="61.16 42.66 60.71 45.06 67.41 48.93 67.41 46.27 61.16 42.66"/><polygon class="cls-12" points="59.81 49.9 59.37 52.3 67.41 56.95 67.41 54.28 59.81 49.9"/><polygon class="cls-12" points="57.8 60.76 57.35 63.16 67.42 68.98 67.42 66.31 57.8 60.76"/><polygon class="cls-21" points="68.76 22.03 71.15 26.09 73.21 24.9 70.82 20.84 68.76 22.03"/><polygon class="cls-12" points="71.15 26.09 71.15 45.62 69.51 25.14 69.15 24.94 68.76 22.03 71.15 26.09"/><polygon class="cls-22" points="71.15 45.62 68.76 25.58 67.31 25.41 63.93 23.45 64.8 22.95 64.7 23.41 68.24 25.46 68.23 24.3 68.76 22.03 69.15 24.94 69.51 25.14 71.15 45.62"/><polygon class="cls-22" points="86.32 120.71 86.32 118.84 69.12 128.69 69.12 127.78 87.21 117.34 87.21 120.2 86.32 120.71"/><polygon class="cls-7" points="90.27 125.08 88.51 125.08 87.22 125.82 88.51 126.57 90.27 126.57 91.56 125.82 90.27 125.08"/><polygon class="cls-23" points="90.27 126.27 90.8 125.97 90.8 124.08 90.27 124.38 90.27 126.27"/><polygon class="cls-24" points="90.27 126.27 89.75 125.97 89.75 124.08 90.27 124.38 90.27 126.27"/><polygon class="cls-25" points="90.27 125.68 91.56 124.93 91.41 120.58 90.27 121.23 90.27 125.68"/><polygon class="cls-26" points="90.27 125.68 88.98 124.93 89.14 120.58 90.27 121.23 90.27 125.68"/><polygon class="cls-27" points="90.27 121.23 89.14 120.58 90.27 119.93 91.41 120.58 90.27 121.23"/><polygon class="cls-7" points="85.82 127.65 84.05 127.65 82.76 128.4 84.05 129.14 85.82 129.14 87.11 128.4 85.82 127.65"/><polygon class="cls-23" points="85.82 128.84 86.34 128.54 86.34 126.65 85.82 126.96 85.82 128.84"/><polygon class="cls-24" points="85.82 128.84 85.29 128.54 85.29 126.65 85.82 126.96 85.82 128.84"/><polygon class="cls-25" points="85.82 128.25 87.11 127.5 86.95 123.15 85.82 123.81 85.82 128.25"/><polygon class="cls-26" points="85.82 128.25 84.53 127.5 84.68 123.15 85.82 123.81 85.82 128.25"/><polygon class="cls-27" points="85.82 123.81 84.68 123.15 85.82 122.5 86.95 123.15 85.82 123.81"/><polygon class="cls-7" points="81.36 130.22 79.6 130.22 78.31 130.97 79.6 131.71 81.36 131.71 82.65 130.97 81.36 130.22"/><polygon class="cls-23" points="81.36 131.42 81.89 131.11 81.89 129.23 81.36 129.53 81.36 131.42"/><polygon class="cls-24" points="81.36 131.42 80.83 131.11 80.83 129.23 81.36 129.53 81.36 131.42"/><polygon class="cls-25" points="81.36 130.82 82.65 130.08 82.49 125.73 81.36 126.38 81.36 130.82"/><polygon class="cls-26" points="81.36 130.82 80.07 130.08 80.23 125.73 81.36 126.38 81.36 130.82"/><polygon class="cls-27" points="81.36 126.38 80.23 125.73 81.36 125.07 82.49 125.73 81.36 126.38"/><polygon class="cls-7" points="76.9 132.8 75.14 132.8 73.85 133.54 75.14 134.29 76.9 134.29 78.19 133.54 76.9 132.8"/><polygon class="cls-23" points="76.9 133.99 77.43 133.69 77.43 131.8 76.9 132.1 76.9 133.99"/><polygon class="cls-24" points="76.9 133.99 76.37 133.69 76.37 131.8 76.9 132.1 76.9 133.99"/><polygon class="cls-25" points="76.9 133.4 78.19 132.65 78.03 128.3 76.9 128.96 76.9 133.4"/><polygon class="cls-26" points="76.9 133.4 75.61 132.65 75.77 128.3 76.9 128.96 76.9 133.4"/><polygon class="cls-27" points="76.9 128.96 75.77 128.3 76.9 127.65 78.03 128.3 76.9 128.96"/></g></g></svg>