<svg xmlns="http://www.w3.org/2000/svg" viewBox="0 0 130.45 153.42"><defs><style>.cls-1{isolation:isolate;}.cls-2{fill:#e8dcd5;}.cls-3{fill:#f8f6e1;}.cls-4{fill:#bebf4a;}.cls-5{fill:#5a504f;}.cls-6{fill:#c9bca1;}.cls-7{fill:#897998;mix-blend-mode:multiply;}.cls-8{fill:#826565;}.cls-9{fill:#6c8a9d;}.cls-10{fill:#7b444a;}.cls-11{fill:#c7805e;}.cls-12{fill:#172c3d;}.cls-13{fill:#23394a;}.cls-14{fill:#6e4c4c;}.cls-15{fill:#f4ecd9;}.cls-16{fill:#e5ded0;}.cls-17{fill:#4a6d82;}.cls-18{fill:#537a92;}.cls-19{fill:#745454;}.cls-20{fill:#273f52;}.cls-21{fill:#5a849e;}.cls-22{fill:#7c412f;}.cls-23{fill:#5c3023;}.cls-24{fill:#94983a;}.cls-25{fill:#868533;}.cls-26{fill:#a7aa5c;}</style></defs><title>inside-b</title><g class="cls-1"><g id="layer"><polygon class="cls-2" points="118.23 116.98 68.36 145.78 63.88 143.2 18.03 116.72 67.91 87.93 113.77 114.4 118.23 116.98"/><polygon class="cls-3" points="83.46 129.82 64.75 140.61 60.78 138.32 79.49 127.53 83.46 129.82"/><polygon class="cls-4" points="61.41 138.32 79.49 127.89 82.83 129.82 64.75 140.25 61.41 138.32"/><polygon class="cls-3" points="109.55 114.75 90.85 125.55 86.88 123.26 105.58 112.46 109.55 114.75"/><polygon class="cls-4" points="87.51 123.26 105.58 112.83 108.92 114.75 90.85 125.19 87.51 123.26"/><polygon class="cls-5" points="118.23 116.98 68.36 145.78 63.88 143.2 113.77 114.4 118.23 116.98"/><polygon class="cls-6" points="105.58 113.43 108.4 115.05 108.92 114.75 105.58 112.83 87.51 123.26 88.03 123.56 105.58 113.43"/><polygon class="cls-6" points="79.49 127.89 61.41 138.32 61.93 138.62 79.49 128.49 82.31 130.12 82.83 129.82 79.49 127.89"/><polygon class="cls-7" points="59.95 132.28 45.09 132.28 18.03 116.72 35.44 106.67 59.95 132.28"/><polygon class="cls-8" points="92.32 39.7 92.32 110.99 94.57 112.29 94.57 37.46 92.32 39.7"/><polygon class="cls-9" points="92.32 37.65 92.32 110.99 58.98 130.24 58.98 56.9 92.32 37.65"/><polygon class="cls-7" points="89.41 114.42 86.37 114.42 86.37 43.55 87.89 42.81 87.89 113.55 89.41 114.42"/><polygon class="cls-7" points="85.15 116.89 82.11 116.89 82.11 46.02 83.63 45.27 83.63 116.01 85.15 116.89"/><polygon class="cls-7" points="80.88 119.35 77.84 119.35 77.84 48.48 79.36 47.73 79.36 118.47 80.88 119.35"/><polygon class="cls-7" points="76.62 121.81 73.58 121.81 73.58 50.94 75.09 50.19 75.09 120.94 76.62 121.81"/><polygon class="cls-7" points="72.35 124.27 69.31 124.27 69.31 53.4 70.83 52.66 70.83 123.4 72.35 124.27"/><polygon class="cls-7" points="68.09 126.74 65.05 126.74 65.05 55.87 66.56 55.12 66.56 125.86 68.09 126.74"/><polygon class="cls-7" points="63.82 129.2 60.78 129.2 60.78 58.33 62.3 57.58 62.3 128.32 63.82 129.2"/><polygon class="cls-10" points="87.89 40.77 89.41 41.65 89.41 114.42 87.89 113.55 87.89 40.77"/><polygon class="cls-11" points="90.52 41.01 89.41 41.65 89.41 114.42 90.52 113.78 90.52 41.01"/><polygon class="cls-7" points="90.52 41.01 89.41 41.65 89.41 43.45 90.52 42.81 90.52 41.01"/><polygon class="cls-10" points="83.63 43.23 85.15 44.11 85.15 116.89 83.63 116.01 83.63 43.23"/><polygon class="cls-11" points="86.26 43.47 85.15 44.11 85.15 116.89 86.26 116.25 86.26 43.47"/><polygon class="cls-7" points="86.26 43.47 85.15 44.11 85.15 45.91 86.26 45.27 86.26 43.47"/><polygon class="cls-10" points="79.36 45.7 80.88 46.57 80.88 119.35 79.36 118.47 79.36 45.7"/><polygon class="cls-11" points="81.99 45.93 80.88 46.57 80.88 119.35 81.99 118.71 81.99 45.93"/><polygon class="cls-7" points="81.99 45.93 80.88 46.57 80.88 48.37 81.99 47.73 81.99 45.93"/><polygon class="cls-10" points="75.09 48.16 76.62 49.03 76.62 121.81 75.09 120.94 75.09 48.16"/><polygon class="cls-11" points="77.72 48.4 76.62 49.03 76.62 121.81 77.72 121.17 77.72 48.4"/><polygon class="cls-7" points="77.72 48.4 76.62 49.03 76.62 50.83 77.72 50.19 77.72 48.4"/><polygon class="cls-10" points="70.83 50.62 72.35 51.5 72.35 124.27 70.83 123.4 70.83 50.62"/><polygon class="cls-11" points="73.46 50.86 72.35 51.5 72.35 124.27 73.46 123.64 73.46 50.86"/><polygon class="cls-7" points="73.46 50.86 72.35 51.5 72.35 53.3 73.46 52.66 73.46 50.86"/><polygon class="cls-10" points="66.56 53.08 68.09 53.96 68.09 126.74 66.56 125.86 66.56 53.08"/><polygon class="cls-11" points="69.19 53.32 68.09 53.96 68.09 126.74 69.19 126.1 69.19 53.32"/><polygon class="cls-7" points="69.19 53.32 68.09 53.96 68.09 55.76 69.19 55.12 69.19 53.32"/><polygon class="cls-10" points="62.3 55.55 63.82 56.42 63.82 129.2 62.3 128.32 62.3 55.55"/><polygon class="cls-11" points="64.93 55.78 63.82 56.42 63.82 129.2 64.93 128.56 64.93 55.78"/><polygon class="cls-7" points="64.93 55.78 63.82 56.42 63.82 58.22 64.93 57.58 64.93 55.78"/><polygon class="cls-12" points="53.61 125.91 53.61 55.09 43.46 49.23 43.46 120.05 53.61 125.91"/><polygon class="cls-13" points="43.9 119.8 43.9 49.99 53.17 55.34 53.17 125.15 43.9 119.8"/><polygon class="cls-12" points="53.17 102.73 53.17 102.24 48.6 105.06 43.9 96.72 43.9 97.55 48.25 105.28 43.9 107.96 43.9 108.44 48.45 105.64 53.17 114 53.17 113.16 48.8 105.42 53.17 102.73"/><polygon class="cls-12" points="48.25 57.99 43.9 60.67 43.9 61.16 48.45 58.35 53.17 66.72 53.17 65.88 48.8 58.14 53.17 55.45 53.17 55.34 52.85 55.16 48.6 57.78 44.37 50.26 43.9 49.99 43.9 50.27 48.25 57.99"/><polygon class="cls-12" points="48.8 117.24 53.17 114.55 53.17 114.06 48.6 116.88 43.9 108.53 43.9 109.37 48.25 117.09 43.9 119.78 43.9 119.8 44.29 120.02 48.45 117.45 52.61 124.82 53.17 125.15 53.17 124.98 48.8 117.24"/><polygon class="cls-12" points="53.17 90.91 53.17 90.42 48.6 93.24 43.9 84.89 43.9 85.73 48.25 93.45 43.9 96.14 43.9 96.62 48.45 93.81 53.17 102.18 53.17 101.34 48.8 93.6 53.17 90.91"/><polygon class="cls-12" points="53.17 67.27 53.17 66.78 48.6 69.6 43.9 61.25 43.9 62.09 48.25 69.81 43.9 72.5 43.9 72.98 48.45 70.17 53.17 78.54 53.17 77.7 48.8 69.96 53.17 67.27"/><polygon class="cls-12" points="53.17 79.09 53.17 78.6 48.6 81.42 43.9 73.07 43.9 73.91 48.25 81.63 43.9 84.32 43.9 84.8 48.45 81.99 53.17 90.36 53.17 89.52 48.8 81.78 53.17 79.09"/><polygon class="cls-14" points="53.61 125.91 53.61 55.09 58.9 56.85 58.9 131.68 53.61 125.91"/><polygon class="cls-15" points="68.33 20.83 69.38 21.43 74.67 31.21 43.46 49.23 33.47 42.17 32.42 41.56 68.33 20.83"/><polygon class="cls-16" points="53.61 55.09 84.82 37.07 94.81 36.11 95.86 36.72 59.95 57.45 58.9 56.85 53.61 55.09"/><polygon class="cls-17" points="53.61 55.09 84.82 37.07 74.67 31.21 43.46 49.23 53.61 55.09"/><polygon class="cls-18" points="44.34 49.23 74.67 31.72 83.94 37.07 53.61 54.59 44.34 49.23"/><path class="cls-17" d="M75.42,32.15l-.68-.39,1.94,3.61L70.37,34.2l-.86.5,2,3.68-6.32-1.17-.86.49,2,3.68L60,40.21l-.86.49,2,3.68-6.33-1.17-.85.49,2,3.69-6.33-1.17-.85.49,2,3.68-6.33-1.17h0l1,.59,5.58,1L52.65,54l.68.39L51.46,51l6.39,1.19.81-.47-2-3.72,6.39,1.18.81-.46-2-3.72,6.39,1.18.81-.47-2-3.72,6.4,1.19.8-.47-2-3.72,6.4,1.18.8-.46-2-3.73,6.41,1.19.08,0L83,36.55,77.2,35.47ZM58.26,51.79l-7-1.3-2.12-3.94,7,1.3Zm5.2-3-7.05-1.31-2.12-3.94,7.05,1.31Zm5.2-3-7-1.31-2.12-3.94,7.05,1.3Zm5.19-3-7-1.3-2.12-3.94,7,1.3Zm5.2-3-7-1.31-2.12-3.94,7,1.31Z"/><polygon class="cls-16" points="95.86 36.72 95.86 111.55 94.57 112.29 94.57 38.95 61.23 58.2 61.23 131.54 59.95 132.28 59.95 57.45 95.86 36.72"/><polygon class="cls-8" points="58.9 56.85 58.9 131.68 59.95 132.28 59.95 57.45 58.9 56.85"/><polygon class="cls-8" points="32.42 41.56 32.42 116.39 33.47 117 33.47 42.17 32.42 41.56"/><polygon class="cls-19" points="33.47 42.17 43.46 49.23 43.46 120.05 33.47 117 33.47 42.17"/><polygon class="cls-3" points="33.47 42.17 69.38 21.43 68.33 20.83 32.42 41.56 33.47 42.17"/><polygon class="cls-3" points="59.95 57.45 95.86 36.72 94.81 36.11 58.9 56.85 59.95 57.45"/><polygon class="cls-7" points="94.57 112.29 90.52 112.29 90.52 41.29 92.32 40.25 92.32 110.99 94.57 112.29"/><polygon class="cls-20" points="43.9 50.27 48.25 57.99 43.9 60.67 43.9 50.27"/><polygon class="cls-20" points="53.17 67.27 48.8 69.96 53.17 77.7 53.17 67.27"/><polygon class="cls-20" points="48.45 81.99 43.9 84.89 48.6 93.24 53.17 90.36 48.45 81.99"/><polygon class="cls-20" points="43.9 97.55 48.25 105.28 43.9 107.96 43.9 97.55"/><polygon class="cls-20" points="53.17 114.55 48.8 117.24 53.17 124.98 53.17 114.55"/><polygon class="cls-21" points="49.09 46.55 51.21 50.49 58.26 51.79 56.14 47.85 49.09 46.55"/><polygon class="cls-21" points="61.86 44.95 63.86 48.67 68.25 46.13 61.86 44.95"/><polygon class="cls-21" points="59.97 40.21 66.29 41.38 64.31 37.7 59.97 40.21"/><polygon class="cls-21" points="69.89 34.53 72 38.47 79.05 39.78 76.93 35.84 69.89 34.53"/><polygon class="cls-7" points="74.18 132.28 72.33 132.28 70.98 133.06 72.33 133.84 74.18 133.84 75.53 133.06 74.18 132.28"/><polygon class="cls-22" points="74.18 133.53 74.73 133.21 74.73 131.23 74.18 131.55 74.18 133.53"/><polygon class="cls-23" points="74.18 133.53 73.62 133.21 73.62 131.23 74.18 131.55 74.18 133.53"/><polygon class="cls-24" points="74.18 132.91 75.53 132.13 75.36 127.57 74.18 128.26 74.18 132.91"/><polygon class="cls-25" points="74.18 132.91 72.83 132.13 72.99 127.57 74.18 128.26 74.18 132.91"/><polygon class="cls-26" points="74.18 128.26 72.99 127.57 74.18 126.89 75.36 127.57 74.18 128.26"/><polygon class="cls-7" points="69.51 134.97 67.66 134.97 66.31 135.75 67.66 136.53 69.51 136.53 70.86 135.75 69.51 134.97"/><polygon class="cls-22" points="69.51 136.22 70.06 135.91 70.06 133.93 69.51 134.25 69.51 136.22"/><polygon class="cls-23" points="69.51 136.22 68.96 135.91 68.96 133.93 69.51 134.25 69.51 136.22"/><polygon class="cls-24" points="69.51 135.6 70.86 134.82 70.7 130.27 69.51 130.95 69.51 135.6"/><polygon class="cls-25" points="69.51 135.6 68.16 134.82 68.32 130.27 69.51 130.95 69.51 135.6"/><polygon class="cls-26" points="69.51 130.95 68.32 130.27 69.51 129.58 70.7 130.27 69.51 130.95"/><polygon class="cls-7" points="101.31 116.73 99.46 116.73 98.11 117.51 99.46 118.29 101.31 118.29 102.66 117.51 101.31 116.73"/><polygon class="cls-22" points="101.31 117.98 101.86 117.66 101.86 115.69 101.31 116 101.31 117.98"/><polygon class="cls-23" points="101.31 117.98 100.76 117.66 100.76 115.69 101.31 116 101.31 117.98"/><polygon class="cls-24" points="101.31 117.36 102.66 116.58 102.5 112.02 101.31 112.71 101.31 117.36"/><polygon class="cls-25" points="101.31 117.36 99.96 116.58 100.12 112.02 101.31 112.71 101.31 117.36"/><polygon class="cls-26" points="101.31 112.71 100.12 112.02 101.31 111.34 102.5 112.02 101.31 112.71"/><polygon class="cls-7" points="96.64 119.43 94.8 119.43 93.45 120.2 94.8 120.98 96.64 120.98 97.99 120.2 96.64 119.43"/><polygon class="cls-22" points="96.64 120.68 97.19 120.36 97.19 118.38 96.64 118.7 96.64 120.68"/><polygon class="cls-23" points="96.64 120.68 96.09 120.36 96.09 118.38 96.64 118.7 96.64 120.68"/><polygon class="cls-24" points="96.64 120.05 97.99 119.28 97.83 114.72 96.64 115.4 96.64 120.05"/><polygon class="cls-25" points="96.64 120.05 95.29 119.28 95.45 114.72 96.64 115.4 96.64 120.05"/><polygon class="cls-26" points="96.64 115.4 95.45 114.72 96.64 114.03 97.83 114.72 96.64 115.4"/></g></g></svg>