<svg xmlns="http://www.w3.org/2000/svg" viewBox="0 0 130.45 153.42"><defs><style>.cls-1{isolation:isolate;}.cls-2{fill:#e8dcd5;}.cls-3{fill:#bebf4a;}.cls-4{fill:#f8f6e1;}.cls-5{fill:#5a504f;}.cls-6{fill:#897998;}.cls-15,.cls-21,.cls-22,.cls-6{mix-blend-mode:multiply;}.cls-7{fill:#23394a;}.cls-8{fill:#122a3c;}.cls-9{fill:#826565;}.cls-10{fill:#b2a1a1;}.cls-11{fill:#e5ded0;}.cls-12{fill:#577680;}.cls-13{fill:#f9f7e2;}.cls-14{fill:#bda195;}.cls-15{fill:#c5bdcd;}.cls-16{fill:#3c606c;}.cls-17{fill:#284359;}.cls-18{fill:#46758c;}.cls-19{fill:#406984;}.cls-20{fill:#1e3f54;}.cls-21{fill:#afbfd1;}.cls-22{fill:#b6d5d9;}.cls-23{fill:#7c412f;}.cls-24{fill:#5c3023;}.cls-25{fill:#94983a;}.cls-26{fill:#868533;}.cls-27{fill:#a7aa5c;}</style></defs><title>inside-b</title><g class="cls-1"><g id="layer"><polygon class="cls-2" points="117.72 121.34 71.79 147.86 15.64 115.44 22.61 111.42 39.97 101.4 54.78 92.86 61.58 88.93 99.88 111.04 117.72 121.34"/><polygon class="cls-3" points="99.88 111.04 93.08 114.97 54.78 92.86 61.58 88.93 99.88 111.04"/><polygon class="cls-4" points="93.08 114.13 55.51 92.44 54.78 92.86 93.08 114.97 99.88 111.04 99.16 110.62 93.08 114.13"/><polygon class="cls-5" points="71.79 135.75 26.13 109.39 15.65 115.44 71.79 147.86 117.72 121.34 107.24 115.28 71.79 135.75"/><polygon class="cls-6" points="90.61 120.09 80.82 125.74 66.68 126.33 48.43 126.33 22.61 111.42 39.97 101.4 48.17 106.13 57.29 100.86 90.61 120.09"/><polygon class="cls-7" points="79.08 115.87 79.08 121.79 87.77 116.77 87.77 110.77 79.08 115.87"/><polygon class="cls-7" points="66.53 116.39 66.53 122.31 79.08 121.79 79.08 115.87 66.53 116.39"/><polygon class="cls-8" points="42.77 102.68 42.77 108.59 66.53 122.31 66.53 116.39 42.77 102.68"/><polygon class="cls-9" points="86.8 121.69 84.47 120.34 84.47 113.59 86.8 114.94 86.8 121.69"/><polygon class="cls-10" points="59.04 121.31 61.37 119.96 61.37 113.22 59.04 114.56 59.04 121.31"/><polygon class="cls-11" points="69.38 125.61 69.67 124.26 69.67 117.52 69.38 118.86 69.38 125.61"/><polygon class="cls-9" points="78.13 125.25 76.92 123.9 76.92 117.16 78.13 118.51 78.13 125.25"/><polygon class="cls-10" points="51.39 116.89 53.72 115.55 53.72 108.8 51.39 110.15 51.39 116.89"/><polygon class="cls-10" points="43.74 112.48 46.08 111.13 46.08 104.38 43.74 105.73 43.74 112.48"/><polygon class="cls-10" points="69.38 125.61 66.68 125.72 66.68 118.98 69.38 118.86 69.38 125.61"/><polygon class="cls-10" points="80.83 125.14 78.13 125.25 78.13 118.51 80.83 118.39 80.83 125.14"/><polygon class="cls-11" points="80.83 125.14 83.16 123.79 83.16 117.04 80.83 118.39 80.83 125.14"/><polygon class="cls-9" points="66.68 125.72 64.35 124.38 64.35 117.63 66.68 118.98 66.68 125.72"/><polygon class="cls-9" points="59.04 121.31 56.7 119.96 56.7 113.22 59.04 114.56 59.04 121.31"/><polygon class="cls-9" points="51.39 116.89 49.06 115.55 49.06 108.8 51.39 110.15 51.39 116.89"/><polygon class="cls-9" points="43.74 112.48 41.41 111.13 41.41 104.38 43.74 105.73 43.74 112.48"/><polygon class="cls-11" points="86.8 121.69 89.14 120.34 89.14 113.59 86.8 114.94 86.8 121.69"/><polygon class="cls-12" points="66.68 50.87 39.94 35.42 57.3 25.4 90.61 44.63 80.83 50.28 66.68 50.87"/><polygon class="cls-10" points="67 50.32 41.19 35.42 41.19 27.66 89.35 36.87 89.35 44.63 80.51 49.74 67 50.32"/><polygon class="cls-13" points="67 42.56 41.19 27.66 57.3 18.36 89.35 36.87 80.51 41.98 67 42.56"/><polygon class="cls-14" points="67.24 42.17 42.03 27.61 57.23 18.84 88.41 36.85 80.24 41.56 67.24 42.17"/><polygon class="cls-11" points="57.23 23.78 84.13 39.32 88.41 36.85 57.23 18.84 42.03 27.61 46.31 30.09 57.23 23.78"/><polygon class="cls-9" points="57.23 18.84 57.23 23.78 84.13 39.32 88.41 36.85 57.23 18.84"/><polygon class="cls-15" points="57.23 18.84 55.45 24.81 81.61 39.91 78.62 41.64 80.24 41.56 84.13 39.32 57.23 23.78 57.23 18.84"/><polygon class="cls-11" points="80.51 41.98 80.51 49.74 89.35 44.63 89.35 36.87 80.51 41.98"/><polygon class="cls-16" points="80.83 50.28 80.83 118.39 90.61 112.74 90.61 44.63 80.83 50.28"/><polygon class="cls-11" points="80.83 115.98 80.83 118.39 90.61 112.74 90.61 110.34 80.83 115.98"/><polygon class="cls-17" points="66.68 50.87 66.68 118.98 80.83 118.39 80.83 50.28 66.68 50.87"/><polygon class="cls-10" points="66.68 116.57 66.68 118.98 80.83 118.39 80.83 115.98 66.68 116.57"/><polygon class="cls-9" points="41.19 27.66 41.19 35.42 67 50.32 67 42.56 41.19 27.66"/><polygon class="cls-7" points="39.94 35.42 39.94 103.53 66.68 118.98 66.68 50.87 39.94 35.42"/><polygon class="cls-9" points="39.94 101.13 39.94 103.53 66.68 118.98 66.68 116.57 39.94 101.13"/><polygon class="cls-18" points="80.83 111.97 80.83 114.38 90.61 108.73 90.61 106.33 80.83 111.97"/><polygon class="cls-19" points="66.68 112.56 66.68 114.97 80.83 114.38 80.83 111.97 66.68 112.56"/><polygon class="cls-20" points="39.94 97.12 39.94 99.52 66.68 114.97 66.68 112.56 39.94 97.12"/><polygon class="cls-18" points="80.83 106.54 80.83 108.95 90.61 103.3 90.61 100.89 80.83 106.54"/><polygon class="cls-19" points="66.68 107.13 66.68 109.54 80.83 108.95 80.83 106.54 66.68 107.13"/><polygon class="cls-20" points="39.94 91.69 39.94 94.09 66.68 109.54 66.68 107.13 39.94 91.69"/><polygon class="cls-18" points="80.83 101.11 80.83 103.52 90.61 97.87 90.61 95.46 80.83 101.11"/><polygon class="cls-19" points="66.68 101.7 66.68 104.1 80.83 103.52 80.83 101.11 66.68 101.7"/><polygon class="cls-20" points="39.94 86.25 39.94 88.66 66.68 104.1 66.68 101.7 39.94 86.25"/><polygon class="cls-18" points="80.83 95.68 80.83 98.09 90.61 92.44 90.61 90.03 80.83 95.68"/><polygon class="cls-19" points="66.68 96.27 66.68 98.67 80.83 98.09 80.83 95.68 66.68 96.27"/><polygon class="cls-20" points="39.94 80.82 39.94 83.23 66.68 98.67 66.68 96.27 39.94 80.82"/><polygon class="cls-18" points="80.83 90.25 80.83 92.66 90.61 87.01 90.61 84.6 80.83 90.25"/><polygon class="cls-19" points="66.68 90.84 66.68 93.24 80.83 92.66 80.83 90.25 66.68 90.84"/><polygon class="cls-20" points="39.94 75.39 39.94 77.8 66.68 93.24 66.68 90.84 39.94 75.39"/><polygon class="cls-18" points="80.83 84.82 80.83 87.22 90.61 81.58 90.61 79.17 80.83 84.82"/><polygon class="cls-19" points="66.68 85.4 66.68 87.81 80.83 87.22 80.83 84.82 66.68 85.4"/><polygon class="cls-20" points="39.94 69.96 39.94 72.37 66.68 87.81 66.68 85.4 39.94 69.96"/><polygon class="cls-18" points="80.83 79.39 80.83 81.79 90.61 76.14 90.61 73.74 80.83 79.39"/><polygon class="cls-19" points="66.68 79.97 66.68 82.38 80.83 81.79 80.83 79.39 66.68 79.97"/><polygon class="cls-20" points="39.94 64.53 39.94 66.94 66.68 82.38 66.68 79.97 39.94 64.53"/><polygon class="cls-18" points="80.83 73.95 80.83 76.36 90.61 70.71 90.61 68.31 80.83 73.95"/><polygon class="cls-19" points="66.68 74.54 66.68 76.95 80.83 76.36 80.83 73.95 66.68 74.54"/><polygon class="cls-20" points="39.94 59.1 39.94 61.5 66.68 76.95 66.68 74.54 39.94 59.1"/><polygon class="cls-18" points="80.83 68.52 80.83 70.93 90.61 65.28 90.61 62.88 80.83 68.52"/><polygon class="cls-19" points="66.68 69.11 66.68 71.52 80.83 70.93 80.83 68.52 66.68 69.11"/><polygon class="cls-20" points="39.94 53.67 39.94 56.07 66.68 71.52 66.68 69.11 39.94 53.67"/><polygon class="cls-18" points="80.83 63.09 80.83 65.5 90.61 59.85 90.61 57.44 80.83 63.09"/><polygon class="cls-19" points="66.68 63.68 66.68 66.08 80.83 65.5 80.83 63.09 66.68 63.68"/><polygon class="cls-20" points="39.94 48.23 39.94 50.64 66.68 66.08 66.68 63.68 39.94 48.23"/><polygon class="cls-18" points="80.83 57.66 80.83 60.07 90.61 54.42 90.61 52.01 80.83 57.66"/><polygon class="cls-19" points="66.68 58.25 66.68 60.65 80.83 60.07 80.83 57.66 66.68 58.25"/><polygon class="cls-20" points="39.94 42.8 39.94 45.21 66.68 60.65 66.68 58.25 39.94 42.8"/><polygon class="cls-18" points="80.83 52.23 80.83 54.63 90.61 48.99 90.61 46.58 80.83 52.23"/><polygon class="cls-19" points="66.68 52.82 66.68 55.22 80.83 54.63 80.83 52.23 66.68 52.82"/><polygon class="cls-20" points="39.94 37.37 39.94 39.78 66.68 55.22 66.68 52.82 39.94 37.37"/><polygon class="cls-21" points="90.61 73.55 90.61 110.34 80.83 115.98 80.82 87.42 84.32 85.15 84.32 77.2 90.61 73.55"/><polygon class="cls-22" points="80.82 85.04 80.83 115.98 66.68 116.57 66.69 87.76 67.49 87.76 67.49 74.38 76.49 74.03 76.49 84.33 80.82 85.04"/><polygon class="cls-6" points="103.06 114.81 101.48 114.81 100.31 115.48 101.48 116.15 103.06 116.15 104.22 115.48 103.06 114.81"/><polygon class="cls-23" points="103.06 115.89 103.54 115.61 103.54 113.91 103.06 114.19 103.06 115.89"/><polygon class="cls-24" points="103.06 115.89 102.59 115.61 102.59 113.91 103.06 114.19 103.06 115.89"/><polygon class="cls-25" points="103.06 115.35 104.22 114.68 104.08 110.77 103.06 111.35 103.06 115.35"/><polygon class="cls-26" points="103.06 115.35 101.9 114.68 102.04 110.77 103.06 111.35 103.06 115.35"/><polygon class="cls-27" points="103.06 111.35 102.04 110.77 103.06 110.18 104.08 110.77 103.06 111.35"/><polygon class="cls-6" points="95.04 119.44 93.45 119.44 92.29 120.11 93.45 120.78 95.04 120.78 96.2 120.11 95.04 119.44"/><polygon class="cls-23" points="95.04 120.52 95.51 120.25 95.51 118.55 95.04 118.82 95.04 120.52"/><polygon class="cls-24" points="95.04 120.52 94.56 120.25 94.56 118.55 95.04 118.82 95.04 120.52"/><polygon class="cls-25" points="95.04 119.98 96.2 119.31 96.06 115.4 95.04 115.99 95.04 119.98"/><polygon class="cls-26" points="95.04 119.98 93.88 119.31 94.02 115.4 95.04 115.99 95.04 119.98"/><polygon class="cls-27" points="95.04 115.99 94.02 115.4 95.04 114.81 96.06 115.4 95.04 115.99"/><polygon class="cls-6" points="82.97 126.66 81.38 126.66 80.22 127.33 81.38 128 82.97 128 84.13 127.33 82.97 126.66"/><polygon class="cls-23" points="82.97 127.74 83.45 127.47 83.45 125.77 82.97 126.04 82.97 127.74"/><polygon class="cls-24" points="82.97 127.74 82.5 127.47 82.5 125.77 82.97 126.04 82.97 127.74"/><polygon class="cls-25" points="82.97 127.2 84.13 126.53 83.99 122.62 82.97 123.21 82.97 127.2"/><polygon class="cls-26" points="82.97 127.2 81.81 126.53 81.95 122.62 82.97 123.21 82.97 127.2"/><polygon class="cls-27" points="82.97 123.21 81.95 122.62 82.97 122.03 83.99 122.62 82.97 123.21"/><polygon class="cls-6" points="73.13 131.56 71.55 131.56 70.39 132.23 71.55 132.9 73.13 132.9 74.29 132.23 73.13 131.56"/><polygon class="cls-23" points="73.13 132.64 73.61 132.36 73.61 130.66 73.13 130.94 73.13 132.64"/><polygon class="cls-24" points="73.13 132.64 72.66 132.36 72.66 130.66 73.13 130.94 73.13 132.64"/><polygon class="cls-25" points="73.13 132.1 74.29 131.43 74.15 127.52 73.13 128.1 73.13 132.1"/><polygon class="cls-26" points="73.13 132.1 71.97 131.43 72.11 127.52 73.13 128.1 73.13 132.1"/><polygon class="cls-27" points="73.13 128.1 72.11 127.52 73.13 126.93 74.15 127.52 73.13 128.1"/><polygon class="cls-6" points="45.7 117 44.12 117 42.96 117.67 44.12 118.34 45.7 118.34 46.86 117.67 45.7 117"/><polygon class="cls-23" points="45.7 118.08 46.18 117.8 46.18 116.1 45.7 116.38 45.7 118.08"/><polygon class="cls-24" points="45.7 118.08 45.23 117.8 45.23 116.1 45.7 116.38 45.7 118.08"/><polygon class="cls-25" points="45.7 117.54 46.86 116.87 46.72 112.95 45.7 113.54 45.7 117.54"/><polygon class="cls-26" points="45.7 117.54 44.54 116.87 44.68 112.95 45.7 113.54 45.7 117.54"/><polygon class="cls-27" points="45.7 113.54 44.68 112.95 45.7 112.36 46.72 112.95 45.7 113.54"/><polygon class="cls-6" points="32.69 108.99 31.1 108.99 29.94 109.66 31.1 110.33 32.69 110.33 33.85 109.66 32.69 108.99"/><polygon class="cls-23" points="32.69 110.06 33.16 109.79 33.16 108.09 32.69 108.36 32.69 110.06"/><polygon class="cls-24" points="32.69 110.06 32.21 109.79 32.21 108.09 32.69 108.36 32.69 110.06"/><polygon class="cls-25" points="32.69 109.53 33.85 108.86 33.71 104.94 32.69 105.53 32.69 109.53"/><polygon class="cls-26" points="32.69 109.53 31.53 108.86 31.67 104.94 32.69 105.53 32.69 109.53"/><polygon class="cls-27" points="32.69 105.53 31.67 104.94 32.69 104.35 33.71 104.94 32.69 105.53"/><polygon class="cls-6" points="61.78 126.46 60.2 126.46 59.04 127.13 60.2 127.8 61.78 127.8 62.95 127.13 61.78 126.46"/><polygon class="cls-23" points="61.78 127.53 62.26 127.26 62.26 125.56 61.78 125.83 61.78 127.53"/><polygon class="cls-24" points="61.78 127.53 61.31 127.26 61.31 125.56 61.78 125.83 61.78 127.53"/><polygon class="cls-25" points="61.78 127 62.95 126.33 62.8 122.41 61.78 123 61.78 127"/><polygon class="cls-26" points="61.78 127 60.62 126.33 60.77 122.41 61.78 123 61.78 127"/><polygon class="cls-27" points="61.78 123 60.77 122.41 61.78 121.82 62.8 122.41 61.78 123"/><polygon class="cls-6" points="54.1 28.3 57.04 26.6 58.42 30.39 57.72 30.39 54.1 28.3"/><polygon class="cls-6" points="50.47 30.95 54.47 28.64 53.37 32.1 52.47 32.1 50.47 30.95"/><polygon class="cls-6" points="52.95 32.1 53.54 31.76 55.37 33.25 54.95 33.25 52.95 32.1"/><polygon class="cls-6" points="55.32 30.73 55.91 30.39 57.74 31.89 57.32 31.89 55.32 30.73"/><polygon class="cls-9" points="54.8 28.3 54.8 26.6 58.42 28.7 58.42 30.39 54.8 28.3"/><polygon class="cls-11" points="61.37 28.7 61.37 27 58.42 28.7 58.42 30.39 61.37 28.7"/><polygon class="cls-4" points="54.8 26.6 57.75 24.9 61.37 27 58.42 28.7 54.8 26.6"/><polygon class="cls-9" points="51.38 30.95 51.38 30.01 53.37 31.16 53.37 32.1 51.38 30.95"/><polygon class="cls-11" points="57.38 29.79 57.38 28.85 53.37 31.16 53.37 32.1 57.38 29.79"/><polygon class="cls-4" points="51.38 30.01 55.38 27.7 57.38 28.85 53.37 31.16 51.38 30.01"/><polygon class="cls-9" points="53.37 32.1 53.37 31.33 55.37 32.49 55.37 33.25 53.37 32.1"/><polygon class="cls-11" points="55.96 32.91 55.96 32.15 55.37 32.49 55.37 33.25 55.96 32.91"/><polygon class="cls-4" points="53.37 31.33 53.97 30.99 55.96 32.15 55.37 32.49 53.37 31.33"/><polygon class="cls-9" points="55.74 30.73 55.74 29.97 57.74 31.12 57.74 31.89 55.74 30.73"/><polygon class="cls-11" points="58.33 31.55 58.33 30.78 57.74 31.12 57.74 31.89 58.33 31.55"/><polygon class="cls-4" points="55.74 29.97 56.33 29.63 58.33 30.78 57.74 31.12 55.74 29.97"/><polygon class="cls-6" points="62.05 33.02 65 31.32 66.38 35.12 65.67 35.12 62.05 33.02"/><polygon class="cls-6" points="58.42 35.67 62.43 33.36 61.33 36.82 60.42 36.82 58.42 35.67"/><polygon class="cls-6" points="60.91 36.82 61.5 36.48 63.33 37.98 62.9 37.98 60.91 36.82"/><polygon class="cls-6" points="63.27 35.45 63.87 35.11 65.69 36.61 65.27 36.61 63.27 35.45"/><polygon class="cls-9" points="62.76 33.02 62.76 31.32 66.38 33.42 66.38 35.12 62.76 33.02"/><polygon class="cls-11" points="69.32 33.42 69.32 31.72 66.38 33.42 66.38 35.12 69.32 33.42"/><polygon class="cls-4" points="62.76 31.32 65.7 29.63 69.32 31.72 66.38 33.42 62.76 31.32"/><polygon class="cls-9" points="59.33 35.67 59.33 34.73 61.33 35.88 61.33 36.82 59.33 35.67"/><polygon class="cls-11" points="65.33 34.51 65.33 33.57 61.33 35.88 61.33 36.82 65.33 34.51"/><polygon class="cls-4" points="59.33 34.73 63.33 32.42 65.33 33.57 61.33 35.88 59.33 34.73"/><polygon class="cls-9" points="61.33 36.82 61.33 36.06 63.33 37.21 63.33 37.98 61.33 36.82"/><polygon class="cls-11" points="63.92 37.63 63.92 36.87 63.33 37.21 63.33 37.98 63.92 37.63"/><polygon class="cls-4" points="61.33 36.06 61.92 35.71 63.92 36.87 63.33 37.21 61.33 36.06"/><polygon class="cls-9" points="63.7 35.45 63.7 34.69 65.69 35.84 65.69 36.61 63.7 35.45"/><polygon class="cls-11" points="66.28 36.27 66.28 35.5 65.69 35.84 65.69 36.61 66.28 36.27"/><polygon class="cls-4" points="63.7 34.69 64.29 34.35 66.28 35.5 65.69 35.84 63.7 34.69"/></g></g></svg>