<svg xmlns="http://www.w3.org/2000/svg" viewBox="0 0 130.45 153.42"><defs><style>.cls-1{isolation:isolate;}.cls-2{fill:#e8dcd5;}.cls-3{fill:#f8f6e1;}.cls-4{fill:#bebf4a;}.cls-5{fill:#c9bca1;}.cls-6{fill:#5a504f;}.cls-7{fill:#897998;mix-blend-mode:multiply;}.cls-8{fill:#30061a;}.cls-9{fill:#593b45;}.cls-10{fill:#182440;}.cls-11{fill:#3c606c;}.cls-12{fill:#bda195;}.cls-13{fill:#d7cfcf;}.cls-14{fill:#4c3039;}.cls-15{fill:#6d5b59;}.cls-16{fill:#fbf9ff;}.cls-17{fill:#837665;}.cls-18{fill:#af8d7f;}.cls-19{fill:#d1bbb2;}.cls-20{fill:#826565;}.cls-21{fill:#e5ded0;}.cls-22{fill:#7c412f;}.cls-23{fill:#5c3023;}.cls-24{fill:#94983a;}.cls-25{fill:#868533;}.cls-26{fill:#a7aa5c;}</style></defs><title>inside-b</title><g class="cls-1"><g id="layer"><polygon class="cls-2" points="116.19 119.3 70.32 145.78 61.85 140.89 14.25 113.42 23.53 108.07 52.88 91.11 60.13 86.93 73.69 94.75 103.16 111.77 107.73 114.4 116.19 119.3"/><polygon class="cls-3" points="73.69 94.75 60.13 86.93 52.88 91.11 52.88 91.11 23.53 108.07 28.62 111 37.09 115.89 66.44 98.94 87.44 111.06 95.9 115.95 103.16 111.77 73.69 94.75"/><polygon class="cls-4" points="66.44 98.52 37.09 115.47 24.27 108.07 60.13 87.35 102.42 111.77 95.91 115.53 66.44 98.52"/><polygon class="cls-5" points="24.27 108.07 24.7 108.32 60.13 87.86 101.99 112.02 102.42 111.77 60.13 87.35 24.27 108.07"/><polygon class="cls-6" points="116.19 119.3 70.32 145.78 61.85 140.89 107.73 114.4 116.19 119.3"/><polygon class="cls-6" points="65.83 139.04 70.53 136.33 24.26 109.61 19.55 112.33 65.83 139.04"/><polygon class="cls-7" points="42.53 129.58 14.11 113.17 38.31 99.2 43.34 99.25 66.73 115.61 68.84 129.58 42.53 129.58"/><polygon class="cls-7" points="76.14 125.23 71.12 125.23 71.12 123.52 76.14 120.62 76.14 125.23"/><polygon class="cls-7" points="84.85 120.2 79.83 120.2 79.83 118.5 84.85 115.59 84.85 120.2"/><polygon class="cls-7" points="93.56 115.17 88.53 115.17 88.53 112.86 93.56 112.84 93.56 115.17"/><polygon class="cls-8" points="35.1 103.5 35.1 39.25 58.76 52.91 58.76 117.15 35.1 103.5"/><polygon class="cls-9" points="35.1 39.25 54.33 28.14 77.99 41.8 58.76 52.91 35.1 39.25"/><polygon class="cls-10" points="45.26 111.13 45.26 100.03 68.92 113.69 68.92 124.79 45.26 111.13"/><polygon class="cls-11" points="89.3 113.03 89.3 101.92 68.92 113.69 68.92 124.79 89.3 113.03"/><polygon class="cls-7" points="89.3 111.17 89.3 100.07 68.92 111.83 68.92 122.94 89.3 111.17"/><polygon class="cls-12" points="44.21 114.31 39.78 111.75 39.78 45.18 44.21 47.74 44.21 114.31"/><polygon class="cls-12" points="44.21 47.74 44.21 114.31 45.7 115.17 45.7 107.25 50.72 110.15 50.72 118.07 54.41 120.2 54.41 112.28 59.43 115.18 59.43 123.1 63.12 125.23 63.12 117.31 67.67 119.94 67.67 127.86 68.14 128.13 68.14 128.13 69.63 128.99 69.63 121.06 69.63 62.41 44.21 47.74"/><polygon class="cls-3" points="69.63 62.41 39.78 45.18 65.2 30.51 95.04 47.74 69.63 62.41"/><polygon class="cls-13" points="41.34 45.18 65.2 31.41 93.49 47.74 69.63 61.52 41.34 45.18"/><polygon class="cls-12" points="65.2 31.41 41.34 45.18 42.66 45.94 65.2 32.93 92.17 48.5 93.49 47.74 65.2 31.41"/><polygon class="cls-8" points="45.97 46.36 45.97 35.26 69.63 48.92 69.63 60.02 45.97 46.36"/><polygon class="cls-14" points="88.86 48.92 88.86 37.81 69.63 48.92 69.63 60.02 88.86 48.92"/><polygon class="cls-9" points="45.97 35.26 65.2 24.16 88.86 37.81 69.63 48.92 45.97 35.26"/><polygon class="cls-15" points="47.52 35.26 65.2 25.05 87.3 37.81 69.63 48.02 47.52 35.26"/><polygon class="cls-8" points="65.2 27.91 84.83 39.24 87.3 37.81 65.2 25.05 47.52 35.26 49.99 36.69 65.2 27.91"/><polygon class="cls-16" points="95.05 47.74 95.05 114.31 93.56 115.17 93.56 107.25 88.53 110.15 88.53 118.07 84.85 120.2 84.85 112.28 79.82 115.18 79.82 123.1 76.14 125.23 76.14 117.31 71.12 120.21 71.12 128.13 69.63 128.99 69.63 62.41 95.05 47.74"/><polygon class="cls-12" points="91.6 114.04 93.56 115.17 93.56 107.25 91.6 108.38 91.6 114.04"/><polygon class="cls-12" points="82.89 119.07 84.85 120.2 84.85 112.28 82.89 113.41 82.89 119.07"/><polygon class="cls-12" points="74.18 124.1 76.14 125.23 76.14 117.31 74.18 118.44 74.18 124.1"/><polygon class="cls-17" points="65.07 124.1 63.12 125.23 63.12 117.31 65.07 118.44 65.07 124.1"/><polygon class="cls-17" points="56.36 119.07 54.41 120.2 54.41 112.28 56.36 113.41 56.36 119.07"/><polygon class="cls-17" points="48.98 113.28 45.7 115.17 45.7 107.25 48.98 109.14 48.98 113.28"/><polygon class="cls-14" points="65.2 25.05 65.2 27.91 49.99 36.69 47.52 35.26 65.2 25.05"/><polygon class="cls-11" points="73.24 75.48 71.12 76.7 71.12 72.62 73.24 71.4 73.24 75.48"/><polygon class="cls-11" points="76.14 73.8 74.02 75.03 74.02 70.95 76.14 69.72 76.14 73.8"/><polygon class="cls-11" points="79.04 72.12 76.92 73.35 76.92 69.27 79.04 68.05 79.04 72.12"/><polygon class="cls-11" points="81.94 70.45 79.82 71.68 79.82 67.59 81.94 66.37 81.94 70.45"/><polygon class="cls-11" points="84.84 68.77 82.73 70 82.73 65.92 84.85 64.69 84.84 68.77"/><polygon class="cls-11" points="87.75 67.1 85.63 68.33 85.63 64.24 87.75 63.02 87.75 67.1"/><polygon class="cls-11" points="90.65 65.42 88.53 66.65 88.53 62.57 90.65 61.34 90.65 65.42"/><polygon class="cls-11" points="93.55 59.66 93.55 63.75 91.43 64.98 91.43 60.89 92.83 60.08 93.55 59.66"/><polygon class="cls-12" points="93.55 59.66 93.55 63.75 92.83 63.33 92.83 60.08 93.55 59.66"/><polygon class="cls-3" points="93.55 63.75 91.43 64.98 91.43 64.14 92.83 63.33 93.55 63.75"/><polygon class="cls-7" points="93.55 63.75 92.11 63.75 92.11 61.06 91.43 61.43 91.43 60.89 92.83 60.08 92.83 63.33 93.55 63.75"/><polygon class="cls-12" points="90.65 61.34 90.65 65.42 89.93 65 89.93 61.76 90.65 61.34"/><polygon class="cls-3" points="90.65 65.42 88.53 66.65 88.53 65.81 89.93 65 90.65 65.42"/><polygon class="cls-7" points="90.65 65.42 89.21 65.42 89.21 62.73 88.53 63.1 88.53 62.57 89.93 61.76 89.93 65 90.65 65.42"/><polygon class="cls-12" points="87.75 63.01 87.75 67.1 87.02 66.68 87.02 63.43 87.75 63.01"/><polygon class="cls-3" points="87.75 67.1 85.63 68.33 85.63 67.49 87.02 66.68 87.75 67.1"/><polygon class="cls-7" points="87.75 67.1 86.31 67.1 86.31 64.41 85.63 64.78 85.63 64.24 87.02 63.43 87.02 66.68 87.75 67.1"/><polygon class="cls-12" points="84.84 64.69 84.84 68.77 84.12 68.35 84.12 65.11 84.84 64.69"/><polygon class="cls-3" points="84.84 68.77 82.73 70 82.73 69.17 84.12 68.35 84.84 68.77"/><polygon class="cls-7" points="84.84 68.77 83.4 68.77 83.4 66.08 82.73 66.46 82.73 65.92 84.12 65.11 84.12 68.35 84.84 68.77"/><polygon class="cls-12" points="81.94 66.37 81.94 70.45 81.22 70.03 81.22 66.78 81.94 66.37"/><polygon class="cls-3" points="81.94 70.45 79.82 71.68 79.82 70.84 81.22 70.03 81.94 70.45"/><polygon class="cls-7" points="81.94 70.45 80.5 70.45 80.5 67.76 79.82 68.13 79.82 67.59 81.22 66.78 81.22 70.03 81.94 70.45"/><polygon class="cls-12" points="79.04 68.04 79.04 72.12 78.32 71.71 78.32 68.46 79.04 68.04"/><polygon class="cls-3" points="79.04 72.12 76.92 73.35 76.92 72.52 78.32 71.71 79.04 72.12"/><polygon class="cls-7" points="79.04 72.12 77.6 72.12 77.6 69.44 76.92 69.81 76.92 69.27 78.32 68.46 78.32 71.71 79.04 72.12"/><polygon class="cls-12" points="76.14 69.72 76.14 73.8 75.41 73.38 75.41 70.14 76.14 69.72"/><polygon class="cls-3" points="76.14 73.8 74.02 75.03 74.02 74.19 75.41 73.38 76.14 73.8"/><polygon class="cls-7" points="76.14 73.8 74.69 73.8 74.69 71.11 74.02 71.48 74.02 70.95 75.41 70.14 75.41 73.38 76.14 73.8"/><polygon class="cls-12" points="73.23 71.39 73.23 75.48 72.51 75.06 72.51 71.81 73.23 71.39"/><polygon class="cls-3" points="73.23 75.48 71.12 76.7 71.12 75.87 72.51 75.06 73.23 75.48"/><polygon class="cls-7" points="73.23 75.48 71.79 75.48 71.79 72.79 71.12 73.16 71.12 72.62 72.51 71.81 72.51 75.06 73.23 75.48"/><polygon class="cls-11" points="73.24 86.06 71.12 87.29 71.12 83.2 73.24 81.98 73.24 86.06"/><polygon class="cls-11" points="76.14 84.38 74.02 85.61 74.02 81.53 76.14 80.3 76.14 84.38"/><polygon class="cls-11" points="79.04 82.7 76.92 83.94 76.92 79.85 79.04 78.63 79.04 82.7"/><polygon class="cls-11" points="81.94 81.03 79.82 82.26 79.82 78.18 81.94 76.95 81.94 81.03"/><polygon class="cls-11" points="84.84 79.35 82.73 80.58 82.73 76.5 84.85 75.28 84.84 79.35"/><polygon class="cls-11" points="87.75 77.68 85.63 78.91 85.63 74.82 87.75 73.6 87.75 77.68"/><polygon class="cls-11" points="90.65 76 88.53 77.23 88.53 73.15 90.65 71.92 90.65 76"/><polygon class="cls-11" points="93.55 70.25 93.55 74.33 91.43 75.56 91.43 71.47 92.83 70.66 93.55 70.25"/><polygon class="cls-12" points="93.55 70.25 93.55 74.33 92.83 73.91 92.83 70.66 93.55 70.25"/><polygon class="cls-3" points="93.55 74.33 91.43 75.56 91.43 74.72 92.83 73.91 93.55 74.33"/><polygon class="cls-7" points="93.55 74.33 92.11 74.33 92.11 71.64 91.43 72.01 91.43 71.47 92.83 70.66 92.83 73.91 93.55 74.33"/><polygon class="cls-12" points="90.65 71.92 90.65 76 89.93 75.58 89.93 72.34 90.65 71.92"/><polygon class="cls-3" points="90.65 76 88.53 77.23 88.53 76.39 89.93 75.58 90.65 76"/><polygon class="cls-7" points="90.65 76 89.21 76 89.21 73.31 88.53 73.69 88.53 73.15 89.93 72.34 89.93 75.58 90.65 76"/><polygon class="cls-12" points="87.75 73.59 87.75 77.68 87.02 77.26 87.02 74.01 87.75 73.59"/><polygon class="cls-3" points="87.75 77.68 85.63 78.91 85.63 78.07 87.02 77.26 87.75 77.68"/><polygon class="cls-7" points="87.75 77.68 86.31 77.68 86.31 74.99 85.63 75.36 85.63 74.83 87.02 74.01 87.02 77.26 87.75 77.68"/><polygon class="cls-12" points="84.84 75.27 84.84 79.35 84.12 78.94 84.12 75.69 84.84 75.27"/><polygon class="cls-3" points="84.84 79.35 82.73 80.58 82.73 79.75 84.12 78.94 84.84 79.35"/><polygon class="cls-7" points="84.84 79.35 83.4 79.35 83.4 76.67 82.73 77.04 82.73 76.5 84.12 75.69 84.12 78.94 84.84 79.35"/><polygon class="cls-12" points="81.94 76.95 81.94 81.03 81.22 80.61 81.22 77.37 81.94 76.95"/><polygon class="cls-3" points="81.94 81.03 79.82 82.26 79.82 81.42 81.22 80.61 81.94 81.03"/><polygon class="cls-7" points="81.94 81.03 80.5 81.03 80.5 78.34 79.82 78.71 79.82 78.18 81.22 77.37 81.22 80.61 81.94 81.03"/><polygon class="cls-12" points="79.04 78.62 79.04 82.7 78.32 82.29 78.32 79.04 79.04 78.62"/><polygon class="cls-3" points="79.04 82.7 76.92 83.94 76.92 83.1 78.32 82.29 79.04 82.7"/><polygon class="cls-7" points="79.04 82.7 77.6 82.7 77.6 80.02 76.92 80.39 76.92 79.85 78.32 79.04 78.32 82.29 79.04 82.7"/><polygon class="cls-12" points="76.14 80.3 76.14 84.38 75.41 83.96 75.41 80.72 76.14 80.3"/><polygon class="cls-3" points="76.14 84.38 74.02 85.61 74.02 84.77 75.41 83.96 76.14 84.38"/><polygon class="cls-7" points="76.14 84.38 74.69 84.38 74.69 81.69 74.02 82.07 74.02 81.53 75.41 80.72 75.41 83.96 76.14 84.38"/><polygon class="cls-12" points="73.23 81.97 73.23 86.06 72.51 85.64 72.51 82.39 73.23 81.97"/><polygon class="cls-3" points="73.23 86.06 71.12 87.29 71.12 86.45 72.51 85.64 73.23 86.06"/><polygon class="cls-7" points="73.23 86.06 71.79 86.06 71.79 83.37 71.12 83.74 71.12 83.2 72.51 82.39 72.51 85.64 73.23 86.06"/><polygon class="cls-11" points="73.24 91.35 71.12 92.58 71.12 88.49 73.24 87.27 73.24 91.35"/><polygon class="cls-11" points="76.14 89.67 74.02 90.9 74.02 86.82 76.14 85.59 76.14 89.67"/><polygon class="cls-11" points="79.04 88 76.92 89.23 76.92 85.14 79.04 83.92 79.04 88"/><polygon class="cls-11" points="81.94 86.32 79.82 87.55 79.82 83.47 81.94 82.24 81.94 86.32"/><polygon class="cls-11" points="84.84 84.64 82.73 85.87 82.73 81.79 84.85 80.57 84.84 84.64"/><polygon class="cls-11" points="87.75 82.97 85.63 84.2 85.63 80.11 87.75 78.89 87.75 82.97"/><polygon class="cls-11" points="90.65 81.29 88.53 82.52 88.53 78.44 90.65 77.21 90.65 81.29"/><polygon class="cls-11" points="93.55 75.54 93.55 79.62 91.43 80.85 91.43 76.77 92.83 75.95 93.55 75.54"/><polygon class="cls-12" points="93.55 75.54 93.55 79.62 92.83 79.2 92.83 75.95 93.55 75.54"/><polygon class="cls-3" points="93.55 79.62 91.43 80.85 91.43 80.01 92.83 79.2 93.55 79.62"/><polygon class="cls-7" points="93.55 79.62 92.11 79.62 92.11 76.93 91.43 77.3 91.43 76.77 92.83 75.95 92.83 79.2 93.55 79.62"/><polygon class="cls-12" points="90.65 77.21 90.65 81.29 89.93 80.87 89.93 77.63 90.65 77.21"/><polygon class="cls-3" points="90.65 81.29 88.53 82.52 88.53 81.69 89.93 80.87 90.65 81.29"/><polygon class="cls-7" points="90.65 81.29 89.21 81.29 89.21 78.6 88.53 78.98 88.53 78.44 89.93 77.63 89.93 80.87 90.65 81.29"/><polygon class="cls-12" points="87.75 78.89 87.75 82.97 87.02 82.55 87.02 79.31 87.75 78.89"/><polygon class="cls-3" points="87.75 82.97 85.63 84.2 85.63 83.36 87.02 82.55 87.75 82.97"/><polygon class="cls-7" points="87.75 82.97 86.31 82.97 86.31 80.28 85.63 80.65 85.63 80.12 87.02 79.31 87.02 82.55 87.75 82.97"/><polygon class="cls-12" points="84.84 80.56 84.84 84.64 84.12 84.23 84.12 80.98 84.84 80.56"/><polygon class="cls-3" points="84.84 84.64 82.73 85.87 82.73 85.04 84.12 84.23 84.84 84.64"/><polygon class="cls-7" points="84.84 84.64 83.4 84.64 83.4 81.96 82.73 82.33 82.73 81.79 84.12 80.98 84.12 84.23 84.84 84.64"/><polygon class="cls-12" points="81.94 82.24 81.94 86.32 81.22 85.9 81.22 82.66 81.94 82.24"/><polygon class="cls-3" points="81.94 86.32 79.82 87.55 79.82 86.71 81.22 85.9 81.94 86.32"/><polygon class="cls-7" points="81.94 86.32 80.5 86.32 80.5 83.63 79.82 84 79.82 83.47 81.22 82.66 81.22 85.9 81.94 86.32"/><polygon class="cls-12" points="79.04 83.91 79.04 88 78.32 87.58 78.32 84.33 79.04 83.91"/><polygon class="cls-3" points="79.04 88 76.92 89.23 76.92 88.39 78.32 87.58 79.04 88"/><polygon class="cls-7" points="79.04 88 77.6 88 77.6 85.31 76.92 85.68 76.92 85.14 78.32 84.33 78.32 87.58 79.04 88"/><polygon class="cls-12" points="76.14 85.59 76.14 89.67 75.41 89.25 75.41 86.01 76.14 85.59"/><polygon class="cls-3" points="76.14 89.67 74.02 90.9 74.02 90.06 75.41 89.25 76.14 89.67"/><polygon class="cls-7" points="76.14 89.67 74.69 89.67 74.69 86.98 74.02 87.36 74.02 86.82 75.41 86.01 75.41 89.25 76.14 89.67"/><polygon class="cls-12" points="73.23 87.27 73.23 91.35 72.51 90.93 72.51 87.68 73.23 87.27"/><polygon class="cls-3" points="73.23 91.35 71.12 92.58 71.12 91.74 72.51 90.93 73.23 91.35"/><polygon class="cls-7" points="73.23 91.35 71.79 91.35 71.79 88.66 71.12 89.03 71.12 88.5 72.51 87.68 72.51 90.93 73.23 91.35"/><polygon class="cls-11" points="73.24 96.64 71.12 97.87 71.12 93.78 73.24 92.56 73.24 96.64"/><polygon class="cls-11" points="76.14 94.96 74.02 96.19 74.02 92.11 76.14 90.88 76.14 94.96"/><polygon class="cls-11" points="79.04 93.29 76.92 94.52 76.92 90.43 79.04 89.21 79.04 93.29"/><polygon class="cls-11" points="81.94 91.61 79.82 92.84 79.82 88.76 81.94 87.53 81.94 91.61"/><polygon class="cls-11" points="84.84 89.94 82.73 91.17 82.73 87.08 84.85 85.86 84.84 89.94"/><polygon class="cls-11" points="87.75 88.26 85.63 89.49 85.63 85.41 87.75 84.18 87.75 88.26"/><polygon class="cls-11" points="90.65 86.58 88.53 87.81 88.53 83.73 90.65 82.5 90.65 86.58"/><polygon class="cls-11" points="93.55 80.83 93.55 84.91 91.43 86.14 91.43 82.06 92.83 81.25 93.55 80.83"/><polygon class="cls-12" points="93.55 80.83 93.55 84.91 92.83 84.49 92.83 81.25 93.55 80.83"/><polygon class="cls-3" points="93.55 84.91 91.43 86.14 91.43 85.3 92.83 84.49 93.55 84.91"/><polygon class="cls-7" points="93.55 84.91 92.11 84.91 92.11 82.22 91.43 82.59 91.43 82.06 92.83 81.25 92.83 84.49 93.55 84.91"/><polygon class="cls-12" points="90.65 82.5 90.65 86.58 89.93 86.17 89.93 82.92 90.65 82.5"/><polygon class="cls-3" points="90.65 86.58 88.53 87.81 88.53 86.98 89.93 86.17 90.65 86.58"/><polygon class="cls-7" points="90.65 86.58 89.21 86.58 89.21 83.89 88.53 84.27 88.53 83.73 89.93 82.92 89.93 86.17 90.65 86.58"/><polygon class="cls-12" points="87.75 84.18 87.75 88.26 87.02 87.84 87.02 84.59 87.75 84.18"/><polygon class="cls-3" points="87.75 88.26 85.63 89.49 85.63 88.65 87.02 87.84 87.75 88.26"/><polygon class="cls-7" points="87.75 88.26 86.31 88.26 86.31 85.57 85.63 85.94 85.63 85.41 87.02 84.59 87.02 87.84 87.75 88.26"/><polygon class="cls-12" points="84.84 85.85 84.84 89.94 84.12 89.52 84.12 86.27 84.84 85.85"/><polygon class="cls-3" points="84.84 89.94 82.73 91.17 82.73 90.33 84.12 89.52 84.84 89.94"/><polygon class="cls-7" points="84.84 89.94 83.4 89.94 83.4 87.25 82.73 87.62 82.73 87.08 84.12 86.27 84.12 89.52 84.84 89.94"/><polygon class="cls-12" points="81.94 87.53 81.94 91.61 81.22 91.19 81.22 87.95 81.94 87.53"/><polygon class="cls-3" points="81.94 91.61 79.82 92.84 79.82 92 81.22 91.19 81.94 91.61"/><polygon class="cls-7" points="81.94 91.61 80.5 91.61 80.5 88.92 79.82 89.3 79.82 88.76 81.22 87.95 81.22 91.19 81.94 91.61"/><polygon class="cls-12" points="79.04 89.2 79.04 93.29 78.32 92.87 78.32 89.62 79.04 89.2"/><polygon class="cls-3" points="79.04 93.29 76.92 94.52 76.92 93.68 78.32 92.87 79.04 93.29"/><polygon class="cls-7" points="79.04 93.29 77.6 93.29 77.6 90.6 76.92 90.97 76.92 90.43 78.32 89.62 78.32 92.87 79.04 93.29"/><polygon class="cls-12" points="76.14 90.88 76.14 94.96 75.41 94.54 75.41 91.3 76.14 90.88"/><polygon class="cls-3" points="76.14 94.96 74.02 96.19 74.02 95.36 75.41 94.54 76.14 94.96"/><polygon class="cls-7" points="76.14 94.96 74.69 94.96 74.69 92.27 74.02 92.65 74.02 92.11 75.41 91.3 75.41 94.54 76.14 94.96"/><polygon class="cls-12" points="73.23 92.56 73.23 96.64 72.51 96.22 72.51 92.97 73.23 92.56"/><polygon class="cls-3" points="73.23 96.64 71.12 97.87 71.12 97.03 72.51 96.22 73.23 96.64"/><polygon class="cls-7" points="73.23 96.64 71.79 96.64 71.79 93.95 71.12 94.32 71.12 93.79 72.51 92.97 72.51 96.22 73.23 96.64"/><polygon class="cls-11" points="73.24 101.94 71.12 103.16 71.12 99.08 73.24 97.85 73.24 101.94"/><polygon class="cls-11" points="76.14 100.25 74.02 101.48 74.02 97.4 76.14 96.17 76.14 100.25"/><polygon class="cls-11" points="79.04 98.58 76.92 99.81 76.92 95.72 79.04 94.5 79.04 98.58"/><polygon class="cls-11" points="81.94 96.9 79.82 98.13 79.82 94.05 81.94 92.82 81.94 96.9"/><polygon class="cls-11" points="84.84 95.23 82.73 96.46 82.73 92.37 84.85 91.15 84.84 95.23"/><polygon class="cls-11" points="87.75 93.55 85.63 94.78 85.63 90.7 87.75 89.47 87.75 93.55"/><polygon class="cls-11" points="90.65 91.87 88.53 93.1 88.53 89.02 90.65 87.8 90.65 91.87"/><polygon class="cls-11" points="93.55 86.12 93.55 90.2 91.43 91.43 91.43 87.35 92.83 86.54 93.55 86.12"/><polygon class="cls-12" points="93.55 86.12 93.55 90.2 92.83 89.78 92.83 86.54 93.55 86.12"/><polygon class="cls-3" points="93.55 90.2 91.43 91.43 91.43 90.59 92.83 89.78 93.55 90.2"/><polygon class="cls-7" points="93.55 90.2 92.11 90.2 92.11 87.51 91.43 87.88 91.43 87.35 92.83 86.54 92.83 89.78 93.55 90.2"/><polygon class="cls-12" points="90.65 87.79 90.65 91.87 89.93 91.46 89.93 88.21 90.65 87.79"/><polygon class="cls-3" points="90.65 91.87 88.53 93.1 88.53 92.27 89.93 91.46 90.65 91.87"/><polygon class="cls-7" points="90.65 91.87 89.21 91.87 89.21 89.19 88.53 89.56 88.53 89.02 89.93 88.21 89.93 91.46 90.65 91.87"/><polygon class="cls-12" points="87.75 89.47 87.75 93.55 87.02 93.13 87.02 89.89 87.75 89.47"/><polygon class="cls-3" points="87.75 93.55 85.63 94.78 85.63 93.94 87.02 93.13 87.75 93.55"/><polygon class="cls-7" points="87.75 93.55 86.31 93.55 86.31 90.86 85.63 91.23 85.63 90.7 87.02 89.89 87.02 93.13 87.75 93.55"/><polygon class="cls-12" points="84.84 91.14 84.84 95.23 84.12 94.81 84.12 91.56 84.84 91.14"/><polygon class="cls-3" points="84.84 95.23 82.73 96.46 82.73 95.62 84.12 94.81 84.84 95.23"/><polygon class="cls-7" points="84.84 95.23 83.4 95.23 83.4 92.54 82.73 92.91 82.73 92.37 84.12 91.56 84.12 94.81 84.84 95.23"/><polygon class="cls-12" points="81.94 92.82 81.94 96.9 81.22 96.48 81.22 93.24 81.94 92.82"/><polygon class="cls-3" points="81.94 96.9 79.82 98.13 79.82 97.3 81.22 96.48 81.94 96.9"/><polygon class="cls-7" points="81.94 96.9 80.5 96.9 80.5 94.21 79.82 94.59 79.82 94.05 81.22 93.24 81.22 96.48 81.94 96.9"/><polygon class="cls-12" points="79.04 94.5 79.04 98.58 78.32 98.16 78.32 94.91 79.04 94.5"/><polygon class="cls-3" points="79.04 98.58 76.92 99.81 76.92 98.97 78.32 98.16 79.04 98.58"/><polygon class="cls-7" points="79.04 98.58 77.6 98.58 77.6 95.89 76.92 96.26 76.92 95.72 78.32 94.91 78.32 98.16 79.04 98.58"/><polygon class="cls-12" points="76.14 96.17 76.14 100.25 75.41 99.83 75.41 96.59 76.14 96.17"/><polygon class="cls-3" points="76.14 100.25 74.02 101.48 74.02 100.65 75.41 99.83 76.14 100.25"/><polygon class="cls-7" points="76.14 100.25 74.69 100.25 74.69 97.56 74.02 97.94 74.02 97.4 75.41 96.59 75.41 99.83 76.14 100.25"/><polygon class="cls-12" points="73.23 97.85 73.23 101.93 72.51 101.51 72.51 98.27 73.23 97.85"/><polygon class="cls-3" points="73.23 101.93 71.12 103.16 71.12 102.32 72.51 101.51 73.23 101.93"/><polygon class="cls-7" points="73.23 101.93 71.79 101.93 71.79 99.24 71.12 99.61 71.12 99.08 72.51 98.27 72.51 101.51 73.23 101.93"/><polygon class="cls-11" points="73.24 107.22 71.12 108.45 71.12 104.37 73.24 103.14 73.24 107.22"/><polygon class="cls-11" points="76.14 105.54 74.02 106.77 74.02 102.69 76.14 101.47 76.14 105.54"/><polygon class="cls-11" points="79.04 103.87 76.92 105.1 76.92 101.02 79.04 99.79 79.04 103.87"/><polygon class="cls-11" points="81.94 102.19 79.82 103.42 79.82 99.34 81.94 98.11 81.94 102.19"/><polygon class="cls-11" points="84.84 100.52 82.73 101.75 82.73 97.66 84.85 96.44 84.84 100.52"/><polygon class="cls-11" points="87.75 98.84 85.63 100.07 85.63 95.99 87.75 94.76 87.75 98.84"/><polygon class="cls-11" points="90.65 97.17 88.53 98.39 88.53 94.31 90.65 93.09 90.65 97.17"/><polygon class="cls-11" points="93.55 91.41 93.55 95.49 91.43 96.72 91.43 92.64 92.83 91.83 93.55 91.41"/><polygon class="cls-12" points="93.55 91.41 93.55 95.49 92.83 95.07 92.83 91.83 93.55 91.41"/><polygon class="cls-3" points="93.55 95.49 91.43 96.72 91.43 95.88 92.83 95.07 93.55 95.49"/><polygon class="cls-7" points="93.55 95.49 92.11 95.49 92.11 92.8 91.43 93.17 91.43 92.64 92.83 91.83 92.83 95.07 93.55 95.49"/><polygon class="cls-12" points="90.65 93.08 90.65 97.17 89.93 96.75 89.93 93.5 90.65 93.08"/><polygon class="cls-3" points="90.65 97.17 88.53 98.39 88.53 97.56 89.93 96.75 90.65 97.17"/><polygon class="cls-7" points="90.65 97.17 89.21 97.17 89.21 94.48 88.53 94.85 88.53 94.31 89.93 93.5 89.93 96.75 90.65 97.17"/><polygon class="cls-12" points="87.75 94.76 87.75 98.84 87.02 98.42 87.02 95.18 87.75 94.76"/><polygon class="cls-3" points="87.75 98.84 85.63 100.07 85.63 99.23 87.02 98.42 87.75 98.84"/><polygon class="cls-7" points="87.75 98.84 86.31 98.84 86.31 96.15 85.63 96.53 85.63 95.99 87.02 95.18 87.02 98.42 87.75 98.84"/><polygon class="cls-12" points="84.84 96.43 84.84 100.52 84.12 100.1 84.12 96.85 84.84 96.43"/><polygon class="cls-3" points="84.84 100.52 82.73 101.75 82.73 100.91 84.12 100.1 84.84 100.52"/><polygon class="cls-7" points="84.84 100.52 83.4 100.52 83.4 97.83 82.73 98.2 82.73 97.66 84.12 96.85 84.12 100.1 84.84 100.52"/><polygon class="cls-12" points="81.94 98.11 81.94 102.19 81.22 101.77 81.22 98.53 81.94 98.11"/><polygon class="cls-3" points="81.94 102.19 79.82 103.42 79.82 102.59 81.22 101.77 81.94 102.19"/><polygon class="cls-7" points="81.94 102.19 80.5 102.19 80.5 99.5 79.82 99.88 79.82 99.34 81.22 98.53 81.22 101.77 81.94 102.19"/><polygon class="cls-12" points="79.04 99.79 79.04 103.87 78.32 103.45 78.32 100.2 79.04 99.79"/><polygon class="cls-3" points="79.04 103.87 76.92 105.1 76.92 104.26 78.32 103.45 79.04 103.87"/><polygon class="cls-7" points="79.04 103.87 77.6 103.87 77.6 101.18 76.92 101.55 76.92 101.02 78.32 100.2 78.32 103.45 79.04 103.87"/><polygon class="cls-12" points="76.14 101.46 76.14 105.54 75.41 105.13 75.41 101.88 76.14 101.46"/><polygon class="cls-3" points="76.14 105.54 74.02 106.77 74.02 105.94 75.41 105.13 76.14 105.54"/><polygon class="cls-7" points="76.14 105.54 74.69 105.54 74.69 102.86 74.02 103.23 74.02 102.69 75.41 101.88 75.41 105.13 76.14 105.54"/><polygon class="cls-12" points="73.23 103.14 73.23 107.22 72.51 106.8 72.51 103.56 73.23 103.14"/><polygon class="cls-3" points="73.23 107.22 71.12 108.45 71.12 107.61 72.51 106.8 73.23 107.22"/><polygon class="cls-7" points="73.23 107.22 71.79 107.22 71.79 104.53 71.12 104.91 71.12 104.37 72.51 103.56 72.51 106.8 73.23 107.22"/><polygon class="cls-11" points="73.24 112.52 71.12 113.74 71.12 109.66 73.24 108.43 73.24 112.52"/><polygon class="cls-11" points="76.14 110.83 74.02 112.06 74.02 107.98 76.14 106.76 76.14 110.83"/><polygon class="cls-11" points="79.04 109.16 76.92 110.39 76.92 106.31 79.04 105.08 79.04 109.16"/><polygon class="cls-11" points="81.94 107.48 79.82 108.71 79.82 104.63 81.94 103.41 81.94 107.48"/><polygon class="cls-11" points="84.84 105.81 82.73 107.04 82.73 102.95 84.85 101.73 84.84 105.81"/><polygon class="cls-11" points="87.75 104.13 85.63 105.36 85.63 101.28 87.75 100.05 87.75 104.13"/><polygon class="cls-11" points="90.65 102.46 88.53 103.69 88.53 99.6 90.65 98.38 90.65 102.46"/><polygon class="cls-11" points="93.55 96.7 93.55 100.78 91.43 102.01 91.43 97.93 92.83 97.12 93.55 96.7"/><polygon class="cls-12" points="93.55 96.7 93.55 100.78 92.83 100.36 92.83 97.12 93.55 96.7"/><polygon class="cls-3" points="93.55 100.78 91.43 102.01 91.43 101.17 92.83 100.36 93.55 100.78"/><polygon class="cls-7" points="93.55 100.78 92.11 100.78 92.11 98.09 91.43 98.47 91.43 97.93 92.83 97.12 92.83 100.36 93.55 100.78"/><polygon class="cls-12" points="90.65 98.37 90.65 102.46 89.93 102.04 89.93 98.79 90.65 98.37"/><polygon class="cls-3" points="90.65 102.46 88.53 103.69 88.53 102.85 89.93 102.04 90.65 102.46"/><polygon class="cls-7" points="90.65 102.46 89.21 102.46 89.21 99.77 88.53 100.14 88.53 99.6 89.93 98.79 89.93 102.04 90.65 102.46"/><polygon class="cls-12" points="87.75 100.05 87.75 104.13 87.02 103.71 87.02 100.47 87.75 100.05"/><polygon class="cls-3" points="87.75 104.13 85.63 105.36 85.63 104.53 87.02 103.71 87.75 104.13"/><polygon class="cls-7" points="87.75 104.13 86.31 104.13 86.31 101.44 85.63 101.82 85.63 101.28 87.02 100.47 87.02 103.71 87.75 104.13"/><polygon class="cls-12" points="84.84 101.72 84.84 105.81 84.12 105.39 84.12 102.14 84.84 101.72"/><polygon class="cls-3" points="84.84 105.81 82.73 107.04 82.73 106.2 84.12 105.39 84.84 105.81"/><polygon class="cls-7" points="84.84 105.81 83.4 105.81 83.4 103.12 82.73 103.49 82.73 102.95 84.12 102.14 84.12 105.39 84.84 105.81"/><polygon class="cls-12" points="81.94 103.4 81.94 107.48 81.22 107.06 81.22 103.82 81.94 103.4"/><polygon class="cls-3" points="81.94 107.48 79.82 108.71 79.82 107.88 81.22 107.06 81.94 107.48"/><polygon class="cls-7" points="81.94 107.48 80.5 107.48 80.5 104.8 79.82 105.17 79.82 104.63 81.22 103.82 81.22 107.06 81.94 107.48"/><polygon class="cls-12" points="79.04 105.08 79.04 109.16 78.32 108.74 78.32 105.5 79.04 105.08"/><polygon class="cls-3" points="79.04 109.16 76.92 110.39 76.92 109.55 78.32 108.74 79.04 109.16"/><polygon class="cls-7" points="79.04 109.16 77.6 109.16 77.6 106.47 76.92 106.84 76.92 106.31 78.32 105.5 78.32 108.74 79.04 109.16"/><polygon class="cls-12" points="76.14 106.75 76.14 110.83 75.41 110.42 75.41 107.17 76.14 106.75"/><polygon class="cls-3" points="76.14 110.83 74.02 112.06 74.02 111.23 75.41 110.42 76.14 110.83"/><polygon class="cls-7" points="76.14 110.83 74.69 110.83 74.69 108.15 74.02 108.52 74.02 107.98 75.41 107.17 75.41 110.42 76.14 110.83"/><polygon class="cls-12" points="73.23 108.43 73.23 112.51 72.51 112.09 72.51 108.85 73.23 108.43"/><polygon class="cls-3" points="73.23 112.51 71.12 113.74 71.12 112.9 72.51 112.09 73.23 112.51"/><polygon class="cls-7" points="73.23 112.51 71.79 112.51 71.79 109.82 71.12 110.19 71.12 109.66 72.51 108.85 72.51 112.09 73.23 112.51"/><polygon class="cls-11" points="73.24 117.81 71.12 119.03 71.12 114.95 73.24 113.72 73.24 117.81"/><polygon class="cls-11" points="76.14 116.13 74.02 117.36 74.02 113.27 76.14 112.05 76.14 116.13"/><polygon class="cls-11" points="79.04 114.45 76.92 115.68 76.92 111.6 79.04 110.37 79.04 114.45"/><polygon class="cls-11" points="81.94 112.77 79.82 114 79.82 109.92 81.94 108.7 81.94 112.77"/><polygon class="cls-11" points="84.84 111.1 82.73 112.33 82.73 108.25 84.85 107.02 84.84 111.1"/><polygon class="cls-11" points="87.75 109.42 85.63 110.65 85.63 106.57 87.75 105.34 87.75 109.42"/><polygon class="cls-11" points="90.65 107.75 88.53 108.98 88.53 104.89 90.65 103.67 90.65 107.75"/><polygon class="cls-11" points="93.55 101.99 93.55 106.07 91.43 107.3 91.43 103.22 92.83 102.41 93.55 101.99"/><polygon class="cls-12" points="93.55 101.99 93.55 106.07 92.83 105.65 92.83 102.41 93.55 101.99"/><polygon class="cls-3" points="93.55 106.07 91.43 107.3 91.43 106.47 92.83 105.65 93.55 106.07"/><polygon class="cls-7" points="93.55 106.07 92.11 106.07 92.11 103.38 91.43 103.76 91.43 103.22 92.83 102.41 92.83 105.65 93.55 106.07"/><polygon class="cls-12" points="90.65 103.66 90.65 107.75 89.93 107.33 89.93 104.08 90.65 103.66"/><polygon class="cls-3" points="90.65 107.75 88.53 108.98 88.53 108.14 89.93 107.33 90.65 107.75"/><polygon class="cls-7" points="90.65 107.75 89.21 107.75 89.21 105.06 88.53 105.43 88.53 104.89 89.93 104.08 89.93 107.33 90.65 107.75"/><polygon class="cls-12" points="87.75 105.34 87.75 109.42 87.02 109 87.02 105.76 87.75 105.34"/><polygon class="cls-3" points="87.75 109.42 85.63 110.65 85.63 109.81 87.02 109 87.75 109.42"/><polygon class="cls-7" points="87.75 109.42 86.31 109.42 86.31 106.73 85.63 107.11 85.63 106.57 87.02 105.76 87.02 109 87.75 109.42"/><polygon class="cls-12" points="84.84 107.02 84.84 111.1 84.12 110.68 84.12 107.43 84.84 107.02"/><polygon class="cls-3" points="84.84 111.1 82.73 112.33 82.73 111.49 84.12 110.68 84.84 111.1"/><polygon class="cls-7" points="84.84 111.1 83.4 111.1 83.4 108.41 82.73 108.78 82.73 108.25 84.12 107.43 84.12 110.68 84.84 111.1"/><polygon class="cls-12" points="81.94 108.69 81.94 112.77 81.22 112.36 81.22 109.11 81.94 108.69"/><polygon class="cls-3" points="81.94 112.77 79.82 114 79.82 113.17 81.22 112.36 81.94 112.77"/><polygon class="cls-7" points="81.94 112.77 80.5 112.77 80.5 110.09 79.82 110.46 79.82 109.92 81.22 109.11 81.22 112.36 81.94 112.77"/><polygon class="cls-12" points="79.04 110.37 79.04 114.45 78.32 114.03 78.32 110.79 79.04 110.37"/><polygon class="cls-3" points="79.04 114.45 76.92 115.68 76.92 114.84 78.32 114.03 79.04 114.45"/><polygon class="cls-7" points="79.04 114.45 77.6 114.45 77.6 111.76 76.92 112.13 76.92 111.6 78.32 110.79 78.32 114.03 79.04 114.45"/><polygon class="cls-12" points="76.14 112.04 76.14 116.13 75.41 115.71 75.41 112.46 76.14 112.04"/><polygon class="cls-3" points="76.14 116.13 74.02 117.36 74.02 116.52 75.41 115.71 76.14 116.13"/><polygon class="cls-7" points="76.14 116.13 74.69 116.13 74.69 113.44 74.02 113.81 74.02 113.27 75.41 112.46 75.41 115.71 76.14 116.13"/><polygon class="cls-12" points="73.23 113.72 73.23 117.8 72.51 117.38 72.51 114.14 73.23 113.72"/><polygon class="cls-3" points="73.23 117.8 71.12 119.03 71.12 118.19 72.51 117.38 73.23 117.8"/><polygon class="cls-7" points="73.23 117.8 71.79 117.8 71.79 115.11 71.12 115.49 71.12 114.95 72.51 114.14 72.51 117.38 73.23 117.8"/><polygon class="cls-11" points="73.24 80.77 71.12 82 71.12 77.91 73.24 76.69 73.24 80.77"/><polygon class="cls-11" points="76.14 79.09 74.02 80.32 74.02 76.24 76.14 75.01 76.14 79.09"/><polygon class="cls-11" points="79.04 77.42 76.92 78.64 76.92 74.56 79.04 73.34 79.04 77.42"/><polygon class="cls-11" points="81.94 75.74 79.82 76.97 79.82 72.89 81.94 71.66 81.94 75.74"/><polygon class="cls-11" points="84.84 74.06 82.73 75.29 82.73 71.21 84.85 69.98 84.84 74.06"/><polygon class="cls-11" points="87.75 72.39 85.63 73.62 85.63 69.53 87.75 68.31 87.75 72.39"/><polygon class="cls-11" points="90.65 70.71 88.53 71.94 88.53 67.86 90.65 66.63 90.65 70.71"/><polygon class="cls-11" points="93.55 64.95 93.55 69.04 91.43 70.27 91.43 66.18 92.83 65.37 93.55 64.95"/><polygon class="cls-12" points="93.55 64.95 93.55 69.04 92.83 68.62 92.83 65.37 93.55 64.95"/><polygon class="cls-3" points="93.55 69.04 91.43 70.27 91.43 69.43 92.83 68.62 93.55 69.04"/><polygon class="cls-7" points="93.55 69.04 92.11 69.04 92.11 66.35 91.43 66.72 91.43 66.18 92.83 65.37 92.83 68.62 93.55 69.04"/><polygon class="cls-12" points="90.65 66.63 90.65 70.71 89.93 70.29 89.93 67.05 90.65 66.63"/><polygon class="cls-3" points="90.65 70.71 88.53 71.94 88.53 71.1 89.93 70.29 90.65 70.71"/><polygon class="cls-7" points="90.65 70.71 89.21 70.71 89.21 68.02 88.53 68.4 88.53 67.86 89.93 67.05 89.93 70.29 90.65 70.71"/><polygon class="cls-12" points="87.75 68.31 87.75 72.39 87.02 71.97 87.02 68.72 87.75 68.31"/><polygon class="cls-3" points="87.75 72.39 85.63 73.62 85.63 72.78 87.02 71.97 87.75 72.39"/><polygon class="cls-7" points="87.75 72.39 86.31 72.39 86.31 69.7 85.63 70.07 85.63 69.53 87.02 68.72 87.02 71.97 87.75 72.39"/><polygon class="cls-12" points="84.84 69.98 84.84 74.06 84.12 73.64 84.12 70.4 84.84 69.98"/><polygon class="cls-3" points="84.84 74.06 82.73 75.29 82.73 74.46 84.12 73.64 84.84 74.06"/><polygon class="cls-7" points="84.84 74.06 83.4 74.06 83.4 71.37 82.73 71.75 82.73 71.21 84.12 70.4 84.12 73.64 84.84 74.06"/><polygon class="cls-12" points="81.94 71.66 81.94 75.74 81.22 75.32 81.22 72.08 81.94 71.66"/><polygon class="cls-3" points="81.94 75.74 79.82 76.97 79.82 76.13 81.22 75.32 81.94 75.74"/><polygon class="cls-7" points="81.94 75.74 80.5 75.74 80.5 73.05 79.82 73.42 79.82 72.89 81.22 72.08 81.22 75.32 81.94 75.74"/><polygon class="cls-12" points="79.04 73.33 79.04 77.42 78.32 77 78.32 73.75 79.04 73.33"/><polygon class="cls-3" points="79.04 77.42 76.92 78.64 76.92 77.81 78.32 77 79.04 77.42"/><polygon class="cls-7" points="79.04 77.42 77.6 77.42 77.6 74.73 76.92 75.1 76.92 74.56 78.32 73.75 78.32 77 79.04 77.42"/><polygon class="cls-12" points="76.14 75.01 76.14 79.09 75.41 78.67 75.41 75.43 76.14 75.01"/><polygon class="cls-3" points="76.14 79.09 74.02 80.32 74.02 79.48 75.41 78.67 76.14 79.09"/><polygon class="cls-7" points="76.14 79.09 74.69 79.09 74.69 76.4 74.02 76.78 74.02 76.24 75.41 75.43 75.41 78.67 76.14 79.09"/><polygon class="cls-12" points="73.23 76.68 73.23 80.77 72.51 80.35 72.51 77.1 73.23 76.68"/><polygon class="cls-3" points="73.23 80.77 71.12 82 71.12 81.16 72.51 80.35 73.23 80.77"/><polygon class="cls-7" points="73.23 80.77 71.79 80.77 71.79 78.08 71.12 78.45 71.12 77.91 72.51 77.1 72.51 80.35 73.23 80.77"/><polygon class="cls-11" points="73.14 70.14 71.12 71.42 71.12 63.25 73.24 62.03 73.14 70.14"/><polygon class="cls-11" points="76.01 68.41 74.02 69.74 74.02 61.58 76.14 60.35 76.01 68.41"/><polygon class="cls-11" points="78.81 66.7 76.92 68.07 76.92 59.9 79.04 58.67 78.81 66.7"/><polygon class="cls-11" points="81.78 65.14 79.82 66.39 79.82 58.22 81.94 57 81.78 65.14"/><polygon class="cls-11" points="84.68 63.43 82.73 64.72 82.73 56.55 84.85 55.32 84.68 63.43"/><polygon class="cls-11" points="87.48 61.76 85.63 63.04 85.63 54.87 87.75 53.65 87.48 61.76"/><polygon class="cls-11" points="90.38 60.08 88.53 61.36 88.53 53.2 90.65 51.97 90.38 60.08"/><polygon class="cls-11" points="93.55 50.3 93.55 58.46 91.43 59.69 91.43 51.52 92.83 50.71 93.55 50.3"/><polygon class="cls-12" points="93.55 50.3 93.55 58.46 92.83 58.04 92.83 50.71 93.55 50.3"/><polygon class="cls-3" points="93.55 58.46 91.43 59.69 91.43 58.85 92.83 58.04 93.55 58.46"/><polygon class="cls-7" points="93.55 58.46 92.11 58.46 92.11 51.69 91.43 52.06 91.43 51.52 92.83 50.71 92.83 58.04 93.55 58.46"/><polygon class="cls-12" points="90.65 51.97 90.65 60.13 89.93 59.72 89.93 52.39 90.65 51.97"/><polygon class="cls-3" points="90.65 60.13 88.53 61.36 88.53 60.53 89.93 59.72 90.65 60.13"/><polygon class="cls-7" points="90.65 60.13 89.21 60.13 89.21 53.36 88.53 53.73 88.53 53.2 89.93 52.39 89.93 59.72 90.65 60.13"/><polygon class="cls-12" points="87.75 53.64 87.75 61.81 87.02 61.39 87.02 54.06 87.75 53.64"/><polygon class="cls-3" points="87.75 61.81 85.63 63.04 85.63 62.2 87.02 61.39 87.75 61.81"/><polygon class="cls-7" points="87.75 61.81 86.31 61.81 86.31 55.04 85.63 55.41 85.63 54.87 87.02 54.06 87.02 61.39 87.75 61.81"/><polygon class="cls-12" points="84.84 55.32 84.84 63.48 84.12 63.07 84.12 55.74 84.84 55.32"/><polygon class="cls-3" points="84.84 63.48 82.73 64.72 82.73 63.88 84.12 63.07 84.84 63.48"/><polygon class="cls-7" points="84.84 63.48 83.4 63.48 83.4 56.71 82.73 57.09 82.73 56.55 84.12 55.74 84.12 63.07 84.84 63.48"/><polygon class="cls-12" points="81.94 57 81.94 65.16 81.22 64.74 81.22 57.41 81.94 57"/><polygon class="cls-3" points="81.94 65.16 79.82 66.39 79.82 65.55 81.22 64.74 81.94 65.16"/><polygon class="cls-7" points="81.94 65.16 80.5 65.16 80.5 58.39 79.82 58.76 79.82 58.23 81.22 57.41 81.22 64.74 81.94 65.16"/><polygon class="cls-12" points="79.04 58.67 79.04 66.84 78.32 66.42 78.32 59.09 79.04 58.67"/><polygon class="cls-3" points="79.04 66.84 76.92 68.07 76.92 67.23 78.32 66.42 79.04 66.84"/><polygon class="cls-7" points="79.04 66.84 77.6 66.84 77.6 60.07 76.92 60.44 76.92 59.9 78.32 59.09 78.32 66.42 79.04 66.84"/><polygon class="cls-12" points="76.14 60.35 76.14 68.51 75.41 68.09 75.41 60.77 76.14 60.35"/><polygon class="cls-3" points="76.14 68.51 74.02 69.74 74.02 68.91 75.41 68.09 76.14 68.51"/><polygon class="cls-7" points="76.14 68.51 74.69 68.51 74.69 61.74 74.02 62.12 74.02 61.58 75.41 60.77 75.41 68.09 76.14 68.51"/><polygon class="cls-12" points="73.23 62.02 73.23 70.19 72.51 69.77 72.51 62.44 73.23 62.02"/><polygon class="cls-3" points="73.23 70.19 71.12 71.42 71.12 70.58 72.51 69.77 73.23 70.19"/><polygon class="cls-7" points="73.23 70.19 71.79 70.19 71.79 63.42 71.12 63.79 71.12 63.25 72.51 62.44 72.51 69.77 73.23 70.19"/><polygon class="cls-10" points="66.02 75.48 68.14 76.7 68.14 72.62 66.02 71.4 66.02 75.48"/><polygon class="cls-10" points="63.12 73.8 65.24 75.03 65.24 70.95 63.12 69.72 63.12 73.8"/><polygon class="cls-10" points="60.22 72.12 62.33 73.35 62.33 69.27 60.21 68.05 60.22 72.12"/><polygon class="cls-10" points="57.31 70.45 59.43 71.68 59.43 67.59 57.31 66.37 57.31 70.45"/><polygon class="cls-10" points="54.41 68.77 56.53 70 56.53 65.92 54.41 64.69 54.41 68.77"/><polygon class="cls-10" points="51.51 67.1 53.63 68.33 53.63 64.24 51.5 63.02 51.51 67.1"/><polygon class="cls-10" points="48.61 65.42 50.72 66.65 50.72 62.57 48.6 61.34 48.61 65.42"/><polygon class="cls-10" points="45.7 59.66 45.7 63.75 47.82 64.98 47.82 60.89 46.43 60.08 45.7 59.66"/><polygon class="cls-18" points="45.7 59.66 45.7 63.75 46.43 63.33 46.43 60.08 45.7 59.66"/><polygon class="cls-19" points="45.7 63.75 47.82 64.98 47.82 64.14 46.43 63.33 45.7 63.75"/><polygon class="cls-18" points="48.61 61.34 48.61 65.42 49.33 65 49.33 61.76 48.61 61.34"/><polygon class="cls-19" points="48.61 65.42 50.72 66.65 50.72 65.81 49.33 65 48.61 65.42"/><polygon class="cls-18" points="51.51 63.01 51.51 67.1 52.23 66.68 52.23 63.43 51.51 63.01"/><polygon class="cls-19" points="51.51 67.1 53.63 68.33 53.63 67.49 52.23 66.68 51.51 67.1"/><polygon class="cls-18" points="54.41 64.69 54.41 68.77 55.13 68.35 55.13 65.11 54.41 64.69"/><polygon class="cls-19" points="54.41 68.77 56.53 70 56.53 69.17 55.13 68.35 54.41 68.77"/><polygon class="cls-18" points="57.31 66.37 57.31 70.45 58.04 70.03 58.04 66.78 57.31 66.37"/><polygon class="cls-19" points="57.31 70.45 59.43 71.68 59.43 70.84 58.04 70.03 57.31 70.45"/><polygon class="cls-18" points="60.22 68.04 60.22 72.12 60.94 71.71 60.94 68.46 60.22 68.04"/><polygon class="cls-19" points="60.22 72.12 62.33 73.35 62.33 72.52 60.94 71.71 60.22 72.12"/><polygon class="cls-18" points="63.12 69.72 63.12 73.8 63.84 73.38 63.84 70.14 63.12 69.72"/><polygon class="cls-19" points="63.12 73.8 65.24 75.03 65.24 74.19 63.84 73.38 63.12 73.8"/><polygon class="cls-18" points="66.02 71.39 66.02 75.48 66.74 75.06 66.74 71.81 66.02 71.39"/><polygon class="cls-19" points="66.02 75.48 68.14 76.7 68.14 75.87 66.74 75.06 66.02 75.48"/><polygon class="cls-10" points="66.02 86.06 68.14 87.29 68.14 83.2 66.02 81.98 66.02 86.06"/><polygon class="cls-10" points="63.12 84.38 65.24 85.61 65.24 81.53 63.12 80.3 63.12 84.38"/><polygon class="cls-10" points="60.22 82.7 62.33 83.94 62.33 79.85 60.21 78.63 60.22 82.7"/><polygon class="cls-10" points="57.31 81.03 59.43 82.26 59.43 78.18 57.31 76.95 57.31 81.03"/><polygon class="cls-10" points="54.41 79.35 56.53 80.58 56.53 76.5 54.41 75.28 54.41 79.35"/><polygon class="cls-10" points="51.51 77.68 53.63 78.91 53.63 74.82 51.5 73.6 51.51 77.68"/><polygon class="cls-10" points="48.61 76 50.72 77.23 50.72 73.15 48.6 71.92 48.61 76"/><polygon class="cls-10" points="45.7 70.25 45.7 74.33 47.82 75.56 47.82 71.47 46.43 70.66 45.7 70.25"/><polygon class="cls-18" points="45.7 70.25 45.7 74.33 46.43 73.91 46.43 70.66 45.7 70.25"/><polygon class="cls-19" points="45.7 74.33 47.82 75.56 47.82 74.72 46.43 73.91 45.7 74.33"/><polygon class="cls-18" points="48.61 71.92 48.61 76 49.33 75.58 49.33 72.34 48.61 71.92"/><polygon class="cls-19" points="48.61 76 50.72 77.23 50.72 76.39 49.33 75.58 48.61 76"/><polygon class="cls-18" points="51.51 73.59 51.51 77.68 52.23 77.26 52.23 74.01 51.51 73.59"/><polygon class="cls-19" points="51.51 77.68 53.63 78.91 53.63 78.07 52.23 77.26 51.51 77.68"/><polygon class="cls-18" points="54.41 75.27 54.41 79.35 55.13 78.94 55.13 75.69 54.41 75.27"/><polygon class="cls-19" points="54.41 79.35 56.53 80.58 56.53 79.75 55.13 78.94 54.41 79.35"/><polygon class="cls-18" points="57.31 76.95 57.31 81.03 58.04 80.61 58.04 77.37 57.31 76.95"/><polygon class="cls-19" points="57.31 81.03 59.43 82.26 59.43 81.42 58.04 80.61 57.31 81.03"/><polygon class="cls-18" points="60.22 78.62 60.22 82.7 60.94 82.29 60.94 79.04 60.22 78.62"/><polygon class="cls-19" points="60.22 82.7 62.33 83.94 62.33 83.1 60.94 82.29 60.22 82.7"/><polygon class="cls-18" points="63.12 80.3 63.12 84.38 63.84 83.96 63.84 80.72 63.12 80.3"/><polygon class="cls-19" points="63.12 84.38 65.24 85.61 65.24 84.77 63.84 83.96 63.12 84.38"/><polygon class="cls-18" points="66.02 81.97 66.02 86.06 66.74 85.64 66.74 82.39 66.02 81.97"/><polygon class="cls-19" points="66.02 86.06 68.14 87.29 68.14 86.45 66.74 85.64 66.02 86.06"/><polygon class="cls-10" points="66.02 91.35 68.14 92.58 68.14 88.49 66.02 87.27 66.02 91.35"/><polygon class="cls-10" points="63.12 89.67 65.24 90.9 65.24 86.82 63.12 85.59 63.12 89.67"/><polygon class="cls-10" points="60.22 88 62.33 89.23 62.33 85.14 60.21 83.92 60.22 88"/><polygon class="cls-10" points="57.31 86.32 59.43 87.55 59.43 83.47 57.31 82.24 57.31 86.32"/><polygon class="cls-10" points="54.41 84.64 56.53 85.87 56.53 81.79 54.41 80.57 54.41 84.64"/><polygon class="cls-10" points="51.51 82.97 53.63 84.2 53.63 80.11 51.5 78.89 51.51 82.97"/><polygon class="cls-10" points="48.61 81.29 50.72 82.52 50.72 78.44 48.6 77.21 48.61 81.29"/><polygon class="cls-10" points="45.7 75.54 45.7 79.62 47.82 80.85 47.82 76.77 46.43 75.95 45.7 75.54"/><polygon class="cls-18" points="45.7 75.54 45.7 79.62 46.43 79.2 46.43 75.95 45.7 75.54"/><polygon class="cls-19" points="45.7 79.62 47.82 80.85 47.82 80.01 46.43 79.2 45.7 79.62"/><polygon class="cls-18" points="48.61 77.21 48.61 81.29 49.33 80.87 49.33 77.63 48.61 77.21"/><polygon class="cls-19" points="48.61 81.29 50.72 82.52 50.72 81.69 49.33 80.87 48.61 81.29"/><polygon class="cls-18" points="51.51 78.89 51.51 82.97 52.23 82.55 52.23 79.31 51.51 78.89"/><polygon class="cls-19" points="51.51 82.97 53.63 84.2 53.63 83.36 52.23 82.55 51.51 82.97"/><polygon class="cls-18" points="54.41 80.56 54.41 84.64 55.13 84.23 55.13 80.98 54.41 80.56"/><polygon class="cls-19" points="54.41 84.64 56.53 85.87 56.53 85.04 55.13 84.23 54.41 84.64"/><polygon class="cls-18" points="57.31 82.24 57.31 86.32 58.04 85.9 58.04 82.66 57.31 82.24"/><polygon class="cls-19" points="57.31 86.32 59.43 87.55 59.43 86.71 58.04 85.9 57.31 86.32"/><polygon class="cls-18" points="60.22 83.91 60.22 88 60.94 87.58 60.94 84.33 60.22 83.91"/><polygon class="cls-19" points="60.22 88 62.33 89.23 62.33 88.39 60.94 87.58 60.22 88"/><polygon class="cls-18" points="63.12 85.59 63.12 89.67 63.84 89.25 63.84 86.01 63.12 85.59"/><polygon class="cls-19" points="63.12 89.67 65.24 90.9 65.24 90.06 63.84 89.25 63.12 89.67"/><polygon class="cls-18" points="66.02 87.27 66.02 91.35 66.74 90.93 66.74 87.68 66.02 87.27"/><polygon class="cls-19" points="66.02 91.35 68.14 92.58 68.14 91.74 66.74 90.93 66.02 91.35"/><polygon class="cls-10" points="66.02 96.64 68.14 97.87 68.14 93.78 66.02 92.56 66.02 96.64"/><polygon class="cls-10" points="63.12 94.96 65.24 96.19 65.24 92.11 63.12 90.88 63.12 94.96"/><polygon class="cls-10" points="60.22 93.29 62.33 94.52 62.33 90.43 60.21 89.21 60.22 93.29"/><polygon class="cls-10" points="57.31 91.61 59.43 92.84 59.43 88.76 57.31 87.53 57.31 91.61"/><polygon class="cls-10" points="54.41 89.94 56.53 91.17 56.53 87.08 54.41 85.86 54.41 89.94"/><polygon class="cls-10" points="51.51 88.26 53.63 89.49 53.63 85.41 51.5 84.18 51.51 88.26"/><polygon class="cls-10" points="48.61 86.58 50.72 87.81 50.72 83.73 48.6 82.5 48.61 86.58"/><polygon class="cls-10" points="45.7 80.83 45.7 84.91 47.82 86.14 47.82 82.06 46.43 81.25 45.7 80.83"/><polygon class="cls-18" points="45.7 80.83 45.7 84.91 46.43 84.49 46.43 81.25 45.7 80.83"/><polygon class="cls-19" points="45.7 84.91 47.82 86.14 47.82 85.3 46.43 84.49 45.7 84.91"/><polygon class="cls-18" points="48.61 82.5 48.61 86.58 49.33 86.17 49.33 82.92 48.61 82.5"/><polygon class="cls-19" points="48.61 86.58 50.72 87.81 50.72 86.98 49.33 86.17 48.61 86.58"/><polygon class="cls-18" points="51.51 84.18 51.51 88.26 52.23 87.84 52.23 84.59 51.51 84.18"/><polygon class="cls-19" points="51.51 88.26 53.63 89.49 53.63 88.65 52.23 87.84 51.51 88.26"/><polygon class="cls-18" points="54.41 85.85 54.41 89.94 55.13 89.52 55.13 86.27 54.41 85.85"/><polygon class="cls-19" points="54.41 89.94 56.53 91.17 56.53 90.33 55.13 89.52 54.41 89.94"/><polygon class="cls-18" points="57.31 87.53 57.31 91.61 58.04 91.19 58.04 87.95 57.31 87.53"/><polygon class="cls-19" points="57.31 91.61 59.43 92.84 59.43 92 58.04 91.19 57.31 91.61"/><polygon class="cls-18" points="60.22 89.2 60.22 93.29 60.94 92.87 60.94 89.62 60.22 89.2"/><polygon class="cls-19" points="60.22 93.29 62.33 94.52 62.33 93.68 60.94 92.87 60.22 93.29"/><polygon class="cls-18" points="63.12 90.88 63.12 94.96 63.84 94.54 63.84 91.3 63.12 90.88"/><polygon class="cls-19" points="63.12 94.96 65.24 96.19 65.24 95.36 63.84 94.54 63.12 94.96"/><polygon class="cls-18" points="66.02 92.56 66.02 96.64 66.74 96.22 66.74 92.97 66.02 92.56"/><polygon class="cls-19" points="66.02 96.64 68.14 97.87 68.14 97.03 66.74 96.22 66.02 96.64"/><polygon class="cls-10" points="66.02 101.94 68.14 103.16 68.14 99.08 66.02 97.85 66.02 101.94"/><polygon class="cls-10" points="63.12 100.25 65.24 101.48 65.24 97.4 63.12 96.17 63.12 100.25"/><polygon class="cls-10" points="60.22 98.58 62.33 99.81 62.33 95.72 60.21 94.5 60.22 98.58"/><polygon class="cls-10" points="57.31 96.9 59.43 98.13 59.43 94.05 57.31 92.82 57.31 96.9"/><polygon class="cls-10" points="54.41 95.23 56.53 96.46 56.53 92.37 54.41 91.15 54.41 95.23"/><polygon class="cls-10" points="51.51 93.55 53.63 94.78 53.63 90.7 51.5 89.47 51.51 93.55"/><polygon class="cls-10" points="48.61 91.87 50.72 93.1 50.72 89.02 48.6 87.8 48.61 91.87"/><polygon class="cls-10" points="45.7 86.12 45.7 90.2 47.82 91.43 47.82 87.35 46.43 86.54 45.7 86.12"/><polygon class="cls-18" points="45.7 86.12 45.7 90.2 46.43 89.78 46.43 86.54 45.7 86.12"/><polygon class="cls-19" points="45.7 90.2 47.82 91.43 47.82 90.59 46.43 89.78 45.7 90.2"/><polygon class="cls-18" points="48.61 87.79 48.61 91.87 49.33 91.46 49.33 88.21 48.61 87.79"/><polygon class="cls-19" points="48.61 91.87 50.72 93.1 50.72 92.27 49.33 91.46 48.61 91.87"/><polygon class="cls-18" points="51.51 89.47 51.51 93.55 52.23 93.13 52.23 89.89 51.51 89.47"/><polygon class="cls-19" points="51.51 93.55 53.63 94.78 53.63 93.94 52.23 93.13 51.51 93.55"/><polygon class="cls-18" points="54.41 91.14 54.41 95.23 55.13 94.81 55.13 91.56 54.41 91.14"/><polygon class="cls-19" points="54.41 95.23 56.53 96.46 56.53 95.62 55.13 94.81 54.41 95.23"/><polygon class="cls-18" points="57.31 92.82 57.31 96.9 58.04 96.48 58.04 93.24 57.31 92.82"/><polygon class="cls-19" points="57.31 96.9 59.43 98.13 59.43 97.3 58.04 96.48 57.31 96.9"/><polygon class="cls-18" points="60.22 94.5 60.22 98.58 60.94 98.16 60.94 94.91 60.22 94.5"/><polygon class="cls-19" points="60.22 98.58 62.33 99.81 62.33 98.97 60.94 98.16 60.22 98.58"/><polygon class="cls-18" points="63.12 96.17 63.12 100.25 63.84 99.83 63.84 96.59 63.12 96.17"/><polygon class="cls-19" points="63.12 100.25 65.24 101.48 65.24 100.65 63.84 99.83 63.12 100.25"/><polygon class="cls-18" points="66.02 97.85 66.02 101.93 66.74 101.51 66.74 98.27 66.02 97.85"/><polygon class="cls-19" points="66.02 101.93 68.14 103.16 68.14 102.32 66.74 101.51 66.02 101.93"/><polygon class="cls-10" points="66.02 107.22 68.14 108.45 68.14 104.37 66.02 103.14 66.02 107.22"/><polygon class="cls-10" points="63.12 105.54 65.24 106.77 65.24 102.69 63.12 101.47 63.12 105.54"/><polygon class="cls-10" points="60.22 103.87 62.33 105.1 62.33 101.02 60.21 99.79 60.22 103.87"/><polygon class="cls-10" points="57.31 102.19 59.43 103.42 59.43 99.34 57.31 98.11 57.31 102.19"/><polygon class="cls-10" points="54.41 100.52 56.53 101.75 56.53 97.66 54.41 96.44 54.41 100.52"/><polygon class="cls-10" points="51.51 98.84 53.63 100.07 53.63 95.99 51.5 94.76 51.51 98.84"/><polygon class="cls-10" points="48.61 97.17 50.72 98.39 50.72 94.31 48.6 93.09 48.61 97.17"/><polygon class="cls-10" points="45.7 91.41 45.7 95.49 47.82 96.72 47.82 92.64 46.43 91.83 45.7 91.41"/><polygon class="cls-18" points="45.7 91.41 45.7 95.49 46.43 95.07 46.43 91.83 45.7 91.41"/><polygon class="cls-19" points="45.7 95.49 47.82 96.72 47.82 95.88 46.43 95.07 45.7 95.49"/><polygon class="cls-18" points="48.61 93.08 48.61 97.17 49.33 96.75 49.33 93.5 48.61 93.08"/><polygon class="cls-19" points="48.61 97.17 50.72 98.39 50.72 97.56 49.33 96.75 48.61 97.17"/><polygon class="cls-18" points="51.51 94.76 51.51 98.84 52.23 98.42 52.23 95.18 51.51 94.76"/><polygon class="cls-19" points="51.51 98.84 53.63 100.07 53.63 99.23 52.23 98.42 51.51 98.84"/><polygon class="cls-18" points="54.41 96.43 54.41 100.52 55.13 100.1 55.13 96.85 54.41 96.43"/><polygon class="cls-19" points="54.41 100.52 56.53 101.75 56.53 100.91 55.13 100.1 54.41 100.52"/><polygon class="cls-18" points="57.31 98.11 57.31 102.19 58.04 101.77 58.04 98.53 57.31 98.11"/><polygon class="cls-19" points="57.31 102.19 59.43 103.42 59.43 102.59 58.04 101.77 57.31 102.19"/><polygon class="cls-18" points="60.22 99.79 60.22 103.87 60.94 103.45 60.94 100.2 60.22 99.79"/><polygon class="cls-19" points="60.22 103.87 62.33 105.1 62.33 104.26 60.94 103.45 60.22 103.87"/><polygon class="cls-18" points="63.12 101.46 63.12 105.54 63.84 105.13 63.84 101.88 63.12 101.46"/><polygon class="cls-19" points="63.12 105.54 65.24 106.77 65.24 105.94 63.84 105.13 63.12 105.54"/><polygon class="cls-18" points="66.02 103.14 66.02 107.22 66.74 106.8 66.74 103.56 66.02 103.14"/><polygon class="cls-19" points="66.02 107.22 68.14 108.45 68.14 107.61 66.74 106.8 66.02 107.22"/><polygon class="cls-10" points="66.02 112.52 68.14 113.74 68.14 109.66 66.02 108.43 66.02 112.52"/><polygon class="cls-10" points="63.12 110.83 65.24 112.06 65.24 107.98 63.12 106.76 63.12 110.83"/><polygon class="cls-10" points="60.22 109.16 62.33 110.39 62.33 106.31 60.21 105.08 60.22 109.16"/><polygon class="cls-10" points="57.31 107.48 59.43 108.71 59.43 104.63 57.31 103.41 57.31 107.48"/><polygon class="cls-10" points="54.41 105.81 56.53 107.04 56.53 102.95 54.41 101.73 54.41 105.81"/><polygon class="cls-10" points="51.51 104.13 53.63 105.36 53.63 101.28 51.5 100.05 51.51 104.13"/><polygon class="cls-10" points="48.61 102.46 50.72 103.69 50.72 99.6 48.6 98.38 48.61 102.46"/><polygon class="cls-10" points="45.7 96.7 45.7 100.78 47.82 102.01 47.82 97.93 46.43 97.12 45.7 96.7"/><polygon class="cls-18" points="45.7 96.7 45.7 100.78 46.43 100.36 46.43 97.12 45.7 96.7"/><polygon class="cls-19" points="45.7 100.78 47.82 102.01 47.82 101.17 46.43 100.36 45.7 100.78"/><polygon class="cls-18" points="48.61 98.37 48.61 102.46 49.33 102.04 49.33 98.79 48.61 98.37"/><polygon class="cls-19" points="48.61 102.46 50.72 103.69 50.72 102.85 49.33 102.04 48.61 102.46"/><polygon class="cls-18" points="51.51 100.05 51.51 104.13 52.23 103.71 52.23 100.47 51.51 100.05"/><polygon class="cls-19" points="51.51 104.13 53.63 105.36 53.63 104.53 52.23 103.71 51.51 104.13"/><polygon class="cls-18" points="54.41 101.72 54.41 105.81 55.13 105.39 55.13 102.14 54.41 101.72"/><polygon class="cls-19" points="54.41 105.81 56.53 107.04 56.53 106.2 55.13 105.39 54.41 105.81"/><polygon class="cls-18" points="57.31 103.4 57.31 107.48 58.04 107.06 58.04 103.82 57.31 103.4"/><polygon class="cls-19" points="57.31 107.48 59.43 108.71 59.43 107.88 58.04 107.06 57.31 107.48"/><polygon class="cls-18" points="60.22 105.08 60.22 109.16 60.94 108.74 60.94 105.5 60.22 105.08"/><polygon class="cls-19" points="60.22 109.16 62.33 110.39 62.33 109.55 60.94 108.74 60.22 109.16"/><polygon class="cls-18" points="63.12 106.75 63.12 110.83 63.84 110.42 63.84 107.17 63.12 106.75"/><polygon class="cls-19" points="63.12 110.83 65.24 112.06 65.24 111.23 63.84 110.42 63.12 110.83"/><polygon class="cls-18" points="66.02 108.43 66.02 112.51 66.74 112.09 66.74 108.85 66.02 108.43"/><polygon class="cls-19" points="66.02 112.51 68.14 113.74 68.14 112.9 66.74 112.09 66.02 112.51"/><polygon class="cls-10" points="66.02 117.81 68.14 119.03 68.14 114.95 66.02 113.72 66.02 117.81"/><polygon class="cls-10" points="63.12 116.13 65.24 117.36 65.24 113.27 63.12 112.05 63.12 116.13"/><polygon class="cls-10" points="60.22 114.45 62.33 115.68 62.33 111.6 60.21 110.37 60.22 114.45"/><polygon class="cls-10" points="57.31 112.77 59.43 114 59.43 109.92 57.31 108.7 57.31 112.77"/><polygon class="cls-10" points="54.41 111.1 56.53 112.33 56.53 108.25 54.41 107.02 54.41 111.1"/><polygon class="cls-10" points="51.51 109.42 53.63 110.65 53.63 106.57 51.5 105.34 51.51 109.42"/><polygon class="cls-10" points="48.61 107.75 50.72 108.98 50.72 104.89 48.6 103.67 48.61 107.75"/><polygon class="cls-10" points="45.7 101.99 45.7 106.07 47.82 107.3 47.82 103.22 46.43 102.41 45.7 101.99"/><polygon class="cls-18" points="45.7 101.99 45.7 106.07 46.43 105.65 46.43 102.41 45.7 101.99"/><polygon class="cls-19" points="45.7 106.07 47.82 107.3 47.82 106.47 46.43 105.65 45.7 106.07"/><polygon class="cls-18" points="48.61 103.66 48.61 107.75 49.33 107.33 49.33 104.08 48.61 103.66"/><polygon class="cls-19" points="48.61 107.75 50.72 108.98 50.72 108.14 49.33 107.33 48.61 107.75"/><polygon class="cls-18" points="51.51 105.34 51.51 109.42 52.23 109 52.23 105.76 51.51 105.34"/><polygon class="cls-19" points="51.51 109.42 53.63 110.65 53.63 109.81 52.23 109 51.51 109.42"/><polygon class="cls-18" points="54.41 107.02 54.41 111.1 55.13 110.68 55.13 107.43 54.41 107.02"/><polygon class="cls-19" points="54.41 111.1 56.53 112.33 56.53 111.49 55.13 110.68 54.41 111.1"/><polygon class="cls-18" points="57.31 108.69 57.31 112.77 58.04 112.36 58.04 109.11 57.31 108.69"/><polygon class="cls-19" points="57.31 112.77 59.43 114 59.43 113.17 58.04 112.36 57.31 112.77"/><polygon class="cls-18" points="60.22 110.37 60.22 114.45 60.94 114.03 60.94 110.79 60.22 110.37"/><polygon class="cls-19" points="60.22 114.45 62.33 115.68 62.33 114.84 60.94 114.03 60.22 114.45"/><polygon class="cls-18" points="63.12 112.04 63.12 116.13 63.84 115.71 63.84 112.46 63.12 112.04"/><polygon class="cls-19" points="63.12 116.13 65.24 117.36 65.24 116.52 63.84 115.71 63.12 116.13"/><polygon class="cls-18" points="66.02 113.72 66.02 117.8 66.74 117.38 66.74 114.14 66.02 113.72"/><polygon class="cls-19" points="66.02 117.8 68.14 119.03 68.14 118.19 66.74 117.38 66.02 117.8"/><polygon class="cls-10" points="66.02 80.77 68.14 82 68.14 77.91 66.02 76.69 66.02 80.77"/><polygon class="cls-10" points="63.12 79.09 65.24 80.32 65.24 76.24 63.12 75.01 63.12 79.09"/><polygon class="cls-10" points="60.22 77.42 62.33 78.64 62.33 74.56 60.21 73.34 60.22 77.42"/><polygon class="cls-10" points="57.31 75.74 59.43 76.97 59.43 72.89 57.31 71.66 57.31 75.74"/><polygon class="cls-10" points="54.41 74.06 56.53 75.29 56.53 71.21 54.41 69.98 54.41 74.06"/><polygon class="cls-10" points="51.51 72.39 53.63 73.62 53.63 69.53 51.5 68.31 51.51 72.39"/><polygon class="cls-10" points="48.61 70.71 50.72 71.94 50.72 67.86 48.6 66.63 48.61 70.71"/><polygon class="cls-10" points="45.7 64.95 45.7 69.04 47.82 70.27 47.82 66.18 46.43 65.37 45.7 64.95"/><polygon class="cls-18" points="45.7 64.95 45.7 69.04 46.43 68.62 46.43 65.37 45.7 64.95"/><polygon class="cls-19" points="45.7 69.04 47.82 70.27 47.82 69.43 46.43 68.62 45.7 69.04"/><polygon class="cls-18" points="48.61 66.63 48.61 70.71 49.33 70.29 49.33 67.05 48.61 66.63"/><polygon class="cls-19" points="48.61 70.71 50.72 71.94 50.72 71.1 49.33 70.29 48.61 70.71"/><polygon class="cls-18" points="51.51 68.31 51.51 72.39 52.23 71.97 52.23 68.72 51.51 68.31"/><polygon class="cls-19" points="51.51 72.39 53.63 73.62 53.63 72.78 52.23 71.97 51.51 72.39"/><polygon class="cls-18" points="54.41 69.98 54.41 74.06 55.13 73.64 55.13 70.4 54.41 69.98"/><polygon class="cls-19" points="54.41 74.06 56.53 75.29 56.53 74.46 55.13 73.64 54.41 74.06"/><polygon class="cls-18" points="57.31 71.66 57.31 75.74 58.04 75.32 58.04 72.08 57.31 71.66"/><polygon class="cls-19" points="57.31 75.74 59.43 76.97 59.43 76.13 58.04 75.32 57.31 75.74"/><polygon class="cls-18" points="60.22 73.33 60.22 77.42 60.94 77 60.94 73.75 60.22 73.33"/><polygon class="cls-19" points="60.22 77.42 62.33 78.64 62.33 77.81 60.94 77 60.22 77.42"/><polygon class="cls-18" points="63.12 75.01 63.12 79.09 63.84 78.67 63.84 75.43 63.12 75.01"/><polygon class="cls-19" points="63.12 79.09 65.24 80.32 65.24 79.48 63.84 78.67 63.12 79.09"/><polygon class="cls-18" points="66.02 76.68 66.02 80.77 66.74 80.35 66.74 77.1 66.02 76.68"/><polygon class="cls-19" points="66.02 80.77 68.14 82 68.14 81.16 66.74 80.35 66.02 80.77"/><polygon class="cls-10" points="66.11 70.14 68.14 71.42 68.14 63.25 66.02 62.03 66.11 70.14"/><polygon class="cls-10" points="63.25 68.41 65.24 69.74 65.24 61.58 63.12 60.35 63.25 68.41"/><polygon class="cls-10" points="60.45 66.7 62.33 68.07 62.33 59.9 60.21 58.67 60.45 66.7"/><polygon class="cls-10" points="57.48 65.14 59.43 66.39 59.43 58.22 57.31 57 57.48 65.14"/><polygon class="cls-10" points="54.57 63.43 56.53 64.72 56.53 56.55 54.41 55.32 54.57 63.43"/><polygon class="cls-10" points="51.78 61.76 53.63 63.04 53.63 54.87 51.5 53.65 51.78 61.76"/><polygon class="cls-10" points="48.88 60.08 50.72 61.36 50.72 53.2 48.6 51.97 48.88 60.08"/><polygon class="cls-10" points="45.7 50.3 45.7 58.46 47.82 59.69 47.82 51.52 46.43 50.71 45.7 50.3"/><polygon class="cls-18" points="45.7 50.3 45.7 58.46 46.43 58.04 46.43 50.71 45.7 50.3"/><polygon class="cls-19" points="45.7 58.46 47.82 59.69 47.82 58.85 46.43 58.04 45.7 58.46"/><polygon class="cls-18" points="48.61 51.97 48.61 60.13 49.33 59.72 49.33 52.39 48.61 51.97"/><polygon class="cls-19" points="48.61 60.13 50.72 61.36 50.72 60.53 49.33 59.72 48.61 60.13"/><polygon class="cls-18" points="51.51 53.64 51.51 61.81 52.23 61.39 52.23 54.06 51.51 53.64"/><polygon class="cls-19" points="51.51 61.81 53.63 63.04 53.63 62.2 52.23 61.39 51.51 61.81"/><polygon class="cls-18" points="54.41 55.32 54.41 63.48 55.13 63.07 55.13 55.74 54.41 55.32"/><polygon class="cls-19" points="54.41 63.48 56.53 64.72 56.53 63.88 55.13 63.07 54.41 63.48"/><polygon class="cls-18" points="57.31 57 57.31 65.16 58.04 64.74 58.04 57.41 57.31 57"/><polygon class="cls-19" points="57.31 65.16 59.43 66.39 59.43 65.55 58.04 64.74 57.31 65.16"/><polygon class="cls-18" points="60.22 58.67 60.22 66.84 60.94 66.42 60.94 59.09 60.22 58.67"/><polygon class="cls-19" points="60.22 66.84 62.33 68.07 62.33 67.23 60.94 66.42 60.22 66.84"/><polygon class="cls-18" points="63.12 60.35 63.12 68.51 63.84 68.09 63.84 60.77 63.12 60.35"/><polygon class="cls-19" points="63.12 68.51 65.24 69.74 65.24 68.91 63.84 68.09 63.12 68.51"/><polygon class="cls-18" points="66.02 62.02 66.02 70.19 66.74 69.77 66.74 62.44 66.02 62.02"/><polygon class="cls-19" points="66.02 70.19 68.14 71.42 68.14 70.58 66.74 69.77 66.02 70.19"/><polygon class="cls-7" points="52.2 37.25 57.65 34.11 60.21 41.12 58.91 41.12 52.2 37.25"/><polygon class="cls-20" points="53.51 37.25 53.51 35.88 60.21 39.75 60.21 41.12 53.51 37.25"/><polygon class="cls-21" points="65.65 37.97 65.65 36.61 60.21 39.75 60.21 41.12 65.65 37.97"/><polygon class="cls-3" points="53.51 35.88 58.95 32.74 65.65 36.61 60.21 39.75 53.51 35.88"/><polygon class="cls-7" points="68 38.14 73.45 34.99 76 42.01 74.7 42.01 68 38.14"/><polygon class="cls-20" points="69.3 38.14 69.3 36.77 76 40.64 76 42.01 69.3 38.14"/><polygon class="cls-21" points="81.45 38.86 81.45 37.49 76 40.64 76 42.01 81.45 38.86"/><polygon class="cls-3" points="69.3 36.77 74.75 33.63 81.45 37.49 76 40.64 69.3 36.77"/><polygon class="cls-7" points="66.72 45.12 68.02 44.38 68.62 46.04 68.31 46.04 66.72 45.12"/><polygon class="cls-20" points="67.03 45.12 67.03 44.38 68.62 45.29 68.62 46.04 67.03 45.12"/><polygon class="cls-21" points="69.91 45.29 69.91 44.55 68.62 45.29 68.62 46.04 69.91 45.29"/><polygon class="cls-3" points="67.03 44.38 68.33 43.63 69.91 44.55 68.62 45.29 67.03 44.38"/><polygon class="cls-7" points="64.18 30.79 65.47 30.05 66.07 31.71 65.76 31.71 64.18 30.79"/><polygon class="cls-20" points="64.48 30.79 64.48 30.05 66.07 30.97 66.07 31.71 64.48 30.79"/><polygon class="cls-21" points="67.36 30.97 67.36 30.22 66.07 30.97 66.07 31.71 67.36 30.97"/><polygon class="cls-3" points="64.48 30.05 65.78 29.3 67.36 30.22 66.07 30.97 64.48 30.05"/><polygon class="cls-7" points="61.73 32.18 63.02 31.43 63.63 33.09 63.32 33.09 61.73 32.18"/><polygon class="cls-20" points="62.04 32.18 62.04 31.43 63.63 32.35 63.63 33.09 62.04 32.18"/><polygon class="cls-21" points="64.92 32.35 64.92 31.6 63.63 32.35 63.63 33.09 64.92 32.35"/><polygon class="cls-3" points="62.04 31.43 63.33 30.69 64.92 31.6 63.63 32.35 62.04 31.43"/><polygon class="cls-7" points="96.98 110.95 94.76 110.95 93.14 111.89 94.76 112.83 96.98 112.83 98.6 111.89 96.98 110.95"/><polygon class="cls-22" points="96.98 112.45 97.64 112.07 97.64 109.69 96.98 110.08 96.98 112.45"/><polygon class="cls-23" points="96.98 112.45 96.32 112.07 96.32 109.69 96.98 110.08 96.98 112.45"/><polygon class="cls-24" points="96.98 111.71 98.6 110.77 98.41 105.29 96.98 106.11 96.98 111.71"/><polygon class="cls-25" points="96.98 111.71 95.36 110.77 95.55 105.29 96.98 106.11 96.98 111.71"/><polygon class="cls-26" points="96.98 106.11 95.55 105.29 96.98 104.47 98.41 105.29 96.98 106.11"/><polygon class="cls-7" points="31.23 106.8 29.01 106.8 27.39 107.73 29.01 108.67 31.23 108.67 32.85 107.73 31.23 106.8"/><polygon class="cls-22" points="31.23 108.3 31.89 107.92 31.89 105.54 31.23 105.92 31.23 108.3"/><polygon class="cls-23" points="31.23 108.3 30.57 107.92 30.57 105.54 31.23 105.92 31.23 108.3"/><polygon class="cls-24" points="31.23 107.55 32.85 106.61 32.66 101.14 31.23 101.96 31.23 107.55"/><polygon class="cls-25" points="31.23 107.55 29.61 106.61 29.8 101.14 31.23 101.96 31.23 107.55"/><polygon class="cls-26" points="31.23 101.96 29.8 101.14 31.23 100.31 32.66 101.14 31.23 101.96"/><polygon class="cls-7" points="37.73 109.78 35.51 109.78 33.89 110.71 35.51 111.65 37.73 111.65 39.35 110.71 37.73 109.78"/><polygon class="cls-22" points="37.73 111.28 38.4 110.9 38.4 108.52 37.73 108.9 37.73 111.28"/><polygon class="cls-23" points="37.73 111.28 37.07 110.9 37.07 108.52 37.73 108.9 37.73 111.28"/><polygon class="cls-24" points="37.73 110.53 39.35 109.59 39.16 104.12 37.73 104.94 37.73 110.53"/><polygon class="cls-25" points="37.73 110.53 36.11 109.59 36.3 104.12 37.73 104.94 37.73 110.53"/><polygon class="cls-26" points="37.73 104.94 36.3 104.12 37.73 103.29 39.16 104.12 37.73 104.94"/></g></g></svg>