<svg width="195" height="114" viewBox="0 0 195 114" fill="none" xmlns="http://www.w3.org/2000/svg">
<path d="M15.7845 76.8002H18.7538C20.6845 76.8002 21.4917 75.8575 21.4974 74.6324C21.4917 73.3341 20.5998 72.6341 19.8377 72.5889V72.5099C20.549 72.3123 21.1756 71.8437 21.17 70.7937C21.1756 69.5913 20.3684 68.626 18.6522 68.626H15.7845V76.8002ZM16.8006 75.897V73.0857H18.799C19.849 73.0857 20.5208 73.7913 20.5151 74.6212C20.5208 75.3325 20.024 75.897 18.7425 75.897H16.8006ZM16.8006 72.205V69.5292H18.6522C19.7192 69.5292 20.199 70.0937 20.199 70.805C20.199 71.6574 19.5046 72.2107 18.6183 72.205H16.8006Z" fill="#605CFF"/>
<path d="M26.691 74.2824C26.6853 75.4284 25.816 75.9478 25.1216 75.9421C24.3369 75.9478 23.7893 75.3776 23.7893 74.497V70.6695H22.8184V74.5647C22.8127 76.1228 23.6426 76.8792 24.8055 76.8792C25.7256 76.8792 26.3353 76.3825 26.6232 75.7615H26.691V76.8002H27.6506V70.6695H26.691V74.2824Z" fill="#605CFF"/>
<path d="M29.2087 76.8002H30.1797V70.6695H29.2087V76.8002ZM29.0168 69.0098C29.0111 69.3655 29.3216 69.6534 29.6942 69.6534C30.0668 69.6534 30.3773 69.3655 30.3829 69.0098C30.3773 68.6486 30.0668 68.3606 29.6942 68.3663C29.3216 68.3606 29.0111 68.6486 29.0168 69.0098Z" fill="#605CFF"/>
<path d="M32.6974 68.626H31.7265V76.8002H32.6974V68.626Z" fill="#605CFF"/>
<path d="M36.5587 76.9244C37.7273 76.93 38.1281 76.2018 38.3426 75.8631H38.4442V76.8002H39.3926V68.626H38.4104V71.6405H38.3426C38.1338 71.3131 37.7612 70.5905 36.57 70.5905C35.0289 70.5905 33.9507 71.8099 33.9507 73.7518C33.9507 75.6994 35.0289 76.93 36.5587 76.9244ZM34.9329 73.7292C34.9329 72.4478 35.5144 71.4599 36.6942 71.4599C37.8346 71.4599 38.4386 72.3687 38.4442 73.7292C38.4386 75.1066 37.8176 76.055 36.6942 76.055C35.5313 76.055 34.9329 75.0333 34.9329 73.7292Z" fill="#605CFF"/>
<path d="M41.0749 76.8002H42.0459V70.6695H41.0749V76.8002ZM40.883 69.0098C40.8773 69.3655 41.1878 69.6534 41.5604 69.6534C41.933 69.6534 42.2435 69.3655 42.2491 69.0098C42.2435 68.6486 41.933 68.3606 41.5604 68.3663C41.1878 68.3606 40.8773 68.6486 40.883 69.0098Z" fill="#605CFF"/>
<path d="M44.5636 73.1195C44.5636 72.0582 45.2185 71.4599 46.1104 71.4599C46.9798 71.4599 47.4991 72.0244 47.4991 72.9728V76.8002H48.4701V72.905C48.4757 71.347 47.6459 70.5905 46.404 70.5905C45.4725 70.5905 44.8967 71.0026 44.6088 71.6292H44.5298V70.6695H43.5927V76.8002H44.5636V73.1195Z" fill="#605CFF"/>
<path d="M52.512 79.2276C54.008 79.2276 55.1709 78.5502 55.1766 76.9696V70.6695H54.2282V71.6405H54.1491C53.929 71.3131 53.5451 70.5905 52.354 70.5905C50.8128 70.5905 49.7346 71.7647 49.7346 73.6502C49.7346 75.5808 50.8524 76.7042 52.3427 76.7099C53.5282 76.7042 53.9177 76.0099 54.1266 75.6712H54.2056V76.9131C54.2056 77.9236 53.562 78.3809 52.512 78.3809C51.6427 78.3809 51.0612 78.0704 50.9314 77.4438H49.9153C50.0225 78.5784 51.0274 79.2276 52.512 79.2276ZM50.7169 73.6841C50.7169 72.4478 51.2983 71.4599 52.4782 71.4599C53.6185 71.4599 54.2225 72.3687 54.2282 73.6841C54.2225 75.0333 53.6016 75.8405 52.4782 75.8405C51.3153 75.8405 50.7169 74.9542 50.7169 73.6841Z" fill="#605CFF"/>
<path d="M4.03119 84.7083H2.87957V83.2406H1.20859V84.7083H0.361816V85.9615H1.20859V89.1906C1.1973 90.3817 2.0215 90.9236 3.22957 90.918C3.64167 90.9236 3.94086 90.8898 4.12151 90.8616V89.5406C3.91828 89.5575 3.62473 89.5744 3.45538 89.5744C3.11667 89.5632 2.87392 89.4446 2.87957 88.9535V85.9615H4.03119V84.7083Z" fill="#605CFF"/>
<path d="M6.88765 87.2938C6.88765 86.4865 7.37878 86.018 8.08443 86.018C8.78443 86.018 9.19089 86.464 9.19089 87.2261V90.839H10.8619V86.9325C10.8619 85.493 10.0207 84.6293 8.73927 84.6293C7.80782 84.6293 7.19249 85.0639 6.91023 85.7809H6.84249V82.6647H5.21668V90.839H6.88765V87.2938Z" fill="#605CFF"/>
<path d="M14.9264 90.9632C16.4393 90.9575 17.4554 90.2236 17.6925 89.089H16.1006C15.9369 89.4559 15.5304 89.7043 14.9603 89.7099C14.0966 89.7043 13.549 89.1341 13.549 88.2083H17.7377V87.7341C17.7377 85.6454 16.4675 84.6293 14.8587 84.6293C13.0635 84.6293 11.8949 85.9107 11.9006 87.8019C11.8949 89.7438 13.0465 90.9575 14.9264 90.9632ZM13.549 87.1583C13.5828 86.4527 14.1248 85.8769 14.8925 85.8825C15.6377 85.8769 16.1514 86.4131 16.157 87.1583H13.549Z" fill="#605CFF"/>
<path d="M21.4861 90.839H23.1797V87.4519H26.5216V86.0519H23.1797V84.0647H26.8716V82.6647H21.4861V90.839Z" fill="#605CFF"/>
<path d="M31.5007 88.2309C31.5007 89.0664 30.9249 89.5011 30.3152 89.5067C29.6603 89.5011 29.2426 89.0494 29.2426 88.3212V84.7083H27.5716V88.6148C27.5716 90.0486 28.4127 90.918 29.6378 90.918C30.5636 90.918 31.224 90.4438 31.5007 89.7325H31.5684V90.839H33.1716V84.7083H31.5007V88.2309Z" fill="#605CFF"/>
<path d="M37.6991 84.7083H36.5475V83.2406H34.8765V84.7083H34.0297V85.9615H34.8765V89.1906C34.8652 90.3817 35.6894 90.9236 36.8975 90.918C37.3096 90.9236 37.6088 90.8898 37.7894 90.8616V89.5406C37.5862 89.5575 37.2926 89.5744 37.1233 89.5744C36.7846 89.5632 36.5418 89.4446 36.5475 88.9535V85.9615H37.6991V84.7083Z" fill="#605CFF"/>
<path d="M42.6781 88.2309C42.6781 89.0664 42.1023 89.5011 41.4926 89.5067C40.8378 89.5011 40.4201 89.0494 40.4201 88.3212V84.7083H38.7491V88.6148C38.7491 90.0486 39.5902 90.918 40.8152 90.918C41.741 90.918 42.4015 90.4438 42.6781 89.7325H42.7459V90.839H44.3491V84.7083H42.6781V88.2309Z" fill="#605CFF"/>
<path d="M45.6475 90.839H47.3185V87.3502C47.3128 86.5994 47.8717 86.0744 48.6282 86.0744C48.8596 86.0744 49.1814 86.114 49.3395 86.1648V84.6744C49.1927 84.6406 48.9782 84.618 48.8088 84.618C48.1201 84.618 47.5499 85.0188 47.3298 85.7696H47.262V84.7083H45.6475V90.839Z" fill="#605CFF"/>
<path d="M52.7379 90.9632C54.2508 90.9575 55.2669 90.2236 55.504 89.089H53.9121C53.7483 89.4559 53.3419 89.7043 52.7717 89.7099C51.908 89.7043 51.3604 89.1341 51.3604 88.2083H55.5492V87.7341C55.5492 85.6454 54.279 84.6293 52.6701 84.6293C50.8749 84.6293 49.7064 85.9107 49.712 87.8019C49.7064 89.7438 50.858 90.9575 52.7379 90.9632ZM51.3604 87.1583C51.3943 86.4527 51.9362 85.8769 52.704 85.8825C53.4491 85.8769 53.9629 86.4131 53.9685 87.1583H51.3604Z" fill="#605CFF"/>
<g clip-path="url(#clip0_518_364)">
<path d="M129.936 61.8649C126.621 62.3982 124.906 64.0262 124.316 67.9559C124.288 68.1805 123.979 68.1805 123.951 67.9559C123.361 64.0262 121.591 62.3982 118.331 61.8649H118.303C118.078 61.8087 118.078 61.4999 118.303 61.4719H118.331C121.534 60.9386 123.277 59.3667 123.895 55.6054C123.923 55.5492 123.951 55.465 123.951 55.3808C123.979 55.1563 124.288 55.1563 124.316 55.3808C124.316 55.465 124.344 55.5492 124.373 55.6054C124.991 59.3667 126.677 60.9386 129.936 61.4719C130.161 61.4999 130.161 61.8087 129.936 61.8649Z" fill="white"/>
<path d="M113.469 81.5977V81.9906C113.329 81.8503 113.188 81.7099 113.048 81.5977H113.469Z" fill="white"/>
<path d="M183.945 65.9068H180.854C178.409 60.6578 173.07 57.0368 166.888 57.0368H166.579C166.129 57.0368 165.68 57.0649 165.258 57.121V62.37H162.448V49.9072L146.15 40.6443V55.6053H143.34V31.3533H121.45V43.2828H98.1549V52.6861L108.215 61.949V66.0191C107.765 65.9629 107.287 65.9348 106.782 65.9348C106.444 65.9068 106.107 65.9068 105.77 65.9068H105.405V63.184L98.1549 56.5035L96.7499 55.2123L95.3449 53.8931L88.5446 47.6336L71.6845 63.184V94.8463H85.7065C85.8189 95.3235 85.9875 95.8007 86.2123 96.2498C86.3809 96.727 86.6057 97.2042 86.8586 97.6533H68.8745V61.949L88.5446 43.8161L95.3449 50.0756V40.4759H118.64V28.5464H146.15V37.3882L165.258 48.2511V54.286C165.708 54.258 166.129 54.2299 166.579 54.2299H166.888C174.644 54.2299 181.275 59.0859 183.945 65.9068Z" fill="black"/>
<path d="M88.5164 65.907C90.4563 65.907 92.029 64.3361 92.029 62.3983C92.029 60.4605 90.4563 58.8896 88.5164 58.8896C86.5765 58.8896 85.0039 60.4605 85.0039 62.3983C85.0039 64.3361 86.5765 65.907 88.5164 65.907Z" fill="black"/>
<path d="M113.048 81.5977C113.188 81.7099 113.329 81.8503 113.469 81.9906V81.5977H113.048Z" fill="black"/>
<path d="M129.936 61.865C126.621 62.3983 124.906 64.0263 124.316 67.956C124.288 68.1806 123.979 68.1806 123.951 67.956C123.361 64.0263 121.591 62.3983 118.331 61.865V61.472C121.534 60.9387 123.277 59.3668 123.895 55.6055H124.373C124.991 59.3668 126.677 60.9387 129.936 61.472C130.161 61.5 130.161 61.8088 129.936 61.865Z" fill="white"/>
<path d="M113.469 81.5977V81.9906C113.329 81.8503 113.188 81.7099 113.048 81.5977H113.469Z" fill="white"/>
<path d="M128.222 72.9243H120.045V101.134H128.222V72.9243Z" fill="black"/>
<path d="M149.691 72.9245V79.3524H145.729V101.134H137.551V79.3524H133.589V72.9245H137.551V63.5493H145.729V72.9245H149.691Z" fill="black"/>
<path d="M183.776 72.9243L182.371 76.3488L173.492 98.0464L171.89 101.948L171.216 103.604L170.541 105.204L170.288 105.878L168.406 110.481L167.9 111.688L166.972 113.962H157.924L158.851 111.688L159.357 110.481L161.661 104.811L162.195 103.492L162.729 102.201L164.05 98.9447L159.554 88.6713L154.833 77.8926L154.215 76.4891L153.625 75.0857L152.669 72.9243H162.139L162.448 73.7383L163.488 76.4891L164.022 77.8926L167.029 85.8362C167.366 86.6503 167.619 87.5765 167.844 88.6151C168.04 89.6537 168.209 90.8326 168.321 92.0957C168.518 91.0572 168.771 90.0186 169.052 88.952C169.333 87.8572 169.698 86.7345 170.12 85.5275L170.288 85.0222L173.492 75.5909L174.391 72.9243H183.776Z" fill="black"/>
<path d="M38.0206 8.64551V23.1293C38.0206 24.0837 38.0206 24.9538 38.0768 25.6836C38.1049 26.4415 38.1892 27.1152 38.2735 27.7608C37.0371 25.9082 35.7164 24.5889 34.3394 23.7468C32.9344 22.9048 31.3046 22.4557 29.45 22.4557C25.8532 22.4557 23.0432 23.6626 20.9919 26.0766C18.9686 28.4625 17.957 31.8028 17.957 36.0974C17.957 40.2236 18.9967 43.5077 21.0481 46.0059C23.1275 48.5041 25.8251 49.7672 29.1971 49.7672C31.2203 49.7672 32.9344 49.4023 34.3394 48.6444C35.7445 47.8865 36.9528 46.7076 37.9644 45.1077L37.852 48.7567H44.9894V8.64551H38.0206ZM36.5875 41.3744C35.4635 42.6656 33.8898 43.3112 31.8385 43.3112C29.8434 43.3112 28.2698 42.6656 27.1458 41.3464C26.0218 40.0552 25.4317 38.2587 25.4317 35.9851C25.4317 33.6834 26.0218 31.887 27.1739 30.5677C28.326 29.2765 29.8996 28.6309 31.8947 28.6309C33.8336 28.6309 35.4072 29.3046 36.5313 30.6239C37.6834 31.9431 38.2735 33.7396 38.2735 36.0413C38.2735 38.3149 37.7115 40.1113 36.5875 41.3744Z" fill="black"/>
<path d="M72.359 26.7782C70.0267 24.3642 66.8233 23.1572 62.7768 23.1572C58.8709 23.1572 55.6394 24.4484 53.1385 27.0027C50.6095 29.5851 49.373 32.8692 49.373 36.8551C49.373 40.9813 50.5814 44.2654 52.9699 46.7355C55.3584 49.1776 58.618 50.4126 62.7487 50.4126C65.4464 50.4126 67.7787 49.8512 69.7457 48.7846C71.7127 47.718 73.3987 46.0619 74.7756 43.8163L68.8184 40.841C68.1721 41.9076 67.3572 42.6935 66.3737 43.1988C65.3902 43.7321 64.238 43.9847 62.8892 43.9847C61.1189 43.9847 59.7139 43.5356 58.6742 42.6374C57.6345 41.7111 56.9601 40.3638 56.6791 38.5112H75.7591C75.8153 38.0059 75.8434 37.613 75.8715 37.3603C75.8715 37.0797 75.8996 36.827 75.8996 36.6025C75.8996 32.4482 74.7194 29.1641 72.359 26.7782ZM56.9039 34.0762C57.1849 32.4763 57.8031 31.2693 58.8147 30.4272C59.7982 29.6132 61.1189 29.2202 62.7768 29.2202C64.4347 29.2202 65.7555 29.6132 66.7109 30.4272C67.6663 31.2693 68.2564 32.4763 68.4531 34.0762H56.9039Z" fill="black"/>
<path d="M82.0252 13.3049L95.7381 8.84186V0L69.3521 10.7225V18.3855L95.7381 29.2203V20.4907L82.2781 16.0276C81.4913 15.7189 80.6202 15.4662 79.6367 15.2698C78.6813 15.0452 77.5011 14.8206 76.1242 14.6242C77.0515 14.54 77.9788 14.3715 78.9342 14.147C79.8615 13.9505 80.9012 13.6698 82.0252 13.3049Z" fill="black"/>
<path d="M101.246 0V8.84186L114.959 13.3049C116.083 13.6698 117.123 13.9505 118.078 14.147C119.005 14.3715 119.961 14.54 120.86 14.6242C119.483 14.8206 118.303 15.0452 117.348 15.2698C116.364 15.4662 115.493 15.7189 114.706 16.0276L101.246 20.4907V29.2203L127.632 18.3855V10.7225L101.246 0Z" fill="#605CFF"/>
<path d="M129.936 61.8649C126.621 62.3982 124.906 64.0262 124.316 67.9559C124.288 68.1805 123.979 68.1805 123.951 67.9559C123.361 64.0262 121.591 62.3982 118.331 61.8649H118.303C118.078 61.8087 118.078 61.4999 118.303 61.4719H118.331C121.534 60.9386 123.277 59.3667 123.895 55.6054C123.923 55.5492 123.951 55.465 123.951 55.3808C123.979 55.1563 124.288 55.1563 124.316 55.3808C124.316 55.465 124.344 55.5492 124.373 55.6054C124.991 59.3667 126.677 60.9386 129.936 61.4719C130.161 61.4999 130.161 61.8087 129.936 61.8649Z" fill="#605CFF"/>
<path d="M113.048 81.5977C113.188 81.7099 113.329 81.8503 113.469 81.9906V81.5977H113.048Z" fill="black"/>
<path d="M113.498 95.9971L113.554 100.292C112.43 100.965 111.25 101.471 110.041 101.779C108.805 102.088 107.456 102.257 105.995 102.257C102.229 102.257 99.026 101.218 96.4407 99.169C95.9911 98.8322 95.5415 98.4392 95.12 98.0181C95.0076 97.9059 94.8952 97.7936 94.7828 97.6532C94.3613 97.2041 93.9679 96.727 93.6588 96.2498C93.3216 95.8007 93.0125 95.3235 92.7877 94.8463C91.5232 92.6007 90.9331 89.9622 90.9331 86.9869C90.9331 82.5519 92.3381 78.959 95.1481 76.1521C95.2043 76.0959 95.2886 76.0398 95.3448 75.9837C95.7944 75.5345 96.244 75.1416 96.7498 74.8047C97.1995 74.4679 97.6491 74.1591 98.1549 73.9065C100.234 72.7276 102.651 72.082 105.405 71.9978C105.63 71.9697 105.854 71.9697 106.107 71.9697C106.332 71.9697 106.557 71.9697 106.782 71.9978C107.287 71.9978 107.765 72.0259 108.215 72.082C108.889 72.1662 109.535 72.2785 110.154 72.4188C110.716 72.5592 111.278 72.7276 111.812 72.9241C112.402 73.1767 112.992 73.4293 113.554 73.7662L113.498 77.9204L113.469 81.5975H113.048C112.289 80.8677 111.446 80.3344 110.491 79.9414C109.76 79.6327 109.002 79.4362 108.215 79.352C107.793 79.2678 107.344 79.2397 106.894 79.2397H106.782C106.304 79.2397 105.826 79.2678 105.405 79.352C103.775 79.6046 102.454 80.2502 101.358 81.3449C101.274 81.4291 101.218 81.5133 101.133 81.5975C100.74 82.0186 100.431 82.4958 100.15 83.001C99.9252 83.422 99.7566 83.8992 99.6161 84.4045C99.4194 85.1624 99.307 86.0044 99.307 86.9307C99.307 89.3166 100.009 91.1973 101.414 92.6008C102.454 93.6674 103.803 94.313 105.405 94.5656C105.854 94.6498 106.304 94.6779 106.782 94.706H107.119C107.512 94.706 107.878 94.6779 108.215 94.6217C109.114 94.5656 109.929 94.3411 110.659 94.0042C111.671 93.527 112.626 92.7692 113.469 91.7587L113.498 95.9971Z" fill="black"/>
</g>
<defs>
<clipPath id="clip0_518_364">
<rect width="165.988" height="113.962" fill="white" transform="translate(17.957)"/>
</clipPath>
</defs>
</svg>
