<svg width="110" height="35" viewBox="0 0 110 35" fill="none" xmlns="http://www.w3.org/2000/svg">
<g clip-path="url(#clip0_516_251)">
<path d="M14.9632 26.984H11.0124L11.0747 24.9644C10.5147 25.8499 9.84587 26.5024 9.06816 26.9218C8.29044 27.3413 7.34163 27.5432 6.22172 27.5432C4.3552 27.5432 2.86199 26.8441 1.71097 25.4615C0.575509 24.0789 0 22.2614 0 19.9777C0 17.6009 0.559955 15.7523 1.67986 14.4163C2.79977 13.0958 4.37076 12.4278 6.36171 12.4278C7.38829 12.4278 8.29044 12.6608 9.0526 13.1269C9.83032 13.5929 10.5458 14.3386 11.2302 15.3484C11.1991 15.0221 11.1524 14.6338 11.1369 14.2143C11.1058 13.8104 11.0902 13.3288 11.0902 12.8006V4.78467H14.9632V26.984ZM11.2458 19.9467C11.2458 18.6884 10.9347 17.6941 10.2969 16.9484C9.65922 16.2183 8.80373 15.8455 7.73049 15.8455C6.62613 15.8455 5.75509 16.2028 5.11736 16.9329C4.46408 17.6475 4.13744 18.6417 4.13744 19.9156C4.13744 21.1895 4.44853 22.1837 5.0707 22.8983C5.69287 23.6129 6.56391 23.9702 7.66827 23.9702C8.78818 23.9702 9.67477 23.6129 10.2969 22.9138C10.9347 22.1992 11.2458 21.205 11.2458 19.9467Z" fill="black"/>
<path d="M31.9951 21.3291H21.4337C21.5892 22.3389 21.9625 23.1001 22.538 23.5972C23.1136 24.0943 23.8913 24.3429 24.8712 24.3429C25.6178 24.3429 26.2555 24.203 26.7999 23.9079C27.3443 23.6283 27.7954 23.1933 28.1532 22.603L31.4507 24.2497C30.6885 25.4769 29.7552 26.3935 28.6664 26.9993C27.5776 27.5896 26.2866 27.9003 24.7779 27.9003C22.5069 27.9003 20.7026 27.2168 19.365 25.8653C18.0273 24.5137 17.374 22.6806 17.374 20.397C17.374 18.1911 18.074 16.3735 19.4583 14.9598C20.8426 13.5306 22.6314 12.8315 24.7934 12.8315C27.0332 12.8315 28.8064 13.4995 30.0974 14.8355C31.404 16.1715 32.0417 17.9891 32.0417 20.2883C32.0417 20.4125 32.0417 20.5524 32.0262 20.6922C32.0417 20.8165 32.0262 21.0339 31.9951 21.3291ZM27.9509 18.8591C27.8421 17.9736 27.5154 17.3056 26.9866 16.8395C26.4577 16.3735 25.7267 16.156 24.809 16.156C23.8913 16.156 23.1602 16.389 22.6003 16.8395C22.0559 17.29 21.6981 17.958 21.5426 18.8591H27.9509Z" fill="black"/>
<path d="M28.4487 5.93431L43.0542 0V4.89348L35.4637 7.36351C34.8415 7.56547 34.2816 7.72082 33.7527 7.8451C33.2239 7.96937 32.7106 8.04705 32.1973 8.09365C32.9595 8.21793 33.6128 8.32668 34.1416 8.45095C34.6704 8.57523 35.1682 8.71505 35.6037 8.87039L43.0542 11.356V16.1718L28.4487 10.1753V5.93431Z" fill="black"/>
<path d="M61.875 10.1753L47.2695 16.1718V11.356L54.72 8.87039C55.1556 8.71505 55.6377 8.57523 56.1821 8.45095C56.711 8.32668 57.3643 8.21793 58.1264 8.09365C57.6131 8.04705 57.0998 7.95384 56.571 7.8451C56.0422 7.72082 55.4666 7.56547 54.86 7.36351L47.2695 4.89348V0L61.875 5.93431V10.1753Z" fill="#605CFF"/>
<path d="M79.249 12.3032H74.7227V27.9157H79.249V12.3032Z" fill="black"/>
<path d="M84.413 27.9159V15.8609H82.2354V12.3034H84.413V7.11475H88.9548V12.3034H91.1324V15.8453H88.9548V27.9004H84.413V27.9159Z" fill="black"/>
<path d="M99.0808 26.7039L92.7969 12.3031H98.0387L100.745 19.4492C100.932 19.8997 101.072 20.4123 101.196 20.9871C101.321 21.5619 101.398 22.2144 101.461 22.9134C101.57 22.3386 101.694 21.7639 101.865 21.158C102.021 20.5677 102.223 19.9307 102.456 19.2627L104.836 12.2876H110.031L100.73 34.984H95.7055L99.0808 26.7039Z" fill="black"/>
<path d="M80.198 6.18264C78.3626 6.47781 77.4138 7.37883 77.1027 9.56924C77.0871 9.69352 76.916 9.69352 76.9005 9.56924C76.5738 7.39436 75.6095 6.49334 73.7896 6.18264C73.6652 6.16711 73.6652 5.99623 73.7896 5.96516C75.6095 5.66999 76.5738 4.76897 76.9005 2.57856C76.916 2.45428 77.0871 2.45428 77.1027 2.57856C77.4293 4.75344 78.3781 5.65446 80.198 5.96516C80.3224 5.98069 80.3224 6.15157 80.198 6.18264Z" fill="#605CFF"/>
<path d="M71.1297 27.45C70.5075 27.8229 69.8698 28.1025 69.1854 28.2734C68.501 28.4443 67.77 28.5375 66.9611 28.5375C64.5035 28.5375 62.4815 27.7607 60.9416 26.1917C59.3862 24.6227 58.624 22.5876 58.624 20.0865C58.624 17.632 59.4017 15.6436 60.9572 14.0901C62.5126 12.5521 64.5347 11.7754 67.0233 11.7754C67.8477 11.7754 68.5943 11.8531 69.2476 12.0084C69.9009 12.1638 70.5386 12.4123 71.1297 12.7541L71.0986 17.3058C70.6164 16.8242 70.072 16.4358 69.4498 16.1718C68.8276 15.9077 68.1588 15.7678 67.4589 15.7678C66.1834 15.7678 65.1724 16.1562 64.3947 16.933C63.6325 17.7097 63.2437 18.7505 63.2437 20.0244C63.2437 21.3449 63.6325 22.3857 64.4102 23.1624C65.1879 23.9392 66.2456 24.3275 67.5677 24.3275C68.2988 24.3275 68.9521 24.1877 69.512 23.9236C70.0875 23.6595 70.6008 23.2401 71.083 22.6809L71.1297 27.45Z" fill="black"/>
</g>
<defs>
<clipPath id="clip0_516_251">
<rect width="110" height="35" fill="white"/>
</clipPath>
</defs>
</svg>
