<svg width="37" height="37" viewBox="0 0 37 37" fill="none" xmlns="http://www.w3.org/2000/svg">
<path d="M18.5 36C28.165 36 36 28.165 36 18.5C36 8.83502 28.165 1 18.5 1C8.83502 1 1 8.83502 1 18.5C1 28.165 8.83502 36 18.5 36Z" fill="white" stroke="#EEEEEE"/>
<path d="M18.3282 6.30811L6.36719 10.5846L8.19153 26.441L18.3282 32.07L28.4648 26.441L30.2892 10.5846L18.3282 6.30811Z" fill="#DD0031"/>
<path d="M18.3281 6.30811V9.16767V9.15479V22.2032V32.07L28.4648 26.441L30.2891 10.5846L18.3281 6.30811Z" fill="#C3002F"/>
<path d="M18.3285 9.15479L10.8513 25.9644H13.6392L15.1424 22.2032H21.489L22.9922 25.9644H25.7801L18.3285 9.15479ZM20.5126 19.8846H16.1445L18.3285 14.6163L20.5126 19.8846Z" fill="white"/>
</svg>
