<svg width="35" height="35" viewBox="0 0 35 35" fill="none" xmlns="http://www.w3.org/2000/svg">
<g clip-path="url(#clip0_535_14)">
<path d="M17.5 34.5C26.8888 34.5 34.5 26.8888 34.5 17.5C34.5 8.11116 26.8888 0.5 17.5 0.5C8.11116 0.5 0.5 8.11116 0.5 17.5C0.5 26.8888 8.11116 34.5 17.5 34.5Z" fill="white" stroke="#EEEEEE"/>
<path d="M12.1113 16.4903C12.1113 16.7926 12.144 17.0377 12.2012 17.2175C12.2666 17.3972 12.3483 17.5933 12.4627 17.8058C12.5035 17.8711 12.5199 17.9365 12.5199 17.9937C12.5199 18.0754 12.4708 18.1571 12.3646 18.2388L11.8499 18.582C11.7763 18.631 11.7028 18.6555 11.6374 18.6555C11.5557 18.6555 11.474 18.6147 11.3923 18.5411C11.2779 18.4186 11.1798 18.2878 11.0981 18.1571C11.0164 18.0182 10.9347 17.863 10.8448 17.675C10.2075 18.4268 9.40676 18.8026 8.44261 18.8026C7.75626 18.8026 7.20886 18.6065 6.80846 18.2143C6.40811 17.8221 6.20386 17.2992 6.20386 16.6455C6.20386 15.951 6.44896 15.3872 6.94736 14.9623C7.44581 14.5375 8.10761 14.325 8.94921 14.325C9.22701 14.325 9.51301 14.3495 9.81531 14.3904C10.1176 14.4312 10.4281 14.4966 10.755 14.5701V13.9737C10.755 13.3527 10.6242 12.9197 10.3709 12.6664C10.1095 12.4131 9.66826 12.2905 9.03911 12.2905C8.75311 12.2905 8.45896 12.3232 8.15666 12.3967C7.85431 12.4703 7.56016 12.5601 7.27421 12.6745C7.14346 12.7317 7.04541 12.7644 6.98821 12.7807C6.93101 12.7971 6.89016 12.8053 6.85751 12.8053C6.74311 12.8053 6.68591 12.7236 6.68591 12.552V12.1516C6.68591 12.0209 6.70226 11.9228 6.74311 11.8656C6.78396 11.8084 6.85751 11.7512 6.97191 11.694C7.25786 11.547 7.60106 11.4244 8.00141 11.3264C8.40176 11.2201 8.82666 11.1711 9.27606 11.1711C10.2484 11.1711 10.9592 11.3917 11.4168 11.8329C11.8662 12.2742 12.095 12.9442 12.095 13.8429V16.4903H12.1113ZM8.79396 17.7322C9.06361 17.7322 9.34141 17.6832 9.63556 17.5852C9.92971 17.4871 10.1912 17.3074 10.4118 17.0622C10.5425 16.907 10.6406 16.7354 10.6896 16.5393C10.7386 16.3432 10.7713 16.1063 10.7713 15.8284V15.4853C10.5344 15.4281 10.2811 15.3791 10.0196 15.3464C9.75811 15.3137 9.50481 15.2973 9.25151 15.2973C8.70411 15.2973 8.30371 15.4036 8.03411 15.6242C7.76446 15.8448 7.63371 16.1553 7.63371 16.5638C7.63371 16.9478 7.73176 17.2338 7.93606 17.4299C8.13216 17.6342 8.41811 17.7322 8.79396 17.7322ZM15.3551 18.6147C15.208 18.6147 15.11 18.5902 15.0446 18.533C14.9793 18.4839 14.9221 18.3696 14.873 18.2143L12.9529 11.8983C12.9039 11.7349 12.8794 11.6287 12.8794 11.5715C12.8794 11.4407 12.9447 11.3672 13.0755 11.3672H13.8762C14.0314 11.3672 14.1377 11.3917 14.1949 11.4489C14.2602 11.4979 14.3093 11.6123 14.3583 11.7676L15.731 17.1766L17.0056 11.7676C17.0465 11.6042 17.0955 11.4979 17.1609 11.4489C17.2262 11.3999 17.3406 11.3672 17.4877 11.3672H18.1413C18.2966 11.3672 18.4028 11.3917 18.4682 11.4489C18.5335 11.4979 18.5907 11.6123 18.6234 11.7676L19.9144 17.242L21.3279 11.7676C21.377 11.6042 21.4342 11.4979 21.4914 11.4489C21.5567 11.3999 21.6629 11.3672 21.81 11.3672H22.5699C22.7006 11.3672 22.7742 11.4326 22.7742 11.5715C22.7742 11.6123 22.766 11.6532 22.7578 11.7022C22.7497 11.7512 22.7333 11.8166 22.7006 11.9065L20.7315 18.2225C20.6825 18.3859 20.6253 18.4921 20.5599 18.5411C20.4945 18.5902 20.3883 18.6229 20.2494 18.6229H19.5467C19.3915 18.6229 19.2853 18.5983 19.2199 18.5411C19.1545 18.4839 19.0973 18.3777 19.0646 18.2143L17.7982 12.9442L16.5399 18.2061C16.499 18.3696 16.45 18.4758 16.3846 18.533C16.3193 18.5902 16.2049 18.6147 16.0578 18.6147H15.3551ZM25.8545 18.8353C25.4297 18.8353 25.0048 18.7863 24.5963 18.6882C24.1877 18.5902 23.8691 18.4839 23.6566 18.3614C23.5259 18.2878 23.436 18.2061 23.4033 18.1326C23.3706 18.0591 23.3543 17.9774 23.3543 17.9038V17.4871C23.3543 17.3155 23.4197 17.2338 23.5422 17.2338C23.5912 17.2338 23.6403 17.242 23.6893 17.2583C23.7383 17.2747 23.8119 17.3074 23.8936 17.34C24.1714 17.4626 24.4737 17.5607 24.7924 17.626C25.1192 17.6914 25.4378 17.7241 25.7647 17.7241C26.2794 17.7241 26.6798 17.6342 26.9576 17.4544C27.2354 17.2747 27.3825 17.0132 27.3825 16.6782C27.3825 16.4494 27.3089 16.2615 27.1619 16.1063C27.0148 15.951 26.737 15.8121 26.3366 15.6814L25.1519 15.3137C24.5554 15.1258 24.1142 14.848 23.8445 14.4803C23.5749 14.1208 23.436 13.7204 23.436 13.2955C23.436 12.9523 23.5095 12.65 23.6566 12.3886C23.8037 12.1271 23.9998 11.8983 24.2449 11.7185C24.49 11.5306 24.7678 11.3917 25.0947 11.2937C25.4215 11.1956 25.7647 11.1548 26.1242 11.1548C26.3039 11.1548 26.4919 11.1629 26.6716 11.1874C26.8596 11.212 27.0311 11.2446 27.2027 11.2773C27.3661 11.3182 27.5214 11.359 27.6685 11.4081C27.8155 11.4571 27.9299 11.5061 28.0116 11.5551C28.126 11.6205 28.2077 11.6859 28.2568 11.7594C28.3058 11.8248 28.3303 11.9146 28.3303 12.029V12.4131C28.3303 12.5847 28.2649 12.6745 28.1424 12.6745C28.077 12.6745 27.9708 12.6418 27.8319 12.5765C27.3661 12.364 26.8432 12.2578 26.2631 12.2578C25.7974 12.2578 25.4297 12.3314 25.1764 12.4866C24.9231 12.6418 24.7924 12.8788 24.7924 13.2138C24.7924 13.4426 24.8741 13.6387 25.0375 13.7939C25.2009 13.9492 25.5032 14.1044 25.9363 14.2433L27.0965 14.611C27.6848 14.7989 28.1097 15.0604 28.363 15.3954C28.6163 15.7304 28.7388 16.1144 28.7388 16.5393C28.7388 16.8906 28.6653 17.2093 28.5264 17.4871C28.3793 17.7649 28.1832 18.01 27.9299 18.2061C27.6766 18.4104 27.3743 18.5575 27.023 18.6637C26.6553 18.7781 26.2713 18.8353 25.8545 18.8353Z" fill="#252F3E"/>
<path fill-rule="evenodd" clip-rule="evenodd" d="M27.3989 22.8063C24.7107 24.7918 20.8051 25.8458 17.4469 25.8458C12.7406 25.8458 8.49998 24.1055 5.29708 21.213C5.04378 20.9842 5.27253 20.6737 5.57488 20.8535C9.03923 22.8635 13.3125 24.0809 17.7329 24.0809C20.7152 24.0809 23.9917 23.46 27.0067 22.1853C27.4561 21.981 27.8401 22.4795 27.3989 22.8063Z" fill="#FF9900"/>
<path fill-rule="evenodd" clip-rule="evenodd" d="M28.5183 21.5316C28.1751 21.0903 26.2468 21.3191 25.3726 21.4253C25.1111 21.458 25.0703 21.2292 25.3072 21.0577C26.8433 19.9791 29.368 20.2896 29.6621 20.6491C29.9563 21.0168 29.5804 23.5416 28.1424 24.7508C27.9218 24.9388 27.7094 24.8407 27.8074 24.5956C28.1342 23.7867 28.8614 21.9646 28.5183 21.5316Z" fill="#FF9900"/>
</g>
<defs>
<clipPath id="clip0_535_14">
<rect width="35" height="35" fill="white"/>
</clipPath>
</defs>
</svg>
