<svg width="36" height="36" viewBox="0 0 36 36" fill="none" xmlns="http://www.w3.org/2000/svg">
<path d="M18 35C27.3888 35 35 27.3888 35 18C35 8.61116 27.3888 1 18 1C8.61116 1 1 8.61116 1 18C1 27.3888 8.61116 35 18 35Z" fill="white" stroke="#EEEEEE"/>
<g clip-path="url(#clip0_535_49)">
<path d="M28.9022 13.1047C28.9021 12.7051 28.8139 12.352 28.6357 12.0491C28.4606 11.751 28.1984 11.5013 27.8467 11.3038C24.9437 9.68075 22.0378 8.06267 19.1356 6.43798C18.3532 6.00002 17.5946 6.01607 16.8181 6.46032C15.6625 7.12098 9.87731 10.3347 8.15339 11.3029C7.44343 11.7015 7.09796 12.3113 7.09779 13.1039C7.09668 16.368 7.09779 19.632 7.09668 22.896C7.09668 23.2868 7.18123 23.6331 7.35162 23.9315C7.52679 24.2385 7.79265 24.4951 8.15245 24.6971C9.87646 25.6652 15.6625 28.8787 16.8177 29.5396C17.5946 29.9841 18.3532 30 19.1359 29.562C22.0381 27.9372 24.9442 26.3191 27.8477 24.6961C28.2075 24.4942 28.4733 24.2374 28.6485 23.9307C28.8186 23.6322 28.9033 23.286 28.9033 22.8951C28.9033 22.8951 28.9033 16.3688 28.9022 13.1047Z" fill="#A179DC"/>
<path d="M18.0333 17.9683L7.35156 23.9316C7.52673 24.2386 7.79259 24.4952 8.15239 24.6972C9.8764 25.6653 15.6624 28.8788 16.8177 29.5397C17.5946 29.9842 18.3532 30.0001 19.1358 29.5621C22.0381 27.9373 24.9441 26.3192 27.8476 24.6962C28.2074 24.4943 28.4733 24.2375 28.6484 23.9308L18.0333 17.9683Z" fill="#280068"/>
<path d="M28.9023 13.1044C28.9021 12.7049 28.814 12.3518 28.6358 12.0488L18.0334 17.968L28.6486 23.9304C28.8187 23.632 28.9032 23.2857 28.9034 22.8949C28.9034 22.8949 28.9034 16.3685 28.9023 13.1044Z" fill="#390091"/>
<path d="M24.3225 15.7388V16.8534H25.4721V15.7388H26.0469V16.8534H27.1966V17.4108H26.0469V18.5254H27.1966V19.0827H26.0469V20.1974H25.4721V19.0827H24.3225V20.1974H23.7477V19.0827H22.5981V18.5254H23.7477V17.4108H22.5981V16.8534H23.7477V15.7388H24.3225ZM25.4721 17.4107H24.3225V18.5254H25.4721V17.4107Z" fill="white"/>
<path d="M18.0568 10.1407C21.0554 10.1407 23.6733 11.7197 25.0755 14.0666L25.0619 14.0441L21.5338 16.0136C20.8388 14.8726 19.5646 14.1025 18.1028 14.0866L18.0567 14.0863C15.8277 14.0863 14.0206 15.8385 14.0206 17.9998C14.0199 18.681 14.2034 19.3505 14.5529 19.9414C15.2486 21.119 16.5565 21.9133 18.0568 21.9133C19.5664 21.9133 20.8817 21.1089 21.5738 19.9187L21.557 19.9473L25.0797 21.9259C23.6928 24.2531 21.1107 25.8271 18.1471 25.8585L18.0568 25.859C15.0488 25.859 12.4235 24.2703 11.0247 21.9109C10.3419 20.7591 9.95117 19.4238 9.95117 17.9998C9.95117 13.6594 13.5801 10.1406 18.0567 10.1406L18.0568 10.1407Z" fill="white"/>
</g>
<defs>
<clipPath id="clip0_535_49">
<rect width="22" height="24" fill="white" transform="translate(7 6)"/>
</clipPath>
</defs>
</svg>
