<svg width="35" height="35" viewBox="0 0 35 35" fill="none" xmlns="http://www.w3.org/2000/svg">
<g clip-path="url(#clip0_232_290)">
<path d="M17.5 34.5C26.8888 34.5 34.5 26.8888 34.5 17.5C34.5 8.11116 26.8888 0.5 17.5 0.5C8.11116 0.5 0.5 8.11116 0.5 17.5C0.5 26.8888 8.11116 34.5 17.5 34.5Z" fill="white" stroke="#EEEEEE"/>
<mask id="mask0_232_290" style="mask-type:luminance" maskUnits="userSpaceOnUse" x="6" y="6" width="23" height="23">
<path d="M28.75 6.25H6.25V28.75H28.75V6.25Z" fill="white"/>
</mask>
<g mask="url(#mask0_232_290)">
<path d="M14.248 28.9258C16.3398 28.9258 18.0273 27.2383 18.0273 25.1465V21.3672H14.248C12.1562 21.3672 10.4688 23.0547 10.4688 25.1465C10.4688 27.2383 12.1562 28.9258 14.248 28.9258Z" fill="#0ACF83"/>
<path d="M10.4688 17.5879C10.4688 15.4961 12.1562 13.8086 14.248 13.8086H18.0273V21.3672H14.248C12.1562 21.3672 10.4688 19.6797 10.4688 17.5879Z" fill="#A259FF"/>
<path d="M10.4688 10.0293C10.4688 7.9375 12.1562 6.25 14.248 6.25H18.0273V13.8086H14.248C12.1562 13.8086 10.4688 12.1211 10.4688 10.0293Z" fill="#F24E1E"/>
<path d="M18.0273 6.25H21.8066C23.8984 6.25 25.5859 7.9375 25.5859 10.0293C25.5859 12.1211 23.8984 13.8086 21.8066 13.8086H18.0273V6.25Z" fill="#FF7262"/>
<path d="M25.5859 17.5879C25.5859 19.6797 23.8984 21.3672 21.8066 21.3672C19.7148 21.3672 18.0273 19.6797 18.0273 17.5879C18.0273 15.4961 19.7148 13.8086 21.8066 13.8086C23.8984 13.8086 25.5859 15.4961 25.5859 17.5879Z" fill="#1ABCFE"/>
</g>
</g>
<defs>
<clipPath id="clip0_232_290">
<rect width="35" height="35" fill="white"/>
</clipPath>
</defs>
</svg>
