<svg width="35" height="35" viewBox="0 0 35 35" fill="none" xmlns="http://www.w3.org/2000/svg">
<g clip-path="url(#clip0_535_60)">
<path d="M17.5 34.5C26.8888 34.5 34.5 26.8888 34.5 17.5C34.5 8.11116 26.8888 0.5 17.5 0.5C8.11116 0.5 0.5 8.11116 0.5 17.5C0.5 26.8888 8.11116 34.5 17.5 34.5Z" fill="white" stroke="#EEEEEE"/>
<path d="M9.57115 21.2599L11.8816 6.4535C11.9617 5.94945 12.6388 5.8283 12.8768 6.28045L15.3604 10.9275L9.57115 21.2599ZM26 24.8576L23.7955 11.2195C23.7284 10.7955 23.1984 10.6224 22.8934 10.9275L9 24.8576L16.6887 29.1736C16.9266 29.3045 17.1938 29.3731 17.4654 29.3731C17.737 29.3731 18.0041 29.3045 18.2421 29.1736L26 24.8576ZM19.7586 12.9589L17.9781 9.57315C17.7791 9.18805 17.2339 9.18805 17.0348 9.57315L9.2142 23.5163L19.7586 12.9589Z" fill="#F58220"/>
</g>
<defs>
<clipPath id="clip0_535_60">
<rect width="35" height="35" fill="white"/>
</clipPath>
</defs>
</svg>
