<svg width="35" height="35" viewBox="0 0 35 35" fill="none" xmlns="http://www.w3.org/2000/svg">
<g clip-path="url(#clip0_535_70)">
<path d="M17.5 34.5C26.8888 34.5 34.5 26.8888 34.5 17.5C34.5 8.11116 26.8888 0.5 17.5 0.5C8.11116 0.5 0.5 8.11116 0.5 17.5C0.5 26.8888 8.11116 34.5 17.5 34.5Z" fill="white" stroke="#EEEEEE"/>
<path d="M8.91186 23.7677L8.04565 23.3013L17.6958 7.71826L18.5615 8.18453L8.91186 23.7677Z" fill="#E434AA"/>
<path d="M7.84692 22.0566H27.1465V22.9889H7.84692V22.0566Z" fill="#E434AA"/>
<path d="M17.8825 27.7767L8.22949 22.5805L8.72958 21.7725L18.3828 26.9695L17.8825 27.7767ZM26.2683 14.233L16.6152 9.03605L17.1154 8.229L26.7685 13.4251L26.2683 14.233Z" fill="#E434AA"/>
<path d="M8.73197 14.2292L8.23169 13.4214L17.8856 8.2251L18.3857 9.03232L8.73197 14.2292Z" fill="#E434AA"/>
<path d="M26.0903 23.7677L16.4409 8.18453L17.3067 7.71826L26.9569 23.3013L26.0903 23.7677ZM8.61255 12.8032H9.61296V23.1972H8.61274L8.61255 12.8032Z" fill="#E434AA"/>
<path d="M25.3872 12.8027H26.3874V23.1967H25.3872V12.8027Z" fill="#E434AA"/>
<path d="M17.7127 27.3824L17.2759 26.6766L25.6712 22.1567L26.1081 22.8625L17.7127 27.3824Z" fill="#E434AA"/>
<path d="M27.7128 23.5C27.1348 24.4382 25.8453 24.7584 24.8393 24.2195C23.833 23.6798 23.4895 22.4775 24.0676 21.5393C24.6464 20.6011 25.9359 20.2809 26.9421 20.82C27.9542 21.3652 28.2977 22.5618 27.7128 23.5ZM10.9266 14.4607C10.3478 15.3989 9.05838 15.7191 8.0521 15.18C7.04586 14.6403 6.70242 13.4382 7.28063 12.5C7.85947 11.5618 9.14873 11.2416 10.155 11.7805C11.1612 12.3258 11.5047 13.5225 10.9266 14.4607ZM7.28727 23.5C6.70824 22.5618 7.05188 21.3652 8.05792 20.8199C9.0642 20.2809 10.3476 20.6011 10.9325 21.5393C11.5106 22.4775 11.1671 23.6742 10.1608 24.2195C9.14873 24.7584 7.86529 24.4382 7.28727 23.5ZM24.0734 14.4607C23.4954 13.5225 23.8389 12.3258 24.8451 11.7805C25.8514 11.2416 27.1348 11.5618 27.7194 12.5C28.2975 13.4382 27.9542 14.6348 26.948 15.1801C25.9417 15.7191 24.6523 15.3989 24.0734 14.4607ZM17.5 29C17.2238 29.0002 16.9503 28.9497 16.695 28.8512C16.4397 28.7528 16.2078 28.6084 16.0125 28.4262C15.8172 28.2441 15.6623 28.0279 15.5567 27.7899C15.4511 27.5519 15.3969 27.2969 15.3971 27.0393C15.3969 26.7818 15.4511 26.5267 15.5567 26.2887C15.6623 26.0507 15.8172 25.8345 16.0125 25.6524C16.2078 25.4703 16.4397 25.3259 16.695 25.2274C16.9503 25.129 17.2238 25.0784 17.5 25.0787C17.7762 25.0784 18.0498 25.129 18.3051 25.2274C18.5603 25.3259 18.7923 25.4703 18.9876 25.6524C19.1829 25.8345 19.3378 26.0507 19.4434 26.2887C19.5489 26.5267 19.6032 26.7818 19.6029 27.0393C19.6029 28.1181 18.663 29 17.5 29ZM17.5 10.9213C17.2238 10.9216 16.9503 10.871 16.695 10.7726C16.4397 10.6741 16.2078 10.5297 16.0125 10.3476C15.8172 10.1655 15.6623 9.94925 15.5567 9.71127C15.4511 9.47329 15.3969 9.21821 15.3971 8.9607C15.3969 8.70313 15.4511 8.44806 15.5567 8.21008C15.6623 7.97209 15.8172 7.75587 16.0125 7.57373C16.2078 7.39164 16.4397 7.24724 16.695 7.14876C16.9503 7.05033 17.2238 6.99977 17.5 7C17.7762 6.99977 18.0498 7.05033 18.3051 7.14876C18.5603 7.24724 18.7923 7.39164 18.9876 7.57373C19.1829 7.75587 19.3378 7.97209 19.4434 8.21008C19.5489 8.44806 19.6032 8.70313 19.6029 8.9607C19.6032 9.21821 19.5489 9.47329 19.4434 9.71127C19.3378 9.94925 19.1829 10.1655 18.9876 10.3476C18.7923 10.5297 18.5603 10.6741 18.3051 10.7726C18.0498 10.871 17.7762 10.9216 17.5 10.9213Z" fill="#E434AA"/>
</g>
<defs>
<clipPath id="clip0_535_70">
<rect width="35" height="35" fill="white"/>
</clipPath>
</defs>
</svg>
