<svg width="36" height="36" viewBox="0 0 36 36" fill="none" xmlns="http://www.w3.org/2000/svg">
<path d="M18 35C27.3888 35 35 27.3888 35 18C35 8.61116 27.3888 1 18 1C8.61116 1 1 8.61116 1 18C1 27.3888 8.61116 35 18 35Z" fill="white" stroke="#EEEEEE"/>
<path d="M17.5565 13.0296C16.2703 13.2105 15.3725 14.2423 15.3659 15.5419C15.3659 16.5534 15.8751 17.2971 17.3556 18.4294C18.0658 18.9719 18.28 19.3135 18.28 19.9298C18.28 20.4793 18.0724 20.8409 17.63 21.0554C17.1813 21.2696 16.2097 21.2231 15.6872 20.955L15.5062 20.8612L15.4394 21.2161C15.2651 22.0802 15.2651 22.0333 15.5132 22.1474C16.3238 22.5293 17.4963 22.5226 18.2866 22.1341C19.2782 21.6518 19.7671 20.7541 19.7069 19.528C19.687 19.0324 19.6467 18.8648 19.4658 18.5099C19.1844 17.9271 18.9432 17.6524 18.2933 17.1767C17.0406 16.2524 16.9199 16.125 16.8194 15.5958C16.7256 15.1002 17.0739 14.5171 17.5632 14.3564C17.8848 14.2493 18.5614 14.3162 18.8963 14.4905C19.1574 14.6179 19.1777 14.6245 19.2113 14.5104C19.2782 14.2693 19.4056 13.3516 19.372 13.318C19.2915 13.2375 18.5813 13.0366 18.28 13.0096C18.099 12.9893 17.7707 13.003 17.5565 13.0296Z" fill="black"/>
<path d="M22.2325 13.0698C22.0516 13.0765 21.6967 13.1234 21.4489 13.1636L20.9932 13.2375V17.8197V22.4019H21.6967H22.4002L22.4135 20.5731L22.4334 18.751L22.9693 18.7108C24.0812 18.6303 24.959 18.0878 25.3944 17.21C25.5953 16.8012 25.6891 16.3458 25.6891 15.7295C25.6891 14.4901 25.1799 13.6729 24.175 13.2977C23.867 13.1839 23.6325 13.1437 22.768 13.0632C22.6613 13.0565 22.4201 13.0565 22.2325 13.0698ZM23.3847 14.3694C23.9409 14.5769 24.2555 15.2335 24.1887 16.0441C24.1082 17.0087 23.5254 17.5782 22.621 17.5782H22.333V15.9839C22.333 15.1065 22.3529 14.3627 22.3799 14.3428C22.4471 14.2689 23.1772 14.2892 23.3847 14.3694Z" fill="black"/>
<path d="M12.7532 16.4997C12.7532 18.7572 12.7262 20.0368 12.6793 20.2646C12.6324 20.4925 12.532 20.6934 12.3846 20.8544C12.1634 21.0889 12.1501 21.0955 11.6342 21.1088L11.1117 21.1155L11.0378 21.6783C10.9976 21.9863 10.9909 22.2544 11.0109 22.288C11.0378 22.3149 11.2321 22.3685 11.4463 22.4017C11.8883 22.4752 12.5852 22.3951 12.9737 22.2341C13.3086 22.0934 13.7174 21.6779 13.8781 21.3027C14.1728 20.6461 14.1864 20.3983 14.1931 16.6736V13.1232L13.4763 13.1033L12.7528 13.0833V16.4997H12.7532Z" fill="black"/>
</svg>
