<svg width="35" height="35" viewBox="0 0 35 35" fill="none" xmlns="http://www.w3.org/2000/svg">
<g clip-path="url(#clip0_535_103)">
<path d="M17.5 34.5C26.8888 34.5 34.5 26.8888 34.5 17.5C34.5 8.11116 26.8888 0.5 17.5 0.5C8.11116 0.5 0.5 8.11116 0.5 17.5C0.5 26.8888 8.11116 34.5 17.5 34.5Z" fill="white" stroke="#EEEEEE"/>
<path fill-rule="evenodd" clip-rule="evenodd" d="M22.7622 12.7129C23.1136 13.7293 23.3666 14.7669 23.4498 15.8425C23.5531 17.1767 23.5058 18.5016 23.2245 19.814C23.2169 19.8501 23.2007 19.884 23.1886 19.9191C23.1004 19.9193 23.0104 19.9083 22.9242 19.9217C22.1954 20.0362 21.4673 20.1548 20.7392 20.2728C19.9866 20.3948 19.2329 20.5119 18.4816 20.6421C18.2154 20.6881 17.8859 20.6332 17.7784 21.0014C17.7754 21.0114 17.7447 21.0132 17.727 21.0189L17.7633 18.8186L17.7263 13.5095L18.077 13.4493C18.6506 13.3554 19.2241 13.2602 19.7981 13.1689C20.4831 13.0601 21.1687 12.9543 21.8541 12.8482C22.1565 12.8011 22.4592 12.758 22.7622 12.7129Z" fill="#439934"/>
<path fill-rule="evenodd" clip-rule="evenodd" d="M17.0028 27.433C16.6329 27.1149 16.25 26.8108 15.8954 26.4763C13.9871 24.6764 12.5913 22.558 11.9039 20.0039C11.7146 19.301 11.5882 18.5867 11.5477 17.8603C11.5193 17.352 11.4781 16.8391 11.514 16.3334C11.6097 14.9884 11.8041 13.6563 12.1986 12.3608L12.2202 12.3306C12.2586 12.3816 12.3137 12.4267 12.3332 12.4842C12.7183 13.6182 13.1005 14.7531 13.4807 15.8886C14.6756 19.4569 15.8689 23.026 17.0657 26.5934C17.0891 26.6631 17.1497 26.7202 17.1933 26.783L17.0028 27.433Z" fill="#45A538"/>
<path fill-rule="evenodd" clip-rule="evenodd" d="M22.7623 12.7128C22.4593 12.7579 22.1563 12.801 21.854 12.8476C21.1686 12.9538 20.4829 13.0595 19.798 13.1683C19.224 13.2596 18.6504 13.3548 18.0769 13.4488L17.7262 13.509L17.7235 13.2802C17.7119 13.0921 17.692 12.9043 17.6898 12.7163C17.6747 11.5171 17.6653 10.3179 17.6504 9.11867C17.6412 8.36797 17.6274 7.61757 17.6121 6.86712C17.6027 6.40082 17.5926 5.93432 17.5716 5.46872C17.5602 5.21847 17.5199 4.96958 17.5035 4.71936C17.4943 4.57554 17.507 4.43062 17.5099 4.28613C17.6887 4.63267 17.8636 4.98184 18.0475 5.32577C18.338 5.86952 18.8008 6.27012 19.2174 6.70732C20.8643 8.43497 22.0335 10.4437 22.7623 12.7128Z" fill="#46A037"/>
<path fill-rule="evenodd" clip-rule="evenodd" d="M17.7267 21.0185C17.7444 21.0128 17.7752 21.011 17.7781 21.0009C17.8856 20.6327 18.215 20.6877 18.4812 20.6418C19.2326 20.5117 19.9863 20.3943 20.7389 20.2724C21.467 20.1544 22.1951 20.0358 22.9239 19.9213C23.0101 19.9077 23.1001 19.9189 23.1883 19.9186C23.0522 20.4046 22.9449 20.9012 22.7722 21.3738C22.576 21.9099 22.3387 22.4331 22.0868 22.946C21.7095 23.711 21.2427 24.4285 20.696 25.0833C20.2759 25.5885 19.8076 26.0555 19.3383 26.5167C19.0789 26.7718 18.7731 26.9795 18.4885 27.2087L18.4147 27.1583L18.1489 26.9311L17.874 26.3284C17.6862 25.6254 17.5837 24.9023 17.5688 24.1748L17.5738 24.052L17.6113 23.5209C17.6238 23.3396 17.6404 23.1586 17.6481 22.9769C17.6763 22.3241 17.7008 21.6713 17.7267 21.0185Z" fill="#409433"/>
<path fill-rule="evenodd" clip-rule="evenodd" d="M17.7268 21.0187C17.701 21.6715 17.6765 22.3243 17.6487 22.9773C17.641 23.159 17.6244 23.34 17.6119 23.5213L17.4444 23.5846C17.0725 22.4896 16.7003 21.4062 16.3363 20.3199C15.7343 18.5228 15.1395 16.7229 14.5383 14.9254C14.0528 13.4746 13.5639 12.0249 13.0716 10.5763C13.0486 10.5084 12.9825 10.4554 12.9365 10.3955L14.0083 8.4248C14.0451 8.4887 14.0937 8.54845 14.1169 8.6172C14.6133 10.0844 15.1072 11.5525 15.5985 13.0213C16.2369 14.9324 16.8713 16.8451 17.5092 18.7564C17.5346 18.8328 17.5766 18.9033 17.6167 18.9889L17.7634 18.8182L17.7268 21.0187Z" fill="#4FAA41"/>
<path fill-rule="evenodd" clip-rule="evenodd" d="M12.9367 10.3955C12.9827 10.4555 13.0486 10.5085 13.0718 10.5763C13.5641 12.0249 14.053 13.4746 14.5385 14.9255C15.1397 16.723 15.7345 18.5229 16.3365 20.3199C16.7003 21.406 17.0725 22.4896 17.4446 23.5846L17.6121 23.5213L17.5746 24.0524L17.5407 24.1748C17.4825 24.7562 17.4334 25.339 17.3625 25.9191C17.3268 26.2098 17.2511 26.4953 17.1935 26.7831C17.1502 26.7203 17.0893 26.6632 17.0659 26.5936C15.8691 23.0259 14.6758 19.457 13.481 15.8887C13.1008 14.7531 12.7183 13.6183 12.3334 12.4844C12.3139 12.4268 12.259 12.3817 12.2205 12.3307L12.9367 10.3955Z" fill="#4AA73C"/>
<path fill-rule="evenodd" clip-rule="evenodd" d="M17.7631 18.8182L17.6164 18.989C17.5764 18.9034 17.5343 18.8326 17.5089 18.7565C16.8712 16.8451 16.2366 14.9325 15.5982 13.0214C15.1069 11.5525 14.613 10.0845 14.1166 8.61725C14.0937 8.5485 14.0451 8.4885 14.0081 8.4248L15.3336 6.68115C15.3754 6.737 15.4349 6.7867 15.4566 6.8495C15.8246 7.9268 16.1893 9.0054 16.5518 10.0846C16.8905 11.0925 17.2241 12.1019 17.5667 13.1085C17.5897 13.1759 17.6696 13.2236 17.723 13.2806L17.7257 13.5093C17.7383 15.2786 17.7508 17.0485 17.7631 18.8182Z" fill="#57AE47"/>
<path fill-rule="evenodd" clip-rule="evenodd" d="M17.7234 13.2802C17.67 13.2233 17.5901 13.1755 17.5671 13.1081C17.2245 12.1015 16.8909 11.0922 16.5522 10.0843C16.1897 9.005 15.825 7.92665 15.457 6.84915C15.4353 6.78635 15.3758 6.73665 15.334 6.6808C15.765 6.25875 16.1827 5.8216 16.6311 5.419C17.0297 5.0613 17.3502 4.67776 17.3649 4.11252C17.3655 4.0891 17.3778 4.06567 17.3966 4L17.5102 4.2859C17.5074 4.43061 17.4944 4.57531 17.5039 4.71913C17.5203 4.96935 17.5606 5.21825 17.5719 5.46845C17.593 5.9341 17.603 6.4006 17.6124 6.8669C17.6275 7.61735 17.6413 8.36775 17.6508 9.1184C17.6654 10.3176 17.6751 11.5169 17.6902 12.7161C17.6919 12.9045 17.7116 13.0922 17.7234 13.2802Z" fill="#60B24F"/>
<path fill-rule="evenodd" clip-rule="evenodd" d="M17.1931 26.7829C17.2507 26.4951 17.3264 26.2094 17.3621 25.9189C17.4333 25.339 17.4821 24.756 17.5403 24.1746L17.5548 24.1724L17.5692 24.1748C17.5841 24.9023 17.6866 25.6254 17.8744 26.3285C17.8359 26.3793 17.7813 26.4246 17.761 26.4819C17.6018 26.9307 17.4519 27.383 17.2919 27.8317C17.27 27.893 17.2091 27.9408 17.1662 27.9946L17.0027 27.4329L17.1931 26.7829Z" fill="#A9AA88"/>
<path fill-rule="evenodd" clip-rule="evenodd" d="M17.1665 27.9948C17.2094 27.9409 17.2705 27.8932 17.2922 27.8319C17.4522 27.3831 17.6024 26.9311 17.7613 26.4821C17.7817 26.4247 17.8359 26.3794 17.8747 26.3286L18.1494 26.9315C18.0951 27.0086 18.0203 27.078 17.9901 27.1638L17.4638 28.7091C17.4421 28.771 17.3681 28.8148 17.3187 28.8672L17.1665 27.9948Z" fill="#B6B598"/>
<path fill-rule="evenodd" clip-rule="evenodd" d="M17.3186 28.8673C17.3683 28.8152 17.4421 28.7712 17.4637 28.7092L17.99 27.1639C18.02 27.0783 18.0951 27.0087 18.1494 26.9316L18.4154 27.1586C18.2869 27.2856 18.2155 27.4323 18.2584 27.6177L18.1776 27.8821C18.1408 27.9275 18.0876 27.9669 18.0695 28.0187C17.8858 28.5448 17.7105 29.0737 17.5255 29.5997C17.5021 29.6665 17.437 29.7188 17.3911 29.7775C17.3672 29.4739 17.3429 29.1709 17.3186 28.8673Z" fill="#C2C1A7"/>
<path fill-rule="evenodd" clip-rule="evenodd" d="M17.3911 29.7772C17.4369 29.7183 17.5019 29.666 17.5256 29.5994C17.7105 29.0736 17.8859 28.5447 18.0696 28.0184C18.0877 27.9667 18.1407 27.9271 18.1777 27.8818L18.0663 29.0957C18.0365 29.1301 17.9934 29.16 17.9791 29.2001C17.8533 29.5534 17.7346 29.9094 17.6083 30.2627C17.5823 30.3356 17.5323 30.4 17.4934 30.4681C17.4588 30.4227 17.3968 30.379 17.394 30.3317C17.3828 30.1476 17.3905 29.9621 17.3911 29.7772Z" fill="#CECDB7"/>
<path fill-rule="evenodd" clip-rule="evenodd" d="M17.4932 30.4681C17.5322 30.3998 17.5821 30.3354 17.6081 30.2627C17.7347 29.9096 17.8531 29.5537 17.979 29.2001C17.9932 29.1601 18.0365 29.1303 18.0661 29.0957L18.0687 29.8925L17.8021 30.5764L17.4932 30.4681Z" fill="#DBDAC7"/>
<path fill-rule="evenodd" clip-rule="evenodd" d="M17.802 30.5765L18.0687 29.8926L18.1236 30.7017L17.802 30.5765Z" fill="#EBE9DC"/>
<path fill-rule="evenodd" clip-rule="evenodd" d="M18.2584 27.6177C18.2155 27.4323 18.2866 27.2854 18.4153 27.1587L18.4891 27.209L18.2584 27.6177Z" fill="#CECDB7"/>
<path fill-rule="evenodd" clip-rule="evenodd" d="M17.5692 24.1753L17.5547 24.1729L17.5403 24.1751L17.5742 24.0527L17.5692 24.1753Z" fill="#4FAA41"/>
</g>
<defs>
<clipPath id="clip0_535_103">
<rect width="35" height="35" fill="white"/>
</clipPath>
</defs>
</svg>
