<svg width="35" height="35" viewBox="0 0 35 35" fill="none" xmlns="http://www.w3.org/2000/svg">
<g clip-path="url(#clip0_535_121)">
<path d="M17.5 34.5C26.8888 34.5 34.5 26.8888 34.5 17.5C34.5 8.11116 26.8888 0.5 17.5 0.5C8.11116 0.5 0.5 8.11116 0.5 17.5C0.5 26.8888 8.11116 34.5 17.5 34.5Z" fill="white" stroke="#EEEEEE"/>
<path d="M28.7465 27.991L28.3109 27.549C27.8981 26.9755 27.3671 26.4717 26.8098 26.0534C26.3653 25.7197 25.3676 25.2688 25.1821 24.7279L25.1479 24.6939C25.4632 24.6566 25.8312 24.5375 26.1221 24.4558C26.6106 24.3188 27.0139 24.3542 27.5185 24.218C27.7459 24.15 28.0012 24.0819 28.1677 24.014V23.8781C28.0012 23.6044 27.7636 23.242 27.4855 22.9943C26.758 22.3463 25.98 21.6987 25.1624 21.1587C24.709 20.8594 24.1565 20.6648 23.6761 20.411C23.5144 20.3254 23.2345 20.281 23.1276 20.1389C22.875 19.8023 22.7399 19.3755 22.5451 18.9833C22.1373 18.1616 21.7377 17.2642 21.3763 16.3996C21.1299 15.8101 20.9695 15.229 20.6621 14.7001C19.1868 12.1624 17.5991 10.6309 15.1393 9.12537C14.6156 8.80517 13.9855 8.67887 13.3194 8.51337C12.9624 8.49092 12.6049 8.46807 12.2475 8.44527C12.0292 8.35012 11.8023 8.07087 11.5978 7.93537C10.7825 7.39667 8.69224 6.22512 8.08864 7.76547C7.70749 8.73777 8.65814 9.68617 8.99814 10.179C9.23709 10.5243 9.54264 10.9119 9.71299 11.3005C9.82539 11.5561 9.84454 11.8124 9.94064 12.0826C10.1767 12.7484 10.3821 13.4728 10.6878 14.0879C10.8421 14.3994 11.0123 14.7272 11.2076 15.0056C11.3272 15.1765 11.5324 15.2518 11.5648 15.5155C11.3643 15.8093 11.3529 16.2653 11.2401 16.6374C10.7322 18.3125 10.9241 20.3946 11.6626 21.6343C11.889 22.0151 12.4229 22.8313 13.1571 22.518C13.7992 22.2445 13.6942 21.3965 13.8779 20.6484C13.9194 20.4791 13.8471 20.3544 14.0136 20.2406V20.2746C14.184 20.6881 14.3662 21.0962 14.5601 21.4982C14.9931 22.2276 15.7073 22.9898 16.3582 23.5041C16.6957 23.7708 17.0109 24.2317 17.344 24.3878V24.3702H17.3808C17.2963 24.196 17.164 24.1669 17.0561 24.056C16.8018 23.7953 16.5189 23.4668 16.3089 23.168C15.7168 22.3271 15.1936 21.4047 14.7168 20.4465C14.489 19.989 14.291 19.4833 14.0992 19.0178C14.0254 18.8384 14.0263 18.5663 13.8721 18.4734C13.6618 18.8145 13.3522 19.0901 13.1895 19.4931C12.9296 20.1369 12.8961 20.9223 12.7997 21.7364C12.7426 21.7576 12.7681 21.743 12.7346 21.7702C12.282 21.6561 12.1232 21.1688 11.9548 20.7505C11.5294 19.6931 11.4504 17.9905 11.8248 16.7735C11.9217 16.4584 12.3594 15.4668 12.1821 15.1757C12.0975 14.8856 11.8184 14.7175 11.6624 14.4957C11.4691 14.2215 11.2763 13.8605 11.1424 13.5438C10.7942 12.7197 10.6318 11.7941 10.2652 10.9607C10.0898 10.5623 9.79359 10.159 9.55034 9.80497C9.28104 9.41247 8.97934 9.12347 8.77034 8.64907C8.69624 8.48047 8.59534 8.21042 8.70539 8.03707C8.74039 7.92017 8.78984 7.87142 8.90039 7.83327C9.08909 7.68117 9.61359 7.88377 9.81009 7.96897C10.3311 8.19542 10.766 8.40447 11.2075 8.71042C11.4191 8.85742 11.6336 9.03967 11.8897 9.21387H12.1821C12.6395 9.21387 13.1519 9.25427 13.5793 9.39017C14.3345 9.63042 15.0114 10.0072 15.6262 10.4133C17.4988 11.6505 19.0299 13.4132 20.0775 15.5138C20.246 15.8521 20.319 16.1756 20.4673 16.5343C20.7667 17.2578 21.144 18.0025 21.4419 18.71C21.7393 19.4161 22.0291 20.1284 22.4494 20.7158C22.6703 21.0245 23.5236 21.1904 23.9114 21.362C24.1833 21.482 24.6287 21.6074 24.8862 21.7696C25.3779 22.0801 25.8543 22.4497 26.3159 22.7896C26.5463 22.9593 27.255 23.3321 27.2905 23.6394C26.1477 23.6067 25.275 23.7182 24.5288 24.0472C24.3169 24.1408 23.9785 24.1434 23.9439 24.4213C24.0604 24.549 24.0786 24.7399 24.1712 24.897C24.3492 25.1984 24.6501 25.6029 24.9185 25.8148C25.2119 26.0465 25.5139 26.294 25.8283 26.4945C26.3877 26.8511 27.0118 27.055 27.5503 27.4123C27.8677 27.6231 28.2094 27.8884 28.5186 28.126C28.6718 28.2436 28.6669 28.4263 29 28.5V28.4662C28.8336 28.3277 28.8424 28.1365 28.7465 27.991ZM12.7671 10.6889C12.5288 10.6842 12.3485 10.7163 12.1819 10.7567V10.7821H12.2149C12.3286 10.9563 12.5293 11.188 12.6697 11.3985L12.9947 12.1141L13.0268 12.0815C13.2282 11.9329 13.3204 11.6964 13.3192 11.334C13.2388 11.2453 13.2267 11.1344 13.1571 11.0284C13.0641 10.8875 12.8841 10.8075 12.7671 10.6889Z" fill="#00618A"/>
</g>
<defs>
<clipPath id="clip0_535_121">
<rect width="35" height="35" fill="white"/>
</clipPath>
</defs>
</svg>
