<svg width="35" height="35" viewBox="0 0 35 35" fill="none" xmlns="http://www.w3.org/2000/svg">
<g clip-path="url(#clip0_308_261)">
<path d="M17.5 34.5C26.8888 34.5 34.5 26.8888 34.5 17.5C34.5 8.11116 26.8888 0.5 17.5 0.5C8.11116 0.5 0.5 8.11116 0.5 17.5C0.5 26.8888 8.11116 34.5 17.5 34.5Z" fill="white" stroke="#EEEEEE"/>
<path d="M17.5 5C10.6055 5 5 10.6055 5 17.5C5 24.3945 10.6055 30 17.5 30C19.6875 30 21.7383 29.4336 23.5156 28.4571L14.4531 15.8008V22.9492H13.125V13.1641H14.4531L24.3164 27.9688C27.7344 25.7422 30 21.8945 30 17.5C30 10.6055 24.3945 5 17.5 5ZM21.8164 21.5235L20.3515 19.3164V13.1641H21.8164V21.5235Z" fill="black"/>
</g>
<defs>
<clipPath id="clip0_308_261">
<rect width="35" height="35" fill="white"/>
</clipPath>
</defs>
</svg>
