<svg width="36" height="36" viewBox="0 0 36 36" fill="none" xmlns="http://www.w3.org/2000/svg">
<path d="M18 35C27.3888 35 35 27.3888 35 18C35 8.61116 27.3888 1 18 1C8.61116 1 1 8.61116 1 18C1 27.3888 8.61116 35 18 35Z" fill="white" stroke="#EEEEEE"/>
<path d="M17.7525 10.9194C23.2135 10.8588 27.8016 12.2057 27.9937 13.9206C28.1859 15.6378 23.9063 17.0812 18.4452 17.1395C12.9842 17.2024 8.39377 15.8556 8.20398 14.1384C8.01183 12.4234 12.2891 10.9801 17.7525 10.9194Z" fill="black"/>
<path d="M8.20414 18.0328C8.19465 17.9588 8.19465 17.8847 8.20414 17.8128V14.4121H8.20888C8.19939 14.4839 8.20177 14.5558 8.20888 14.6298C8.39867 16.3471 12.9891 17.6916 18.4501 17.6333C23.6763 17.5749 27.8183 16.2528 27.9986 14.6343V18.0351H27.9915C27.816 19.6535 23.6716 20.9801 18.443 21.0385C12.9843 21.0946 8.39392 19.75 8.20414 18.0328Z" fill="black"/>
<path d="M8.20414 22.0128C8.19465 21.9387 8.19465 21.8647 8.20414 21.7928V18.3921H8.20888C8.19939 18.4639 8.20177 18.538 8.20888 18.6098C8.39867 20.327 12.9891 21.6716 18.4501 21.6133C23.6763 21.5549 27.8183 20.2305 27.9986 18.6143V22.0128H27.9915C27.8183 23.6335 23.6739 24.9579 18.4454 25.0162C12.9843 25.0746 8.39629 23.73 8.20414 22.0128Z" fill="black"/>
<path d="M8.20414 25.9923C8.19465 25.9182 8.19465 25.8442 8.20414 25.7723V22.3716H8.20888C8.19939 22.4434 8.20177 22.5175 8.20888 22.5893C8.39867 24.3065 12.9891 25.6511 18.4501 25.5927C23.6763 25.5344 27.8183 24.2122 27.9986 22.5938V25.9945H27.9915C27.816 27.6152 23.6716 28.9396 18.443 28.998C12.9843 29.0563 8.39629 27.7095 8.20414 25.9923Z" fill="black"/>
<path d="M22.7605 7H22.3406V9.60835H24.312L24.58 9.18186H22.7628V7H22.7605ZM17.01 7.13019L15.4728 9.6106H15.9804L16.443 8.86087H17.4347L17.6956 8.43437H16.704L17.2449 7.57465L18.5093 9.60835H19.0193L17.4679 7.12346C17.373 6.96184 17.1191 6.96184 17.01 7.13019ZM19.992 7.4265H21.7546L22.0156 7.00224H19.9801C19.2708 7.00224 18.8035 7.58587 18.8035 8.30642C18.8035 9.02697 19.2708 9.6106 19.9801 9.6106L21.7024 9.60835L21.9729 9.18635H19.992C19.5152 9.18635 19.2352 8.79352 19.2352 8.30642C19.2352 7.81932 19.5128 7.4265 19.992 7.4265ZM10.9915 7H9.17429C8.46497 7 8 7.58362 8 8.30418C8 9.02473 8.46734 9.60835 9.17429 9.60835H10.9915C11.7008 9.60835 12.1658 9.02473 12.1658 8.30418C12.1658 7.58362 11.6984 7 10.9915 7ZM10.9915 9.1841H9.17429C8.69746 9.1841 8.41753 8.79128 8.41753 8.30418C8.41753 7.81707 8.69508 7.4265 9.17429 7.4265H10.9915C11.4683 7.4265 11.7482 7.81932 11.7482 8.30642C11.7482 8.79352 11.4683 9.1841 10.9915 9.1841ZM25.0403 8.51069H27.2607L27.5288 8.0842H25.0403C25.1114 7.70708 25.3748 7.42425 25.778 7.42425H27.543L27.804 7H25.7686C25.0592 7 24.5943 7.58362 24.5943 8.30418C24.5943 9.02473 25.0616 9.60835 25.7686 9.60835L27.4908 9.60611L27.7613 9.1841H25.7804C25.37 9.1841 25.1091 8.89678 25.0403 8.51069ZM14.557 8.54885C14.9769 8.54885 15.3186 8.20317 15.3186 7.77443C15.3186 7.34793 14.9769 7 14.557 7H12.4172V9.60835H12.8869V7.4265H14.5547C14.7445 7.4265 14.8987 7.58138 14.8987 7.77667C14.8987 7.96972 14.7445 8.12685 14.5547 8.12685H13.2167L14.7255 9.60835H15.3328L14.2534 8.55334L14.557 8.54885Z" fill="black"/>
</svg>
