<svg width="35" height="35" viewBox="0 0 35 35" fill="none" xmlns="http://www.w3.org/2000/svg">
<g clip-path="url(#clip0_535_160)">
<path d="M17.5 34.5C26.8888 34.5 34.5 26.8888 34.5 17.5C34.5 8.11116 26.8888 0.5 17.5 0.5C8.11116 0.5 0.5 8.11116 0.5 17.5C0.5 26.8888 8.11116 34.5 17.5 34.5Z" fill="white" stroke="#EEEEEE"/>
<path d="M27.5972 9.91091C25.1419 6.98696 20.2921 6.12036 16.7869 7.97901L10.6287 11.2447C9.79566 11.6794 9.08081 12.2538 8.52975 12.9315C7.97875 13.6092 7.60391 14.3751 7.42911 15.1801C7.35121 15.5414 7.31156 15.9099 7.31086 16.2794C7.31461 17.2816 7.60991 18.2682 8.17141 19.1549C7.64496 19.8204 7.28555 20.5677 7.11505 21.3518C6.9404 22.1714 6.96491 23.0208 7.18641 23.8289C7.40811 24.6424 7.82271 25.4109 8.40601 26.0894C10.8611 29.0132 15.7218 29.8798 19.2162 28.0213L25.3679 24.7555C26.2005 24.3203 26.9145 23.7452 27.4641 23.0668C28.0136 22.3884 28.3866 21.6219 28.559 20.8164C28.6381 20.4543 28.6778 20.087 28.6772 19.7188C28.6757 18.7185 28.3842 17.7335 27.8273 16.847C28.3536 16.182 28.713 15.4354 28.8838 14.652C28.9601 14.2895 28.999 13.9223 29 13.5544C29.0004 12.249 28.5098 10.9762 27.5972 9.91436V9.91091Z" fill="#FF3E00"/>
<path d="M16.1851 26.3646C15.7806 26.4513 15.3681 26.4951 14.9544 26.4952C14.1647 26.4954 13.3866 26.3363 12.6869 26.0312C11.9874 25.7263 11.387 25.2847 10.9374 24.7443C10.3884 24.1057 10.0935 23.3399 10.094 22.5546C10.0943 22.3333 10.1173 22.1125 10.1627 21.8958C10.1997 21.7328 10.2494 21.5729 10.3114 21.4177L10.4276 21.1241L10.7416 21.3228C11.4709 21.7681 12.2857 22.1073 13.1513 22.3255L13.3796 22.3828L13.3581 22.5725V22.671C13.3576 22.9084 13.4464 23.1402 13.6119 23.3334C13.7456 23.4981 13.9258 23.6332 14.1365 23.7267C14.3523 23.8213 14.5854 23.8703 14.8211 23.8705C14.9455 23.8709 15.0696 23.8577 15.1911 23.8312C15.323 23.8024 15.4504 23.7561 15.5699 23.6933L21.7214 20.4115C21.9058 20.3142 22.0577 20.1797 22.1627 20.0203C22.2676 19.861 22.3222 19.6821 22.3216 19.5002C22.3198 19.2629 22.2287 19.0319 22.0612 18.8396C21.9254 18.677 21.7442 18.5443 21.5333 18.4525C21.3174 18.3598 21.0848 18.3124 20.8498 18.3133C20.7254 18.3129 20.6013 18.3262 20.4797 18.3528C20.3484 18.3808 20.2217 18.4272 20.1033 18.4905L17.7581 19.7366C17.3634 19.9433 16.9431 20.0968 16.508 20.1931C16.1058 20.2794 15.6925 20.3234 15.2772 20.3237C14.4876 20.3237 13.7099 20.1645 13.0104 19.86C12.3108 19.5554 11.7103 19.1144 11.2602 18.5747C10.7119 17.9357 10.4169 17.1701 10.4168 16.385C10.4171 16.1641 10.4401 15.9438 10.4855 15.7262C10.5909 15.2422 10.8157 14.7817 11.1462 14.3741C11.4765 13.9662 11.9052 13.62 12.4048 13.3576L18.5628 10.0937C18.9492 9.88911 19.3706 9.73441 19.8129 9.63526C20.215 9.54946 20.6284 9.50636 21.0435 9.50636C21.835 9.50461 22.6151 9.66276 23.3171 9.96716C24.019 10.2714 24.6216 10.7131 25.0735 11.2538C25.6185 11.8944 25.9096 12.6604 25.9062 13.4452C25.9058 13.6672 25.8827 13.8886 25.8373 14.1059C25.8004 14.2689 25.7507 14.4287 25.6888 14.5839L25.5726 14.8775L25.2586 14.686C24.5298 14.24 23.7148 13.9009 22.8489 13.6833L22.6206 13.6243L22.6421 13.4344V13.3361C22.6421 13.098 22.5534 12.866 22.3882 12.6718C22.2526 12.5094 22.072 12.3769 21.8613 12.2851C21.6458 12.1924 21.4135 12.1448 21.1789 12.1453C21.0557 12.1476 20.9332 12.1632 20.8133 12.1919C20.6812 12.2195 20.5537 12.2659 20.4347 12.3298L14.2767 15.5937C14.1307 15.6695 14.0015 15.7741 13.8971 15.9013C13.7997 16.0201 13.7315 16.16 13.698 16.3099C13.6829 16.3721 13.6735 16.4357 13.67 16.4996C13.6699 16.7365 13.7585 16.9675 13.9239 17.1603C14.0593 17.3228 14.2401 17.4554 14.4507 17.547C14.6662 17.6397 14.8984 17.6872 15.133 17.6866C15.2575 17.687 15.3815 17.6737 15.5031 17.6471C15.6352 17.6192 15.7627 17.5729 15.8819 17.5094L18.2314 16.2561C18.6259 16.049 19.0463 15.8954 19.4815 15.7996C19.886 15.713 20.2985 15.6692 20.7121 15.669C21.5021 15.669 22.2801 15.8279 22.98 16.1325C23.6799 16.4371 24.2809 16.8783 24.7314 17.4181C25.2797 18.057 25.5746 18.8225 25.5748 19.6078C25.5753 19.8311 25.5516 20.054 25.5038 20.2737C25.3992 20.7579 25.1743 21.2185 24.844 21.6263C24.5135 22.034 24.0847 22.38 23.5845 22.6423L17.4374 25.9062C17.0422 26.114 16.6209 26.2681 16.1851 26.3646Z" fill="white"/>
</g>
<defs>
<clipPath id="clip0_535_160">
<rect width="35" height="35" fill="white"/>
</clipPath>
</defs>
</svg>
