<svg width="35" height="35" viewBox="0 0 35 35" fill="none" xmlns="http://www.w3.org/2000/svg">
<g clip-path="url(#clip0_535_174)">
<path d="M17.5 34.5C26.8888 34.5 34.5 26.8888 34.5 17.5C34.5 8.11116 26.8888 0.5 17.5 0.5C8.11116 0.5 0.5 8.11116 0.5 17.5C0.5 26.8888 8.11116 34.5 17.5 34.5Z" fill="white" stroke="#EEEEEE"/>
<mask id="mask0_535_174" style="mask-type:luminance" maskUnits="userSpaceOnUse" x="3" y="5" width="26" height="25">
<path d="M28.5 5H3.5V30H28.5V5Z" fill="white"/>
</mask>
<g mask="url(#mask0_535_174)">
<path d="M19.6094 17.4174L23.9879 9.91701L26.1035 17.4174L23.9879 24.917L19.6094 17.4174ZM17.4754 18.6358L21.8547 26.1362L14.2283 24.1983L8.71837 18.6358H17.4754ZM21.8533 8.69706L17.4756 16.199H8.71857L14.2285 10.6356L21.8533 8.69706ZM28.1033 14.8654L25.4322 5.00586L15.4629 7.64806L13.9873 10.2223L10.992 10.201L3.69531 17.4182L10.992 24.6348H10.9928L13.9858 24.6127L15.4643 27.1862L25.432 29.8281L28.1031 19.9701L26.5871 17.4174L28.1033 14.8654Z" fill="#110B09"/>
</g>
</g>
<defs>
<clipPath id="clip0_535_174">
<rect width="35" height="35" fill="white"/>
</clipPath>
</defs>
</svg>
