<svg width="36" height="36" viewBox="0 0 36 36" fill="none" xmlns="http://www.w3.org/2000/svg">
<path d="M18 35C27.3888 35 35 27.3888 35 18C35 8.61116 27.3888 1 18 1C8.61116 1 1 8.61116 1 18C1 27.3888 8.61116 35 18 35Z" fill="white" stroke="#EEEEEE"/>
<path d="M18.2781 27.9804C17.9482 27.9317 17.316 27.7815 16.8496 27.642C14.7443 27.0132 13.0183 25.9131 11.9281 24.5058C11.7631 24.2929 11.5504 23.9839 11.561 23.9728C11.561 23.9728 11.6619 23.9746 11.7772 23.9923C12.0227 24.0175 12.3447 24.0117 12.4866 23.965C12.797 23.8775 12.9895 23.6666 13.0388 23.3598C13.0572 23.28 13.0572 22.0349 13.0572 19.0213V14.7954L13.0113 14.6573C12.9013 14.3291 12.7242 14.1891 12.3632 14.1467C12.1703 14.1234 11.9063 14.2342 11.5652 14.4783C10.326 15.3668 8.72056 17.5401 7.13385 20.4774C7.06234 20.6096 7 20.7137 7 20.7137C7 20.7137 7 20.5328 7.01833 20.3176C7.11918 17.6674 8.19618 14.8922 10.0913 12.4011C10.5528 11.7942 11.2488 11.0099 11.7939 10.4818C13.5561 8.77443 15.5029 7.59381 17.4618 7.04472L17.6195 7L17.5681 7.04667C17.5406 7.07389 17.4104 7.19249 17.2799 7.31285C17.0131 7.55881 16.5524 8.03966 16.3367 8.29748C15.7696 8.97568 15.4339 9.57902 15.365 10.0437C15.3265 10.3052 15.365 10.885 15.4567 11.2243C15.5575 11.627 15.7443 11.8874 16.0047 11.9891C16.078 12.0182 16.1385 12.026 16.2581 12.026C16.4378 12.0258 16.5681 11.993 16.7489 11.9055L16.8681 11.8471V17.1877V22.5281L16.9213 22.6448C17.0734 22.974 17.4324 23.1194 18.1492 23.1433C18.5052 23.1628 18.6209 23.1433 18.893 23.05C19.3327 22.9022 19.8725 22.6108 20.4797 22.1931L20.6539 22.0726L20.6541 17.7125C20.6543 13.0291 20.6541 13.2568 20.5716 12.9823C20.4176 12.4892 19.9299 11.795 19.3426 11.2323L19.1508 11.0495H19.2461C19.3873 11.0495 19.7412 11.0943 19.9852 11.1584C20.4495 11.2829 20.9267 11.5039 21.2914 11.7649L21.4106 11.8504L21.4528 11.7746C21.5206 11.6502 21.7036 11.4164 21.8816 11.2236C22.8398 10.1859 24.3721 9.33266 26.3621 8.72855C26.5382 8.67605 26.6887 8.63133 26.6966 8.63133C26.6966 8.63133 26.6122 8.77132 26.491 8.94184C25.7818 9.9432 25.1198 11.0297 24.782 11.746C24.6097 12.1106 24.5294 12.328 24.4922 12.5247C24.461 12.692 24.4353 21.8589 24.4647 21.9791C24.5197 22.1945 24.7503 22.3182 25.1421 22.3427C25.3423 22.3621 25.5352 22.3213 25.8227 22.2202C26.8299 21.8692 27.8308 21.1838 28.7169 20.2381L29 19.9361L28.9798 20.0197C28.9175 20.2715 28.6702 20.7492 28.2868 21.3621C27.0844 23.2845 25.377 25.2495 23.765 26.5666C23.4925 26.7892 22.968 27.1803 22.9417 27.1803C22.9234 27.1803 22.4126 26.6389 21.7883 25.9773C20.8187 24.9499 20.6501 24.7782 20.6332 24.8017C20.6148 24.8211 20.1095 25.5433 19.494 26.4159C18.8783 27.2886 18.3661 28.0016 18.3554 28C18.3371 27.9986 18.3133 28 18.2876 27.9806L18.2781 27.9804Z" fill="black"/>
</svg>
