<svg width="35" height="35" viewBox="0 0 35 35" fill="none" xmlns="http://www.w3.org/2000/svg">
<g clip-path="url(#clip0_535_57)">
<path d="M17.5 34.5C26.8888 34.5 34.5 26.8888 34.5 17.5C34.5 8.11116 26.8888 0.5 17.5 0.5C8.11116 0.5 0.5 8.11116 0.5 17.5C0.5 26.8888 8.11116 34.5 17.5 34.5Z" fill="white" stroke="#EEEEEE"/>
<path d="M27.5 22.8008C26.7725 22.9859 26.3227 22.8088 25.9191 22.2026C25.0129 20.845 24.0127 19.5497 23.0476 18.2304C22.9231 18.0597 22.7939 17.8922 22.6328 17.68C21.4906 19.221 20.35 20.6887 19.2796 22.2154C18.8967 22.7609 18.4946 22.9986 17.7799 22.8056L22.0744 17.0419L18.0767 11.8365C18.7643 11.7025 19.2397 11.7711 19.6608 12.3869C20.5909 13.746 21.6166 15.0398 22.6392 16.4085C23.6682 15.0446 24.6811 13.7492 25.6383 12.4028C26.0227 11.8572 26.4359 11.6498 27.1267 11.8508C26.6034 12.5448 26.0913 13.2276 25.5761 13.9056C24.8805 14.8197 24.1977 15.7449 23.4767 16.6399C23.2198 16.9589 23.2614 17.1663 23.4911 17.4678C24.8247 19.221 26.1424 20.9918 27.5 22.8008ZM7.5048 16.9462C7.61965 16.3703 7.6962 15.7832 7.85575 15.2185C8.8129 11.7998 12.7373 10.3784 15.4333 12.4969C17.0127 13.7396 17.4051 15.4913 17.3269 17.4662H8.42525C8.29125 21.0093 10.8421 23.1486 14.0933 22.0574C15.2339 21.6746 15.9055 20.7812 16.2421 19.6645C16.4128 19.1046 16.6952 19.0168 17.2216 19.1764C16.952 20.5738 16.3411 21.7416 15.0648 22.4722C13.1505 23.5666 10.4178 23.2124 8.9804 21.6921C8.13175 20.7988 7.7712 19.6868 7.61165 18.4856C7.58775 18.2942 7.5383 18.1059 7.5 17.9161C7.5032 17.5928 7.5048 17.2695 7.5048 16.9462ZM8.4412 16.7085H16.4862C16.4336 14.1464 14.8383 12.3262 12.6575 12.3103C10.2646 12.2911 8.5449 14.0683 8.4412 16.7085Z" fill="black"/>
</g>
<defs>
<clipPath id="clip0_535_57">
<rect width="35" height="35" fill="white"/>
</clipPath>
</defs>
</svg>
