<svg width="35" height="35" viewBox="0 0 35 35" fill="none" xmlns="http://www.w3.org/2000/svg">
<g clip-path="url(#clip0_232_301)">
<path d="M34.3311 17.5C34.3311 26.8718 26.7698 34.5 17.4053 34.5C8.04074 34.5 0.479492 26.8718 0.479492 17.5C0.479492 8.1282 8.04074 0.5 17.4053 0.5C26.7698 0.5 34.3311 8.1282 34.3311 17.5Z" fill="white" stroke="#EEEEEE"/>
<mask id="mask0_232_301" style="mask-type:luminance" maskUnits="userSpaceOnUse" x="5" y="6" width="24" height="23">
<path d="M28.843 6H5.96753V29H28.843V6Z" fill="white"/>
</mask>
<g mask="url(#mask0_232_301)">
<path d="M19.4426 6.05371C19.2818 6.05371 19.121 6.08966 18.978 6.14356C19.2818 6.34121 19.4426 6.61076 19.532 6.91621C19.532 6.95216 19.5499 6.98811 19.5499 7.02401C19.5499 7.05996 19.5677 7.09591 19.5677 7.13186C19.5856 7.65291 19.4248 7.72481 19.3175 8.03026C19.1388 8.42561 19.1925 8.85686 19.4069 9.19826C19.4248 9.23416 19.4426 9.28811 19.4784 9.32401C19.2461 7.81466 20.4971 7.59901 20.7294 7.13186C20.7473 6.71856 20.4077 6.44901 20.1396 6.25136C19.8716 6.08966 19.6571 6.05371 19.4426 6.05371ZM21.3192 6.37716C21.3013 6.52091 21.3192 6.48496 21.3013 6.55686C21.3013 6.61076 21.3013 6.66466 21.2834 6.71856C21.2655 6.77246 21.2655 6.80841 21.2477 6.86231C21.2298 6.91621 21.2119 6.95216 21.194 7.00606C21.1762 7.04201 21.1583 7.07791 21.1404 7.13186C21.1225 7.14981 21.1047 7.18576 21.0868 7.20371C21.0689 7.22166 21.0689 7.23966 21.0511 7.25761C21.0153 7.29356 20.9975 7.34746 20.9617 7.38341L20.8545 7.49121C20.8188 7.52716 20.783 7.56311 20.7473 7.58106C20.6221 7.67091 20.4792 7.74276 20.3541 7.83261C20.3184 7.86856 20.2648 7.88651 20.229 7.92246C20.1933 7.95841 20.1575 7.97636 20.1218 8.01231L20.0145 8.12011C19.9788 8.15606 19.943 8.19201 19.9252 8.24591C19.8894 8.28186 19.8716 8.33576 19.8358 8.37166C19.818 8.42561 19.8001 8.46151 19.7644 8.51541C19.7465 8.56936 19.7286 8.60526 19.7107 8.65916C19.6929 8.71311 19.675 8.76701 19.675 8.80291C19.675 8.82091 19.675 8.85686 19.6571 8.87481C19.6571 8.89276 19.6571 8.92871 19.6392 8.94666V9.19826C19.6392 9.25216 19.6392 9.28811 19.6571 9.34201C19.6571 9.39591 19.675 9.43186 19.6929 9.48576C19.7107 9.53966 19.7286 9.57561 19.7465 9.62951C19.7644 9.66541 19.7822 9.68341 19.7822 9.71936L18.424 9.19826C18.1917 9.12636 17.9772 9.07246 17.7449 9.01856C17.6198 8.98261 17.4947 8.96466 17.3695 8.92871C17.0122 8.85686 16.6547 8.80291 16.2973 8.76701H16.2615C15.9041 8.73106 15.5645 8.71311 15.2071 8.71311C14.939 8.71311 14.6888 8.73106 14.4386 8.74901C14.0812 8.76701 13.7238 8.82091 13.3664 8.87481L13.0983 8.92871C12.9195 8.96466 12.7409 9.00061 12.5622 9.05451C12.4728 9.07246 12.3834 9.10841 12.2941 9.12636C12.2047 9.16231 12.1154 9.19826 12.0439 9.23416C11.9724 9.27011 11.9188 9.28811 11.8473 9.32401C11.8294 9.32401 11.8294 9.32401 11.8115 9.34201C11.7579 9.37791 11.7043 9.39591 11.6507 9.43186C11.6328 9.43186 11.615 9.44981 11.615 9.44981C11.5435 9.48576 11.4899 9.52166 11.4362 9.53966C11.4005 9.55761 11.3469 9.57561 11.3111 9.59356C11.2932 9.61151 11.2754 9.61151 11.2575 9.62951C11.2039 9.66541 11.1503 9.68341 11.0967 9.71936C11.0431 9.75526 10.9895 9.77326 10.9537 9.80916C10.918 9.84511 10.8644 9.86311 10.8286 9.89901C10.8286 9.89901 10.8107 9.89901 10.8107 9.91701C10.775 9.93496 10.7392 9.97091 10.7035 10.0069L10.6856 10.0248C10.6499 10.0428 10.632 10.0787 10.5963 10.0967C10.5784 10.0967 10.5784 10.1147 10.5605 10.1147C10.5248 10.1326 10.5069 10.1686 10.4712 10.1865C10.4712 10.2045 10.4533 10.2045 10.4533 10.2045L10.3461 10.3123L10.3282 10.3303L10.221 10.4381C10.221 10.4381 10.221 10.4561 10.2031 10.4561L10.1137 10.5459C10.0959 10.5639 10.078 10.5639 10.078 10.5819L9.97078 10.6897C9.97078 10.7076 9.95289 10.7076 9.95289 10.7256L9.80992 10.8694L9.79208 10.8873C9.70271 10.9951 9.59551 11.085 9.48826 11.1748C9.38105 11.2647 9.2738 11.3545 9.14871 11.4444C9.02362 11.5342 8.91636 11.6061 8.79128 11.6779C8.66619 11.7498 8.54105 11.8037 8.41596 11.8576C8.29087 11.9115 8.16578 11.9654 8.04069 12.0014C7.79047 12.0553 7.54029 12.1631 7.32583 12.1811C7.32583 12.0912 7.27218 12.1092 7.21858 12.1092C7.16497 12.1272 7.11137 12.1272 7.0756 12.1451C7.022 12.1631 6.98623 12.1811 6.93263 12.199C6.87903 12.217 6.84326 12.235 6.78966 12.2709C6.75394 12.3069 6.70029 12.3248 6.66457 12.3608C6.6288 12.3967 6.5752 12.4326 6.53948 12.4686C6.50371 12.5045 6.45011 12.5404 6.41439 12.5764C6.37862 12.6123 6.34291 12.6483 6.30714 12.7022C6.27142 12.7561 6.23565 12.792 6.21777 12.8459C6.18205 12.8819 6.16417 12.9358 6.12845 12.9897C6.11056 13.0436 6.0748 13.0975 6.05696 13.1514L6.00331 13.3131C5.98547 13.367 5.98547 13.4029 5.96759 13.4569V13.4748C5.94971 13.5287 5.94971 13.6006 5.94971 13.6365C5.96759 13.6186 5.96759 13.6545 5.96759 13.6904V13.7623C5.96759 13.7983 5.98547 13.8342 5.98547 13.8701C6.00331 13.9061 6.00331 13.942 6.02119 13.9779C6.03908 14.0139 6.05696 14.0498 6.09268 14.0858C6.11056 14.1217 6.14628 14.1576 6.16417 14.1936C6.19993 14.2295 6.23565 14.2654 6.27142 14.2834C6.30714 14.3194 6.34291 14.3553 6.37862 14.3733C6.5216 14.499 6.55736 14.535 6.73606 14.6428C6.77178 14.6608 6.78966 14.6787 6.82543 14.6967H6.84326V14.7326C6.84326 14.7865 6.86115 14.8225 6.87903 14.8764C6.89691 14.9303 6.91475 14.9842 6.93263 15.0201L6.98623 15.1279C6.98623 15.1459 7.00412 15.1459 7.00412 15.1639C7.022 15.2178 7.05772 15.2537 7.0756 15.2897C7.11137 15.3256 7.12921 15.3795 7.16497 15.4154L7.27218 15.5233L7.37943 15.6311H7.39732C7.43304 15.667 7.4688 15.685 7.50452 15.7209C7.54029 15.7569 7.59389 15.7748 7.62961 15.7928C7.66538 15.8108 7.71898 15.8467 7.77258 15.8647C7.80835 15.8826 7.84407 15.9006 7.89772 15.9006C7.89772 15.9006 7.91556 15.9006 7.91556 15.9186C7.93344 15.9186 7.96921 15.9365 7.98704 15.9365C7.96921 16.26 7.96921 16.5654 8.00493 16.6733C8.05853 16.799 8.32659 16.4217 8.57682 16.0084C8.54105 16.4217 8.52321 16.9069 8.57682 17.0506C8.6483 17.1944 8.98785 16.7272 9.30956 16.224C13.4914 15.2537 17.3159 18.1647 17.727 22.2795C17.6555 21.6326 16.8692 21.2733 16.4939 21.3631C16.3151 21.7944 16.0113 22.3694 15.5288 22.7108C15.5645 22.3154 15.5467 21.9201 15.4752 21.5248C15.3501 22.0639 15.0999 22.585 14.7425 23.0162C14.1884 23.0522 13.6166 22.7826 13.3306 22.3694C13.3127 22.3514 13.2949 22.3154 13.277 22.2975C13.2591 22.2615 13.2413 22.2076 13.2234 22.1717C13.2055 22.1358 13.1877 22.0819 13.1877 22.0459V21.9201V21.8303C13.1877 21.7944 13.2055 21.7404 13.2234 21.7045C13.2413 21.6686 13.2413 21.6147 13.2591 21.5787C13.277 21.5428 13.2949 21.4889 13.3306 21.4529C13.4378 21.1654 13.4378 20.9319 13.2413 20.8061L13.134 20.7522C13.1162 20.7522 13.0804 20.7342 13.0625 20.7342C13.0447 20.7342 13.0268 20.7162 13.0089 20.7162C12.9732 20.6983 12.9195 20.6983 12.8838 20.6803C12.8481 20.6623 12.7945 20.6623 12.7587 20.6623C12.723 20.6623 12.6694 20.6444 12.6337 20.6444H12.5443C12.4907 20.6444 12.4549 20.6444 12.4192 20.6623C12.3834 20.6623 12.3298 20.6803 12.2941 20.6803C12.2583 20.6983 12.2047 20.6983 12.169 20.7162C12.1332 20.7342 12.0975 20.7522 12.0439 20.7701L11.9366 20.824C10.5605 21.7225 11.3826 23.8428 12.3119 24.4537C11.9545 24.5256 11.5971 24.5975 11.4899 24.6694L11.472 24.6873C11.7222 24.849 11.9903 24.9748 12.2762 25.0826C12.6515 25.2084 13.0625 25.3162 13.2413 25.3701C13.7238 25.4779 14.2242 25.5139 14.7246 25.4779C17.3338 25.2983 19.4784 23.2858 19.8716 20.6623C19.8894 20.7162 19.8894 20.7701 19.9073 20.824C19.9252 20.9319 19.943 21.0397 19.9609 21.1654C19.9788 21.2194 19.9788 21.2733 19.9788 21.3272V21.3451C19.9788 21.399 19.9966 21.4529 19.9966 21.5069C19.9966 21.5787 20.0145 21.6326 20.0145 21.7045V22.4592C20.0145 22.5131 19.9966 22.549 19.9966 22.6029V22.6569C19.9966 22.7108 19.9788 22.7647 19.9788 22.8365C19.9609 22.8904 19.9609 22.9444 19.943 22.9983V23.0162C19.9252 23.0701 19.9252 23.124 19.9073 23.1779V23.1959C19.8894 23.2498 19.8894 23.3037 19.8716 23.3576V23.3756L19.818 23.5373V23.5553C19.8001 23.6092 19.7822 23.6811 19.7644 23.735C19.7465 23.7889 19.7286 23.8428 19.6929 23.9147C19.675 23.9686 19.6571 24.0404 19.6214 24.0944C19.6035 24.1483 19.5677 24.2022 19.5499 24.274C19.532 24.3279 19.4962 24.3819 19.4784 24.4358C19.4784 24.4537 19.4605 24.4717 19.4605 24.4717C19.4605 24.4717 19.4605 24.4897 19.4426 24.4897C19.0673 25.2623 18.4955 25.9451 17.7806 26.4842C17.727 26.5201 17.6912 26.5561 17.6376 26.592C17.6198 26.61 17.6019 26.61 17.6019 26.6279C17.5662 26.6639 17.5125 26.6819 17.4768 26.7178L17.4947 26.7537C17.584 26.7358 17.6555 26.7358 17.7449 26.7178C17.9057 26.6998 18.0487 26.6639 18.2095 26.6279C18.2453 26.6279 18.2989 26.61 18.3346 26.592C18.3703 26.592 18.3882 26.574 18.424 26.574C18.4597 26.574 18.5133 26.5561 18.5491 26.5561C18.5848 26.5381 18.6206 26.5381 18.6563 26.5201C19.2461 26.3764 19.818 26.1787 20.372 25.9451C19.4248 27.2389 18.1738 28.2811 16.7083 28.9639C17.3874 28.91 18.0666 28.8022 18.7278 28.6045C21.1047 27.9037 23.1063 26.2865 24.3037 24.1123C24.0535 25.4779 23.5173 26.7897 22.7131 27.9397C23.285 27.5623 23.8033 27.1131 24.2858 26.6279C25.6083 25.2444 26.484 23.4654 26.7699 21.5787C26.9665 22.5131 27.038 23.4834 26.9487 24.4358C31.2199 18.4522 27.3061 12.2529 25.6619 10.6178C25.6619 10.5998 25.644 10.5998 25.644 10.5819C25.644 10.6537 25.644 10.7256 25.6262 10.7975C25.6083 10.9412 25.5904 11.067 25.5725 11.1928C25.5368 11.3186 25.501 11.4623 25.4653 11.5881C25.4296 11.7139 25.376 11.8397 25.3224 11.9654C25.2687 12.0912 25.2151 12.217 25.1436 12.3248C25.0721 12.4326 25.0007 12.5584 24.9292 12.6662C24.8577 12.774 24.7683 12.8819 24.679 12.9897C24.5896 13.0975 24.5003 13.1873 24.393 13.2951C24.3394 13.349 24.2858 13.4029 24.2143 13.4389C24.1607 13.4748 24.125 13.5108 24.0714 13.5647C23.9641 13.6545 23.8569 13.7264 23.7318 13.7983C23.6246 13.8701 23.4995 13.942 23.3744 13.9959L22.9991 14.1576C22.874 14.2115 22.7488 14.2475 22.6238 14.2834C22.4987 14.3194 22.3557 14.3553 22.2306 14.3733C22.0876 14.3912 21.9625 14.4092 21.8374 14.4272C21.7481 14.4272 21.6408 14.4451 21.5515 14.4451C21.4085 14.4451 21.2834 14.4272 21.1583 14.4272C21.0153 14.4092 20.8902 14.3912 20.7651 14.3733C20.6221 14.3553 20.497 14.3194 20.372 14.2654C20.497 14.2475 20.64 14.2475 20.7651 14.2115C20.9081 14.1936 21.0332 14.1576 21.1583 14.1217C21.2834 14.0858 21.4264 14.0498 21.5336 13.9959L21.9089 13.8342C22.034 13.7803 22.1412 13.7084 22.2663 13.6365C22.3736 13.5647 22.4987 13.4748 22.6059 13.4029C22.7131 13.3131 22.8203 13.2233 22.9097 13.1334C23.017 13.0436 23.1063 12.9358 23.1956 12.8459C23.285 12.7381 23.3744 12.6303 23.4458 12.5225C23.4637 12.5045 23.4637 12.4865 23.4816 12.4686C23.5352 12.3787 23.6067 12.2709 23.6603 12.1811C23.7318 12.0553 23.7854 11.9475 23.839 11.8217C23.8926 11.6959 23.9462 11.5701 23.982 11.4444L24.0892 11.067C24.1071 10.9233 24.1429 10.7975 24.1429 10.6717C24.1607 10.5279 24.1607 10.4022 24.1607 10.2764C24.1607 10.1865 24.1607 10.0787 24.1429 9.98886C24.125 9.84511 24.1071 9.71936 24.0892 9.59356C24.0714 9.44981 24.0356 9.32401 23.9999 9.19826C23.9641 9.07246 23.9105 8.94666 23.8747 8.82091C23.8211 8.69511 23.7675 8.56936 23.7139 8.46151C23.6424 8.33576 23.5888 8.22791 23.5173 8.10216C23.4458 7.99436 23.3565 7.88651 23.285 7.77871C23.1956 7.67091 23.1063 7.58106 23.017 7.47326C22.9633 7.41936 22.9097 7.36541 22.8561 7.32951C22.588 7.11386 22.3199 6.93416 22.034 6.75451C21.9983 6.73651 21.9625 6.71856 21.9089 6.70061C21.6766 6.50291 21.4979 6.44901 21.3192 6.37716Z" fill="#DF234F"/>
</g>
</g>
<defs>
<clipPath id="clip0_232_301">
<rect width="35" height="35" fill="white"/>
</clipPath>
</defs>
</svg>
