<svg width="35" height="35" viewBox="0 0 35 35" fill="none" xmlns="http://www.w3.org/2000/svg">
<g clip-path="url(#clip0_535_143)">
<path d="M17.5 34.5C26.8888 34.5 34.5 26.8888 34.5 17.5C34.5 8.11116 26.8888 0.5 17.5 0.5C8.11116 0.5 0.5 8.11116 0.5 17.5C0.5 26.8888 8.11116 34.5 17.5 34.5Z" fill="white" stroke="#EEEEEE"/>
<path d="M17.5001 10.2437C9.59226 10.2437 3.18115 13.4926 3.18115 17.5001C3.18115 21.5077 9.59226 24.7566 17.5001 24.7566C25.4079 24.7566 31.819 21.5077 31.819 17.5001C31.819 13.4926 25.4079 10.2437 17.5001 10.2437ZM13.7742 18.9139C13.4325 19.2336 13.053 19.3655 12.6352 19.5015C12.2173 19.6376 11.6855 19.6095 11.0388 19.6095H9.57326L9.16711 21.9533H7.45591L8.98286 13.9845H12.2735C13.2635 13.9845 13.9856 14.2693 14.4396 14.7889C14.8936 15.3085 15.03 16.0461 14.8491 16.9772C14.7743 17.3609 14.6484 17.7176 14.4708 18.0355C14.2867 18.3634 14.0515 18.6599 13.7742 18.9139ZM18.769 19.6095L19.4442 16.2298C19.5211 15.8342 19.493 15.5403 19.3596 15.3966C19.226 15.2527 18.9419 15.1564 18.5077 15.1564H17.1506L16.2762 19.6095H14.5784L16.1053 11.8751H17.8031L17.3972 13.9845H18.9096C19.8614 13.9845 20.5177 14.1755 20.8788 14.5074C21.24 14.8393 21.3483 15.294 21.2039 16.0374L20.4935 19.6095H18.769ZM28.2047 16.9897C28.1302 17.3733 28.0041 17.724 27.8266 18.0415C27.649 18.3596 27.4169 18.6505 27.1303 18.9139C26.7886 19.2336 26.4089 19.3655 25.9912 19.5015C25.5736 19.6376 25.0413 19.6095 24.3947 19.6095H22.9291L22.5232 21.9533H20.812L22.3387 13.9845H25.6296C26.6196 13.9845 27.3417 14.2693 27.7955 14.7889C28.249 15.3085 28.3856 16.0587 28.2047 16.9897ZM24.9811 15.1564H23.809L23.1698 18.4376H24.2109C24.9005 18.4376 25.4147 18.3697 25.7522 18.1095C26.0902 17.8498 26.3177 17.4467 26.4361 16.839C26.5495 16.2551 26.498 15.7997 26.2814 15.5597C26.0646 15.3197 25.6312 15.1564 24.9811 15.1564ZM11.6252 15.1564H10.4529L9.81371 18.4376H10.8546C11.5444 18.4376 12.0584 18.3697 12.3961 18.1095C12.7338 17.8498 12.9616 17.4467 13.0798 16.839C13.1932 16.2551 13.1416 15.7997 12.9251 15.5597C12.7085 15.3197 12.2754 15.1564 11.6252 15.1564Z" fill="#6181B6"/>
</g>
<defs>
<clipPath id="clip0_535_143">
<rect width="35" height="35" fill="white"/>
</clipPath>
</defs>
</svg>
