<svg width="186" height="194" viewBox="0 0 186 194" fill="none" xmlns="http://www.w3.org/2000/svg">
<g style="mix-blend-mode:multiply">
<path d="M49.3424 194H23.4797L0.97229 181.975L76.9349 137.731L49.3424 194Z" fill="rgb(0,0,0,0.2)"/>
</g>
<path d="M183.804 140.045L112.613 181.142L49.3426 194L24.5427 180.808V172.16L183.804 134.084V140.045Z" fill="#8A5B6B"/>
<path d="M49.3424 194L51.5515 193.541V183.413L49.3424 184.101V194Z" fill="#C9BCA1"/>
<path d="M110.404 181.579L112.613 181.141V171.013L110.404 171.7V181.579Z" fill="#C9BCA1"/>
<path d="M24.5427 180.808V172.16L49.3426 185.393V194L24.5427 180.808Z" fill="#573A44"/>
<path d="M47.1335 192.812L49.3426 193.999V183.871L47.1335 184.559V192.812Z" fill="#826565"/>
<path d="M183.804 140.045L181.595 141.316V131.083L183.804 131.771V140.045Z" fill="#E5DED0"/>
<path d="M24.5427 180.807L26.7518 181.975V171.846L24.5427 172.534V180.807Z" fill="#826565"/>
<path d="M185.638 133.354L112.78 175.43L48.0922 185.559L22.7089 172.075V169.033L185.638 127.29V133.354Z" fill="#E5DED0"/>
<path d="M185.638 127.269L112.78 169.345L48.0922 182.537L22.7089 169.033L36.7552 160.926L114.406 116.078L140.331 101.114L185.638 127.269Z" fill="#F9F7E2"/>
<path d="M25.3761 168.991L140.352 102.615L183.053 127.29L112.301 168.116L48.2795 181.162L25.3761 168.991Z" fill="#F4ECD9"/>
<g style="mix-blend-mode:multiply">
<path d="M140.352 102.615L136.267 104.97L178.031 129.103L109.446 168.7L112.301 168.116L183.053 127.29L140.352 102.615Z" fill="#C5BDCD"/>
</g>
<path d="M140.352 102.615L135.517 105.387L137.122 106.992L140.352 105.137L180.865 128.54L183.054 127.29L140.352 102.615Z" fill="#826565"/>
<path d="M110.363 119.934L25.3761 168.991L27.6477 170.2L111.009 122.018C110.744 121.339 110.529 120.643 110.363 119.934Z" fill="#C9BCA1"/>
<g style="mix-blend-mode:multiply">
<path d="M124.367 121.83L114.072 137.877L71.4123 166.678H46.6958L40.2145 162.927L40.1311 160.468L38.6306 159.843L114.406 116.078L124.367 121.83Z" fill="#C5BDCD"/>
</g>
<path d="M70.412 29.1742L109.988 6.31251L137.768 0.373047L149.084 6.89603L138.789 22.943L99.2132 45.8047L71.4123 51.7442L60.1169 45.2212L70.412 29.1742Z" fill="#5E7C8E"/>
<path d="M110.3 11.8351L71.0164 34.5093L63.5348 46.1798L71.5583 50.8271L98.8798 44.9919L138.164 22.2969L145.666 10.6264L137.643 5.979L110.3 11.8351Z" fill="#BDA195"/>
<path d="M137.642 5.97909L110.3 11.8352L71.0163 34.5093L63.5346 46.1799L61.3256 44.9294L71.0163 29.8203L110.3 7.14614L137.642 1.29004L147.875 7.20866L145.666 10.6265L137.642 5.97909Z" fill="#335970"/>
<path d="M149.084 6.896V121.83L138.789 137.877V22.943L149.084 6.896Z" fill="#4E7288"/>
<path d="M99.2133 45.8051V160.718L138.789 137.877V22.9434L99.2133 45.8051Z" fill="#6C8A9D"/>
<path d="M71.4124 51.7441V166.678L99.2132 160.718V45.8047L71.4124 51.7441Z" fill="#4E7288"/>
<path d="M60.1169 45.2212V160.134L71.4123 166.678V51.7442L60.1169 45.2212Z" fill="#214A63"/>
<path d="M149.084 109.951V114.119L138.789 130.166V125.998L149.084 109.951Z" fill="#537A92"/>
<path d="M149.084 114.119L147.438 113.161V112.535L149.084 109.951V114.119Z" fill="#76969E"/>
<path d="M99.2133 148.86V153.028L138.789 130.166V125.998L99.2133 148.86Z" fill="#7192A7"/>
<path d="M71.4124 154.799V158.967L99.2132 153.028V148.86L71.4124 154.799Z" fill="#537A92"/>
<path d="M60.1169 148.277V152.445L71.4123 158.968V154.8L60.1169 148.277Z" fill="#23516D"/>
<path d="M60.1169 152.445L61.2215 148.902L60.1169 148.277V152.445Z" fill="#537A92"/>
<path d="M149.084 102.011V106.179L138.789 122.226V118.058L149.084 102.011Z" fill="#537A92"/>
<path d="M149.084 106.179L147.438 105.221V104.616L149.084 102.011V106.179Z" fill="#76969E"/>
<path d="M99.2133 140.92V145.088L138.789 122.227V118.059L99.2133 140.92Z" fill="#7192A7"/>
<path d="M71.4124 146.859V151.027L99.2132 145.088V140.92L71.4124 146.859Z" fill="#537A92"/>
<path d="M60.1169 140.336V144.504L71.4123 151.027V146.859L60.1169 140.336Z" fill="#23516D"/>
<path d="M60.1169 144.504L61.2215 140.982L60.1169 140.336V144.504Z" fill="#537A92"/>
<path d="M149.084 94.0708V98.2597L138.789 114.286V110.118L149.084 94.0708Z" fill="#537A92"/>
<path d="M149.084 98.2597L147.438 97.301V96.6758L149.084 94.0708V98.2597Z" fill="#76969E"/>
<path d="M99.2133 132.98V137.148L138.789 114.286V110.118L99.2133 132.98Z" fill="#7192A7"/>
<path d="M71.4124 138.918V143.087L99.2132 137.147V132.979L71.4124 138.918Z" fill="#537A92"/>
<path d="M60.1169 132.396V136.565L71.4123 143.088V138.919L60.1169 132.396Z" fill="#23516D"/>
<path d="M60.1169 136.565L61.2215 133.043L60.1169 132.396V136.565Z" fill="#537A92"/>
<path d="M149.084 86.1519V90.3199L138.789 106.346V102.178L149.084 86.1519Z" fill="#537A92"/>
<path d="M149.084 90.3199L147.438 89.3613V88.736L149.084 86.1519V90.3199Z" fill="#76969E"/>
<path d="M99.2133 125.039V129.208L138.789 106.346V102.178L99.2133 125.039Z" fill="#7192A7"/>
<path d="M71.4124 130.979V135.147L99.2132 129.207V125.039L71.4124 130.979Z" fill="#537A92"/>
<path d="M60.1169 124.456V128.624L71.4123 135.147V130.979L60.1169 124.456Z" fill="#23516D"/>
<path d="M60.1169 128.624L61.2215 125.102L60.1169 124.456V128.624Z" fill="#537A92"/>
<path d="M149.084 78.2119V82.38L138.789 98.4269V94.238L149.084 78.2119Z" fill="#537A92"/>
<path d="M149.084 82.38L147.438 81.4213V80.7961L149.084 78.2119V82.38Z" fill="#76969E"/>
<path d="M99.2133 117.1V121.268L138.789 98.4267V94.2378L99.2133 117.1Z" fill="#7192A7"/>
<path d="M71.4124 123.038V127.227L99.2132 121.267V117.099L71.4124 123.038Z" fill="#537A92"/>
<path d="M60.1169 116.516V120.684L71.4123 127.227V123.039L60.1169 116.516Z" fill="#23516D"/>
<path d="M60.1169 120.684L61.2215 117.162L60.1169 116.516V120.684Z" fill="#537A92"/>
<path d="M149.084 70.2715V74.4395L138.789 90.4865V86.2976L149.084 70.2715Z" fill="#537A92"/>
<path d="M149.084 74.4395L147.438 73.4809V72.8557L149.084 70.2715V74.4395Z" fill="#76969E"/>
<path d="M99.2133 109.159V113.327L138.789 90.4863V86.2974L99.2133 109.159Z" fill="#7192A7"/>
<path d="M71.4124 115.099V119.288L99.2132 113.328V109.16L71.4124 115.099Z" fill="#537A92"/>
<path d="M60.1169 108.576V112.744L71.4123 119.288V115.099L60.1169 108.576Z" fill="#23516D"/>
<path d="M60.1169 112.744L61.2215 109.222L60.1169 108.576V112.744Z" fill="#537A92"/>
<path d="M149.084 62.3311V66.4991L138.789 82.5461V78.378L149.084 62.3311Z" fill="#537A92"/>
<path d="M149.084 66.4991L147.438 65.5404V64.9152L149.084 62.3311V66.4991Z" fill="#76969E"/>
<path d="M99.2133 101.219V105.408L138.789 82.5465V78.3784L99.2133 101.219Z" fill="#7192A7"/>
<path d="M71.4124 107.18V111.348L99.2132 105.408V101.219L71.4124 107.18Z" fill="#537A92"/>
<path d="M60.1169 100.635V104.824L71.4123 111.347V107.179L60.1169 100.635Z" fill="#23516D"/>
<path d="M60.1169 104.824L61.2215 101.281L60.1169 100.635V104.824Z" fill="#537A92"/>
<path d="M149.084 54.3906V58.5587L138.789 74.6056V70.4376L149.084 54.3906Z" fill="#537A92"/>
<path d="M149.084 58.5587L147.438 57.6V56.9748L149.084 54.3906V58.5587Z" fill="#76969E"/>
<path d="M99.2133 93.2789V97.4678L138.789 74.606V70.438L99.2133 93.2789Z" fill="#7192A7"/>
<path d="M71.4124 99.2396V103.408L99.2132 97.4682V93.2793L71.4124 99.2396Z" fill="#537A92"/>
<path d="M60.1169 92.6953V96.8842L71.4123 103.407V99.2391L60.1169 92.6953Z" fill="#23516D"/>
<path d="M60.1169 96.8842L61.2215 93.3414L60.1169 92.6953V96.8842Z" fill="#537A92"/>
<path d="M149.084 46.4507V50.6187L138.789 66.6657V62.4976L149.084 46.4507Z" fill="#537A92"/>
<path d="M149.084 50.6187L147.438 49.6601V49.0349L149.084 46.4507V50.6187Z" fill="#76969E"/>
<path d="M99.2133 85.3389V89.5278L138.789 66.6661V62.498L99.2133 85.3389Z" fill="#7192A7"/>
<path d="M71.4124 91.2992V95.4672L99.2132 89.5277V85.3389L71.4124 91.2992Z" fill="#537A92"/>
<path d="M60.1169 84.7559V88.9447L71.4123 95.4677V91.2997L60.1169 84.7559Z" fill="#23516D"/>
<path d="M60.1169 88.9447L61.2215 85.4019L60.1169 84.7559V88.9447Z" fill="#537A92"/>
<path d="M149.084 38.5107V42.6788L138.789 58.7258V54.5577L149.084 38.5107Z" fill="#537A92"/>
<path d="M149.084 42.6788L147.438 41.7201V41.1158L149.084 38.5107V42.6788Z" fill="#76969E"/>
<path d="M99.2133 77.4198V81.5879L138.789 58.7261V54.5581L99.2133 77.4198Z" fill="#7192A7"/>
<path d="M71.4124 83.3594V87.5274L99.2132 81.588V77.4199L71.4124 83.3594Z" fill="#537A92"/>
<path d="M60.1169 76.8359V81.004L71.4123 87.527V83.3589L60.1169 76.8359Z" fill="#23516D"/>
<path d="M60.1169 81.004L61.2215 77.4612L60.1169 76.8359V81.004Z" fill="#537A92"/>
<path d="M149.084 30.5713V34.7602L138.789 50.7863V46.6183L149.084 30.5713Z" fill="#537A92"/>
<path d="M149.084 34.7602L147.438 33.8015V33.1763L149.084 30.5713V34.7602Z" fill="#76969E"/>
<path d="M99.2133 69.4794V73.6474L138.789 50.7857V46.6177L99.2133 69.4794Z" fill="#7192A7"/>
<path d="M71.4124 75.4194V79.5875L99.2132 73.648V69.48L71.4124 75.4194Z" fill="#537A92"/>
<path d="M60.1169 68.8955V73.0636L71.4123 79.5865V75.4185L60.1169 68.8955Z" fill="#23516D"/>
<path d="M60.1169 73.0636L61.2215 69.5415L60.1169 68.8955V73.0636Z" fill="#537A92"/>
<path d="M149.084 22.6514V26.8194L138.789 42.8664V38.6775L149.084 22.6514Z" fill="#537A92"/>
<path d="M149.084 26.8194L147.438 25.8608V25.2356L149.084 22.6514V26.8194Z" fill="#76969E"/>
<path d="M99.2133 61.539V65.707L138.789 42.8661V38.6772L99.2133 61.539Z" fill="#7192A7"/>
<path d="M71.4124 67.479V71.6471L99.2132 65.7076V61.5396L71.4124 67.479Z" fill="#537A92"/>
<path d="M60.1169 60.9556V65.1236L71.4123 71.6466V67.4786L60.1169 60.9556Z" fill="#23516D"/>
<path d="M60.1169 65.1236L61.2215 61.6016L60.1169 60.9556V65.1236Z" fill="#537A92"/>
<path d="M149.084 14.7109V18.879L138.789 34.9259V30.7371L149.084 14.7109Z" fill="#537A92"/>
<path d="M149.084 18.879L147.438 17.9203V17.2951L149.084 14.7109V18.879Z" fill="#76969E"/>
<path d="M99.2133 53.5985V57.7666L138.789 34.9257V30.7368L99.2133 53.5985Z" fill="#7192A7"/>
<path d="M71.4124 59.5386V63.7275L99.2132 57.7672V53.5991L71.4124 59.5386Z" fill="#537A92"/>
<path d="M60.1169 53.0156V57.1837L71.4123 63.7275V59.5386L60.1169 53.0156Z" fill="#23516D"/>
<path d="M60.1169 57.1837L61.2215 53.6617L60.1169 53.0156V57.1837Z" fill="#537A92"/>
<g style="mix-blend-mode:multiply">
<path d="M137.642 1.29004L135.037 6.54177L143.936 11.6685L136.392 23.339L138.163 22.297L147.875 7.20866L137.642 1.29004Z" fill="#897998"/>
</g>
<g style="mix-blend-mode:color-dodge">
<path d="M147.437 113.161L147.125 114.307L138.789 127.874L99.2131 150.694L71.4122 156.676H69.8492L68.6405 157.363L71.4122 158.968L99.2131 153.028L138.789 130.167L149.084 114.12L147.437 113.161Z" fill="#141414"/>
</g>
<g style="mix-blend-mode:color-dodge">
<path d="M147.437 105.22L147.125 106.366L138.789 119.933L99.2131 142.753L71.4122 148.735H69.8492L68.6405 149.422L71.4122 151.027L99.2131 145.088L138.789 122.226L149.084 106.179L147.437 105.22Z" fill="#141414"/>
</g>
<g style="mix-blend-mode:color-dodge">
<path d="M147.437 97.3008L147.125 98.4262L138.789 111.993L99.2131 134.813L71.4122 140.794H69.8492L68.6405 141.482L71.4122 143.087L99.2131 137.147L138.789 114.286L149.084 98.2594L147.437 97.3008Z" fill="#141414"/>
</g>
<g style="mix-blend-mode:color-dodge">
<path d="M147.437 89.3613L147.125 90.4867L138.789 104.054L99.2131 126.874L71.4122 132.855H69.8492L68.6405 133.563L71.4122 135.147L99.2131 129.208L138.789 106.346L149.084 90.32L147.437 89.3613Z" fill="#141414"/>
</g>
<g style="mix-blend-mode:color-dodge">
<path d="M147.437 81.4214L147.125 82.5468L138.789 96.1137L99.2131 118.934L71.4122 124.936H69.8492L68.6405 125.623L71.4122 127.228L99.2131 121.268L138.789 98.427L149.084 82.38L147.437 81.4214Z" fill="#141414"/>
</g>
<g style="mix-blend-mode:color-dodge">
<path d="M147.437 73.4805L147.125 74.6058L138.789 88.1728L99.2131 110.993L71.4122 116.995H69.8492L68.6405 117.683L71.4122 119.287L99.2131 113.327L138.789 90.4861L149.084 74.4391L147.437 73.4805Z" fill="#141414"/>
</g>
<g style="mix-blend-mode:color-dodge">
<path d="M147.437 65.5405L147.125 66.6867L138.789 80.2329L99.2131 103.053L71.4122 109.055H69.8492L68.6405 109.743L71.4122 111.347L99.2131 105.408L138.789 82.5461L149.084 66.4992L147.437 65.5405Z" fill="#141414"/>
</g>
<g style="mix-blend-mode:color-dodge">
<path d="M147.437 57.6006L147.125 58.7468L138.789 72.3138L99.2131 95.1338L71.4122 101.115H69.8492L68.6405 101.803L71.4122 103.407L99.2131 97.4679L138.789 74.6062L149.084 58.5592L147.437 57.6006Z" fill="#141414"/>
</g>
<g style="mix-blend-mode:color-dodge">
<path d="M147.437 49.6602L147.125 50.8064L138.789 64.3733L99.2131 87.1934L71.4122 93.1745H69.8492L68.6405 93.8623L71.4122 95.467L99.2131 89.5275L138.789 66.6658L149.084 50.6188L147.437 49.6602Z" fill="#141414"/>
</g>
<g style="mix-blend-mode:color-dodge">
<path d="M147.437 41.7202L147.125 42.8664L138.789 56.4334L99.2131 79.2534L71.4122 85.2346H69.8492L68.6405 85.9223L71.4122 87.527L99.2131 81.5876L138.789 58.7258L149.084 42.6789L147.437 41.7202Z" fill="#141414"/>
</g>
<g style="mix-blend-mode:color-dodge">
<path d="M147.437 33.8008L147.125 34.9262L138.789 48.4931L99.2131 71.3132L71.4122 77.2943H69.8492L68.6405 77.982L71.4122 79.5867L99.2131 73.6473L138.789 50.7856L149.084 34.7594L147.437 33.8008Z" fill="#141414"/>
</g>
<g style="mix-blend-mode:color-dodge">
<path d="M147.437 25.8608L147.125 26.9862L138.789 40.5532L99.2131 63.3732L71.4122 69.3544H69.8492L68.6405 70.0629L71.4122 71.6468L99.2131 65.7073L138.789 42.8665L149.084 26.8195L147.437 25.8608Z" fill="#141414"/>
</g>
<g style="mix-blend-mode:color-dodge">
<path d="M147.437 17.9204L147.125 19.0458L138.789 32.6128L99.2131 55.4328L71.4122 61.4348H69.8492L68.6405 62.1225L71.4122 63.7272L99.2131 57.7669L138.789 34.926L149.084 18.8791L147.437 17.9204Z" fill="#141414"/>
</g>
<g style="mix-blend-mode:color-dodge">
<path d="M121.345 33.0088L121.408 147.901L138.789 137.877L149.084 121.83V6.896L138.789 22.943L121.345 33.0088Z" fill="#141414"/>
</g>
<path d="M22.7089 169.034V172.076L48.0922 185.56V182.538L22.7089 169.034Z" fill="#826565"/>
<path d="M112.78 169.346V175.431L48.0922 185.559V182.538L112.78 169.346Z" fill="#C9BCA1"/>
<g style="mix-blend-mode:multiply">
<path d="M149.105 88.6524V121.83L138.685 137.877L121.304 147.901L99.2132 160.718L71.4124 166.678V112.494L73.0171 111.472V101.052L82.1034 96.3216V110.493L86.7091 108.263L92.6069 112.431V119.746L95.3161 118.225V99.4685L99.2132 97.1969L103.381 94.7586L107.049 96.28V104.783L113.51 101.511L117.052 102.824V112.264L121.22 109.659C121.22 109.659 121.22 109.284 121.22 108.617C121.575 104.595 122.846 90.0071 123.159 87.3395C123.492 84.276 127.327 82.8589 127.327 82.8589C128.541 83.9995 129.284 85.5533 129.411 87.2145V103.637L134.121 105.283V109.659L138.018 107.429V85.2138L138.622 84.8387L144.77 80.9624L147.062 83.2757V89.9862L149.105 88.6524Z" fill="#C7D6ED"/>
</g>
<g style="mix-blend-mode:multiply">
<path d="M117.448 15.6487L123.742 12.0225L126.701 20.1293H125.18L117.448 15.6487Z" fill="#897998"/>
</g>
<g style="mix-blend-mode:multiply">
<path d="M109.696 21.2966L118.24 16.3574L115.906 23.7557H113.968L109.696 21.2966Z" fill="#897998"/>
</g>
<g style="mix-blend-mode:multiply">
<path d="M114.989 23.7559L116.26 23.0474L120.178 26.2359H119.261L114.989 23.7559Z" fill="#897998"/>
</g>
<g style="mix-blend-mode:multiply">
<path d="M120.053 20.8388L121.325 20.1094L125.222 23.3188H124.326L120.053 20.8388Z" fill="#897998"/>
</g>
<path d="M118.949 15.6487V12.0225L126.701 16.4823V20.1293L118.949 15.6487Z" fill="#826565"/>
<path d="M132.974 16.4831V12.8569L126.701 16.4831V20.1302L132.974 16.4831Z" fill="#E5DED0"/>
<path d="M118.949 12.0232L125.243 8.39697L132.974 12.8568L126.701 16.483L118.949 12.0232Z" fill="#F8F6E1"/>
<path d="M111.634 21.2966V19.2959L115.906 21.755V23.7557L111.634 21.2966Z" fill="#826565"/>
<path d="M124.451 18.8379V16.8164L115.906 21.7555V23.7562L124.451 18.8379Z" fill="#E5DED0"/>
<path d="M111.634 19.2961L120.178 14.3569L124.451 16.8161L115.906 21.7552L111.634 19.2961Z" fill="#F8F6E1"/>
<path d="M115.906 23.7554V22.1299L120.178 24.589V26.2354L115.906 23.7554Z" fill="#826565"/>
<path d="M121.429 25.5062V23.8599L120.178 24.5893V26.2356L121.429 25.5062Z" fill="#E5DED0"/>
<path d="M115.906 22.1303L117.157 21.4009L121.429 23.86L120.178 24.5894L115.906 22.1303Z" fill="#F8F6E1"/>
<path d="M120.949 20.8384V19.2129L125.222 21.672V23.3184L120.949 20.8384Z" fill="#826565"/>
<path d="M126.493 22.5888V20.9424L125.222 21.6718V23.3182L126.493 22.5888Z" fill="#E5DED0"/>
<path d="M120.949 19.2128L122.221 18.4834L126.493 20.9425L125.222 21.672L120.949 19.2128Z" fill="#F8F6E1"/>
<g style="mix-blend-mode:multiply">
<path d="M76.9349 36.1559L86.0838 30.8833L90.356 42.658H88.1678L76.9349 36.1559Z" fill="#897998"/>
</g>
<path d="M79.1233 36.1552V33.8628L90.3562 40.3649V42.6574L79.1233 36.1552Z" fill="#826565"/>
<path d="M99.4841 37.3857V35.0933L90.3561 40.3658V42.6583L99.4841 37.3857Z" fill="#E5DED0"/>
<path d="M79.1233 33.8639L88.2513 28.5913L99.4842 35.0935L90.3562 40.366L79.1233 33.8639Z" fill="#F8F6E1"/>
<g style="mix-blend-mode:multiply">
<path d="M99.484 24.0691L101.922 22.6729L103.069 25.7989H102.485L99.484 24.0691Z" fill="#897998"/>
</g>
<path d="M100.068 24.0691V22.6729L103.069 24.4026V25.7989L100.068 24.0691Z" fill="#826565"/>
<path d="M105.486 24.4025V22.9854L103.068 24.4025V25.7988L105.486 24.4025Z" fill="#E5DED0"/>
<path d="M100.068 22.6722L102.506 21.2759L105.486 22.9848L103.069 24.4019L100.068 22.6722Z" fill="#F8F6E1"/>
<g style="mix-blend-mode:multiply">
<path d="M94.8785 26.6736L97.3168 25.2773L98.4422 28.4034H97.8795L94.8785 26.6736Z" fill="#897998"/>
</g>
<path d="M95.4618 26.6736V25.2773L98.4419 27.0071V28.4034L95.4618 26.6736Z" fill="#826565"/>
<path d="M100.88 27.0075V25.5903L98.442 27.0075V28.4038L100.88 27.0075Z" fill="#E5DED0"/>
<path d="M95.4618 25.2772L97.9001 23.8809L100.88 25.5898L98.4419 27.0069L95.4618 25.2772Z" fill="#F8F6E1"/>
</svg>
