<svg width="160" height="227" viewBox="0 0 160 227" fill="none" xmlns="http://www.w3.org/2000/svg">
<g clip-path="url(#clip0_204_27340)">
<g style="mix-blend-mode:multiply">
<path d="M86.1744 226.461L56.2851 227L0 194.878L35.7968 174.423L86.1744 226.461Z" fill="rgb(0,0,0,0.2)"/>
</g>
<path d="M152.722 38.3571V183.188L157.355 185.838V33.8008L152.722 38.3571Z" fill="#826565"/>
<path d="M152.722 34.1724V183.188L84.197 222.3V73.2847L152.722 34.1724Z" fill="#6C8A9D"/>
<g style="mix-blend-mode:multiply">
<path d="M146.754 190.166H140.506V46.1743L143.624 44.6636V188.391L146.754 190.166Z" fill="#897998"/>
</g>
<g style="mix-blend-mode:multiply">
<path d="M137.983 195.166H131.736V51.1744L134.854 49.6636V193.391L137.983 195.166Z" fill="#897998"/>
</g>
<g style="mix-blend-mode:multiply">
<path d="M129.213 200.178H122.966V56.1863L126.083 54.6636V198.391L129.213 200.178Z" fill="#897998"/>
</g>
<g style="mix-blend-mode:multiply">
<path d="M120.455 205.178H114.196V61.1863L117.313 59.6636V203.391L120.455 205.178Z" fill="#897998"/>
</g>
<g style="mix-blend-mode:multiply">
<path d="M111.685 210.178H105.438V66.1866L108.555 64.6758V208.403L111.685 210.178Z" fill="#897998"/>
</g>
<g style="mix-blend-mode:multiply">
<path d="M102.914 215.189H96.6672V71.1861L99.7847 69.6753V213.403L102.914 215.189Z" fill="#897998"/>
</g>
<g style="mix-blend-mode:multiply">
<path d="M94.1441 220.189H87.897V76.1981L91.0145 74.6753V218.403L94.1441 220.189Z" fill="#897998"/>
</g>
<path d="M143.624 40.5273L146.754 42.3019V190.166L143.624 188.391V40.5273Z" fill="#7B444A"/>
<path d="M149.022 41.0068L146.754 42.3018V190.166L149.022 188.871V41.0068Z" fill="#C7805E"/>
<g style="mix-blend-mode:multiply">
<path d="M149.022 41.0068L146.754 42.3018V45.9588L149.022 44.6639V41.0068Z" fill="#897998"/>
</g>
<path d="M134.854 45.5269L137.983 47.3014V195.166L134.854 193.391V45.5269Z" fill="#7B444A"/>
<path d="M140.264 46.0068L137.983 47.3018V195.166L140.264 193.871V46.0068Z" fill="#C7805E"/>
<g style="mix-blend-mode:multiply">
<path d="M140.264 46.0068L137.983 47.3018V50.9588L140.264 49.6639V46.0068Z" fill="#897998"/>
</g>
<path d="M126.083 50.5269L129.213 52.3134V200.178L126.083 198.391V50.5269Z" fill="#7B444A"/>
<path d="M131.494 51.0068L129.213 52.3138V200.178L131.494 198.871V51.0068Z" fill="#C7805E"/>
<g style="mix-blend-mode:multiply">
<path d="M131.494 51.0068L129.213 52.3138V55.9588L131.494 54.6639V51.0068Z" fill="#897998"/>
</g>
<path d="M117.313 55.5269L120.455 57.3134V205.178L117.313 203.391V55.5269Z" fill="#7B444A"/>
<path d="M122.723 56.0186L120.455 57.3135V205.178L122.723 203.883V56.0186Z" fill="#C7805E"/>
<g style="mix-blend-mode:multiply">
<path d="M122.723 56.0186L120.455 57.3135V60.9705L122.723 59.6636V56.0186Z" fill="#897998"/>
</g>
<path d="M108.555 60.5391L111.685 62.3136V210.178L108.555 208.403V60.5391Z" fill="#7B444A"/>
<path d="M113.953 61.0186L111.685 62.3135V210.178L113.953 208.883V61.0186Z" fill="#C7805E"/>
<g style="mix-blend-mode:multiply">
<path d="M113.953 61.0186L111.685 62.3135V65.9705L113.953 64.6756V61.0186Z" fill="#897998"/>
</g>
<path d="M99.7847 65.5391L102.914 67.3256V215.19L99.7847 213.403V65.5391Z" fill="#7B444A"/>
<path d="M105.195 66.0186L102.914 67.3255V215.19L105.195 213.883V66.0186Z" fill="#C7805E"/>
<g style="mix-blend-mode:multiply">
<path d="M105.195 66.0186L102.914 67.3255V70.9705L105.195 69.6756V66.0186Z" fill="#897998"/>
</g>
<path d="M91.0144 70.5391L94.1441 72.3256V220.19L91.0144 218.403V70.5391Z" fill="#7B444A"/>
<path d="M96.4246 71.0303L94.144 72.3252V220.189L96.4246 218.894V71.0303Z" fill="#C7805E"/>
<g style="mix-blend-mode:multiply">
<path d="M96.4246 71.0303L94.144 72.3252V75.9823L96.4246 74.6753V71.0303Z" fill="#897998"/>
</g>
<path d="M73.1464 213.499V69.6153L52.2942 57.709V201.592L73.1464 213.499Z" fill="#172C3D"/>
<path d="M53.1919 201.089V59.2559L72.2488 70.131V211.964L53.1919 201.089Z" fill="#23394A"/>
<path d="M72.2488 166.401V165.418L62.8598 171.137L53.1919 154.183V155.886L62.1441 171.581L53.1919 177.025V178.02L62.5566 172.312L72.2488 189.315V187.612L63.2723 171.869L72.2488 166.401Z" fill="#172C3D"/>
<path d="M62.1441 75.5147L53.1919 80.9583V81.9535L62.5566 76.2461L72.2488 93.2483V91.5457L63.2723 75.8025L72.2488 70.3349V70.131L71.5937 69.7593L62.8598 75.071L54.1502 59.8074L53.1919 59.2559V59.8314L62.1441 75.5147Z" fill="#172C3D"/>
<path d="M63.2723 195.885L72.2488 190.418V189.435L62.8598 195.154L53.1919 178.2V179.902L62.1441 195.598L53.1919 201.041V201.089L53.9925 201.545L62.5566 196.329L71.0964 211.293L72.2488 211.964V211.629L63.2723 195.885Z" fill="#172C3D"/>
<path d="M72.2488 142.385V141.401L62.8598 147.121L53.1919 130.167V131.869L62.1441 147.564L53.1919 153.008V154.003L62.5566 148.296L72.2488 165.298V163.595L63.2723 147.852L72.2488 142.385Z" fill="#172C3D"/>
<path d="M72.2488 94.3514V93.3682L62.8598 99.0876L53.1919 82.1333V83.8359L62.1441 99.5312L53.1919 104.975V105.97L62.5566 100.263L72.2488 117.265V115.562L63.2723 99.819L72.2488 94.3514Z" fill="#172C3D"/>
<path d="M72.2488 118.368V117.385L62.8598 123.104L53.1919 106.15V107.853L62.1441 123.548L53.1919 128.991V129.987L62.5566 124.279L72.2488 141.281V139.579L63.2723 123.836L72.2488 118.368Z" fill="#172C3D"/>
<path d="M73.1462 213.499V69.6157L84.0151 73.1888V225.226L73.1462 213.499Z" fill="#6E4C4C"/>
<path d="M103.412 0L105.571 1.235L116.44 21.1029L52.2941 57.7092L31.7574 43.3569L29.5981 42.1338L103.412 0Z" fill="#F4ECD9"/>
<path d="M73.1462 69.6154L137.304 33.0091L157.841 31.0547L160 32.2897L86.1743 74.4235L84.0151 73.1885L73.1462 69.6154Z" fill="#E5DED0"/>
<path d="M73.1463 69.6157L137.304 33.0094L116.44 21.103L52.2942 57.7094L73.1463 69.6157Z" fill="#4A6D82"/>
<path d="M54.0894 57.7094L116.44 22.1343L135.496 33.0095L73.1462 68.5846L54.0894 57.7094Z" fill="#537A92"/>
<path d="M117.993 23.0211L116.598 22.2178L120.588 29.5558L107.597 27.1578L105.838 28.165L109.902 35.6349L96.9099 33.2368L95.151 34.232L99.2147 41.714L86.223 39.3159L84.4641 40.3231L88.5521 47.865L75.5483 45.4669L73.8015 46.4741L77.8409 53.956L64.8371 51.558L63.0782 52.5772L67.154 60.0711L54.126 57.673L56.2367 58.8721L67.712 60.9704L71.2177 67.4211L72.6127 68.2125L68.7795 61.1622L81.9046 63.5603L83.5786 62.613L79.43 55.1551L92.5672 57.5531L94.2291 56.5939L90.1169 49.04L103.254 51.4381L104.916 50.4909L100.792 42.925L113.953 45.323L115.603 44.3638L111.479 36.798L124.64 39.196L126.29 38.2608L122.165 30.6829L135.339 33.081L135.497 32.985L133.629 31.9179L121.656 29.7237L117.993 23.0211ZM82.7173 62.9128L68.2215 60.2629L63.8667 52.2654L78.3625 54.9153L82.7173 62.9128ZM93.4042 56.8097L78.8477 54.1599L74.4929 46.1504L88.9888 48.8122L93.4042 56.8097ZM104.079 50.7067L89.5953 48.0568L85.2405 40.0473L99.7242 42.7092L104.079 50.7067ZM114.766 44.6036L100.282 41.9658L95.9273 33.9682L110.387 36.6061L114.766 44.6036ZM125.453 38.5006L110.969 35.8507L106.614 27.8412L121.098 30.5031L125.453 38.5006Z" fill="#4A6D82"/>
<path d="M160 32.29V184.327L157.356 185.838V36.8224L88.8187 75.9347V224.95L86.1743 226.461V74.4239L160 32.29Z" fill="#E5DED0"/>
<path d="M84.0151 73.1885V225.225L86.1743 226.46V74.4235L84.0151 73.1885Z" fill="#826565"/>
<path d="M29.5981 42.1338V194.171L31.7574 195.394V43.3568L29.5981 42.1338Z" fill="#826565"/>
<path d="M31.7573 43.3569L52.2941 57.7093V201.593L31.7573 195.394V43.3569Z" fill="#745454"/>
<path d="M31.7574 43.3568L105.571 1.235L103.412 0L29.5981 42.1338L31.7574 43.3568Z" fill="#F8F6E1"/>
<path d="M86.1743 74.4235L160 32.2897L157.841 31.0547L84.0151 73.1885L86.1743 74.4235Z" fill="#F8F6E1"/>
<g style="mix-blend-mode:multiply">
<path d="M157.356 185.837H149.022V41.5702L152.722 39.46V183.187L157.356 185.837Z" fill="#897998"/>
</g>
<path d="M53.1919 59.8315L62.1441 75.5148L53.1919 80.9584V59.8315Z" fill="#273F52"/>
<path d="M72.2487 94.3516L63.2722 99.8191L72.2487 115.562V94.3516Z" fill="#273F52"/>
<path d="M62.5566 124.279L53.1919 130.167L62.8598 147.121L72.2488 141.282L62.5566 124.279Z" fill="#273F52"/>
<path d="M53.1919 155.886L62.1441 171.581L53.1919 177.025V155.886Z" fill="#273F52"/>
<path d="M72.2487 190.417L63.2722 195.885L72.2487 211.628V190.417Z" fill="#273F52"/>
<path d="M63.8665 52.2656L68.2213 60.2631L82.7171 62.913L78.3623 54.9155L63.8665 52.2656Z" fill="#5A849E"/>
<path d="M90.1047 49.0044L94.2291 56.5583L103.254 51.4144L90.1047 49.0044Z" fill="#5A849E"/>
<path d="M86.2229 39.3761L99.2146 41.7622L95.1509 34.2803L86.2229 39.3761Z" fill="#5A849E"/>
<path d="M106.614 27.8535L110.969 35.851L125.453 38.5009L121.098 30.5034L106.614 27.8535Z" fill="#5A849E"/>
</g>
<defs>
<clipPath id="clip0_204_27340">
<rect width="160" height="227" fill="white"/>
</clipPath>
</defs>
</svg>
