<svg width="93" height="218" viewBox="0 0 93 218" fill="none" xmlns="http://www.w3.org/2000/svg">
<g clip-path="url(#clip0_204_22815)">
<g style="mix-blend-mode:multiply">
<path d="M60.4423 217.259L47.9923 168.405L29.7158 179.174L45.959 175.228L0 202.326L27.1116 218.303H52.9866L55.7572 216.677L60.4423 217.259Z" fill="rgb(0,0,0,0.2)"/>
</g>
<path d="M45.5309 161.448V217.223L18.3717 201.209V145.435L45.5309 161.448Z" fill="#826565"/>
<path d="M16.5405 141.04V196.814L21.178 199.546V143.783L16.5405 141.04Z" fill="#826565"/>
<path d="M18.3241 136.657V140.433L21.1542 142.108V138.32L18.3241 136.657Z" fill="#826565"/>
<path d="M57.6122 159.809V215.572L60.4423 217.247V161.484L57.6122 159.809Z" fill="#826565"/>
<path d="M48.3491 159.797V215.56L52.9866 218.303V162.529L48.3491 159.797Z" fill="#826565"/>
<path d="M91.2163 143.395V199.109L60.4423 217.247V156.507L89.2781 139.498V142.921L91.2163 143.395Z" fill="#E5DED0"/>
<path d="M93 139V194.714L88.3862 197.434V141.72L93 139Z" fill="#E5DED0"/>
<path d="M57.6003 154.832V215.572L52.9866 218.304V157.551L57.6003 154.832Z" fill="#E5DED0"/>
<path d="M48.3491 154.819V215.56L45.5309 217.223V156.47L48.3491 154.819Z" fill="#E5DED0"/>
<path d="M18.3242 136.705L21.1543 138.369L16.5405 141.1L21.178 143.832L18.3718 145.495L45.5309 161.509L48.3491 159.846L52.9866 162.577L57.6004 159.858L60.4423 161.533L91.2164 143.395L88.3863 141.719L93.0001 139L88.3507 136.268L91.1688 134.605L18.3242 136.705Z" fill="#F7F7FF"/>
<path d="M19.7392 131.667V136.705L17.9556 136.062V141.1L19.7868 142.169V145.495L45.5309 160.671L48.3491 159.008L52.9866 161.752L57.6004 159.032L60.4423 160.696V156.507L19.7392 131.667Z" fill="#365D66"/>
<path d="M19.7867 140.457V145.495L22.593 143.832V138.806L19.7867 140.457Z" fill="#4B7680"/>
<path d="M86.9355 131.23V136.268L89.7537 134.605V129.566L86.9355 131.23Z" fill="#65838A"/>
<path d="M86.9712 136.693V141.719L91.5849 139V133.974L86.9712 136.693Z" fill="#65838A"/>
<path d="M45.5309 155.633V160.671L48.3491 159.008V153.981L45.5309 155.633Z" fill="#65838A"/>
<g style="mix-blend-mode:multiply">
<path d="M45.5309 155.633V157.211L48.3491 155.56V153.981L45.5309 155.633Z" fill="#BEC9D1"/>
</g>
<path d="M52.9866 156.713V161.752L57.6003 159.032V153.994L52.9866 156.713Z" fill="#65838A"/>
<g style="mix-blend-mode:multiply">
<path d="M52.9866 156.713V158.292L57.6003 155.572V153.994L52.9866 156.713Z" fill="#BEC9D1"/>
</g>
<path d="M60.4423 155.669V160.695L89.8013 143.395V138.356L60.4423 155.669Z" fill="#65838A"/>
<path d="M89.8013 138.357V143.395L86.9832 141.732V136.693L89.8013 138.357Z" fill="#94A9AE"/>
<g style="mix-blend-mode:multiply">
<path d="M60.4423 155.669V157.248L89.8013 139.935V138.356L60.4423 155.669Z" fill="#BEC9D1"/>
</g>
<path d="M16.5405 133.403V136.062L21.178 138.805V136.147L16.5405 133.403Z" fill="#826565"/>
<path d="M45.5309 153.812V156.47L18.3717 140.457V137.798L45.5309 153.812Z" fill="#826565"/>
<path d="M18.3241 129.02V131.679L21.1542 133.342V130.683L18.3241 129.02Z" fill="#826565"/>
<path d="M45.5309 153.812V156.471L48.3491 154.819V152.161L45.5309 153.812Z" fill="#E5DED0"/>
<path d="M52.9866 154.892V157.551L57.6003 154.832V152.173L52.9866 154.892Z" fill="#E5DED0"/>
<path d="M88.3862 134.034V136.693L93 133.974V131.315L88.3862 134.034Z" fill="#E5DED0"/>
<path d="M60.4423 153.836V156.507L91.2163 138.357V135.698L60.4423 153.836Z" fill="#E5DED0"/>
<path d="M91.1688 126.908V129.567L88.3506 131.23V128.571L91.1688 126.908Z" fill="#E5DED0"/>
<path d="M48.3491 152.161V154.819L52.9866 157.551V154.892L48.3491 152.161Z" fill="#826565"/>
<path d="M57.6003 152.173V154.832L60.4423 156.507V153.848L57.6003 152.173Z" fill="#826565"/>
<path d="M63.9978 110.894L61.1915 112.557L56.5421 109.826L51.9283 112.545L49.0983 110.87L18.3242 129.02L21.1543 130.684L16.5405 133.403L21.178 136.147L18.3718 137.798L45.5309 153.812L48.3491 152.161L52.9866 154.892L57.6004 152.173L60.4423 153.848L91.2164 135.698L88.3863 134.034L93.0001 131.315L88.3507 128.571L91.1688 126.908L63.9978 110.894Z" fill="#F7F7FF"/>
<path d="M45.5309 150.594V153.812L18.3717 137.798V134.581L45.5309 150.594Z" fill="#826565"/>
<path d="M16.5405 130.186V133.403L21.178 136.147V132.929L16.5405 130.186Z" fill="#826565"/>
<path d="M18.3241 125.803V129.579L21.1542 131.254V127.466L18.3241 125.803Z" fill="#826565"/>
<path d="M57.6122 148.956V152.173L60.4423 153.848V150.619L57.6122 148.956Z" fill="#826565"/>
<path d="M48.3491 148.943V152.161L52.9866 154.892V151.675L48.3491 148.943Z" fill="#826565"/>
<path d="M91.2163 132.529V135.698L60.4423 153.836V145.641L89.2781 128.644V132.068L91.2163 132.529Z" fill="#E5DED0"/>
<path d="M93 128.146V131.315L88.3862 134.034V130.866L93 128.146Z" fill="#E5DED0"/>
<path d="M57.6003 143.978V152.173L52.9866 154.892V146.697L57.6003 143.978Z" fill="#E5DED0"/>
<path d="M48.3491 143.965V152.16L45.5309 153.812V145.616L48.3491 143.965Z" fill="#E5DED0"/>
<path d="M18.3242 125.851L21.1543 127.515L16.5405 130.246L21.178 132.978L18.3718 134.629L45.5309 150.655L48.3491 148.992L52.9866 151.723L57.6004 149.004L60.4423 150.679L91.2164 132.541L88.3863 130.865L93.0001 128.146L88.3507 125.414L91.1688 123.751L18.3242 125.851Z" fill="#F7F7FF"/>
<path d="M19.7392 120.825V125.851L17.9556 125.208V130.246L19.7868 131.315V134.629L45.5309 149.817L48.3491 148.154L52.9866 150.898L57.6004 148.178L60.4423 149.842V145.641L19.7392 120.825Z" fill="#365D66"/>
<path d="M19.7867 129.603V134.629L22.593 132.978V127.939L19.7867 129.603Z" fill="#4B7680"/>
<path d="M86.9355 120.376V125.415L89.7537 123.751V118.713L86.9355 120.376Z" fill="#65838A"/>
<path d="M86.9712 125.827V130.865L91.5849 128.146V123.12L86.9712 125.827Z" fill="#65838A"/>
<path d="M45.5309 144.779V149.818L48.3491 148.154V143.128L45.5309 144.779Z" fill="#65838A"/>
<path d="M52.9866 145.86V150.898L57.6003 148.179V143.14L52.9866 145.86Z" fill="#65838A"/>
<path d="M60.4423 144.815V149.841L89.8013 132.541V127.502L60.4423 144.815Z" fill="#65838A"/>
<path d="M89.8013 127.503V132.541L86.9832 130.878V125.839L89.8013 127.503Z" fill="#94A9AE"/>
<path d="M16.5405 122.549V125.208L21.178 127.952V125.281L16.5405 122.549Z" fill="#826565"/>
<path d="M45.5309 142.958V145.617L18.3717 129.603V126.944L45.5309 142.958Z" fill="#826565"/>
<path d="M18.3241 118.167V120.825L21.1542 122.489V119.83L18.3241 118.167Z" fill="#826565"/>
<path d="M45.5309 142.958V145.617L48.3491 143.965V141.307L45.5309 142.958Z" fill="#E5DED0"/>
<path d="M52.9866 144.038V146.697L57.6003 143.978V141.319L52.9866 144.038Z" fill="#E5DED0"/>
<path d="M88.3862 123.18V125.827L93 123.12V120.461L88.3862 123.18Z" fill="#E5DED0"/>
<path d="M60.4423 142.982V145.641L91.2163 127.503V124.844L60.4423 142.982Z" fill="#E5DED0"/>
<path d="M91.1688 116.054V118.713L88.3506 120.376V117.717L91.1688 116.054Z" fill="#E5DED0"/>
<path d="M48.3491 141.307V143.965L52.9866 146.697V144.038L48.3491 141.307Z" fill="#826565"/>
<path d="M57.6003 141.319V143.978L60.4423 145.641V142.982L57.6003 141.319Z" fill="#826565"/>
<path d="M63.9978 100.04L61.1915 101.703L56.5421 98.9717L51.9283 101.691L49.0983 100.016L18.3242 118.166L21.1543 119.83L16.5405 122.549L21.178 125.281L18.3718 126.944L45.5309 142.958L48.3491 141.307L52.9866 144.038L57.6004 141.319L60.4423 142.982L91.2164 124.844L88.3863 123.18L93.0001 120.461L88.3507 117.717L91.1688 116.054L63.9978 100.04Z" fill="#F7F7FF"/>
<path d="M45.5309 139.741V142.958L18.3717 126.944V123.727L45.5309 139.741Z" fill="#826565"/>
<path d="M16.5405 119.332V122.549L21.178 125.281V122.076L16.5405 119.332Z" fill="#826565"/>
<path d="M18.3241 114.949V118.725L21.1542 120.4V116.613L18.3241 114.949Z" fill="#826565"/>
<path d="M57.6122 138.102V141.319L60.4423 142.982V139.777L57.6122 138.102Z" fill="#826565"/>
<path d="M48.3491 138.089V141.307L52.9866 144.038V140.821L48.3491 138.089Z" fill="#826565"/>
<path d="M91.2163 121.675V124.844L60.4423 142.982V134.787L89.2781 117.79V121.202L91.2163 121.675Z" fill="#E5DED0"/>
<path d="M93 117.292V120.461L88.3862 123.18V120.012L93 117.292Z" fill="#E5DED0"/>
<path d="M57.6003 133.124V141.319L52.9866 144.039V135.844L57.6003 133.124Z" fill="#E5DED0"/>
<path d="M48.3491 133.112V141.307L45.5309 142.958V134.763L48.3491 133.112Z" fill="#E5DED0"/>
<path d="M18.3242 114.998L21.1543 116.661L16.5405 119.381L21.178 122.124L18.3718 123.776L45.5309 139.801L48.3491 138.138L52.9866 140.87L57.6004 138.15L60.4423 139.826L91.2164 121.675L88.3863 120.012L93.0001 117.292L88.3507 114.561L91.1688 112.897L18.3242 114.998Z" fill="#F7F7FF"/>
<path d="M19.7392 109.971V114.997L17.9556 114.354V119.38L19.7868 120.461V123.775L45.5309 138.963L48.3491 137.3L52.9866 140.044L57.6004 137.324L60.4423 138.988V134.787L19.7392 109.971Z" fill="#365D66"/>
<path d="M19.7867 118.749V123.776L22.593 122.124V117.086L19.7867 118.749Z" fill="#4B7680"/>
<path d="M86.9355 109.522V114.561L89.7537 112.897V107.859L86.9355 109.522Z" fill="#65838A"/>
<path d="M86.9712 114.974V120.012L91.5849 117.292V112.266L86.9712 114.974Z" fill="#65838A"/>
<path d="M45.5309 133.925V138.964L48.3491 137.3V132.274L45.5309 133.925Z" fill="#65838A"/>
<path d="M52.9866 135.006V140.044L57.6003 137.325V132.286L52.9866 135.006Z" fill="#65838A"/>
<path d="M60.4423 133.962V138.988L89.8013 121.675V116.649L60.4423 133.962Z" fill="#65838A"/>
<path d="M89.8013 116.649V121.675L86.9832 120.024V114.985L89.8013 116.649Z" fill="#94A9AE"/>
<path d="M16.5405 111.695V114.354L21.178 117.086V114.427L16.5405 111.695Z" fill="#826565"/>
<path d="M45.5309 132.104V134.763L18.3717 118.749V116.09L45.5309 132.104Z" fill="#826565"/>
<path d="M18.3241 107.312V109.971L21.1542 111.635V108.976L18.3241 107.312Z" fill="#826565"/>
<path d="M45.5309 132.104V134.763L48.3491 133.111V130.44L45.5309 132.104Z" fill="#E5DED0"/>
<path d="M52.9866 133.184V135.843L57.6003 133.124V130.465L52.9866 133.184Z" fill="#E5DED0"/>
<path d="M88.3862 112.326V114.973L93 112.266V109.595L88.3862 112.326Z" fill="#E5DED0"/>
<path d="M60.4423 132.128V134.787L91.2163 116.649V113.99L60.4423 132.128Z" fill="#E5DED0"/>
<path d="M91.1688 105.212V107.859L88.3506 109.522V106.863L91.1688 105.212Z" fill="#E5DED0"/>
<path d="M48.3491 130.44V133.111L52.9866 135.843V133.184L48.3491 130.44Z" fill="#826565"/>
<path d="M57.6003 130.465V133.124L60.4423 134.787V132.128L57.6003 130.465Z" fill="#826565"/>
<path d="M63.9978 89.1861L61.1915 90.8494L56.5421 88.1177L51.9283 90.8372L49.0983 89.1618L18.3242 107.312L21.1543 108.976L16.5405 111.695L21.178 114.427L18.3718 116.09L45.5309 132.104L48.3491 130.44L52.9866 133.184L57.6004 130.465L60.4423 132.128L91.2164 113.99L88.3863 112.326L93.0001 109.607L88.3507 106.863L91.1688 105.212L63.9978 89.1861Z" fill="#F7F7FF"/>
<path d="M45.5309 128.887V132.104L18.3717 116.09V112.873L45.5309 128.887Z" fill="#826565"/>
<path d="M16.5405 108.478V111.695L21.178 114.427V111.222L16.5405 108.478Z" fill="#826565"/>
<path d="M18.3241 104.095V107.871L21.1542 109.534V105.759L18.3241 104.095Z" fill="#826565"/>
<path d="M57.6122 127.248V130.465L60.4423 132.128V128.923L57.6122 127.248Z" fill="#826565"/>
<path d="M48.3491 127.235V130.441L52.9866 133.184V129.967L48.3491 127.235Z" fill="#826565"/>
<path d="M91.2163 110.821V113.99L60.4423 132.128V123.933L89.2781 106.936V110.348L91.2163 110.821Z" fill="#E5DED0"/>
<path d="M93 106.438V109.607L88.3862 112.327V109.158L93 106.438Z" fill="#E5DED0"/>
<path d="M57.6003 122.27V130.465L52.9866 133.185V124.99L57.6003 122.27Z" fill="#E5DED0"/>
<path d="M48.3491 122.246V130.441L45.5309 132.104V123.909L48.3491 122.246Z" fill="#E5DED0"/>
<path d="M18.3242 104.144L21.1543 105.807L16.5405 108.527L21.178 111.27L18.3718 112.934L45.5309 128.935L48.3491 127.284L52.9866 130.016L57.6004 127.296L60.4423 128.972L91.2164 110.821L88.3863 109.158L93.0001 106.438L88.3507 103.707L91.1688 102.043L18.3242 104.144Z" fill="#F7F7FF"/>
<path d="M19.7392 99.1055V104.144L17.9556 103.5V108.527L19.7868 109.607V112.934L45.5309 128.11L48.3491 126.447L52.9866 129.19L57.6004 126.471L60.4423 128.134V123.933L19.7392 99.1055Z" fill="#365D66"/>
<path d="M19.7867 107.895V112.934L22.593 111.27V106.232L19.7867 107.895Z" fill="#4B7680"/>
<path d="M86.9355 98.6682V103.707L89.7537 102.043V97.0049L86.9355 98.6682Z" fill="#65838A"/>
<path d="M86.9712 104.132V109.158L91.5849 106.438V101.412L86.9712 104.132Z" fill="#65838A"/>
<path d="M45.5309 123.071V128.109L48.3491 126.446V121.42L45.5309 123.071Z" fill="#65838A"/>
<path d="M52.9866 124.152V129.19L57.6003 126.471V121.432L52.9866 124.152Z" fill="#65838A"/>
<path d="M60.4423 123.108V128.134L89.8013 110.821V105.795L60.4423 123.108Z" fill="#65838A"/>
<path d="M89.8013 105.795V110.821L86.9832 109.17V104.131L89.8013 105.795Z" fill="#94A9AE"/>
<path d="M16.5405 100.841V103.5L21.178 106.232V103.573L16.5405 100.841Z" fill="#826565"/>
<path d="M45.5309 121.25V123.909L18.3717 107.895V105.236L45.5309 121.25Z" fill="#826565"/>
<path d="M18.3241 96.4463V99.1173L21.1542 100.781V98.1217L18.3241 96.4463Z" fill="#826565"/>
<path d="M45.5309 121.25V123.909L48.3491 122.246V119.587L45.5309 121.25Z" fill="#E5DED0"/>
<path d="M52.9866 122.33V124.989L57.6003 122.27V119.611L52.9866 122.33Z" fill="#E5DED0"/>
<path d="M88.3862 101.473V104.12L93 101.4V98.7412L88.3862 101.473Z" fill="#E5DED0"/>
<path d="M60.4423 121.275V123.933L91.2163 105.795V103.136L60.4423 121.275Z" fill="#E5DED0"/>
<path d="M91.1688 94.3462V97.005L88.3506 98.6683V96.0095L91.1688 94.3462Z" fill="#E5DED0"/>
<path d="M48.3491 119.587V122.246L52.9866 124.99V122.331L48.3491 119.587Z" fill="#826565"/>
<path d="M57.6003 119.611V122.27L60.4423 123.933V121.274L57.6003 119.611Z" fill="#826565"/>
<path d="M63.9978 78.3325L61.1915 79.9958L56.5421 77.2642L51.9283 79.9837L49.0983 78.3083L18.3242 96.4466L21.1543 98.122L16.5405 100.842L21.178 103.573L18.3718 105.237L45.5309 121.25L48.3491 119.587L52.9866 122.331L57.6004 119.611L60.4423 121.275L91.2164 103.136L88.3863 101.473L93.0001 98.7412L88.3507 96.0095L91.1688 94.3463L63.9978 78.3325Z" fill="#F7F7FF"/>
<path d="M45.5309 118.033V121.25L18.3717 105.236V102.019L45.5309 118.033Z" fill="#826565"/>
<path d="M16.5405 97.624V100.841L21.178 103.573V100.368L16.5405 97.624Z" fill="#826565"/>
<path d="M18.3241 93.2412V97.017L21.1542 98.6803V94.9045L18.3241 93.2412Z" fill="#826565"/>
<path d="M57.6122 116.394V119.611L60.4423 121.274V118.057L57.6122 116.394Z" fill="#826565"/>
<path d="M48.3491 116.382V119.587L52.9866 122.331V119.114L48.3491 116.382Z" fill="#826565"/>
<path d="M91.2163 99.9671V103.136L60.4423 121.274V113.079L89.2781 96.082V99.4936L91.2163 99.9671Z" fill="#E5DED0"/>
<path d="M93 95.5845V98.7411L88.3862 101.473V98.304L93 95.5845Z" fill="#E5DED0"/>
<path d="M57.6003 111.416V119.611L52.9866 122.331V114.136L57.6003 111.416Z" fill="#E5DED0"/>
<path d="M48.3491 111.392V119.587L45.5309 121.25V113.055L48.3491 111.392Z" fill="#E5DED0"/>
<path d="M18.3242 93.2898L21.1543 94.9531L16.5405 97.6726L21.178 100.416L18.3718 102.068L45.5309 118.093L48.3491 116.43L52.9866 119.162L57.6004 116.442L60.4423 118.118L91.2164 99.9672L88.3863 98.304L93.0001 95.5844L88.3507 92.8406L91.1688 91.1895L18.3242 93.2898Z" fill="#F7F7FF"/>
<path d="M19.7392 88.2515V93.2899L17.9556 92.6464V97.6727L19.7868 98.7532V102.068L45.5309 117.256L48.3491 115.593L52.9866 118.336L57.6004 115.617L60.4423 117.28V113.079L19.7392 88.2515Z" fill="#365D66"/>
<path d="M19.7867 97.0412V102.068L22.593 100.416V95.3779L19.7867 97.0412Z" fill="#4B7680"/>
<path d="M86.9355 87.8142V92.8405L89.7537 91.1893V86.1509L86.9355 87.8142Z" fill="#65838A"/>
<path d="M86.9712 93.2654V98.3039L91.5849 95.5843V90.5459L86.9712 93.2654Z" fill="#65838A"/>
<path d="M45.5309 112.218V117.256L48.3491 115.593V110.566L45.5309 112.218Z" fill="#65838A"/>
<path d="M52.9866 113.298V118.336L57.6003 115.617V110.578L52.9866 113.298Z" fill="#65838A"/>
<path d="M60.4423 112.254V117.28L89.8013 99.9672V94.9409L60.4423 112.254Z" fill="#65838A"/>
<path d="M89.8013 94.9411V99.9674L86.9832 98.3163V93.2778L89.8013 94.9411Z" fill="#94A9AE"/>
<path d="M16.5405 89.9878V92.6466L21.178 95.3783V92.7195L16.5405 89.9878Z" fill="#826565"/>
<path d="M45.5309 110.396V113.055L18.3717 97.0412V94.3823L45.5309 110.396Z" fill="#826565"/>
<path d="M18.3241 85.5928V88.2516L21.1542 89.927V87.2682L18.3241 85.5928Z" fill="#826565"/>
<path d="M45.5309 110.396V113.055L48.3491 111.392V108.733L45.5309 110.396Z" fill="#E5DED0"/>
<path d="M52.9866 111.477V114.136L57.6003 111.416V108.757L52.9866 111.477Z" fill="#E5DED0"/>
<path d="M88.3862 90.6189V93.2656L93 90.546V87.8872L88.3862 90.6189Z" fill="#E5DED0"/>
<path d="M60.4423 110.421V113.079L91.2163 94.9411V92.2822L60.4423 110.421Z" fill="#E5DED0"/>
<path d="M91.1688 83.4922V86.151L88.3506 87.8143V85.1555L91.1688 83.4922Z" fill="#E5DED0"/>
<path d="M48.3491 108.733V111.392L52.9866 114.136V111.477L48.3491 108.733Z" fill="#826565"/>
<path d="M57.6003 108.757V111.416L60.4423 113.079V110.421L57.6003 108.757Z" fill="#826565"/>
<path d="M63.9978 67.4785L61.1915 69.1418L56.5421 66.4102L51.9283 69.1297L49.0983 67.4543L18.3242 85.5926L21.1543 87.268L16.5405 89.9876L21.178 92.7192L18.3718 94.3825L45.5309 110.396L48.3491 108.733L52.9866 111.477L57.6004 108.757L60.4423 110.421L91.2164 92.2822L88.3863 90.6067L93.0001 87.8872L88.3507 85.1555L91.1688 83.4922L63.9978 67.4785Z" fill="#F7F7FF"/>
<path d="M45.5309 107.179V110.396L18.3717 94.3824V91.165L45.5309 107.179Z" fill="#826565"/>
<path d="M16.5405 86.77V89.9873L21.178 92.719V89.5017L16.5405 86.77Z" fill="#826565"/>
<path d="M18.3241 82.3872V86.163L21.1542 87.8263V84.0505L18.3241 82.3872Z" fill="#826565"/>
<path d="M57.6122 105.54V108.757L60.4423 110.421V107.203L57.6122 105.54Z" fill="#826565"/>
<path d="M48.3491 105.528V108.733L52.9866 111.477V108.26L48.3491 105.528Z" fill="#826565"/>
<path d="M91.2163 89.1136V92.2823L60.4423 110.421V102.226L89.2781 85.2285V88.6401L91.2163 89.1136Z" fill="#E5DED0"/>
<path d="M93 84.7305V87.8871L88.3862 90.6066V87.45L93 84.7305Z" fill="#E5DED0"/>
<path d="M57.6003 100.562V108.757L52.9866 111.477V103.282L57.6003 100.562Z" fill="#E5DED0"/>
<path d="M48.3491 100.538V108.733L45.5309 110.396V102.201L48.3491 100.538Z" fill="#E5DED0"/>
<path d="M18.3242 82.4358L21.1543 84.0991L16.5405 86.8186L21.178 89.5624L18.3718 91.2136L45.5309 107.227L48.3491 105.576L52.9866 108.308L57.6004 105.588L60.4423 107.264L91.2164 89.1132L88.3863 87.45L93.0001 84.7304L88.3507 81.9866L91.1688 80.3354L18.3242 82.4358Z" fill="#F7F7FF"/>
<path d="M19.7392 77.3975V82.4359L17.9556 81.7924V86.8187L19.7868 87.8992V91.2137L45.5309 106.402L48.3491 104.739L52.9866 107.482L57.6004 104.763L60.4423 106.426V102.225L19.7392 77.3975Z" fill="#365D66"/>
<path d="M19.7867 86.1877V91.214L22.593 89.5628V84.5244L19.7867 86.1877Z" fill="#4B7680"/>
<path d="M86.9355 76.9607V81.9869L89.7537 80.3358V75.2974L86.9355 76.9607Z" fill="#65838A"/>
<path d="M86.9712 82.4119V87.4503L91.5849 84.7308V79.6924L86.9712 82.4119Z" fill="#65838A"/>
<path d="M45.5309 101.364V106.402L48.3491 104.739V99.7124L45.5309 101.364Z" fill="#65838A"/>
<path d="M52.9866 102.444V107.483L57.6003 104.763V99.7246L52.9866 102.444Z" fill="#65838A"/>
<path d="M60.4423 101.4V106.426L89.8013 89.1132V84.0869L60.4423 101.4Z" fill="#65838A"/>
<path d="M89.8013 84.0871V89.1134L86.9832 87.4623V82.4238L89.8013 84.0871Z" fill="#94A9AE"/>
<path d="M16.5405 79.1338V81.7926L21.178 84.5243V81.8655L16.5405 79.1338Z" fill="#826565"/>
<path d="M45.5309 99.5425V102.201L18.3717 86.1876V83.5288L45.5309 99.5425Z" fill="#826565"/>
<path d="M18.3241 74.7388V77.3976L21.1542 79.073V76.4142L18.3241 74.7388Z" fill="#826565"/>
<path d="M45.5309 99.5422V102.201L48.3491 100.538V97.8789L45.5309 99.5422Z" fill="#E5DED0"/>
<path d="M52.9866 100.623V103.282L57.6003 100.562V97.9033L52.9866 100.623Z" fill="#E5DED0"/>
<path d="M88.3862 79.7527V82.4116L93 79.692V77.0332L88.3862 79.7527Z" fill="#E5DED0"/>
<path d="M60.4423 99.5666V102.225L91.2163 84.0871V81.4282L60.4423 99.5666Z" fill="#E5DED0"/>
<path d="M91.1688 72.6382V75.297L88.3506 76.9603V74.3015L91.1688 72.6382Z" fill="#E5DED0"/>
<path d="M48.3491 97.8789V100.538L52.9866 103.282V100.623L48.3491 97.8789Z" fill="#826565"/>
<path d="M57.6003 97.9033V100.562L60.4423 102.225V99.5666L57.6003 97.9033Z" fill="#826565"/>
<path d="M63.9978 56.6245L61.1915 58.2878L56.5421 55.5562L51.9283 58.2636L49.0983 56.6003L18.3242 74.7386L21.1543 76.414L16.5405 79.1336L21.178 81.8652L18.3718 83.5285L45.5309 99.5422L48.3491 97.8789L52.9866 100.623L57.6004 97.9032L60.4423 99.5665L91.2164 81.4282L88.3863 79.7527L93.0001 77.0332L88.3507 74.3015L91.1688 72.6382L63.9978 56.6245Z" fill="#F7F7FF"/>
<path d="M45.5309 96.3252V99.5425L18.3717 83.5288V80.3115L45.5309 96.3252Z" fill="#826565"/>
<path d="M16.5405 75.9165V79.1338L21.178 81.8655V78.6482L16.5405 75.9165Z" fill="#826565"/>
<path d="M18.3241 71.5337V75.3095L21.1542 76.9728V73.197L18.3241 71.5337Z" fill="#826565"/>
<path d="M57.6122 94.686V97.9033L60.4423 99.5666V96.3493L57.6122 94.686Z" fill="#826565"/>
<path d="M48.3491 94.6616V97.8789L52.9866 100.623V97.4054L48.3491 94.6616Z" fill="#826565"/>
<path d="M91.2163 78.2596V81.4283L60.4423 99.5667V91.3716L89.2781 74.3745V77.7861L91.2163 78.2596Z" fill="#E5DED0"/>
<path d="M93 73.877V77.0336L88.3862 79.7531V76.5965L93 73.877Z" fill="#E5DED0"/>
<path d="M57.6003 89.7085V97.9035L52.9866 100.623V92.428L57.6003 89.7085Z" fill="#E5DED0"/>
<path d="M48.3491 89.6841V97.8791L45.5309 99.5424V91.3474L48.3491 89.6841Z" fill="#E5DED0"/>
<path d="M18.3242 71.5823L21.1543 73.2456L16.5405 75.9651L21.178 78.7089L18.3718 80.3601L45.5309 96.3738L48.3491 94.7226L52.9866 97.4543L57.6004 94.7348L60.4423 96.4102L91.2164 78.2597L88.3863 76.5964L93.0001 73.8769L88.3507 71.1331L91.1688 69.4819L18.3242 71.5823Z" fill="#F7F7FF"/>
<path d="M19.7392 66.5439V71.5824L17.9556 70.9389V75.9652L19.7868 77.0457V80.3602L45.5309 95.5483L48.3491 93.885L52.9866 96.6167L57.6004 93.8971L60.4423 95.5726V91.3719L19.7392 66.5439Z" fill="#365D66"/>
<path d="M19.7867 75.3337V80.36L22.593 78.7088V73.6704L19.7867 75.3337Z" fill="#4B7680"/>
<path d="M86.9355 66.1066V71.1329L89.7537 69.4818V64.4434L86.9355 66.1066Z" fill="#65838A"/>
<path d="M86.9712 71.5579V76.5963L91.5849 73.8768V68.8384L86.9712 71.5579Z" fill="#65838A"/>
<path d="M45.5309 90.5095V95.548L48.3491 93.8847V88.8584L45.5309 90.5095Z" fill="#65838A"/>
<path d="M52.9866 91.5901V96.6164L57.6003 93.8969V88.8706L52.9866 91.5901Z" fill="#65838A"/>
<path d="M60.4423 90.5462V95.5725L89.8013 78.2597V73.2334L60.4423 90.5462Z" fill="#65838A"/>
<path d="M89.8013 73.2331V78.2594L86.9832 76.6082V71.5698L89.8013 73.2331Z" fill="#94A9AE"/>
<path d="M16.5405 68.2798V70.9386L21.178 73.6703V71.0115L16.5405 68.2798Z" fill="#826565"/>
<path d="M45.5309 88.6885V91.3473L18.3717 75.3336V72.6748L45.5309 88.6885Z" fill="#826565"/>
<path d="M18.3241 63.8848V66.5436L21.1542 68.219V65.5602L18.3241 63.8848Z" fill="#826565"/>
<path d="M45.5309 88.6887V91.3475L48.3491 89.6842V87.0254L45.5309 88.6887Z" fill="#E5DED0"/>
<path d="M52.9866 89.7689V92.4277L57.6003 89.7082V87.0493L52.9866 89.7689Z" fill="#E5DED0"/>
<path d="M88.3862 68.8992V71.5581L93 68.8385V66.1797L88.3862 68.8992Z" fill="#E5DED0"/>
<path d="M60.4423 88.7126V91.3714L91.2163 73.233V70.5742L60.4423 88.7126Z" fill="#E5DED0"/>
<path d="M91.1688 61.7847V64.4435L88.3506 66.1068V63.448L91.1688 61.7847Z" fill="#E5DED0"/>
<path d="M48.3491 87.0254V89.6842L52.9866 92.428V89.7692L48.3491 87.0254Z" fill="#826565"/>
<path d="M57.6003 87.0493V89.7082L60.4423 91.3714V88.7126L57.6003 87.0493Z" fill="#826565"/>
<path d="M63.9978 45.771L61.1915 47.4342L56.5421 44.6904L51.9283 47.41L49.0983 45.7467L18.3242 63.885L21.1543 65.5604L16.5405 68.28L21.178 71.0117L18.3718 72.6749L45.5309 88.6887L48.3491 87.0254L52.9866 89.7692L57.6004 87.0496L60.4423 88.7129L91.2164 70.5746L88.3863 68.8992L93.0001 66.1796L88.3507 63.4479L91.1688 61.7847L63.9978 45.771Z" fill="#F7F7FF"/>
<path d="M45.5309 85.4712V88.6885L18.3717 72.6748V69.4575L45.5309 85.4712Z" fill="#826565"/>
<path d="M16.5405 65.0625V68.2798L21.178 71.0115V67.7942L16.5405 65.0625Z" fill="#826565"/>
<path d="M18.3241 60.6797V64.4555L21.1542 66.1188V62.343L18.3241 60.6797Z" fill="#826565"/>
<path d="M57.6122 83.832V87.0493L60.4423 88.7126V85.4953L57.6122 83.832Z" fill="#826565"/>
<path d="M48.3491 83.8081V87.0254L52.9866 89.7692V86.5519L48.3491 83.8081Z" fill="#826565"/>
<path d="M91.2163 67.4056V70.5743L60.4423 88.7126V80.5176L89.2781 63.5205V66.9321L91.2163 67.4056Z" fill="#E5DED0"/>
<path d="M93 63.0229V66.1796L88.3862 68.8991V65.7425L93 63.0229Z" fill="#E5DED0"/>
<path d="M57.6003 78.8545V87.0495L52.9866 89.7691V81.574L57.6003 78.8545Z" fill="#E5DED0"/>
<path d="M48.3491 78.8301V87.0251L45.5309 88.6884V80.4934L48.3491 78.8301Z" fill="#E5DED0"/>
<path d="M18.3242 60.7283L21.1543 62.3916L16.5405 65.1111L21.178 67.8549L18.3718 69.5061L45.5309 85.5198L48.3491 83.8686L52.9866 86.6003L57.6004 83.8808L60.4423 85.5562L91.2164 67.4057L88.3863 65.7424L93.0001 63.0229L88.3507 60.2791L91.1688 58.6279L18.3242 60.7283Z" fill="#F7F7FF"/>
<path d="M19.7392 55.6899V60.7284L17.9556 60.0849V65.1112L19.7868 66.1917V69.5062L45.5309 84.6943L48.3491 83.031L52.9866 85.7627L57.6004 83.0553L60.4423 84.7186V80.5179L19.7392 55.6899Z" fill="#365D66"/>
<path d="M19.7867 64.4797V69.506L22.593 67.8548V62.8164L19.7867 64.4797Z" fill="#4B7680"/>
<path d="M86.9355 55.2526V60.2789L89.7537 58.6278V53.5894L86.9355 55.2526Z" fill="#65838A"/>
<path d="M86.9712 60.7039V65.7423L91.5849 63.0228V57.9844L86.9712 60.7039Z" fill="#65838A"/>
<g style="mix-blend-mode:multiply">
<path d="M88.7668 60.4734V61.5175L91.585 59.8664V58.8223L88.7668 60.4734Z" fill="#BEC9D1"/>
</g>
<path d="M45.5309 79.6555V84.694L48.3491 83.0307V78.0044L45.5309 79.6555Z" fill="#65838A"/>
<g style="mix-blend-mode:multiply">
<path d="M45.5309 80.4934V81.5375L48.3491 79.8742V78.8301L45.5309 80.4934Z" fill="#BEC9D1"/>
</g>
<path d="M52.9866 80.7361V85.7624L57.6003 83.055V78.0166L52.9866 80.7361Z" fill="#65838A"/>
<path d="M60.4423 79.6922V84.7184L89.8013 67.4057V62.3794L60.4423 79.6922Z" fill="#65838A"/>
<path d="M89.8013 62.3796V67.4059L86.9832 65.7547V60.7163L89.8013 62.3796Z" fill="#94A9AE"/>
<g style="mix-blend-mode:multiply">
<path d="M60.4423 80.5178V81.5619L89.8013 64.2492V63.2051L60.4423 80.5178Z" fill="#BEC9D1"/>
</g>
<g style="mix-blend-mode:multiply">
<path d="M52.9866 81.574V82.6181L57.6003 79.8986V78.8545L52.9866 81.574Z" fill="#BEC9D1"/>
</g>
<g style="mix-blend-mode:multiply">
<path d="M45.5309 91.3474V92.3915L48.3491 90.7282V89.6841L45.5309 91.3474Z" fill="#BEC9D1"/>
</g>
<g style="mix-blend-mode:multiply">
<path d="M60.4423 91.3714V92.4155L89.8013 75.1028V74.0708L60.4423 91.3714Z" fill="#BEC9D1"/>
</g>
<g style="mix-blend-mode:multiply">
<path d="M52.9866 92.428V93.4721L57.6003 90.7526V89.7085L52.9866 92.428Z" fill="#BEC9D1"/>
</g>
<g style="mix-blend-mode:multiply">
<path d="M45.5309 102.201V103.245L48.3491 101.582V100.538L45.5309 102.201Z" fill="#BEC9D1"/>
</g>
<g style="mix-blend-mode:multiply">
<path d="M60.4423 102.225V103.27L89.8013 85.9689V84.9248L60.4423 102.225Z" fill="#BEC9D1"/>
</g>
<g style="mix-blend-mode:multiply">
<path d="M52.9866 103.282V104.326L57.6003 101.606V100.562L52.9866 103.282Z" fill="#BEC9D1"/>
</g>
<g style="mix-blend-mode:multiply">
<path d="M45.5309 113.055V114.099L48.3491 112.436V111.392L45.5309 113.055Z" fill="#BEC9D1"/>
</g>
<g style="mix-blend-mode:multiply">
<path d="M60.4423 113.079V114.124L89.8013 96.8229V95.7788L60.4423 113.079Z" fill="#BEC9D1"/>
</g>
<g style="mix-blend-mode:multiply">
<path d="M52.9866 114.136V115.18L57.6003 112.46V111.416L52.9866 114.136Z" fill="#BEC9D1"/>
</g>
<g style="mix-blend-mode:multiply">
<path d="M45.5309 123.909V124.953L48.3491 123.29V122.246L45.5309 123.909Z" fill="#BEC9D1"/>
</g>
<g style="mix-blend-mode:multiply">
<path d="M60.4423 123.933V124.978L89.8013 107.677V106.633L60.4423 123.933Z" fill="#BEC9D1"/>
</g>
<g style="mix-blend-mode:multiply">
<path d="M52.9866 124.99V126.034L57.6003 123.314V122.27L52.9866 124.99Z" fill="#BEC9D1"/>
</g>
<g style="mix-blend-mode:multiply">
<path d="M45.5309 134.763V135.807L48.3491 134.144V133.112L45.5309 134.763Z" fill="#BEC9D1"/>
</g>
<g style="mix-blend-mode:multiply">
<path d="M60.4423 134.787V135.831L89.8013 118.53V117.486L60.4423 134.787Z" fill="#BEC9D1"/>
</g>
<g style="mix-blend-mode:multiply">
<path d="M52.9866 135.844V136.888L57.6003 134.168V133.124L52.9866 135.844Z" fill="#BEC9D1"/>
</g>
<g style="mix-blend-mode:multiply">
<path d="M45.5309 145.616V146.661L48.3491 144.997V143.965L45.5309 145.616Z" fill="#BEC9D1"/>
</g>
<g style="mix-blend-mode:multiply">
<path d="M60.4423 145.641V146.685L89.8013 129.384V128.34L60.4423 145.641Z" fill="#BEC9D1"/>
</g>
<g style="mix-blend-mode:multiply">
<path d="M52.9866 146.697V147.741L57.6003 145.022V143.978L52.9866 146.697Z" fill="#BEC9D1"/>
</g>
<path d="M16.5405 57.4258V60.0846L21.178 62.8163V60.1575L16.5405 57.4258Z" fill="#826565"/>
<path d="M45.5309 77.8345V80.4933L18.3717 64.4796V61.8208L45.5309 77.8345Z" fill="#826565"/>
<path d="M18.3241 53.0308V55.6896L21.1542 57.365V54.7062L18.3241 53.0308Z" fill="#826565"/>
<path d="M45.5309 77.8347V80.4935L48.3491 78.8302V76.1714L45.5309 77.8347Z" fill="#E5DED0"/>
<path d="M52.9866 78.9153V81.5742L57.6003 78.8546V76.1958L52.9866 78.9153Z" fill="#E5DED0"/>
<path d="M88.3862 58.0452V60.7041L93 57.9845V55.3257L88.3862 58.0452Z" fill="#E5DED0"/>
<path d="M60.4423 77.859V80.5179L91.2163 62.3795V59.7207L60.4423 77.859Z" fill="#E5DED0"/>
<path d="M91.1688 50.9307V53.5895L88.3506 55.2528V52.594L91.1688 50.9307Z" fill="#E5DED0"/>
<path d="M48.3491 76.1714V78.8302L52.9866 81.574V78.9152L48.3491 76.1714Z" fill="#826565"/>
<path d="M57.6003 76.1958V78.8546L60.4423 80.5179V77.8591L57.6003 76.1958Z" fill="#826565"/>
<path d="M63.9978 34.917L61.1915 36.5802L56.5421 33.8364L51.9283 36.556L49.0983 34.8927L18.3242 53.031L21.1543 54.7064L16.5405 57.426L21.178 60.1577L18.3718 61.8209L45.5309 77.8346L48.3491 76.1714L52.9866 78.9152L57.6004 76.1956L60.4423 77.8589L91.2164 59.7206L88.3863 58.0452L93.0001 55.3256L88.3507 52.5939L91.1688 50.9307L63.9978 34.917Z" fill="#F7F7FF"/>
<path d="M48.3491 75.2851L45.5309 76.9484L19.8819 61.821L22.6882 60.1577L18.0507 57.426L22.6644 54.7065L19.8343 53.031L49.0982 35.779L51.9283 37.4544L56.542 34.7349L61.1795 37.4665L63.9977 35.8154L89.6586 50.9307L86.8405 52.594L91.4899 55.3256L86.8761 58.0452L89.7062 59.7206L60.4423 76.9727L57.6122 75.2972L52.9866 78.0168L48.3491 75.2851Z" fill="#C2D6D5"/>
<g style="mix-blend-mode:multiply">
<path d="M58.0759 37.4665L59.6336 36.556L56.5419 34.7349L54.9961 35.6454L58.0759 37.4665Z" fill="#BEC9D1"/>
<path d="M48.8246 37.4542L50.3824 36.5315L49.0981 35.7788L47.5404 36.7015L48.8246 37.4542Z" fill="#BEC9D1"/>
<g style="mix-blend-mode:multiply">
<path d="M43.985 76.0259L45.5308 76.9486L46.7913 76.1958L43.985 76.0259Z" fill="#989898"/>
</g>
<g style="mix-blend-mode:multiply">
<path d="M91.4898 55.3257L86.8404 52.594L89.6586 50.9307L63.9977 35.8154L62.4518 36.726L86.555 50.9307L83.7368 52.594L88.3863 55.3257L83.7725 58.0452L86.6026 59.7206L58.8845 76.0621L60.4423 76.9727L89.7062 59.7206L86.8761 58.0452L91.4898 55.3257Z" fill="#989898"/>
</g>
<g style="mix-blend-mode:multiply">
<path d="M52.9865 76.1958L51.4407 77.1064L52.9865 78.0169L56.0544 76.2201L52.9865 76.1958Z" fill="#989898"/>
</g>
</g>
<g style="mix-blend-mode:multiply">
<path d="M47.1005 37.4542L49.5144 36.0338L49.0982 35.7788L46.6843 37.2114L47.1005 37.4542Z" fill="#BEC9D1"/>
<path d="M56.3518 37.4665L58.7657 36.0461L56.5421 34.7349L54.1282 36.1553L56.3518 37.4665Z" fill="#BEC9D1"/>
</g>
<path d="M22.6881 60.1577L19.8818 61.821L22.2957 63.2415L22.6881 63.0108V60.1577Z" fill="#E5DED0"/>
<path d="M86.8405 52.5938V55.4468L89.0641 56.758L91.4899 55.3254L86.8405 52.5938Z" fill="#826565"/>
<path d="M54.6989 37.6367C54.6989 37.0539 54.6989 36.4226 54.6989 35.9005L51.9521 37.5153L49.122 35.8398L19.8344 53.0312L22.2126 54.4638L49.0626 38.6808L51.8927 40.3562L54.6989 38.6444C54.6989 38.2801 54.6989 37.9281 54.6989 37.6367Z" fill="#E5DED0"/>
<path d="M63.9977 35.8154L61.1915 37.4666L59.7645 36.6289V37.6365C59.7645 38.3043 59.8359 38.972 59.9072 39.6276L61.1915 40.3804L63.9977 38.7171L87.2329 52.3633L89.6111 50.9307L63.9977 35.8154Z" fill="#826565"/>
<path d="M22.6644 57.5596V54.7065L18.0507 57.4261L20.4645 58.8466L22.6644 57.5596Z" fill="#E5DED0"/>
<path d="M86.8761 60.898L87.2804 61.1408L89.7062 59.7203L86.8761 58.0449V60.898Z" fill="#826565"/>
<g style="mix-blend-mode:multiply">
<path d="M43.9019 72.6868L38.2893 72.6747L34.9955 70.7322H33.4853L18.3718 61.8208L21.178 60.1576L16.5405 57.4259L21.1543 54.7063L18.3242 53.0309L49.0983 34.8926L43.9019 72.6868Z" fill="#989898"/>
</g>
<path d="M43.7472 41.3396L29.3352 49.8382L29.3947 61.8819L43.9018 70.429L64.3425 70.4654L82.5239 59.7451L82.4526 47.7014L67.9574 39.1543L43.7472 41.3396Z" fill="#F7F7FF"/>
<path d="M81.4894 47.847L67.6245 39.6763L44.2942 41.8616L30.5125 49.9838L30.5719 61.5175L44.4488 69.6883L63.9977 69.7247L81.5489 59.3808L81.4894 47.847Z" fill="#65838A"/>
<path d="M81.5489 54.342V59.3804L80.7998 56.0174V50.979L81.5489 54.342Z" fill="#94A9AE"/>
<g style="mix-blend-mode:multiply">
<path d="M81.5489 53.3589L81.537 56.3577L63.9977 66.6895L63.9739 63.3265L81.5489 53.3589Z" fill="#BEC9D1"/>
</g>
<path d="M63.9976 69.7245V64.1276L44.4487 63.4478V69.6881L63.9976 69.7245Z" fill="#4B7680"/>
<g style="mix-blend-mode:multiply">
<path d="M63.9976 66.6891V64.091L44.4487 63.4111V66.6527L63.9976 66.6891Z" fill="#BEC9D1"/>
</g>
<path d="M44.4488 69.6884V63.448L30.5125 49.9839L30.5719 61.5176L44.4488 69.6884Z" fill="#365D66"/>
<path d="M30.5719 56.4792V61.5176L31.321 58.1546V53.1162L30.5719 56.4792Z" fill="#4B7680"/>
<path d="M64.3426 70.4652L50.2635 70.4409V72.687L64.3426 72.7234V70.4652Z" fill="#D6D6CE"/>
<path d="M64.3426 70.4651L43.9019 70.4287V72.6869L64.3426 72.7233V70.4651Z" fill="#D6D6CE"/>
<path d="M64.3425 70.4649L82.524 59.7446V62.0028L64.3425 72.7231V70.4649Z" fill="#E5DED0"/>
<path d="M64.3426 63.0594L43.9019 63.0229V65.5968L64.3426 65.6332V63.0594Z" fill="#D6D6CE"/>
<path d="M43.9017 63.0227L29.3947 54.4756V57.0494L43.9017 65.5965V63.0227Z" fill="#826565"/>
<path d="M29.3352 42.4199L29.3947 54.4757V57.0496L29.3352 44.9938V42.4199Z" fill="#826565"/>
<path d="M64.3425 63.0592L82.524 52.3389V54.9127L64.3425 65.633V63.0592Z" fill="#E5DED0"/>
<path d="M29.3947 61.8818L43.9017 70.4289V72.6871L29.3947 64.1279V61.8818Z" fill="#826565"/>
<path d="M29.3947 61.8816L29.3352 49.8379V52.0839L29.3947 64.1276V61.8816Z" fill="#826565"/>
<path d="M47.5166 31.6997L29.3352 42.42L29.3947 54.4758L43.9018 63.0229L64.3425 63.0594L82.5239 52.339L82.4526 40.2832L67.9574 31.7361L47.5166 31.6997Z" fill="#F7F7FF"/>
<path d="M47.5166 29.4536L29.3352 40.1739L29.3947 52.2176L43.9018 60.7647L64.3425 60.8011L82.5239 50.093L82.4526 38.0372L67.9574 29.49L47.5166 29.4536Z" fill="#F7F7FF"/>
<path d="M81.4894 38.1828L67.6245 30.012L48.0637 29.9756L30.5125 40.3195L30.5719 51.8533L44.4488 60.024L63.9977 60.0605L81.5489 49.7165L81.4894 38.1828Z" fill="#65838A"/>
<path d="M63.9976 60.0605V54.4757L44.4487 53.7837V60.0241L63.9976 60.0605Z" fill="#4B7680"/>
<g style="mix-blend-mode:multiply">
<path d="M63.9976 57.0738V54.4757L44.4487 53.7837V57.0374L63.9976 57.0738Z" fill="#BEC9D1"/>
</g>
<path d="M44.4488 60.0243V53.784L30.5125 40.3198L30.5719 51.8536L44.4488 60.0243Z" fill="#365D66"/>
<path d="M30.5719 46.8147V51.8532L31.321 48.4902V43.4639L30.5719 46.8147Z" fill="#4B7680"/>
<path d="M81.5489 44.6779V49.7164L80.7998 46.3534V41.3149L81.5489 44.6779Z" fill="#94A9AE"/>
<g style="mix-blend-mode:multiply">
<path d="M81.5489 43.731L81.537 46.7297L63.9977 57.0737L63.9739 53.6985L81.5489 43.731Z" fill="#BEC9D1"/>
</g>
<path d="M64.3426 60.8011L50.2635 60.7769V63.0229L64.3426 63.0593V60.8011Z" fill="#D6D6CE"/>
<path d="M64.3426 60.8011L43.9019 60.7646V63.0228L64.3426 63.0593V60.8011Z" fill="#D6D6CE"/>
<path d="M64.3425 60.801L82.524 50.0928V52.3388L64.3425 63.0591V60.801Z" fill="#E5DED0"/>
<path d="M64.3426 53.3953L43.9019 53.3589V55.9327L64.3426 55.9692V53.3953Z" fill="#D6D6CE"/>
<path d="M43.9017 53.3586L29.3947 44.8115V47.3854L43.9017 55.9325V53.3586Z" fill="#826565"/>
<path d="M29.3352 32.7559L29.3947 44.8117V47.3855L29.3352 35.3418V32.7559Z" fill="#826565"/>
<path d="M64.3425 53.3951L82.524 42.6748V45.2487L64.3425 55.969V53.3951Z" fill="#E5DED0"/>
<path d="M29.3947 52.2178L43.9017 60.7649V63.0231L29.3947 54.476V52.2178Z" fill="#826565"/>
<path d="M29.3947 52.2175L29.3352 40.1738V42.4199L29.3947 54.4757V52.2175Z" fill="#826565"/>
<path d="M47.5166 22.0356L29.3352 32.756L29.3947 44.8118L43.9018 53.3589L64.3425 53.3953L82.5239 42.675L82.4526 30.6192L67.9574 22.0721L47.5166 22.0356Z" fill="#F5F5FC"/>
<g style="mix-blend-mode:multiply">
<path d="M47.3502 48.3205H36.8979L35.578 47.5556H34.0678L29.3947 44.8118L29.3352 32.756L47.5166 22.0356L47.3502 48.3205Z" fill="#989898"/>
</g>
<path d="M35.8396 28.9922V31.6267L35.8872 41.3879V38.7412L35.8396 28.9922Z" fill="#A68A69"/>
<path d="M47.5047 22.1084L35.8396 28.9922L35.8872 38.7413L47.6236 45.6615L64.176 45.698L75.8411 38.8141L75.7817 29.0651L64.0452 22.1448L47.5047 22.1084Z" fill="#F7F7FF"/>
<path d="M35.8872 38.7412V41.3879L47.6237 48.3082V45.6615L35.8872 38.7412Z" fill="#826565"/>
<path d="M75.8412 38.814V41.4607L64.176 48.3323V45.6978L75.8412 38.814Z" fill="#E5DED0"/>
<path d="M64.176 45.698L47.6237 45.6616V48.3083L64.176 48.3326V45.698Z" fill="#D6D6CE"/>
<path d="M36.4224 22.6548V28.7252L36.4699 38.195V32.1246L36.4224 22.6548Z" fill="#A68A69"/>
<path d="M47.7427 15.9893L36.4224 22.6546L36.4699 32.1244L47.8616 38.8382L63.9264 38.8746L75.2467 32.1972L75.1991 22.7274L63.8075 16.0135L47.7427 15.9893Z" fill="#F7F7FF"/>
<path d="M36.4698 32.1245V38.1949L47.8615 44.9088V38.8384L36.4698 32.1245Z" fill="#365D66"/>
<path d="M75.2467 32.1973V38.2677L63.9264 44.9451V38.8747L75.2467 32.1973Z" fill="#65838A"/>
<path d="M75.2466 33.2414V38.2677L74.1646 33.4114L74.4975 29.8784L75.2466 33.2414Z" fill="#94A9AE"/>
<g style="mix-blend-mode:multiply">
<path d="M75.2467 31.0439L75.2705 34.4069L63.9502 41.0844L63.9264 37.7092L75.2467 31.0439Z" fill="#BEC9D1"/>
</g>
<path d="M37.54 33.4236L37.219 29.8057L36.4698 33.1687V38.1949L37.54 33.4236Z" fill="#4B7680"/>
<path d="M63.9264 38.8748L47.8616 38.8384V44.9088L63.9264 44.9452V38.8748Z" fill="#4B7680"/>
<g style="mix-blend-mode:multiply">
<path d="M63.9264 38.8748L47.8616 38.8384V41.0601L63.9264 41.0844V38.8748Z" fill="#BEC9D1"/>
</g>
<path d="M35.8396 20.251V23.2862L35.8872 33.0352V30L35.8396 20.251Z" fill="#A68A69"/>
<path d="M47.5047 13.3672L35.8396 20.251L35.8872 30.0001L47.6236 36.9203L64.176 36.9567L75.8411 30.0729L75.7817 20.3239L64.0452 13.4036L47.5047 13.3672Z" fill="#F7F7FF"/>
<path d="M35.8872 30V33.0352L47.6237 39.9554V36.9202L35.8872 30Z" fill="#826565"/>
<path d="M75.8412 30.0728V33.108L64.176 39.9918V36.9566L75.8412 30.0728Z" fill="#E5DED0"/>
<path d="M64.176 36.9568L47.6237 36.9204V39.9556L64.176 39.992V36.9568Z" fill="#D6D6CE"/>
<path d="M50.5013 9.46973L43.0575 13.8647L37.3973 20.0079L48.1469 13.6704L50.5013 9.46973Z" fill="#40454C"/>
<path d="M43.0813 20.093L37.4449 29.0043L37.3973 20.008L43.0575 13.8647L43.0813 20.093Z" fill="#3A3F46"/>
<path d="M48.2658 35.3785L37.4449 29.0046L43.0813 20.0933L50.5846 24.5125L48.2658 35.3785Z" fill="#40454C"/>
<path d="M63.5221 35.4025L48.2659 35.3782L50.5846 24.5122L61.1677 24.5365L63.5221 35.4025Z" fill="#4D5258"/>
<path d="M74.2834 29.0651L63.522 35.4026L61.1676 24.5366L68.6233 20.1416L74.2834 29.0651Z" fill="#606469"/>
<path d="M74.2835 29.0652L68.6233 20.1417L68.5876 13.9014L74.2359 20.0689L74.2835 29.0652Z" fill="#6F7378"/>
<path d="M74.2359 20.0687L68.5876 13.9012L61.0844 9.48193L63.415 13.6948L74.2359 20.0687Z" fill="#606469"/>
<path d="M61.0844 9.48187L50.5014 9.46973L48.147 13.6704L63.4151 13.6947L61.0844 9.48187Z" fill="#4D5258"/>
<path d="M50.5013 9.46973L43.0575 13.8647L43.0813 20.0929L50.5845 24.5122L61.1676 24.5364L68.6233 20.1415L68.5876 13.9011L61.0843 9.48187L50.5013 9.46973Z" fill="#76797E"/>
<path d="M67.9337 19.7412L67.8861 19.7655L67.4223 20.0326L60.9774 23.8326H60.6801L51.2267 23.8205H50.7749L44.4013 20.0569L43.9732 19.814L43.771 19.6926L43.7354 14.2657L45.4596 13.2459L51.2743 10.1621L60.5018 10.1864H60.906L66.59 13.5372L67.898 14.3143L67.9337 19.7412Z" fill="#3A3F46"/>
<path d="M55.9236 0L43.9493 14.8846L50.9294 10.7689L55.9236 0Z" fill="#40454C"/>
<path d="M67.8623 14.9332L55.9237 0L60.8347 10.7932L67.8623 14.9332Z" fill="#606469"/>
<path d="M55.9237 0L50.9294 10.7689L60.8347 10.7932L55.9237 0Z" fill="#4D5258"/>
<path d="M55.9236 0L44.4012 20.0566L43.9731 19.8138L43.9493 14.8846L55.9236 0Z" fill="#3A3F46"/>
<path d="M55.9237 0L51.2267 23.8202H50.7749L44.4012 20.0566L55.9237 0Z" fill="#40454C"/>
<path d="M60.6801 23.8324L51.2267 23.8202L55.9237 0L60.6801 23.8324Z" fill="#4D5258"/>
<path d="M67.4224 20.0323L60.9774 23.8324H60.6801L55.9237 0L67.4224 20.0323Z" fill="#606469"/>
<path d="M67.8861 19.7652L67.4224 20.0323L55.9237 0L67.8623 14.9332L67.8861 19.7652Z" fill="#6F7378"/>
<path d="M67.0775 13.9497L66.7921 19.0367L60.3472 22.2661L51.6072 22.0719L45.4477 18.4054L44.4012 20.0565L50.7749 23.8202L60.9774 23.8323L67.8861 19.7651L67.8623 14.9331L67.0775 13.9497Z" fill="#3A3F46"/>
<path d="M64.1404 16.5115L60.6206 18.2719L60.4779 17.6163L60.2401 16.5115L62.8086 15.2245L63.201 15.0303L64.1404 16.5115Z" fill="#40454C"/>
<path d="M63.3794 16.1352L60.4779 17.6163L60.2401 16.5115L62.8086 15.2246L63.3794 16.1352Z" fill="#3A3F46"/>
<path d="M63.3793 16.1353L64.1404 16.5116L60.6206 18.272L60.4779 17.6164L63.3793 16.1353Z" fill="#76797E"/>
<path d="M47.7069 16.5115L51.2386 18.2719L51.3812 17.6163L51.6191 16.5115L49.0387 15.2245L48.6463 15.0303L47.7069 16.5115Z" fill="#3A3F46"/>
<path d="M48.468 16.1352L51.3813 17.6163L51.6192 16.5115L49.0388 15.2246L48.468 16.1352Z" fill="#2F353C"/>
<path d="M48.4679 16.1353L47.7069 16.5116L51.2386 18.272L51.3812 17.6164L48.4679 16.1353Z" fill="#606469"/>
<path d="M54.4729 1.80901L54.568 2.35535L55.3885 2.70743H56.4587L57.2911 2.37963L57.5527 2.02754L55.9593 -0.352051L54.4729 1.80901Z" fill="#BEC9D1"/>
<path d="M55.9593 -0.352051L54.568 2.35534L54.4729 1.80901L55.9593 -0.352051Z" fill="#77808C"/>
<path d="M55.9594 -0.352051L55.3886 2.70743L54.5681 2.35535L55.9594 -0.352051Z" fill="#8894A3"/>
<path d="M55.9593 -0.352051L56.4587 2.70743H55.3885L55.9593 -0.352051Z" fill="#B2BDC7"/>
<path d="M55.9594 -0.352051L57.2911 2.37963L57.5528 2.02754L55.9594 -0.352051Z" fill="#B2BDC7"/>
<g style="mix-blend-mode:multiply">
<path d="M57.6003 76.1958L55.7572 79.9352L57.6003 78.8546V76.1958Z" fill="#BEC9D1"/>
</g>
<g style="mix-blend-mode:multiply">
<path d="M55.7572 84.9733V90.7887L57.6003 89.7082V83.8806L59.0154 84.7183H60.4423L57.6003 83.055V79.8984L54.3422 81.8167V84.9733H55.7572Z" fill="#BEC9D1"/>
</g>
<g style="mix-blend-mode:multiply">
<path d="M55.7572 95.8273V101.643L57.6003 100.562V94.7346L59.0154 95.5723H60.4423L57.6003 93.8969V90.7524L54.3422 92.6707V95.8273H55.7572Z" fill="#BEC9D1"/>
</g>
<g style="mix-blend-mode:multiply">
<path d="M55.7572 106.681V112.497L57.6003 111.416V105.589L59.0154 106.426H60.4423L57.6003 104.763V101.606L54.3422 103.525V106.681H55.7572Z" fill="#BEC9D1"/>
</g>
<g style="mix-blend-mode:multiply">
<path d="M55.7572 117.535V123.35L57.6003 122.27V116.442L59.0154 117.28H60.4423L57.6003 115.617V112.46L54.3422 114.378V117.535H55.7572Z" fill="#BEC9D1"/>
</g>
<g style="mix-blend-mode:multiply">
<path d="M55.7572 128.389V134.216L57.6003 133.124V127.296L59.0154 128.134H60.4423L57.6003 126.471V123.314L54.3422 125.232V128.389H55.7572Z" fill="#BEC9D1"/>
</g>
<g style="mix-blend-mode:multiply">
<path d="M55.7572 139.243V145.058L57.6003 143.978V138.15L59.0154 138.988H60.4423L57.6003 137.325V134.168L54.3422 136.086V139.243H55.7572Z" fill="#BEC9D1"/>
</g>
<g style="mix-blend-mode:multiply">
<path d="M55.7572 150.097V155.924L57.6003 154.832V149.004L59.0154 149.842H60.4423L57.6003 148.179V145.022L54.3422 146.94V150.097H55.7572Z" fill="#BEC9D1"/>
</g>
<g style="mix-blend-mode:multiply">
<path d="M55.7572 160.951V173.674L57.6003 172.594V159.858L59.0154 160.696H60.4423L57.6003 159.032V155.572L54.3422 157.503V160.951H55.7572Z" fill="#BEC9D1"/>
</g>
</g>
<defs>
<clipPath id="clip0_204_22815">
<rect width="93" height="218" fill="white"/>
</clipPath>
</defs>
</svg>
