<svg width="770" height="470" viewBox="0 0 770 470" fill="none" xmlns="http://www.w3.org/2000/svg">
<g clip-path="url(#clip0_204_25341)">
<path d="M770 222.895L769.976 247.141L386.24 470L386.264 445.754L770 222.895Z" fill="#5A504F"/>
<path d="M386.264 445.754L386.24 470L0 247.153L0.0240693 222.895L386.264 445.754Z" fill="#5A504F"/>
<path d="M770 222.895L386.264 445.754L0.0241699 222.895L383.761 0.0361328L770 222.895Z" fill="#5A504F"/>
<g style="mix-blend-mode:multiply">
<path d="M386.264 445.754L386.24 470L0 247.153L0.0240693 222.895L386.264 445.754Z" fill="#897998"/>
</g>
<path d="M770 222.895L769.976 247.141L386.24 470L386.264 445.754L770 222.895Z" fill="#776969"/>
<path d="M668.155 281.944L770.155 222.956L623.5 138L521.5 197L668.155 281.944Z" fill="#E8DCD5"/>
<path d="M668.211 267.527L747.736 222.077L624.068 150.697L544.555 196.147L668.211 267.527Z" fill="#BEBF4A"/>
<path d="M227.707 205.937L99.5625 280.419L0.0119629 222.919L128.145 148.436L227.707 205.937Z" fill="#E8DCD5"/>
<path d="M453.212 144.84L520.606 105.981C528.176 101.615 527.213 93.9542 518.476 88.8788C509.751 83.8395 496.417 83.2863 488.847 87.6761L421.453 126.535C413.895 130.901 414.846 138.562 423.583 143.637C432.32 148.653 445.654 149.206 453.212 144.84Z" fill="#F8F6E1"/>
<path d="M440.359 146.729C434.693 146.786 429.106 145.399 424.125 142.7C419.864 140.294 417.433 137.059 417.433 133.956C417.433 131.479 419.058 129.145 421.994 127.474L489.388 88.6026C493.191 86.637 497.433 85.6726 501.712 85.8003C507.379 85.7499 512.965 87.1405 517.947 89.8413C522.195 92.2467 524.638 95.482 524.638 98.5849C524.638 101.062 523.013 103.396 520.065 105.067L452.671 143.926C448.87 145.886 444.634 146.851 440.359 146.729Z" fill="#BEBF4A"/>
<g style="mix-blend-mode:multiply">
<path d="M451.142 126.8H443.922L438.638 129.843L443.922 132.897H451.142L456.426 129.843L451.142 126.8Z" fill="#897998"/>
</g>
<path d="M451.142 131.695L453.297 130.444V122.71L451.142 123.961V131.695Z" fill="#7C412F"/>
<path d="M451.142 131.695L448.976 130.444V122.71L451.142 123.961V131.695Z" fill="#5C3023"/>
<path d="M451.142 129.253L456.426 126.21L455.788 108.398L451.142 111.068V129.253Z" fill="#94983A"/>
<path d="M451.142 129.253L445.859 126.21L446.497 108.398L451.142 111.068V129.253Z" fill="#868533"/>
<path d="M451.142 111.069L446.497 108.399L451.142 105.717L455.788 108.399L451.142 111.069Z" fill="#A7AA5C"/>
<g style="mix-blend-mode:multiply">
<path d="M473.406 113.895H466.186L460.902 116.938L466.186 119.993H473.406L478.69 116.938L473.406 113.895Z" fill="#897998"/>
</g>
<path d="M473.406 118.778L475.561 117.539V109.806L473.406 111.044V118.778Z" fill="#7C412F"/>
<path d="M473.406 118.778L471.24 117.539V109.806L473.406 111.044V118.778Z" fill="#5C3023"/>
<path d="M473.406 116.349L478.69 113.294L478.052 95.4819L473.406 98.1639V116.349Z" fill="#94983A"/>
<path d="M473.406 116.349L468.123 113.294L468.761 95.4819L473.406 98.1639V116.349Z" fill="#868533"/>
<path d="M473.406 98.1635L468.761 95.4815L473.406 92.8115L478.052 95.4815L473.406 98.1635Z" fill="#A7AA5C"/>
<g style="mix-blend-mode:multiply">
<path d="M495.67 100.978H488.45L483.167 104.033L488.45 107.076H495.67L500.954 104.033L495.67 100.978Z" fill="#897998"/>
</g>
<path d="M495.671 105.873L497.825 104.622V96.8887L495.671 98.1395V105.873Z" fill="#7C412F"/>
<path d="M495.67 105.873L493.504 104.622V96.8887L495.67 98.1395V105.873Z" fill="#5C3023"/>
<path d="M495.671 103.431L500.954 100.389L500.316 82.5767L495.671 85.2587V103.431Z" fill="#94983A"/>
<path d="M495.671 103.431L490.387 100.389L491.025 82.5767L495.671 85.2587V103.431Z" fill="#868533"/>
<path d="M495.67 85.259L491.025 82.577L495.67 79.895L500.316 82.577L495.67 85.259Z" fill="#A7AA5C"/>
<path d="M156.944 142.904L157.822 142.387L163.202 145.49L162.311 146.007L156.944 142.904Z" fill="#776969"/>
<path d="M172.167 151.684L173.058 151.167L178.438 154.269L177.547 154.787L172.167 151.684Z" fill="#776969"/>
<path d="M187.403 160.475L188.282 159.958L193.661 163.061L192.771 163.578L187.403 160.475Z" fill="#776969"/>
<path d="M202.627 169.267L203.518 168.75L208.897 171.852L208.007 172.358L202.627 169.267Z" fill="#776969"/>
<path d="M217.851 178.046L218.742 177.529L224.109 180.632L223.231 181.149L217.851 178.046Z" fill="#776969"/>
<path d="M233.087 186.838L233.977 186.321L239.345 189.412L238.454 189.929L233.087 186.838Z" fill="#776969"/>
<path d="M248.311 195.618L249.201 195.101L254.569 198.204L253.678 198.721L248.311 195.618Z" fill="#776969"/>
<path d="M263.546 204.41L264.437 203.893L269.804 206.996L268.914 207.501L263.546 204.41Z" fill="#776969"/>
<path d="M278.77 213.189L279.661 212.672L285.028 215.775L284.138 216.292L278.77 213.189Z" fill="#776969"/>
<path d="M293.994 221.981L294.885 221.464L300.264 224.567L299.374 225.084L293.994 221.981Z" fill="#776969"/>
<path d="M137.074 143.289L306.895 241.272L328.257 228.86L158.436 130.889" fill="#776969"/>
<path d="M137.087 145.357L305.126 242.306L306.895 241.272L137.074 143.289" fill="white"/>
<path d="M158.436 130.889L328.257 228.86L330.038 227.826L162.01 130.889" fill="white"/>
<path d="M163.202 145.49L157.822 142.387L156.944 142.904L162.311 146.007L163.202 145.49Z" fill="white"/>
<path d="M178.438 154.269L173.058 151.167L172.167 151.684L177.547 154.787L178.438 154.269Z" fill="white"/>
<path d="M193.661 163.061L188.282 159.958L187.403 160.475L192.771 163.578L193.661 163.061Z" fill="white"/>
<path d="M208.897 171.852L203.518 168.75L202.627 169.267L208.007 172.358L208.897 171.852Z" fill="white"/>
<path d="M224.109 180.632L218.742 177.529L217.851 178.046L223.231 181.149L224.109 180.632Z" fill="white"/>
<path d="M239.345 189.412L233.977 186.321L233.087 186.838L238.454 189.929L239.345 189.412Z" fill="white"/>
<path d="M254.569 198.204L249.201 195.101L248.311 195.618L253.678 198.721L254.569 198.204Z" fill="white"/>
<path d="M269.804 206.996L264.437 203.893L263.546 204.41L268.914 207.501L269.804 206.996Z" fill="white"/>
<path d="M285.028 215.775L279.661 212.672L278.77 213.189L284.138 216.292L285.028 215.775Z" fill="white"/>
<path d="M300.264 224.567L294.885 221.464L293.994 221.981L299.374 225.084L300.264 224.567Z" fill="white"/>
<path d="M492.265 62.9128L387.66 123.264L373.086 114.857L302.057 73.8814L406.674 13.5303L477.703 54.506L492.265 62.9128Z" fill="#E8DCD5"/>
<path d="M401.054 107.016L328.895 65.4868L314.525 73.7734L386.685 115.302L401.054 107.016Z" fill="#BEBF4A"/>
<path d="M387.792 123.264L373.784 131.346L315.476 97.7305L315.38 97.7786L318.015 99.4023L212.845 160.21L182.71 142.831L301.877 73.7368L387.792 123.264Z" fill="#BEBF4A"/>
<path d="M575.063 314.552L626.487 284.894C632.251 281.562 631.529 275.681 624.862 271.833C618.195 267.984 608.014 267.563 602.237 270.895L550.825 300.565C545.049 303.896 545.783 309.766 552.45 313.614C559.117 317.511 569.298 317.884 575.063 314.552Z" fill="#F8F6E1"/>
<path d="M565.255 315.983C560.929 316.022 556.664 314.962 552.859 312.904C549.61 311.028 547.756 308.599 547.756 306.229C547.756 304.341 548.96 302.621 551.234 301.274L602.646 271.616C605.551 270.115 608.789 269.379 612.057 269.475C616.38 269.431 620.643 270.491 624.441 272.554C627.69 274.43 629.556 276.86 629.556 279.229C629.556 281.129 628.352 282.837 626.066 284.172L574.654 313.903C571.753 315.401 568.519 316.138 565.255 316.043V315.983Z" fill="#BEBF4A"/>
<g style="mix-blend-mode:multiply">
<path d="M573.486 300.781H567.975L563.943 303.114L567.975 305.436H573.486L577.518 303.114L573.486 300.781Z" fill="#897998"/>
</g>
<path d="M573.486 304.521L575.135 303.571V297.666L573.486 298.616V304.521Z" fill="#7C412F"/>
<path d="M573.486 304.521L571.838 303.571V297.666L573.486 298.616V304.521Z" fill="#5C3023"/>
<path d="M573.486 302.658L577.518 300.336L577.025 286.734L573.486 288.778V302.658Z" fill="#94983A"/>
<path d="M573.486 302.658L569.455 300.336L569.936 286.734L573.486 288.778V302.658Z" fill="#868533"/>
<path d="M573.487 288.779L569.936 286.734L573.487 284.689L577.025 286.734L573.487 288.779Z" fill="#A7AA5C"/>
<g style="mix-blend-mode:multiply">
<path d="M590.479 290.931H584.967L580.936 293.252L584.967 295.586H590.479L594.511 293.252L590.479 290.931Z" fill="#897998"/>
</g>
<path d="M590.479 294.66L592.128 293.71V287.816L590.479 288.767V294.66Z" fill="#7C412F"/>
<path d="M590.479 294.66L588.831 293.71V287.816L590.479 288.767V294.66Z" fill="#5C3023"/>
<path d="M590.479 292.807L594.511 290.474L594.017 276.884L590.479 278.928V292.807Z" fill="#94983A"/>
<path d="M590.479 292.807L586.448 290.474L586.929 276.884L590.479 278.928V292.807Z" fill="#868533"/>
<path d="M590.479 278.929L586.929 276.884L590.479 274.839L594.018 276.884L590.479 278.929Z" fill="#A7AA5C"/>
<g style="mix-blend-mode:multiply">
<path d="M607.472 281.081H601.96L597.929 283.402L601.96 285.723H607.472L611.504 283.402L607.472 281.081Z" fill="#897998"/>
</g>
<path d="M607.472 284.809L609.121 283.859V277.954L607.472 278.904V284.809Z" fill="#7C412F"/>
<path d="M607.472 284.809L605.823 283.859V277.954L607.472 278.904V284.809Z" fill="#5C3023"/>
<path d="M607.472 282.945L611.504 280.624L611.01 267.034L607.472 269.066V282.945Z" fill="#94983A"/>
<path d="M607.472 282.945L603.441 280.624L603.934 267.034L607.472 269.066V282.945Z" fill="#868533"/>
<path d="M607.472 269.066L603.934 267.034L607.472 264.977L611.01 267.034L607.472 269.066Z" fill="#A7AA5C"/>
<g style="mix-blend-mode:multiply">
<path d="M379.296 100.557H372.303L367.177 103.516L372.303 106.474H379.296L384.422 103.516L379.296 100.557Z" fill="#897998"/>
</g>
<path d="M379.296 105.308L381.39 104.093V96.6001L379.296 97.8148V105.308Z" fill="#7C412F"/>
<path d="M379.296 105.308L377.202 104.093V96.6001L379.296 97.8148V105.308Z" fill="#5C3023"/>
<path d="M379.296 102.938L384.422 99.9918L383.797 82.7212L379.296 85.319V102.938Z" fill="#94983A"/>
<path d="M379.296 102.938L374.181 99.9918L374.795 82.7212L379.296 85.319V102.938Z" fill="#868533"/>
<path d="M379.296 85.3192L374.795 82.7213L379.296 80.1235L383.797 82.7213L379.296 85.3192Z" fill="#A7AA5C"/>
<g style="mix-blend-mode:multiply">
<path d="M358.163 88.9272H351.159L346.044 91.8859L351.159 94.8445H358.163L363.29 91.8859L358.163 88.9272Z" fill="#897998"/>
</g>
<path d="M358.163 93.6657L360.257 92.463V84.9702L358.163 86.1729V93.6657Z" fill="#7C412F"/>
<path d="M358.163 93.6657L356.069 92.463V84.9702L358.163 86.1729V93.6657Z" fill="#5C3023"/>
<path d="M358.163 91.3084L363.29 88.3498L362.664 71.0791L358.163 73.6769V91.3084Z" fill="#94983A"/>
<path d="M358.163 91.3084L353.036 88.3498L353.662 71.0791L358.163 73.6769V91.3084Z" fill="#868533"/>
<path d="M358.163 73.6771L353.662 71.0793L358.163 68.4814L362.664 71.0793L358.163 73.6771Z" fill="#A7AA5C"/>
<g style="mix-blend-mode:multiply">
<path d="M337.03 77.2969H330.026L324.911 80.2435L330.026 83.2021H337.03L342.157 80.2435L337.03 77.2969Z" fill="#897998"/>
</g>
<path d="M337.03 82.0356L339.124 80.8209V73.3281L337.03 74.5428V82.0356Z" fill="#7C412F"/>
<path d="M337.03 82.0356L334.936 80.8209V73.3281L337.03 74.5428V82.0356Z" fill="#5C3023"/>
<path d="M337.03 79.6785L342.157 76.7199L341.531 59.4492L337.03 62.047V79.6785Z" fill="#94983A"/>
<path d="M337.03 79.6785L331.903 76.7199L332.529 59.4492L337.03 62.047V79.6785Z" fill="#868533"/>
<path d="M337.03 62.0467L332.529 59.4489L337.03 56.8511L341.531 59.4489L337.03 62.0467Z" fill="#A7AA5C"/>
<path d="M488.606 367.11L540.018 337.439C545.795 334.108 545.061 328.239 538.393 324.39C531.726 320.542 521.545 320.121 515.768 323.452L464.356 353.123C458.58 356.454 459.314 362.323 465.981 366.172C472.624 370.02 482.805 370.429 488.606 367.11Z" fill="#F8F6E1"/>
<path d="M478.762 368.529C474.435 368.573 470.169 367.513 466.366 365.45C463.117 363.586 461.263 361.156 461.263 358.787C461.263 356.887 462.467 355.179 464.741 353.832L516.165 324.161C519.067 322.667 522.302 321.935 525.564 322.033C529.889 321.991 534.154 323.047 537.96 325.099C541.197 326.976 543.063 329.417 543.063 331.786C543.063 333.675 541.859 335.395 539.585 336.73L488.161 366.388C485.262 367.891 482.026 368.628 478.762 368.529Z" fill="#BEBF4A"/>
<g style="mix-blend-mode:multiply">
<path d="M486.994 353.339H481.482L477.45 355.66L481.482 357.993H486.994L491.025 355.66L486.994 353.339Z" fill="#897998"/>
</g>
<path d="M486.994 357.067L488.642 356.117V350.224L486.994 351.174V357.067Z" fill="#7C412F"/>
<path d="M486.993 357.067L485.345 356.117V350.224L486.993 351.174V357.067Z" fill="#5C3023"/>
<path d="M486.994 355.215L491.025 352.882L490.532 339.292L486.994 341.336V355.215Z" fill="#94983A"/>
<path d="M486.994 355.215L482.962 352.882L483.443 339.292L486.994 341.336V355.215Z" fill="#868533"/>
<path d="M486.994 341.336L483.443 339.292L486.994 337.247L490.532 339.292L486.994 341.336Z" fill="#A7AA5C"/>
<g style="mix-blend-mode:multiply">
<path d="M503.986 343.489H498.475L494.443 345.81L498.475 348.131H503.986L508.018 345.81L503.986 343.489Z" fill="#897998"/>
</g>
<path d="M503.986 347.217L505.635 346.267V340.362L503.986 341.312V347.217Z" fill="#7C412F"/>
<path d="M503.986 347.217L502.338 346.267V340.362L503.986 341.312V347.217Z" fill="#5C3023"/>
<path d="M503.986 345.353L508.018 343.032L507.525 329.441L503.986 331.486V345.353Z" fill="#94983A"/>
<path d="M503.986 345.353L499.955 343.032L500.448 329.441L503.986 331.486V345.353Z" fill="#868533"/>
<path d="M503.986 331.486L500.448 329.441L503.986 327.385L507.525 329.441L503.986 331.486Z" fill="#A7AA5C"/>
<g style="mix-blend-mode:multiply">
<path d="M520.979 333.627H515.467L511.436 335.96L515.467 338.281H520.979L525.011 335.96L520.979 333.627Z" fill="#897998"/>
</g>
<path d="M520.979 337.367L522.628 336.417V330.512L520.979 331.462V337.367Z" fill="#7C412F"/>
<path d="M520.979 337.367L519.331 336.417V330.512L520.979 331.462V337.367Z" fill="#5C3023"/>
<path d="M520.979 335.503L525.011 333.182L524.53 319.579L520.979 321.624V335.503Z" fill="#94983A"/>
<path d="M520.979 335.503L516.948 333.182L517.441 319.579L520.979 321.624V335.503Z" fill="#868533"/>
<path d="M520.979 321.624L517.441 319.579L520.979 317.535L524.53 319.579L520.979 321.624Z" fill="#A7AA5C"/>
<path d="M169.363 291.604L220.787 261.934C226.552 258.603 225.83 252.733 219.163 248.885C212.496 245.036 202.314 244.615 196.538 247.947L145.126 277.617C139.349 280.949 140.083 286.818 146.75 290.666C153.418 294.515 163.587 294.936 169.363 291.604Z" fill="#F8F6E1"/>
<path d="M159.555 293.024C155.228 293.07 150.961 292.01 147.16 289.945C143.91 288.081 142.057 285.652 142.057 283.282C142.057 281.382 143.26 279.674 145.535 278.327L196.947 248.657C199.853 247.163 203.091 246.431 206.358 246.528C210.679 246.486 214.94 247.541 218.742 249.595C221.991 251.471 223.856 253.913 223.856 256.282C223.856 258.17 222.653 259.89 220.366 261.225L168.954 290.883C166.055 292.386 162.82 293.123 159.555 293.024Z" fill="#BEBF4A"/>
<g style="mix-blend-mode:multiply">
<path d="M167.787 277.834H162.275L158.243 280.155L162.275 282.488H167.787L171.818 280.155L167.787 277.834Z" fill="#897998"/>
</g>
<path d="M167.787 281.562L169.436 280.612V274.719L167.787 275.669V281.562Z" fill="#7C412F"/>
<path d="M167.787 281.562L166.126 280.612V274.719L167.787 275.669V281.562Z" fill="#5C3023"/>
<path d="M167.787 279.71L171.818 277.377L171.325 263.787L167.787 265.831V279.71Z" fill="#94983A"/>
<path d="M167.787 279.71L163.743 277.377L164.237 263.787L167.787 265.831V279.71Z" fill="#868533"/>
<path d="M167.787 265.831L164.237 263.786L167.787 261.742L171.325 263.786L167.787 265.831Z" fill="#A7AA5C"/>
<g style="mix-blend-mode:multiply">
<path d="M184.78 267.984H179.268L175.236 270.305L179.268 272.638H184.78L188.811 270.305L184.78 267.984Z" fill="#897998"/>
</g>
<path d="M184.78 271.712L186.429 270.762V264.857L184.78 265.807V271.712Z" fill="#7C412F"/>
<path d="M184.78 271.712L183.131 270.762V264.857L184.78 265.807V271.712Z" fill="#5C3023"/>
<path d="M184.78 269.86L188.811 267.527L188.318 253.924L184.78 255.981V269.86Z" fill="#94983A"/>
<path d="M184.78 269.86L180.748 267.527L181.23 253.924L184.78 255.981V269.86Z" fill="#868533"/>
<path d="M184.78 255.981L181.229 253.924L184.78 251.892L188.318 253.924L184.78 255.981Z" fill="#A7AA5C"/>
<g style="mix-blend-mode:multiply">
<path d="M201.773 258.122H196.261L192.229 260.455L196.261 262.776H201.773L205.804 260.455L201.773 258.122Z" fill="#897998"/>
</g>
<path d="M201.773 261.862L203.421 260.912V255.007L201.773 255.957V261.862Z" fill="#7C412F"/>
<path d="M201.773 261.862L200.124 260.912V255.007L201.773 255.957V261.862Z" fill="#5C3023"/>
<path d="M201.773 259.998L205.804 257.677L205.311 244.074L201.773 246.119V259.998Z" fill="#94983A"/>
<path d="M201.773 259.998L197.741 257.677L198.235 244.074L201.773 246.119V259.998Z" fill="#868533"/>
<path d="M201.773 246.119L198.234 244.074L201.773 242.03L205.311 244.074L201.773 246.119Z" fill="#A7AA5C"/>
<path d="M611.805 247.839L327.33 411.754L238.226 360.423L362.844 288.742L522.76 196.472L536.612 204.47L611.805 247.839Z" fill="#E8DCD5"/>
<path d="M372.641 321.792L272.055 379.846L169.412 320.626L270.009 262.596L363.542 316.536L372.641 321.792Z" fill="#E8DCD5"/>
<path d="M301.72 347.939L263.57 369.96L255.483 365.294L293.633 343.272L301.72 347.939Z" fill="#BEBF4A"/>
<path d="M354.938 317.258L316.812 339.255L308.688 334.589L346.838 312.592L354.938 317.258Z" fill="#BEBF4A"/>
<g style="mix-blend-mode:multiply">
<path d="M286.641 349.226H280.696L276.339 351.739L280.696 354.253H286.641L290.998 351.739L286.641 349.226Z" fill="#897998"/>
</g>
<path d="M286.641 353.254L288.422 352.232V345.858L286.641 346.88V353.254Z" fill="#7C412F"/>
<path d="M286.641 353.254L284.86 352.232V345.858L286.641 346.88V353.254Z" fill="#5C3023"/>
<path d="M286.641 351.258L290.997 348.733L290.468 334.048L286.641 336.261V351.258Z" fill="#94983A"/>
<path d="M286.641 351.258L282.284 348.733L282.814 334.048L286.641 336.261V351.258Z" fill="#868533"/>
<path d="M286.641 336.261L282.814 334.048L286.641 331.847L290.468 334.048L286.641 336.261Z" fill="#A7AA5C"/>
<g style="mix-blend-mode:multiply">
<path d="M271.586 357.909H265.629L261.272 360.423L265.629 362.936H271.586L275.942 360.423L271.586 357.909Z" fill="#897998"/>
</g>
<path d="M271.586 361.95L273.367 360.916V354.542L271.586 355.576V361.95Z" fill="#7C412F"/>
<path d="M271.586 361.95L269.804 360.916V354.542L271.586 355.576V361.95Z" fill="#5C3023"/>
<path d="M271.586 359.942L275.942 357.428L275.413 342.743L271.586 344.944V359.942Z" fill="#94983A"/>
<path d="M271.586 359.942L267.229 357.428L267.759 342.743L271.586 344.944V359.942Z" fill="#868533"/>
<path d="M271.586 344.944L267.759 342.743L271.586 340.53L275.413 342.743L271.586 344.944Z" fill="#A7AA5C"/>
<g style="mix-blend-mode:multiply">
<path d="M338.835 319.7H332.878L328.521 322.213L332.878 324.727H338.835L343.192 322.213L338.835 319.7Z" fill="#897998"/>
</g>
<path d="M338.835 323.728L340.604 322.694V316.32L338.835 317.354V323.728Z" fill="#7C412F"/>
<path d="M338.835 323.728L337.042 322.694V316.32L338.835 317.354V323.728Z" fill="#5C3023"/>
<path d="M338.835 321.72L343.192 319.206L342.662 304.521L338.835 306.734V321.72Z" fill="#94983A"/>
<path d="M338.835 321.72L334.479 319.206L335.008 304.521L338.835 306.734V321.72Z" fill="#868533"/>
<path d="M338.835 306.734L335.008 304.522L338.835 302.309L342.662 304.522L338.835 306.734Z" fill="#A7AA5C"/>
<g style="mix-blend-mode:multiply">
<path d="M323.78 328.383H317.823L313.466 330.896L317.823 333.41H323.78L328.124 330.896L323.78 328.383Z" fill="#897998"/>
</g>
<path d="M323.78 332.412L325.549 331.39V325.016L323.78 326.038V332.412Z" fill="#7C412F"/>
<path d="M323.78 332.412L321.999 331.39V325.016L323.78 326.038V332.412Z" fill="#5C3023"/>
<path d="M323.78 330.404L328.124 327.89L327.595 313.205L323.78 315.418V330.404Z" fill="#94983A"/>
<path d="M323.78 330.404L319.423 327.89L319.941 313.205L323.78 315.418V330.404Z" fill="#868533"/>
<path d="M323.78 315.418L319.941 313.205L323.78 311.004L327.595 313.205L323.78 315.418Z" fill="#A7AA5C"/>
<path d="M578.842 251.291L534.795 277.076V224.435L578.842 251.291Z" fill="#BEBF4A"/>
<path d="M507.814 293.265L455.27 322.141L403.208 292.086L507.814 293.265Z" fill="#BEBF4A"/>
<path d="M338.125 405.8L339.016 405.283L344.395 408.386L343.504 408.903L338.125 405.8Z" fill="#776969"/>
<path d="M353.349 414.58L354.239 414.063L359.619 417.166L358.728 417.683L353.349 414.58Z" fill="#776969"/>
<path d="M368.585 423.372L369.475 422.854L374.855 425.957L373.964 426.475L368.585 423.372Z" fill="#776969"/>
<path d="M383.809 432.151L384.699 431.634L390.079 434.749L389.188 435.254L383.809 432.151Z" fill="#776969"/>
<path d="M399.044 440.943L399.935 440.426L405.302 443.529L404.412 444.046L399.044 440.943Z" fill="#776969"/>
<path d="M319.724 405.283L388.021 444.719L409.382 432.307L339.617 393.785" fill="#776969"/>
<path d="M317.991 406.342L386.24 445.754L388.021 444.719L319.724 405.283" fill="white"/>
<path d="M339.617 393.785L409.382 432.307L411.163 431.285L341.447 392.775" fill="white"/>
<path d="M344.395 408.386L339.016 405.283L338.125 405.8L343.504 408.903L344.395 408.386Z" fill="white"/>
<path d="M359.619 417.166L354.239 414.063L353.349 414.58L358.728 417.683L359.619 417.166Z" fill="white"/>
<path d="M374.855 425.957L369.475 422.854L368.585 423.372L373.964 426.475L374.855 425.957Z" fill="white"/>
<path d="M390.079 434.749L384.699 431.634L383.809 432.151L389.188 435.254L390.079 434.749Z" fill="white"/>
<path d="M470.314 397.105L411.163 431.225L341.447 392.775L360.269 381.855L400.717 358.522L470.314 397.105Z" fill="#E8DCD5"/>
<path d="M383.712 0L157.473 130.552L178.967 142.952L405.254 12.3757" fill="#776969"/>
<path d="M170.988 133.764L176.331 130.661L177.222 131.178L171.879 134.281L170.988 133.764Z" fill="#776969"/>
<path d="M186.116 124.972L191.459 121.869L192.362 122.386L187.018 125.489L186.116 124.972Z" fill="#776969"/>
<path d="M201.255 116.192L206.586 113.089L207.477 113.607L202.146 116.697L201.255 116.192Z" fill="#776969"/>
<path d="M216.383 107.4L221.714 104.297L222.617 104.815L217.273 107.917L216.383 107.4Z" fill="#776969"/>
<path d="M231.51 98.6205L236.854 95.5176L237.744 96.0347L232.401 99.1257L231.51 98.6205Z" fill="#776969"/>
<path d="M246.638 89.829L251.981 86.7261L252.872 87.2432L247.54 90.3341L246.638 89.829Z" fill="#776969"/>
<path d="M261.765 81.0375L267.109 77.9346L267.999 78.4517L262.656 81.5547L261.765 81.0375Z" fill="#776969"/>
<path d="M276.893 72.2577L282.236 69.1548L283.127 69.6719L277.795 72.7749L276.893 72.2577Z" fill="#776969"/>
<path d="M177.222 131.178L176.331 130.661L170.988 133.764L171.879 134.281L177.222 131.178Z" fill="white"/>
<path d="M192.362 122.386L191.459 121.869L186.116 124.972L187.018 125.489L192.362 122.386Z" fill="white"/>
<path d="M207.477 113.607L206.586 113.089L201.255 116.192L202.146 116.697L207.477 113.607Z" fill="white"/>
<path d="M222.617 104.815L221.714 104.297L216.383 107.4L217.273 107.917L222.617 104.815Z" fill="white"/>
<path d="M237.744 96.0347L236.854 95.5176L231.51 98.6205L232.401 99.1257L237.744 96.0347Z" fill="white"/>
<path d="M252.872 87.2432L251.981 86.7261L246.638 89.829L247.54 90.3341L252.872 87.2432Z" fill="white"/>
<path d="M267.999 78.4517L267.109 77.9346L261.765 81.0375L262.656 81.5547L267.999 78.4517Z" fill="white"/>
<path d="M405.242 12.3877L178.967 142.964L180.748 143.986L407.035 13.3498" fill="white"/>
<path d="M276.893 72.2577L282.236 69.1548L283.127 69.6719L277.795 72.7749L276.893 72.2577Z" fill="white"/>
<path d="M292.021 63.4662L297.364 60.3633L298.266 60.8804L292.923 63.9834L292.021 63.4662Z" fill="white"/>
<path d="M307.16 54.6864L312.491 51.5835L313.382 52.1007L308.05 55.2036L307.16 54.6864Z" fill="white"/>
<path d="M322.288 45.8949L327.619 42.792L328.522 43.3091L323.178 46.4121L322.288 45.8949Z" fill="white"/>
<path d="M337.415 37.1152L342.758 34.0122L343.649 34.5294L338.306 37.6323L337.415 37.1152Z" fill="white"/>
<path d="M352.542 28.3232L357.886 25.2202L358.776 25.7374L353.445 28.8403L352.542 28.3232Z" fill="white"/>
<path d="M367.67 19.5317L373.014 16.4287L373.904 16.9459L368.561 20.0488L367.67 19.5317Z" fill="white"/>
<path d="M382.798 10.7519L388.141 7.64893L389.044 8.16608L383.7 11.269L382.798 10.7519Z" fill="white"/>
<path d="M283.127 69.6719L282.236 69.1548L276.893 72.2577L277.795 72.7749L283.127 69.6719Z" fill="white"/>
<path d="M298.266 60.8804L297.364 60.3633L292.021 63.4662L292.923 63.9834L298.266 60.8804Z" fill="white"/>
<path d="M313.382 52.1007L312.491 51.5835L307.16 54.6864L308.05 55.2036L313.382 52.1007Z" fill="white"/>
<path d="M328.522 43.3091L327.619 42.792L322.288 45.8949L323.178 46.4121L328.522 43.3091Z" fill="white"/>
<path d="M343.649 34.5294L342.758 34.0122L337.415 37.1152L338.306 37.6323L343.649 34.5294Z" fill="white"/>
<path d="M358.776 25.7374L357.886 25.2202L352.542 28.3232L353.445 28.8403L358.776 25.7374Z" fill="white"/>
<path d="M373.904 16.9459L373.014 16.4287L367.67 19.5317L368.561 20.0488L373.904 16.9459Z" fill="white"/>
<path d="M389.044 8.16608L388.141 7.64893L382.798 10.7519L383.7 11.269L389.044 8.16608Z" fill="white"/>
<path d="M600.155 125.128L315.645 288.862L337.15 301.274L621.697 137.504" fill="#776969"/>
<path d="M329.159 292.086L334.503 288.983L335.405 289.5L330.062 292.591L329.159 292.086Z" fill="#776969"/>
<path d="M344.299 283.294L349.642 280.191L350.533 280.709L345.189 283.812L344.299 283.294Z" fill="#776969"/>
<path d="M359.427 274.503L364.758 271.412L365.648 271.929L360.317 275.02L359.427 274.503Z" fill="#776969"/>
<path d="M374.554 265.723L379.897 262.62L380.788 263.137L375.457 266.24L374.554 265.723Z" fill="#776969"/>
<path d="M389.681 256.931L395.025 253.828L395.915 254.345L390.572 257.448L389.681 256.931Z" fill="#776969"/>
<path d="M404.821 248.139L410.152 245.048L411.043 245.565L405.712 248.656L404.821 248.139Z" fill="#776969"/>
<path d="M419.937 239.36L425.28 236.257L426.183 236.774L420.839 239.877L419.937 239.36Z" fill="#776969"/>
<path d="M435.064 230.58L440.407 227.477L441.31 227.982L435.967 231.085L435.064 230.58Z" fill="#776969"/>
<path d="M335.405 289.5L334.503 288.983L329.159 292.086L330.062 292.591L335.405 289.5Z" fill="white"/>
<path d="M350.533 280.709L349.642 280.191L344.299 283.294L345.189 283.812L350.533 280.709Z" fill="white"/>
<path d="M365.648 271.929L364.758 271.412L359.427 274.503L360.317 275.02L365.648 271.929Z" fill="white"/>
<path d="M380.788 263.137L379.897 262.62L374.554 265.723L375.457 266.24L380.788 263.137Z" fill="white"/>
<path d="M395.915 254.345L395.025 253.828L389.681 256.931L390.572 257.448L395.915 254.345Z" fill="white"/>
<path d="M411.043 245.565L410.152 245.048L404.821 248.139L405.712 248.656L411.043 245.565Z" fill="white"/>
<path d="M426.183 236.774L425.28 236.257L419.937 239.36L420.839 239.877L426.183 236.774Z" fill="white"/>
<path d="M621.685 137.516L337.138 301.274L338.931 302.308L623.478 138.478" fill="white"/>
<path d="M598.362 124.082L313.815 287.852L315.608 288.886L600.155 125.044" fill="white"/>
<path d="M435.076 230.58L440.408 227.477L441.31 227.982L435.967 231.085L435.076 230.58Z" fill="white"/>
<path d="M450.204 221.788L455.547 218.686L456.438 219.203L451.094 222.306L450.204 221.788Z" fill="white"/>
<path d="M465.331 212.997L470.663 209.906L471.553 210.423L466.222 213.514L465.331 212.997Z" fill="white"/>
<path d="M480.459 204.217L485.802 201.114L486.693 201.631L481.361 204.722L480.459 204.217Z" fill="white"/>
<path d="M495.586 195.425L500.93 192.322L501.82 192.839L496.477 195.942L495.586 195.425Z" fill="white"/>
<path d="M510.726 186.634L516.057 183.543L516.948 184.06L511.616 187.151L510.726 186.634Z" fill="white"/>
<path d="M525.841 177.854L531.185 174.751L532.087 175.268L526.744 178.371L525.841 177.854Z" fill="white"/>
<path d="M540.981 169.063L546.312 165.972L547.215 166.489L541.872 169.58L540.981 169.063Z" fill="white"/>
<path d="M441.31 227.982L440.408 227.477L435.076 230.58L435.967 231.085L441.31 227.982Z" fill="white"/>
<path d="M456.438 219.203L455.547 218.686L450.204 221.788L451.094 222.306L456.438 219.203Z" fill="white"/>
<path d="M471.553 210.423L470.663 209.906L465.331 212.997L466.222 213.514L471.553 210.423Z" fill="white"/>
<path d="M486.693 201.631L485.802 201.114L480.459 204.217L481.361 204.722L486.693 201.631Z" fill="white"/>
<path d="M501.82 192.839L500.93 192.322L495.586 195.425L496.477 195.942L501.82 192.839Z" fill="white"/>
<path d="M516.948 184.06L516.057 183.543L510.726 186.634L511.616 187.151L516.948 184.06Z" fill="white"/>
<path d="M532.087 175.268L531.185 174.751L525.841 177.854L526.744 178.371L532.087 175.268Z" fill="white"/>
<path d="M547.215 166.489L546.312 165.972L540.981 169.063L541.872 169.58L547.215 166.489Z" fill="white"/>
<path d="M540.981 169.063L546.312 165.972L547.203 166.489L541.872 169.58L540.981 169.063Z" fill="white"/>
<path d="M556.096 160.283L561.44 157.18L562.33 157.697L556.987 160.8L556.096 160.283Z" fill="white"/>
<path d="M571.236 151.491L576.567 148.4L577.47 148.906L572.127 152.008L571.236 151.491Z" fill="white"/>
<path d="M586.364 142.711L591.707 139.608L592.597 140.126L587.254 143.228L586.364 142.711Z" fill="white"/>
<path d="M601.491 133.92L606.834 130.817L607.725 131.334L602.382 134.437L601.491 133.92Z" fill="white"/>
<path d="M562.33 157.697L561.44 157.18L556.096 160.283L556.987 160.8L562.33 157.697Z" fill="white"/>
<path d="M577.47 148.906L576.567 148.4L571.236 151.491L572.127 152.008L577.47 148.906Z" fill="white"/>
<path d="M592.597 140.126L591.707 139.608L586.364 142.711L587.254 143.228L592.597 140.126Z" fill="white"/>
<path d="M607.725 131.334L606.834 130.817L601.491 133.92L602.382 134.437L607.725 131.334Z" fill="white"/>
<path d="M374.313 252.987L314.272 287.624L269.804 262.464L329.881 227.826L374.313 252.987Z" fill="#BEBF4A"/>
<path d="M306.233 242.896L304.055 241.681L328.882 227.165L330.952 228.439L306.233 242.896Z" fill="white"/>
<path d="M305.126 242.318L270.009 262.596L100.164 164.673L135.281 144.371L305.126 242.318Z" fill="#BEBF4A"/>
<g style="mix-blend-mode:multiply">
<path d="M312.624 252.469H305.908L300.998 255.308L305.908 258.146H312.624L317.534 255.308L312.624 252.469Z" fill="#897998"/>
</g>
<path d="M312.624 257.027L314.634 255.861V248.668L312.624 249.835V257.027Z" fill="#7C412F"/>
<path d="M312.624 257.027L310.614 255.861V248.668L312.624 249.835V257.027Z" fill="#5C3023"/>
<path d="M312.624 254.754L317.534 251.928L316.944 235.355L312.624 237.845V254.754Z" fill="#94983A"/>
<path d="M312.624 254.754L307.714 251.928L308.303 235.355L312.624 237.845V254.754Z" fill="#868533"/>
<path d="M312.624 237.844L308.303 235.355L312.624 232.865L316.944 235.355L312.624 237.844Z" fill="#A7AA5C"/>
<g style="mix-blend-mode:multiply">
<path d="M330.592 241.994H323.876L318.966 244.832L323.876 247.67H330.592L335.502 244.832L330.592 241.994Z" fill="#897998"/>
</g>
<path d="M330.591 246.54L332.601 245.385V238.193L330.591 239.36V246.54Z" fill="#7C412F"/>
<path d="M330.591 246.54L328.582 245.385V238.193L330.591 239.36V246.54Z" fill="#5C3023"/>
<path d="M330.591 244.279L335.501 241.44L334.912 224.879L330.591 227.369V244.279Z" fill="#94983A"/>
<path d="M330.591 244.279L325.681 241.44L326.271 224.879L330.591 227.369V244.279Z" fill="#868533"/>
<path d="M330.591 227.369L326.271 224.879L330.591 222.39L334.912 224.879L330.591 227.369Z" fill="#A7AA5C"/>
<g style="mix-blend-mode:multiply">
<path d="M295.402 242.739H288.747L283.873 245.554L288.747 248.356H295.402L300.276 245.554L295.402 242.739Z" fill="#897998"/>
</g>
<path d="M295.402 247.25L297.4 246.095V238.975L295.402 240.13V247.25Z" fill="#7C412F"/>
<path d="M295.402 247.25L293.417 246.095V238.975L295.402 240.13V247.25Z" fill="#5C3023"/>
<path d="M295.402 245L300.276 242.198L299.674 225.781L295.402 228.247V245Z" fill="#94983A"/>
<path d="M295.402 245L290.528 242.198L291.13 225.781L295.402 228.247V245Z" fill="#868533"/>
<path d="M295.402 228.247L291.13 225.781L295.402 223.316L299.674 225.781L295.402 228.247Z" fill="#A7AA5C"/>
<g style="mix-blend-mode:multiply">
<path d="M278.289 232.865H271.634L266.772 235.68L271.634 238.482H278.289L283.163 235.68L278.289 232.865Z" fill="#897998"/>
</g>
<path d="M278.289 237.375L280.287 236.221V229.101L278.289 230.255V237.375Z" fill="#7C412F"/>
<path d="M278.289 237.375L276.303 236.221V229.101L278.289 230.255V237.375Z" fill="#5C3023"/>
<path d="M278.289 235.126L283.163 232.324L282.573 215.907L278.289 218.373V235.126Z" fill="#94983A"/>
<path d="M278.289 235.126L273.427 232.324L274.016 215.907L278.289 218.373V235.126Z" fill="#868533"/>
<path d="M278.289 218.373L274.017 215.907L278.289 213.442L282.573 215.907L278.289 218.373Z" fill="#A7AA5C"/>
<g style="mix-blend-mode:multiply">
<path d="M295.643 262.271H288.927L284.017 265.109L288.927 267.936H295.643L300.553 265.109L295.643 262.271Z" fill="#897998"/>
</g>
<path d="M295.643 266.817L297.653 265.663V258.471L295.643 259.637V266.817Z" fill="#7C412F"/>
<path d="M295.643 266.817L293.633 265.663V258.471L295.643 259.637V266.817Z" fill="#5C3023"/>
<path d="M295.643 264.556L300.553 261.718L299.963 245.157L295.643 247.646V264.556Z" fill="#94983A"/>
<path d="M295.643 264.556L290.721 261.718L291.322 245.157L295.643 247.646V264.556Z" fill="#868533"/>
<path d="M295.643 247.646L291.322 245.157L295.643 242.667L299.963 245.157L295.643 247.646Z" fill="#A7AA5C"/>
<g style="mix-blend-mode:multiply">
<path d="M337.523 257.713H330.808L325.898 260.551L330.808 263.378H337.523L342.446 260.551L337.523 257.713Z" fill="#897998"/>
</g>
<path d="M337.523 262.259L339.533 261.104V253.912L337.523 255.067V262.259Z" fill="#7C412F"/>
<path d="M337.523 262.259L335.526 261.104V253.912L337.523 255.067V262.259Z" fill="#5C3023"/>
<path d="M337.523 259.998L342.446 257.16L341.844 240.599L337.523 243.088V259.998Z" fill="#94983A"/>
<path d="M337.523 259.998L332.613 257.16L333.215 240.599L337.523 243.088V259.998Z" fill="#868533"/>
<path d="M337.523 243.088L333.215 240.598L337.523 238.109L341.844 240.598L337.523 243.088Z" fill="#A7AA5C"/>
<g style="mix-blend-mode:multiply">
<path d="M320.542 267.515H313.827L308.917 270.341L313.827 273.179H320.542L325.465 270.341L320.542 267.515Z" fill="#897998"/>
</g>
<path d="M320.542 272.061L322.552 270.894V263.714L320.542 264.869V272.061Z" fill="#7C412F"/>
<path d="M320.542 272.061L318.545 270.894V263.714L320.542 264.869V272.061Z" fill="#5C3023"/>
<path d="M320.542 269.8L325.465 266.962L324.863 250.389L320.542 252.89V269.8Z" fill="#94983A"/>
<path d="M320.542 269.8L315.632 266.962L316.234 250.389L320.542 252.89V269.8Z" fill="#868533"/>
<path d="M320.543 252.89L316.234 250.389L320.543 247.899L324.863 250.389L320.543 252.89Z" fill="#A7AA5C"/>
<g style="mix-blend-mode:multiply">
<path d="M278.578 252.445H271.923L267.049 255.259L271.923 258.073H278.578L283.44 255.259L278.578 252.445Z" fill="#897998"/>
</g>
<path d="M278.578 256.955L280.563 255.813V248.681L278.578 249.835V256.955Z" fill="#7C412F"/>
<path d="M278.578 256.955L276.58 255.813V248.681L278.578 249.835V256.955Z" fill="#5C3023"/>
<path d="M278.578 254.718L283.44 251.904L282.85 235.487L278.578 237.953V254.718Z" fill="#94983A"/>
<path d="M278.578 254.718L273.704 251.904L274.293 235.487L278.578 237.953V254.718Z" fill="#868533"/>
<path d="M278.578 237.953L274.293 235.487L278.578 233.021L282.85 235.487L278.578 237.953Z" fill="#A7AA5C"/>
<g style="mix-blend-mode:multiply">
<path d="M171.121 172.009H164.405L159.495 174.847L164.405 177.673H171.121L176.031 174.847L171.121 172.009Z" fill="#897998"/>
</g>
<path d="M171.121 176.555L173.13 175.401V168.208L171.121 169.363V176.555Z" fill="#7C412F"/>
<path d="M171.12 176.555L169.111 175.401V168.208L171.12 169.363V176.555Z" fill="#5C3023"/>
<path d="M171.121 174.294L176.031 171.456L175.441 154.895L171.121 157.384V174.294Z" fill="#94983A"/>
<path d="M171.121 174.294L166.21 171.456L166.8 154.895L171.121 157.384V174.294Z" fill="#868533"/>
<path d="M171.12 157.384L166.8 154.895L171.12 152.405L175.441 154.895L171.12 157.384Z" fill="#A7AA5C"/>
<g style="mix-blend-mode:multiply">
<path d="M153.899 162.279H147.244L142.382 165.082L147.244 167.896H153.899L158.773 165.082L153.899 162.279Z" fill="#897998"/>
</g>
<path d="M153.899 166.777L155.897 165.635V158.503L153.899 159.658V166.777Z" fill="#7C412F"/>
<path d="M153.899 166.777L151.913 165.635V158.503L153.899 159.658V166.777Z" fill="#5C3023"/>
<path d="M153.899 164.54L158.773 161.726L158.183 145.309L153.899 147.787V164.54Z" fill="#94983A"/>
<path d="M153.899 164.54L149.037 161.726L149.627 145.309L153.899 147.787V164.54Z" fill="#868533"/>
<path d="M153.899 147.787L149.627 145.309L153.899 142.844L158.183 145.309L153.899 147.787Z" fill="#A7AA5C"/>
<g style="mix-blend-mode:multiply">
<path d="M136.786 152.405H130.143L125.269 155.208L130.143 158.022H136.786L141.66 155.208L136.786 152.405Z" fill="#897998"/>
</g>
<path d="M136.786 156.915L138.783 155.761V148.641L136.786 149.783V156.915Z" fill="#7C412F"/>
<path d="M136.786 156.915L134.8 155.761V148.641L136.786 149.783V156.915Z" fill="#5C3023"/>
<path d="M136.786 154.666L141.66 151.852L141.07 135.435L136.786 137.913V154.666Z" fill="#94983A"/>
<path d="M136.786 154.666L131.924 151.852L132.513 135.435L136.786 137.913V154.666Z" fill="#868533"/>
<path d="M136.786 137.913L132.513 135.435L136.786 132.97L141.07 135.435L136.786 137.913Z" fill="#A7AA5C"/>
<g style="mix-blend-mode:multiply">
<path d="M154.14 181.811H147.424L142.514 184.637L147.424 187.476H154.14L159.05 184.637L154.14 181.811Z" fill="#897998"/>
</g>
<path d="M154.14 186.357L156.149 185.19V178.01L154.14 179.165V186.357Z" fill="#7C412F"/>
<path d="M154.14 186.357L152.13 185.19V178.01L154.14 179.165V186.357Z" fill="#5C3023"/>
<path d="M154.14 184.096L159.05 181.258L158.46 164.697L154.14 167.186V184.096Z" fill="#94983A"/>
<path d="M154.14 184.096L149.229 181.258L149.819 164.697L154.14 167.186V184.096Z" fill="#868533"/>
<path d="M154.14 167.186L149.819 164.696L154.14 162.195L158.46 164.696L154.14 167.186Z" fill="#A7AA5C"/>
<g style="mix-blend-mode:multiply">
<path d="M137.075 171.985H130.419L125.557 174.799L130.419 177.601H137.075L141.949 174.799L137.075 171.985Z" fill="#897998"/>
</g>
<path d="M137.074 176.495L139.072 175.341V168.221L137.074 169.363V176.495Z" fill="#7C412F"/>
<path d="M137.075 176.495L135.089 175.341V168.221L137.075 169.363V176.495Z" fill="#5C3023"/>
<path d="M137.074 174.246L141.948 171.444L141.347 155.027L137.074 157.492V174.246Z" fill="#94983A"/>
<path d="M137.074 174.246L132.212 171.444L132.802 155.027L137.074 157.492V174.246Z" fill="#868533"/>
<path d="M137.075 157.492L132.802 155.027L137.075 152.549L141.347 155.027L137.075 157.492Z" fill="#A7AA5C"/>
<g style="mix-blend-mode:multiply">
<path d="M572.343 121.304H565.339L560.224 124.262L565.339 127.221H572.343L577.47 124.262L572.343 121.304Z" fill="#897998"/>
</g>
<path d="M572.343 126.054L574.437 124.839V117.347L572.343 118.549V126.054Z" fill="#7C412F"/>
<path d="M572.343 126.054L570.249 124.839V117.347L572.343 118.549V126.054Z" fill="#5C3023"/>
<path d="M572.343 123.685L577.47 120.738L576.844 103.468L572.343 106.066V123.685Z" fill="#94983A"/>
<path d="M572.343 123.685L567.216 120.738L567.842 103.468L572.343 106.066V123.685Z" fill="#868533"/>
<path d="M572.343 106.065L567.842 103.467L572.343 100.87L576.844 103.467L572.343 106.065Z" fill="#A7AA5C"/>
<g style="mix-blend-mode:multiply">
<path d="M551.21 109.673H544.206L539.079 112.632L544.206 115.579H551.21L556.325 112.632L551.21 109.673Z" fill="#897998"/>
</g>
<path d="M551.21 114.412L553.304 113.209V105.705L551.21 106.919V114.412Z" fill="#7C412F"/>
<path d="M551.21 114.412L549.116 113.209V105.705L551.21 106.919V114.412Z" fill="#5C3023"/>
<path d="M551.21 112.055L556.325 109.096L555.711 91.8257L551.21 94.4235V112.055Z" fill="#94983A"/>
<path d="M551.21 112.055L546.084 109.096L546.709 91.8257L551.21 94.4235V112.055Z" fill="#868533"/>
<path d="M551.21 94.4232L546.709 91.8253L551.21 89.2275L555.711 91.8253L551.21 94.4232Z" fill="#A7AA5C"/>
<g style="mix-blend-mode:multiply">
<path d="M557.119 243.485H552.342L548.852 245.505L552.342 247.514H557.119L560.609 245.505L557.119 243.485Z" fill="#897998"/>
</g>
<path d="M557.119 246.72L558.539 245.902V240.779L557.119 241.609V246.72Z" fill="#7C412F"/>
<path d="M557.119 246.72L555.687 245.902V240.779L557.119 241.609V246.72Z" fill="#5C3023"/>
<path d="M557.119 245.109L560.609 243.1L560.188 231.314L557.119 233.082V245.109Z" fill="#94983A"/>
<path d="M557.119 245.109L553.617 243.1L554.05 231.314L557.119 233.082V245.109Z" fill="#868533"/>
<path d="M557.119 233.082L554.051 231.314L557.119 229.546L560.188 231.314L557.119 233.082Z" fill="#A7AA5C"/>
<g style="mix-blend-mode:multiply">
<path d="M543.508 259.048H538.73L535.24 261.068L538.73 263.089H543.508L546.998 261.068L543.508 259.048Z" fill="#897998"/>
</g>
<path d="M543.508 262.283L544.94 261.465V256.354L543.508 257.172V262.283Z" fill="#7C412F"/>
<path d="M543.508 262.283L542.088 261.465V256.354L543.508 257.172V262.283Z" fill="#5C3023"/>
<path d="M543.508 260.671L546.998 258.663L546.577 246.876L543.508 248.656V260.671Z" fill="#94983A"/>
<path d="M543.508 260.671L540.018 258.663L540.439 246.876L543.508 248.656V260.671Z" fill="#868533"/>
<path d="M543.508 248.656L540.439 246.876L543.508 245.108L546.577 246.876L543.508 248.656Z" fill="#A7AA5C"/>
<g style="mix-blend-mode:multiply">
<path d="M443.368 303.103H438.602L435.1 305.123L438.602 307.132H443.368L446.87 305.123L443.368 303.103Z" fill="#897998"/>
</g>
<path d="M443.368 306.338L444.8 305.52V300.396L443.368 301.226V306.338Z" fill="#7C412F"/>
<path d="M443.368 306.338L441.948 305.52V300.396L443.368 301.226V306.338Z" fill="#5C3023"/>
<path d="M443.368 304.726L446.87 302.718L446.437 290.931L443.368 292.699V304.726Z" fill="#94983A"/>
<path d="M443.368 304.726L439.878 302.718L440.299 290.931L443.368 292.699V304.726Z" fill="#868533"/>
<path d="M443.368 292.699L440.299 290.931L443.368 289.163L446.437 290.931L443.368 292.699Z" fill="#A7AA5C"/>
<g style="mix-blend-mode:multiply">
<path d="M467.221 303.103H462.443L458.953 305.123L462.443 307.132H467.221L470.711 305.123L467.221 303.103Z" fill="#897998"/>
</g>
<path d="M467.221 306.338L468.653 305.52V300.396L467.221 301.226V306.338Z" fill="#7C412F"/>
<path d="M467.221 306.338L465.788 305.52V300.396L467.221 301.226V306.338Z" fill="#5C3023"/>
<path d="M467.221 304.726L470.711 302.718L470.29 290.931L467.221 292.699V304.726Z" fill="#94983A"/>
<path d="M467.221 304.726L463.731 302.718L464.152 290.931L467.221 292.699V304.726Z" fill="#868533"/>
<path d="M467.221 292.699L464.152 290.931L467.221 289.163L470.289 290.931L467.221 292.699Z" fill="#A7AA5C"/>
</g>
<defs>
<clipPath id="clip0_204_25341">
<rect width="770" height="470" fill="white"/>
</clipPath>
</defs>
</svg>
