<svg width="19" height="23" viewBox="0 0 19 23" fill="none" xmlns="http://www.w3.org/2000/svg">
<g clip-path="url(#clip0_204_261)">
<path d="M17.4464 13.6241C17.4464 18.3027 13.7411 22.0949 9.16964 22.0949C4.59821 22.0858 0.892853 18.3027 0.892853 13.6241C0.892853 8.94555 4.59821 5.15334 9.16964 5.15334C13.7411 5.1442 17.4464 8.94555 17.4464 13.6241Z" stroke="#605CFF" stroke-width="2" stroke-miterlimit="10" stroke-linejoin="round"/>
<path d="M7.99107 0.913574H10.3571C10.6875 0.913574 10.9464 1.18771 10.9464 1.51667V2.72287C10.9464 3.06097 10.6786 3.32597 10.3571 3.32597H7.99107C7.66071 3.32597 7.40178 3.05183 7.40178 2.72287V1.51667C7.39285 1.18771 7.66071 0.913574 7.99107 0.913574Z" stroke="#605CFF" stroke-width="2" stroke-miterlimit="10" stroke-linejoin="round"/>
<path d="M9.16963 3.33496V5.14426" stroke="#605CFF" stroke-width="2" stroke-miterlimit="10" stroke-linejoin="round"/>
<path d="M15.8571 4.20312L18.3661 6.77086" stroke="#605CFF" stroke-width="2" stroke-miterlimit="10" stroke-linejoin="round"/>
<path d="M17.1161 5.4917L15.0179 7.62996" stroke="#605CFF" stroke-width="2" stroke-miterlimit="10" stroke-linejoin="round"/>
<path d="M9.16963 13.6244V8.17822" stroke="#605CFF" stroke-width="2" stroke-miterlimit="10" stroke-linejoin="round"/>
<path d="M10.3482 13.6243C10.3482 14.2913 9.82143 14.8305 9.16965 14.8305C8.51786 14.8305 7.99107 14.2913 7.99107 13.6243C7.99107 12.9572 8.51786 12.4181 9.16965 12.4181C9.82143 12.4089 10.3482 12.9481 10.3482 13.6243Z" fill="#605CFF"/>
</g>
<defs>
<clipPath id="clip0_204_261">
<rect width="19" height="23" fill="white"/>
</clipPath>
</defs>
</svg>
