<svg width="101" height="101" viewBox="0 0 101 101" fill="none" xmlns="http://www.w3.org/2000/svg">
<g clip-path="url(#clip0_286_3451)">
<path d="M71.4312 78.586H28.5686C28.1357 78.586 27.7773 78.227 27.7773 77.7932V32.742C27.7773 32.3082 28.1357 31.9492 28.5686 31.9492H43.0652C43.4981 31.9492 43.8564 32.3082 43.8564 32.742C43.8564 33.1757 43.4981 33.5347 43.0652 33.5347H29.3599V77.0005H70.6549V47.7142C70.6549 47.2804 71.0132 46.9214 71.4461 46.9214C71.8791 46.9214 72.2374 47.2804 72.2374 47.7142V77.7932C72.2225 78.227 71.8791 78.586 71.4312 78.586Z" fill="#9AC0FF"/>
<path d="M71.4312 45.081H59.9056C59.4727 45.081 59.1144 44.7221 59.1144 44.2883V33.5191H56.4121C55.9792 33.5191 55.6208 33.1601 55.6208 32.7263C55.6208 32.2926 55.9792 31.9336 56.4121 31.9336H59.9056C60.3386 31.9336 60.6969 32.2926 60.6969 32.7263V43.4956H71.4461C71.8791 43.4956 72.2374 43.8545 72.2374 44.2883C72.2225 44.737 71.8791 45.081 71.4312 45.081Z" fill="#9AC0FF"/>
<path d="M71.4311 45.0813H59.9055C59.4726 45.0813 59.1143 44.7223 59.1143 44.2886V32.7415C59.1143 32.4274 59.3083 32.1283 59.6069 32.0086C59.9055 31.889 60.234 31.9488 60.4728 32.1732L71.9984 43.7202C72.2224 43.9445 72.297 44.2886 72.1626 44.5877C72.0432 44.9018 71.7595 45.0813 71.4311 45.0813ZM60.6968 43.5108H69.535L60.6968 34.6561V43.5108Z" fill="#9AC0FF"/>
<path d="M66.9074 66.1255H41.6467C41.2138 66.1255 40.8555 65.7665 40.8555 65.3328C40.8555 64.899 41.2138 64.54 41.6467 64.54H66.9074C67.3404 64.54 67.6987 64.899 67.6987 65.3328C67.6987 65.7665 67.3404 66.1255 66.9074 66.1255Z" fill="#9AC0FF"/>
<path d="M66.9074 54.6538H41.6467C41.2138 54.6538 40.8555 54.2949 40.8555 53.8611C40.8555 53.4273 41.2138 53.0684 41.6467 53.0684H66.9074C67.3404 53.0684 67.6987 53.4273 67.6987 53.8611C67.6987 54.3098 67.3404 54.6538 66.9074 54.6538Z" fill="#9AC0FF"/>
<path d="M66.9074 49.3286H41.6467C41.2138 49.3286 40.8555 48.9697 40.8555 48.5359C40.8555 48.1021 41.2138 47.7432 41.6467 47.7432H66.9074C67.3404 47.7432 67.6987 48.1021 67.6987 48.5359C67.6987 48.9846 67.3404 49.3286 66.9074 49.3286Z" fill="#9AC0FF"/>
<path d="M66.9074 71.1665H41.6467C41.2138 71.1665 40.8555 70.8075 40.8555 70.3738C40.8555 69.94 41.2138 69.5811 41.6467 69.5811H66.9074C67.3404 69.5811 67.6987 69.94 67.6987 70.3738C67.6987 70.8075 67.3404 71.1665 66.9074 71.1665Z" fill="#9AC0FF"/>
<path d="M35.0181 51.0187C34.9882 51.0187 34.9733 51.0187 34.9435 51.0187C34.6897 50.9888 34.4657 50.8542 34.3314 50.6298L33.0474 48.461C32.8235 48.0871 32.9578 47.5935 33.3311 47.3841C33.7043 47.1597 34.197 47.2943 34.406 47.6683L35.1375 48.9097L39.7508 43.7046C40.0493 43.3755 40.542 43.3456 40.8705 43.6298C41.1989 43.914 41.2288 44.4225 40.9451 44.7516L35.6153 50.7794C35.4511 50.9289 35.242 51.0187 35.0181 51.0187Z" fill="#9AC0FF"/>
<path d="M35.0181 67.4718C34.9882 67.4718 34.9733 67.4718 34.9435 67.4718C34.6897 67.4419 34.4657 67.3073 34.3314 67.0829L33.0474 64.9141C32.8235 64.5402 32.9578 64.0466 33.3311 63.8372C33.7043 63.6128 34.197 63.7475 34.406 64.1214L35.1375 65.3628L39.7508 60.1577C40.0493 59.8286 40.542 59.7987 40.8705 60.0829C41.1989 60.3671 41.2288 60.8757 40.9451 61.2047L35.6153 67.2325C35.4511 67.3821 35.242 67.4718 35.0181 67.4718Z" fill="#9AC0FF"/>
<path d="M76.2237 83.9996H23.7913C23.3583 83.9996 23 83.6406 23 83.2069V26.115C23 25.6812 23.3583 25.3223 23.7913 25.3223H38.4072C38.8402 25.3223 39.1985 25.6812 39.1985 26.115V29.6449H43.0652C43.4982 29.6449 43.8565 30.0039 43.8565 30.4377V33.9825H55.621V30.4526C55.621 30.0188 55.9793 29.6599 56.4122 29.6599H60.279V26.115C60.279 25.6812 60.6373 25.3223 61.0702 25.3223H76.2237C76.6566 25.3223 77.0149 25.6812 77.0149 26.115V83.2069C77 83.6406 76.6566 83.9996 76.2237 83.9996ZM24.5825 82.4142H75.4324V26.9077H61.8615V30.4526C61.8615 30.8864 61.5032 31.2453 61.0702 31.2453H57.2035V34.7753C57.2035 35.209 56.8452 35.568 56.4122 35.568H43.0652C42.6323 35.568 42.274 35.209 42.274 34.7753V31.2304H38.4072C37.9743 31.2304 37.616 30.8714 37.616 30.4377V26.9077H24.5825V82.4142Z" fill="#9AC0FF"/>
<path d="M61.0702 31.2308H56.4122C55.9792 31.2308 55.6209 30.8718 55.6209 30.438V26.9081H43.8565V30.453C43.8565 30.8868 43.4982 31.2457 43.0652 31.2457H38.4072C37.9743 31.2457 37.616 30.8868 37.616 30.453V21.7927C37.616 21.359 37.9743 21 38.4072 21H61.0702C61.5032 21 61.8615 21.359 61.8615 21.7927V30.453C61.8465 30.8868 61.5032 31.2308 61.0702 31.2308ZM57.2035 29.6603H60.2789V22.5855H39.1985V29.6603H42.274V26.1154C42.274 25.6816 42.6323 25.3226 43.0652 25.3226H56.4122C56.8452 25.3226 57.2035 25.6816 57.2035 26.1154V29.6603Z" fill="#9AC0FF"/>
<path d="M56.4122 35.568H43.0652C42.6322 35.568 42.2739 35.209 42.2739 34.7753V26.115C42.2739 25.6812 42.6322 25.3223 43.0652 25.3223H56.4122C56.8451 25.3223 57.2034 25.6812 57.2034 26.115V34.7753C57.2034 35.209 56.8451 35.568 56.4122 35.568ZM43.8565 33.9825H55.6209V26.9077H43.8565V33.9825Z" fill="#9AC0FF"/>
</g>
<defs>
<clipPath id="clip0_286_3451">
<rect width="54" height="63" fill="white" transform="translate(23 21)"/>
</clipPath>
</defs>
</svg>
