<svg xmlns="http://www.w3.org/2000/svg" viewBox="0 0 130.45 153.42"><defs><style>.cls-1{isolation:isolate;}.cls-2{fill:#bebf4a;}.cls-3{fill:#5a504f;}.cls-4{mix-blend-mode:multiply;}.cls-5{fill:#c5bdcd;}.cls-6{fill:#826565;}.cls-7{fill:#e5ded0;}.cls-8{fill:#f7f7ff;}.cls-9{fill:#365d66;}.cls-10{fill:#4b7680;}.cls-11{fill:#65838a;}.cls-12{fill:#bec9d1;}.cls-13{fill:#94a9ae;}.cls-14{fill:#c2d6d5;}.cls-15{fill:#989898;}.cls-16{fill:#d6d6ce;}.cls-17{fill:#f5f5fc;}.cls-18{fill:#a68a69;}.cls-19{fill:#40454c;}.cls-20{fill:#3a3f46;}.cls-21{fill:#4d5258;}.cls-22{fill:#606469;}.cls-23{fill:#6f7378;}.cls-24{fill:#76797e;}.cls-25{fill:#2f353c;}.cls-26{fill:#77808c;}.cls-27{fill:#8894a3;}.cls-28{fill:#b2bdc7;}</style></defs><title>inside-b</title><g class="cls-1"><g id="layer"><polygon class="cls-2" points="61.02 146.94 107.28 120.23 69.43 98.38 23.17 125.09 61.02 146.94"/><polygon class="cls-3" points="61.82 142.32 99.28 120.69 68.63 103 31.17 124.62 61.82 142.32"/><g class="cls-4"><polygon class="cls-5" points="66.78 133.05 59.85 106.37 49.66 112.25 58.72 110.1 33.1 124.89 48.21 133.62 62.63 133.62 64.18 132.73 66.78 133.05"/></g><polygon class="cls-6" points="58.48 102.58 58.48 133.03 43.33 124.28 43.33 93.84 58.48 102.58"/><polygon class="cls-6" points="42.31 91.44 42.31 121.88 44.9 123.38 44.9 92.93 42.31 91.44"/><polygon class="cls-6" points="43.31 89.04 43.31 91.11 44.89 92.02 44.89 89.95 43.31 89.04"/><polygon class="cls-6" points="65.21 101.68 65.21 132.13 66.78 133.04 66.78 102.6 65.21 101.68"/><polygon class="cls-6" points="60.05 101.67 60.05 132.12 62.63 133.62 62.63 103.17 60.05 101.67"/><polygon class="cls-7" points="83.94 92.72 83.94 123.14 66.78 133.04 66.78 99.88 82.86 90.6 82.86 92.46 83.94 92.72"/><polygon class="cls-7" points="84.93 90.32 84.93 120.74 82.36 122.23 82.36 91.81 84.93 90.32"/><polygon class="cls-7" points="65.2 98.97 65.2 132.13 62.63 133.62 62.63 100.45 65.2 98.97"/><polygon class="cls-7" points="60.05 98.96 60.05 132.12 58.48 133.03 58.48 99.86 60.05 98.96"/><polygon class="cls-8" points="43.31 89.07 44.89 89.98 42.31 91.47 44.9 92.96 43.33 93.87 58.48 102.61 60.05 101.7 62.63 103.2 65.2 101.71 66.78 102.62 83.94 92.72 82.36 91.81 84.93 90.32 82.34 88.83 83.91 87.92 43.31 89.07"/><polygon class="cls-9" points="44.1 86.32 44.1 89.07 43.1 88.72 43.1 91.47 44.12 92.06 44.12 93.87 58.48 102.15 60.05 101.25 62.63 102.74 65.2 101.26 66.78 102.17 66.78 99.88 44.1 86.32"/><polygon class="cls-10" points="44.12 91.12 44.12 93.87 45.69 92.96 45.69 90.21 44.12 91.12"/><polygon class="cls-11" points="81.56 86.08 81.56 88.83 83.13 87.92 83.13 85.18 81.56 86.08"/><polygon class="cls-11" points="81.57 89.06 81.57 91.81 84.14 90.32 84.14 87.58 81.57 89.06"/><polygon class="cls-11" points="58.48 99.41 58.48 102.15 60.05 101.25 60.05 98.5 58.48 99.41"/><g class="cls-4"><polygon class="cls-12" points="58.48 99.41 58.48 100.27 60.05 99.36 60.05 98.5 58.48 99.41"/></g><polygon class="cls-11" points="62.63 100 62.63 102.74 65.2 101.26 65.2 98.51 62.63 100"/><g class="cls-4"><polygon class="cls-12" points="62.63 100 62.63 100.86 65.2 99.37 65.2 98.51 62.63 100"/></g><polygon class="cls-11" points="66.78 99.42 66.78 102.17 83.15 92.72 83.15 89.97 66.78 99.42"/><polygon class="cls-13" points="83.15 89.97 83.15 92.72 81.58 91.81 81.58 89.07 83.15 89.97"/><g class="cls-4"><polygon class="cls-12" points="66.78 99.42 66.78 100.28 83.15 90.83 83.15 89.97 66.78 99.42"/></g><polygon class="cls-6" points="42.31 87.27 42.31 88.72 44.9 90.21 44.9 88.76 42.31 87.27"/><polygon class="cls-6" points="58.48 98.41 58.48 99.86 43.33 91.12 43.33 89.67 58.48 98.41"/><polygon class="cls-6" points="43.31 84.87 43.31 86.32 44.89 87.23 44.89 85.78 43.31 84.87"/><polygon class="cls-7" points="58.48 98.41 58.48 99.86 60.05 98.96 60.05 97.5 58.48 98.41"/><polygon class="cls-7" points="62.63 99 62.63 100.45 65.2 98.97 65.2 97.51 62.63 99"/><polygon class="cls-7" points="82.36 87.61 82.36 89.06 84.93 87.58 84.93 86.12 82.36 87.61"/><polygon class="cls-7" points="66.78 98.42 66.78 99.88 83.94 89.97 83.94 88.52 66.78 98.42"/><polygon class="cls-7" points="83.91 83.72 83.91 85.18 82.34 86.08 82.34 84.63 83.91 83.72"/><polygon class="cls-6" points="60.05 97.5 60.05 98.96 62.63 100.45 62.63 99 60.05 97.5"/><polygon class="cls-6" points="65.2 97.51 65.2 98.97 66.78 99.88 66.78 98.43 65.2 97.51"/><polygon class="cls-8" points="68.77 74.98 67.2 75.89 64.61 74.39 62.04 75.88 60.46 74.97 43.31 84.87 44.89 85.78 42.31 87.27 44.9 88.76 43.33 89.67 58.48 98.41 60.05 97.5 62.63 99 65.2 97.51 66.78 98.43 83.94 88.52 82.36 87.61 84.93 86.13 82.34 84.63 83.91 83.72 68.77 74.98"/><polygon class="cls-6" points="58.48 96.66 58.48 98.41 43.33 89.67 43.33 87.91 58.48 96.66"/><polygon class="cls-6" points="42.31 85.51 42.31 87.27 44.9 88.76 44.9 87.01 42.31 85.51"/><polygon class="cls-6" points="43.31 83.12 43.31 85.18 44.89 86.09 44.89 84.03 43.31 83.12"/><polygon class="cls-6" points="65.21 95.76 65.21 97.51 66.78 98.43 66.78 96.67 65.21 95.76"/><polygon class="cls-6" points="60.05 95.75 60.05 97.5 62.63 99 62.63 97.24 60.05 95.75"/><polygon class="cls-7" points="83.94 86.79 83.94 88.52 66.78 98.43 66.78 93.95 82.86 84.67 82.86 86.53 83.94 86.79"/><polygon class="cls-7" points="84.93 84.4 84.93 86.13 82.36 87.61 82.36 85.88 84.93 84.4"/><polygon class="cls-7" points="65.2 93.04 65.2 97.51 62.63 99 62.63 94.53 65.2 93.04"/><polygon class="cls-7" points="60.05 93.03 60.05 97.5 58.48 98.41 58.48 93.94 60.05 93.03"/><polygon class="cls-8" points="43.31 83.14 44.89 84.06 42.31 85.54 44.9 87.03 43.33 87.94 58.48 96.68 60.05 95.78 62.63 97.27 65.2 95.79 66.78 96.7 83.94 86.79 82.36 85.88 84.93 84.4 82.34 82.9 83.91 82 43.31 83.14"/><polygon class="cls-9" points="44.1 80.4 44.1 83.14 43.1 82.79 43.1 85.54 44.12 86.13 44.12 87.94 58.48 96.23 60.05 95.32 62.63 96.82 65.2 95.33 66.78 96.24 66.78 93.95 44.1 80.4"/><polygon class="cls-10" points="44.12 85.19 44.12 87.94 45.69 87.03 45.69 84.29 44.12 85.19"/><polygon class="cls-11" points="81.56 80.16 81.56 82.9 83.13 82 83.13 79.25 81.56 80.16"/><polygon class="cls-11" points="81.57 83.14 81.57 85.88 84.14 84.4 84.14 81.65 81.57 83.14"/><polygon class="cls-11" points="58.48 93.48 58.48 96.23 60.05 95.32 60.05 92.58 58.48 93.48"/><polygon class="cls-11" points="62.63 94.07 62.63 96.82 65.2 95.33 65.2 92.58 62.63 94.07"/><polygon class="cls-11" points="66.78 93.5 66.78 96.24 83.15 86.79 83.15 84.05 66.78 93.5"/><polygon class="cls-13" points="83.15 84.05 83.15 86.79 81.58 85.89 81.58 83.14 83.15 84.05"/><polygon class="cls-6" points="42.31 81.34 42.31 82.79 44.9 84.29 44.9 82.84 42.31 81.34"/><polygon class="cls-6" points="58.48 92.48 58.48 93.94 43.33 85.19 43.33 83.74 58.48 92.48"/><polygon class="cls-6" points="43.31 78.95 43.31 80.4 44.89 81.31 44.89 79.86 43.31 78.95"/><polygon class="cls-7" points="58.48 92.48 58.48 93.94 60.05 93.03 60.05 91.58 58.48 92.48"/><polygon class="cls-7" points="62.63 93.07 62.63 94.53 65.2 93.04 65.2 91.59 62.63 93.07"/><polygon class="cls-7" points="82.36 81.68 82.36 83.14 84.93 81.65 84.93 80.2 82.36 81.68"/><polygon class="cls-7" points="66.78 92.5 66.78 93.95 83.94 84.05 83.94 82.59 66.78 92.5"/><polygon class="cls-7" points="83.91 77.8 83.91 79.25 82.34 80.16 82.34 78.7 83.91 77.8"/><polygon class="cls-6" points="60.05 91.58 60.05 93.03 62.63 94.53 62.63 93.07 60.05 91.58"/><polygon class="cls-6" points="65.2 91.59 65.2 93.04 66.78 93.95 66.78 92.5 65.2 91.59"/><polygon class="cls-8" points="68.77 69.06 67.2 69.96 64.61 68.47 62.04 69.95 60.46 69.04 43.31 78.95 44.89 79.86 42.31 81.34 44.9 82.84 43.33 83.74 58.48 92.48 60.05 91.58 62.63 93.07 65.2 91.59 66.78 92.5 83.94 82.59 82.36 81.68 84.93 80.2 82.34 78.7 83.91 77.8 68.77 69.06"/><polygon class="cls-6" points="58.48 90.73 58.48 92.48 43.33 83.74 43.33 81.99 58.48 90.73"/><polygon class="cls-6" points="42.31 79.59 42.31 81.34 44.9 82.84 44.9 81.08 42.31 79.59"/><polygon class="cls-6" points="43.31 77.19 43.31 79.25 44.89 80.17 44.89 78.1 43.31 77.19"/><polygon class="cls-6" points="65.21 89.83 65.21 91.59 66.78 92.5 66.78 90.74 65.21 89.83"/><polygon class="cls-6" points="60.05 89.82 60.05 91.58 62.63 93.07 62.63 91.32 60.05 89.82"/><polygon class="cls-7" points="83.94 80.87 83.94 82.6 66.78 92.5 66.78 88.03 82.86 78.74 82.86 80.61 83.94 80.87"/><polygon class="cls-7" points="84.93 78.47 84.93 80.2 82.36 81.68 82.36 79.96 84.93 78.47"/><polygon class="cls-7" points="65.2 87.11 65.2 91.59 62.63 93.07 62.63 88.6 65.2 87.11"/><polygon class="cls-7" points="60.05 87.11 60.05 91.58 58.48 92.48 58.48 88.01 60.05 87.11"/><polygon class="cls-8" points="43.31 77.22 44.89 78.13 42.31 79.61 44.9 81.11 43.33 82.02 58.48 90.76 60.05 89.85 62.63 91.35 65.2 89.86 66.78 90.77 83.94 80.87 82.36 79.96 84.93 78.47 82.34 76.98 83.91 76.07 43.31 77.22"/><polygon class="cls-9" points="44.1 74.47 44.1 77.22 43.1 76.87 43.1 79.61 44.12 80.2 44.12 82.02 58.48 90.3 60.05 89.4 62.63 90.89 65.2 89.41 66.78 90.32 66.78 88.03 44.1 74.47"/><polygon class="cls-10" points="44.12 79.27 44.12 82.02 45.69 81.11 45.69 78.36 44.12 79.27"/><polygon class="cls-11" points="81.56 74.23 81.56 76.98 83.13 76.07 83.13 73.33 81.56 74.23"/><polygon class="cls-11" points="81.57 77.21 81.57 79.96 84.14 78.47 84.14 75.72 81.57 77.21"/><polygon class="cls-11" points="58.48 87.56 58.48 90.3 60.05 89.4 60.05 86.65 58.48 87.56"/><polygon class="cls-11" points="62.63 88.14 62.63 90.89 65.2 89.41 65.2 86.66 62.63 88.14"/><polygon class="cls-11" points="66.78 87.57 66.78 90.32 83.15 80.87 83.15 78.12 66.78 87.57"/><polygon class="cls-13" points="83.15 78.12 83.15 80.87 81.58 79.96 81.58 77.22 83.15 78.12"/><polygon class="cls-6" points="42.31 75.42 42.31 76.87 44.9 78.36 44.9 76.91 42.31 75.42"/><polygon class="cls-6" points="58.48 86.56 58.48 88.01 43.33 79.27 43.33 77.82 58.48 86.56"/><polygon class="cls-6" points="43.31 73.02 43.31 74.47 44.89 75.38 44.89 73.93 43.31 73.02"/><polygon class="cls-7" points="58.48 86.56 58.48 88.01 60.05 87.11 60.05 85.65 58.48 86.56"/><polygon class="cls-7" points="62.63 87.15 62.63 88.6 65.2 87.11 65.2 85.66 62.63 87.15"/><polygon class="cls-7" points="82.36 75.76 82.36 77.21 84.93 75.72 84.93 74.27 82.36 75.76"/><polygon class="cls-7" points="66.78 86.57 66.78 88.03 83.94 78.12 83.94 76.67 66.78 86.57"/><polygon class="cls-7" points="83.91 71.87 83.91 73.33 82.34 74.23 82.34 72.78 83.91 71.87"/><polygon class="cls-6" points="60.05 85.65 60.05 87.11 62.63 88.6 62.63 87.15 60.05 85.65"/><polygon class="cls-6" points="65.2 85.66 65.2 87.11 66.78 88.03 66.78 86.57 65.2 85.66"/><polygon class="cls-8" points="68.77 63.13 67.2 64.04 64.61 62.54 62.04 64.03 60.46 63.12 43.31 73.02 44.89 73.93 42.31 75.42 44.9 76.91 43.33 77.82 58.48 86.56 60.05 85.65 62.63 87.15 65.2 85.66 66.78 86.57 83.94 76.67 82.36 75.76 84.93 74.27 82.34 72.78 83.91 71.87 68.77 63.13"/><polygon class="cls-6" points="58.48 84.8 58.48 86.56 43.33 77.82 43.33 76.06 58.48 84.8"/><polygon class="cls-6" points="42.31 73.66 42.31 75.42 44.9 76.91 44.9 75.16 42.31 73.66"/><polygon class="cls-6" points="43.31 71.27 43.31 73.33 44.89 74.24 44.89 72.18 43.31 71.27"/><polygon class="cls-6" points="65.21 83.91 65.21 85.66 66.78 86.57 66.78 84.82 65.21 83.91"/><polygon class="cls-6" points="60.05 83.9 60.05 85.65 62.63 87.15 62.63 85.39 60.05 83.9"/><polygon class="cls-7" points="83.94 74.94 83.94 76.67 66.78 86.57 66.78 82.1 82.86 72.82 82.86 74.68 83.94 74.94"/><polygon class="cls-7" points="84.93 72.55 84.93 74.27 82.36 75.76 82.36 74.03 84.93 72.55"/><polygon class="cls-7" points="65.2 81.19 65.2 85.66 62.63 87.15 62.63 82.67 65.2 81.19"/><polygon class="cls-7" points="60.05 81.18 60.05 85.65 58.48 86.56 58.48 82.08 60.05 81.18"/><polygon class="cls-8" points="43.31 71.29 44.89 72.2 42.31 73.69 44.9 75.18 43.33 76.09 58.48 84.83 60.05 83.93 62.63 85.42 65.2 83.94 66.78 84.85 83.94 74.94 82.36 74.03 84.93 72.55 82.34 71.05 83.91 70.15 43.31 71.29"/><polygon class="cls-9" points="44.1 68.55 44.1 71.29 43.1 70.94 43.1 73.69 44.12 74.28 44.12 76.09 58.48 84.38 60.05 83.47 62.63 84.97 65.2 83.48 66.78 84.39 66.78 82.1 44.1 68.55"/><polygon class="cls-10" points="44.12 73.34 44.12 76.09 45.69 75.18 45.69 72.44 44.12 73.34"/><polygon class="cls-11" points="81.56 68.31 81.56 71.05 83.13 70.15 83.13 67.4 81.56 68.31"/><polygon class="cls-11" points="81.57 71.28 81.57 74.03 84.14 72.55 84.14 69.8 81.57 71.28"/><polygon class="cls-11" points="58.48 81.63 58.48 84.38 60.05 83.47 60.05 80.72 58.48 81.63"/><polygon class="cls-11" points="62.63 82.22 62.63 84.97 65.2 83.48 65.2 80.73 62.63 82.22"/><polygon class="cls-11" points="66.78 81.64 66.78 84.39 83.15 74.94 83.15 72.19 66.78 81.64"/><polygon class="cls-13" points="83.15 72.19 83.15 74.94 81.58 74.04 81.58 71.29 83.15 72.19"/><polygon class="cls-6" points="42.31 69.49 42.31 70.94 44.9 72.44 44.9 70.98 42.31 69.49"/><polygon class="cls-6" points="58.48 80.63 58.48 82.08 43.33 73.34 43.33 71.89 58.48 80.63"/><polygon class="cls-6" points="43.31 67.09 43.31 68.55 44.89 69.46 44.89 68.01 43.31 67.09"/><polygon class="cls-7" points="58.48 80.63 58.48 82.08 60.05 81.18 60.05 79.73 58.48 80.63"/><polygon class="cls-7" points="62.63 81.22 62.63 82.67 65.2 81.19 65.2 79.74 62.63 81.22"/><polygon class="cls-7" points="82.36 69.83 82.36 71.28 84.93 69.8 84.93 68.35 82.36 69.83"/><polygon class="cls-7" points="66.78 80.65 66.78 82.1 83.94 72.19 83.94 70.74 66.78 80.65"/><polygon class="cls-7" points="83.91 65.95 83.91 67.4 82.34 68.31 82.34 66.85 83.91 65.95"/><polygon class="cls-6" points="60.05 79.73 60.05 81.18 62.63 82.67 62.63 81.22 60.05 79.73"/><polygon class="cls-6" points="65.2 79.74 65.2 81.19 66.78 82.1 66.78 80.65 65.2 79.74"/><polygon class="cls-8" points="68.77 57.2 67.2 58.11 64.61 56.62 62.04 58.1 60.46 57.19 43.31 67.09 44.89 68.01 42.31 69.49 44.9 70.98 43.33 71.89 58.48 80.63 60.05 79.73 62.63 81.22 65.2 79.74 66.78 80.65 83.94 70.74 82.36 69.83 84.93 68.35 82.34 66.85 83.91 65.95 68.77 57.2"/><polygon class="cls-6" points="58.48 78.88 58.48 80.63 43.33 71.89 43.33 70.14 58.48 78.88"/><polygon class="cls-6" points="42.31 67.73 42.31 69.49 44.9 70.98 44.9 69.23 42.31 67.73"/><polygon class="cls-6" points="43.31 65.34 43.31 67.4 44.89 68.31 44.89 66.25 43.31 65.34"/><polygon class="cls-6" points="65.21 77.98 65.21 79.74 66.78 80.65 66.78 78.89 65.21 77.98"/><polygon class="cls-6" points="60.05 77.97 60.05 79.73 62.63 81.22 62.63 79.47 60.05 77.97"/><polygon class="cls-7" points="83.94 69.02 83.94 70.74 66.78 80.65 66.78 76.17 82.86 66.89 82.86 68.76 83.94 69.02"/><polygon class="cls-7" points="84.93 66.62 84.93 68.35 82.36 69.83 82.36 68.11 84.93 66.62"/><polygon class="cls-7" points="65.2 75.26 65.2 79.74 62.63 81.22 62.63 76.75 65.2 75.26"/><polygon class="cls-7" points="60.05 75.25 60.05 79.73 58.48 80.63 58.48 76.16 60.05 75.25"/><polygon class="cls-8" points="43.31 65.37 44.89 66.28 42.31 67.76 44.9 69.26 43.33 70.16 58.48 78.91 60.05 78 62.63 79.5 65.2 78.01 66.78 78.92 83.94 69.02 82.36 68.11 84.93 66.62 82.34 65.13 83.91 64.22 43.31 65.37"/><polygon class="cls-9" points="44.1 62.62 44.1 65.37 43.1 65.02 43.1 67.76 44.12 68.35 44.12 70.16 58.48 78.45 60.05 77.55 62.63 79.04 65.2 77.56 66.78 78.47 66.78 76.17 44.1 62.62"/><polygon class="cls-10" points="44.12 67.42 44.12 70.16 45.69 69.26 45.69 66.51 44.12 67.42"/><polygon class="cls-11" points="81.56 62.38 81.56 65.13 83.13 64.22 83.13 61.47 81.56 62.38"/><polygon class="cls-11" points="81.57 65.36 81.57 68.11 84.14 66.62 84.14 63.87 81.57 65.36"/><polygon class="cls-11" points="58.48 75.7 58.48 78.45 60.05 77.55 60.05 74.8 58.48 75.7"/><polygon class="cls-11" points="62.63 76.29 62.63 79.04 65.2 77.56 65.2 74.81 62.63 76.29"/><polygon class="cls-11" points="66.78 75.72 66.78 78.47 83.15 69.02 83.15 66.27 66.78 75.72"/><polygon class="cls-13" points="83.15 66.27 83.15 69.02 81.58 68.11 81.58 65.36 83.15 66.27"/><polygon class="cls-6" points="42.31 63.56 42.31 65.02 44.9 66.51 44.9 65.06 42.31 63.56"/><polygon class="cls-6" points="58.48 74.71 58.48 76.16 43.33 67.42 43.33 65.97 58.48 74.71"/><polygon class="cls-6" points="43.31 61.17 43.31 62.62 44.89 63.53 44.89 62.08 43.31 61.17"/><polygon class="cls-7" points="58.48 74.71 58.48 76.16 60.05 75.25 60.05 73.8 58.48 74.71"/><polygon class="cls-7" points="62.63 75.3 62.63 76.75 65.2 75.26 65.2 73.81 62.63 75.3"/><polygon class="cls-7" points="82.36 63.91 82.36 65.36 84.93 63.87 84.93 62.42 82.36 63.91"/><polygon class="cls-7" points="66.78 74.72 66.78 76.17 83.94 66.27 83.94 64.82 66.78 74.72"/><polygon class="cls-7" points="83.91 60.02 83.91 61.47 82.34 62.38 82.34 60.93 83.91 60.02"/><polygon class="cls-6" points="60.05 73.8 60.05 75.25 62.63 76.75 62.63 75.3 60.05 73.8"/><polygon class="cls-6" points="65.2 73.81 65.2 75.26 66.78 76.17 66.78 74.72 65.2 73.81"/><polygon class="cls-8" points="68.77 51.28 67.2 52.19 64.61 50.69 62.04 52.17 60.46 51.26 43.31 61.17 44.89 62.08 42.31 63.56 44.9 65.06 43.33 65.97 58.48 74.71 60.05 73.8 62.63 75.3 65.2 73.81 66.78 74.72 83.94 64.82 82.36 63.91 84.93 62.42 82.34 60.93 83.91 60.02 68.77 51.28"/><polygon class="cls-6" points="58.48 72.95 58.48 74.71 43.33 65.97 43.33 64.21 58.48 72.95"/><polygon class="cls-6" points="42.31 61.81 42.31 63.56 44.9 65.06 44.9 63.3 42.31 61.81"/><polygon class="cls-6" points="43.31 59.41 43.31 61.48 44.89 62.39 44.89 60.33 43.31 59.41"/><polygon class="cls-6" points="65.21 72.06 65.21 73.81 66.78 74.72 66.78 72.97 65.21 72.06"/><polygon class="cls-6" points="60.05 72.05 60.05 73.8 62.63 75.3 62.63 73.54 60.05 72.05"/><polygon class="cls-7" points="83.94 63.09 83.94 64.82 66.78 74.72 66.78 70.25 82.86 60.97 82.86 62.83 83.94 63.09"/><polygon class="cls-7" points="84.93 60.69 84.93 62.42 82.36 63.91 82.36 62.18 84.93 60.69"/><polygon class="cls-7" points="65.2 69.34 65.2 73.81 62.63 75.3 62.63 70.82 65.2 69.34"/><polygon class="cls-7" points="60.05 69.33 60.05 73.8 58.48 74.71 58.48 70.23 60.05 69.33"/><polygon class="cls-8" points="43.31 59.44 44.89 60.35 42.31 61.84 44.9 63.33 43.33 64.24 58.48 72.98 60.05 72.08 62.63 73.57 65.2 72.08 66.78 73 83.94 63.09 82.36 62.18 84.93 60.69 82.34 59.2 83.91 58.3 43.31 59.44"/><polygon class="cls-9" points="44.1 56.69 44.1 59.44 43.1 59.09 43.1 61.84 44.12 62.43 44.12 64.24 58.48 72.53 60.05 71.62 62.63 73.11 65.2 71.63 66.78 72.54 66.78 70.25 44.1 56.69"/><polygon class="cls-10" points="44.12 61.49 44.12 64.24 45.69 63.33 45.69 60.59 44.12 61.49"/><polygon class="cls-11" points="81.56 56.45 81.56 59.2 83.13 58.3 83.13 55.55 81.56 56.45"/><polygon class="cls-11" points="81.57 59.43 81.57 62.18 84.14 60.69 84.14 57.95 81.57 59.43"/><polygon class="cls-11" points="58.48 69.78 58.48 72.53 60.05 71.62 60.05 68.87 58.48 69.78"/><polygon class="cls-11" points="62.63 70.37 62.63 73.11 65.2 71.63 65.2 68.88 62.63 70.37"/><polygon class="cls-11" points="66.78 69.79 66.78 72.54 83.15 63.09 83.15 60.34 66.78 69.79"/><polygon class="cls-13" points="83.15 60.34 83.15 63.09 81.58 62.19 81.58 59.44 83.15 60.34"/><polygon class="cls-6" points="42.31 57.64 42.31 59.09 44.9 60.59 44.9 59.13 42.31 57.64"/><polygon class="cls-6" points="58.48 68.78 58.48 70.23 43.33 61.49 43.33 60.04 58.48 68.78"/><polygon class="cls-6" points="43.31 55.24 43.31 56.7 44.89 57.61 44.89 56.15 43.31 55.24"/><polygon class="cls-7" points="58.48 68.78 58.48 70.23 60.05 69.33 60.05 67.88 58.48 68.78"/><polygon class="cls-7" points="62.63 69.37 62.63 70.82 65.2 69.34 65.2 67.89 62.63 69.37"/><polygon class="cls-7" points="82.36 57.98 82.36 59.43 84.93 57.95 84.93 56.49 82.36 57.98"/><polygon class="cls-7" points="66.78 68.8 66.78 70.25 83.94 60.34 83.94 58.89 66.78 68.8"/><polygon class="cls-7" points="83.91 54.1 83.91 55.55 82.34 56.45 82.34 55 83.91 54.1"/><polygon class="cls-6" points="60.05 67.88 60.05 69.33 62.63 70.82 62.63 69.37 60.05 67.88"/><polygon class="cls-6" points="65.2 67.89 65.2 69.34 66.78 70.25 66.78 68.8 65.2 67.89"/><polygon class="cls-8" points="68.77 45.35 67.2 46.26 64.61 44.77 62.04 46.25 60.46 45.34 43.31 55.24 44.89 56.15 42.31 57.64 44.9 59.13 43.33 60.04 58.48 68.78 60.05 67.88 62.63 69.37 65.2 67.89 66.78 68.8 83.94 58.89 82.36 57.98 84.93 56.5 82.34 55 83.91 54.1 68.77 45.35"/><polygon class="cls-6" points="58.48 67.03 58.48 68.78 43.33 60.04 43.33 58.28 58.48 67.03"/><polygon class="cls-6" points="42.31 55.88 42.31 57.64 44.9 59.13 44.9 57.38 42.31 55.88"/><polygon class="cls-6" points="43.31 53.49 43.31 55.55 44.89 56.46 44.89 54.4 43.31 53.49"/><polygon class="cls-6" points="65.21 66.13 65.21 67.89 66.78 68.8 66.78 67.04 65.21 66.13"/><polygon class="cls-6" points="60.05 66.12 60.05 67.88 62.63 69.37 62.63 67.61 60.05 66.12"/><polygon class="cls-7" points="83.94 57.16 83.94 58.89 66.78 68.8 66.78 64.32 82.86 55.04 82.86 56.91 83.94 57.16"/><polygon class="cls-7" points="84.93 54.77 84.93 56.5 82.36 57.98 82.36 56.25 84.93 54.77"/><polygon class="cls-7" points="65.2 63.41 65.2 67.89 62.63 69.37 62.63 64.9 65.2 63.41"/><polygon class="cls-7" points="60.05 63.4 60.05 67.88 58.48 68.78 58.48 64.31 60.05 63.4"/><polygon class="cls-8" points="43.31 53.52 44.89 54.43 42.31 55.91 44.9 57.41 43.33 58.31 58.48 67.05 60.05 66.15 62.63 67.64 65.2 66.16 66.78 67.07 83.94 57.16 82.36 56.25 84.93 54.77 82.34 53.27 83.91 52.37 43.31 53.52"/><polygon class="cls-9" points="44.1 50.77 44.1 53.52 43.1 53.16 43.1 55.91 44.12 56.5 44.12 58.31 58.48 66.6 60.05 65.69 62.63 67.19 65.2 65.7 66.78 66.61 66.78 64.32 44.1 50.77"/><polygon class="cls-10" points="44.12 55.56 44.12 58.31 45.69 57.41 45.69 54.66 44.12 55.56"/><polygon class="cls-11" points="81.56 50.53 81.56 53.27 83.13 52.37 83.13 49.62 81.56 50.53"/><polygon class="cls-11" points="81.57 53.51 81.57 56.25 84.14 54.77 84.14 52.02 81.57 53.51"/><polygon class="cls-11" points="58.48 63.85 58.48 66.6 60.05 65.69 60.05 62.95 58.48 63.85"/><polygon class="cls-11" points="62.63 64.44 62.63 67.19 65.2 65.7 65.2 62.96 62.63 64.44"/><polygon class="cls-11" points="66.78 63.87 66.78 66.61 83.15 57.16 83.15 54.42 66.78 63.87"/><polygon class="cls-13" points="83.15 54.42 83.15 57.16 81.58 56.26 81.58 53.51 83.15 54.42"/><polygon class="cls-6" points="42.31 51.71 42.31 53.16 44.9 54.66 44.9 53.21 42.31 51.71"/><polygon class="cls-6" points="58.48 62.86 58.48 64.31 43.33 55.56 43.33 54.11 58.48 62.86"/><polygon class="cls-6" points="43.31 49.32 43.31 50.77 44.89 51.68 44.89 50.23 43.31 49.32"/><polygon class="cls-7" points="58.48 62.86 58.48 64.31 60.05 63.4 60.05 61.95 58.48 62.86"/><polygon class="cls-7" points="62.63 63.45 62.63 64.9 65.2 63.41 65.2 61.96 62.63 63.45"/><polygon class="cls-7" points="82.36 52.05 82.36 53.51 84.93 52.02 84.93 50.57 82.36 52.05"/><polygon class="cls-7" points="66.78 62.87 66.78 64.32 83.94 54.42 83.94 52.97 66.78 62.87"/><polygon class="cls-7" points="83.91 48.17 83.91 49.62 82.34 50.53 82.34 49.08 83.91 48.17"/><polygon class="cls-6" points="60.05 61.95 60.05 63.4 62.63 64.9 62.63 63.44 60.05 61.95"/><polygon class="cls-6" points="65.2 61.96 65.2 63.41 66.78 64.32 66.78 62.87 65.2 61.96"/><polygon class="cls-8" points="68.77 39.43 67.2 40.33 64.61 38.84 62.04 40.32 60.46 39.41 43.31 49.32 44.89 50.23 42.31 51.71 44.9 53.21 43.33 54.11 58.48 62.86 60.05 61.95 62.63 63.44 65.2 61.96 66.78 62.87 83.94 52.97 82.36 52.05 84.93 50.57 82.34 49.08 83.91 48.17 68.77 39.43"/><polygon class="cls-6" points="58.48 61.1 58.48 62.86 43.33 54.11 43.33 52.36 58.48 61.1"/><polygon class="cls-6" points="42.31 49.96 42.31 51.71 44.9 53.21 44.9 51.45 42.31 49.96"/><polygon class="cls-6" points="43.31 47.56 43.31 49.63 44.89 50.54 44.89 48.47 43.31 47.56"/><polygon class="cls-6" points="65.21 60.2 65.21 61.96 66.78 62.87 66.78 61.12 65.21 60.2"/><polygon class="cls-6" points="60.05 60.19 60.05 61.95 62.63 63.44 62.63 61.69 60.05 60.19"/><polygon class="cls-7" points="83.94 51.24 83.94 52.97 66.78 62.87 66.78 58.4 82.86 49.12 82.86 50.98 83.94 51.24"/><polygon class="cls-7" points="84.93 48.84 84.93 50.57 82.36 52.05 82.36 50.33 84.93 48.84"/><polygon class="cls-7" points="65.2 57.49 65.2 61.96 62.63 63.44 62.63 58.97 65.2 57.49"/><polygon class="cls-7" points="60.05 57.48 60.05 61.95 58.48 62.86 58.48 58.38 60.05 57.48"/><polygon class="cls-8" points="43.31 47.59 44.89 48.5 42.31 49.99 44.9 51.48 43.33 52.39 58.48 61.13 60.05 60.22 62.63 61.72 65.2 60.23 66.78 61.14 83.94 51.24 82.36 50.33 84.93 48.84 82.34 47.35 83.91 46.44 43.31 47.59"/><polygon class="cls-9" points="44.1 44.84 44.1 47.59 43.1 47.24 43.1 49.99 44.12 50.58 44.12 52.39 58.48 60.67 60.05 59.77 62.63 61.26 65.2 59.78 66.78 60.69 66.78 58.4 44.1 44.84"/><polygon class="cls-10" points="44.12 49.64 44.12 52.39 45.69 51.48 45.69 48.73 44.12 49.64"/><polygon class="cls-11" points="81.56 44.6 81.56 47.35 83.13 46.44 83.13 43.7 81.56 44.6"/><polygon class="cls-11" points="81.57 47.58 81.57 50.33 84.14 48.84 84.14 46.1 81.57 47.58"/><g class="cls-4"><polygon class="cls-12" points="82.58 47.46 82.58 48.02 84.14 47.12 84.14 46.55 82.58 47.46"/></g><polygon class="cls-11" points="58.48 57.93 58.48 60.67 60.05 59.77 60.05 57.02 58.48 57.93"/><g class="cls-4"><polygon class="cls-12" points="58.48 58.38 58.48 58.95 60.05 58.05 60.05 57.48 58.48 58.38"/></g><polygon class="cls-11" points="62.63 58.52 62.63 61.26 65.2 59.78 65.2 57.03 62.63 58.52"/><polygon class="cls-11" points="66.78 57.94 66.78 60.69 83.15 51.24 83.15 48.49 66.78 57.94"/><polygon class="cls-13" points="83.15 48.49 83.15 51.24 81.58 50.33 81.58 47.59 83.15 48.49"/><g class="cls-4"><polygon class="cls-12" points="66.78 58.4 66.78 58.97 83.15 49.52 83.15 48.95 66.78 58.4"/></g><g class="cls-4"><polygon class="cls-12" points="62.63 58.97 62.63 59.54 65.2 58.05 65.2 57.49 62.63 58.97"/></g><g class="cls-4"><polygon class="cls-12" points="58.48 64.31 58.48 64.88 60.05 63.97 60.05 63.4 58.48 64.31"/></g><g class="cls-4"><polygon class="cls-12" points="66.78 64.32 66.78 64.89 83.15 55.44 83.15 54.87 66.78 64.32"/></g><g class="cls-4"><polygon class="cls-12" points="62.63 64.9 62.63 65.47 65.2 63.98 65.2 63.41 62.63 64.9"/></g><g class="cls-4"><polygon class="cls-12" points="58.48 70.23 58.48 70.8 60.05 69.9 60.05 69.33 58.48 70.23"/></g><g class="cls-4"><polygon class="cls-12" points="66.78 70.25 66.78 70.82 83.15 61.37 83.15 60.8 66.78 70.25"/></g><g class="cls-4"><polygon class="cls-12" points="62.63 70.82 62.63 71.39 65.2 69.91 65.2 69.34 62.63 70.82"/></g><g class="cls-4"><polygon class="cls-12" points="58.48 76.16 58.48 76.73 60.05 75.82 60.05 75.25 58.48 76.16"/></g><g class="cls-4"><polygon class="cls-12" points="66.78 76.17 66.78 76.74 83.15 67.29 83.15 66.72 66.78 76.17"/></g><g class="cls-4"><polygon class="cls-12" points="62.63 76.75 62.63 77.32 65.2 75.83 65.2 75.26 62.63 76.75"/></g><g class="cls-4"><polygon class="cls-12" points="58.48 82.08 58.48 82.65 60.05 81.75 60.05 81.18 58.48 82.08"/></g><g class="cls-4"><polygon class="cls-12" points="66.78 82.1 66.78 82.67 83.15 73.22 83.15 72.65 66.78 82.1"/></g><g class="cls-4"><polygon class="cls-12" points="62.63 82.67 62.63 83.24 65.2 81.76 65.2 81.19 62.63 82.67"/></g><g class="cls-4"><polygon class="cls-12" points="58.48 88.01 58.48 88.58 60.05 87.67 60.05 87.11 58.48 88.01"/></g><g class="cls-4"><polygon class="cls-12" points="66.78 88.03 66.78 88.59 83.15 79.15 83.15 78.58 66.78 88.03"/></g><g class="cls-4"><polygon class="cls-12" points="62.63 88.6 62.63 89.17 65.2 87.68 65.2 87.11 62.63 88.6"/></g><g class="cls-4"><polygon class="cls-12" points="58.48 93.94 58.48 94.5 60.05 93.6 60.05 93.03 58.48 93.94"/></g><g class="cls-4"><polygon class="cls-12" points="66.78 93.95 66.78 94.52 83.15 85.07 83.15 84.5 66.78 93.95"/></g><g class="cls-4"><polygon class="cls-12" points="62.63 94.53 62.63 95.09 65.2 93.61 65.2 93.04 62.63 94.53"/></g><polygon class="cls-6" points="42.31 45.79 42.31 47.24 44.9 48.73 44.9 47.28 42.31 45.79"/><polygon class="cls-6" points="58.48 56.93 58.48 58.38 43.33 49.64 43.33 48.19 58.48 56.93"/><polygon class="cls-6" points="43.31 43.39 43.31 44.84 44.89 45.75 44.89 44.3 43.31 43.39"/><polygon class="cls-7" points="58.48 56.93 58.48 58.38 60.05 57.48 60.05 56.02 58.48 56.93"/><polygon class="cls-7" points="62.63 57.52 62.63 58.97 65.2 57.49 65.2 56.03 62.63 57.52"/><polygon class="cls-7" points="82.36 46.13 82.36 47.58 84.93 46.09 84.93 44.64 82.36 46.13"/><polygon class="cls-7" points="66.78 56.95 66.78 58.4 83.94 48.49 83.94 47.04 66.78 56.95"/><polygon class="cls-7" points="83.91 42.24 83.91 43.7 82.34 44.6 82.34 43.15 83.91 42.24"/><polygon class="cls-6" points="60.05 56.02 60.05 57.48 62.63 58.97 62.63 57.52 60.05 56.02"/><polygon class="cls-6" points="65.2 56.03 65.2 57.49 66.78 58.4 66.78 56.95 65.2 56.03"/><polygon class="cls-8" points="68.77 33.5 67.2 34.41 64.61 32.91 62.04 34.4 60.46 33.49 43.31 43.39 44.89 44.3 42.31 45.79 44.9 47.28 43.33 48.19 58.48 56.93 60.05 56.02 62.63 57.52 65.2 56.03 66.78 56.95 83.94 47.04 82.36 46.13 84.93 44.64 82.34 43.15 83.91 42.24 68.77 33.5"/><polygon class="cls-14" points="60.05 55.54 58.48 56.44 44.18 48.19 45.74 47.28 43.16 45.79 45.73 44.3 44.15 43.39 60.46 33.97 62.04 34.88 64.61 33.4 67.2 34.89 68.77 33.99 83.07 42.24 81.5 43.15 84.09 44.64 81.52 46.13 83.1 47.04 66.78 56.46 65.21 55.55 62.63 57.03 60.05 55.54"/><g class="cls-4"><polygon class="cls-12" points="65.47 34.89 66.34 34.39 64.61 33.4 63.75 33.9 65.47 34.89"/><polygon class="cls-12" points="60.31 34.88 61.18 34.38 60.46 33.97 59.6 34.47 60.31 34.88"/><g class="cls-4"><polygon class="cls-15" points="57.61 55.94 58.48 56.44 59.18 56.04 57.61 55.94"/></g><g class="cls-4"><polygon class="cls-15" points="84.09 44.64 81.5 43.15 83.07 42.24 68.77 33.99 67.91 34.49 81.34 42.24 79.77 43.15 82.36 44.64 79.79 46.13 81.37 47.04 65.92 55.96 66.78 56.46 83.1 47.04 81.52 46.13 84.09 44.64"/></g><g class="cls-4"><polygon class="cls-15" points="62.63 56.03 61.77 56.53 62.63 57.03 64.34 56.05 62.63 56.03"/></g></g><g class="cls-4"><polygon class="cls-12" points="59.35 34.88 60.7 34.11 60.46 33.97 59.12 34.75 59.35 34.88"/><polygon class="cls-12" points="64.51 34.89 65.85 34.12 64.61 33.4 63.27 34.18 64.51 34.89"/></g><polygon class="cls-7" points="45.74 47.28 44.18 48.19 45.52 48.97 45.74 48.84 45.74 47.28"/><polygon class="cls-6" points="81.5 43.15 81.5 44.71 82.74 45.42 84.09 44.64 81.5 43.15"/><path class="cls-7" d="M63.57,35V34L62,34.88,60.46,34,44.15,43.39l1.35.78,15-8.64,1.58.91,1.57-.91C63.6,35.34,63.58,35.14,63.57,35Z"/><path class="cls-6" d="M68.77,34l-1.57.9-.79-.45V35c0,.36,0,.73.08,1.09l.71.41,1.57-.91,13,7.48,1.35-.78Z"/><polygon class="cls-7" points="45.73 45.86 45.73 44.3 43.16 45.79 44.51 46.57 45.73 45.86"/><polygon class="cls-6" points="81.52 47.69 81.75 47.82 83.1 47.04 81.52 46.13 81.52 47.69"/><g class="cls-4"><polygon class="cls-15" points="57.56 54.12 54.44 54.11 52.6 53.05 51.76 53.05 43.33 48.19 44.9 47.28 42.31 45.79 44.89 44.3 43.31 43.39 60.46 33.49 57.56 54.12"/></g><polygon class="cls-8" points="57.48 37.01 49.45 41.64 49.48 48.22 57.56 52.89 68.96 52.91 79.09 47.06 79.06 40.48 70.98 35.81 57.48 37.01"/><polygon class="cls-11" points="78.52 40.56 70.79 36.1 57.79 37.29 50.1 41.73 50.14 48.02 57.87 52.48 68.77 52.5 78.55 46.85 78.52 40.56"/><polygon class="cls-13" points="78.55 44.11 78.55 46.85 78.14 45.02 78.14 42.27 78.55 44.11"/><g class="cls-4"><polygon class="cls-12" points="78.55 43.57 78.55 45.2 68.77 50.85 68.76 49.01 78.55 43.57"/></g><polygon class="cls-10" points="68.77 52.5 68.77 49.45 57.87 49.08 57.87 52.48 68.77 52.5"/><g class="cls-4"><polygon class="cls-12" points="68.77 50.85 68.77 49.43 57.87 49.05 57.87 50.83 68.77 50.85"/></g><polygon class="cls-9" points="57.87 52.48 57.87 49.08 50.1 41.73 50.14 48.02 57.87 52.48"/><polygon class="cls-10" points="50.14 45.27 50.14 48.02 50.55 46.19 50.55 43.44 50.14 45.27"/><polygon class="cls-16" points="68.96 52.91 61.11 52.9 61.11 54.12 68.96 54.14 68.96 52.91"/><polygon class="cls-16" points="68.96 52.91 57.56 52.89 57.56 54.12 68.96 54.14 68.96 52.91"/><polygon class="cls-7" points="68.96 52.91 79.09 47.06 79.09 48.29 68.96 54.14 68.96 52.91"/><polygon class="cls-16" points="68.96 48.86 57.56 48.84 57.56 50.25 68.96 50.27 68.96 48.86"/><polygon class="cls-6" points="57.56 48.84 49.48 44.17 49.48 45.58 57.56 50.25 57.56 48.84"/><polygon class="cls-6" points="49.45 37.6 49.48 44.17 49.48 45.58 49.45 39 49.45 37.6"/><polygon class="cls-7" points="68.96 48.86 79.09 43.01 79.09 44.42 68.96 50.27 68.96 48.86"/><polygon class="cls-6" points="49.48 48.22 57.56 52.89 57.56 54.12 49.48 49.45 49.48 48.22"/><polygon class="cls-6" points="49.48 48.22 49.45 41.64 49.45 42.87 49.48 49.45 49.48 48.22"/><polygon class="cls-8" points="59.58 31.74 49.45 37.6 49.48 44.17 57.56 48.84 68.96 48.86 79.09 43.01 79.06 36.43 70.98 31.76 59.58 31.74"/><polygon class="cls-8" points="59.58 30.52 49.45 36.37 49.48 42.95 57.56 47.61 68.96 47.63 79.09 41.78 79.06 35.2 70.98 30.54 59.58 30.52"/><polygon class="cls-11" points="78.52 35.29 70.79 30.82 59.89 30.8 50.1 36.45 50.14 42.74 57.87 47.21 68.77 47.23 78.55 41.58 78.52 35.29"/><polygon class="cls-10" points="68.77 47.23 68.77 44.17 57.87 43.8 57.87 47.21 68.77 47.23"/><g class="cls-4"><polygon class="cls-12" points="68.77 45.59 68.77 44.17 57.87 43.8 57.87 45.57 68.77 45.59"/></g><polygon class="cls-9" points="57.87 47.21 57.87 43.8 50.1 36.45 50.14 42.74 57.87 47.21"/><polygon class="cls-10" points="50.14 40 50.14 42.74 50.55 40.91 50.55 38.16 50.14 40"/><polygon class="cls-13" points="78.55 38.83 78.55 41.58 78.14 39.74 78.14 37 78.55 38.83"/><g class="cls-4"><polygon class="cls-12" points="78.55 38.32 78.55 39.95 68.77 45.59 68.76 43.75 78.55 38.32"/></g><polygon class="cls-16" points="68.96 47.63 61.11 47.62 61.11 48.85 68.96 48.86 68.96 47.63"/><polygon class="cls-16" points="68.96 47.63 57.56 47.61 57.56 48.84 68.96 48.86 68.96 47.63"/><polygon class="cls-7" points="68.96 47.63 79.09 41.78 79.09 43.01 68.96 48.86 68.96 47.63"/><polygon class="cls-16" points="68.96 43.59 57.56 43.57 57.56 44.98 68.96 44.99 68.96 43.59"/><polygon class="cls-6" points="57.56 43.57 49.48 38.9 49.48 40.31 57.56 44.98 57.56 43.57"/><polygon class="cls-6" points="49.45 32.32 49.48 38.9 49.48 40.31 49.45 33.73 49.45 32.32"/><polygon class="cls-7" points="68.96 43.59 79.09 37.73 79.09 39.14 68.96 44.99 68.96 43.59"/><polygon class="cls-6" points="49.48 42.95 57.56 47.61 57.56 48.84 49.48 44.17 49.48 42.95"/><polygon class="cls-6" points="49.48 42.95 49.45 36.37 49.45 37.6 49.48 44.17 49.48 42.95"/><polygon class="cls-17" points="59.58 26.47 49.45 32.32 49.48 38.9 57.56 43.57 68.96 43.59 79.09 37.73 79.06 31.16 70.98 26.49 59.58 26.47"/><g class="cls-4"><polygon class="cls-15" points="59.49 40.82 53.66 40.82 52.93 40.4 52.08 40.4 49.48 38.9 49.45 32.32 59.58 26.47 59.49 40.82"/></g><polygon class="cls-18" points="53.07 30.26 53.07 31.71 53.1 37.03 53.1 35.59 53.07 30.26"/><polygon class="cls-8" points="59.57 26.51 53.07 30.26 53.1 35.59 59.64 39.37 68.87 39.38 75.37 35.63 75.34 30.3 68.8 26.53 59.57 26.51"/><polygon class="cls-6" points="53.1 35.59 53.1 37.03 59.64 40.81 59.64 39.37 53.1 35.59"/><polygon class="cls-7" points="75.37 35.63 75.37 37.07 68.87 40.83 68.87 39.38 75.37 35.63"/><polygon class="cls-16" points="68.87 39.38 59.64 39.37 59.64 40.81 68.87 40.83 68.87 39.38"/><polygon class="cls-18" points="53.4 26.81 53.4 30.12 53.43 35.29 53.43 31.98 53.4 26.81"/><polygon class="cls-8" points="59.71 23.16 53.4 26.81 53.43 31.98 59.78 35.64 68.73 35.66 75.04 32.02 75.01 26.85 68.66 23.18 59.71 23.16"/><polygon class="cls-9" points="53.43 31.98 53.43 35.29 59.78 38.96 59.78 35.64 53.43 31.98"/><polygon class="cls-11" points="75.04 32.02 75.04 35.33 68.73 38.97 68.73 35.66 75.04 32.02"/><polygon class="cls-13" points="75.04 32.58 75.04 35.33 74.44 32.68 74.62 30.75 75.04 32.58"/><g class="cls-4"><polygon class="cls-12" points="75.04 31.38 75.05 33.22 68.74 36.87 68.73 35.03 75.04 31.38"/></g><polygon class="cls-10" points="54.02 32.69 53.84 30.71 53.43 32.54 53.43 35.29 54.02 32.69"/><polygon class="cls-10" points="68.73 35.66 59.78 35.64 59.78 38.96 68.73 38.97 68.73 35.66"/><g class="cls-4"><polygon class="cls-12" points="68.73 35.66 59.78 35.64 59.78 36.85 68.73 36.87 68.73 35.66"/></g><polygon class="cls-18" points="53.07 25.49 53.07 27.15 53.1 32.47 53.1 30.82 53.07 25.49"/><polygon class="cls-8" points="59.57 21.74 53.07 25.49 53.1 30.82 59.64 34.59 68.87 34.61 75.37 30.86 75.34 25.53 68.8 21.75 59.57 21.74"/><polygon class="cls-6" points="53.1 30.82 53.1 32.47 59.64 36.25 59.64 34.59 53.1 30.82"/><polygon class="cls-7" points="75.37 30.86 75.37 32.51 68.87 36.27 68.87 34.61 75.37 30.86"/><polygon class="cls-16" points="68.87 34.61 59.64 34.59 59.64 36.25 68.87 36.27 68.87 34.61"/><polygon class="cls-19" points="61.25 19.61 57.09 22 53.94 25.36 59.93 21.9 61.25 19.61"/><polygon class="cls-20" points="57.11 25.41 53.97 30.27 53.94 25.36 57.09 22 57.11 25.41"/><polygon class="cls-19" points="60 33.75 53.97 30.27 57.11 25.41 61.29 27.82 60 33.75"/><polygon class="cls-21" points="68.5 33.77 60 33.75 61.29 27.82 67.19 27.83 68.5 33.77"/><polygon class="cls-22" points="74.5 30.31 68.5 33.77 67.19 27.83 71.34 25.43 74.5 30.31"/><polygon class="cls-23" points="74.5 30.31 71.34 25.43 71.33 22.03 74.47 25.39 74.5 30.31"/><polygon class="cls-22" points="74.47 25.39 71.33 22.03 67.14 19.62 68.44 21.91 74.47 25.39"/><polygon class="cls-21" points="67.14 19.62 61.25 19.61 59.93 21.9 68.44 21.91 67.14 19.62"/><polygon class="cls-24" points="61.25 19.61 57.09 22 57.11 25.41 61.29 27.82 67.19 27.83 71.34 25.43 71.33 22.03 67.14 19.62 61.25 19.61"/><polygon class="cls-20" points="70.96 25.21 70.94 25.23 70.68 25.38 67.09 27.45 66.92 27.45 61.65 27.44 61.4 27.44 57.84 25.39 57.61 25.25 57.49 25.19 57.48 22.22 58.44 21.67 61.67 19.99 66.82 20 67.04 20 70.21 21.83 70.21 21.83 70.94 22.25 70.96 25.21"/><polygon class="cls-19" points="64.27 14.44 57.59 22.57 61.48 20.32 64.27 14.44"/><polygon class="cls-22" points="70.92 22.59 64.27 14.44 67.01 20.33 70.92 22.59"/><polygon class="cls-21" points="64.27 14.44 61.48 20.32 67.01 20.33 64.27 14.44"/><polygon class="cls-20" points="64.27 14.44 57.84 25.39 57.61 25.25 57.59 22.57 64.27 14.44"/><polygon class="cls-19" points="64.27 14.44 61.65 27.44 61.4 27.44 57.84 25.39 64.27 14.44"/><polygon class="cls-21" points="66.92 27.45 61.65 27.44 64.27 14.44 66.92 27.45"/><polygon class="cls-22" points="70.68 25.38 67.09 27.45 66.92 27.45 64.27 14.44 70.68 25.38"/><polygon class="cls-23" points="70.94 25.23 70.68 25.38 64.27 14.44 70.92 22.59 70.94 25.23"/><polygon class="cls-20" points="70.48 22.05 70.33 24.83 66.73 26.6 61.86 26.48 58.43 24.49 57.84 25.39 61.4 27.44 67.09 27.45 70.94 25.23 70.92 22.59 70.48 22.05"/><polygon class="cls-19" points="68.85 23.45 66.88 24.41 66.81 24.05 66.67 23.45 68.11 22.75 68.33 22.64 68.85 23.45"/><polygon class="cls-20" points="68.43 23.25 66.81 24.05 66.67 23.45 68.11 22.75 68.43 23.25"/><polygon class="cls-24" points="68.43 23.25 68.85 23.45 66.88 24.41 66.81 24.05 68.43 23.25"/><polygon class="cls-20" points="59.69 23.45 61.66 24.41 61.73 24.05 61.87 23.45 60.43 22.75 60.21 22.64 59.69 23.45"/><polygon class="cls-25" points="60.11 23.25 61.73 24.05 61.87 23.45 60.43 22.75 60.11 23.25"/><polygon class="cls-22" points="60.11 23.25 59.69 23.45 61.66 24.41 61.73 24.05 60.11 23.25"/><polygon class="cls-12" points="63.46 15.43 63.51 15.72 63.97 15.92 64.57 15.92 65.03 15.74 65.17 15.55 64.29 14.25 63.46 15.43"/><polygon class="cls-26" points="64.29 14.25 63.51 15.72 63.46 15.43 64.29 14.25"/><polygon class="cls-27" points="64.29 14.25 63.97 15.92 63.51 15.72 64.29 14.25"/><polygon class="cls-28" points="64.29 14.25 64.57 15.92 63.97 15.92 64.29 14.25"/><polygon class="cls-28" points="64.29 14.25 65.03 15.74 65.17 15.55 64.29 14.25"/><g class="cls-4"><polygon class="cls-12" points="65.2 56.03 64.18 58.08 65.2 57.49 65.2 56.03"/></g><g class="cls-4"><polygon class="cls-12" points="64.18 60.83 64.18 64 65.2 63.41 65.2 60.23 66 60.69 66.78 60.69 65.2 59.78 65.2 58.05 63.39 59.1 63.39 60.83 64.18 60.83"/></g><g class="cls-4"><polygon class="cls-12" points="64.18 66.75 64.18 69.93 65.2 69.34 65.2 66.16 66 66.61 66.78 66.61 65.2 65.7 65.2 63.98 63.39 65.03 63.39 66.75 64.18 66.75"/></g><g class="cls-4"><polygon class="cls-12" points="64.18 72.68 64.18 75.86 65.2 75.26 65.2 72.08 66 72.54 66.78 72.54 65.2 71.63 65.2 69.91 63.39 70.96 63.39 72.68 64.18 72.68"/></g><g class="cls-4"><polygon class="cls-12" points="64.18 78.6 64.18 81.78 65.2 81.19 65.2 78.01 66 78.47 66.78 78.47 65.2 77.56 65.2 75.83 63.39 76.88 63.39 78.61 64.18 78.6"/></g><g class="cls-4"><polygon class="cls-12" points="64.18 84.53 64.18 87.71 65.2 87.11 65.2 83.94 66 84.39 66.78 84.39 65.2 83.48 65.2 81.76 63.39 82.81 63.39 84.53 64.18 84.53"/></g><g class="cls-4"><polygon class="cls-12" points="64.18 90.45 64.18 93.63 65.2 93.04 65.2 89.86 66 90.32 66.78 90.32 65.2 89.41 65.2 87.68 63.39 88.73 63.39 90.46 64.18 90.45"/></g><g class="cls-4"><polygon class="cls-12" points="64.18 96.38 64.18 99.56 65.2 98.97 65.2 95.79 66 96.24 66.78 96.24 65.2 95.33 65.2 93.61 63.39 94.66 63.39 96.38 64.18 96.38"/></g><g class="cls-4"><polygon class="cls-12" points="64.18 102.31 64.18 109.25 65.2 108.66 65.2 101.71 66 102.17 66.78 102.17 65.2 101.26 65.2 99.37 63.39 100.42 63.39 102.31 64.18 102.31"/></g></g></g></svg>