<svg xmlns="http://www.w3.org/2000/svg" viewBox="0 0 130.45 153.42"><defs><style>.cls-1{isolation:isolate;}.cls-2{fill:#5a504f;}.cls-3{fill:#e8dcd5;}.cls-4{fill:#897998;}.cls-25,.cls-29,.cls-30,.cls-4{mix-blend-mode:multiply;}.cls-5{fill:#f8f6e1;}.cls-6{fill:#bebf4a;}.cls-7{fill:#c9bca1;}.cls-8{fill:#7c412f;}.cls-9{fill:#5c3023;}.cls-10{fill:#94983a;}.cls-11{fill:#868533;}.cls-12{fill:#a7aa5c;}.cls-13{fill:#080f15;}.cls-14{fill:#1a2c3b;}.cls-15{fill:#36556e;}.cls-16{fill:#284359;}.cls-17{fill:#132533;}.cls-18{fill:#456d8c;}.cls-19{fill:#95abb8;}.cls-20{fill:#3e5a70;}.cls-21{fill:#23394a;}.cls-22{fill:#6186a3;}.cls-23{fill:#335970;}.cls-24{fill:#bda195;}.cls-25{fill:#c5bdcd;}.cls-26{fill:#6c8a9d;}.cls-27{fill:#4e7288;}.cls-28{fill:#141414;mix-blend-mode:color-dodge;}.cls-29{fill:#c7d6ed;}.cls-30{fill:#b7c2c9;}.cls-31{fill:#826565;}.cls-32{fill:#e5ded0;}</style></defs><title>inside-b</title><g class="cls-1"><g id="layer"><polygon class="cls-2" points="109.54 120.84 62.53 147.98 24.06 125.78 33.41 120.38 71.07 98.63 102.34 116.68 109.54 120.84"/><polygon class="cls-3" points="102.34 116.67 64.68 138.43 33.41 120.38 60.35 104.83 71.07 98.62 101.77 116.35 102.34 116.67"/><path class="cls-4" d="M66.25,128.27H28.38l-4.32-2.49,36.29-21S66.5,124.9,66.25,128.27Z"/><polygon class="cls-5" points="101.77 116.35 91.04 122.55 60.35 104.83 71.07 98.62 101.77 116.35"/><polygon class="cls-6" points="61.12 104.83 71.07 99.07 101 116.35 91.05 122.11 61.12 104.83"/><polygon class="cls-7" points="61.12 104.83 61.58 105.09 71.07 99.6 100.54 116.61 101 116.35 71.07 99.07 61.12 104.83"/><polygon class="cls-5" points="87.81 123.38 71.37 132.87 67.88 130.86 84.32 121.37 87.81 123.38"/><polygon class="cls-6" points="68.43 130.86 84.32 121.69 87.25 123.38 71.37 132.55 68.43 130.86"/><polygon class="cls-7" points="84.32 121.69 68.43 130.86 68.89 131.12 84.32 122.22 86.8 123.64 87.25 123.38 84.32 121.69"/><polygon class="cls-4" points="96.73 115.53 94.46 115.53 92.8 116.48 94.46 117.44 96.73 117.44 98.39 116.48 96.73 115.53"/><polygon class="cls-8" points="96.73 117.06 97.41 116.67 97.41 114.24 96.73 114.63 96.73 117.06"/><polygon class="cls-9" points="96.73 117.06 96.06 116.67 96.06 114.24 96.73 114.63 96.73 117.06"/><polygon class="cls-10" points="96.73 116.3 98.39 115.34 98.19 109.74 96.73 110.58 96.73 116.3"/><polygon class="cls-11" points="96.73 116.3 95.07 115.34 95.28 109.74 96.73 110.58 96.73 116.3"/><polygon class="cls-12" points="96.73 110.58 95.28 109.74 96.73 108.9 98.19 109.74 96.73 110.58"/><polygon class="cls-4" points="90.9 112.16 88.63 112.16 86.97 113.12 88.63 114.07 90.9 114.07 92.56 113.12 90.9 112.16"/><polygon class="cls-8" points="90.9 113.69 91.58 113.3 91.58 110.87 90.9 111.27 90.9 113.69"/><polygon class="cls-9" points="90.9 113.69 90.22 113.3 90.22 110.87 90.9 111.27 90.9 113.69"/><polygon class="cls-10" points="90.9 112.93 92.56 111.97 92.36 106.37 90.9 107.21 90.9 112.93"/><polygon class="cls-11" points="90.9 112.93 89.24 111.97 89.44 106.37 90.9 107.21 90.9 112.93"/><polygon class="cls-12" points="90.9 107.21 89.44 106.37 90.9 105.53 92.36 106.37 90.9 107.21"/><polygon class="cls-4" points="85.06 108.79 82.8 108.79 81.14 109.75 82.8 110.71 85.06 110.71 86.72 109.75 85.06 108.79"/><polygon class="cls-8" points="85.06 110.33 85.74 109.94 85.74 107.5 85.06 107.9 85.06 110.33"/><polygon class="cls-9" points="85.06 110.33 84.39 109.94 84.39 107.5 85.06 107.9 85.06 110.33"/><polygon class="cls-10" points="85.06 109.56 86.72 108.6 86.52 103 85.06 103.84 85.06 109.56"/><polygon class="cls-11" points="85.06 109.56 83.41 108.6 83.61 103 85.06 103.84 85.06 109.56"/><polygon class="cls-12" points="85.06 103.84 83.61 103 85.06 102.16 86.52 103 85.06 103.84"/><polygon class="cls-4" points="91 118.84 88.73 118.84 87.07 119.8 88.73 120.75 91 120.75 92.66 119.8 91 118.84"/><polygon class="cls-8" points="91 120.38 91.67 119.98 91.67 117.55 91 117.95 91 120.38"/><polygon class="cls-9" points="91 120.38 90.32 119.98 90.32 117.55 91 117.95 91 120.38"/><polygon class="cls-10" points="91 119.61 92.66 118.65 92.45 113.05 91 113.89 91 119.61"/><polygon class="cls-11" points="91 119.61 89.34 118.65 89.54 113.05 91 113.89 91 119.61"/><polygon class="cls-12" points="91 113.89 89.54 113.05 91 112.21 92.45 113.05 91 113.89"/><polygon class="cls-4" points="84.17 123.11 82.55 123.11 81.36 123.8 82.55 124.48 84.17 124.48 85.36 123.8 84.17 123.11"/><polygon class="cls-8" points="84.17 124.21 84.66 123.93 84.66 122.2 84.17 122.48 84.17 124.21"/><polygon class="cls-9" points="84.17 124.21 83.69 123.93 83.69 122.2 84.17 122.48 84.17 124.21"/><polygon class="cls-10" points="84.17 123.67 85.36 122.98 85.22 118.98 84.17 119.58 84.17 123.67"/><polygon class="cls-11" points="84.17 123.67 82.99 122.98 83.13 118.98 84.17 119.58 84.17 123.67"/><polygon class="cls-12" points="84.17 119.58 83.13 118.98 84.17 118.38 85.22 118.98 84.17 119.58"/><polygon class="cls-4" points="80.07 125.48 78.45 125.48 77.26 126.17 78.45 126.85 80.07 126.85 81.26 126.17 80.07 125.48"/><polygon class="cls-8" points="80.07 126.58 80.56 126.3 80.56 124.56 80.07 124.84 80.07 126.58"/><polygon class="cls-9" points="80.07 126.58 79.59 126.3 79.59 124.56 80.07 124.84 80.07 126.58"/><polygon class="cls-10" points="80.07 126.03 81.26 125.35 81.11 121.35 80.07 121.95 80.07 126.03"/><polygon class="cls-11" points="80.07 126.03 78.89 125.35 79.03 121.35 80.07 121.95 80.07 126.03"/><polygon class="cls-12" points="80.07 121.95 79.03 121.35 80.07 120.74 81.11 121.35 80.07 121.95"/><polygon class="cls-4" points="75.97 127.85 74.35 127.85 73.16 128.54 74.35 129.22 75.97 129.22 77.16 128.54 75.97 127.85"/><polygon class="cls-8" points="75.97 128.95 76.45 128.67 76.45 126.93 75.97 127.21 75.97 128.95"/><polygon class="cls-9" points="75.97 128.95 75.48 128.67 75.48 126.93 75.97 127.21 75.97 128.95"/><polygon class="cls-10" points="75.97 128.4 77.16 127.72 77.01 123.71 75.97 124.32 75.97 128.4"/><polygon class="cls-11" points="75.97 128.4 74.78 127.72 74.93 123.71 75.97 124.32 75.97 128.4"/><polygon class="cls-12" points="75.97 124.32 74.93 123.71 75.97 123.11 77.01 123.71 75.97 124.32"/><polygon class="cls-4" points="71.87 130.22 70.25 130.22 69.06 130.91 70.25 131.59 71.87 131.59 73.05 130.91 71.87 130.22"/><polygon class="cls-8" points="71.87 131.32 72.35 131.04 72.35 129.3 71.87 129.58 71.87 131.32"/><polygon class="cls-9" points="71.87 131.32 71.38 131.04 71.38 129.3 71.87 129.58 71.87 131.32"/><polygon class="cls-10" points="71.87 130.77 73.05 130.09 72.91 126.08 71.87 126.69 71.87 130.77"/><polygon class="cls-11" points="71.87 130.77 70.68 130.09 70.83 126.08 71.87 126.69 71.87 130.77"/><polygon class="cls-12" points="71.87 126.69 70.83 126.08 71.87 125.48 72.91 126.08 71.87 126.69"/><polygon class="cls-4" points="85.16 115.47 82.89 115.47 81.23 116.43 82.89 117.39 85.16 117.39 86.82 116.43 85.16 115.47"/><polygon class="cls-8" points="85.16 117.01 85.84 116.62 85.84 114.19 85.16 114.58 85.16 117.01"/><polygon class="cls-9" points="85.16 117.01 84.48 116.62 84.48 114.19 85.16 114.58 85.16 117.01"/><polygon class="cls-10" points="85.16 116.24 86.82 115.28 86.62 109.68 85.16 110.53 85.16 116.24"/><polygon class="cls-11" points="85.16 116.24 83.5 115.28 83.7 109.68 85.16 110.53 85.16 116.24"/><polygon class="cls-12" points="85.16 110.53 83.7 109.68 85.16 108.84 86.62 109.68 85.16 110.53"/><polygon class="cls-13" points="52.64 106.8 52.64 120.9 62.57 126.63 62.57 112.53 52.64 106.8"/><rect class="cls-14" x="62.57" y="112.53" width="3.63" height="14.1"/><polygon class="cls-15" points="76.11 100.48 76.11 120.94 66.2 126.63 66.2 112.53 76.11 100.48"/><polygon class="cls-16" points="49.91 112.92 49.91 120.67 49.36 120.98 49.36 113.24 49.91 112.92"/><polygon class="cls-17" points="77.76 113.61 77.76 121.35 78.3 121.67 78.3 113.92 77.76 113.61"/><polygon class="cls-18" points="78.85 113.61 78.85 121.35 78.3 121.67 78.3 113.92 78.85 113.61"/><polygon class="cls-17" points="76.11 114.56 76.11 122.3 76.66 122.61 76.66 114.87 76.11 114.56"/><polygon class="cls-18" points="77.21 114.56 77.21 122.3 76.66 122.61 76.66 114.87 77.21 114.56"/><polygon class="cls-17" points="74.47 115.5 74.47 123.25 75.02 123.56 75.02 115.82 74.47 115.5"/><polygon class="cls-18" points="75.57 115.5 75.57 123.25 75.02 123.56 75.02 115.82 75.57 115.5"/><polygon class="cls-17" points="72.83 116.45 72.83 124.19 73.38 124.51 73.38 116.77 72.83 116.45"/><polygon class="cls-18" points="73.93 116.45 73.93 124.19 73.38 124.51 73.38 116.77 73.93 116.45"/><polygon class="cls-17" points="71.19 117.4 71.19 125.14 71.74 125.46 71.74 117.71 71.19 117.4"/><polygon class="cls-18" points="72.29 117.4 72.29 125.14 71.74 125.46 71.74 117.71 72.29 117.4"/><polygon class="cls-17" points="69.55 118.34 69.55 126.09 70.1 126.4 70.1 118.66 69.55 118.34"/><polygon class="cls-18" points="70.64 118.34 70.64 126.09 70.1 126.4 70.1 118.66 70.64 118.34"/><polygon class="cls-17" points="67.89 119.26 67.89 127.01 68.44 127.32 68.44 119.58 67.89 119.26"/><polygon class="cls-18" points="68.99 119.26 68.99 127.01 68.44 127.32 68.44 119.58 68.99 119.26"/><polygon class="cls-17" points="78.85 112.98 78.85 120.72 79.4 121.03 79.4 113.29 78.85 112.98"/><polygon class="cls-17" points="48.81 112.92 48.81 120.67 49.36 120.98 49.36 113.24 48.81 112.92"/><polygon class="cls-16" points="51 113.56 51 121.3 50.45 121.61 50.45 113.87 51 113.56"/><polygon class="cls-17" points="49.91 113.56 49.91 121.3 50.45 121.61 50.45 113.87 49.91 113.56"/><polygon class="cls-16" points="51.55 113.87 51.55 121.61 51 121.93 51 114.19 51.55 113.87"/><polygon class="cls-17" points="50.45 113.87 50.45 121.61 51 121.93 51 114.19 50.45 113.87"/><polygon class="cls-16" points="53.19 114.82 53.19 122.56 52.64 122.88 52.64 115.14 53.19 114.82"/><polygon class="cls-17" points="52.09 114.82 52.09 122.56 52.64 122.88 52.64 115.14 52.09 114.82"/><polygon class="cls-16" points="54.83 115.77 54.83 123.51 54.28 123.83 54.28 116.08 54.83 115.77"/><polygon class="cls-17" points="53.74 115.77 53.74 123.51 54.28 123.83 54.28 116.08 53.74 115.77"/><polygon class="cls-16" points="56.47 116.72 56.47 124.46 55.92 124.77 55.92 117.03 56.47 116.72"/><polygon class="cls-17" points="55.38 116.72 55.38 124.46 55.92 124.77 55.92 117.03 55.38 116.72"/><polygon class="cls-16" points="58.11 117.66 58.11 125.41 57.56 125.72 57.56 117.98 58.11 117.66"/><polygon class="cls-17" points="57.02 117.66 57.02 125.41 57.56 125.72 57.56 117.98 57.02 117.66"/><polygon class="cls-16" points="59.75 118.61 59.75 126.35 59.21 126.67 59.21 118.93 59.75 118.61"/><polygon class="cls-17" points="58.66 118.61 58.66 126.35 59.21 126.67 59.21 118.93 58.66 118.61"/><polygon class="cls-16" points="60.88 119.26 60.88 127.01 60.34 127.32 60.34 119.58 60.88 119.26"/><polygon class="cls-17" points="59.79 119.26 59.79 127.01 60.34 127.32 60.34 119.58 59.79 119.26"/><polygon class="cls-16" points="61.43 119.58 61.43 127.32 60.88 127.64 60.88 119.9 61.43 119.58"/><polygon class="cls-17" points="60.34 119.58 60.34 127.32 60.88 127.64 60.88 119.9 60.34 119.58"/><polygon class="cls-18" points="79.94 112.98 79.94 120.72 79.4 121.03 79.4 113.29 79.94 112.98"/><polygon class="cls-16" points="62.53 120.53 62.53 128.27 61.98 128.27 61.98 120.53 62.53 120.53"/><polygon class="cls-17" points="61.43 120.21 61.43 127.95 61.98 128.27 61.98 120.53 61.43 120.21"/><polygon class="cls-18" points="62.8 120.21 62.8 127.95 62.53 128.27 62.53 120.53 62.8 120.21"/><polygon class="cls-17" points="65.98 120.21 65.98 127.95 66.25 128.27 66.25 120.53 65.98 120.21"/><polygon class="cls-16" points="66.25 120.53 66.25 128.27 66.8 128.27 66.8 120.53 66.25 120.53"/><polygon class="cls-18" points="67.35 120.21 67.35 127.95 66.8 128.27 66.8 120.53 67.35 120.21"/><polygon class="cls-19" points="62.11 73.83 49.8 55.44 64.33 47.05 78.95 66.78 66.67 73.83 62.11 73.83"/><rect class="cls-20" x="62.24" y="35.4" width="4.29" height="37.93"/><polygon class="cls-21" points="62.24 35.41 62.24 73.34 50.79 55.44 50.79 28.8 62.24 35.41"/><polygon class="cls-22" points="66.54 73.34 77.99 66.72 77.99 28.79 66.54 35.41 66.54 73.34"/><polygon class="cls-19" points="66.54 35.41 62.24 35.41 50.79 28.79 55.96 25.8 64.33 20.97 77.97 28.84 66.54 35.41"/><polygon class="cls-23" points="62.37 34.95 51.7 28.79 56.42 26.07 64.33 21.5 77.05 28.84 66.41 34.95 62.37 34.95"/><polygon class="cls-24" points="64.33 22.43 56.42 27 52.51 29.26 62.37 34.95 66.41 34.95 76.24 29.3 64.33 22.43"/><polygon class="cls-25" points="64.33 22.43 63.93 22.66 75.43 29.3 65.61 34.95 66.41 34.95 76.24 29.3 64.33 22.43"/><polygon class="cls-19" points="61.98 102.18 48.81 94.58 64.33 77.18 79.94 86.19 66.8 102.18 61.98 102.18"/><polygon class="cls-17" points="49.8 55.44 49.8 94.58 62.11 101.69 62.11 73.83 49.8 55.44"/><rect class="cls-16" x="62.11" y="73.83" width="4.56" height="27.85"/><polygon class="cls-18" points="78.96 66.77 78.96 86.2 76.23 89.63 72.73 94.05 66.67 101.68 66.67 73.83 78.96 66.77"/><polygon class="cls-17" points="48.81 94.58 48.81 113.28 61.98 120.88 61.98 102.18 48.81 94.58"/><rect class="cls-16" x="61.98" y="102.18" width="4.82" height="18.7"/><polygon class="cls-18" points="79.95 86.2 79.95 113.33 66.8 120.88 66.8 102.18 69.86 98.45 73.12 94.49 76.63 90.24 79.95 86.2"/><polygon class="cls-26" points="63.87 27.01 60.15 29.16 60.15 17.91 63.87 15.77 63.87 27.01"/><polygon class="cls-27" points="63.87 15.77 60.15 17.91 54.1 19.47 57.82 17.32 63.87 15.77"/><polygon class="cls-21" points="54.1 26.88 55.96 25.8 56.42 26.07 56.42 27 60.15 29.16 60.15 17.91 54.1 19.47 54.1 26.88"/><rect class="cls-28" x="62.24" y="38.22" width="4.29" height="2.85"/><polygon class="cls-28" points="66.54 41.07 77.99 34.45 77.99 31.61 66.54 38.22 66.54 41.07"/><rect class="cls-28" x="62.24" y="44.2" width="4.29" height="2.85"/><polygon class="cls-28" points="66.54 47.05 77.99 40.43 77.99 37.59 66.54 44.2 66.54 47.05"/><rect class="cls-28" x="62.24" y="50.18" width="4.29" height="2.85"/><polygon class="cls-28" points="66.54 53.03 77.99 46.41 77.99 43.56 66.54 50.18 66.54 53.03"/><rect class="cls-28" x="62.24" y="56.16" width="4.29" height="2.85"/><polygon class="cls-28" points="66.54 59.01 77.99 52.39 77.99 49.55 66.54 56.16 66.54 59.01"/><rect class="cls-28" x="62.24" y="62.14" width="4.29" height="2.85"/><polygon class="cls-28" points="66.54 64.99 77.99 58.37 77.99 55.53 66.54 62.14 66.54 64.99"/><rect class="cls-28" x="62.24" y="68.12" width="4.29" height="2.85"/><polygon class="cls-28" points="66.54 70.97 77.99 64.35 77.99 61.51 66.54 68.12 66.54 70.97"/><polygon class="cls-28" points="66.67 76.19 66.67 78.58 78.95 71.48 78.95 69.09 66.67 76.19"/><polygon class="cls-28" points="66.67 80.93 66.67 83.32 78.95 76.22 78.95 73.83 66.67 80.93"/><polygon class="cls-28" points="79.95 88.32 79.95 90.55 73.12 94.49 76.63 90.24 79.95 88.32"/><polygon class="cls-28" points="79.95 92.63 79.95 94.86 66.8 102.46 66.8 102.18 69.86 98.45 79.95 92.63"/><polygon class="cls-28" points="66.8 104.54 66.8 106.77 79.95 99.18 79.95 96.94 66.8 104.54"/><polygon class="cls-28" points="66.8 108.85 66.8 111.08 79.95 103.49 79.95 101.26 66.8 108.85"/><polygon class="cls-28" points="66.8 113.16 66.8 115.39 79.95 107.8 79.95 105.57 66.8 113.16"/><polygon class="cls-28" points="66.8 117.47 66.8 119.7 79.95 112.11 79.95 109.88 66.8 117.47"/><polygon class="cls-28" points="66.67 85.67 66.67 88.06 78.95 80.96 78.95 78.58 66.67 85.67"/><polygon class="cls-28" points="62.11 76.19 62.11 78.58 49.83 71.48 49.83 69.09 62.11 76.19"/><polygon class="cls-28" points="62.24 44.2 62.24 47.04 50.79 40.44 50.79 37.59 62.24 44.2"/><polygon class="cls-28" points="62.24 50.18 62.24 53.02 50.79 46.42 50.79 43.57 62.24 50.18"/><polygon class="cls-28" points="62.24 56.16 62.24 59.01 50.79 52.39 50.79 49.55 62.24 56.16"/><polygon class="cls-28" points="62.24 62.14 62.24 64.99 49.96 57.9 49.96 55.05 62.24 62.14"/><polygon class="cls-28" points="62.24 68.12 62.24 70.97 49.96 63.88 49.96 61.03 62.24 68.12"/><polygon class="cls-28" points="62.24 38.22 62.24 41.07 50.79 34.46 50.79 31.61 62.24 38.22"/><polygon class="cls-28" points="66.67 90.41 66.67 92.8 78.95 85.7 78.95 83.32 66.67 90.41"/><polygon class="cls-28" points="76.23 89.63 72.73 94.05 66.67 97.54 66.67 95.16 76.23 89.63"/><polygon class="cls-4" points="60.15 29.16 52.69 29.16 52.69 28.22 51.83 28.22 55.96 25.8 56.42 26.07 56.42 27 60.15 29.16"/><polygon class="cls-29" points="66.67 101.68 66.67 92.8 68.52 91.6 68.52 81.57 72.64 79.43 72.64 85.85 74.72 84.84 77.39 86.71 77.39 88.16 66.67 101.68"/><polygon class="cls-29" points="79.95 90.7 79.95 113.33 66.8 120.88 66.8 102.18 77.39 89.3 77.39 97.81 78.63 96.14 78.63 92.32 79.95 90.7"/><polygon class="cls-30" points="66.67 86.98 66.67 101.69 62.12 101.68 62.12 82.5 63.33 82.29 64.32 83.84 64.32 86.92 66.67 86.98"/><rect class="cls-30" x="61.98" y="102.18" width="4.82" height="18.7"/><rect class="cls-28" x="62.11" y="76.19" width="4.56" height="2.39"/><polygon class="cls-28" points="62.11 80.93 62.11 83.32 49.83 76.22 49.83 73.83 62.11 80.93"/><rect class="cls-28" x="62.11" y="80.93" width="4.56" height="2.39"/><polygon class="cls-28" points="62.11 85.67 62.11 88.06 49.83 80.96 49.83 78.58 62.11 85.67"/><rect class="cls-28" x="62.11" y="85.67" width="4.56" height="2.39"/><polygon class="cls-28" points="62.11 90.41 62.11 92.8 49.83 85.7 49.83 83.32 62.11 90.41"/><rect class="cls-28" x="62.11" y="90.41" width="4.56" height="2.39"/><polygon class="cls-28" points="62.11 95.15 62.11 97.54 49.83 90.45 49.83 88.06 62.11 95.15"/><rect class="cls-28" x="62.11" y="95.15" width="4.56" height="2.39"/><polygon class="cls-28" points="61.98 104.54 61.98 106.77 48.81 99.17 48.81 96.93 61.98 104.54"/><rect class="cls-28" x="61.98" y="104.54" width="4.82" height="2.23"/><polygon class="cls-28" points="61.98 108.85 61.98 111.08 48.81 103.48 48.81 101.25 61.98 108.85"/><rect class="cls-28" x="61.98" y="108.85" width="4.82" height="2.23"/><polygon class="cls-28" points="61.98 113.16 61.98 115.39 48.81 107.79 48.81 105.56 61.98 113.16"/><rect class="cls-28" x="61.98" y="113.16" width="4.82" height="2.23"/><polygon class="cls-28" points="61.98 117.47 61.98 119.7 48.81 112.1 48.81 109.87 61.98 117.47"/><rect class="cls-28" x="61.98" y="117.47" width="4.82" height="2.23"/><polygon class="cls-4" points="63.48 28.11 66.57 26.33 68.02 30.3 67.28 30.3 63.48 28.11"/><polygon class="cls-4" points="59.68 30.88 63.87 28.46 62.72 32.09 61.77 32.09 59.68 30.88"/><polygon class="cls-4" points="62.28 32.09 62.9 31.73 64.82 33.3 64.37 33.3 62.28 32.09"/><polygon class="cls-4" points="64.76 30.66 65.38 30.3 67.3 31.87 66.86 31.87 64.76 30.66"/><polygon class="cls-31" points="64.22 28.11 64.22 26.33 68.02 28.52 68.02 30.3 64.22 28.11"/><polygon class="cls-32" points="71.1 28.52 71.1 26.74 68.02 28.52 68.02 30.3 71.1 28.52"/><polygon class="cls-5" points="64.22 26.33 67.31 24.55 71.1 26.74 68.02 28.52 64.22 26.33"/><polygon class="cls-31" points="60.63 30.88 60.63 29.9 62.72 31.11 62.72 32.09 60.63 30.88"/><polygon class="cls-32" points="66.92 29.67 66.92 28.69 62.72 31.11 62.72 32.09 66.92 29.67"/><polygon class="cls-5" points="60.63 29.9 64.82 27.48 66.92 28.69 62.72 31.11 60.63 29.9"/><polygon class="cls-31" points="62.72 32.09 62.72 31.29 64.82 32.5 64.82 33.3 62.72 32.09"/><polygon class="cls-32" points="65.44 32.94 65.44 32.14 64.82 32.5 64.82 33.3 65.44 32.94"/><polygon class="cls-5" points="62.72 31.29 63.34 30.93 65.44 32.14 64.82 32.5 62.72 31.29"/><polygon class="cls-31" points="65.2 30.66 65.2 29.86 67.3 31.07 67.3 31.87 65.2 30.66"/><polygon class="cls-32" points="67.92 31.51 67.92 30.71 67.3 31.07 67.3 31.87 67.92 31.51"/><polygon class="cls-5" points="65.2 29.86 65.82 29.5 67.92 30.71 67.3 31.07 65.2 29.86"/></g></g></svg>