<svg xmlns="http://www.w3.org/2000/svg" viewBox="0 0 130.45 153.42"><defs><style>.cls-1{isolation:isolate;}.cls-2{fill:#5a504f;}.cls-3{fill:#897998;}.cls-15,.cls-3{mix-blend-mode:multiply;}.cls-4{fill:#23394a;}.cls-5{fill:#bda195;}.cls-6{fill:#976b58;}.cls-7{fill:#6c8a9d;}.cls-8{fill:#e5ded0;}.cls-9{fill:#f8f6e1;}.cls-10{fill:#809aaa;}.cls-11{fill:#4d6d7a;}.cls-12{fill:#9fb4b6;}.cls-13{fill:#b7cfd1;}.cls-14{fill:#d9c0b6;}.cls-15{fill:#c7d6ed;}.cls-16{fill:#232c36;}</style></defs><title>inside-b</title><g class="cls-1"><g id="layer"><polygon class="cls-2" points="69.57 148.86 21.72 121.23 60.87 98.63 108.73 126.26 69.57 148.86"/><polygon class="cls-3" points="74.36 140.77 55.56 140.77 21.72 121.23 37.09 112.36 67.23 127.6 74.36 140.77"/><polygon class="cls-4" points="70.55 120.99 29.64 111.68 29.64 120.73 58.96 137.66 63.96 134.77 74.36 140.77 98.35 126.92 98.35 117.88 70.55 120.99"/><polygon class="cls-5" points="29.84 121.3 29.07 120.86 29.07 114.33 29.84 114.78 29.84 121.3"/><polygon class="cls-6" points="29.84 121.3 30.2 121.09 30.2 114.68 29.84 114.89 29.84 121.3"/><polygon class="cls-7" points="74.36 140.77 74.36 132.25 63.96 126.87 63.96 134.77 58.96 137.66 58.96 126.87 98.35 120.25 98.35 126.92 74.36 140.77"/><polygon class="cls-8" points="58.96 137.97 59.73 137.52 59.73 131 58.96 131.44 58.96 137.97"/><polygon class="cls-5" points="58.96 137.97 58.19 137.52 58.19 130.55 58.96 131 58.96 137.97"/><polygon class="cls-8" points="97.58 127.82 98.35 127.38 98.35 120.85 97.58 121.3 97.58 127.82"/><polygon class="cls-8" points="74.36 141.23 75.13 140.78 75.13 134.26 74.36 134.7 74.36 141.23"/><polygon class="cls-5" points="74.36 141.23 73.59 140.78 73.59 133.81 74.36 134.26 74.36 141.23"/><polygon class="cls-5" points="97.58 127.82 97.21 127.61 97.21 121.2 97.58 121.41 97.58 127.82"/><polygon class="cls-5" points="70.76 120.82 28.53 111.21 28.53 114.13 58.8 131.6 63.96 128.62 74.69 134.82 99.45 120.52 99.45 117.61 70.76 120.82"/><polygon class="cls-9" points="58.8 128.69 28.53 111.21 53.29 96.92 83.56 114.39 58.8 128.69"/><polygon class="cls-9" points="74.69 131.9 44.42 114.43 69.19 100.13 99.45 117.61 74.69 131.9"/><polygon class="cls-3" points="72.58 128.33 68.5 128.33 63.96 125.71 58.8 128.69 28.53 111.21 42.14 103.35 72.58 128.33"/><polygon class="cls-8" points="63.15 20.39 51.7 27.01 51.7 91.49 63.15 84.88 63.15 20.39"/><polygon class="cls-9" points="51.68 13.77 40.22 20.39 51.7 27.01 63.15 20.39 51.68 13.77"/><polygon class="cls-5" points="41.61 20.39 51.68 14.57 61.77 20.39 51.7 26.21 41.61 20.39"/><polygon class="cls-8" points="72.58 34.82 61.13 41.43 61.13 105.92 72.58 99.3 72.58 34.82"/><polygon class="cls-9" points="63.15 29.37 51.7 35.99 61.13 41.43 72.58 34.82 63.15 29.37"/><polygon class="cls-5" points="53.01 36.03 63.23 30.13 71.27 34.77 61.05 40.68 53.01 36.03"/><polygon class="cls-8" points="61.77 20.4 60.79 20.96 51.68 15.7 42.59 20.95 41.61 20.39 51.68 14.57 61.77 20.4"/><polygon class="cls-5" points="51.68 14.57 51.68 15.7 60.79 20.96 61.77 20.4 51.68 14.57"/><polygon class="cls-3" points="51.68 14.57 51.04 16.07 59.84 21.15 51.39 26.03 51.7 26.21 60.79 20.96 51.68 15.7 51.68 14.57"/><polygon class="cls-8" points="71.27 34.78 70.29 35.34 63.23 31.26 53.99 36.6 53.01 36.03 63.23 30.13 71.27 34.78"/><polygon class="cls-5" points="63.23 30.13 63.23 31.26 70.29 35.34 71.27 34.78 63.23 30.13"/><polygon class="cls-3" points="63.23 30.13 62.59 31.63 69.35 35.53 60.74 40.5 61.05 40.68 70.29 35.34 63.23 31.26 63.23 30.13"/><polygon class="cls-5" points="84.04 120.63 72.58 114.01 72.58 115.1 84.04 121.72 84.04 120.63"/><polygon class="cls-5" points="84.04 116.2 72.58 109.59 72.58 111.24 84.04 117.86 84.04 116.2"/><polygon class="cls-5" points="84.04 112.8 72.58 106.19 72.58 107.84 84.04 114.46 84.04 112.8"/><polygon class="cls-5" points="84.04 109.4 72.58 102.79 72.58 104.44 84.04 111.06 84.04 109.4"/><polygon class="cls-5" points="73.37 103.81 72.58 103.35 72.58 115.1 73.37 115.55 73.37 103.81"/><polygon class="cls-7" points="83.4 44.55 71.94 51.16 71.94 115.64 83.4 109.03 83.4 44.55"/><polygon class="cls-10" points="83.4 44.55 80.92 44.18 80.92 121.33 83.4 121.69 83.4 44.55"/><polygon class="cls-11" points="83.4 108.7 71.94 115.32 71.94 115.64 83.4 109.03 83.4 108.7"/><polygon class="cls-11" points="83.4 104.69 71.94 111.31 71.94 111.64 83.4 105.02 83.4 104.69"/><polygon class="cls-11" points="83.4 100.68 71.94 107.3 71.94 107.63 83.4 101.01 83.4 100.68"/><polygon class="cls-11" points="83.4 96.67 71.94 103.29 71.94 103.62 83.4 97 83.4 96.67"/><polygon class="cls-11" points="83.4 92.66 71.94 99.28 71.94 99.61 83.4 92.99 83.4 92.66"/><polygon class="cls-11" points="83.4 88.65 71.94 95.27 71.94 95.6 83.4 88.98 83.4 88.65"/><polygon class="cls-11" points="83.4 84.64 71.94 91.26 71.94 91.59 83.4 84.97 83.4 84.64"/><polygon class="cls-11" points="83.4 80.63 71.94 87.25 71.94 87.58 83.4 80.96 83.4 80.63"/><polygon class="cls-11" points="83.4 76.62 71.94 83.24 71.94 83.57 83.4 76.95 83.4 76.62"/><polygon class="cls-11" points="83.4 72.61 71.94 79.23 71.94 79.56 83.4 72.94 83.4 72.61"/><polygon class="cls-11" points="83.4 68.61 71.94 75.22 71.94 75.55 83.4 68.93 83.4 68.61"/><polygon class="cls-11" points="83.4 64.59 71.94 71.21 71.94 71.54 83.4 64.92 83.4 64.59"/><polygon class="cls-11" points="83.4 60.59 71.94 67.2 71.94 67.53 83.4 60.91 83.4 60.59"/><polygon class="cls-11" points="83.4 56.58 71.94 63.19 71.94 63.52 83.4 56.9 83.4 56.58"/><polygon class="cls-11" points="83.4 52.57 71.94 59.18 71.94 59.51 83.4 52.89 83.4 52.57"/><polygon class="cls-11" points="83.4 48.56 71.94 55.17 71.94 55.5 83.4 48.88 83.4 48.56"/><polygon class="cls-11" points="83.4 44.55 71.94 51.16 71.94 51.49 83.4 44.87 83.4 44.55"/><polygon class="cls-12" points="72.58 38.3 61.13 44.92 71.94 51.16 83.4 44.55 72.58 38.3"/><polygon class="cls-13" points="72.58 38.3 72.58 41.27 80.66 46.13 83.4 44.55 72.58 38.3"/><polygon class="cls-7" points="83.4 110.69 71.94 117.3 71.94 119.05 83.4 112.43 83.4 110.69"/><polygon class="cls-7" points="83.4 114.08 71.94 120.7 71.94 122.44 83.4 115.83 83.4 114.08"/><polygon class="cls-7" points="83.4 117.48 71.94 124.1 71.94 126.87 83.4 120.25 83.4 117.48"/><polygon class="cls-8" points="72.58 127.24 84.04 120.63 84.04 121.72 72.58 128.33 72.58 127.24"/><polygon class="cls-9" points="71.94 126.87 83.4 120.25 84.04 120.63 72.58 127.24 71.94 126.87"/><polygon class="cls-9" points="71.94 122.44 83.4 115.83 84.04 116.2 72.58 122.82 71.94 122.44"/><polygon class="cls-9" points="71.94 119.05 83.4 112.43 84.04 112.8 72.58 119.42 71.94 119.05"/><polygon class="cls-9" points="71.94 115.64 83.4 109.03 84.04 109.4 72.58 116.02 71.94 115.64"/><polygon class="cls-8" points="72.58 122.82 84.04 116.2 84.04 117.86 72.58 124.47 72.58 122.82"/><polygon class="cls-8" points="72.58 119.42 84.04 112.8 84.04 114.46 72.58 121.07 72.58 119.42"/><polygon class="cls-8" points="72.58 116.02 84.04 109.4 84.04 111.06 72.58 117.67 72.58 116.02"/><polygon class="cls-4" points="58.42 41.92 57.03 41.12 57.03 118.26 58.42 119.06 58.42 41.92"/><polygon class="cls-9" points="58.72 118.89 57.33 118.09 57.03 118.26 58.42 119.06 58.72 118.89"/><polygon class="cls-14" points="57.33 41.29 57.33 118.09 57.03 118.26 57.03 41.12 57.33 41.29"/><polygon class="cls-9" points="58.72 106.78 57.33 105.97 57.03 106.15 58.42 106.95 58.72 106.78"/><polygon class="cls-9" points="58.72 101.19 57.33 100.39 57.03 100.56 58.42 101.36 58.72 101.19"/><polygon class="cls-9" points="58.72 84.61 57.33 83.81 57.03 83.98 58.42 84.78 58.72 84.61"/><polygon class="cls-9" points="58.72 79.02 57.33 78.22 57.03 78.4 58.42 79.2 58.72 79.02"/><polygon class="cls-9" points="58.72 62.44 57.33 61.64 57.03 61.81 58.42 62.62 58.72 62.44"/><polygon class="cls-9" points="58.72 56.86 57.33 56.06 57.03 56.23 58.42 57.03 58.72 56.86"/><polygon class="cls-4" points="55.06 39.98 53.67 39.18 53.67 116.32 55.06 117.12 55.06 39.98"/><polygon class="cls-9" points="55.35 116.95 53.97 116.15 53.67 116.32 55.06 117.12 55.35 116.95"/><polygon class="cls-14" points="53.97 39.35 53.97 116.15 53.67 116.32 53.67 39.18 53.97 39.35"/><polygon class="cls-9" points="55.35 97.12 53.97 96.32 53.67 96.49 55.06 97.29 55.35 97.12"/><polygon class="cls-9" points="55.35 91.53 53.97 90.73 53.67 90.91 55.06 91.71 55.35 91.53"/><polygon class="cls-9" points="55.35 74.95 53.97 74.15 53.67 74.33 55.06 75.13 55.35 74.95"/><polygon class="cls-9" points="55.35 69.37 53.97 68.57 53.67 68.74 55.06 69.54 55.35 69.37"/><polygon class="cls-9" points="55.35 52.79 53.97 51.99 53.67 52.16 55.06 52.96 55.35 52.79"/><polygon class="cls-9" points="55.35 47.2 53.97 46.4 53.67 46.57 55.06 47.37 55.35 47.2"/><polygon class="cls-5" points="53.67 117.41 51.7 116.27 51.7 35.99 53.67 37.13 53.67 117.41"/><polygon class="cls-5" points="57.03 119.35 55.06 118.21 55.06 37.93 57.03 39.07 57.03 119.35"/><polygon class="cls-5" points="61.13 121.72 58.42 120.15 58.42 39.87 61.13 41.43 61.13 121.72"/><polygon class="cls-5" points="61.13 120.63 51.7 115.18 51.7 116.27 61.13 121.72 61.13 120.63"/><polygon class="cls-5" points="61.13 41.43 51.7 35.99 51.7 38.03 61.13 43.48 61.13 41.43"/><polygon class="cls-5" points="57.03 106.15 58.42 106.95 58.42 107.73 57.03 106.92 57.03 106.15"/><polygon class="cls-5" points="57.03 100.56 58.42 101.36 58.42 102.14 57.03 101.34 57.03 100.56"/><polygon class="cls-5" points="53.67 96.49 55.06 97.29 55.06 98.07 53.67 97.27 53.67 96.49"/><polygon class="cls-5" points="53.67 90.91 55.06 91.71 55.06 92.48 53.67 91.68 53.67 90.91"/><polygon class="cls-5" points="57.03 83.98 58.42 84.78 58.42 85.56 57.03 84.76 57.03 83.98"/><polygon class="cls-5" points="57.03 78.4 58.42 79.2 58.42 79.97 57.03 79.17 57.03 78.4"/><polygon class="cls-5" points="53.67 74.33 55.06 75.13 55.06 75.9 53.67 75.1 53.67 74.33"/><polygon class="cls-5" points="53.67 68.74 55.06 69.54 55.06 70.32 53.67 69.52 53.67 68.74"/><polygon class="cls-5" points="57.03 61.81 58.42 62.62 58.42 63.39 57.03 62.59 57.03 61.81"/><polygon class="cls-5" points="57.03 56.23 58.42 57.03 58.42 57.81 57.03 57.01 57.03 56.23"/><polygon class="cls-5" points="53.67 52.16 55.06 52.96 55.06 53.74 53.67 52.94 53.67 52.16"/><polygon class="cls-5" points="53.67 46.57 55.06 47.37 55.06 48.15 53.67 47.35 53.67 46.57"/><polygon class="cls-5" points="72.58 127.24 61.13 120.63 61.13 121.72 72.58 128.33 72.58 127.24"/><polygon class="cls-5" points="72.58 122.82 61.13 116.2 61.13 117.86 72.58 124.47 72.58 122.82"/><polygon class="cls-5" points="72.58 119.42 61.13 112.8 61.13 114.46 72.58 121.07 72.58 119.42"/><polygon class="cls-5" points="72.58 116.02 61.13 109.4 61.13 111.06 72.58 117.67 72.58 116.02"/><polygon class="cls-5" points="61.91 110.42 61.13 109.97 61.13 121.72 61.91 122.17 61.91 110.42"/><polygon class="cls-4" points="71.94 51.16 61.13 44.92 61.13 109.4 71.94 115.64 71.94 51.16"/><polygon class="cls-4" points="71.94 117.3 61.91 111.51 61.91 113.25 71.94 119.05 71.94 117.3"/><polygon class="cls-4" points="71.94 120.7 61.91 114.91 61.91 116.66 71.94 122.44 71.94 120.7"/><polygon class="cls-4" points="71.94 124.1 61.91 118.31 61.91 121.08 71.94 126.87 71.94 124.1"/><polygon class="cls-4" points="48.37 113.02 40.72 108.61 40.72 20.87 48.37 25.28 48.37 113.02"/><polygon class="cls-9" points="48.52 110.8 40.87 106.39 40.22 106.76 47.87 111.17 48.52 110.8"/><polygon class="cls-9" points="48.52 105.72 40.87 101.31 40.22 101.68 47.87 106.09 48.52 105.72"/><polygon class="cls-9" points="48.52 100.64 40.87 96.23 40.22 96.6 47.87 101.01 48.52 100.64"/><polygon class="cls-9" points="48.52 95.56 40.87 91.14 40.22 91.52 47.87 95.93 48.52 95.56"/><polygon class="cls-9" points="48.52 90.48 40.87 86.06 40.22 86.44 47.87 90.85 48.52 90.48"/><polygon class="cls-9" points="48.52 85.4 40.87 80.98 40.22 81.36 47.87 85.77 48.52 85.4"/><polygon class="cls-9" points="48.52 80.32 40.87 75.9 40.22 76.28 47.87 80.69 48.52 80.32"/><polygon class="cls-9" points="48.52 75.24 40.87 70.82 40.22 71.19 47.87 75.61 48.52 75.24"/><polygon class="cls-9" points="48.52 70.16 40.87 65.74 40.22 66.11 47.87 70.53 48.52 70.16"/><polygon class="cls-9" points="48.52 65.08 40.87 60.66 40.22 61.03 47.87 65.45 48.52 65.08"/><polygon class="cls-9" points="48.52 59.99 40.87 55.58 40.22 55.95 47.87 60.37 48.52 59.99"/><polygon class="cls-9" points="48.52 54.91 40.87 50.5 40.22 50.87 47.87 55.29 48.52 54.91"/><polygon class="cls-9" points="48.52 49.83 40.87 45.42 40.22 45.79 47.87 50.2 48.52 49.83"/><polygon class="cls-9" points="48.52 44.75 40.87 40.34 40.22 40.71 47.87 45.13 48.52 44.75"/><polygon class="cls-9" points="48.52 39.67 40.87 35.26 40.22 35.63 47.87 40.04 48.52 39.67"/><polygon class="cls-9" points="48.52 34.59 40.87 30.18 40.22 30.55 47.87 34.96 48.52 34.59"/><polygon class="cls-9" points="48.52 29.51 40.87 25.09 40.22 25.47 47.87 29.88 48.52 29.51"/><polygon class="cls-5" points="51.7 27.01 47.87 24.8 47.87 114.06 51.7 116.27 51.7 27.01"/><polygon class="cls-5" points="47.87 24.8 40.22 20.39 40.22 23.27 47.87 27.69 47.87 24.8"/><polygon class="cls-5" points="47.87 29.88 40.22 25.47 40.22 28.35 47.87 32.77 47.87 29.88"/><polygon class="cls-5" points="47.87 34.96 40.22 30.55 40.22 33.43 47.87 37.85 47.87 34.96"/><polygon class="cls-5" points="47.87 40.04 40.22 35.63 40.22 38.52 47.87 42.93 47.87 40.04"/><polygon class="cls-5" points="47.87 45.12 40.22 40.71 40.22 43.6 47.87 48.01 47.87 45.12"/><polygon class="cls-5" points="47.87 50.2 40.22 45.79 40.22 48.68 47.87 53.09 47.87 50.2"/><polygon class="cls-5" points="47.87 55.29 40.22 50.87 40.22 53.76 47.87 58.17 47.87 55.29"/><polygon class="cls-5" points="47.87 60.37 40.22 55.95 40.22 58.84 47.87 63.25 47.87 60.37"/><polygon class="cls-5" points="47.87 65.45 40.22 61.03 40.22 63.92 47.87 68.33 47.87 65.45"/><polygon class="cls-5" points="47.87 70.53 40.22 66.11 40.22 69 47.87 73.42 47.87 70.53"/><polygon class="cls-5" points="47.87 75.61 40.22 71.19 40.22 74.08 47.87 78.5 47.87 75.61"/><polygon class="cls-5" points="47.87 80.69 40.22 76.28 40.22 79.16 47.87 83.58 47.87 80.69"/><polygon class="cls-5" points="47.87 85.77 40.22 81.36 40.22 84.24 47.87 88.66 47.87 85.77"/><polygon class="cls-5" points="47.87 90.85 40.22 86.44 40.22 89.32 47.87 93.74 47.87 90.85"/><polygon class="cls-5" points="47.87 95.93 40.22 91.52 40.22 94.4 47.87 98.82 47.87 95.93"/><polygon class="cls-5" points="47.87 101.01 40.22 96.6 40.22 99.48 47.87 103.9 47.87 101.01"/><polygon class="cls-5" points="47.87 106.09 40.22 101.68 40.22 104.57 47.87 108.98 47.87 106.09"/><polygon class="cls-5" points="47.87 111.17 40.22 106.76 40.22 109.65 47.87 114.06 47.87 111.17"/><polygon class="cls-8" points="58.8 128.69 58.8 131.6 63.96 128.62 63.96 125.71 58.8 128.69"/><polygon class="cls-8" points="74.69 131.9 74.69 134.82 99.45 120.52 99.45 117.61 74.69 131.9"/><polygon class="cls-15" points="83.4 79.59 81.86 79.02 78.22 80.94 78.22 76.18 76.17 75.32 71.94 77.8 71.94 115.64 83.4 109.03 83.4 79.59"/><polygon class="cls-16" points="61.13 109.08 71.94 115.32 71.94 115.64 61.13 109.4 61.13 109.08"/><polygon class="cls-16" points="61.13 105.06 71.94 111.31 71.94 111.64 61.13 105.39 61.13 105.06"/><polygon class="cls-16" points="61.13 101.06 71.94 107.3 71.94 107.63 61.13 101.38 61.13 101.06"/><polygon class="cls-16" points="61.13 97.05 71.94 103.29 71.94 103.62 61.13 97.37 61.13 97.05"/><polygon class="cls-16" points="61.13 93.04 71.94 99.28 71.94 99.61 61.13 93.36 61.13 93.04"/><polygon class="cls-16" points="61.13 89.03 71.94 95.27 71.94 95.6 61.13 89.35 61.13 89.03"/><polygon class="cls-16" points="61.13 85.02 71.94 91.26 71.94 91.59 61.13 85.34 61.13 85.02"/><polygon class="cls-16" points="61.13 81.01 71.94 87.25 71.94 87.58 61.13 81.33 61.13 81.01"/><polygon class="cls-16" points="61.13 77 71.94 83.24 71.94 83.57 61.13 77.33 61.13 77"/><polygon class="cls-16" points="61.13 72.99 71.94 79.23 71.94 79.56 61.13 73.31 61.13 72.99"/><polygon class="cls-16" points="61.13 68.98 71.94 75.22 71.94 75.55 61.13 69.31 61.13 68.98"/><polygon class="cls-16" points="61.13 64.97 71.94 71.21 71.94 71.54 61.13 65.3 61.13 64.97"/><polygon class="cls-16" points="61.13 60.96 71.94 67.2 71.94 67.53 61.13 61.29 61.13 60.96"/><polygon class="cls-16" points="61.13 56.95 71.94 63.19 71.94 63.52 61.13 57.28 61.13 56.95"/><polygon class="cls-16" points="61.13 52.94 71.94 59.18 71.94 59.51 61.13 53.27 61.13 52.94"/><polygon class="cls-16" points="61.13 48.93 71.94 55.17 71.94 55.5 61.13 49.26 61.13 48.93"/><polygon class="cls-16" points="61.13 44.92 71.94 51.16 71.94 51.49 61.13 45.25 61.13 44.92"/></g></g></svg>