<svg width="110" height="43" viewBox="0 0 110 43" fill="none" xmlns="http://www.w3.org/2000/svg">
<g clip-path="url(#clip0_518_437)">
<path d="M14.9632 34.984H11.0124L11.0747 32.9644C10.5147 33.8499 9.84587 34.5024 9.06816 34.9218C8.29044 35.3413 7.34163 35.5432 6.22172 35.5432C4.3552 35.5432 2.86199 34.8441 1.71097 33.4615C0.575509 32.0789 0 30.2614 0 27.9777C0 25.6009 0.559955 23.7523 1.67986 22.4163C2.79977 21.0958 4.37076 20.4278 6.36171 20.4278C7.38829 20.4278 8.29044 20.6608 9.0526 21.1269C9.83032 21.5929 10.5458 22.3386 11.2302 23.3484C11.1991 23.0221 11.1524 22.6338 11.1369 22.2143C11.1058 21.8104 11.0902 21.3288 11.0902 20.8006V12.7847H14.9632V34.984ZM11.2458 27.9467C11.2458 26.6884 10.9347 25.6941 10.2969 24.9484C9.65922 24.2183 8.80373 23.8455 7.73049 23.8455C6.62613 23.8455 5.75509 24.2028 5.11736 24.9329C4.46408 25.6475 4.13744 26.6417 4.13744 27.9156C4.13744 29.1895 4.44853 30.1837 5.0707 30.8983C5.69287 31.6129 6.56391 31.9702 7.66827 31.9702C8.78818 31.9702 9.67477 31.6129 10.2969 30.9138C10.9347 30.1992 11.2458 29.205 11.2458 27.9467Z" fill="black"/>
<path d="M31.9951 29.3291H21.4337C21.5892 30.3389 21.9625 31.1001 22.538 31.5972C23.1136 32.0943 23.8913 32.3429 24.8712 32.3429C25.6178 32.3429 26.2555 32.203 26.7999 31.9079C27.3443 31.6283 27.7954 31.1933 28.1532 30.603L31.4507 32.2497C30.6885 33.4769 29.7552 34.3935 28.6664 34.9993C27.5776 35.5896 26.2866 35.9003 24.7779 35.9003C22.5069 35.9003 20.7026 35.2168 19.365 33.8653C18.0273 32.5137 17.374 30.6806 17.374 28.397C17.374 26.1911 18.074 24.3735 19.4583 22.9598C20.8426 21.5306 22.6314 20.8315 24.7934 20.8315C27.0332 20.8315 28.8064 21.4995 30.0974 22.8355C31.404 24.1715 32.0417 25.9891 32.0417 28.2883C32.0417 28.4125 32.0417 28.5524 32.0262 28.6922C32.0417 28.8165 32.0262 29.0339 31.9951 29.3291ZM27.9509 26.8591C27.8421 25.9736 27.5154 25.3056 26.9866 24.8395C26.4577 24.3735 25.7267 24.156 24.809 24.156C23.8913 24.156 23.1602 24.389 22.6003 24.8395C22.0559 25.29 21.6981 25.958 21.5426 26.8591H27.9509Z" fill="black"/>
<path d="M28.4487 13.9343L43.0542 8V12.8935L35.4637 15.3635C34.8415 15.5655 34.2816 15.7208 33.7527 15.8451C33.2239 15.9694 32.7106 16.047 32.1973 16.0937C32.9595 16.2179 33.6128 16.3267 34.1416 16.451C34.6704 16.5752 35.1682 16.715 35.6037 16.8704L43.0542 19.356V24.1718L28.4487 18.1753V13.9343Z" fill="black"/>
<path d="M61.875 18.1753L47.2695 24.1718V19.356L54.72 16.8704C55.1556 16.715 55.6377 16.5752 56.1821 16.451C56.711 16.3267 57.3643 16.2179 58.1264 16.0937C57.6131 16.047 57.0998 15.9538 56.571 15.8451C56.0422 15.7208 55.4666 15.5655 54.86 15.3635L47.2695 12.8935V8L61.875 13.9343V18.1753Z" fill="#605CFF"/>
<path d="M79.249 20.3032H74.7227V35.9157H79.249V20.3032Z" fill="black"/>
<path d="M84.413 35.9159V23.8609H82.2354V20.3034H84.413V15.1147H88.9548V20.3034H91.1324V23.8453H88.9548V35.9004H84.413V35.9159Z" fill="black"/>
<path d="M99.0808 34.7039L92.7969 20.3031H98.0387L100.745 27.4492C100.932 27.8997 101.072 28.4123 101.196 28.9871C101.321 29.5619 101.398 30.2144 101.461 30.9134C101.57 30.3386 101.694 29.7639 101.865 29.158C102.021 28.5677 102.223 27.9307 102.456 27.2627L104.836 20.2876H110.031L100.73 42.984H95.7055L99.0808 34.7039Z" fill="black"/>
<path d="M80.198 14.1826C78.3626 14.4778 77.4138 15.3788 77.1027 17.5692C77.0871 17.6935 76.916 17.6935 76.9005 17.5692C76.5738 15.3944 75.6095 14.4933 73.7896 14.1826C73.6652 14.1671 73.6652 13.9962 73.7896 13.9652C75.6095 13.67 76.5738 12.769 76.9005 10.5786C76.916 10.4543 77.0871 10.4543 77.1027 10.5786C77.4293 12.7534 78.3781 13.6545 80.198 13.9652C80.3224 13.9807 80.3224 14.1516 80.198 14.1826Z" fill="#605CFF"/>
<path d="M71.1297 35.45C70.5075 35.8229 69.8698 36.1025 69.1854 36.2734C68.501 36.4443 67.77 36.5375 66.9611 36.5375C64.5035 36.5375 62.4815 35.7607 60.9416 34.1917C59.3862 32.6227 58.624 30.5876 58.624 28.0865C58.624 25.632 59.4017 23.6436 60.9572 22.0901C62.5126 20.5521 64.5347 19.7754 67.0233 19.7754C67.8477 19.7754 68.5943 19.8531 69.2476 20.0084C69.9009 20.1638 70.5386 20.4123 71.1297 20.7541L71.0986 25.3058C70.6164 24.8242 70.072 24.4358 69.4498 24.1718C68.8276 23.9077 68.1588 23.7678 67.4589 23.7678C66.1834 23.7678 65.1724 24.1562 64.3947 24.933C63.6325 25.7097 63.2437 26.7505 63.2437 28.0244C63.2437 29.3449 63.6325 30.3857 64.4102 31.1624C65.1879 31.9392 66.2456 32.3275 67.5677 32.3275C68.2988 32.3275 68.9521 32.1877 69.512 31.9236C70.0875 31.6595 70.6008 31.2401 71.083 30.6809L71.1297 35.45Z" fill="black"/>
</g>
<defs>
<clipPath id="clip0_518_437">
<rect width="110" height="35" fill="white" transform="translate(0 8)"/>
</clipPath>
</defs>
</svg>
